<svg width="24" height="25" viewBox="0 0 24 25" fill="none" xmlns="http://www.w3.org/2000/svg">
<path d="M10.6667 18.7472H13.3333L13.7333 16.7472C14 16.6361 14.2502 16.5192 14.484 16.3966C14.7178 16.2739 14.9564 16.1241 15.2 15.9472L17.1333 16.5472L18.4667 14.2806L16.9333 12.9472C16.9778 12.6361 17 12.3472 17 12.0806C17 11.8139 16.9778 11.525 16.9333 11.2139L18.4667 9.88057L17.1333 7.6139L15.2 8.2139C14.9556 8.03613 14.7169 7.8859 14.484 7.76324C14.2511 7.64057 14.0009 7.52412 13.7333 7.4139L13.3333 5.4139H10.6667L10.2667 7.4139C10 7.52501 9.74978 7.6419 9.516 7.76457C9.28223 7.88724 9.04356 8.03701 8.8 8.2139L6.86667 7.6139L5.53334 9.88057L7.06667 11.2139C7.02223 11.525 7 11.8139 7 12.0806C7 12.3472 7.02223 12.6361 7.06667 12.9472L5.53334 14.2806L6.86667 16.5472L8.8 15.9472C9.04445 16.125 9.28356 16.2752 9.51734 16.3979C9.75111 16.5206 10.0009 16.637 10.2667 16.7472L10.6667 18.7472ZM12 14.7472C11.2667 14.7472 10.6387 14.4859 10.116 13.9632C9.59334 13.4406 9.33245 12.813 9.33334 12.0806C9.33334 11.3472 9.59467 10.7192 10.1173 10.1966C10.64 9.6739 11.2676 9.41301 12 9.4139C12.7333 9.4139 13.3613 9.67524 13.884 10.1979C14.4067 10.7206 14.6676 11.3481 14.6667 12.0806C14.6667 12.8139 14.4053 13.4419 13.8827 13.9646C13.36 14.4872 12.7324 14.7481 12 14.7472ZM2.66667 24.0806C1.93334 24.0806 1.30534 23.8192 0.782669 23.2966C0.260002 22.7739 -0.000886625 22.1463 2.26373e-06 21.4139V2.74724C2.26373e-06 2.0139 0.261336 1.3859 0.784002 0.863235C1.30667 0.340569 1.93422 0.0796798 2.66667 0.0805687H21.3333C22.0667 0.0805687 22.6947 0.341902 23.2173 0.864569C23.74 1.38724 24.0009 2.01479 24 2.74724V21.4139C24 22.1472 23.7387 22.7752 23.216 23.2979C22.6933 23.8206 22.0658 24.0815 21.3333 24.0806H2.66667ZM2.66667 21.4139H21.3333V2.74724H2.66667V21.4139Z" fill="white"/>
</svg>
