<svg width="28" height="28" viewBox="0 0 28 28" fill="none" xmlns="http://www.w3.org/2000/svg">
<path d="M13.9334 22.0806C14.4001 22.0806 14.7947 21.9193 15.1174 21.5966C15.4401 21.274 15.601 20.8798 15.6001 20.414C15.6001 19.9473 15.4392 19.5526 15.1174 19.23C14.7956 18.9073 14.401 18.7464 13.9334 18.7473C13.4667 18.7473 13.0725 18.9086 12.7507 19.2313C12.429 19.554 12.2676 19.9482 12.2667 20.414C12.2667 20.8806 12.4281 21.2753 12.7507 21.598C13.0734 21.9206 13.4676 22.0815 13.9334 22.0806ZM14.0001 27.414C12.1556 27.414 10.4223 27.0638 8.80008 26.3633C7.17786 25.6629 5.76675 24.7131 4.56675 23.514C3.36675 22.314 2.41697 20.9029 1.71741 19.2806C1.01786 17.6584 0.667637 15.9251 0.666748 14.0806C0.666748 12.2362 1.01697 10.5029 1.71741 8.88065C2.41786 7.25843 3.36764 5.84731 4.56675 4.64731C5.76675 3.44731 7.17786 2.49754 8.80008 1.79798C10.4223 1.09843 12.1556 0.748203 14.0001 0.747314C15.8445 0.747314 17.5779 1.09754 19.2001 1.79798C20.8223 2.49843 22.2334 3.4482 23.4334 4.64731C24.6334 5.84731 25.5836 7.25843 26.2841 8.88065C26.9845 10.5029 27.3343 12.2362 27.3334 14.0806C27.3334 15.9251 26.9832 17.6584 26.2827 19.2806C25.5823 20.9029 24.6325 22.314 23.4334 23.514C22.2334 24.714 20.8223 25.6642 19.2001 26.3646C17.5779 27.0651 15.8445 27.4149 14.0001 27.414ZM14.0001 24.7473C16.9779 24.7473 19.5001 23.714 21.5667 21.6473C23.6334 19.5806 24.6667 17.0584 24.6667 14.0806C24.6667 11.1029 23.6334 8.58065 21.5667 6.51398C19.5001 4.44731 16.9779 3.41398 14.0001 3.41398C11.0223 3.41398 8.50008 4.44731 6.43341 6.51398C4.36675 8.58065 3.33341 11.1029 3.33341 14.0806C3.33341 17.0584 4.36675 19.5806 6.43341 21.6473C8.50008 23.714 11.0223 24.7473 14.0001 24.7473ZM14.1334 8.34731C14.689 8.34731 15.1725 8.52509 15.5841 8.88065C15.9956 9.2362 16.201 9.68065 16.2001 10.214C16.2001 10.7029 16.0503 11.1362 15.7507 11.514C15.4512 11.8918 15.1121 12.2473 14.7334 12.5806C14.2223 13.0251 13.7725 13.514 13.3841 14.0473C12.9956 14.5806 12.801 15.1806 12.8001 15.8473C12.8001 16.1584 12.917 16.4198 13.1507 16.6313C13.3845 16.8429 13.6565 16.9482 13.9667 16.9473C14.3001 16.9473 14.5836 16.8362 14.8174 16.614C15.0512 16.3918 15.201 16.114 15.2667 15.7806C15.3556 15.314 15.5556 14.8971 15.8667 14.53C16.1779 14.1629 16.5112 13.8131 16.8667 13.4806C17.3779 12.9918 17.817 12.4584 18.1841 11.8806C18.5512 11.3029 18.7343 10.6584 18.7334 9.94731C18.7334 8.81398 18.2721 7.88643 17.3494 7.16465C16.4267 6.44287 15.3547 6.08154 14.1334 6.08065C13.289 6.08065 12.4836 6.25843 11.7174 6.61398C10.9512 6.96954 10.3676 7.51398 9.96675 8.24731C9.81119 8.51398 9.76097 8.79754 9.81608 9.09798C9.87119 9.39843 10.0214 9.62598 10.2667 9.78065C10.5779 9.95843 10.9001 10.014 11.2334 9.94731C11.5667 9.88065 11.8445 9.69176 12.0667 9.38065C12.3112 9.04732 12.617 8.79176 12.9841 8.61398C13.3512 8.4362 13.7343 8.34731 14.1334 8.34731Z" fill="white"/>
</svg>
