<svg width="21" height="17" viewBox="0 0 21 17" fill="none" xmlns="http://www.w3.org/2000/svg">
<path d="M11.6097 10.0822L9.47634 7.94886V9.12341C9.47634 9.39508 9.38461 9.62296 9.20116 9.80706C9.0177 9.99115 8.78982 10.0829 8.51751 10.0822C8.24585 10.0822 8.01797 9.99019 7.83387 9.8061C7.64978 9.622 7.55805 9.39444 7.55869 9.12341V5.62371C7.55869 5.35204 7.65074 5.12416 7.83483 4.94007C8.01893 4.75597 8.24649 4.66425 8.51751 4.66489H12.0172C12.2889 4.66489 12.5168 4.75693 12.7009 4.94103C12.885 5.12512 12.9767 5.35268 12.976 5.62371C12.976 5.89538 12.884 6.12326 12.6999 6.30735C12.5158 6.49145 12.2882 6.58317 12.0172 6.58253H10.8187L12.976 8.73989C13.1518 8.91567 13.2397 9.13556 13.2397 9.39956C13.2397 9.66355 13.1518 9.89111 12.976 10.0822C12.7843 10.258 12.5564 10.3501 12.2924 10.3584C12.0284 10.3667 11.8008 10.2746 11.6097 10.0822ZM17.1469 16.1708C16.3479 16.1708 15.6687 15.8911 15.1094 15.3318C14.5501 14.7725 14.2705 14.0933 14.2705 13.2943C14.2705 12.4953 14.5501 11.8161 15.1094 11.2568C15.6687 10.6975 16.3479 10.4178 17.1469 10.4178C17.9459 10.4178 18.6251 10.6975 19.1844 11.2568C19.7437 11.8161 20.0234 12.4953 20.0234 13.2943C20.0234 14.0933 19.7437 14.7725 19.1844 15.3318C18.6251 15.8911 17.9459 16.1708 17.1469 16.1708ZM2.76457 16.1708C2.23722 16.1708 1.78561 15.9828 1.40975 15.607C1.0339 15.2311 0.846286 14.7798 0.846925 14.2531V2.74724C0.846925 2.21989 1.03485 1.76828 1.41071 1.39242C1.78657 1.01656 2.23786 0.828952 2.76457 0.829591H18.1058C18.6331 0.829591 19.0847 1.01752 19.4606 1.39338C19.8364 1.76924 20.024 2.22052 20.0234 2.74724V8.50018H18.1058V2.74724H2.76457V14.2531H12.3528V16.1708H2.76457Z" fill="white"/>
</svg>
