<svg width="196" height="39" viewBox="0 0 196 39" fill="none" xmlns="http://www.w3.org/2000/svg">
<path d="M156.333 29.4V23.96H161.773V29.4H156.333Z" fill="#F47300"/>
<path d="M173.066 30C171.519 30 170.206 29.7067 169.126 29.12C168.059 28.52 167.246 27.7267 166.686 26.74C166.139 25.74 165.866 24.64 165.866 23.44C165.866 22.44 166.019 21.5267 166.326 20.7C166.632 19.8733 167.126 19.1467 167.806 18.52C168.499 17.88 169.426 17.3467 170.586 16.92C171.386 16.6267 172.339 16.3667 173.446 16.14C174.552 15.9133 175.806 15.7 177.206 15.5C178.606 15.2867 180.146 15.0533 181.826 14.8L179.866 15.88C179.866 14.6 179.559 13.66 178.946 13.06C178.332 12.46 177.306 12.16 175.866 12.16C175.066 12.16 174.232 12.3533 173.366 12.74C172.499 13.1267 171.892 13.8133 171.546 14.8L166.626 13.24C167.172 11.4533 168.199 10 169.706 8.88C171.212 7.76 173.266 7.2 175.866 7.2C177.772 7.2 179.466 7.49333 180.946 8.08C182.426 8.66667 183.546 9.68 184.306 11.12C184.732 11.92 184.986 12.72 185.066 13.52C185.146 14.32 185.186 15.2133 185.186 16.2V29.4H180.426V24.96L181.106 25.88C180.052 27.3333 178.912 28.3867 177.686 29.04C176.472 29.68 174.932 30 173.066 30ZM174.226 25.72C175.226 25.72 176.066 25.5467 176.746 25.2C177.439 24.84 177.986 24.4333 178.386 23.98C178.799 23.5267 179.079 23.1467 179.226 22.84C179.506 22.2533 179.666 21.5733 179.706 20.8C179.759 20.0133 179.786 19.36 179.786 18.84L181.386 19.24C179.772 19.5067 178.466 19.7333 177.466 19.92C176.466 20.0933 175.659 20.2533 175.046 20.4C174.432 20.5467 173.892 20.7067 173.426 20.88C172.892 21.0933 172.459 21.3267 172.126 21.58C171.806 21.82 171.566 22.0867 171.406 22.38C171.259 22.6733 171.186 23 171.186 23.36C171.186 23.8533 171.306 24.28 171.546 24.64C171.799 24.9867 172.152 25.2533 172.606 25.44C173.059 25.6267 173.599 25.72 174.226 25.72Z" fill="#F47300"/>
<path d="M189.586 4.8V0H195.026V4.8H189.586ZM189.586 29.4V7.8H195.026V29.4H189.586Z" fill="#F47300"/>
<path d="M12.2136 30.0002C10.0003 30.0002 8.04697 29.5269 6.35363 28.5802C4.67363 27.6202 3.35363 26.3069 2.39363 24.6402C1.44697 22.9602 0.973633 21.0402 0.973633 18.8802C0.973633 16.5202 1.4403 14.4669 2.37363 12.7202C3.30697 10.9735 4.59363 9.62019 6.23363 8.66019C7.87363 7.68686 9.7603 7.2002 11.8936 7.2002C14.1603 7.2002 16.087 7.73353 17.6736 8.80019C19.2603 9.86686 20.4336 11.3669 21.1936 13.3002C21.9536 15.2335 22.2203 17.5069 21.9936 20.1202H16.6136V18.1202C16.6136 15.9202 16.2603 14.3402 15.5536 13.3802C14.8603 12.4069 13.7203 11.9202 12.1336 11.9202C10.2803 11.9202 8.91363 12.4869 8.03363 13.6202C7.16697 14.7402 6.73363 16.4002 6.73363 18.6002C6.73363 20.6135 7.16697 22.1735 8.03363 23.2802C8.91363 24.3735 10.2003 24.9202 11.8936 24.9202C12.9603 24.9202 13.8736 24.6869 14.6336 24.2202C15.3936 23.7535 15.9736 23.0802 16.3736 22.2002L21.8136 23.7602C21.0003 25.7335 19.7136 27.2669 17.9536 28.3602C16.207 29.4535 14.2936 30.0002 12.2136 30.0002ZM5.05363 20.1202V16.0802H19.3736V20.1202H5.05363Z" fill="white"/>
<path d="M30.9189 30.0002C29.3723 30.0002 28.0589 29.7069 26.9789 29.1202C25.9123 28.5202 25.0989 27.7269 24.5389 26.7402C23.9923 25.7402 23.7189 24.6402 23.7189 23.4402C23.7189 22.4402 23.8723 21.5269 24.1789 20.7002C24.4856 19.8735 24.9789 19.1469 25.6589 18.5202C26.3523 17.8802 27.2789 17.3469 28.4389 16.9202C29.2389 16.6269 30.1923 16.3669 31.2989 16.1402C32.4056 15.9135 33.6589 15.7002 35.0589 15.5002C36.4589 15.2869 37.9989 15.0535 39.6789 14.8002L37.7189 15.8802C37.7189 14.6002 37.4123 13.6602 36.7989 13.0602C36.1856 12.4602 35.1589 12.1602 33.7189 12.1602C32.9189 12.1602 32.0856 12.3535 31.2189 12.7402C30.3523 13.1269 29.7456 13.8135 29.3989 14.8002L24.4789 13.2402C25.0256 11.4535 26.0523 10.0002 27.5589 8.8802C29.0656 7.7602 31.1189 7.2002 33.7189 7.2002C35.6256 7.2002 37.3189 7.49353 38.7989 8.08019C40.2789 8.66686 41.3989 9.6802 42.1589 11.1202C42.5856 11.9202 42.8389 12.7202 42.9189 13.5202C42.9989 14.3202 43.0389 15.2135 43.0389 16.2002V29.4002H38.2789V24.9602L38.9589 25.8802C37.9056 27.3335 36.7656 28.3869 35.5389 29.0402C34.3256 29.6802 32.7856 30.0002 30.9189 30.0002ZM32.0789 25.7202C33.0789 25.7202 33.9189 25.5469 34.5989 25.2002C35.2923 24.8402 35.8389 24.4335 36.2389 23.9802C36.6523 23.5269 36.9323 23.1469 37.0789 22.8402C37.3589 22.2535 37.5189 21.5735 37.5589 20.8002C37.6123 20.0135 37.6389 19.3602 37.6389 18.8402L39.2389 19.2402C37.6256 19.5069 36.3189 19.7335 35.3189 19.9202C34.3189 20.0935 33.5123 20.2535 32.8989 20.4002C32.2856 20.5469 31.7456 20.7069 31.2789 20.8802C30.7456 21.0935 30.3123 21.3269 29.9789 21.5802C29.6589 21.8202 29.4189 22.0869 29.2589 22.3802C29.1123 22.6735 29.0389 23.0002 29.0389 23.3602C29.0389 23.8535 29.1589 24.2802 29.3989 24.6402C29.6523 24.9869 30.0056 25.2535 30.4589 25.4402C30.9123 25.6269 31.4523 25.7202 32.0789 25.7202Z" fill="white"/>
<path d="M55.4793 30.0002C52.7593 30.0002 50.5593 29.3869 48.8793 28.1602C47.2126 26.9202 46.1993 25.1735 45.8393 22.9202L51.3993 22.0802C51.6259 23.0935 52.1259 23.8869 52.8993 24.4602C53.6859 25.0335 54.6793 25.3202 55.8793 25.3202C56.8659 25.3202 57.6259 25.1335 58.1593 24.7602C58.6926 24.3735 58.9593 23.8402 58.9593 23.1602C58.9593 22.7335 58.8526 22.3935 58.6393 22.1402C58.4259 21.8735 57.9459 21.6135 57.1993 21.3602C56.4659 21.1069 55.3193 20.7735 53.7593 20.3602C51.9993 19.9069 50.5926 19.4002 49.5393 18.8402C48.4859 18.2802 47.7259 17.6135 47.2593 16.8402C46.7926 16.0535 46.5593 15.1069 46.5593 14.0002C46.5593 12.6135 46.9126 11.4135 47.6193 10.4002C48.3259 9.37353 49.3193 8.58686 50.5993 8.0402C51.8926 7.4802 53.4126 7.2002 55.1593 7.2002C56.8526 7.2002 58.3526 7.4602 59.6593 7.98019C60.9659 8.50019 62.0193 9.2402 62.8193 10.2002C63.6326 11.1602 64.1326 12.2935 64.3193 13.6002L58.7593 14.6002C58.6659 13.8002 58.3193 13.1669 57.7193 12.7002C57.1193 12.2335 56.3059 11.9602 55.2793 11.8802C54.2793 11.8135 53.4726 11.9469 52.8593 12.2802C52.2593 12.6135 51.9593 13.0935 51.9593 13.7202C51.9593 14.0935 52.0859 14.4069 52.3393 14.6602C52.6059 14.9135 53.1459 15.1735 53.9593 15.4402C54.7859 15.7069 56.0393 16.0535 57.7193 16.4802C59.3593 16.9069 60.6726 17.4069 61.6593 17.9802C62.6593 18.5402 63.3859 19.2202 63.8393 20.0202C64.2926 20.8069 64.5193 21.7602 64.5193 22.8802C64.5193 25.0935 63.7193 26.8335 62.1193 28.1002C60.5193 29.3669 58.3059 30.0002 55.4793 30.0002Z" fill="white"/>
<path d="M69.693 39.0002L73.853 27.5602L73.933 30.9202L64.533 7.80019H70.173L76.493 24.1602H75.213L81.493 7.80019H86.933L74.733 39.0002H69.693Z" fill="white"/>
<path d="M96.9855 30.0002C94.2655 30.0002 92.0655 29.3869 90.3855 28.1602C88.7188 26.9202 87.7055 25.1735 87.3455 22.9202L92.9055 22.0802C93.1322 23.0935 93.6322 23.8869 94.4055 24.4602C95.1922 25.0335 96.1855 25.3202 97.3855 25.3202C98.3722 25.3202 99.1322 25.1335 99.6655 24.7602C100.199 24.3735 100.466 23.8402 100.466 23.1602C100.466 22.7335 100.359 22.3935 100.146 22.1402C99.9322 21.8735 99.4522 21.6135 98.7055 21.3602C97.9722 21.1069 96.8255 20.7735 95.2655 20.3602C93.5055 19.9069 92.0988 19.4002 91.0455 18.8402C89.9922 18.2802 89.2322 17.6135 88.7655 16.8402C88.2988 16.0535 88.0655 15.1069 88.0655 14.0002C88.0655 12.6135 88.4188 11.4135 89.1255 10.4002C89.8322 9.37353 90.8255 8.58686 92.1055 8.0402C93.3988 7.4802 94.9188 7.2002 96.6655 7.2002C98.3588 7.2002 99.8588 7.4602 101.166 7.98019C102.472 8.50019 103.526 9.2402 104.326 10.2002C105.139 11.1602 105.639 12.2935 105.826 13.6002L100.266 14.6002C100.172 13.8002 99.8255 13.1669 99.2255 12.7002C98.6255 12.2335 97.8122 11.9602 96.7855 11.8802C95.7855 11.8135 94.9788 11.9469 94.3655 12.2802C93.7655 12.6135 93.4655 13.0935 93.4655 13.7202C93.4655 14.0935 93.5922 14.4069 93.8455 14.6602C94.1122 14.9135 94.6522 15.1735 95.4655 15.4402C96.2922 15.7069 97.5455 16.0535 99.2255 16.4802C100.866 16.9069 102.179 17.4069 103.166 17.9802C104.166 18.5402 104.892 19.2202 105.346 20.0202C105.799 20.8069 106.026 21.7602 106.026 22.8802C106.026 25.0935 105.226 26.8335 103.626 28.1002C102.026 29.3669 99.8122 30.0002 96.9855 30.0002Z" fill="white"/>
<path d="M119.261 30.0002C117.047 30.0002 115.094 29.5269 113.401 28.5802C111.721 27.6202 110.401 26.3069 109.441 24.6402C108.494 22.9602 108.021 21.0402 108.021 18.8802C108.021 16.5202 108.487 14.4669 109.421 12.7202C110.354 10.9735 111.641 9.62019 113.281 8.66019C114.921 7.68686 116.807 7.2002 118.941 7.2002C121.207 7.2002 123.134 7.73353 124.721 8.80019C126.307 9.86686 127.481 11.3669 128.241 13.3002C129.001 15.2335 129.267 17.5069 129.04 20.1202H123.661V18.1202C123.661 15.9202 123.307 14.3402 122.601 13.3802C121.907 12.4069 120.767 11.9202 119.181 11.9202C117.327 11.9202 115.961 12.4869 115.081 13.6202C114.214 14.7402 113.781 16.4002 113.781 18.6002C113.781 20.6135 114.214 22.1735 115.081 23.2802C115.961 24.3735 117.247 24.9202 118.941 24.9202C120.007 24.9202 120.921 24.6869 121.681 24.2202C122.441 23.7535 123.021 23.0802 123.421 22.2002L128.861 23.7602C128.047 25.7335 126.761 27.2669 125.001 28.3602C123.254 29.4535 121.341 30.0002 119.261 30.0002ZM112.101 20.1202V16.0802H126.421V20.1202H112.101Z" fill="white"/>
<path d="M142.076 30.0002C139.903 30.0002 137.996 29.5135 136.356 28.5402C134.716 27.5669 133.436 26.2269 132.516 24.5202C131.61 22.8002 131.156 20.8269 131.156 18.6002C131.156 16.3469 131.623 14.3669 132.556 12.6602C133.49 10.9402 134.776 9.6002 136.416 8.64019C138.056 7.6802 139.943 7.2002 142.076 7.2002C144.25 7.2002 146.156 7.68686 147.796 8.66019C149.45 9.63353 150.736 10.9802 151.656 12.7002C152.576 14.4069 153.036 16.3735 153.036 18.6002C153.036 20.8402 152.57 22.8202 151.636 24.5402C150.716 26.2469 149.43 27.5869 147.776 28.5602C146.136 29.5202 144.236 30.0002 142.076 30.0002ZM142.076 24.9202C143.823 24.9202 145.123 24.3335 145.976 23.1602C146.843 21.9735 147.276 20.4535 147.276 18.6002C147.276 16.6802 146.836 15.1469 145.956 14.0002C145.09 12.8535 143.796 12.2802 142.076 12.2802C140.89 12.2802 139.916 12.5469 139.156 13.0802C138.396 13.6135 137.83 14.3535 137.456 15.3002C137.096 16.2469 136.916 17.3469 136.916 18.6002C136.916 20.5335 137.35 22.0735 138.216 23.2202C139.096 24.3535 140.383 24.9202 142.076 24.9202Z" fill="white"/>
</svg>
