<svg width="73" height="67" viewBox="0 0 73 67" fill="none" xmlns="http://www.w3.org/2000/svg">
<path d="M5.98642 63.5527C6.20482 67.047 23.8033 65.586 35.2645 65.5822C47.2615 65.5783 65.9028 66.839 65.9028 63.3379C65.9028 59.0071 71.2338 54.7828 71.1284 50.918C71.023 47.0532 72.8102 30.5485 70.2111 26.6838C68.136 23.5981 64.0693 20.5172 62.2842 19.3548C62.2768 19.35 62.2713 19.3447 62.2661 19.3375C60.6694 17.127 53.0509 12.6267 35.2645 12.2266C17.4781 12.6267 9.8597 17.127 8.26303 19.3375C8.25784 19.3447 8.25229 19.35 8.24493 19.3548C6.45979 20.5172 3.33681 24.6747 1.26171 27.7604C-1.33737 31.6251 0.901906 48.1628 0.796542 52.0275C0.691176 55.8924 5.77167 60.1166 5.98642 63.5527Z" fill="#9A9A9A"/>
<path d="M5.98642 63.5527C6.20482 67.047 23.8033 65.586 35.2645 65.5822C47.2615 65.5783 65.9028 66.839 65.9028 63.3379C65.9028 59.0071 71.2338 54.7828 71.1284 50.918C71.023 47.0532 72.8102 30.5485 70.2111 26.6838C68.136 23.5981 64.0693 20.5172 62.2842 19.3548C62.2768 19.35 62.2713 19.3447 62.2661 19.3375C60.6694 17.127 53.0509 12.6267 35.2645 12.2266C17.4781 12.6267 9.8597 17.127 8.26303 19.3375C8.25784 19.3447 8.25229 19.35 8.24493 19.3548C6.45979 20.5172 3.33681 24.6747 1.26171 27.7604C-1.33737 31.6251 0.901906 48.1628 0.796542 52.0275C0.691176 55.8924 5.77167 60.1166 5.98642 63.5527Z" fill="url(#paint0_linear_265_3254)"/>
<g filter="url(#filter0_d_265_3254)">
<path d="M8.82584 16.3783C14.1588 16.3783 25.2162 14.1592 35.7769 14.1592C46.3377 14.1591 57.3954 16.3783 62.7284 16.3783C62.1205 17.0225 65.1478 25.3621 57.3955 25.3621C50.3444 25.3621 40.931 24.4673 35.7411 24.4673C30.5512 24.4673 21.2099 25.3621 14.1588 25.3621C6.40651 25.3621 9.43372 17.0225 8.82584 16.3783Z" fill="url(#paint1_linear_265_3254)"/>
</g>
<path d="M1.56551 28.66C1.01802 30.1741 1.33417 44.2651 1.56295 51.0568C1.56437 51.0987 1.60316 51.128 1.64518 51.1231C17.3092 49.3108 15.7848 51.1683 35.6943 51.1683C53.9394 51.1683 54.0794 49.3108 69.7434 51.1231C69.7854 51.128 69.8242 51.0987 69.8256 51.0568C70.0543 44.2651 70.3706 30.1741 69.8231 28.66C69.1361 26.7605 49.1267 24.8999 35.7304 24.8967C22.3061 24.8936 2.25242 26.7605 1.56551 28.66Z" fill="url(#paint2_linear_265_3254)"/>
<path d="M30.495 18.9559C30.4664 16.4362 33.4758 15.6631 35.9713 15.6631C38.4667 15.6631 41.4761 16.4362 41.4474 18.9559C41.4188 21.4757 41.1015 23.7522 40.9463 24.5754H30.996C30.996 24.5754 30.5236 21.4757 30.495 18.9559Z" fill="white"/>
<g filter="url(#filter1_d_265_3254)">
<path d="M35.7559 44.7972C36.3292 44.7972 36.7939 44.3324 36.7939 43.7592C36.7939 43.1859 36.3292 42.7212 35.7559 42.7212C35.1827 42.7212 34.718 43.1859 34.718 43.7592C34.718 44.3324 35.1827 44.7972 35.7559 44.7972Z" fill="#C14800"/>
<path d="M35.756 45.239C36.5732 45.239 37.2357 44.5765 37.2357 43.7593C37.2357 42.942 36.5732 42.2795 35.756 42.2795C34.9387 42.2795 34.2762 42.942 34.2762 43.7593C34.2762 44.5765 34.9387 45.239 35.756 45.239Z" stroke="#C14800" stroke-width="0.883469"/>
</g>
<path d="M37.0456 17.71H34.3254C32.6686 17.71 31.3255 19.0531 31.3255 20.7099C31.3255 22.3667 32.6686 23.7099 34.3254 23.7099H37.0456C38.7025 23.7099 40.0456 22.3667 40.0456 20.7099C40.0456 19.0531 38.7025 17.71 37.0456 17.71Z" fill="#0C0316" stroke="#E4E4E2" stroke-width="0.631046"/>
<path d="M19.1127 28.0469C19.1127 28.0469 29.3207 27.5442 35.8659 27.5459C42.3533 27.5476 52.4711 28.0469 52.4711 28.0469" stroke="#62626C" stroke-width="0.631046"/>
<path d="M1.28815 28.5841C1.28815 28.5841 7.69497 24.8259 35.1181 24.8259C63.9604 24.8258 70.761 28.8705 70.761 28.8705" stroke="#62626C" stroke-width="0.631046"/>
<path d="M27.7032 35.0213C27.7032 32.4891 22.367 30.1628 19.1181 29.1995C19.103 29.195 19.0895 29.1934 19.0739 29.1949C18.6801 29.2306 13.0724 29.7697 10.7315 31.6563C10.7202 31.6655 10.7109 31.6763 10.7035 31.6888C10.0395 32.8204 10.4127 34.7339 10.4127 41.979C10.4128 45.8378 10.4505 44.8949 19.5252 47.6546C19.5403 47.6591 19.5561 47.6612 19.5718 47.6598C22.3718 47.4185 27.7032 42.9407 27.7032 35.0213Z" fill="url(#paint3_linear_265_3254)"/>
<path d="M43.8818 35.0199C43.8818 32.4876 49.2181 30.1614 52.467 29.198C52.482 29.1936 52.4955 29.1919 52.5112 29.1934C52.9049 29.2292 58.5126 29.7682 60.8535 31.6549C60.8649 31.664 60.8742 31.6748 60.8816 31.6874C61.5456 32.819 61.1724 34.7325 61.1723 41.9775C61.1723 45.8364 61.1346 44.8934 52.0598 47.6531C52.0448 47.6577 52.0289 47.6597 52.0132 47.6583C49.2132 47.4171 43.8818 42.9393 43.8818 35.0199Z" fill="url(#paint4_linear_265_3254)"/>
<path d="M36.0071 54.3396H31.3746C30.924 54.3396 30.4579 54.6825 30.446 55.2357C30.4344 55.7761 30.5512 56.6044 30.8424 57.3191C31.1114 57.9794 31.6784 58.8777 32.731 58.8777H36.0787H39.3358C40.3883 58.8777 40.9554 57.9794 41.2244 57.3191C41.5156 56.6044 41.6324 55.7761 41.6208 55.2357C41.6089 54.6825 41.1427 54.3396 40.6922 54.3396H36.0071Z" fill="#030418" stroke="url(#paint5_linear_265_3254)" stroke-width="1.3883"/>
<path d="M23.6227 56.7303C24.7572 56.7303 25.6769 55.8106 25.6769 54.6761C25.6769 53.5415 24.7572 52.6218 23.6227 52.6218C22.4881 52.6218 21.5684 53.5415 21.5684 54.6761C21.5684 55.8106 22.4881 56.7303 23.6227 56.7303Z" fill="#030418" stroke="url(#paint6_linear_265_3254)" stroke-width="1.3883"/>
<path d="M47.9617 56.7303C49.0962 56.7303 50.0159 55.8106 50.0159 54.6761C50.0159 53.5415 49.0962 52.6218 47.9617 52.6218C46.8271 52.6218 45.9074 53.5415 45.9074 54.6761C45.9074 55.8106 46.8271 56.7303 47.9617 56.7303Z" fill="#030418" stroke="url(#paint7_linear_265_3254)" stroke-width="1.3883"/>
<path d="M17.9179 62.4013C24.9398 61.9629 28.8866 61.6915 35.924 61.6912C42.9697 61.6908 46.9298 61.9629 53.9517 62.4013L54.2592 62.4205C58.7263 62.6994 66.3898 62.6758 65.907 63.6969C65.0621 65.4839 60.4597 65.8431 54.6542 65.8431C48.8486 65.8431 35.9348 66.7737 35.9348 66.7737L15.8195 66.1294C10.014 66.1294 6.80755 65.4839 5.96262 63.6969C5.47982 62.6758 13.1433 62.6994 17.6104 62.4205L17.9179 62.4013Z" fill="#12033B"/>
<path fill-rule="evenodd" clip-rule="evenodd" d="M52.4715 65.1993H18.8983L16.3928 64.054H54.9769L52.4715 65.1993Z" fill="url(#paint8_linear_265_3254)"/>
<g filter="url(#filter2_d_265_3254)">
<path d="M15.7213 5.53518C15.5247 5.54869 15.3786 5.71401 15.3951 5.90443L15.4609 6.66298C15.4774 6.8534 15.6503 6.99682 15.847 6.98331L18.2692 6.817L18.8764 13.8163C18.8913 13.9877 19.0469 14.1167 19.224 14.1046C19.401 14.0925 19.5325 13.9437 19.5176 13.7723L18.9104 6.77297L20.6914 6.65067C20.8881 6.63717 21.0342 6.47184 21.0177 6.28142L20.9518 5.52288C20.9353 5.33245 20.7624 5.18904 20.5657 5.20254L15.7213 5.53518Z" fill="#FFF6FF"/>
</g>
<g filter="url(#filter3_d_265_3254)">
<path d="M21.2068 5.09184L15.4947 5.44605C15.3556 5.45468 15.2498 5.57446 15.2584 5.7136L15.3271 6.82144C15.3357 6.96058 15.4555 7.06638 15.5947 7.05776L21.3067 6.70354C21.4459 6.69492 21.5517 6.57513 21.543 6.43599L21.4743 5.32815C21.4657 5.18901 21.3459 5.08321 21.2068 5.09184Z" fill="#FFF9FF"/>
</g>
<g filter="url(#filter4_d_265_3254)">
<path d="M55.0813 5.53518C55.278 5.54869 55.4241 5.71401 55.4076 5.90443L55.3418 6.66298C55.3253 6.8534 55.1524 6.99682 54.9557 6.98331L52.5335 6.817L51.9262 13.8163C51.9113 13.9877 51.7558 14.1167 51.5787 14.1046C51.4017 14.0925 51.2702 13.9437 51.2851 13.7723L51.8924 6.77297L50.1114 6.65067C49.9147 6.63717 49.7686 6.47184 49.7851 6.28142L49.8509 5.52288C49.8674 5.33245 50.0403 5.18904 50.237 5.20254L55.0813 5.53518Z" fill="#FFF6FF"/>
</g>
<g filter="url(#filter5_d_265_3254)">
<path d="M49.5959 5.09184L55.3079 5.44605C55.4471 5.45468 55.5529 5.57446 55.5443 5.7136L55.4756 6.82144C55.4669 6.96058 55.3471 7.06638 55.208 7.05776L49.4959 6.70354C49.3568 6.69492 49.251 6.57513 49.2596 6.43599L49.3283 5.32815C49.337 5.18901 49.4568 5.08321 49.5959 5.09184Z" fill="#FFF9FF"/>
</g>
<path fill-rule="evenodd" clip-rule="evenodd" d="M34.7182 12.2274V1.84761L35.2193 1.74023L35.7204 1.84761V12.2274H34.7182Z" fill="#EDE3EC"/>
<path d="M37.0231 11.1538H33.2026C32.8541 11.1538 32.5716 11.4363 32.5716 11.7849V13.5293C32.5716 13.8778 32.8541 14.1604 33.2026 14.1604H37.0231C37.3716 14.1604 37.6541 13.8778 37.6541 13.5293V11.7849C37.6541 11.4363 37.3716 11.1538 37.0231 11.1538Z" fill="url(#paint9_linear_265_3254)"/>
<defs>
<filter id="filter0_d_265_3254" x="8.22813" y="14.1592" width="55.098" height="12.2126" filterUnits="userSpaceOnUse" color-interpolation-filters="sRGB">
<feFlood flood-opacity="0" result="BackgroundImageFix"/>
<feColorMatrix in="SourceAlpha" type="matrix" values="0 0 0 0 0 0 0 0 0 0 0 0 0 0 0 0 0 0 127 0" result="hardAlpha"/>
<feOffset dy="0.504837"/>
<feGaussianBlur stdDeviation="0.252419"/>
<feComposite in2="hardAlpha" operator="out"/>
<feColorMatrix type="matrix" values="0 0 0 0 0 0 0 0 0 0 0 0 0 0 0 0 0 0 0.25 0"/>
<feBlend mode="normal" in2="BackgroundImageFix" result="effect1_dropShadow_265_3254"/>
<feBlend mode="normal" in="SourceGraphic" in2="effect1_dropShadow_265_3254" result="shape"/>
</filter>
<filter id="filter1_d_265_3254" x="33.3297" y="41.8379" width="4.85251" height="4.85245" filterUnits="userSpaceOnUse" color-interpolation-filters="sRGB">
<feFlood flood-opacity="0" result="BackgroundImageFix"/>
<feColorMatrix in="SourceAlpha" type="matrix" values="0 0 0 0 0 0 0 0 0 0 0 0 0 0 0 0 0 0 127 0" result="hardAlpha"/>
<feOffset dy="0.504837"/>
<feGaussianBlur stdDeviation="0.252419"/>
<feComposite in2="hardAlpha" operator="out"/>
<feColorMatrix type="matrix" values="0 0 0 0 0 0 0 0 0 0 0 0 0 0 0 0 0 0 0.25 0"/>
<feBlend mode="normal" in2="BackgroundImageFix" result="effect1_dropShadow_265_3254"/>
<feBlend mode="normal" in="SourceGraphic" in2="effect1_dropShadow_265_3254" result="shape"/>
</filter>
<filter id="filter2_d_265_3254" x="13.5007" y="3.81336" width="9.41134" height="12.6901" filterUnits="userSpaceOnUse" color-interpolation-filters="sRGB">
<feFlood flood-opacity="0" result="BackgroundImageFix"/>
<feColorMatrix in="SourceAlpha" type="matrix" values="0 0 0 0 0 0 0 0 0 0 0 0 0 0 0 0 0 0 127 0" result="hardAlpha"/>
<feOffset dy="0.504837"/>
<feGaussianBlur stdDeviation="0.946571"/>
<feComposite in2="hardAlpha" operator="out"/>
<feColorMatrix type="matrix" values="0 0 0 0 0.74 0 0 0 0 0 0 0 0 0 1 0 0 0 1 0"/>
<feBlend mode="normal" in2="BackgroundImageFix" result="effect1_dropShadow_265_3254"/>
<feBlend mode="normal" in="SourceGraphic" in2="effect1_dropShadow_265_3254" result="shape"/>
</filter>
<filter id="filter3_d_265_3254" x="12.6075" y="2.94575" width="11.5864" height="7.26784" filterUnits="userSpaceOnUse" color-interpolation-filters="sRGB">
<feFlood flood-opacity="0" result="BackgroundImageFix"/>
<feColorMatrix in="SourceAlpha" type="matrix" values="0 0 0 0 0 0 0 0 0 0 0 0 0 0 0 0 0 0 127 0" result="hardAlpha"/>
<feOffset dy="0.504837"/>
<feGaussianBlur stdDeviation="1.3252"/>
<feComposite in2="hardAlpha" operator="out"/>
<feColorMatrix type="matrix" values="0 0 0 0 0.898039 0 0 0 0 0.396078 0 0 0 0 0.917647 0 0 0 0.56 0"/>
<feBlend mode="normal" in2="BackgroundImageFix" result="effect1_dropShadow_265_3254"/>
<feBlend mode="normal" in="SourceGraphic" in2="effect1_dropShadow_265_3254" result="shape"/>
</filter>
<filter id="filter4_d_265_3254" x="47.8907" y="3.81336" width="9.41134" height="12.6901" filterUnits="userSpaceOnUse" color-interpolation-filters="sRGB">
<feFlood flood-opacity="0" result="BackgroundImageFix"/>
<feColorMatrix in="SourceAlpha" type="matrix" values="0 0 0 0 0 0 0 0 0 0 0 0 0 0 0 0 0 0 127 0" result="hardAlpha"/>
<feOffset dy="0.504837"/>
<feGaussianBlur stdDeviation="0.946571"/>
<feComposite in2="hardAlpha" operator="out"/>
<feColorMatrix type="matrix" values="0 0 0 0 0.74 0 0 0 0 0 0 0 0 0 1 0 0 0 1 0"/>
<feBlend mode="normal" in2="BackgroundImageFix" result="effect1_dropShadow_265_3254"/>
<feBlend mode="normal" in="SourceGraphic" in2="effect1_dropShadow_265_3254" result="shape"/>
</filter>
<filter id="filter5_d_265_3254" x="46.6088" y="2.94575" width="11.5864" height="7.26784" filterUnits="userSpaceOnUse" color-interpolation-filters="sRGB">
<feFlood flood-opacity="0" result="BackgroundImageFix"/>
<feColorMatrix in="SourceAlpha" type="matrix" values="0 0 0 0 0 0 0 0 0 0 0 0 0 0 0 0 0 0 127 0" result="hardAlpha"/>
<feOffset dy="0.504837"/>
<feGaussianBlur stdDeviation="1.3252"/>
<feComposite in2="hardAlpha" operator="out"/>
<feColorMatrix type="matrix" values="0 0 0 0 0.898039 0 0 0 0 0.396078 0 0 0 0 0.917647 0 0 0 0.56 0"/>
<feBlend mode="normal" in2="BackgroundImageFix" result="effect1_dropShadow_265_3254"/>
<feBlend mode="normal" in="SourceGraphic" in2="effect1_dropShadow_265_3254" result="shape"/>
</filter>
<linearGradient id="paint0_linear_265_3254" x1="4.47403" y1="22.1768" x2="64.3903" y2="65.915" gradientUnits="userSpaceOnUse">
<stop offset="0.0578737" stop-color="#F88DFF"/>
<stop offset="0.152751" stop-color="#E7B6EA" stop-opacity="0.457891"/>
<stop offset="0.415118" stop-color="#D4C3D4" stop-opacity="0.354614"/>
<stop offset="0.707926" stop-color="#CBBDCA" stop-opacity="0.486605"/>
<stop offset="1" stop-color="#A8A7A3"/>
</linearGradient>
<linearGradient id="paint1_linear_265_3254" x1="9.98573" y1="19.7427" x2="61.3834" y2="19.7427" gradientUnits="userSpaceOnUse">
<stop stop-color="#CAC9C7"/>
<stop offset="0.507101" stop-color="#FCFCFA"/>
<stop offset="1" stop-color="#DEDEDE"/>
</linearGradient>
<linearGradient id="paint2_linear_265_3254" x1="1.28893" y1="38.0683" x2="70.1533" y2="38.0683" gradientUnits="userSpaceOnUse">
<stop stop-color="#D9D9D9"/>
<stop offset="0.51124" stop-color="white"/>
<stop offset="1" stop-color="#D9D9D9" stop-opacity="0"/>
</linearGradient>
<linearGradient id="paint3_linear_265_3254" x1="10.3082" y1="38.4455" x2="27.6741" y2="38.4455" gradientUnits="userSpaceOnUse">
<stop stop-color="#B80324"/>
<stop offset="0.0728956" stop-color="#B8039E"/>
<stop offset="0.146751" stop-color="#780091"/>
<stop offset="0.273132" stop-color="#400173"/>
<stop offset="0.799718" stop-color="#1B014B"/>
<stop offset="1" stop-color="#0A0021"/>
</linearGradient>
<linearGradient id="paint4_linear_265_3254" x1="61.2769" y1="38.4441" x2="43.9109" y2="38.4441" gradientUnits="userSpaceOnUse">
<stop stop-color="#B80324"/>
<stop offset="0.0728956" stop-color="#B8039E"/>
<stop offset="0.146751" stop-color="#780091"/>
<stop offset="0.273132" stop-color="#400173"/>
<stop offset="0.799718" stop-color="#1B014B"/>
<stop offset="1" stop-color="#0A0021"/>
</linearGradient>
<linearGradient id="paint5_linear_265_3254" x1="27.6675" y1="55.0338" x2="40.9464" y2="61.0469" gradientUnits="userSpaceOnUse">
<stop stop-color="#F8F8F6"/>
<stop offset="1" stop-color="#F8F8F6" stop-opacity="0"/>
</linearGradient>
<linearGradient id="paint6_linear_265_3254" x1="21.2978" y1="53.316" x2="25.6523" y2="53.9506" gradientUnits="userSpaceOnUse">
<stop stop-color="#F8F8F6"/>
<stop offset="1" stop-color="#F8F8F6" stop-opacity="0"/>
</linearGradient>
<linearGradient id="paint7_linear_265_3254" x1="45.6367" y1="53.316" x2="49.9913" y2="53.9506" gradientUnits="userSpaceOnUse">
<stop stop-color="#F8F8F6"/>
<stop offset="1" stop-color="#F8F8F6" stop-opacity="0"/>
</linearGradient>
<linearGradient id="paint8_linear_265_3254" x1="18.3977" y1="54.89" x2="42.8438" y2="65.735" gradientUnits="userSpaceOnUse">
<stop stop-color="#9A91DB"/>
<stop offset="1" stop-color="#9A91DB" stop-opacity="0.43"/>
</linearGradient>
<linearGradient id="paint9_linear_265_3254" x1="29.9588" y1="12.3349" x2="38.5489" y2="12.8002" gradientUnits="userSpaceOnUse">
<stop offset="0.274383" stop-color="#0D0415"/>
<stop offset="1" stop-color="#0F0D0E"/>
</linearGradient>
</defs>
</svg>
