<svg width="492" height="433" viewBox="0 0 492 433" fill="none" xmlns="http://www.w3.org/2000/svg">
<path d="M251.266 225.066C263.463 229.602 275.722 234.076 287.92 238.612C272.228 238.796 256.476 238.98 240.784 239.164C238.884 235.364 235.574 229.97 230.119 224.882C227.545 222.492 225.4 221.205 223.254 219.55C207.686 207.904 198.798 204.165 193.649 193.438C191.626 189.148 190.83 185.164 190.523 182.528C195.488 178.115 200.392 173.64 205.356 169.227C210.628 173.763 214.305 177.87 216.573 180.567C229.077 195.522 230.426 206.433 243.604 218.753C246.791 221.818 249.611 223.902 251.266 225.066Z" fill="#FFBAB8"/>
<path d="M241.704 209.804C235.513 214.278 229.322 218.753 223.131 223.288C213.876 217.159 202.659 207.842 193.343 194.051C191.136 190.741 189.175 187.493 187.52 184.367C176.916 166.959 169.683 155.068 166.434 149.674C166.434 149.674 141.365 108.485 147.004 97.1451C147.74 95.674 148.537 94.632 149.088 93.9578C160.673 90.1576 172.319 86.3573 183.903 82.6184C190.891 107.872 197.817 133.063 204.805 158.317C209.095 166.101 214.244 174.498 220.373 183.202C227.545 193.377 234.839 202.264 241.704 209.804Z" fill="#9200FF"/>
<path d="M373.976 150.349C373.425 151.268 372.934 152.372 372.628 153.475L356.201 207.352C354.24 213.788 357.12 220.653 362.698 223.963C363.74 224.576 364.721 225.066 365.885 225.373C366.989 225.741 368.153 225.863 369.257 225.925C375.692 226.415 381.822 222.247 383.783 215.811L400.21 161.872C402.294 155.191 399.168 148.02 393.223 144.894C392.364 144.465 391.506 144.158 390.648 143.852C384.09 141.89 377.286 144.71 373.976 150.349Z" fill="#FEFDFF"/>
<path d="M398.862 139.132C393.162 135.639 386.174 138.581 383.6 139.684C367.602 146.426 365.886 174.131 365.763 175.848C365.824 175.664 365.886 175.48 365.947 175.173C366.928 172.109 371.647 156.969 385.745 149.736C388.748 148.204 395 145.507 404.011 145.936C403.398 144.097 401.988 141.032 398.862 139.132Z" fill="#9200FF"/>
<path d="M471.005 332.637H375.141C369.624 332.637 365.088 328.102 365.088 322.585V321.85C365.088 316.333 369.624 311.797 375.141 311.797H470.943C476.46 311.797 480.996 316.333 480.996 321.85V322.647C480.996 328.163 476.521 332.637 471.005 332.637Z" fill="#BDD5FF"/>
<path d="M447.284 305.484C429.386 305.484 417.005 290.958 419.702 273.06L426.444 227.334C429.08 209.436 445.752 194.91 463.65 194.91C481.548 194.91 493.929 209.436 491.232 227.334L484.49 273.06C481.854 290.958 465.182 305.484 447.284 305.484Z" fill="#BDD5FF"/>
<path d="M425.586 332.637H415.595V397.671H425.586V332.637Z" fill="black"/>
<path d="M381.883 424.395L377.777 422.372C382.006 413.729 387.829 406.19 395.123 399.938C402.417 393.748 411.121 389.028 420.315 386.331L421.602 390.744C413.021 393.257 404.93 397.67 398.126 403.432C391.261 409.255 385.806 416.304 381.883 424.395Z" fill="black"/>
<path d="M380.351 432.179C385.225 432.179 389.177 428.227 389.177 423.353C389.177 418.478 385.225 414.526 380.351 414.526C375.476 414.526 371.524 418.478 371.524 423.353C371.524 428.227 375.476 432.179 380.351 432.179Z" fill="black"/>
<path d="M461.627 424.395C457.765 416.427 452.126 409.194 445.384 403.494C438.58 397.732 430.428 393.319 421.908 390.806L423.195 386.393C432.389 389.09 441.093 393.809 448.387 400C455.62 406.129 461.627 413.914 465.733 422.434L461.627 424.395Z" fill="black"/>
<path d="M463.159 432.179C468.034 432.179 471.986 428.227 471.986 423.353C471.986 418.478 468.034 414.526 463.159 414.526C458.285 414.526 454.333 418.478 454.333 423.353C454.333 428.227 458.285 432.179 463.159 432.179Z" fill="black"/>
<path d="M323.287 294.758C323.655 289.67 324.023 284.705 324.452 279.679C336.22 273.366 360.186 262.64 391.937 261.72C406.831 261.291 419.642 263.069 429.878 265.459C437.417 267.175 442.504 274.163 441.707 281.886C440.298 293.532 432.513 303.032 421.603 306.465C415.044 308.549 407.689 310.265 399.537 311.185C363.619 315.291 335.546 301.745 323.287 294.758Z" fill="#FEFDFF"/>
<path d="M312.438 325.405C311.58 340.36 313.787 348.206 314.522 369.843C315.074 385.473 314.522 398.222 313.971 406.19C314.032 406.19 322.307 407.968 322.307 407.968L326.291 408.765C326.291 407.968 326.352 407.232 326.352 406.435C326.965 387.128 330.214 372.295 333.156 361.997C339.101 341.586 345.905 332.76 345.721 317.252C345.537 304.381 340.634 294.022 335.914 286.728C335.853 286.544 335.791 286.483 335.73 286.421C335.178 285.563 334.627 284.767 334.075 284.031C329.907 284.337 325.617 284.521 321.449 284.705C321.203 285.379 320.897 286.115 320.713 286.789C314.829 303.093 313.051 316.394 312.438 325.405Z" fill="#FEFDFF"/>
<path d="M272.781 429.543H325.862C326.72 428.93 327.885 427.949 328.375 426.539C328.988 424.639 328.191 422.862 327.946 422.249C327.026 419.981 326.107 415.997 326.352 408.274C327.517 398.835 328.62 389.395 329.785 379.956C318.936 368.065 315.197 366.778 313.726 367.636C311.825 368.8 313.542 373.949 314.277 385.656C314.645 391.786 314.522 396.751 314.4 399.815C311.825 403.186 307.351 408.09 300.425 410.971C289.576 415.507 280.688 411.829 275.662 417.713C274.007 419.613 272.352 422.984 272.781 429.543Z" fill="black"/>
<path d="M318.874 289.425C319.671 291.693 321.265 292.551 327.762 296.535C340.45 304.258 341.369 305.3 342.656 304.565C346.518 302.542 345.966 288.812 338.304 281.334C337.262 280.292 330.949 274.163 324.697 276.737C319.916 278.76 317.403 285.134 318.874 289.425Z" fill="#9200FF"/>
<path d="M432.39 282.99C424.116 280.538 418.722 275.879 416.209 273.428C401.804 242.597 387.4 211.766 372.996 180.996C371.648 178.483 370.299 174.989 369.993 170.699C368.89 155.253 382.681 139.194 398.985 134.597C416.699 129.632 431.716 139.623 434.106 141.339C439.378 151.636 444.526 163.466 448.94 176.828C460.34 211.459 461.995 242.719 461.076 265.398C460.463 267.298 459.789 269.26 458.992 271.221C457.153 275.818 455.069 279.925 453.046 283.419C449.553 284.338 441.707 285.809 432.39 282.99Z" fill="#C5EFFF"/>
<path d="M348.969 296.413C349.336 291.326 349.704 286.361 350.133 281.335C361.902 275.021 385.868 264.295 417.618 263.375C432.512 262.946 445.323 264.724 455.559 267.114C463.098 268.831 468.186 275.818 467.389 283.541C465.979 295.187 458.195 304.688 447.284 308.12C440.726 310.204 433.371 311.92 425.218 312.84C389.3 317.008 361.227 303.4 348.969 296.413Z" fill="#FEFDFF"/>
<path d="M338.12 327.121C337.262 342.077 339.469 349.922 340.204 371.559C340.756 387.189 340.204 399.938 339.652 407.906C339.714 407.906 347.988 409.684 347.988 409.684L351.973 410.481C351.973 409.684 352.034 408.948 352.034 408.152C352.647 388.844 355.895 374.011 358.837 363.713C364.783 343.302 371.587 334.476 371.403 318.969C371.219 306.097 366.315 295.738 361.596 288.444C361.534 288.26 361.473 288.199 361.412 288.138C360.86 287.28 360.309 286.483 359.757 285.747C355.589 286.054 351.298 286.238 347.13 286.422C346.885 287.096 346.579 287.831 346.395 288.506C340.511 304.81 338.733 318.111 338.12 327.121Z" fill="#FEFDFF"/>
<path d="M298.462 431.259H351.543C352.401 430.646 353.566 429.666 354.056 428.256C354.669 426.356 353.872 424.578 353.627 423.965C352.708 421.698 351.788 417.713 352.033 409.99C353.198 400.551 354.301 391.112 355.466 381.672C344.617 369.781 340.878 368.494 339.407 369.352C337.507 370.517 339.223 375.666 339.958 387.373C340.326 393.502 340.204 398.467 340.081 401.532C337.507 404.903 333.032 409.806 326.106 412.687C315.257 417.223 306.369 413.545 301.343 419.43C299.688 421.33 298.033 424.701 298.462 431.259Z" fill="#9200FF"/>
<path d="M344.555 291.141C345.352 293.409 346.946 294.267 353.443 298.252C366.131 305.975 367.05 307.017 368.337 306.281C372.199 304.197 371.647 290.528 363.985 283.051C362.943 282.009 356.691 275.879 350.439 278.454C345.597 280.476 343.084 286.79 344.555 291.141Z" fill="#9200FF"/>
<path d="M411.488 264.478C417.557 262.946 425.157 261.659 433.983 261.475C448.878 261.169 461.075 264.295 469.227 267.175C468.369 270.363 467.45 273.611 466.592 276.799C462.056 273.979 456.417 270.976 449.552 268.646C433.983 263.191 420.07 263.498 411.488 264.478Z" fill="#9200FF"/>
<path d="M355.65 277.534C355.344 277.534 355.098 277.35 354.976 277.105C354.792 276.737 354.976 276.247 355.344 276.063C362.209 272.814 369.441 270.179 376.797 268.278C387.462 265.581 398.433 264.356 409.528 264.723C409.957 264.723 410.263 265.091 410.263 265.52C410.263 265.949 409.895 266.256 409.528 266.256C398.617 265.888 387.707 267.114 377.226 269.749C369.932 271.588 362.821 274.163 356.079 277.411C355.834 277.534 355.773 277.534 355.65 277.534Z" fill="black"/>
<path d="M337.936 346.551C337.507 346.551 337.201 346.183 337.201 345.816V338.583C337.201 338.154 337.569 337.847 337.936 337.847C338.365 337.847 338.672 338.215 338.672 338.583V345.816C338.733 346.183 338.365 346.551 337.936 346.551Z" fill="black"/>
<path d="M337.935 333.128C337.445 333.067 337.138 332.699 337.199 332.27L340.571 305.484C340.632 305.055 341.061 304.749 341.429 304.81C341.858 304.871 342.164 305.239 342.103 305.668L338.732 332.454C338.67 332.883 338.303 333.128 337.935 333.128Z" fill="black"/>
<path d="M414.92 150.655C414.307 151.574 413.817 152.678 413.449 153.72L395.184 207.046C392.977 213.42 395.613 220.346 401.068 223.84C402.048 224.453 403.029 225.005 404.194 225.373C405.297 225.802 406.4 225.924 407.565 226.047C413.94 226.782 420.253 222.798 422.459 216.424L440.725 163.098C443.054 156.539 440.173 149.245 434.35 145.874C433.492 145.445 432.634 145.077 431.837 144.71C425.34 142.503 418.414 145.077 414.92 150.655Z" fill="#FEFDFF"/>
<path d="M440.235 140.297C435.025 136.068 426.505 139.684 424.911 140.297C408.668 146.488 405.971 174.07 405.849 175.847C405.91 175.664 405.971 175.48 406.094 175.173C406.217 174.744 406.462 174.07 406.829 173.212C415.656 150.717 426.75 150.472 426.75 150.472C434.044 150.349 439.683 158.746 441.215 161.198C445.567 152.556 444.771 143.975 440.235 140.297Z" fill="#9200FF"/>
<path d="M408.853 218.753C381.087 216.915 353.26 215.137 325.493 213.359C325.371 215.137 325.248 217.037 325.064 218.937C324.88 221.757 324.696 224.576 324.451 227.396C327.945 229.235 377.961 255.469 401.191 238.735C403.214 237.203 405.176 235.364 406.769 232.974L408.853 218.753Z" fill="#FEFDFF"/>
<path d="M367.786 231.809C348.908 228.683 334.933 222.676 325.064 218.937C324.88 221.757 324.697 224.576 324.451 227.396C327.945 229.235 377.961 255.469 401.192 238.735C403.214 237.203 405.176 235.364 406.769 232.974L406.892 232.116C389.055 233.28 377.9 233.464 367.786 231.809Z" fill="#C5EFFF"/>
<path d="M408.179 217.956C402.54 217.098 397.33 221.021 396.533 226.599C395.675 232.238 399.598 237.448 405.175 238.244C410.815 239.103 416.025 235.18 416.821 229.602C417.679 224.024 413.818 218.814 408.179 217.956Z" fill="#9200FF"/>
<path d="M427.976 243.577H208.911C207.502 243.577 206.276 242.412 206.276 240.941C206.276 239.286 207.44 238.122 208.911 238.122H428.038C429.447 238.122 430.673 239.286 430.673 240.757C430.612 242.412 429.447 243.577 427.976 243.577Z" fill="black"/>
<path d="M354.67 238.183H255.312C253.718 238.183 252.308 237.141 251.818 235.67L230.426 171.311C229.63 168.921 231.407 166.408 233.92 166.408H333.278C334.872 166.408 336.281 167.45 336.772 168.921L358.163 233.28C358.96 235.67 357.183 238.183 354.67 238.183Z" fill="black"/>
<path d="M392.427 238.429H306.37C304.837 238.429 303.55 237.142 303.55 235.609C303.55 233.832 304.837 232.544 306.37 232.544H392.427C393.959 232.544 395.246 233.832 395.246 235.364C395.246 237.142 393.959 238.429 392.427 238.429Z" fill="black"/>
<path d="M344.125 238.306H258.436C258.007 238.306 257.701 237.938 257.701 237.57C257.701 237.141 258.069 236.835 258.436 236.835H344.187C344.616 236.835 344.922 237.203 344.922 237.57C344.922 237.938 344.555 238.306 344.125 238.306Z" fill="#A7CAEA"/>
<path d="M384.397 238.919H367.725C367.296 238.919 366.989 238.551 366.989 238.183C366.989 237.754 367.357 237.448 367.725 237.448H384.397C384.826 237.448 385.132 237.815 385.132 238.183C385.132 238.551 384.826 238.919 384.397 238.919Z" fill="#A7CAEA"/>
<path d="M404.623 156.356L398.432 158.072C392.303 159.727 385.867 155.743 384.09 149.246L383.477 146.917L379.554 132.451C379.002 130.428 379.002 128.406 379.431 126.444C380.228 122.276 383.293 118.721 387.461 117.618L391.138 116.637L393.652 115.963C399.72 114.308 406.217 118.354 407.933 124.789L412.469 141.523C414.246 148.02 410.691 154.701 404.623 156.356Z" fill="#9200FF"/>
<path d="M391.445 137.048C389.361 141.277 386.541 144.71 383.477 146.917L379.554 132.451C379.002 130.428 379.002 128.406 379.431 126.444C380.228 122.276 383.293 118.721 387.461 117.618L391.138 116.637C394.939 120.867 395.245 129.141 391.445 137.048Z" fill="black"/>
<path d="M362.208 91.3224C360.553 93.4677 359.082 95.613 357.856 97.8809C356.569 100.271 355.588 102.662 354.791 105.114C351.542 115.411 353.136 125.279 359.756 130.489C367.847 136.803 380.596 134.29 391.138 125.341C393.345 123.379 395.306 121.357 397.207 118.966C408.239 104.991 409.22 87.5222 399.536 79.9217C398.923 79.4314 398.371 79.0636 397.758 78.7572C397.636 78.6959 397.513 78.6346 397.452 78.5733C391.2 75.0182 382.619 75.8763 374.589 80.5347C372.076 81.8832 369.686 83.6607 367.418 85.7447C365.579 87.3996 363.801 89.2384 362.208 91.3224Z" fill="#FEFDFF"/>
<path d="M369.686 85.8677C361.473 96.2877 363.495 111.55 374.16 119.947C384.826 128.344 400.088 126.69 408.301 116.27C416.515 105.85 414.492 90.5873 403.827 82.19C393.223 73.7927 377.899 75.4477 369.686 85.8677Z" fill="#FEFDFF"/>
<path d="M362.208 91.3224C360.553 93.4677 359.082 95.6129 357.856 97.8808C356.569 100.271 355.588 102.662 354.791 105.114C359.266 106.156 363.066 107.627 366.314 109.282C371.157 111.672 374.712 114.369 376.796 116.146L389.851 108.975C388.38 105.42 383.599 94.8774 371.892 87.9512C371.034 87.3995 370.115 86.9705 369.257 86.5414C368.644 86.1737 368.031 85.8672 367.479 85.6833C365.579 87.3995 363.801 89.2384 362.208 91.3224Z" fill="black"/>
<path d="M392.487 110.753C388.319 113.573 386.603 118.292 388.626 121.234C390.649 124.176 395.675 124.299 399.781 121.48C403.949 118.66 405.666 113.94 403.643 110.998C401.62 108.056 396.594 107.934 392.487 110.753Z" fill="#9200FF"/>
<path d="M381.087 217.711C381.026 217.711 357.366 216.179 357.366 216.179C356.937 216.179 356.631 215.811 356.631 215.382C356.631 214.953 357.06 214.646 357.427 214.646L381.148 216.179C381.577 216.179 381.884 216.546 381.884 216.976C381.822 217.343 381.516 217.711 381.087 217.711Z" fill="black"/>
<path d="M408.854 216.914C408.179 216.73 407.995 216.301 408.118 215.933L426.874 159.91C426.997 159.542 427.426 159.297 427.855 159.42C428.284 159.542 428.468 159.972 428.345 160.401L409.589 216.423C409.467 216.73 409.16 216.914 408.854 216.914Z" fill="black"/>
<path d="M178.448 210.049C167.293 211.153 151.295 211.582 132.723 207.72C115.867 204.226 102.443 198.465 93.0042 193.561C98.9497 165.243 104.895 136.925 110.902 108.546C132.968 96.4714 155.095 84.3964 177.161 72.3215C179.429 74.2216 182.677 77.2863 185.19 81.8221C194.507 98.7393 185.129 119.518 180.716 132.88C175.383 149.368 171.215 174.376 178.448 210.049Z" fill="#9200FF"/>
<path d="M193.772 420.104C175.936 420.166 158.099 420.227 140.263 420.227C139.772 418.204 139.343 415.201 140.569 412.014C141.059 410.788 141.55 409.991 141.856 409.562C143.266 407.294 144.921 403.494 145.84 396.751C149.089 396.384 152.338 396.016 155.525 395.648C167.784 412.136 174.71 415.446 178.817 415.201C181.697 415.017 184.517 416.611 187.398 416.672C189.237 416.672 191.566 416.488 192.853 418.02C193.466 418.633 193.711 419.491 193.772 420.104Z" fill="#FFBAB8"/>
<path d="M58.6795 431.076C40.8429 431.137 23.0063 431.199 5.16975 431.199C4.6794 429.176 4.25034 426.173 5.47622 422.985C5.96658 421.759 6.45693 420.963 6.7634 420.533C8.17316 418.266 9.82811 414.465 10.7475 407.723C13.9961 407.355 17.2447 406.987 20.432 406.62C32.6908 423.108 39.617 426.418 43.7237 426.172C46.6046 425.989 49.4241 427.582 52.3049 427.644C54.1437 427.644 56.4729 427.46 57.7601 428.992C58.373 429.666 58.5569 430.463 58.6795 431.076Z" fill="#FFBAB8"/>
<path d="M73.3291 291.387C70.4483 298.926 64.8706 313.33 58.925 312.901C51.7536 312.349 48.2599 290.713 47.7695 287.403C44.6435 269.137 42.253 245.6 43.6628 218.447C44.7661 195.278 48.3824 175.112 52.4278 158.685C53.8989 157.337 55.3087 156.233 56.5346 155.314C65.9738 166.776 75.4744 178.299 84.9137 189.823C88.4075 241.187 80.2554 273.121 73.3291 291.387Z" fill="#FFBAB8"/>
<path d="M23.3748 411.952C19.0842 410.543 14.8549 409.133 10.6256 407.784C11.6676 404.597 13.2613 399.693 14.9162 393.564C23.4361 361.875 20.3714 348.636 27.3589 330.799C30.5462 322.708 36.7369 311.246 50.2829 299.355C56.4736 300.336 62.7256 301.255 68.9163 302.236C64.3805 314.801 59.5383 327.673 54.3283 340.667C44.3374 365.798 33.9174 389.519 23.3748 411.952Z" fill="#FFBAB8"/>
<path d="M90.8586 196.871C90.8586 214.34 79.1514 228.499 64.686 228.499C50.2206 228.499 38.5134 214.34 38.5134 196.871C38.5134 179.403 50.2206 165.244 64.686 165.244C79.1514 165.244 90.8586 179.403 90.8586 196.871Z" fill="#FFBAB8"/>
<path d="M149.088 278.025C149.823 285.196 151.478 301.378 145.778 303.646C139.097 306.343 126.348 288.506 124.448 285.809C111.269 273.734 65.7892 178.36 64.6859 165.182C79.1513 168.676 93.6167 172.231 108.143 175.725C139.465 224.821 147.126 258.656 149.088 278.025Z" fill="#FFBAB8"/>
<path d="M157.854 398.713C153.809 399.02 149.763 399.387 145.718 399.694C145.044 396.445 143.941 391.358 142.286 385.229C133.582 352.988 124.326 342.997 121.507 324.731C120.036 315.169 120.097 301.256 127.391 283.296C134.317 281.335 141.244 279.374 148.17 277.412C148.415 291.081 148.905 305.178 149.763 319.766C151.48 347.655 154.299 374.073 157.854 398.713Z" fill="#FFBAB8"/>
<path d="M169.192 91.8133L142.959 71.954C151.969 62.1469 161.04 52.4011 170.051 42.5941L190.768 58.2854C189.174 59.3887 187.274 60.921 185.19 62.8824C181.942 65.8858 178.325 70.0538 175.199 75.4477C174.709 76.3058 174.219 77.2253 173.851 78.0221C171.215 83.3547 169.867 88.1969 169.192 91.8133Z" fill="#FFBAB8"/>
<path d="M173.851 78.0222C173.728 77.9609 173.544 77.8383 173.421 77.7157C168.947 74.3446 169.437 66.1924 174.525 59.5114C175.322 58.4694 176.18 57.4887 177.099 56.6918L185.251 62.8826C182.003 65.886 178.386 70.054 175.26 75.4478C174.77 76.306 174.28 77.1641 173.851 78.0222Z" fill="black"/>
<path d="M209.279 32.7257V33.2773C209.157 35.4226 209.095 36.7711 208.973 37.8131C208.789 39.6519 208.605 39.9584 208.544 41.1843C208.544 43.0844 208.973 43.6973 209.095 45.4136C209.218 47.0685 208.973 48.2944 208.605 49.8268C206.766 57.9176 205.847 62.0243 203.089 64.5373C195.856 71.0958 179.613 64.1083 174.526 58.7144C172.074 56.14 170.48 53.0753 170.48 53.0753C169.561 51.2365 168.948 49.5203 168.519 48.1718C167.661 44.8619 166.986 40.6326 166.925 35.7291C166.864 27.3931 168.948 20.6508 170.664 16.4215C173.3 14.8278 180.839 10.7824 191.075 11.3954C200.392 12.0083 206.889 16.2376 209.463 18.0764C209.586 21.3863 209.647 25.3704 209.463 29.9062C209.341 30.8256 209.341 31.745 209.279 32.7257Z" fill="#FFBAB8"/>
<path d="M88.4679 219.795C85.2806 233.893 87.4872 242.229 84.3612 264.662C82.3998 278.699 79.948 291.877 77.1898 303.952C61.9889 340.422 46.8492 376.831 31.7096 413.301C23.8639 412.504 15.8957 411.707 8.05005 410.971C8.17264 387.925 11.9116 355.868 28.7062 322.953C32.2612 316.027 36.0002 309.652 39.923 303.952C39.7391 270.853 39.6165 237.816 39.4939 204.717C38.4519 200.733 35.2646 186.206 42.9877 171.25C45.8685 165.734 49.4236 161.688 52.6109 158.685C53.6529 157.704 55.0013 156.969 56.7176 155.314C59.9662 152.126 61.8663 148.817 62.9696 146.487C67.015 151.146 72.9605 156.969 81.0513 162.24C93.1263 170.086 104.65 173.273 112.127 174.621C96.7426 192.642 90.981 208.64 88.4679 219.795Z" fill="black"/>
<path d="M151.54 281.947C154.115 320.563 156.75 359.116 159.325 397.732C152.031 398.59 144.798 399.448 137.504 400.306C135.359 386.76 132.846 375.911 131.068 368.74C124.939 344.406 119.913 335.273 118.687 317.866C117.829 305.607 119.3 295.555 120.526 289.303C107.347 263.191 94.2305 237.141 81.0522 211.03C83.504 200.794 86.0171 190.619 88.4688 180.383C95.4564 178.36 102.383 176.338 109.37 174.315C114.764 182.528 120.158 191.722 125.245 201.836C140.14 231.38 147.618 259.33 151.54 281.947Z" fill="black"/>
<path d="M122.732 187.064C120.71 187.125 118.626 187.125 116.48 186.88C100.85 185.409 89.6334 175.908 83.9944 170.085C91.2271 146.303 98.4598 122.582 105.692 98.8C122.977 84.5798 140.262 70.4208 157.547 56.2006C158.589 54.5457 159.693 52.8907 160.735 51.1745C167.17 57.8556 173.668 64.4753 180.104 71.1564C181.758 110.139 171.338 128.65 161.041 138.273C153.012 145.813 136.462 155.987 126.226 178.237C124.51 181.854 123.406 184.98 122.732 187.064Z" fill="#C5EFFF"/>
<path d="M83.9324 199.262C70.7542 188.964 57.6372 178.667 44.459 168.37C51.5691 154.701 77.8643 104.746 105.14 72.3831C112.495 63.618 122.302 53.1368 136.4 52.2786C146.514 51.6657 154.237 55.4659 157.792 57.5499C152.214 71.4637 146.636 85.4387 141.058 99.3525C122.057 132.574 102.995 165.918 83.9324 199.262Z" fill="#9200FF"/>
<path d="M176.61 74.8956C174.771 78.6345 172.871 82.3122 171.032 86.0511C169.132 82.8638 167.232 78.6345 166.925 73.4245C166.864 72.7503 166.864 72.1373 166.864 71.5244C169.254 70.9114 171.706 70.2372 174.097 69.6243C174.955 71.4018 175.752 73.118 176.61 74.8956Z" fill="#BDD5FF"/>
<path d="M218.167 150.043C215.286 152.188 212.405 154.395 209.524 156.54C208.176 154.088 206.827 151.575 205.479 149.123C212.037 134.658 210.75 126.383 207.931 121.418C202.353 111.366 189.052 111.795 177.529 97.0846C174.096 92.7327 172.012 88.5647 170.786 85.6226C171.461 83.5386 172.135 81.3933 172.809 79.3093C174.648 82.7418 177.713 87.5227 182.739 91.9972C191.933 100.211 197.756 98.4943 207.563 106.034C211.486 109.037 220.925 116.27 222.948 128.222C224.664 138.397 220.189 146.794 218.167 150.043Z" fill="#BDD5FF"/>
<path d="M111.883 178.973C111.761 178.973 111.638 178.912 111.515 178.85C111.148 178.667 111.025 178.176 111.27 177.808L116.971 168.308C117.216 167.94 117.645 167.817 118.013 168.063C118.38 168.308 118.503 168.737 118.258 169.105L112.557 178.605C112.435 178.85 112.19 178.973 111.883 178.973Z" fill="black"/>
<path d="M125.98 157.336C125.857 157.336 125.735 157.336 125.612 157.213C125.244 157.029 125.122 156.539 125.306 156.171L143.632 122.827C143.816 122.46 144.307 122.337 144.674 122.521C145.042 122.705 145.165 123.195 144.981 123.563L126.654 156.907C126.531 157.152 126.225 157.336 125.98 157.336Z" fill="black"/>
<path d="M149.886 116.76C149.763 116.76 149.64 116.698 149.518 116.637C149.15 116.392 149.028 115.963 149.273 115.595L158.712 99.536C158.896 99.1682 159.386 99.0457 159.754 99.2908C160.122 99.536 160.244 99.9651 159.999 100.333L150.56 116.392C150.437 116.637 150.131 116.76 149.886 116.76Z" fill="black"/>
<path d="M164.779 90.7715C164.227 90.7102 163.982 90.2811 164.043 89.852L164.718 85.9292C164.779 85.5002 165.208 85.1937 165.576 85.3163C166.005 85.3776 166.25 85.8066 166.189 86.1744L165.514 90.0972C165.453 90.465 165.147 90.7715 164.779 90.7715Z" fill="black"/>
<path d="M158.834 78.5734C158.466 78.5734 158.159 78.3283 158.098 77.9605L154.604 63.679C154.482 63.2499 154.727 62.8821 155.156 62.7596C155.585 62.637 155.953 62.8821 156.075 63.3112L159.569 77.5927C159.692 78.0218 159.447 78.3896 159.018 78.5121C158.956 78.5734 158.895 78.5734 158.834 78.5734Z" fill="black"/>
<path d="M158.834 78.5732C158.589 78.5732 158.344 78.4506 158.221 78.2668C157.976 77.899 158.098 77.4699 158.405 77.2248L166.496 71.7083C166.863 71.4631 167.293 71.5857 167.538 71.8922C167.783 72.2599 167.66 72.689 167.354 72.9342L159.263 78.4506C159.14 78.5732 158.957 78.5732 158.834 78.5732Z" fill="black"/>
<path d="M176.61 85.193C176.181 85.193 175.874 84.8252 175.874 84.4575V76.5505C175.874 76.1215 176.242 75.815 176.61 75.815C176.978 75.815 177.345 76.1828 177.345 76.5505V84.4575C177.345 84.8252 177.039 85.193 176.61 85.193Z" fill="black"/>
<path d="M99.8687 214.279C99.2557 214.156 99.0105 213.727 99.1331 213.359L106.55 183.325C106.672 182.896 107.04 182.651 107.469 182.774C107.898 182.896 108.143 183.264 108.021 183.693L100.604 213.727C100.543 214.034 100.236 214.279 99.8687 214.279Z" fill="#A7CAEA"/>
<path d="M89.2031 221.021C88.8966 221.021 88.6515 220.837 88.5289 220.592C88.345 220.224 88.5289 219.734 88.8966 219.55L97.0487 215.688C97.4165 215.504 97.9069 215.688 98.0907 216.056C98.2746 216.424 98.0907 216.914 97.723 217.098L89.5709 220.959C89.4483 221.021 89.3257 221.021 89.2031 221.021Z" fill="#A7CAEA"/>
<path d="M59.9049 431.26H1.73682C1.73682 429.421 1.9207 426.724 3.39176 423.966C3.69823 423.353 4.0047 422.924 4.31117 422.433C5.41446 420.717 6.94682 418.081 8.72434 414.404C11.789 416.61 13.873 416.733 15.2215 416.488C18.1636 415.936 19.083 413.239 22.8833 411.768C25.0899 410.91 27.0513 410.91 28.3385 411.032C38.3294 416.12 48.3203 421.269 58.3113 426.356C58.8629 428.011 59.3533 429.605 59.9049 431.26Z" fill="#F47300"/>
<path d="M60.3345 432.731H1.8599C1.24696 432.731 0.695312 432.241 0.695312 431.567C0.695312 430.831 1.24696 430.279 1.8599 430.279H60.3345C61.0087 430.279 61.4991 430.831 61.4991 431.444C61.5604 432.241 61.0087 432.731 60.3345 432.731Z" fill="black"/>
<path d="M195.12 420.349H136.952C136.952 418.51 137.136 415.813 138.607 413.055C138.914 412.442 139.22 412.013 139.526 411.522C140.63 409.806 142.162 407.171 143.94 403.493C147.004 405.7 149.088 405.822 150.437 405.577C153.379 405.025 154.298 402.328 158.099 400.857C160.305 399.999 162.267 399.999 163.554 400.122C173.545 405.209 183.536 410.358 193.527 415.445C194.017 417.1 194.569 418.755 195.12 420.349Z" fill="#F47300"/>
<path d="M195.55 421.882H137.075C136.401 421.882 135.911 421.33 135.911 420.717C135.911 419.982 136.462 419.43 137.075 419.43H195.55C196.224 419.43 196.714 419.982 196.714 420.595C196.714 421.33 196.163 421.882 195.55 421.882Z" fill="black"/>
<path d="M39.3107 306.465C38.9429 306.465 38.6365 306.22 38.5752 305.852C38.5139 305.423 38.7591 305.056 39.1881 304.933L41.5786 304.443C42.0076 304.32 42.3754 304.627 42.498 305.056C42.5593 305.485 42.3141 305.852 41.8851 305.975L39.4946 306.465C39.372 306.465 39.3107 306.465 39.3107 306.465Z" fill="#A7CAEA"/>
<path d="M122.731 291.386C122.486 291.386 122.241 291.264 122.118 291.08C121.873 290.712 121.935 290.283 122.302 290.038L128.554 285.38C128.922 285.134 129.351 285.196 129.596 285.564C129.841 285.931 129.78 286.36 129.412 286.606L123.16 291.264C123.038 291.325 122.915 291.386 122.731 291.386Z" fill="#A7CAEA"/>
<path d="M214.856 12.3757C214.856 16.7888 209.646 20.3439 203.21 20.3439C196.774 20.3439 191.564 16.7888 191.564 12.3757C191.564 7.96249 196.774 4.40743 203.21 4.40743C209.646 4.34614 214.856 7.96249 214.856 12.3757Z" fill="#F47300"/>
<path d="M201.556 12.3758C198.675 15.8696 194.507 20.344 189.91 20.344C185.864 20.344 185.435 15.5018 178.264 12.3758C176.18 11.3951 174.77 11.2112 174.77 10.4757C174.709 8.75946 182.187 9.49498 188.5 4.34628C189.971 3.18169 191.81 1.28158 193.097 1.83322C194.078 2.26228 193.771 3.73334 194.629 4.46887C197.204 6.55287 205.172 -1.17019 206.95 0.30087C208.237 1.34287 205.54 7.53357 201.556 12.3758Z" fill="#F47300"/>
<path d="M191.565 17.157C191.688 21.0185 185.375 25.4317 179.92 25.1252C175.384 24.88 173.79 21.4475 171.277 22.367C166.619 23.9606 168.212 37.0775 166.803 37.1388C165.638 37.2001 162.267 28.8028 165.393 22.367C166.435 20.1604 167.538 19.7313 168.274 17.157C169.622 12.5599 167.293 10.1081 168.764 8.33061C170.725 5.94014 177.039 8.14673 179.92 9.18873C184.762 10.905 191.382 13.2341 191.565 17.157Z" fill="#F47300"/>
<path d="M212.528 98.6777C214.796 102.723 217.064 106.768 219.332 110.875C212.406 116.821 207.073 122.031 203.395 125.77C189.788 139.683 184.884 147.958 173.606 151.636C169.071 153.107 165.025 153.291 162.39 153.229C158.651 147.774 154.912 142.258 151.173 136.803C156.383 132.206 160.918 129.08 163.922 127.179C180.41 116.759 191.382 116.882 205.357 105.481C208.667 102.662 211.118 100.149 212.528 98.6777Z" fill="#FFBAB8"/>
<path d="M169.745 120.928C178.081 117.189 186.355 113.511 194.691 109.772C197.388 118.966 200.085 128.16 202.721 137.354C197.449 142.748 185.681 153.168 167.722 157.152C160.183 158.807 153.502 158.93 148.23 158.562C132.233 136.496 116.235 114.492 100.237 92.4871C103.915 73.7311 114.825 60.7981 126.532 59.8174C136.523 59.0205 147.004 65.3338 149.885 72.5052C156.505 88.6256 163.125 104.807 169.745 120.928Z" fill="#9200FF"/>
<path d="M125.368 126.444C125.123 126.444 124.878 126.321 124.694 126.076L106.612 96.5938C106.367 96.2261 106.49 95.7357 106.858 95.5518C107.225 95.3066 107.716 95.4292 107.9 95.797L125.981 125.279C126.227 125.647 126.104 126.138 125.736 126.321C125.614 126.444 125.491 126.444 125.368 126.444Z" fill="black"/>
<path d="M149.885 77.1025C149.579 77.1025 149.333 76.9186 149.149 76.6122L144.123 64.8437C143.939 64.4759 144.123 63.9856 144.552 63.863C144.92 63.7404 145.411 63.863 145.533 64.2921L150.559 76.0605C150.743 76.4283 150.559 76.9187 150.13 77.0412C150.069 77.0412 150.008 77.1025 149.885 77.1025Z" fill="black"/>
<path d="M146.146 156.479C145.901 156.479 145.656 156.356 145.534 156.172L144.798 155.13C144.553 154.762 144.614 154.333 144.982 154.088C145.35 153.843 145.779 153.904 146.024 154.272L146.759 155.314C147.005 155.682 146.943 156.111 146.576 156.356C146.453 156.417 146.269 156.479 146.146 156.479Z" fill="black"/>
<path d="M168.763 157.337C168.457 157.337 168.211 157.153 168.028 156.846C167.844 156.479 168.028 155.988 168.457 155.866L193.587 145.2C193.955 145.078 194.445 145.2 194.568 145.63C194.752 145.997 194.568 146.488 194.139 146.61L169.008 157.275C169.008 157.275 168.886 157.337 168.763 157.337Z" fill="black"/>
<path d="M155.34 159.481C154.972 159.481 154.665 159.236 154.604 158.868C154.543 158.439 154.788 158.071 155.217 157.949L161.592 156.662C162.021 156.6 162.389 156.846 162.511 157.275C162.572 157.704 162.327 158.071 161.898 158.194L155.524 159.481C155.401 159.481 155.34 159.481 155.34 159.481Z" fill="black"/>
<path d="M176.609 119.456C176.364 119.456 176.057 119.334 175.935 119.027C175.751 118.66 175.873 118.169 176.241 117.985L185.68 112.959C186.048 112.775 186.538 112.898 186.722 113.266C186.906 113.634 186.784 114.124 186.416 114.308L176.977 119.334C176.854 119.395 176.731 119.456 176.609 119.456Z" fill="black"/>
<path d="M162.879 131.041C162.756 131.041 162.634 131.041 162.511 130.919C162.144 130.735 162.021 130.245 162.205 129.877L166.741 121.725C166.924 121.357 167.415 121.234 167.783 121.418C168.15 121.602 168.273 122.092 168.089 122.46L163.553 130.612C163.369 130.919 163.124 131.041 162.879 131.041Z" fill="black"/>
<path d="M167.537 131.409C167.047 131.347 166.74 130.98 166.802 130.551L167.353 124.421C167.415 123.992 167.721 123.686 168.211 123.747C168.64 123.808 168.947 124.176 168.886 124.605L168.334 130.734C168.211 131.102 167.905 131.409 167.537 131.409Z" fill="black"/>
<path d="M172.993 170.025C172.442 169.963 172.197 169.534 172.258 169.105L174.587 154.824C174.648 154.395 175.077 154.149 175.445 154.211C175.874 154.272 176.119 154.701 176.058 155.069L173.729 169.35C173.668 169.779 173.361 170.025 172.993 170.025Z" fill="black"/>
<path d="M227.79 106.462C221.722 106.34 215.593 106.217 209.525 106.033V84.3963C213.386 84.5802 217.309 84.764 221.171 84.9479C223.929 86.3577 226.687 87.7674 229.445 89.1772C228.832 94.9389 228.342 100.701 227.79 106.462Z" fill="#FFBAB8"/>
<path d="M247.22 152.065H219.698L211.546 90.0357H239.129L247.22 152.065Z" fill="#F47300"/>
<path d="M233.244 95.0004C230.915 96.5327 228.647 98.1264 226.318 99.6587C221.415 96.4714 216.511 93.2841 211.546 90.0968C212.098 88.8097 212.65 87.4612 213.263 86.174C218.534 87.1547 223.866 88.1354 229.138 89.1774C230.486 91.0775 231.896 93.0389 233.244 95.0004Z" fill="#FFBAB8"/>
</svg>
