<svg width="589" height="395" viewBox="0 0 589 395" fill="none" xmlns="http://www.w3.org/2000/svg">
<path d="M272.069 94.8228C271.739 96.8709 271.475 98.9189 271.144 101.033C265.991 135.454 260.375 169.413 254.363 203.041C243.396 209.449 232.561 215.99 221.594 222.399C220.272 222.266 218.885 222.134 217.564 222.002C216.176 222.134 214.855 222.266 213.6 222.399C202.632 215.99 191.797 209.449 180.83 203.041C176.206 181.767 172.043 158.446 169.004 133.208C167.287 119.136 166.031 105.658 165.172 92.7086C167.947 88.7446 173.761 81.3451 183.539 76.1257C193.119 71.0386 201.774 70.444 206.266 70.51C210.032 80.4201 225.161 80.4201 228.927 70.51C233.684 70.51 242.207 71.1707 251.654 76.1257C262.688 81.8736 269.162 90.4623 272.069 94.8228Z" fill="#FEFDFF"/>
<path d="M231.239 56.966V75.8612C231.239 83.1947 226.482 89.2068 220.602 89.2068H214.656C208.776 89.2068 204.019 83.1947 204.019 75.8612V56.966C204.019 49.6986 208.776 43.6204 214.656 43.6204H220.602C224.566 43.6204 228.134 46.4613 229.852 50.6235C230.71 52.5395 231.239 54.7197 231.239 56.966Z" fill="#9200FF"/>
<path d="M243.132 34.371C243.132 37.1458 242.934 39.9206 242.405 42.5633C242.075 44.281 241.679 45.9327 241.084 47.5844C237.186 59.6747 228.201 68.1974 217.696 68.1974C207.059 68.1974 198.14 59.7408 194.242 47.4523C193.78 46.197 193.45 44.8756 193.185 43.5543C192.525 40.7134 192.128 37.6082 192.128 34.3049C192.128 31.9925 192.326 29.7463 192.657 27.5C195.035 12.1724 205.276 0.610596 217.696 0.610596C218.489 0.610596 219.414 0.676663 220.075 0.808797C220.273 0.808797 220.405 0.874865 220.471 0.874865C228.663 1.99801 235.733 8.34046 239.697 17.3256C241.084 20.4308 242.009 23.8002 242.538 27.4339C242.934 29.6802 243.132 31.9265 243.132 34.371Z" fill="#FEFDFF"/>
<path d="M243.132 34.3712C243.132 37.1461 242.934 39.9209 242.405 42.5636C242.075 44.2813 241.679 45.933 241.084 47.5847C240.423 48.5757 232.561 59.8732 218.225 60.1375C203.095 60.4017 194.771 48.2453 194.242 47.4525C193.78 46.1973 193.45 44.8759 193.185 43.5546C192.525 40.7137 192.128 37.6085 192.128 34.3052C192.128 31.9928 192.326 29.7465 192.657 27.5002C193.714 28.8216 202.567 39.5905 217.63 39.5245C232.694 39.4584 241.481 28.6894 242.538 27.3681C242.934 29.6805 243.132 31.9267 243.132 34.3712Z" fill="black"/>
<path d="M223.972 238.783H213.203V338.148H223.972V238.783Z" fill="black"/>
<path d="M177.858 224.182H260.111C266.057 224.182 270.946 229.071 270.946 235.017V235.876C270.946 241.822 266.057 246.711 260.111 246.711H177.858C171.912 246.711 167.023 241.822 167.023 235.876V235.017C167.023 229.005 171.912 224.182 177.858 224.182Z" fill="#BDD5FF"/>
<path d="M176.867 366.953L172.44 364.773C176.933 355.59 183.407 347.199 191.203 340.593C199.065 333.92 208.447 328.833 218.357 325.926L219.744 330.682C210.495 333.391 201.774 338.148 194.375 344.358C187.041 350.569 181.029 358.365 176.867 366.953Z" fill="black"/>
<path d="M175.215 375.344C180.469 375.344 184.729 371.084 184.729 365.83C184.729 360.576 180.469 356.316 175.215 356.316C169.961 356.316 165.701 360.576 165.701 365.83C165.701 371.084 169.961 375.344 175.215 375.344Z" fill="black"/>
<path d="M262.82 366.953C258.658 358.365 252.58 350.569 245.312 344.424C237.979 338.214 229.192 333.457 220.008 330.749L221.396 325.992C231.306 328.899 240.687 333.986 248.549 340.659C256.345 347.265 262.82 355.656 267.246 364.839L262.82 366.953Z" fill="black"/>
<path d="M264.406 375.344C269.66 375.344 273.919 371.084 273.919 365.83C273.919 360.576 269.66 356.316 264.406 356.316C259.152 356.316 254.892 360.576 254.892 365.83C254.892 371.084 259.152 375.344 264.406 375.344Z" fill="black"/>
<path d="M214.458 272.609C214.392 288.069 211.617 296.063 209.437 318.328C207.851 334.382 207.587 347.596 207.587 355.788C207.521 355.788 198.932 357.374 198.932 357.374L194.77 358.1C194.836 357.308 194.836 356.515 194.836 355.656C195.431 335.704 193.118 320.376 190.74 309.673C185.983 288.465 179.574 279.216 180.83 263.228C181.821 249.948 187.569 239.444 192.854 232.044C192.92 231.912 192.986 231.78 193.052 231.714C193.647 230.855 194.307 229.996 194.902 229.269C199.196 229.666 203.557 229.996 207.785 230.326C207.983 231.053 208.248 231.78 208.38 232.507C213.533 249.552 214.458 263.294 214.458 272.609Z" fill="#9200FF"/>
<path d="M213.665 381.621H182.019C180.235 379.176 178.121 375.675 179.046 373.164C179.905 370.786 182.812 370.918 186.049 369.068C188.626 367.615 191.929 364.642 194.77 357.705C198.998 356.978 203.293 356.251 207.521 355.458C209.635 364.179 211.683 372.9 213.665 381.621Z" fill="#FEFDFF"/>
<path d="M208.05 242.021C202.566 241.954 197.149 241.954 191.731 241.888C184.794 238.056 172.968 230.195 171.647 219.624C170.722 212.158 175.281 206.146 179.179 202.38C183.803 202.446 188.428 202.578 193.053 202.644C199.263 202.777 205.473 202.909 211.684 203.041C214.392 206.741 216.771 211.035 217.696 215.858C219.678 226.759 213.798 235.81 208.05 242.021Z" fill="#FEFDFF"/>
<path d="M211.683 242.218C211.683 244.332 206.595 246.116 200.253 246.116C193.91 246.116 188.823 244.399 188.823 242.218C188.823 240.104 193.91 238.32 200.253 238.32C206.595 238.32 211.683 240.104 211.683 242.218Z" fill="#9200FF"/>
<path d="M174.553 201.455C181.821 195.311 199.923 195.972 210.296 201.852C215.053 204.56 217.365 207.996 218.554 210.242C218.158 210.705 217.761 211.167 217.299 211.63C215.581 210.374 206.728 204.098 192.458 203.768C181.49 203.569 173.695 207.005 171.118 208.26C171.382 204.693 173.232 202.578 174.553 201.455Z" fill="#9200FF"/>
<path d="M218.555 272.609C218.621 288.069 221.396 296.063 223.576 318.328C225.162 334.382 225.426 347.596 225.426 355.788C225.492 355.788 234.081 357.374 234.081 357.374L238.243 358.1C238.177 357.308 238.177 356.515 238.177 355.656C237.583 335.704 239.895 320.376 242.273 309.673C247.03 288.465 253.439 279.216 252.184 263.228C251.193 249.948 245.445 239.444 240.159 232.044C240.093 231.912 240.027 231.78 239.961 231.714C239.366 230.855 238.706 229.996 238.111 229.269C233.817 229.666 229.456 229.996 225.228 230.326C225.03 231.053 224.766 231.78 224.633 232.507C219.546 249.552 218.555 263.294 218.555 272.609Z" fill="#9200FF"/>
<path d="M219.347 381.621H250.993C252.777 379.176 254.891 375.675 253.966 373.164C253.108 370.786 250.201 370.918 246.963 369.068C244.387 367.615 241.083 364.642 238.242 357.705C234.014 356.978 229.72 356.251 225.491 355.458C223.443 364.179 221.395 372.9 219.347 381.621Z" fill="#FEFDFF"/>
<path d="M225.03 242.021C230.513 241.954 235.931 241.954 241.348 241.888C248.285 238.056 260.112 230.195 261.433 219.624C262.358 212.158 257.799 206.146 253.901 202.38C249.277 202.446 244.652 202.578 240.027 202.644C233.817 202.777 227.606 202.909 221.396 203.041C218.687 206.741 216.309 211.035 215.384 215.858C213.336 226.759 219.216 235.81 225.03 242.021Z" fill="#FEFDFF"/>
<path d="M221.329 242.218C221.329 244.332 226.417 246.116 232.759 246.116C239.102 246.116 244.189 244.399 244.189 242.218C244.189 240.104 239.102 238.32 232.759 238.32C226.417 238.32 221.329 240.104 221.329 242.218Z" fill="#9200FF"/>
<path d="M258.459 201.455C251.192 195.311 233.089 195.972 222.717 201.852C217.96 204.56 215.647 207.996 214.458 210.242C214.855 210.705 215.251 211.167 215.714 211.63C217.431 210.374 226.284 204.098 240.555 203.768C251.522 203.569 259.318 207.005 261.895 208.26C261.63 204.693 259.846 202.578 258.459 201.455Z" fill="#9200FF"/>
<path d="M255.222 102.024C255.619 103.081 256.147 104.138 256.742 105.129L288.322 153.755C292.088 159.569 299.355 161.881 305.698 159.635C306.821 159.238 307.878 158.776 308.869 158.049C309.926 157.389 310.719 156.596 311.578 155.737C316.202 151.046 316.995 143.382 313.229 137.568L281.649 88.9429C277.817 82.8647 270.088 80.6184 263.679 83.1951C262.82 83.5915 261.961 84.0539 261.168 84.5164C255.222 88.4144 252.91 95.6818 255.222 102.024Z" fill="#FEFDFF"/>
<path d="M263.614 83.2608C279.602 105.79 292.353 125.28 301.668 140.145C305.368 145.893 308.605 151.046 311.446 155.803C316.071 151.112 316.864 143.448 313.098 137.634L281.518 89.0086C277.752 82.9304 270.022 80.6181 263.614 83.2608Z" fill="#C5EFFF"/>
<path d="M254.232 93.105C254.43 102.156 262.028 109.358 271.079 109.093C280.13 108.895 287.331 101.297 287.067 92.2461C286.869 83.1949 279.271 75.9936 270.22 76.2578C261.169 76.5221 254.033 84.0538 254.232 93.105Z" fill="#9200FF"/>
<path d="M313.098 147.214C284.491 146.751 255.817 146.355 227.21 145.959C227.21 147.808 227.144 149.724 227.078 151.706C227.012 154.613 227.012 157.52 226.88 160.427C230.58 162.145 283.301 186.524 306.227 168.157C308.275 166.505 310.125 164.523 311.644 162.013L313.098 147.214Z" fill="#FEFDFF"/>
<path d="M271.608 162.74C252.052 160.493 237.385 155.076 227.078 151.706C227.012 154.613 227.012 157.52 226.88 160.427C230.58 162.145 283.301 186.524 306.227 168.157C308.275 166.505 310.125 164.523 311.644 162.013L311.71 161.154C293.542 163.202 282.112 163.929 271.608 162.74Z" fill="#C5EFFF"/>
<path d="M313.368 167.392C319.102 166.297 322.864 160.761 321.769 155.026C320.675 149.291 315.138 145.53 309.404 146.624C303.669 147.719 299.907 153.255 301.002 158.99C302.097 164.725 307.633 168.486 313.368 167.392Z" fill="#9200FF"/>
<path d="M186.247 102.024C185.851 103.081 185.322 104.138 184.728 105.129L153.148 153.755C149.382 159.569 142.114 161.881 135.772 159.635C134.649 159.238 133.592 158.776 132.601 158.049C131.544 157.389 130.751 156.596 129.892 155.737C125.267 151.046 124.474 143.382 128.24 137.568L159.82 88.9429C163.652 82.8647 171.382 80.6184 177.791 83.1951C178.65 83.5915 179.508 84.0539 180.301 84.5164C186.181 88.4144 188.494 95.6818 186.247 102.024Z" fill="#FEFDFF"/>
<path d="M177.791 83.2608C161.803 105.79 149.118 125.28 139.736 140.145C136.036 145.893 132.799 151.046 129.958 155.803C125.334 151.112 124.541 143.448 128.307 137.634L159.887 89.0086C163.653 82.9304 171.382 80.6181 177.791 83.2608Z" fill="#C5EFFF"/>
<path d="M187.239 93.1049C187.041 102.156 179.443 109.357 170.392 109.093C161.341 108.895 154.139 101.297 154.404 92.2461C154.602 83.1948 162.199 75.9935 171.251 76.2578C180.236 76.522 187.437 84.0537 187.239 93.1049Z" fill="#9200FF"/>
<path d="M128.373 147.214C156.98 146.751 185.653 146.355 214.26 145.959C214.26 147.808 214.326 149.724 214.392 151.706C214.458 154.613 214.458 157.52 214.59 160.427C210.891 162.145 158.169 186.524 135.244 168.157C133.196 166.505 131.346 164.523 129.826 162.013L128.373 147.214Z" fill="#FEFDFF"/>
<path d="M169.796 162.74C189.352 160.493 204.019 155.076 214.326 151.706C214.392 154.613 214.392 157.52 214.524 160.427C210.824 162.145 158.103 186.524 135.177 168.157C133.129 166.505 131.279 164.523 129.76 162.013L129.694 161.154C147.928 163.202 159.358 163.929 169.796 162.74Z" fill="#C5EFFF"/>
<path d="M129.034 146.487C134.848 145.892 140.001 150.187 140.596 156.001C141.19 161.815 136.896 166.968 131.082 167.562C125.268 168.157 120.115 163.863 119.52 158.049C118.992 152.235 123.22 147.082 129.034 146.487Z" fill="#9200FF"/>
<path d="M215.517 37.8725C215.12 37.8725 214.79 37.6082 214.724 37.2118L208.58 5.36741C208.513 4.90494 208.778 4.50854 209.24 4.37641C209.703 4.24427 210.099 4.57461 210.231 5.03708L216.375 36.8815C216.442 37.344 216.177 37.7404 215.715 37.8725C215.649 37.8725 215.583 37.8725 215.517 37.8725Z" fill="#A7CAEA"/>
<path d="M221.726 38.0049C221.197 37.9389 220.867 37.5424 220.933 37.08L224.963 6.16051C225.029 5.69804 225.426 5.3677 225.888 5.43377C226.351 5.49984 226.681 5.89624 226.615 6.35871L222.585 37.2782C222.453 37.6746 222.122 38.0049 221.726 38.0049Z" fill="#A7CAEA"/>
<path d="M482.361 76.1257C484.608 79.9576 486.854 83.8556 489.1 87.6875C492.668 93.8978 496.235 100.042 499.869 106.252L527.419 90.7926C518.434 78.7023 509.383 66.6781 500.398 54.5878C497.821 58.6839 494.518 63.3086 490.355 67.9994C487.647 71.1046 484.938 73.8133 482.361 76.1257Z" fill="#FFBAB8"/>
<path d="M482.361 76.1253C484.608 79.9572 486.854 83.8552 489.1 87.6871C494.187 84.648 494.848 75.9932 490.488 68.1973C487.713 70.7078 485.004 73.4166 482.361 76.1253Z" fill="black"/>
<path d="M486.589 77.3142C490.751 73.9448 498.084 66.6113 502.18 51.6141C502.445 50.7552 505.682 38.0042 496.829 28.2263C491.147 21.9499 483.153 19.9679 476.811 20.4303C463.531 21.4214 453.357 33.5117 453.489 41.1094C453.489 42.3647 453.687 43.5539 453.951 44.4788C456.33 52.3408 457.387 55.9085 457.387 56.1067C457.387 56.1727 457.387 56.437 457.585 56.7013C457.717 56.8995 457.849 57.0316 457.915 57.0977C458.708 57.8905 459.435 58.6833 460.228 59.4761C463.399 65.7525 464.588 68.3952 464.852 69.254C465.381 70.9718 465.645 71.6985 466.174 72.0949C466.306 72.2271 466.438 72.3592 466.504 72.4913C466.57 72.8217 466.108 72.9538 466.042 73.2841C466.042 73.7466 467.033 74.143 467.165 74.2091C467.363 74.2752 468.816 74.8698 469.609 74.2091C469.94 73.9448 470.072 73.5484 470.072 73.5484C470.006 73.5484 468.75 75.068 469.147 75.7286C469.279 75.9929 469.741 76.125 469.873 76.125C470.204 76.2572 470.468 76.125 470.6 76.1911C471.525 76.2572 472.186 81.014 473.573 82.2693C475.621 84.2513 481.766 81.2783 486.589 77.3142Z" fill="#FFBAB8"/>
<path d="M459.897 69.4522C460.425 70.4432 461.879 70.6414 462.407 70.7075C463.861 70.9057 465.05 70.3111 465.446 70.0468C465.645 69.6504 465.909 68.9237 465.645 68.263C465.446 67.6684 464.918 67.5363 464.455 66.9417C464.125 66.5453 463.795 65.8846 463.729 64.8275C462.473 62.7794 461.218 60.7974 459.963 58.7493C459.963 60.3349 459.963 61.6563 460.029 62.5812C460.095 65.5543 460.161 65.6203 460.095 66.4131C459.963 68.1969 459.5 68.7255 459.897 69.4522Z" fill="#FFBAB8"/>
<path d="M389.206 153.094C383.326 160.427 377.512 167.761 371.632 175.094C377.843 175.094 384.053 175.094 390.263 175.094C392.576 173.31 394.822 171.461 397.134 169.677C403.807 170.139 409.489 170.932 413.849 171.593C434.991 174.962 443.844 180.115 456.066 176.482C461.021 175.028 464.721 172.782 467.033 171.13C467.033 163.995 467.033 156.794 467.033 149.658C459.634 148.733 453.622 148.733 449.856 148.866C428.913 149.592 419.135 156.397 399.777 154.746C395.02 154.349 391.32 153.556 389.206 153.094Z" fill="#FFBAB8"/>
<path d="M451.903 188.044H84.8999C81.4644 188.044 78.6235 185.203 78.6235 181.767V181.305C78.6235 177.869 81.4644 175.028 84.8999 175.028H451.903C455.339 175.028 458.18 177.869 458.18 181.305V181.767C458.18 185.269 455.339 188.044 451.903 188.044Z" fill="black"/>
<path d="M266.254 175.094H173.76C166.823 175.094 161.141 169.478 161.141 162.475V100.768C161.141 93.8314 166.757 88.1496 173.76 88.1496H266.254C273.192 88.1496 278.873 93.7653 278.873 100.768V162.475C278.873 169.478 273.192 175.094 266.254 175.094Z" fill="black"/>
<path d="M233.683 41.1097C234.079 41.7703 226.746 49.4341 217.166 49.2359C207.388 49.0377 200.319 40.7793 200.715 40.1847C201.046 39.6562 206.992 45.338 216.307 45.8004C226.35 46.329 233.353 40.5151 233.683 41.1097Z" fill="#BDD5FF"/>
<path d="M443.448 387.236C451.97 387.236 460.493 387.302 468.95 387.302C477.869 386.509 486.722 385.717 495.641 384.99C496.632 381.488 488.175 365.038 485.533 358.233C482.031 358.629 478.595 359.092 475.094 359.488C472.253 365.632 469.346 371.776 466.505 377.921C457.85 384.197 451.97 385.32 448.205 385.122C446.883 385.056 442.721 384.66 442.391 385.717C442.192 386.113 442.853 386.708 443.448 387.236Z" fill="#FFBAB8"/>
<path d="M498.283 387.302C477.01 387.302 455.67 387.302 434.396 387.302C434.991 385.981 436.114 384.131 437.898 382.479C441.598 379.043 446.024 378.317 447.478 378.052C452.036 377.194 459.238 374.683 470.865 367.217C471.13 364.178 471.658 363.518 472.055 363.452C473.971 363.121 475.16 375.212 481.304 377.392C483.947 378.317 487.647 377.458 492.932 373.163C494.716 377.854 496.5 382.545 498.283 387.302Z" fill="#BDD5FF"/>
<path d="M474.499 368.87C479.256 367.813 484.013 366.755 488.77 365.698C490.421 347.728 490.553 332.533 490.355 321.103C489.562 283.511 484.079 274.063 481.304 270.033C479.058 266.73 476.217 263.558 472.253 256.754C466.967 247.57 463.928 239.312 462.145 233.696C452.961 234.951 445.43 241.294 443.051 249.684C440.144 259.859 446.024 268.183 446.817 269.174C449.327 274.79 451.772 280.67 454.15 286.748C465.382 316.148 471.46 344.028 474.499 368.87Z" fill="#FFBAB8"/>
<path d="M494.914 362.329C486.259 362.329 477.538 362.329 468.883 362.329C460.559 329.956 452.3 297.583 443.976 265.21C448.997 264.417 456.132 263.888 464.391 265.342C479.784 268.051 490.223 276.177 494.914 280.339C494.914 307.691 494.914 335.043 494.914 362.329Z" fill="black"/>
<path d="M380.618 392.257C399.844 392.324 419.069 392.39 438.295 392.39C438.824 390.209 439.286 386.972 437.965 383.537C437.436 382.215 436.908 381.356 436.577 380.894C435.058 378.449 433.274 374.353 432.283 367.086C428.781 366.689 425.28 366.293 421.844 365.897C408.631 383.669 401.165 387.236 396.739 386.972C393.634 386.774 390.594 388.492 387.489 388.558C385.507 388.558 382.997 388.36 381.609 390.011C380.949 390.672 380.684 391.597 380.618 392.257Z" fill="#FFBAB8"/>
<path d="M523.124 260.849C534.686 243.474 546.314 226.032 557.875 208.656C554.836 188.638 551.731 168.554 548.692 148.535C548.89 145.496 550.08 121.315 540.566 104.138C535.611 95.1528 529.004 89.0746 529.004 89.0746C525.569 85.9034 522.331 83.7232 520.019 82.3358C512.752 86.0355 505.55 89.7353 498.283 93.5011C496.235 95.6153 473.772 119.664 481.568 144.043C482.559 147.214 484.343 150.98 487.316 154.944C491.478 167.364 495.64 179.785 499.802 192.206C507.532 215.131 515.328 238.056 523.124 260.849Z" fill="#FFBAB8"/>
<path d="M537.726 220.549C518.897 219.492 502.975 231.251 502.116 246.777C501.257 262.303 515.792 275.781 534.555 276.838C553.384 277.895 569.306 266.135 570.165 250.609C571.09 235.017 556.555 221.606 537.726 220.549Z" fill="#FFBAB8"/>
<path d="M435.849 263.162C467.364 264.945 498.944 266.729 530.458 268.513C533.497 250.411 536.536 232.374 539.575 214.272C530.854 212.884 518.301 211.695 503.436 212.951C458.048 216.782 413.519 241.69 416.029 253.978C416.69 257.15 420.786 260.849 435.849 263.162Z" fill="#FFBAB8"/>
<path d="M419.068 374.882C423.957 374.948 428.846 375.08 433.735 375.146C439.483 358.035 443.183 343.302 445.561 332.136C453.555 295.403 450.384 284.898 448.6 280.34C447.147 276.64 445.165 272.874 442.853 265.342C439.814 255.168 438.756 246.447 438.36 240.633C429.177 239.774 420.39 244.135 416.095 251.733C410.876 260.916 414.708 270.364 415.237 271.553C416.426 277.631 417.417 283.841 418.276 290.316C422.438 321.5 421.843 350.041 419.068 374.882Z" fill="#FFBAB8"/>
<path d="M546.777 269.438H446.553C448.205 273.798 450.385 280.405 451.574 288.73C453.82 304.255 451.045 314.826 449.262 329.097C448.072 338.809 447.015 352.749 448.138 370.19C438.691 369.728 429.177 369.266 419.73 368.803C417.748 336.298 415.832 303.859 413.85 271.354C413.189 268.249 412 260.453 415.369 251.468C418.474 243.209 423.892 238.32 426.402 236.272C448.931 224.842 481.568 212.554 521.473 211.695C530.194 211.497 538.452 211.893 546.182 212.62C546.38 231.449 546.579 250.411 546.777 269.438Z" fill="black"/>
<path d="M513.942 394.635C542.841 394.635 566.267 392.328 566.267 389.482C566.267 386.636 542.841 384.329 513.942 384.329C485.044 384.329 461.617 386.636 461.617 389.482C461.617 392.328 485.044 394.635 513.942 394.635Z" fill="black"/>
<path d="M520.813 262.237H507.335V384.263H520.813V262.237Z" fill="black"/>
<path d="M442.258 393.909C420.985 393.909 399.645 393.909 378.371 393.909C378.966 392.587 380.089 390.737 381.873 389.086C385.573 385.65 389.999 384.923 391.453 384.659C396.011 383.8 403.213 381.29 414.84 373.824C415.105 370.785 415.633 370.124 416.03 370.058C417.946 369.728 419.135 381.818 425.279 383.998C427.922 384.923 431.622 384.065 436.907 379.77C438.625 384.461 440.475 389.152 442.258 393.909Z" fill="#BDD5FF"/>
<path d="M549.42 222.927C533.96 219.161 518.5 215.395 503.041 211.629C494.056 184.145 485.004 156.661 476.019 129.177C478.794 122.24 482.031 114.973 485.863 107.507C487.449 104.468 489.034 101.495 490.62 98.6543C489.827 96.2759 489.034 93.8975 488.308 91.453C497.623 85.6391 506.939 79.8912 516.254 74.0773C518.566 76.5218 520.945 78.9663 523.257 81.4108C528.146 85.0445 537.66 93.1708 543.804 106.979C548.363 117.153 549.288 126.27 549.354 131.952C552.459 146.619 555.498 161.352 558.603 176.019C555.564 191.743 552.525 207.335 549.42 222.927Z" fill="#E35F01"/>
<path d="M453.556 270.429C452.169 261.709 492.932 260.651 524.644 223.39C552.194 190.951 549.287 158.908 559.66 158.842C574.129 158.644 603.33 220.483 578.687 258.471C548.032 305.577 455.538 283.246 453.556 270.429Z" fill="white"/>
<path d="M451.573 152.631L466.174 168.421C478.528 158.312 488.504 149.393 495.772 142.588C527.484 112.99 532.241 101.825 530.457 93.1701C530.127 91.4524 529.532 90.131 529.136 89.2722C514.865 96.2092 500.595 103.146 486.324 110.083C474.828 124.222 463.201 138.426 451.573 152.631Z" fill="#FFBAB8"/>
<path d="M466.636 170.932C460.558 165.118 454.48 159.238 448.336 153.424C458.246 140.541 468.222 127.724 478.132 114.841C481.501 111.075 512.157 77.5127 527.154 85.3086C528.145 85.8371 529.136 86.5639 530.061 87.5549C530.854 90.1976 531.448 93.3688 531.448 97.0686C531.316 110.084 523.19 119.201 520.415 122.042C502.511 138.361 484.606 154.679 466.636 170.932Z" fill="#E35F01"/>
<path d="M443.249 42.8277C445.165 45.8668 452.366 45.4043 455.538 42.2331C456.727 41.0439 456.661 40.1189 458.048 39.3261C460.493 38.0048 462.541 39.9868 465.91 39.3922C466.505 39.2601 467.033 39.0619 467.43 38.8637C469.412 37.7405 470.403 36.8816 470.997 36.5513C474.433 34.5693 485.136 48.4434 487.778 46.9899C489.232 46.1971 487.448 41.2421 488.373 40.8457C490.157 40.1189 496.896 57.0982 500.728 56.2393C503.833 55.5787 503.436 43.6205 503.37 42.6956C503.106 35.3621 502.842 27.9626 497.622 22.6772C487.58 12.5028 467.43 18.9114 463.135 22.479C462.673 22.8754 461.682 23.8003 460.03 24.5931C456.132 26.5091 454.018 25.0556 452.366 26.7073C450.45 28.6232 452.432 31.5302 450.384 33.314C448.997 34.5693 447.477 33.3801 445.76 34.7014C443.249 36.5513 441.796 40.6475 443.249 42.8277Z" fill="black"/>
<path d="M469.543 173.509C466.768 178.398 465.249 179.323 464.39 179.124C463.531 178.926 463.399 177.473 462.276 177.076C460.954 176.614 459.303 177.935 457.981 179.19C454.083 169.082 450.185 158.908 446.287 148.799C448.468 148.139 450.582 147.544 452.762 146.884C458.378 155.803 463.993 164.656 469.543 173.509Z" fill="#E35F01"/>
<path d="M417.284 175.953H343.288C341.769 175.953 340.447 174.698 340.447 173.112C340.447 171.328 341.703 170.073 343.288 170.073H417.284C418.803 170.073 420.124 171.328 420.124 172.914C420.058 174.698 418.803 175.953 417.284 175.953Z" fill="black"/>
<path d="M345.602 172.782C343.686 173.31 341.902 172.385 341.439 170.734L322.148 103.015C321.685 101.363 322.61 99.6453 324.262 99.1829C326.178 98.6543 327.962 99.5793 328.424 101.231L347.782 168.95C348.178 170.535 347.253 172.253 345.602 172.782Z" fill="black"/>
<path d="M84.0417 324.406C78.8884 326.124 57.2844 282.189 44.4674 234.291C37.6625 208.789 33.0378 190.884 35.4823 166.77C39.4463 127.262 59.9271 93.0387 66.0053 94.6904C69.4408 95.6154 67.7231 108.102 71.0264 108.697C75.9154 109.556 78.7563 81.0806 100.03 61.1283C110.865 51.02 125.664 43.7526 129.033 47.122C136.565 54.5876 79.7473 106.252 96.9909 140.211C98.5765 143.25 98.8407 142.457 100.492 145.694C113.838 171.461 84.8345 199.077 75.4529 237.33C63.8251 284.898 88.9307 322.821 84.0417 324.406Z" fill="#E35F01"/>
<path d="M53.65 293.09C16.3881 252.657 13.4811 248.957 9.91348 241.359C0.465864 221.143 -1.31795 199.142 2.58002 197.623C5.09057 196.632 9.25281 204.626 11.5652 203.635C17.313 201.257 -3.76244 149.724 4.89237 144.901C8.8564 142.655 18.7665 150.583 24.5804 158.907C35.6797 174.764 31.055 191.082 38.2563 193.593C44.9291 195.905 51.3376 182.692 56.623 184.608C66.401 188.043 45.788 233.96 62.6351 282.057C67.7223 296.526 75.7165 309.871 73.338 311.457C71.6203 312.514 65.6082 306.039 53.65 293.09Z" fill="white"/>
<path d="M83.9751 382.083H80.6056C56.6232 382.083 37.1995 362.659 37.1995 338.677V297.781H127.315V338.677C127.381 362.659 107.957 382.083 83.9751 382.083Z" fill="#C5EFFF"/>
<path d="M126.853 385.188H44.9953C43.4097 385.188 42.0884 383.867 42.0884 382.281C42.0884 380.432 43.4097 379.176 44.9953 379.176H126.853C128.438 379.176 129.76 380.498 129.76 382.083C129.76 383.867 128.438 385.188 126.853 385.188Z" fill="black"/>
<path d="M484.673 154.547C484.475 154.547 484.277 154.481 484.145 154.349C483.814 154.019 483.748 153.556 484.079 153.16L488.439 148.205C488.769 147.874 489.232 147.808 489.628 148.139C489.959 148.469 490.025 148.932 489.694 149.328L485.334 154.283C485.136 154.481 484.871 154.547 484.673 154.547Z" fill="black"/>
<path d="M498.348 146.025C498.15 146.025 497.885 145.959 497.753 145.761C497.423 145.43 497.489 144.902 497.819 144.571L506.342 136.908C506.672 136.577 507.201 136.643 507.531 136.974C507.861 137.304 507.795 137.833 507.465 138.163L498.942 145.827C498.744 145.959 498.546 146.025 498.348 146.025Z" fill="black"/>
<path d="M467.165 166.241C466.835 166.241 466.57 166.043 466.438 165.779L459.765 151.64C459.567 151.244 459.765 150.715 460.162 150.517C460.558 150.319 461.087 150.517 461.285 150.914L467.958 165.052C468.156 165.448 467.958 165.977 467.561 166.175C467.363 166.241 467.231 166.241 467.165 166.241Z" fill="black"/>
<path d="M457.585 172.385C457.254 172.385 456.924 172.187 456.792 171.791L450.78 151.97C450.648 151.508 450.912 151.045 451.308 150.913C451.771 150.781 452.233 151.045 452.366 151.442L458.378 171.262C458.51 171.724 458.245 172.187 457.849 172.319C457.783 172.385 457.651 172.385 457.585 172.385Z" fill="black"/>
<path d="M401.626 36.9478C400.502 44.9419 395.019 44.6776 389.734 57.759C383.655 72.8223 387.818 81.411 381.079 86.0357C376.058 89.5373 368.13 88.7445 363.108 85.5072C356.568 81.345 357.889 74.8704 350.754 58.6178C344.94 45.3383 342.561 46.1311 341.703 40.3833C339.588 26.1128 351.547 1.80001 371.829 1.99821C390.725 2.19642 403.475 23.5361 401.626 36.9478Z" fill="white"/>
<path d="M386.033 88.9428H358.417C357.36 88.9428 356.435 88.0839 356.435 86.9608V85.3751C356.435 84.3181 357.294 83.3931 358.417 83.3931H386.033C387.09 83.3931 388.015 84.252 388.015 85.3751V86.9608C388.015 88.0839 387.09 88.9428 386.033 88.9428Z" fill="black"/>
<path d="M386.033 95.1526H358.417C357.36 95.1526 356.435 94.2937 356.435 93.1706V91.585C356.435 90.5279 357.294 89.603 358.417 89.603H386.033C387.09 89.603 388.015 90.4618 388.015 91.585V93.1706C388.015 94.2277 387.09 95.1526 386.033 95.1526Z" fill="black"/>
<path d="M386.033 101.297H358.417C357.36 101.297 356.435 100.438 356.435 99.3153V97.7297C356.435 96.6726 357.294 95.7477 358.417 95.7477H386.033C387.09 95.7477 388.015 96.6065 388.015 97.7297V99.3153C388.015 100.438 387.09 101.297 386.033 101.297Z" fill="black"/>
<path d="M369.319 83.1946C368.988 70.1794 368.592 57.1641 368.262 44.1489C368.129 40.4491 368.724 35.0977 365.685 32.2568C362.514 29.3498 357.757 31.3979 354.916 33.7763C354.52 34.1067 354.453 34.8995 354.718 35.2959C356.171 37.3439 359.012 36.9475 361.324 36.8154C364.562 36.6172 367.799 35.9565 370.904 34.8334C374.009 33.7102 376.916 32.1907 379.559 30.2748C381.409 28.8873 384.712 26.8393 384.91 24.2626C385.109 22.4127 383.589 21.0914 381.805 21.0253C379.427 20.9593 377.445 22.8092 376.784 24.9894C376.124 27.1696 375.991 30.6712 377.511 32.5871C379.163 34.6352 382.004 34.1067 384.25 33.446C383.787 32.8514 383.325 32.1907 382.862 31.5961C378.502 38.0046 377.973 47.1219 377.181 54.5875C376.124 63.8369 375.991 73.1524 376.586 82.4018C376.718 83.9874 379.163 83.9874 379.097 82.4018C378.502 73.8791 378.634 65.3565 379.427 56.8999C379.889 52.4073 380.484 47.9147 381.343 43.4221C382.07 39.6563 382.862 36.0226 385.043 32.8514C385.637 31.9264 384.646 30.6712 383.655 31.0015C383.193 31.1336 382.466 31.53 382.004 31.464C380.616 31.2658 379.229 29.548 379.031 28.3588C378.964 27.8303 378.964 25.9804 379.295 25.65C380.088 25.5179 380.946 25.3858 381.739 25.2536C381.541 25.4518 381.277 25.7161 381.079 25.9143C379.427 28.0285 376.322 29.6801 374.009 30.8694C371.367 32.1246 368.79 33.0496 366.147 33.6442C364.826 33.9085 357.955 35.4941 356.898 34.0406C356.832 34.5691 356.766 35.0316 356.7 35.5601C358.88 33.7102 362.91 32.0586 364.826 35.2298C365.817 36.8815 365.619 39.326 365.685 41.1758C365.817 45.8006 365.949 50.3592 366.081 54.9839C366.346 64.4315 366.61 73.8131 366.874 83.2607C366.874 84.7802 369.385 84.7802 369.319 83.1946Z" fill="black"/>
<path d="M323.204 389.482H322.808C319.967 389.482 317.72 387.17 317.72 384.395V188.902C317.72 186.061 320.033 183.815 322.808 183.815H323.204C326.045 183.815 328.291 186.127 328.291 188.902V384.329C328.357 387.17 326.045 389.482 323.204 389.482Z" fill="black"/>
</svg>
