<svg width="559" height="443" viewBox="0 0 559 443" fill="none" xmlns="http://www.w3.org/2000/svg">
<path d="M219.076 79.9115C221.087 131.329 303.086 159.779 313.564 148.569C319.656 142.051 302.903 120.302 312.346 110.737C315.331 107.691 319.108 107.752 329.586 107.265C355.539 105.986 368.515 105.376 373.571 101.477C385.268 92.583 383.379 67.6055 376.983 51.6443C364.616 20.8794 327.393 3.15148 303.756 9.9746C297.42 11.8022 295.105 14.5436 282.434 18.3816C264.523 23.8645 257.761 21.915 249.598 24.8392C230.773 31.5405 218.284 58.833 219.076 79.9115Z" fill="#F47300"/>
<path d="M407.99 81.2516C407.563 82.2263 407.259 83.2619 407.076 84.2976L397.816 136.933C396.719 143.208 400.192 149.361 405.857 151.798C406.893 152.224 407.868 152.59 409.025 152.772C410.122 153.016 411.218 153.016 412.315 152.894C418.407 152.651 423.707 148.021 424.865 141.685L434.125 89.0494C435.343 82.5309 431.566 76.1342 425.596 73.8802C424.743 73.5756 423.89 73.3928 423.098 73.21C416.518 72.1135 410.426 75.525 407.99 81.2516Z" fill="#FEFDFF"/>
<path d="M430.166 67.8494C424.44 65.2298 418.165 68.7632 415.85 70.1035C401.595 78.2669 403.118 104.524 403.24 106.229C403.24 106.108 403.3 105.864 403.361 105.559C403.91 102.574 406.651 87.7705 419.079 79.3634C421.699 77.5967 427.303 74.3679 435.832 73.6978C434.979 71.992 433.273 69.2506 430.166 67.8494Z" fill="#9200FF"/>
<path d="M408.659 141.076C383.56 149.239 358.461 157.464 333.361 165.688C333.91 167.333 334.458 169.039 334.945 170.744C335.798 173.303 336.59 175.862 337.382 178.42C341.159 178.847 394.404 184.269 408.903 161.363C410.182 159.291 411.218 156.976 411.827 154.357L408.659 141.076Z" fill="#FEFDFF"/>
<path d="M377.164 167.029C359.436 170.988 344.997 170.623 335.006 170.745C335.859 173.303 336.651 175.862 337.443 178.421C341.22 178.847 394.465 184.269 408.964 161.363C410.243 159.292 411.279 156.977 411.888 154.357L411.706 153.565C396.415 160.876 386.606 164.957 377.164 167.029Z" fill="#C5EFFF"/>
<path d="M407.869 140.65C402.63 141.868 399.401 147.168 400.619 152.407C401.838 157.646 407.138 160.875 412.377 159.657C417.616 158.438 420.845 153.138 419.626 147.899C418.347 142.66 413.108 139.431 407.869 140.65Z" fill="#9200FF"/>
<path d="M403.605 308.364C399.279 306.232 395.015 304.16 390.75 302.028C389.654 288.687 389.227 262.308 400.376 231.848C408.235 210.464 418.774 195.234 426.267 185.852C429.862 187.802 433.395 189.812 437.05 191.701C441.863 194.381 446.676 197.062 451.427 199.62C452.037 210.525 451.488 225.268 446.858 241.778C436.989 277.294 414.388 299.165 403.605 308.364Z" fill="#FEFDFF"/>
<path d="M434.857 184.025C442.046 185.426 443.508 198.22 436.989 216.008C435.832 216.8 434.735 217.653 433.578 218.445C431.324 207.54 429.131 196.575 426.876 185.67C430.958 183.781 433.395 183.781 434.857 184.025Z" fill="#9200FF"/>
<path d="M450.391 210.22C457.214 205.651 460.808 199.986 462.392 197.001C466.839 165.078 471.286 133.095 475.734 101.172C476.221 98.492 476.465 94.9586 475.551 90.9987C472.2 76.6824 455.264 65.9604 439.181 66.3868C421.758 66.8132 410.975 80.0939 409.269 82.2871C407.381 93.07 405.98 105.254 405.736 118.596C405.127 153.199 412.315 181.953 419.504 202.24C420.601 203.763 421.758 205.347 423.037 206.931C426.022 210.586 429.008 213.693 431.871 216.313C435.221 216.191 442.776 215.338 450.391 210.22Z" fill="#C5EFFF"/>
<path d="M436.684 253.474C438.938 264.257 442.106 272.238 444.299 277.721C450.695 293.682 458.371 305.927 464.159 313.847C465.134 315.187 465.986 316.405 466.839 317.502C470.373 317.136 473.723 316.71 477.074 316.284C478.414 316.101 479.815 315.918 481.156 315.796C481.46 315.126 481.582 314.395 481.826 313.664C485.847 299.165 491.634 269.862 481.095 236.417C476.587 222.039 470.129 210.586 464.281 201.996C463.489 200.839 462.697 199.681 461.905 198.646C458.432 199.316 455.691 199.377 453.741 199.255C452.157 199.194 450.086 198.95 448.259 200.169C447.527 200.656 447.04 201.265 446.735 201.692C445.273 202.545 443.629 203.58 441.984 204.921C438.633 207.601 436.318 210.464 434.734 212.779C433.516 223.501 433.333 237.574 436.684 253.474Z" fill="#FEFDFF"/>
<path d="M459.832 318.598C460.137 319.207 460.381 319.878 460.746 320.487C467.752 335.412 475.489 345.464 481.155 351.922C490.597 362.522 497.359 366.299 512.407 380.25C523.251 390.302 531.475 399.257 536.531 404.923C536.531 404.862 543.233 400.537 543.233 400.537L544.268 399.866L546.522 398.404C545.974 397.917 545.487 397.369 544.999 396.76C532.45 383.418 524.591 371.295 519.656 362.461C509.909 344.794 508.508 334.316 497.969 324.081C492.851 319.086 487.247 315.796 481.825 313.603C480.119 312.872 478.413 312.263 476.768 311.775C474.758 311.105 472.747 310.618 470.92 310.191C470.798 310.13 470.676 310.13 470.554 310.13C469.58 309.887 468.727 309.765 467.874 309.643C466.655 311.044 465.437 312.445 464.158 313.846C462.696 315.43 461.294 317.014 459.832 318.598Z" fill="#FEFDFF"/>
<path d="M519.9 441.658C523.738 441.475 527.637 441.353 531.475 441.171C540.187 432.154 548.96 423.199 557.671 414.183C557.976 413.269 558.22 411.929 557.732 410.588C557.123 408.761 555.478 407.786 554.991 407.482C552.98 406.202 549.752 403.217 544.269 395.846C540.309 397.369 536.349 398.831 532.389 400.354C534.521 420.397 531.293 427.342 527.211 429.413C522.886 431.606 516.915 428.499 515.271 431.058C513.808 433.312 516.854 437.881 519.9 441.658Z" fill="#FEFDFF"/>
<path d="M388.311 346.439C389.712 360.573 393.001 367.579 396.9 387.743C399.764 402.303 401.165 414.305 401.896 421.859C401.957 421.859 409.937 422.285 409.937 422.285L413.775 422.468C413.654 421.737 413.593 421.006 413.532 420.275C411.217 402.06 412.009 387.743 413.227 377.63C415.725 357.588 420.781 348.328 418.223 333.828C416.151 321.827 409.998 312.872 404.455 306.719C404.394 306.597 404.333 306.536 404.211 306.475C403.602 305.744 402.932 305.074 402.322 304.465C398.423 305.379 394.464 306.17 390.565 307.023C390.443 307.694 390.26 308.425 390.199 309.095C387.153 325.178 387.458 337.91 388.311 346.439Z" fill="#FEFDFF"/>
<path d="M363.03 442.572H413.351C414.204 442.024 415.239 441.11 415.727 439.709C416.336 437.942 415.544 436.237 415.3 435.627C414.387 433.495 413.595 429.657 413.777 422.408C409.513 419.727 405.309 417.047 401.045 414.305C398.791 417.717 395.014 422.225 389.165 424.966C379.235 429.657 370.524 425.697 365.65 431.363C364.188 433.13 362.604 436.358 363.03 442.572Z" fill="#FEFDFF"/>
<path d="M448.929 78.0229C448.138 78.693 447.346 79.485 446.736 80.3379L414.814 123.165C410.976 128.282 411.341 135.349 415.301 140.04C416.032 140.893 416.763 141.624 417.677 142.294C418.591 143.025 419.505 143.452 420.54 143.878C426.084 146.376 432.968 144.609 436.806 139.492L468.729 96.6646C472.749 91.3645 472.262 83.9931 467.937 79.3023C467.327 78.693 466.596 78.0838 465.987 77.5356C460.687 73.6976 453.681 74.0631 448.929 78.0229Z" fill="#FEFDFF"/>
<path d="M474.76 76.0125C470.8 71.078 463.611 71.4435 460.931 71.5653C444.482 72.4182 434.065 96.6037 433.456 98.1267C433.517 98.0049 433.699 97.8221 433.882 97.5785C435.71 95.2025 444.787 83.2012 459.712 81.2517C462.88 80.8253 469.338 80.4597 477.258 83.7495C477.197 81.9218 476.892 78.693 474.76 76.0125Z" fill="#9200FF"/>
<path d="M422.489 130.293C396.354 126.76 370.158 123.165 343.962 119.693C343.718 121.399 343.474 123.165 343.17 124.932C342.804 127.613 342.439 130.232 342.012 132.852C345.241 134.862 390.81 162.947 413.838 148.691C415.848 147.412 417.798 145.767 419.503 143.635L422.489 130.293Z" fill="#FEFDFF"/>
<path d="M382.827 139.918C365.16 135.715 352.367 129.135 343.229 124.932C342.863 127.612 342.498 130.232 342.072 132.852C345.3 134.862 390.869 162.946 413.897 148.691C415.907 147.412 417.857 145.767 419.563 143.635L419.745 142.843C402.87 142.721 392.27 142.172 382.827 139.918Z" fill="#C5EFFF"/>
<path d="M421.94 129.562C416.701 128.404 411.461 131.755 410.304 136.994C409.146 142.233 412.497 147.472 417.736 148.63C422.975 149.787 428.215 146.437 429.372 141.198C430.53 135.897 427.24 130.719 421.94 129.562Z" fill="#9200FF"/>
<path d="M418.102 54.2638L422.366 70.1641C424.011 76.378 430.103 80.0942 435.891 78.5712L441.739 76.9872C447.527 75.4033 450.877 69.1285 449.232 62.9145L444.968 47.0143C443.323 40.9222 437.231 37.0842 431.444 38.6072L425.595 40.1911C421.635 41.2268 418.772 44.5774 418.041 48.5373C417.615 50.3649 417.615 52.3144 418.102 54.2638Z" fill="#9200FF"/>
<path d="M398.122 22.4632C397.269 24.9001 396.66 27.276 396.172 29.6519C395.746 32.1496 395.563 34.6474 395.624 37.0233C395.807 47.258 400.193 55.665 407.747 58.3455C416.885 61.6352 427.668 55.4823 434.37 44.2728C435.771 41.836 436.928 39.3992 437.903 36.7187C443.569 20.8184 439.243 4.85717 428.277 0.897329C427.607 0.653646 426.937 0.470884 426.328 0.349043C426.206 0.288122 426.084 0.349043 425.962 0.288122C419.261 -1.05213 411.829 2.35942 405.98 8.93886C404.153 10.8883 402.508 13.2033 401.107 15.8229C399.949 17.9551 398.914 20.1483 398.122 22.4632Z" fill="#FEFDFF"/>
<path d="M403.241 15.275C399.037 27.0936 405.373 40.2524 417.496 44.5778C429.619 48.9032 442.839 42.8111 447.103 30.9925C451.307 19.1739 444.971 6.01501 432.848 1.68964C420.725 -2.63572 407.444 3.45634 403.241 15.275Z" fill="#FEFDFF"/>
<path d="M398.122 22.463C397.269 24.8998 396.66 27.2757 396.172 29.6516C395.746 32.1494 395.563 34.6471 395.624 37.023C399.949 36.5966 403.848 36.8403 407.199 37.3276C412.316 37.9978 416.276 39.3989 418.713 40.3737L428.277 30.0172C425.902 27.2757 418.408 19.2342 405.798 16.4928C404.884 16.2491 403.909 16.1272 402.995 16.0054C402.325 15.8836 401.716 15.7617 401.107 15.7617C399.949 17.9549 398.914 20.148 398.122 22.463Z" fill="black"/>
<path d="M431.202 30.8705C428.339 34.6475 428.217 39.3994 430.897 41.4707C433.578 43.542 438.147 42.1408 441.01 38.3028C443.873 34.5257 443.995 29.7739 441.315 27.7026C438.634 25.6313 434.065 27.0325 431.202 30.8705Z" fill="#9200FF"/>
<path d="M443.749 277.477C443.444 277.477 443.14 277.294 443.018 276.989C440.094 268.582 437.962 259.81 436.743 250.976C435.647 242.874 435.22 234.649 435.586 226.486C435.586 226.06 435.951 225.755 436.378 225.755C436.804 225.755 437.109 226.121 437.109 226.547C436.743 234.589 437.17 242.752 438.266 250.732C439.485 259.444 441.556 268.095 444.48 276.441C444.602 276.867 444.419 277.294 443.993 277.416C443.871 277.477 443.81 277.477 443.749 277.477Z" fill="black"/>
<path d="M476.77 311.775C476.77 312.994 476.892 314.273 477.014 315.674C477.014 315.857 477.075 316.04 477.075 316.223C481.522 354.542 519.78 389.084 544.27 399.806L546.524 398.344C545.976 397.856 545.489 397.308 545.001 396.699C532.452 383.357 524.593 371.234 519.658 362.401C509.911 344.734 508.51 334.255 497.971 324.021C492.853 319.025 487.249 315.735 481.827 313.542C485.847 299.043 491.635 269.74 481.096 236.295C476.587 221.918 470.13 210.464 464.281 201.875C464.281 206.566 477.014 232.457 478.415 274.37C479.085 295.571 476.222 301.297 476.77 311.775Z" fill="#C5EFFF"/>
<path d="M477.743 314.456C478.535 319.33 474.758 324.142 469.336 325.117C463.914 326.153 458.857 322.985 458.065 318.111C457.273 313.237 461.05 308.425 466.472 307.45C471.894 306.414 476.951 309.582 477.743 314.456Z" fill="#9200FF"/>
<path d="M470.13 193.346C454.839 186.218 427.485 210.404 430.227 217.653C430.592 218.567 431.384 219.115 432.054 219.481C432.542 219.542 433.029 219.603 433.516 219.603C448.077 213.206 462.576 206.748 477.136 200.352C475.613 197.61 473.419 194.869 470.13 193.346Z" fill="#9200FF"/>
<path d="M405.369 307.998C403.359 312.507 397.571 314.456 392.515 312.385C387.397 310.253 384.9 304.892 386.91 300.383C388.92 295.875 394.708 293.926 399.764 295.997C404.882 298.068 407.379 303.429 405.369 307.998Z" fill="#9200FF"/>
<path d="M345.669 121.398C345.06 118.657 343.476 113.661 339.211 109.397C335.19 105.376 329.342 102.635 328.367 103.731C327.941 104.219 328.185 105.742 332.205 110.798C331.84 112.199 331.535 113.661 331.17 115.063C325.139 114.88 319.107 114.697 313.076 114.514C301.014 108.849 297.846 108.788 297.176 109.762C295.958 111.529 301.989 117.56 303.634 119.205C309.421 125.054 315.33 128.465 319.351 130.415C327.758 131.389 336.104 132.425 344.511 133.4L345.669 121.398Z" fill="#9200FF"/>
<path d="M340.185 166.723C339.576 163.982 337.992 158.986 333.727 154.722C329.707 150.701 323.858 147.959 322.884 149.056C322.457 149.543 322.701 151.066 326.722 156.123C326.356 157.524 326.051 158.986 325.686 160.387C319.655 160.205 313.624 160.022 307.593 159.839C295.53 154.173 292.362 154.112 291.692 155.087C290.535 156.854 296.505 162.885 298.15 164.53C303.937 170.378 309.847 173.79 313.867 175.739C322.274 176.714 330.621 177.75 339.028 178.724L340.185 166.723Z" fill="#9200FF"/>
<path d="M289.317 51.4616C289.317 52.7409 290.23 53.9593 291.753 53.9593C293.276 53.9593 294.19 55.1777 294.19 56.4571C294.19 57.1881 293.825 57.9192 293.155 58.4065C292.424 58.8939 292.119 59.6249 292.119 60.356C292.119 61.879 293.52 63.3411 295.348 62.7319C295.652 62.61 295.896 62.61 296.14 62.61C298.028 62.61 299.308 64.8032 298.089 66.509C297.724 66.9354 297.602 67.4837 297.602 67.9711C297.602 69.7378 299.795 71.2608 301.562 69.9205C301.988 69.555 302.536 69.4332 302.963 69.4332C304.547 69.4332 305.948 70.9562 305.339 72.662C305.217 72.9666 305.217 73.2102 305.217 73.4539C305.217 75.708 308.202 76.9264 309.664 74.916C310.152 74.185 310.883 73.8804 311.614 73.8804C312.832 73.8804 314.05 74.8551 314.05 76.3172C314.05 77.9621 315.269 78.8149 316.548 78.8149C317.523 78.8149 318.437 78.2667 318.863 77.1092C319.229 76.0126 320.203 75.4034 321.239 75.4034C322.275 75.4034 323.249 76.0126 323.615 77.1092C323.98 78.2667 324.955 78.8149 325.93 78.8149C327.148 78.8149 328.428 77.9011 328.367 76.3172C328.367 74.7942 329.585 73.8804 330.865 73.8804C331.596 73.8804 332.327 74.2459 332.814 74.916C333.301 75.5861 334.032 75.9517 334.703 75.9517C336.286 75.9517 337.749 74.5505 337.078 72.7229C336.957 72.4183 336.957 72.2355 336.957 71.9309C336.957 70.1033 339.211 68.763 340.856 69.9814C341.343 70.347 341.891 70.4688 342.318 70.4688C344.145 70.4688 345.607 68.3366 344.328 66.5699C343.962 66.1434 343.841 65.5342 343.841 65.1078C343.841 63.5239 345.364 62.1836 347.069 62.7319C347.374 62.8537 347.618 62.9146 347.922 62.9146C350.055 62.9146 351.334 59.8686 349.263 58.4674C348.532 57.9801 348.227 57.249 348.227 56.518C348.227 55.2386 349.263 54.0202 350.725 54.0202C352.309 54.0202 353.162 52.8018 353.162 51.5225C353.162 50.5478 352.674 49.6339 351.456 49.2075C350.359 48.9029 349.75 47.8672 349.75 46.8316C349.75 45.8569 350.359 44.9431 351.456 44.5166C352.613 44.1511 353.162 43.1764 353.162 42.2016C353.162 40.9223 352.248 39.7039 350.725 39.7039C349.202 39.7039 348.227 38.4855 348.227 37.2061C348.227 36.4751 348.532 35.744 349.263 35.2567C349.994 34.7693 350.298 34.0383 350.298 33.3072C350.298 31.7842 348.836 30.3221 347.069 30.9313C346.765 31.0531 346.521 31.0531 346.277 31.0531C344.389 31.0531 343.049 28.86 344.328 27.1542C344.694 26.7278 344.815 26.1795 344.815 25.6921C344.815 23.9254 342.622 22.4024 340.856 23.7427C340.429 24.1082 339.881 24.23 339.454 24.23C337.87 24.23 336.469 22.707 337.078 21.0012C337.2 20.6966 337.261 20.4529 337.261 20.1483C337.261 17.9552 334.215 16.6759 332.814 18.7472C332.327 19.4782 331.596 19.7828 330.865 19.7828C329.585 19.7828 328.367 18.7472 328.367 17.2851C328.367 14.4827 324.468 13.8735 323.615 16.554C323.249 17.6506 322.275 18.2598 321.239 18.2598C320.203 18.2598 319.229 17.7115 318.863 16.554C318.01 13.8735 314.05 14.4827 314.05 17.2851C314.05 18.8081 312.832 19.7828 311.614 19.7828C310.883 19.7828 310.152 19.4782 309.664 18.7472C309.116 18.0161 308.446 17.7115 307.715 17.7115C306.192 17.7115 304.73 19.1736 305.339 21.0012C305.461 21.3058 305.522 21.5495 305.522 21.8541C305.522 23.6817 303.267 24.9611 301.623 23.7427C301.135 23.3771 300.587 23.2553 300.161 23.2553C298.333 23.2553 296.871 25.3875 298.15 27.1542C298.516 27.5807 298.638 28.129 298.638 28.6163C298.638 30.2003 297.114 31.5405 295.409 30.9922C295.104 30.8704 294.86 30.8095 294.556 30.8095C292.363 30.8095 291.144 33.8555 293.216 35.2567C293.886 35.744 294.251 36.4751 294.251 37.2061C294.251 38.4855 293.276 39.7039 291.814 39.7039C290.23 39.7039 289.378 40.9223 289.378 42.2016C289.378 43.1764 289.865 44.0902 291.083 44.5166C292.18 44.8821 292.789 45.8569 292.789 46.8316C292.789 47.8672 292.18 48.842 291.083 49.2075C289.804 49.573 289.317 50.4868 289.317 51.4616ZM311.735 46.8316C311.735 41.5924 316 37.2671 321.3 37.2671C326.6 37.2671 330.865 41.5924 330.865 46.8316C330.865 52.1317 326.6 56.4571 321.3 56.4571C315.939 56.4571 311.735 52.1317 311.735 46.8316Z" fill="white"/>
<path d="M244.967 86.5515C244.967 88.2573 245.942 89.9631 247.953 90.5113C249.841 91.0596 250.938 92.7654 250.938 94.5321C250.938 95.385 250.694 96.2988 250.085 97.0298C249.476 97.8218 249.232 98.7356 249.232 99.5276C249.232 102.147 251.851 104.523 254.776 103.487C255.263 103.305 255.689 103.244 256.177 103.244C258.431 103.244 260.38 105.071 260.319 107.508C260.319 111.712 265.559 113.357 267.874 110.006C268.726 108.788 270.006 108.178 271.285 108.178C272.564 108.178 273.905 108.788 274.697 110.006C275.55 111.224 276.829 111.834 278.047 111.834C280.18 111.834 282.312 110.189 282.251 107.569C282.251 104.584 285.114 102.574 287.795 103.548C288.282 103.731 288.769 103.792 289.257 103.792C292.486 103.792 294.74 99.954 292.486 97.0908C291.876 96.2988 291.633 95.4459 291.633 94.5321C291.633 92.7654 292.729 91.1205 294.618 90.5723C296.628 89.963 297.603 88.2573 297.603 86.6124C297.603 84.9066 296.628 83.2009 294.618 82.6526C292.729 82.1043 291.633 80.3985 291.633 78.6318C291.633 77.7789 291.876 76.8651 292.486 76.0731C293.095 75.2812 293.338 74.3674 293.338 73.5754C293.338 70.9558 290.719 68.5799 287.734 69.6765C287.246 69.8592 286.82 69.9202 286.333 69.9202C284.078 69.9202 282.129 68.0316 282.19 65.6557C282.19 61.5131 276.89 59.8073 274.636 63.2189C273.783 64.4373 272.504 65.0465 271.224 65.0465C269.945 65.0465 268.605 64.4373 267.813 63.2189C265.437 59.8073 260.137 61.574 260.259 65.6557C260.259 68.6408 257.395 70.6512 254.715 69.6765C254.227 69.4937 253.74 69.4328 253.253 69.4328C250.085 69.4328 247.831 73.2708 250.024 76.1341C250.633 76.926 250.877 77.7789 250.877 78.6927C250.877 80.4594 249.78 82.1652 247.892 82.7135C245.942 83.1399 244.967 84.8457 244.967 86.5515ZM266.229 86.5515C266.229 83.7491 268.544 81.4342 271.346 81.4342C274.148 81.4342 276.463 83.7491 276.463 86.5515C276.463 89.3538 274.148 91.6688 271.346 91.6688C268.483 91.6079 266.229 89.3538 266.229 86.5515Z" fill="white"/>
<path d="M206.951 51.7657C206.708 51.7657 206.464 51.6439 206.281 51.4002C206.038 51.0347 206.159 50.5473 206.525 50.3646L257.272 18.9904C257.637 18.7467 258.125 18.8686 258.307 19.2341C258.551 19.5996 258.429 20.087 258.064 20.2698L207.256 51.6439C207.195 51.7657 207.073 51.7657 206.951 51.7657Z" fill="black"/>
<path d="M231.747 97.4565C231.504 97.4565 231.26 97.3346 231.138 97.1519L203.663 56.8833C203.419 56.5178 203.541 56.0913 203.846 55.8477C204.211 55.604 204.638 55.7258 204.881 56.0304L232.357 96.299C232.6 96.6645 232.478 97.0909 232.174 97.3346C232.052 97.4565 231.93 97.4565 231.747 97.4565Z" fill="black"/>
<path d="M249.718 19.0519C249.718 24.0474 253.799 28.1291 258.795 28.1291C263.79 28.1291 267.872 24.0474 267.872 19.0519C267.872 14.0564 263.79 9.97473 258.795 9.97473C253.738 9.97473 249.718 14.0564 249.718 19.0519Z" fill="#9200FF"/>
<path d="M204.332 62.6096C209.346 62.6096 213.41 58.5456 213.41 53.5324C213.41 48.5192 209.346 44.4552 204.332 44.4552C199.319 44.4552 195.255 48.5192 195.255 53.5324C195.255 58.5456 199.319 62.6096 204.332 62.6096Z" fill="#9200FF"/>
<path d="M231.746 107.204C236.76 107.204 240.824 103.14 240.824 98.1266C240.824 93.1134 236.76 89.0494 231.746 89.0494C226.733 89.0494 222.669 93.1134 222.669 98.1266C222.669 103.14 226.733 107.204 231.746 107.204Z" fill="#9200FF"/>
<path d="M87.7904 432.155C87.7904 434.835 109.417 437.028 136.04 437.028C162.662 437.028 184.289 434.835 184.289 432.155C184.289 429.474 162.662 427.281 136.04 427.281C109.417 427.281 87.7904 429.474 87.7904 432.155Z" fill="black"/>
<path d="M163.15 236.66C166.927 237.879 170.704 239.097 174.481 240.315C174.542 241.168 174.725 243.118 176.187 244.884C178.989 248.357 183.741 247.748 184.046 247.687C186.239 237.696 188.432 227.766 190.564 217.775C189.468 200.23 188.371 182.745 187.214 165.2C185.63 145.584 170.217 134.74 160.348 137.055C152.428 138.882 145.605 149.665 145.666 162.885C151.514 187.558 157.363 212.109 163.15 236.66Z" fill="#F47300"/>
<path d="M60.4379 346.074H208.536L155.474 209.794C145.179 183.294 119.592 165.809 91.1419 165.809C42.649 165.809 9.26449 214.607 26.9315 259.871L60.4379 346.074Z" fill="white"/>
<path d="M96.2602 255.972C105.947 245.067 128.548 243.971 144.57 243.24C154.561 242.752 220.782 239.706 243.079 275.406C256.055 296.119 249.598 322.558 228.275 343.271C202.689 344.185 177.102 345.099 151.515 346.074C101.682 310.009 80.9692 273.152 96.2602 255.972Z" fill="white"/>
<path d="M167.595 242.996C166.621 245.555 164.488 250.672 160.346 260.907C153.766 276.99 153.218 278.087 152.304 279.488C145.908 289.601 132.566 298.8 123.428 297.277C110.086 295.083 98.5722 269.009 101.679 232.092C103.385 223.745 104.847 216.496 106.553 208.15C105.761 204.738 105.03 201.205 104.36 197.549C102.166 184.634 101.679 172.328 102.227 160.875C103.141 142.599 119.102 128.587 137.318 130.293C143.166 130.841 149.502 131.816 156.142 133.583C158.335 134.131 160.468 134.801 162.6 135.471C168.265 137.299 174.053 139.675 175.637 140.528C184.592 145.28 184.348 166.175 184.227 173.242C183.617 202.119 174.236 226.06 167.595 242.996Z" fill="#FFBAB8"/>
<path d="M61.4109 340.529H224.008C232.598 340.529 239.604 333.524 239.604 324.934V312.932C239.604 304.343 232.598 297.337 224.008 297.337H61.4109C52.8211 297.337 45.8152 304.343 45.8152 312.932V324.934C45.8152 333.524 52.8211 340.529 61.4109 340.529Z" fill="#F47300"/>
<path d="M61.1072 348.45H225.471C227.055 348.45 228.334 347.171 228.334 345.587V343.394C228.334 341.81 227.055 340.53 225.471 340.53H61.1072C59.5233 340.53 58.244 341.81 58.244 343.394V345.587C58.244 347.171 59.5233 348.45 61.1072 348.45Z" fill="white"/>
<path d="M62.9973 305.44C68.2974 306.78 73.8412 308.12 79.6896 309.217C88.2794 310.922 97.4784 312.384 107.287 313.359C108.14 313.481 108.992 313.603 109.845 313.664C136.772 316.283 160.166 315.004 178.503 312.811C181.793 312.445 203.48 310.009 204.333 302.881C205.064 296.972 191.053 290.758 183.681 287.59C168.999 281.254 145.179 273.7 108.871 271.689C100.951 271.263 92.4829 271.141 83.3448 271.324C81.9437 272.421 80.4816 273.456 79.0804 274.553C72.0745 279.853 65.0077 285.092 57.9409 290.331C57.6972 295.753 59.5858 301.053 62.9973 305.44Z" fill="black"/>
<path d="M62.9956 305.44C66.8945 310.435 72.8038 314.395 79.8097 316.405C82.4902 317.075 85.2316 317.563 88.2167 317.745C95.2835 318.05 101.863 316.405 107.285 313.359C115.144 309.034 120.444 301.723 120.809 293.255C121.236 284.666 116.484 276.746 108.869 271.689C105.396 269.314 101.254 267.608 96.7456 266.633C94.7962 266.207 92.6639 265.902 90.5317 265.841C86.3891 265.597 82.4902 266.146 78.8349 267.12C67.0163 270.349 58.3656 279.305 57.8782 290.27C57.6955 295.753 59.584 301.053 62.9956 305.44Z" fill="black"/>
<path d="M79.8101 318.903C117.581 317.075 155.291 315.308 193.062 313.481C199.154 313.481 204.819 310.496 207.439 305.622C211.033 298.921 208.657 289.417 201.042 284.3C190.929 280.766 179.903 277.477 168.023 274.735C134.029 266.876 103.447 265.78 78.8963 267.12C79.2009 284.361 79.5055 301.601 79.8101 318.903Z" fill="#9200FF"/>
<path d="M99.9746 298.617C105.275 299.957 110.818 301.297 116.667 302.394C125.257 304.099 134.456 305.561 144.264 306.536C145.117 306.658 145.97 306.78 146.823 306.841C173.749 309.46 197.143 308.181 215.48 305.988C218.77 305.622 240.458 303.186 241.311 296.058C242.042 290.149 228.03 283.935 220.658 280.767C205.977 274.431 182.157 266.877 145.848 264.866C137.928 264.44 129.46 264.318 120.322 264.501C118.921 265.598 117.459 266.633 116.058 267.73C109.052 273.03 101.985 278.269 94.9181 283.508C94.7354 288.991 96.563 294.23 99.9746 298.617Z" fill="black"/>
<path d="M99.9749 298.616C103.874 303.612 109.783 307.572 116.789 309.582C119.47 310.252 122.211 310.739 125.196 310.922C132.263 311.227 138.842 309.582 144.264 306.536C152.123 302.211 157.423 294.9 157.789 286.432C158.215 277.842 153.463 269.923 145.848 264.866C142.376 262.49 138.233 260.785 133.725 259.81C131.776 259.383 129.643 259.079 127.511 259.018C123.368 258.774 119.47 259.322 115.814 260.297C103.996 263.526 95.345 272.481 94.8576 283.447C94.7357 288.991 96.5634 294.23 99.9749 298.616Z" fill="black"/>
<path d="M116.851 312.08C154.622 310.252 192.331 308.485 230.102 306.658C236.194 306.658 241.86 303.673 244.479 298.799C248.074 292.098 245.698 282.594 238.083 277.477C227.97 273.943 216.943 270.654 205.064 267.912C171.07 260.054 140.488 258.957 115.937 260.297C116.241 277.538 116.546 294.778 116.851 312.08Z" fill="#9200FF"/>
<path d="M248.681 439.283C227.785 439.344 206.89 439.405 186.055 439.465C185.446 437.09 184.958 433.617 186.42 429.84C186.969 428.439 187.578 427.464 187.882 426.977C189.527 424.357 191.477 419.849 192.573 411.99C196.35 411.564 200.128 411.137 203.905 410.711C218.221 430.023 226.384 433.861 231.136 433.617C234.548 433.434 237.776 435.323 241.188 435.323C243.381 435.323 246.062 435.14 247.585 436.846C248.377 437.577 248.62 438.552 248.681 439.283Z" fill="#FFBAB8"/>
<path d="M208.961 420.641C204.514 420.824 200.067 420.945 195.619 421.128C195.559 417.778 195.376 412.66 194.827 406.385C192.025 373.976 184.654 362.705 185.141 343.515C185.324 334.986 187.151 322.254 195.498 306.78C203.539 305.135 211.52 303.49 219.561 301.846C217.307 315.126 215.358 329.016 213.713 343.515C210.606 371.051 209.205 396.821 208.961 420.641Z" fill="#FFBAB8"/>
<path d="M189.589 419.361C196.595 419.605 203.601 419.849 210.607 420.032C215.48 379.093 220.354 338.215 225.288 297.276C224.74 295.571 221.999 287.285 214.384 284.178C205.306 280.462 192.635 285.397 186.055 297.398C184.228 310.496 182.949 324.873 182.644 340.469C182.096 370.808 185.324 397.491 189.589 419.361Z" fill="#9200FF"/>
<path d="M300.343 435.993C280.666 436.054 261.05 436.115 241.372 436.176C240.824 433.983 240.337 430.632 241.677 427.099C242.164 425.758 242.773 424.845 243.078 424.418C244.662 421.92 246.49 417.717 247.464 410.284C250.998 409.858 254.592 409.492 258.186 409.066C271.711 427.22 279.326 430.876 283.834 430.632C287.002 430.449 290.109 432.216 293.277 432.216C295.348 432.216 297.846 432.033 299.308 433.678C299.978 434.409 300.222 435.323 300.343 435.993Z" fill="#FFBAB8"/>
<path d="M262.574 417.107C258.309 418.447 254.106 419.788 249.841 421.128C248.866 417.96 247.343 413.025 245.15 407.116C233.819 376.656 223.706 367.7 219.076 349.12C217.005 340.834 215.36 328.102 219.259 310.922C226.569 307.206 233.88 303.49 241.129 299.774C242.531 313.176 244.297 327.066 246.612 341.505C250.938 368.858 256.481 394.079 262.574 417.107Z" fill="#FFBAB8"/>
<path d="M243.627 421.007C250.45 419.362 257.273 417.717 264.096 416.072C257.943 375.316 251.729 334.621 245.576 293.865C244.601 292.342 239.728 285.093 231.564 284.118C221.817 282.96 210.912 291.063 207.805 304.404C209.572 317.502 212.131 331.758 216.029 346.866C223.401 376.23 233.636 401.085 243.627 421.007Z" fill="#9200FF"/>
<path d="M91.0176 257.008C97.597 260.846 111.426 267.791 130.25 268.522C147.186 269.192 160.284 264.562 167.168 261.577C173.992 241.96 180.205 218.993 184.043 193.041C185.445 183.476 186.419 174.338 187.029 165.566C187.333 160.753 187.029 153.138 182.886 145.706C172.651 127.368 144.567 120.241 124.037 129.805C109.598 136.506 103.019 149.665 100.704 154.965C97.4752 189.02 94.2464 223.014 91.0176 257.008Z" fill="#F47300"/>
<path d="M199.276 245.676C197.144 249.758 195.073 253.9 192.94 257.982C184.229 255.545 176.979 253.961 171.862 253.048C152.855 249.453 143.29 250.062 134.03 242.691C130.314 239.767 127.938 236.538 126.476 234.345C128.913 228.253 131.41 222.1 133.847 216.008C140.549 217.775 145.605 219.785 148.834 221.247C166.501 229.106 172.532 238.244 189.651 243.483C193.854 244.701 197.266 245.372 199.276 245.676Z" fill="#FFBAB8"/>
<path d="M162.478 134.191L129.947 130.597C132.688 117.621 135.369 104.706 138.11 91.7296L163.819 94.5929C163.027 96.3596 162.174 98.6136 161.382 101.355C160.163 105.62 159.189 110.981 159.25 117.134C159.25 118.108 159.311 119.144 159.371 120.058C159.859 125.967 161.199 130.78 162.478 134.191Z" fill="#FFBAB8"/>
<path d="M159.434 120.058C159.251 120.058 159.068 120.058 158.885 120.058C153.341 119.449 149.625 112.26 150.539 103.975C150.661 102.695 150.905 101.416 151.27 100.259L161.383 101.355C160.165 105.62 159.19 110.981 159.251 117.134C159.312 118.108 159.373 119.144 159.434 120.058Z" fill="black"/>
<path d="M174.116 76.5611L174.238 77.1094C174.725 79.1807 174.969 80.5209 175.09 81.5566C175.395 83.3842 175.273 83.7497 175.578 84.9072C176.065 86.7348 176.613 87.1613 177.162 88.8061C177.71 90.3291 177.771 91.6085 177.832 93.1924C178.197 101.417 178.38 105.559 176.37 108.727C171.131 116.891 153.768 114.454 147.433 110.555C144.447 108.727 142.071 106.229 142.071 106.229C140.731 104.706 139.635 103.244 138.904 102.026C137.259 99.1017 135.431 95.2028 134.152 90.5119C131.959 82.5313 132.202 75.5254 132.69 71.0173C134.822 68.7632 140.975 62.9148 150.966 60.9045C160.104 59.0768 167.414 61.4528 170.339 62.5493C171.313 65.7172 172.41 69.4943 173.446 73.8806C173.689 74.7335 173.933 75.6473 174.116 76.5611Z" fill="#FFBAB8"/>
<path d="M161.627 134.192H164.794V126.881C163.028 126.333 161.261 125.724 159.494 125.176C160.225 128.161 160.896 131.207 161.627 134.192Z" fill="#FEFDFF"/>
<path d="M150.114 138.212H159.069C160.349 137.116 161.689 135.958 162.968 134.862C158.826 128.648 154.44 125.297 152.064 126.333C151.515 126.577 150.541 127.247 150.053 129.805C150.114 132.608 150.114 135.41 150.114 138.212Z" fill="#F47300"/>
<path d="M120.018 131.267C131.532 132.547 142.985 133.826 154.499 135.105C154.56 132.912 154.621 130.719 154.743 128.526C157.911 130.963 161.079 133.4 164.186 135.775C160.957 131.816 157.728 127.856 154.499 123.896C147.067 122.678 139.574 121.52 132.141 120.302C128.121 123.896 124.1 127.612 120.018 131.267Z" fill="#FEFDFF"/>
<path d="M241.675 436.968H306.312C305.033 433.861 302.962 430.449 299.428 428.256C294.555 425.271 290.351 426.733 282.553 424.905C278.837 424.052 274.816 422.59 270.552 420.032C269.76 416.194 267.871 413.879 266.47 414.061C265.313 414.183 264.582 415.95 264.277 416.681C262.998 418.569 259.708 422.895 253.738 425.697C248.255 428.195 243.32 428.134 241.005 427.89C240.701 428.865 240.396 430.388 240.518 432.338C240.579 434.47 241.188 436.054 241.675 436.968Z" fill="#BDD5FF"/>
<path d="M184.717 439.404H253.436C252.095 436.114 249.902 432.459 246.125 430.144C240.947 426.976 236.5 428.56 228.154 426.611C224.255 425.697 219.929 424.113 215.36 421.433C214.507 417.351 212.497 414.914 211.035 415.097C209.817 415.219 209.025 417.107 208.72 417.899C207.38 419.909 203.907 424.54 197.511 427.464C191.723 430.144 186.484 430.022 183.986 429.84C183.682 430.875 183.316 432.52 183.438 434.53C183.621 436.724 184.291 438.429 184.717 439.404Z" fill="#BDD5FF"/>
<path d="M219.5 357.892C219.013 357.831 218.708 357.466 218.769 357.039L226.14 297.337C226.201 296.911 226.506 296.606 226.993 296.667C227.42 296.728 227.724 297.094 227.663 297.52L220.292 357.222C220.231 357.588 219.927 357.892 219.5 357.892Z" fill="#9200FF"/>
<path d="M225.29 293.499C224.924 293.499 224.62 293.255 224.559 292.951L222.488 285.153C222.366 284.726 222.609 284.361 223.036 284.239C223.401 284.117 223.828 284.361 223.95 284.787L226.021 292.585C226.143 293.011 225.899 293.377 225.473 293.499C225.412 293.499 225.351 293.499 225.29 293.499Z" fill="#9200FF"/>
<path d="M221.145 282.168C220.962 282.168 161.565 266.45 161.565 266.45C161.138 266.329 160.895 265.902 161.016 265.537C161.138 265.11 161.565 264.867 161.93 264.988L221.328 280.645C221.754 280.767 221.998 281.193 221.876 281.559C221.754 281.985 221.45 282.168 221.145 282.168Z" fill="#9200FF"/>
<path d="M167.149 66.3883C173.553 63.1705 177.263 57.6129 175.435 53.9749C173.607 50.337 166.934 49.9964 160.53 53.2141C154.126 56.4319 150.416 61.9895 152.244 65.6275C154.072 69.2654 160.745 69.6061 167.149 66.3883Z" fill="black"/>
<path d="M141.949 66.1434C143.777 69.7987 150.478 70.1642 156.875 66.9354C163.271 63.7066 166.987 58.1628 165.16 54.5076C163.332 50.8523 156.631 50.4868 150.234 53.7156C143.837 56.9444 140.121 62.4882 141.949 66.1434Z" fill="black"/>
<path d="M134.396 72.4791C136.223 76.1343 142.924 76.4999 149.321 73.2711C155.718 70.0423 159.434 64.4985 157.606 60.8433C155.779 57.188 149.077 56.8225 142.681 60.0513C136.284 63.2801 132.568 68.8239 134.396 72.4791Z" fill="black"/>
<path d="M133.115 72.9665C136.161 75.7079 142.496 73.5757 147.309 68.2756C152.122 62.9146 153.523 56.3961 150.477 53.6546C147.431 50.9132 141.095 53.0454 136.282 58.3455C131.47 63.7065 130.069 70.2251 133.115 72.9665Z" fill="black"/>
<path d="M125.257 80.6423C125.622 81.9217 126.049 82.6527 127.998 85.8815C130.13 89.2931 133.116 93.984 137.014 99.6496C135.857 92.8874 135.431 87.4655 136.71 87.039C138.172 86.5517 141.401 92.461 141.949 92.0954C142.68 91.669 135.674 82.0435 139.025 76.5607C139.817 75.2204 140.426 75.4641 141.949 73.8192C145.97 69.5548 147.858 61.6351 145.117 59.1983C142.375 56.7615 135.065 60.0512 130.922 63.8892C126.719 67.9709 123.673 74.6721 125.257 80.6423Z" fill="black"/>
<path d="M173.751 209.124C173.325 209.124 173.02 208.758 173.02 208.393V204.494C173.02 204.067 173.386 203.763 173.751 203.763C174.178 203.763 174.482 204.128 174.482 204.494V208.393C174.482 208.758 174.178 209.124 173.751 209.124Z" fill="black"/>
<path d="M172.774 194.32C172.286 194.259 171.982 193.894 172.043 193.467L174.358 165.687C174.419 165.322 174.723 165.017 175.089 165.017C175.576 165.078 175.881 165.444 175.82 165.87L173.505 193.65C173.505 194.016 173.2 194.32 172.774 194.32Z" fill="black"/>
<path d="M174.908 168.977C174.542 168.977 174.238 168.733 174.177 168.429L167.415 141.38C167.293 140.954 167.537 140.588 167.963 140.466C168.328 140.344 168.755 140.588 168.877 141.015L175.639 168.063C175.761 168.49 175.517 168.855 175.091 168.977C175.03 168.977 174.969 168.977 174.908 168.977Z" fill="black"/>
<path d="M170.096 232.64C169.487 232.457 169.243 232.091 169.365 231.665L174.665 214.12C174.787 213.693 175.213 213.511 175.64 213.632C176.066 213.754 176.249 214.181 176.127 214.607L170.827 232.152C170.705 232.396 170.401 232.64 170.096 232.64Z" fill="black"/>
<path d="M112.707 228.314C116.301 230.02 119.895 231.665 123.49 233.371C123.429 234.224 123.429 236.173 124.586 238.123C126.962 241.9 131.714 241.9 132.019 241.9C135.43 232.274 138.781 222.649 142.192 213.023C143.228 195.478 144.325 177.994 145.36 160.449C146.213 140.771 132.262 128.1 122.149 129.196C114.108 130.049 106.006 139.918 104.422 153.077C107.224 178.116 109.965 203.215 112.707 228.314Z" fill="#F47300"/>
<path d="M111.612 228.071C115.145 230.142 118.678 232.214 122.151 234.224C122.455 236.234 122.821 238.184 123.126 240.194C126.415 241.291 129.644 242.387 132.934 243.484C136.224 234.163 139.452 224.842 142.742 215.521C141.341 213.938 139.879 212.354 138.478 210.77C129.461 216.557 120.506 222.345 111.612 228.071Z" fill="#FEFDFF"/>
<path d="M139.146 210.099C138.659 210.038 138.354 209.673 138.415 209.246L140.242 187.924C140.303 187.498 140.669 187.193 141.095 187.254C141.522 187.315 141.826 187.68 141.765 188.107L139.938 209.429C139.877 209.795 139.511 210.099 139.146 210.099Z" fill="black"/>
<path d="M108.687 225.817C108.322 225.817 107.956 225.512 107.956 225.085L103.509 169.221C103.509 168.795 103.814 168.429 104.24 168.429C104.606 168.368 105.032 168.734 105.032 169.16L109.479 225.025C109.479 225.451 109.114 225.817 108.687 225.817Z" fill="black"/>
<path d="M120.81 238.244C120.627 238.244 120.505 238.183 120.322 238.061C120.018 237.818 119.896 237.33 120.2 236.965L134.517 218.262C134.76 217.896 135.248 217.896 135.613 218.14C135.918 218.384 136.04 218.871 135.735 219.237L121.419 237.939C121.236 238.122 120.992 238.244 120.81 238.244Z" fill="black"/>
<path d="M166.928 271.872H253.009L283.652 208.515H197.571L166.928 271.872Z" fill="black"/>
<path d="M146.883 276.137H253.006V271.873C225.287 268.095 197.569 264.318 169.85 260.48C158.945 261.029 147.979 261.638 137.074 262.186C140.364 266.877 143.654 271.507 146.883 276.137Z" fill="black"/>
<path d="M4.93865 255.972C14.625 245.067 37.2266 243.971 53.2487 243.24C63.2397 242.752 129.46 239.706 151.757 275.406C164.734 296.119 158.276 322.558 136.954 343.271C111.367 344.185 85.7804 345.099 60.1937 346.074C10.3606 310.009 -10.3524 273.152 4.93865 255.972Z" fill="white"/>
<path d="M249.779 272.603H158.459C158.032 272.603 157.728 272.238 157.728 271.872C157.728 271.446 158.093 271.141 158.459 271.141H249.779C250.205 271.141 250.51 271.507 250.51 271.872C250.51 272.299 250.144 272.603 249.779 272.603Z" fill="#9200FF"/>
<path d="M129.662 427.262H142.089V348.43H129.662V427.262Z" fill="black"/>
<path d="M22.5443 247.443C22.1788 247.443 21.8742 247.199 21.8133 246.834C21.6915 246.408 21.9961 246.042 22.3616 245.92C34.1193 243.24 46.1816 241.717 58.2439 241.473C69.5142 241.229 80.7845 242.082 91.933 243.971C92.3594 244.032 92.6031 244.458 92.5422 244.824C92.4813 245.25 92.1158 245.494 91.6893 245.433C80.6627 243.544 69.3923 242.752 58.3048 242.935C46.3643 243.179 34.4239 244.641 22.7271 247.321C22.6662 247.443 22.6053 247.443 22.5443 247.443Z" fill="black"/>
</svg>
