<svg width="568" height="351" viewBox="0 0 568 351" fill="none" xmlns="http://www.w3.org/2000/svg">
<path opacity="0.3" d="M297.105 247.534H333.346L472.617 167.049L350.351 94.9514L263.018 142.965L297.105 247.534Z" fill="#D9CDC1"/>
<path d="M164.067 136.193L170.53 132.423L179.302 137.501L172.838 141.272L164.067 136.193Z" fill="#EDECF8"/>
<path d="M180.687 133.422L187.15 129.652L180.533 140.501L173.992 144.271L180.687 133.422Z" fill="#BFBEED"/>
<path d="M195.999 140.04L202.462 136.27V138.501L195.999 142.272V140.04Z" fill="#98A4E0"/>
<path d="M179.456 130.422L185.919 126.652L202.462 136.27L195.999 140.041L179.456 130.422Z" fill="#EDECF8"/>
<path d="M195.999 140.04V142.272L180.687 133.423L173.993 144.272L163.99 138.501L164.067 136.193L172.838 141.271L179.456 130.422L195.999 140.04Z" fill="#98A4E0"/>
<path d="M188.151 122.496L194.614 118.726L203.386 123.804L196.922 127.575L188.151 122.496Z" fill="#EDECF8"/>
<path d="M204.771 119.649L211.234 115.878L204.617 126.728L198.077 130.498L204.771 119.649Z" fill="#BFBEED"/>
<path d="M220.083 126.267L226.546 122.497V124.728L220.083 128.498V126.267Z" fill="#98A4E0"/>
<path d="M203.54 116.726L210.08 112.955L226.546 122.497L220.083 126.267L203.54 116.726Z" fill="#EDECF8"/>
<path d="M220.083 126.267V128.498L204.771 119.65L198.076 130.499L188.151 124.728V122.497L196.922 127.575L203.54 116.726L220.083 126.267Z" fill="#98A4E0"/>
<path d="M211.234 108.723L217.698 104.953L226.469 110.031L220.006 113.801L211.234 108.723Z" fill="#EDECF8"/>
<path d="M227.854 105.952L234.318 102.182L227.701 113.031L221.16 116.801L227.854 105.952Z" fill="#BFBEED"/>
<path d="M243.166 112.57L249.63 108.8V111.031L243.166 114.802V112.57Z" fill="#98A4E0"/>
<path d="M226.623 102.952L233.164 99.1819L249.63 108.8L243.166 112.57L226.623 102.952Z" fill="#EDECF8"/>
<path d="M243.166 112.57V114.801L227.854 105.953L221.16 116.802L211.234 111.031V108.723L220.006 113.801L226.623 102.952L243.166 112.57Z" fill="#98A4E0"/>
<path d="M140.214 151.12L146.677 147.35L155.526 152.428L148.985 156.198L140.214 151.12Z" fill="#EDECF8"/>
<path d="M156.834 148.349L163.297 144.579L156.68 155.428L150.216 159.198L156.834 148.349Z" fill="#BFBEED"/>
<path d="M172.146 154.968L178.686 151.197V153.429L172.146 157.199V154.968Z" fill="#98A4E0"/>
<path d="M155.68 145.349L162.143 141.579L178.686 151.197L172.146 154.967L155.68 145.349Z" fill="#EDECF8"/>
<path d="M172.146 154.967V157.198L156.834 148.35L150.216 159.199L140.214 153.428V151.12L148.985 156.198L155.68 145.349L172.146 154.967Z" fill="#98A4E0"/>
<path d="M236.857 94.2581L243.32 90.4878L252.169 95.5662L245.629 99.3365L236.857 94.2581Z" fill="#EDECF8"/>
<path d="M253.477 91.4102L259.94 87.6399L253.323 98.4892L246.86 102.259L253.477 91.4102Z" fill="#BFBEED"/>
<path d="M268.866 98.0288L275.329 94.2585V96.4899L268.789 100.26L268.866 98.0288Z" fill="#98A4E0"/>
<path d="M252.323 88.4874L258.786 84.717L275.329 94.2583L268.866 98.0286L252.323 88.4874Z" fill="#EDECF8"/>
<path d="M268.866 98.0285L268.789 100.26L253.477 91.4112L246.86 102.26L236.857 96.4896V94.2582L245.629 99.3366L252.323 88.4873L268.866 98.0285Z" fill="#98A4E0"/>
<path d="M261.479 80.2539L268.02 76.4836L276.791 81.562L270.328 85.3323L261.479 80.2539Z" fill="#EDECF8"/>
<path d="M278.099 77.4056L284.64 73.6353L278.023 84.4845L271.482 88.2548L278.099 77.4056Z" fill="#BFBEED"/>
<path d="M293.489 84.0242L299.952 80.2539V82.4853L293.489 86.2557V84.0242Z" fill="#98A4E0"/>
<path d="M276.945 74.4829L283.409 70.7126L299.952 80.2538L293.489 84.0242L276.945 74.4829Z" fill="#EDECF8"/>
<path d="M293.489 84.0239V86.2553L278.1 77.4066L271.482 88.2559L261.479 82.485V80.2536L270.328 85.3319L276.945 74.4827L293.489 84.0239Z" fill="#98A4E0"/>
<path d="M428.143 136.578L421.603 132.808L412.831 137.886L419.294 141.657L428.143 136.578Z" fill="#EDECF8"/>
<path d="M411.523 133.73L404.982 129.96L411.677 140.809L418.14 144.58L411.523 133.73Z" fill="#BFBEED"/>
<path d="M396.134 140.348L389.67 136.578V138.81L396.134 142.58V140.348Z" fill="#98A4E0"/>
<path d="M412.677 130.807L406.213 127.037L389.67 136.578L396.134 140.348L412.677 130.807Z" fill="#EDECF8"/>
<path d="M396.134 140.348V142.58L411.523 133.731L418.14 144.58L428.143 138.809V136.578L419.294 141.656L412.677 130.807L396.134 140.348Z" fill="#98A4E0"/>
<path d="M403.982 122.805L397.519 119.034L388.747 124.113L395.21 127.883L403.982 122.805Z" fill="#EDECF8"/>
<path d="M387.362 120.034L380.898 116.264L387.516 127.113L394.056 130.883L387.362 120.034Z" fill="#BFBEED"/>
<path d="M372.05 126.652L365.586 122.882V125.113L372.05 128.883V126.652Z" fill="#98A4E0"/>
<path d="M388.593 117.034L382.13 113.264L365.586 122.882L372.05 126.652L388.593 117.034Z" fill="#EDECF8"/>
<path d="M372.05 126.652V128.883L387.362 120.035L394.056 130.884L404.059 125.113L403.982 122.805L395.21 127.883L388.593 117.034L372.05 126.652Z" fill="#98A4E0"/>
<path d="M380.975 109.108L374.435 105.338L365.663 110.416L372.127 114.187L380.975 109.108Z" fill="#EDECF8"/>
<path d="M364.355 106.261L357.815 102.49L364.509 113.34L370.972 117.11L364.355 106.261Z" fill="#BFBEED"/>
<path d="M348.966 112.878L342.503 109.108V111.34L348.966 115.11V112.878Z" fill="#98A4E0"/>
<path d="M365.509 103.337L359.046 99.5671L342.503 109.108L348.966 112.879L365.509 103.337Z" fill="#EDECF8"/>
<path d="M348.966 112.879V115.11L364.355 106.261L370.972 117.111L380.975 111.34V109.108L372.127 114.187L365.509 103.337L348.966 112.879Z" fill="#98A4E0"/>
<path d="M451.919 151.505L445.455 147.735L436.684 152.813L443.147 156.584L451.919 151.505Z" fill="#EDECF8"/>
<path d="M435.299 148.657L428.835 144.887L435.453 155.736L441.916 159.507L435.299 148.657Z" fill="#BFBEED"/>
<path d="M419.987 155.275L413.446 151.505L413.523 153.736L419.987 157.507V155.275Z" fill="#98A4E0"/>
<path d="M436.53 145.734L429.99 141.964L413.446 151.505L419.987 155.276L436.53 145.734Z" fill="#EDECF8"/>
<path d="M419.987 155.275V157.507L435.299 148.658L441.916 159.507L451.919 153.736V151.505L443.147 156.583L436.53 145.734L419.987 155.275Z" fill="#98A4E0"/>
<path d="M355.275 94.5664L348.812 90.7961L340.04 95.8745L346.504 99.6448L355.275 94.5664Z" fill="#EDECF8"/>
<path d="M338.655 91.7954L332.192 88.0251L338.809 98.8744L345.272 102.645L338.655 91.7954Z" fill="#BFBEED"/>
<path d="M323.343 98.3365L316.803 94.5662V96.8745L323.343 100.645V98.3365Z" fill="#98A4E0"/>
<path d="M339.886 88.7954L333.346 85.0251L316.803 94.5663L323.343 98.3367L339.886 88.7954Z" fill="#EDECF8"/>
<path d="M323.343 98.3366V100.645L338.655 91.7963L345.273 102.646L355.275 96.8747V94.5663L346.504 99.6447L339.886 88.7954L323.343 98.3366Z" fill="#98A4E0"/>
<path d="M330.653 80.5616L324.113 76.7913L315.341 81.8696L321.804 85.6399L330.653 80.5616Z" fill="#EDECF8"/>
<path d="M314.033 77.7908L307.492 74.0205L314.187 84.8698L320.65 88.6401L314.033 77.7908Z" fill="#BFBEED"/>
<path d="M298.644 84.4092L292.18 80.6389V82.8703L298.644 86.6406V84.4092Z" fill="#98A4E0"/>
<path d="M315.187 74.868L308.724 71.0977L292.18 80.6389L298.644 84.4092L315.187 74.868Z" fill="#EDECF8"/>
<path d="M298.644 84.4091V86.6405L314.033 77.7918L320.65 88.6411L330.653 82.8702V80.5619L321.804 85.6402L315.187 74.8679L298.644 84.4091Z" fill="#98A4E0"/>
<path d="M436.145 151.197V166.74L297.105 247.533L297.182 231.99L436.145 151.197Z" fill="#1F0159"/>
<path d="M297.182 231.99L297.105 247.533L157.141 166.74L157.218 151.197L297.182 231.99Z" fill="#4F389E"/>
<path d="M436.145 151.197L297.181 231.989L157.218 151.197L296.258 70.4043L436.145 151.197Z" fill="#F47300"/>
<path d="M402.828 147.273V155.044L297.028 216.523V208.752L402.828 147.273Z" fill="#DDDEFA"/>
<path d="M297.028 208.752V216.523L190.459 155.044L190.536 147.273L297.028 208.752Z" fill="#CCCBF6"/>
<path d="M402.828 147.273L297.028 208.752L190.536 147.273L296.335 85.7937L402.828 147.273Z" fill="white"/>
<path d="M145.754 191.286L139.29 187.516L145.831 169.049L152.371 172.819L145.754 191.286Z" fill="#CCCBF6"/>
<path d="M152.371 172.819L145.83 169.049L162.374 159.508L168.837 163.278L152.371 172.819Z" fill="#EDECF8"/>
<path d="M136.982 196.364L130.518 192.593L139.29 187.515L145.753 191.285L136.982 196.364Z" fill="#EDECF8"/>
<path d="M136.982 198.596L130.518 194.826V192.594L136.982 196.365V198.596Z" fill="#BFBEED"/>
<path d="M168.837 163.278L168.914 165.509L153.525 174.358L146.985 192.825L136.982 198.596V196.365L145.753 191.286L152.371 172.819L168.837 163.278Z" fill="#98A4E0"/>
<path d="M170.145 205.213L163.682 201.443L170.222 183.053L176.763 186.824L170.145 205.213Z" fill="#CCCBF6"/>
<path d="M176.762 186.824L170.222 183.054L186.765 173.512L193.229 177.283L176.762 186.824Z" fill="#EDECF8"/>
<path d="M161.373 210.368L154.91 206.597L163.682 201.442L170.145 205.212L161.373 210.368Z" fill="#EDECF8"/>
<path d="M161.373 212.601L154.91 208.83V206.599L161.373 210.369V212.601Z" fill="#BFBEED"/>
<path d="M193.229 177.282L193.306 179.514L177.917 188.363L171.376 206.829L161.373 212.6V210.369L170.145 205.214L176.762 186.824L193.229 177.282Z" fill="#98A4E0"/>
<path d="M194.383 219.37L187.919 215.6L194.46 197.133L200.923 200.903L194.383 219.37Z" fill="#CCCBF6"/>
<path d="M200.923 200.903L194.46 197.133L211.003 187.592L217.466 191.362L200.923 200.903Z" fill="#EDECF8"/>
<path d="M185.611 224.448L179.071 220.678L187.92 215.599L194.383 219.37L185.611 224.448Z" fill="#EDECF8"/>
<path d="M185.611 226.68L179.071 222.91V220.679L185.611 224.449V226.68Z" fill="#BFBEED"/>
<path d="M217.467 191.362V193.593L202.154 202.442L195.537 220.909L185.611 226.68V224.449L194.383 219.37L200.923 200.903L217.467 191.362Z" fill="#98A4E0"/>
<path d="M218.544 233.375L212.08 229.604L218.621 211.137L225.084 214.908L218.544 233.375Z" fill="#CCCBF6"/>
<path d="M225.084 214.908L218.62 211.138L235.164 201.597L241.627 205.367L225.084 214.908Z" fill="#EDECF8"/>
<path d="M209.772 238.452L203.308 234.682L212.08 229.604L218.544 233.374L209.772 238.452Z" fill="#EDECF8"/>
<path d="M209.772 240.685L203.308 236.915V234.683L209.772 238.454V240.685Z" fill="#BFBEED"/>
<path d="M241.627 205.367V207.598L226.315 216.447L219.775 234.914L209.772 240.685V238.453L218.544 233.375L225.084 214.908L241.627 205.367Z" fill="#98A4E0"/>
<path d="M243.089 247.303L236.549 243.532L243.166 225.065L249.63 228.836L243.089 247.303Z" fill="#CCCBF6"/>
<path d="M249.63 228.835L243.166 225.065L259.633 215.524L266.173 219.294L249.63 228.835Z" fill="#EDECF8"/>
<path d="M234.241 252.38L227.777 248.61L236.549 243.531L243.089 247.302L234.241 252.38Z" fill="#EDECF8"/>
<path d="M234.241 254.613L227.777 250.842V248.611L234.241 252.381V254.613Z" fill="#BFBEED"/>
<path d="M266.173 219.294V221.525L250.784 230.374L244.243 248.841L234.241 254.612V252.38L243.089 247.302L249.63 228.835L266.173 219.294Z" fill="#98A4E0"/>
<path d="M267.096 261.307L260.633 257.537L267.173 239.07L273.637 242.84L267.096 261.307Z" fill="#CCCBF6"/>
<path d="M273.637 242.84L267.173 239.07L283.716 229.529L290.18 233.299L273.637 242.84Z" fill="#EDECF8"/>
<path d="M258.248 266.385L251.784 262.615L260.633 257.536L267.096 261.306L258.248 266.385Z" fill="#EDECF8"/>
<path d="M258.325 268.617L251.784 264.847V262.615L258.248 266.386L258.325 268.617Z" fill="#BFBEED"/>
<path d="M290.18 233.299V235.53L274.868 244.379L268.25 262.846L258.324 268.617L258.248 266.385L267.096 261.307L273.637 242.84L290.18 233.299Z" fill="#98A4E0"/>
<path d="M448.071 191.517L454.535 187.747L447.995 169.28L441.531 173.05L448.071 191.517Z" fill="#CCCBF6"/>
<path d="M441.531 173.05L447.995 169.28L431.451 159.739L424.988 163.509L441.531 173.05Z" fill="#EDECF8"/>
<path d="M456.843 196.595L463.384 192.824L454.535 187.746L448.072 191.516L456.843 196.595Z" fill="#EDECF8"/>
<path d="M456.843 198.904L463.384 195.134V192.826L456.843 196.596V198.904Z" fill="#BFBEED"/>
<path d="M424.988 163.509V165.817L440.3 174.666L446.84 193.133L456.843 198.904V196.595L448.071 191.517L441.531 173.05L424.988 163.509Z" fill="#98A4E0"/>
<path d="M423.68 205.522L430.143 201.751L423.603 183.284L417.139 187.055L423.68 205.522Z" fill="#CCCBF6"/>
<path d="M417.14 187.055L423.603 183.284L407.06 173.743L400.596 177.513L417.14 187.055Z" fill="#EDECF8"/>
<path d="M432.452 210.599L438.992 206.829L430.143 201.75L423.68 205.521L432.452 210.599Z" fill="#EDECF8"/>
<path d="M432.452 212.832L438.992 209.061V206.83L432.452 210.6V212.832Z" fill="#BFBEED"/>
<path d="M400.596 177.514V179.745L415.908 188.594L422.449 207.061L432.452 212.832V210.6L423.68 205.522L417.14 187.055L400.596 177.514Z" fill="#98A4E0"/>
<path d="M399.519 219.601L405.983 215.831L399.442 197.364L392.902 201.135L399.519 219.601Z" fill="#CCCBF6"/>
<path d="M392.902 201.134L399.442 197.364L382.899 187.823L376.359 191.593L392.902 201.134Z" fill="#EDECF8"/>
<path d="M408.291 224.679L414.754 220.909L405.983 215.83L399.519 219.601L408.291 224.679Z" fill="#EDECF8"/>
<path d="M408.291 226.912L414.754 223.141V220.91L408.291 224.68V226.912Z" fill="#BFBEED"/>
<path d="M376.359 191.593V193.825L391.748 202.75L398.288 221.14L408.291 226.911V224.68L399.519 219.601L392.902 201.134L376.359 191.593Z" fill="#98A4E0"/>
<path d="M375.281 233.606L381.745 229.835L375.204 211.368L368.741 215.139L375.281 233.606Z" fill="#CCCBF6"/>
<path d="M368.741 215.139L375.204 211.369L358.661 201.827L352.198 205.598L368.741 215.139Z" fill="#EDECF8"/>
<path d="M384.13 238.684L390.593 234.913L381.745 229.835L375.281 233.605L384.13 238.684Z" fill="#EDECF8"/>
<path d="M384.053 240.916L390.593 237.146V234.914L384.13 238.685L384.053 240.916Z" fill="#BFBEED"/>
<path d="M352.198 205.598V207.829L367.51 216.755L374.127 235.145L384.053 240.916L384.13 238.684L375.281 233.606L368.741 215.139L352.198 205.598Z" fill="#98A4E0"/>
<path d="M350.813 247.534L357.276 243.763L350.736 225.296L344.272 229.067L350.813 247.534Z" fill="#CCCBF6"/>
<path d="M344.272 229.067L350.736 225.296L334.193 215.755L327.729 219.525L344.272 229.067Z" fill="#EDECF8"/>
<path d="M359.585 252.611L366.125 248.841L357.276 243.762L350.813 247.533L359.585 252.611Z" fill="#EDECF8"/>
<path d="M359.584 254.844L366.048 251.073L366.125 248.842L359.584 252.612V254.844Z" fill="#BFBEED"/>
<path d="M327.729 219.526V221.757L343.041 230.606L349.582 249.073L359.584 254.844V252.612L350.813 247.534L344.272 229.067L327.729 219.526Z" fill="#98A4E0"/>
<path d="M326.806 261.538L333.269 257.768L326.729 239.301L320.188 243.071L326.806 261.538Z" fill="#CCCBF6"/>
<path d="M320.189 243.071L326.729 239.301L310.186 229.76L303.645 233.53L320.189 243.071Z" fill="#EDECF8"/>
<path d="M335.578 266.616L342.041 262.845L333.269 257.767L326.806 261.537L335.578 266.616Z" fill="#EDECF8"/>
<path d="M335.578 268.848L342.041 265.078V262.846L335.578 266.617V268.848Z" fill="#BFBEED"/>
<path d="M303.645 233.53V235.762L319.034 244.687L325.575 263.077L335.578 268.848V266.617L326.806 261.538L320.189 243.071L303.645 233.53Z" fill="#98A4E0"/>
<path d="M227.239 147.273L232.471 150.274L296.412 187.207V107.03L227.239 147.273Z" fill="#DDDEFA"/>
<path d="M296.412 107.03V187.207L296.874 187.515L360.892 150.274L366.125 147.273L296.412 107.03Z" fill="#CCCBF6"/>
<path d="M360.893 150.274L296.874 187.515L232.471 150.274L296.412 113.109L360.893 150.274Z" fill="#F47300"/>
<path d="M360.893 150.274L296.874 187.515L232.471 150.274L296.412 113.109L360.893 150.274Z" fill="#F47300"/>
<path d="M331.269 144.735V148.659L323.651 153.045V149.198L331.269 144.735Z" fill="#DDDEFA"/>
<path d="M323.651 149.198V153.045L289.718 133.424V129.577L323.651 149.198Z" fill="#CCCBF6"/>
<path d="M331.269 144.735L323.651 149.197L289.718 129.576L297.336 125.114L331.269 144.735Z" fill="#F8F9FC"/>
<path d="M293.488 151.121V154.968C291.488 154.429 289.564 153.891 287.794 153.429C285.948 152.968 284.255 152.506 282.716 152.121C281.177 151.736 279.792 151.352 278.638 151.121C277.484 150.813 276.56 150.582 275.868 150.428V146.581C276.56 146.735 277.484 146.966 278.638 147.274C279.792 147.581 281.177 147.889 282.716 148.274C284.255 148.659 285.948 149.12 287.794 149.582C289.564 150.121 291.488 150.582 293.488 151.121Z" fill="#4F389E"/>
<mask id="mask0_332_3" style="mask-type:luminance" maskUnits="userSpaceOnUse" x="275" y="146" width="19" height="9">
<path d="M293.488 151.121V154.968C291.488 154.429 289.564 153.891 287.794 153.429C285.948 152.968 284.255 152.506 282.716 152.121C281.177 151.736 279.792 151.352 278.638 151.121C277.484 150.813 276.56 150.582 275.868 150.428V146.581C276.56 146.735 277.484 146.966 278.638 147.274C279.792 147.581 281.177 147.889 282.716 148.274C284.255 148.659 285.948 149.12 287.794 149.582C289.564 150.121 291.488 150.582 293.488 151.121Z" fill="white"/>
</mask>
<g mask="url(#mask0_332_3)">
<path d="M293.488 151.121V154.968C291.488 154.429 289.564 153.891 287.794 153.429C285.948 152.968 284.255 152.506 282.716 152.121C281.177 151.736 279.792 151.352 278.638 151.121C277.484 150.813 276.56 150.582 275.868 150.428V146.581C276.56 146.735 277.484 146.966 278.638 147.274C279.792 147.581 281.177 147.889 282.716 148.274C284.255 148.659 285.948 149.12 287.794 149.582C289.564 150.121 291.488 150.582 293.488 151.121Z" fill="#CCCBF6"/>
</g>
<path d="M306.338 155.045V158.892C304.645 158.431 303.03 157.969 301.337 157.507V153.66C303.03 154.122 304.722 154.583 306.338 155.045Z" fill="#4F389E"/>
<mask id="mask1_332_3" style="mask-type:luminance" maskUnits="userSpaceOnUse" x="301" y="153" width="6" height="6">
<path d="M306.338 155.045V158.892C304.645 158.431 303.03 157.969 301.337 157.507V153.66C303.03 154.122 304.722 154.583 306.338 155.045Z" fill="white"/>
</mask>
<g mask="url(#mask1_332_3)">
<path d="M306.338 155.045V158.892C304.645 158.431 303.03 157.969 301.337 157.507V153.66C303.03 154.122 304.722 154.583 306.338 155.045Z" fill="#CCCBF6"/>
</g>
<path d="M311.186 156.429V160.276C309.647 159.815 308.031 159.353 306.338 158.891V155.044C308.031 155.506 309.647 155.968 311.186 156.429Z" fill="#4F389E"/>
<mask id="mask2_332_3" style="mask-type:luminance" maskUnits="userSpaceOnUse" x="306" y="155" width="6" height="6">
<path d="M311.186 156.429V160.276C309.647 159.815 308.031 159.353 306.338 158.891V155.044C308.031 155.506 309.647 155.968 311.186 156.429Z" fill="white"/>
</mask>
<g mask="url(#mask2_332_3)">
<path d="M311.186 156.429V160.276C309.647 159.815 308.031 159.353 306.338 158.891V155.044C308.031 155.506 309.647 155.968 311.186 156.429Z" fill="#CCCBF6"/>
</g>
<path d="M319.342 151.659V155.583L311.186 160.277V156.43L319.342 151.659Z" fill="#DDDEFA"/>
<path d="M301.337 153.583V157.507L288.179 165.125V161.277L301.337 153.583Z" fill="#DDDEFA"/>
<path d="M285.178 171.511V175.358C282.793 172.511 280.639 169.818 278.638 167.433C276.637 164.971 274.868 162.662 273.175 160.431C271.482 158.2 270.02 156.045 268.558 154.045C267.173 152.044 265.865 149.966 264.634 147.966V144.119C265.865 146.119 267.173 148.197 268.558 150.197C269.943 152.275 271.482 154.352 273.175 156.584C274.791 158.815 276.637 161.124 278.638 163.586C280.639 166.048 282.793 168.664 285.178 171.511Z" fill="#4F389E"/>
<mask id="mask3_332_3" style="mask-type:luminance" maskUnits="userSpaceOnUse" x="264" y="144" width="22" height="32">
<path d="M285.178 171.511V175.358C282.793 172.511 280.639 169.818 278.638 167.433C276.637 164.971 274.868 162.662 273.175 160.431C271.482 158.2 270.02 156.045 268.558 154.045C267.173 152.044 265.865 149.966 264.634 147.966V144.119C265.865 146.119 267.173 148.197 268.558 150.197C269.943 152.275 271.482 154.352 273.175 156.584C274.791 158.815 276.637 161.124 278.638 163.586C280.639 166.048 282.793 168.664 285.178 171.511Z" fill="white"/>
</mask>
<g mask="url(#mask3_332_3)">
<path d="M285.178 171.511V175.358C282.793 172.511 280.639 169.818 278.638 167.433C276.637 164.971 274.868 162.662 273.175 160.431C271.482 158.2 270.02 156.045 268.558 154.045C267.173 152.044 265.865 149.966 264.634 147.966V144.119C265.865 146.119 267.173 148.197 268.558 150.197C269.943 152.275 271.482 154.352 273.175 156.584C274.791 158.815 276.637 161.124 278.638 163.586C280.639 166.048 282.793 168.664 285.178 171.511Z" fill="#CCCBF6"/>
</g>
<path d="M293.027 166.971V170.818L285.178 175.435V171.511L293.027 166.971Z" fill="#DDDEFA"/>
<path d="M306.338 155.045C304.645 154.583 303.029 154.121 301.337 153.66L288.179 161.354C289.025 162.354 289.795 163.278 290.641 164.278C291.488 165.278 292.257 166.202 293.103 167.048L285.255 171.665C282.87 168.818 280.715 166.125 278.715 163.739C276.714 161.277 274.944 158.969 273.252 156.737C271.559 154.506 270.097 152.351 268.635 150.351C267.25 148.35 265.942 146.273 264.711 144.272L271.944 140.117C275.406 140.81 278.869 141.579 282.408 142.349C285.948 143.118 289.641 144.041 293.488 144.965C297.335 145.888 301.337 146.965 305.646 148.12C309.878 149.274 314.494 150.505 319.419 151.89L311.263 156.583C309.647 155.968 308.031 155.506 306.338 155.045ZM283.87 156.737L293.488 151.12C291.488 150.582 289.564 150.043 287.794 149.581C285.948 149.12 284.255 148.658 282.716 148.273C281.177 147.889 279.792 147.504 278.638 147.273C277.484 146.965 276.56 146.734 275.868 146.581C276.176 146.965 276.637 147.504 277.176 148.196C277.714 148.889 278.33 149.658 279.022 150.505C279.715 151.351 280.484 152.351 281.331 153.429C282.023 154.506 282.87 155.583 283.87 156.737Z" fill="#F8F9FC"/>
<path d="M297.413 308.934L67.4233 176.127L295.951 43.3193L526.017 176.127L297.413 308.934ZM73.502 176.127L297.413 305.395L519.861 176.127L295.951 46.8588L73.502 176.127Z" fill="#4F389E"/>
<path d="M103.049 194.902L86.0441 204.751C85.8132 204.905 85.5054 204.905 85.2746 204.751L67.808 194.671L11.1763 227.373L5.86709 230.451C5.7132 230.528 5.63625 230.528 5.48236 230.528C5.17458 230.528 4.94374 230.374 4.78985 230.143C4.55902 229.758 4.71291 229.297 5.09764 229.066L9.56046 226.527L67.4233 193.133C67.6541 192.979 67.9619 192.979 68.1928 193.133L85.6593 203.212L101.433 194.056L103.049 194.902Z" fill="#4F389E"/>
<path d="M240.242 272.539L237.549 274.078L222.083 283.004C221.852 283.158 221.545 283.158 221.314 283.004L203.847 272.924L181.841 285.62L180.225 286.543L146.754 305.857L141.906 308.627C141.752 308.704 141.675 308.704 141.522 308.704C141.214 308.704 140.983 308.55 140.829 308.319C140.598 307.934 140.752 307.473 141.137 307.242L145.446 304.78L178.609 285.62L180.225 284.697L203.462 271.308C203.693 271.154 204.001 271.154 204.232 271.308L221.699 281.388L235.933 273.155L238.626 271.616L240.242 272.539Z" fill="#4F389E"/>
<path d="M187.304 241.992L184.611 243.531L169.53 252.226C169.299 252.38 168.991 252.38 168.76 252.226L151.294 242.146L128.826 255.073L127.21 255.996L95.0466 274.54L89.3527 277.849C89.1988 277.926 89.1218 277.926 88.968 277.926C88.6602 277.926 88.4293 277.772 88.2754 277.541C88.0446 277.156 88.1985 276.695 88.5832 276.464L93.8155 273.463L125.671 255.073L127.287 254.15L150.909 240.53C151.14 240.376 151.448 240.376 151.678 240.53L169.145 250.61L182.995 242.608L185.688 241.069L187.304 241.992Z" fill="#4F389E"/>
<path d="M145.061 217.601L142.368 219.14L85.5055 251.996L81.1966 254.458C81.0427 254.535 80.9657 254.535 80.8118 254.535C80.504 254.535 80.2732 254.381 80.1193 254.15C79.8885 253.765 80.0424 253.304 80.4271 253.073L83.9666 250.995L140.752 218.217L143.445 216.678L145.061 217.601Z" fill="#4F389E"/>
<path d="M259.71 283.775L257.016 285.314L200.923 317.708L196.614 320.247C196.461 320.324 196.384 320.324 196.23 320.324C195.922 320.324 195.691 320.17 195.537 319.939C195.306 319.554 195.46 319.092 195.845 318.862L199.384 316.861L255.478 284.467L258.171 282.928L259.71 283.775Z" fill="#4F389E"/>
<path d="M205.386 252.457L202.693 253.996L164.836 275.849L163.22 276.772L146.061 286.698L141.599 289.314C141.445 289.391 141.368 289.391 141.214 289.391C140.906 289.391 140.675 289.237 140.521 289.006C140.291 288.622 140.444 288.16 140.829 287.929L144.523 285.775L161.604 275.926L163.22 275.002L201.077 253.15L203.77 251.611L205.386 252.457Z" fill="#4F389E"/>
<path d="M204.54 298.855L183.303 311.09L177.378 314.552L176.609 313.167L181.918 310.089L201.308 298.855L180.148 286.621L178.609 285.698L163.22 276.849L161.604 275.926L127.287 256.074L125.671 255.15L111.667 247.071L150.909 224.141L153.602 222.526L155.141 223.449L152.525 225.065L114.899 247.071L127.287 254.227L128.903 255.15L163.22 274.925L164.836 275.926L180.148 284.774L181.764 285.698L204.54 298.855Z" fill="#4F389E"/>
<path d="M10.4838 226.912C12.8691 228.297 12.8691 230.528 10.4838 231.913C8.09849 233.298 4.17428 233.298 1.78898 231.913C-0.596326 230.528 -0.596326 228.297 1.78898 226.912C4.25123 225.527 8.09849 225.527 10.4838 226.912Z" fill="#4F389E"/>
<path d="M116.053 224.525C116.053 224.833 115.899 225.064 115.668 225.218L66.9617 253.303L62.4989 255.842C62.345 255.996 62.1911 255.996 62.0372 255.996C61.7294 255.996 61.4986 255.842 61.3447 255.611C61.1908 255.227 61.2678 254.765 61.6525 254.534L65.3458 252.38L113.667 224.525L95.7392 214.138C95.5084 213.984 95.3545 213.753 95.3545 213.445C95.3545 213.138 95.5084 212.907 95.7392 212.753L113.514 202.519L116.207 200.98L117.823 201.904L115.129 203.442L97.8168 213.445L115.745 223.833C115.976 223.91 116.053 224.218 116.053 224.525Z" fill="#4F389E"/>
<path d="M66.1153 252.765C68.5006 254.15 68.5006 256.381 66.1153 257.766C63.73 259.151 59.8058 259.151 57.4204 257.766C55.0351 256.381 55.0351 254.15 57.4204 252.765C59.8058 251.38 63.73 251.38 66.1153 252.765Z" fill="#4F389E"/>
<path d="M270.174 312.397C270.174 312.705 270.02 312.936 269.789 313.089L222.314 340.482L216.543 343.791C216.389 343.868 216.312 343.868 216.159 343.868C215.851 343.868 215.62 343.714 215.466 343.483C215.235 343.098 215.389 342.637 215.774 342.406L220.775 339.559L267.789 312.397L249.861 302.009C249.63 301.856 249.476 301.625 249.476 301.317C249.476 301.009 249.63 300.778 249.861 300.624L266.635 290.929L269.328 289.39L270.944 290.314L268.25 291.853L251.861 301.317L269.789 311.704C270.02 311.781 270.174 312.089 270.174 312.397Z" fill="#4F389E"/>
<path d="M217.082 345.868C220.482 345.868 223.238 344.283 223.238 342.328C223.238 340.373 220.482 338.789 217.082 338.789C213.682 338.789 210.926 340.373 210.926 342.328C210.926 344.283 213.682 345.868 217.082 345.868Z" fill="#4F389E"/>
<path d="M84.5822 251.38C86.9675 252.765 86.9675 254.996 84.5822 256.381C82.1969 257.766 78.2727 257.766 75.8874 256.381C73.5021 254.996 73.5021 252.765 75.8874 251.38C78.2727 249.995 82.1969 249.995 84.5822 251.38Z" fill="#4F389E"/>
<path d="M93.8155 273.464C96.2008 274.849 96.2008 277.08 93.8155 278.465C91.4301 279.85 87.5059 279.85 85.1206 278.465C82.7353 277.08 82.7353 274.849 85.1206 273.464C87.5059 272.079 91.4301 272.079 93.8155 273.464Z" fill="#4F389E"/>
<path d="M145.215 286.159C147.6 287.544 147.6 289.776 145.215 291.161C142.83 292.546 138.906 292.546 136.52 291.161C134.135 289.776 134.135 287.544 136.52 286.159C138.983 284.774 142.83 284.774 145.215 286.159Z" fill="#4F389E"/>
<path d="M141.137 310.936C144.537 310.936 147.293 309.351 147.293 307.396C147.293 305.442 144.537 303.857 141.137 303.857C137.737 303.857 134.981 305.442 134.981 307.396C134.981 309.351 137.737 310.936 141.137 310.936Z" fill="#4F389E"/>
<path d="M177.84 316.245C181.239 316.245 183.995 314.66 183.995 312.705C183.995 310.75 181.239 309.166 177.84 309.166C174.44 309.166 171.684 310.75 171.684 312.705C171.684 314.66 174.44 316.245 177.84 316.245Z" fill="#4F389E"/>
<path d="M200.231 317.245C202.616 318.63 202.616 320.862 200.231 322.247C197.846 323.632 193.921 323.632 191.536 322.247C189.151 320.862 189.151 318.63 191.536 317.245C193.921 315.86 197.846 315.86 200.231 317.245Z" fill="#4F389E"/>
<path d="M538.636 250.457C538.482 250.688 538.252 250.842 537.944 250.842C537.79 250.842 537.636 250.842 537.559 250.765L532.635 247.918L484.313 219.987C484.082 219.833 483.928 219.602 483.928 219.294C483.928 218.987 484.082 218.756 484.313 218.602L502.241 208.214L486.16 198.904L483.467 197.365L485.082 196.442L487.775 197.981L504.242 207.522C504.473 207.676 504.627 207.906 504.627 208.214C504.627 208.522 504.473 208.753 504.242 208.907L486.314 219.294L534.404 247.072L538.329 249.303C538.713 249.611 538.867 250.073 538.636 250.457Z" fill="#4F389E"/>
<path d="M371.819 347.101C371.665 347.332 371.434 347.486 371.126 347.486C370.972 347.486 370.818 347.486 370.742 347.409L365.971 344.639L317.495 316.631C317.265 316.477 317.111 316.246 317.111 315.939C317.111 315.631 317.265 315.4 317.495 315.246L335.424 304.858L319.65 295.779L316.957 294.24L318.573 293.317L321.266 294.856L337.424 304.166C337.655 304.32 337.809 304.551 337.809 304.858C337.809 305.166 337.655 305.397 337.424 305.551L319.496 315.939L367.818 343.87L371.511 346.024C371.896 346.178 371.973 346.64 371.819 347.101Z" fill="#4F389E"/>
<path d="M454.073 295.164C453.919 295.395 453.612 295.548 453.381 295.548C453.227 295.548 453.073 295.548 452.996 295.472L448.533 292.932L411.83 271.772C411.599 271.618 411.446 271.388 411.446 271.08C411.446 270.772 411.599 270.541 411.83 270.387L425.45 262.539L413.215 255.306L411.6 254.383L401.366 248.304L398.75 246.765L400.365 245.842L403.059 247.381L413.292 253.459L414.908 254.383L427.527 261.846C427.758 262 427.912 262.231 427.912 262.539C427.912 262.847 427.758 263.078 427.527 263.231L413.908 271.08L450.765 292.317L453.842 294.087C454.15 294.317 454.304 294.779 454.073 295.164Z" fill="#4F389E"/>
<path d="M520.631 293.084C520.477 293.315 520.246 293.469 519.938 293.469C519.784 293.469 519.631 293.469 519.554 293.392L514.783 290.622L447.918 251.996C447.687 251.842 447.533 251.611 447.533 251.303C447.533 250.995 447.687 250.765 447.918 250.611L472.463 236.453L446.994 221.756L444.301 220.217L445.917 219.294L448.61 220.833L474.464 235.76C474.695 235.914 474.848 236.145 474.848 236.453C474.848 236.761 474.695 236.991 474.464 237.145L449.918 251.303L516.63 289.853L520.323 292.007C520.785 292.161 520.862 292.7 520.631 293.084Z" fill="#4F389E"/>
<path d="M448.918 313.246C448.764 313.477 448.533 313.631 448.226 313.631C448.072 313.631 447.918 313.631 447.841 313.554L443.763 311.168L396.441 283.853L370.357 298.934C370.126 299.088 369.818 299.088 369.587 298.934L341.887 282.93L339.194 281.391L340.81 280.467L343.503 282.006L370.049 297.318L396.134 282.237C396.364 282.083 396.672 282.083 396.903 282.237L445.455 310.245L448.687 312.169C448.995 312.323 449.149 312.861 448.918 313.246Z" fill="#4F389E"/>
<path d="M519.938 249.073C519.784 249.304 519.554 249.458 519.246 249.458C519.092 249.458 518.938 249.458 518.861 249.381L514.244 246.688L458.998 214.832L456.305 213.293L457.92 212.37L460.614 213.909L516.014 245.841L519.707 247.996C520.015 248.15 520.169 248.688 519.938 249.073Z" fill="#4F389E"/>
<path d="M562.643 224.066C562.489 224.296 562.181 224.45 561.95 224.45C561.797 224.45 561.643 224.373 561.566 224.373L556.487 221.45L501.856 189.902L499.163 188.363L500.779 187.44L503.472 188.979L558.026 220.449L562.335 222.911C562.72 223.142 562.874 223.681 562.643 224.066Z" fill="#4F389E"/>
<path d="M470.309 277.311C470.155 277.542 469.847 277.696 469.616 277.696C469.462 277.696 469.309 277.696 469.232 277.619L464.23 274.772L421.91 250.304L420.294 249.38L409.907 243.379L407.214 241.84L408.83 240.916L411.523 242.455L421.91 248.457L423.526 249.38L465.692 273.695L470.001 276.234C470.386 276.388 470.54 276.927 470.309 277.311Z" fill="#4F389E"/>
<path d="M390.209 324.018C390.055 324.248 389.824 324.402 389.516 324.402C389.362 324.402 389.208 324.402 389.131 324.325L384.515 321.632L329.73 290.008L327.037 288.469L328.652 287.545L331.346 289.084L386.284 320.786L389.978 322.94C390.286 323.171 390.44 323.633 390.209 324.018Z" fill="#4F389E"/>
<path d="M449.303 234.453L423.526 249.381L421.91 250.304L414.831 254.382L413.215 255.305L380.821 274.003L375.974 276.773L375.204 275.388L379.513 272.849L411.6 254.382L413.215 253.459L420.294 249.381L421.91 248.38L446.071 234.453L435.607 228.375L432.913 226.836L434.529 225.912L437.222 227.451L449.303 234.453Z" fill="#4F389E"/>
<path d="M374.743 344.561C377.128 345.946 377.128 348.178 374.743 349.563C372.357 350.948 368.433 350.948 366.048 349.563C363.662 348.178 363.662 345.946 366.048 344.561C368.433 343.176 372.357 343.176 374.743 344.561Z" fill="#4F389E"/>
<path d="M393.594 321.324C395.98 322.709 395.98 324.94 393.594 326.325C391.209 327.71 387.285 327.71 384.899 326.325C382.514 324.94 382.514 322.709 384.899 321.324C387.362 319.939 391.209 319.939 393.594 321.324Z" fill="#4F389E"/>
<path d="M379.59 272.927C381.976 274.312 381.976 276.543 379.59 277.928C377.205 279.313 373.281 279.313 370.895 277.928C368.51 276.543 368.51 274.312 370.895 272.927C373.281 271.542 377.205 271.542 379.59 272.927Z" fill="#4F389E"/>
<path d="M448.764 316.707C452.164 316.707 454.92 315.122 454.92 313.167C454.92 311.213 452.164 309.628 448.764 309.628C445.364 309.628 442.609 311.213 442.609 313.167C442.609 315.122 445.364 316.707 448.764 316.707Z" fill="#4F389E"/>
<path d="M452.15 299.319C455.549 299.319 458.305 297.735 458.305 295.78C458.305 293.825 455.549 292.24 452.15 292.24C448.75 292.24 445.994 293.825 445.994 295.78C445.994 297.735 448.75 299.319 452.15 299.319Z" fill="#4F389E"/>
<path d="M473.925 273.926C476.311 275.311 476.311 277.543 473.925 278.928C471.54 280.313 467.616 280.313 465.23 278.928C462.845 277.543 462.845 275.311 465.23 273.926C467.693 272.541 471.54 272.541 473.925 273.926Z" fill="#4F389E"/>
<path d="M523.632 290.545C526.017 291.93 526.017 294.162 523.632 295.547C521.246 296.932 517.322 296.932 514.937 295.547C512.552 294.162 512.552 291.93 514.937 290.545C517.399 289.16 521.246 289.16 523.632 290.545Z" fill="#4F389E"/>
<path d="M523.401 246.379C525.786 247.764 525.786 249.996 523.401 251.381C521.016 252.766 517.092 252.766 514.706 251.381C512.321 249.996 512.321 247.764 514.706 246.379C517.092 244.994 521.016 244.994 523.401 246.379Z" fill="#4F389E"/>
<path d="M541.637 247.766C544.022 249.151 544.022 251.382 541.637 252.767C539.252 254.152 535.328 254.152 532.942 252.767C530.557 251.382 530.557 249.151 532.942 247.766C535.328 246.381 539.252 246.381 541.637 247.766Z" fill="#4F389E"/>
<path d="M566.029 220.835C568.414 222.22 568.414 224.451 566.029 225.836C563.643 227.221 559.719 227.221 557.334 225.836C554.949 224.451 554.949 222.22 557.334 220.835C559.719 219.45 563.643 219.45 566.029 220.835Z" fill="#4F389E"/>
<path d="M237.857 27.0073C237.857 27.3151 237.703 27.5459 237.472 27.6998L224.699 35.3174L223.16 36.3177L207.156 45.9359L205.54 46.8592L190.536 55.8618L232.779 80.2534L235.472 81.7924L233.856 82.7157L231.163 81.1768L188.612 56.5543C188.381 56.4004 188.227 56.1696 188.227 55.8618C188.227 55.554 188.381 55.3232 188.612 55.1693L204.001 45.9359L205.617 45.0125L221.622 35.3944L223.237 34.471L235.626 27.0843L211.926 13.388L207.771 11.0797C207.387 10.8488 207.233 10.3871 207.464 10.0024C207.694 9.61769 208.156 9.46381 208.541 9.69464L213.311 12.4647L237.472 26.3918C237.703 26.4687 237.857 26.7765 237.857 27.0073Z" fill="#4F389E"/>
<path d="M93.5846 162.662L52.1111 138.733L70.0393 128.345C70.2702 128.191 70.424 127.96 70.424 127.652C70.424 127.345 70.2702 127.114 70.0393 126.96L45.7246 112.879L41.1848 110.263C40.8001 110.032 40.3384 110.186 40.1076 110.571C39.8768 110.955 40.0307 111.417 40.4154 111.648L43.8779 113.648L68.1157 127.652L50.1874 138.04C49.9566 138.194 49.8027 138.425 49.8027 138.733C49.8027 139.04 49.9566 139.271 50.1874 139.425L92.0457 163.586L93.5846 162.662Z" fill="#4F389E"/>
<path d="M177.917 115.187L176.301 116.111L173.608 114.572L144.753 97.9517C144.522 97.7978 144.369 97.567 144.369 97.2592C144.369 96.9514 144.522 96.7205 144.753 96.5667L158.373 88.7182L125.132 69.1741L121.978 67.3275C121.593 67.0966 121.439 66.6349 121.67 66.2502C121.901 65.8655 122.362 65.7116 122.747 65.9424L126.748 68.3277L160.373 88.1027C160.604 88.2566 160.758 88.4874 160.758 88.7952C160.758 89.103 160.604 89.3338 160.373 89.4877L146.754 97.3361L175.147 113.725L177.917 115.187Z" fill="#4F389E"/>
<path d="M213.927 94.2587L212.311 95.182L209.695 93.6431L164.836 67.7895C164.605 67.6356 164.451 67.4047 164.451 67.097C164.451 66.7892 164.605 66.5583 164.836 66.4045L184.611 54.9396L159.45 40.397L154.14 37.3192C153.756 37.0883 153.602 36.6267 153.833 36.2419C154.064 35.8572 154.525 35.7033 154.91 35.9341L160.989 39.4736L186.611 54.2471C186.842 54.401 186.996 54.6318 186.996 54.9396C186.996 55.2474 186.842 55.4782 186.611 55.6321L166.836 67.097L211.311 92.7198L213.927 94.2587Z" fill="#4F389E"/>
<path d="M157.603 126.959L155.987 127.883L153.294 126.344L124.055 109.416L103.126 121.496C102.895 121.65 102.587 121.65 102.356 121.496L73.9636 105.184L70.5011 103.183C70.1164 102.952 69.9625 102.491 70.1933 102.106C70.4241 101.721 70.8858 101.567 71.2705 101.798L75.4256 104.183L102.664 119.88L123.593 107.8C123.824 107.646 124.132 107.646 124.363 107.8L154.833 125.42L157.603 126.959Z" fill="#4F389E"/>
<path d="M252.246 72.021L250.63 72.9444L247.937 71.4055L205.463 46.9369L203.924 45.9366L190.767 38.319L187.381 36.3184C186.996 36.0876 186.842 35.6259 187.073 35.2412C187.304 34.8565 187.766 34.7026 188.15 34.9334L192.536 37.4726L205.463 44.9363L207.079 45.8597L249.553 70.4052L252.246 72.021Z" fill="#4F389E"/>
<path d="M270.174 61.5564L268.558 62.4797L265.865 60.9408L223.161 36.3183L221.545 35.395L172.146 6.84825L169.607 5.3863C169.222 5.15546 169.068 4.69378 169.299 4.30906C169.53 3.92433 169.991 3.77045 170.376 4.00128L174.146 6.15574L223.161 34.3947L224.776 35.318L267.558 60.0174L270.174 61.5564Z" fill="#4F389E"/>
<path d="M205.232 99.3371L203.616 100.26L200.923 98.7215L144.292 66.0198L140.521 63.8653C140.137 63.6345 139.983 63.1728 140.214 62.7881C140.444 62.4033 140.906 62.2494 141.291 62.4803L146.061 65.2503L202.539 97.8751L205.232 99.3371Z" fill="#4F389E"/>
<path d="M125.594 145.581L123.978 146.504L121.285 144.965L95.9701 130.346L89.8915 126.883C89.5067 126.652 89.3528 126.191 89.5837 125.806C89.8145 125.421 90.2762 125.267 90.6609 125.498L97.586 129.499L122.824 144.042L125.594 145.581Z" fill="#4F389E"/>
<path d="M45.5708 107.955C47.9561 109.34 47.9561 111.571 45.5708 112.956C43.1855 114.341 39.2613 114.341 36.876 112.956C34.4907 111.571 34.4907 109.34 36.876 107.955C39.3383 106.57 43.1855 106.57 45.5708 107.955Z" fill="#4F389E"/>
<path d="M92.8153 130.885C96.2149 130.885 98.9709 129.3 98.9709 127.345C98.9709 125.391 96.2149 123.806 92.8153 123.806C89.4156 123.806 86.6597 125.391 86.6597 127.345C86.6597 129.3 89.4156 130.885 92.8153 130.885Z" fill="#4F389E"/>
<path d="M70.1164 105.954C73.5161 105.954 76.2721 104.37 76.2721 102.415C76.2721 100.46 73.5161 98.8755 70.1164 98.8755C66.7168 98.8755 63.9608 100.46 63.9608 102.415C63.9608 104.37 66.7168 105.954 70.1164 105.954Z" fill="#4F389E"/>
<path d="M126.286 63.5573C128.672 64.9423 128.672 67.1738 126.286 68.5588C123.901 69.9438 119.977 69.9438 117.592 68.5588C115.206 67.1738 115.206 64.9423 117.592 63.5573C119.977 62.1723 123.824 62.1723 126.286 63.5573Z" fill="#4F389E"/>
<path d="M84.0435 88.0251C86.4288 89.4101 86.4288 91.6415 84.0435 93.0265C81.6582 94.4115 77.734 94.4115 75.3487 93.0265C72.9634 91.6415 72.9634 89.4101 75.3487 88.0251C77.734 86.6401 81.5812 86.6401 84.0435 88.0251Z" fill="#4F389E"/>
<path d="M168.222 120.804L166.606 121.728L163.913 120.189L96.8164 81.4854L84.6591 88.4875L80.0424 91.1036C79.6576 91.3344 79.196 91.1805 78.9651 90.7958C78.7343 90.4111 78.8882 89.9494 79.2729 89.7186L83.0432 87.5641L96.4317 79.8696C96.6626 79.7157 96.9703 79.7157 97.2012 79.8696L165.452 119.266L168.222 120.804Z" fill="#4F389E"/>
<path d="M280.331 55.7085L278.715 56.6319L276.022 55.093L246.86 38.242C246.629 38.0881 246.475 37.8572 246.475 37.5494C246.475 37.2417 246.629 37.0108 246.86 36.8569L260.479 29.0085L227.238 9.46443L224.084 7.61774C223.699 7.3869 223.545 6.92524 223.776 6.54051C224.007 6.15579 224.468 6.00189 224.853 6.23272L228.854 8.61804L262.479 28.393C262.71 28.5469 262.864 28.7777 262.864 29.0855C262.864 29.3933 262.71 29.6241 262.479 29.778L248.86 37.6264L277.638 54.2466L280.331 55.7085Z" fill="#4F389E"/>
<path d="M224.007 9.92735C227.407 9.92735 230.163 8.34267 230.163 6.38786C230.163 4.43306 227.407 2.84839 224.007 2.84839C220.607 2.84839 217.851 4.43306 217.851 6.38786C217.851 8.34267 220.607 9.92735 224.007 9.92735Z" fill="#4F389E"/>
<path d="M141.291 66.4037C144.69 66.4037 147.446 64.819 147.446 62.8642C147.446 60.9094 144.69 59.3247 141.291 59.3247C137.891 59.3247 135.135 60.9094 135.135 62.8642C135.135 64.819 137.891 66.4037 141.291 66.4037Z" fill="#4F389E"/>
<path d="M160.142 35.0107C162.528 36.3957 162.528 38.6271 160.142 40.0121C157.757 41.3971 153.833 41.3971 151.448 40.0121C149.062 38.6271 149.062 36.3957 151.448 35.0107C153.91 33.6257 157.757 33.6257 160.142 35.0107Z" fill="#4F389E"/>
<path d="M169.991 7.07897C173.391 7.07897 176.147 5.49429 176.147 3.53949C176.147 1.58469 173.391 0 169.991 0C166.592 0 163.836 1.58469 163.836 3.53949C163.836 5.49429 166.592 7.07897 169.991 7.07897Z" fill="#4F389E"/>
<path d="M212.465 8.00287C214.851 9.38789 214.851 11.6193 212.465 13.0043C210.08 14.3893 206.156 14.3893 203.77 13.0043C201.385 11.6193 201.385 9.38789 203.77 8.00287C206.156 6.61786 210.08 6.61786 212.465 8.00287Z" fill="#4F389E"/>
<path d="M192.305 32.7018C194.691 34.0869 194.691 36.3183 192.305 37.7033C189.92 39.0883 185.996 39.0883 183.611 37.7033C181.225 36.3183 181.225 34.0869 183.611 32.7018C185.996 31.3168 189.843 31.3168 192.305 32.7018Z" fill="#4F389E"/>
<path d="M509.243 119.419C509.243 119.727 509.089 119.958 508.858 120.112L468.77 143.272L466.077 144.811L464.461 143.888L467.154 142.349L506.858 119.419L470.463 97.6437L468.847 96.7203L459.844 91.3342C459.613 91.1803 459.46 90.9494 459.46 90.6417C459.46 90.3339 459.613 90.103 459.844 89.9491L484.005 76.022L488.776 73.252C489.16 73.0212 489.622 73.1751 489.853 73.5598C490.084 73.9445 489.93 74.4062 489.545 74.637L485.544 76.9454L461.845 90.6417L470.386 95.797L472.002 96.7203L508.782 118.804C509.089 118.881 509.243 119.188 509.243 119.419Z" fill="#4F389E"/>
<path d="M470.847 68.6368L467.693 70.4835L434.452 90.0276L448.072 97.876C448.302 98.0299 448.456 98.2607 448.456 98.5685C448.456 98.8763 448.302 99.1071 448.072 99.261L420.371 115.266L417.678 116.805L416.062 115.881L418.755 114.342L446.071 98.5685L432.452 90.7201C432.221 90.5662 432.067 90.3354 432.067 90.0276C432.067 89.7198 432.221 89.489 432.452 89.3351L466.077 69.5602L470.078 67.1749C470.463 66.944 470.924 67.0979 471.155 67.4826C471.386 67.9443 471.232 68.406 470.847 68.6368Z" fill="#4F389E"/>
<path d="M436.453 33.7031L431.298 36.704L405.29 51.7083L425.527 63.404C425.758 63.5579 425.911 63.7887 425.911 64.0965C425.911 64.4043 425.758 64.6351 425.527 64.789L379.129 91.566L376.436 93.1049L374.82 92.1816L377.513 90.6426L423.449 64.0965L403.213 52.4008C402.982 52.2469 402.828 52.0161 402.828 51.7083C402.828 51.4005 402.982 51.1697 403.213 51.0158L429.759 35.7037L435.53 32.3951C435.914 32.1642 436.376 32.3181 436.607 32.7029C436.992 33.0106 436.838 33.4723 436.453 33.7031Z" fill="#4F389E"/>
<path d="M552.486 135.348L549.024 137.349L525.632 150.814C525.402 150.968 525.094 150.968 524.863 150.814L507.242 140.657L485.775 153.045L483.082 154.584L481.466 153.661L484.159 152.122L506.858 139.041C507.089 138.887 507.396 138.887 507.627 139.041L525.248 149.198L547.254 136.502L551.64 133.963C552.025 133.732 552.486 133.886 552.717 134.271C553.025 134.655 552.871 135.117 552.486 135.348Z" fill="#4F389E"/>
<path d="M403.828 38.0879L400.443 40.0885L345.196 72.0208L342.503 73.5597L340.887 72.6363L343.58 71.0974L398.596 39.319L402.982 36.7798C403.367 36.549 403.828 36.7029 404.059 37.0876C404.367 37.3185 404.213 37.8571 403.828 38.0879Z" fill="#4F389E"/>
<path d="M423.295 6.77251L420.756 8.23448L327.806 61.8653L325.113 63.4042L323.497 62.4809L326.19 60.942L418.756 7.54197L422.526 5.38751C422.911 5.15668 423.372 5.31056 423.603 5.69529C423.834 6.08001 423.68 6.61862 423.295 6.77251Z" fill="#4F389E"/>
<path d="M452.304 65.1727L448.533 67.3272L392.979 99.4134L390.286 100.952L388.67 100.029L391.363 98.49L446.764 66.4808L451.534 63.7108C451.919 63.4799 452.381 63.6338 452.611 64.0185C452.842 64.4802 452.688 65.0188 452.304 65.1727Z" fill="#4F389E"/>
<path d="M392.055 64.4815L385.977 67.9441L362.124 81.7173L359.431 83.2562L357.815 82.3328L360.508 80.7939L384.284 67.0977L391.209 63.0965C391.594 62.8657 392.055 63.0196 392.286 63.4043C392.594 63.789 392.44 64.2507 392.055 64.4815Z" fill="#4F389E"/>
<path d="M389.285 68.4815C392.685 68.4815 395.441 66.8969 395.441 64.9421C395.441 62.9873 392.685 61.4026 389.285 61.4026C385.886 61.4026 383.13 62.9873 383.13 64.9421C383.13 66.8969 385.886 68.4815 389.285 68.4815Z" fill="#4F389E"/>
<path d="M547.639 131.731C545.253 133.116 545.253 135.348 547.639 136.733C550.024 138.118 553.948 138.118 556.334 136.733C558.719 135.348 558.719 133.116 556.334 131.731C553.948 130.346 550.024 130.346 547.639 131.731Z" fill="#4F389E"/>
<path d="M466.539 64.9433C464.153 66.3283 464.153 68.5597 466.539 69.9447C468.924 71.3297 472.848 71.3297 475.233 69.9447C477.619 68.5597 477.619 66.3283 475.233 64.9433C472.848 63.5583 468.924 63.5583 466.539 64.9433Z" fill="#4F389E"/>
<path d="M508.781 89.4116C506.396 90.7966 506.396 93.028 508.781 94.413C511.167 95.798 515.091 95.798 517.476 94.413C519.862 93.028 519.862 90.7966 517.476 89.4116C515.091 88.0265 511.244 88.0265 508.781 89.4116Z" fill="#4F389E"/>
<path d="M513.783 92.2574C513.552 92.6422 513.09 92.796 512.706 92.5652L508.089 89.9491L495.932 82.9471L472.002 96.7972L470.386 97.7205L430.066 121.035L427.373 122.574L425.758 121.651L428.451 120.112L468.847 96.7972L470.463 95.8739L495.547 81.4081C495.778 81.2543 496.086 81.2543 496.316 81.4081L509.705 89.1027L513.475 91.2571C513.86 91.3341 514.014 91.8727 513.783 92.2574Z" fill="#4F389E"/>
<path d="M368.818 9.00401L365.663 10.8507L332.346 30.3948L345.965 38.2432C346.196 38.3971 346.35 38.6279 346.35 38.9357C346.35 39.2435 346.196 39.4743 345.965 39.6282L317.649 56.0176L314.956 57.5565L304.876 63.4043C304.723 63.4813 304.646 63.4813 304.492 63.4813C304.184 63.4813 303.953 63.3274 303.799 63.0965C303.568 62.7118 303.722 62.2501 304.107 62.0193L313.417 56.6331L316.111 55.0942L344.042 38.9357L330.422 31.0873C330.191 30.9334 330.038 30.7026 330.038 30.3948C330.038 30.087 330.191 29.8562 330.422 29.7023L364.047 9.92736L368.049 7.54205C368.433 7.31121 368.895 7.46511 369.126 7.84984C369.28 8.23456 369.203 8.77318 368.818 9.00401Z" fill="#4F389E"/>
<path d="M364.509 5.31073C362.124 6.69575 362.124 8.92716 364.509 10.3122C366.894 11.6972 370.819 11.6972 373.204 10.3122C375.589 8.92716 375.589 6.69575 373.204 5.31073C370.819 3.92572 366.894 3.92572 364.509 5.31073Z" fill="#4F389E"/>
<path d="M447.148 61.7878C444.763 63.1728 444.763 65.4042 447.148 66.7892C449.534 68.1742 453.458 68.1742 455.843 66.7892C458.228 65.4042 458.228 63.1728 455.843 61.7878C453.458 60.4028 449.534 60.4028 447.148 61.7878Z" fill="#4F389E"/>
<path d="M435.376 37.6263C438.775 37.6263 441.531 36.0416 441.531 34.0868C441.531 32.132 438.775 30.5474 435.376 30.5474C431.976 30.5474 429.22 32.132 429.22 34.0868C429.22 36.0416 431.976 37.6263 435.376 37.6263Z" fill="#4F389E"/>
<path d="M418.525 2.46283C416.139 3.84785 416.139 6.07926 418.525 7.46427C420.91 8.84929 424.834 8.84929 427.219 7.46427C429.605 6.07926 429.605 3.84785 427.219 2.46283C424.834 1.07782 420.91 1.07782 418.525 2.46283Z" fill="#4F389E"/>
<path d="M489.237 77.6393C492.637 77.6393 495.393 76.0546 495.393 74.0998C495.393 72.145 492.637 70.5603 489.237 70.5603C485.838 70.5603 483.082 72.145 483.082 74.0998C483.082 76.0546 485.838 77.6393 489.237 77.6393Z" fill="#4F389E"/>
<path d="M398.904 34.3945C396.518 35.7795 396.518 38.0109 398.904 39.3959C401.289 40.7809 405.213 40.7809 407.598 39.3959C409.984 38.0109 409.984 35.7795 407.598 34.3945C405.213 33.0095 401.289 33.0095 398.904 34.3945Z" fill="#4F389E"/>
</svg>
