<svg width="569" height="581" viewBox="0 0 569 581" fill="none" xmlns="http://www.w3.org/2000/svg">
<path opacity="0.3" d="M297.839 477.435H334.08L473.351 396.95L351.085 324.852L263.752 372.866L297.839 477.435Z" fill="#D9CDC1"/>
<path d="M164.8 366.094L171.264 362.324L180.035 367.402L173.572 371.172L164.8 366.094Z" fill="#EDECF8"/>
<path d="M181.42 363.323L187.884 359.553L181.266 370.402L174.726 374.172L181.42 363.323Z" fill="#BFBEED"/>
<path d="M196.732 369.941L203.196 366.171V368.402L196.732 372.173V369.941Z" fill="#98A4E0"/>
<path d="M180.189 360.323L186.652 356.553L203.196 366.171L196.732 369.941L180.189 360.323Z" fill="#EDECF8"/>
<path d="M196.732 369.941V372.173L181.42 363.324L174.726 374.173L164.723 368.402L164.8 366.094L173.572 371.172L180.189 360.323L196.732 369.941Z" fill="#98A4E0"/>
<path d="M188.884 352.397L195.348 348.627L204.119 353.705L197.656 357.476L188.884 352.397Z" fill="#EDECF8"/>
<path d="M205.505 349.55L211.968 345.779L205.351 356.629L198.811 360.399L205.505 349.55Z" fill="#BFBEED"/>
<path d="M220.816 356.168L227.28 352.397V354.629L220.816 358.399V356.168Z" fill="#98A4E0"/>
<path d="M204.273 346.627L210.814 342.856L227.28 352.397L220.817 356.168L204.273 346.627Z" fill="#EDECF8"/>
<path d="M220.817 356.168V358.399L205.504 349.551L198.81 360.4L188.884 354.629V352.398L197.656 357.476L204.273 346.627L220.817 356.168Z" fill="#98A4E0"/>
<path d="M211.968 338.624L218.431 334.854L227.203 339.932L220.74 343.702L211.968 338.624Z" fill="#EDECF8"/>
<path d="M228.588 335.853L235.051 332.083L228.434 342.932L221.894 346.702L228.588 335.853Z" fill="#BFBEED"/>
<path d="M243.9 342.471L250.363 338.701V340.932L243.9 344.703V342.471Z" fill="#98A4E0"/>
<path d="M227.357 332.853L233.897 329.083L250.364 338.701L243.9 342.471L227.357 332.853Z" fill="#EDECF8"/>
<path d="M243.9 342.471V344.702L228.588 335.854L221.894 346.703L211.968 340.932V338.624L220.74 343.702L227.357 332.853L243.9 342.471Z" fill="#98A4E0"/>
<path d="M140.947 381.021L147.411 377.25L156.259 382.329L149.719 386.099L140.947 381.021Z" fill="#EDECF8"/>
<path d="M157.567 378.25L164.031 374.48L157.414 385.329L150.95 389.099L157.567 378.25Z" fill="#BFBEED"/>
<path d="M172.879 384.868L179.42 381.098V383.33L172.879 387.1V384.868Z" fill="#98A4E0"/>
<path d="M156.414 375.25L162.877 371.479L179.42 381.098L172.88 384.868L156.414 375.25Z" fill="#EDECF8"/>
<path d="M172.88 384.868V387.099L157.567 378.251L150.95 389.1L140.947 383.329V381.021L149.719 386.099L156.413 375.25L172.88 384.868Z" fill="#98A4E0"/>
<path d="M237.59 324.159L244.054 320.389L252.902 325.467L246.362 329.237L237.59 324.159Z" fill="#EDECF8"/>
<path d="M254.211 321.311L260.674 317.541L254.057 328.39L247.593 332.16L254.211 321.311Z" fill="#BFBEED"/>
<path d="M269.599 327.93L276.063 324.159V326.391L269.522 330.161L269.599 327.93Z" fill="#98A4E0"/>
<path d="M253.056 318.388L259.52 314.618L276.063 324.159L269.599 327.929L253.056 318.388Z" fill="#EDECF8"/>
<path d="M269.6 327.929L269.523 330.161L254.21 321.312L247.593 332.161L237.59 326.39V324.159L246.362 329.237L253.056 318.388L269.6 327.929Z" fill="#98A4E0"/>
<path d="M262.213 310.155L268.753 306.385L277.525 311.463L271.062 315.233L262.213 310.155Z" fill="#EDECF8"/>
<path d="M278.833 307.306L285.373 303.536L278.756 314.385L272.216 318.156L278.833 307.306Z" fill="#BFBEED"/>
<path d="M294.222 313.925L300.686 310.155V312.386L294.222 316.157V313.925Z" fill="#98A4E0"/>
<path d="M277.679 304.384L284.142 300.614L300.685 310.155L294.222 313.925L277.679 304.384Z" fill="#EDECF8"/>
<path d="M294.222 313.925V316.156L278.833 307.307L272.216 318.157L262.213 312.386V310.154L271.062 315.233L277.679 304.384L294.222 313.925Z" fill="#98A4E0"/>
<path d="M428.877 366.479L422.337 362.709L413.565 367.787L420.028 371.557L428.877 366.479Z" fill="#EDECF8"/>
<path d="M412.257 363.631L405.716 359.861L412.411 370.71L418.874 374.48L412.257 363.631Z" fill="#BFBEED"/>
<path d="M396.868 370.249L390.404 366.479V368.71L396.868 372.481V370.249Z" fill="#98A4E0"/>
<path d="M413.411 360.708L406.948 356.938L390.404 366.479L396.868 370.249L413.411 360.708Z" fill="#EDECF8"/>
<path d="M396.868 370.249V372.48L412.257 363.632L418.874 374.481L428.877 368.71V366.479L420.028 371.557L413.411 360.708L396.868 370.249Z" fill="#98A4E0"/>
<path d="M404.716 352.706L398.253 348.935L389.481 354.014L395.944 357.784L404.716 352.706Z" fill="#EDECF8"/>
<path d="M388.096 349.935L381.632 346.165L388.25 357.014L394.79 360.784L388.096 349.935Z" fill="#BFBEED"/>
<path d="M372.784 356.553L366.32 352.782V355.014L372.784 358.784V356.553Z" fill="#98A4E0"/>
<path d="M389.327 346.935L382.864 343.165L366.32 352.783L372.784 356.553L389.327 346.935Z" fill="#EDECF8"/>
<path d="M372.784 356.553V358.784L388.096 349.935L394.79 360.785L404.793 355.014L404.716 352.705L395.944 357.784L389.327 346.935L372.784 356.553Z" fill="#98A4E0"/>
<path d="M381.71 339.009L375.169 335.239L366.397 340.317L372.861 344.087L381.71 339.009Z" fill="#EDECF8"/>
<path d="M365.089 336.161L358.549 332.391L365.243 343.24L371.706 347.011L365.089 336.161Z" fill="#BFBEED"/>
<path d="M349.7 342.779L343.237 339.009V341.24L349.7 345.011V342.779Z" fill="#98A4E0"/>
<path d="M366.243 333.238L359.78 329.468L343.237 339.009L349.7 342.78L366.243 333.238Z" fill="#EDECF8"/>
<path d="M349.7 342.78V345.011L365.089 336.162L371.707 347.011L381.709 341.241V339.009L372.861 344.088L366.243 333.238L349.7 342.78Z" fill="#98A4E0"/>
<path d="M452.653 381.406L446.189 377.636L437.417 382.714L443.881 386.484L452.653 381.406Z" fill="#EDECF8"/>
<path d="M436.033 378.558L429.569 374.788L436.187 385.637L442.65 389.407L436.033 378.558Z" fill="#BFBEED"/>
<path d="M420.721 385.176L414.18 381.406L414.257 383.637L420.721 387.407V385.176Z" fill="#98A4E0"/>
<path d="M437.264 375.635L430.723 371.865L414.18 381.406L420.721 385.177L437.264 375.635Z" fill="#EDECF8"/>
<path d="M420.721 385.176V387.408L436.033 378.559L442.65 389.408L452.653 383.637V381.406L443.881 386.484L437.264 375.635L420.721 385.176Z" fill="#98A4E0"/>
<path d="M356.01 324.467L349.546 320.697L340.774 325.775L347.238 329.546L356.01 324.467Z" fill="#EDECF8"/>
<path d="M339.39 321.696L332.926 317.926L339.544 328.775L346.007 332.546L339.39 321.696Z" fill="#BFBEED"/>
<path d="M324.077 328.237L317.537 324.467V326.775L324.077 330.546V328.237Z" fill="#98A4E0"/>
<path d="M340.621 318.696L334.08 314.926L317.537 324.467L324.077 328.238L340.621 318.696Z" fill="#EDECF8"/>
<path d="M324.078 328.238V330.546L339.39 321.697L346.007 332.546L356.01 326.776V324.467L347.238 329.546L340.621 318.696L324.078 328.238Z" fill="#98A4E0"/>
<path d="M331.387 310.462L324.847 306.692L316.075 311.771L322.539 315.541L331.387 310.462Z" fill="#EDECF8"/>
<path d="M314.767 307.692L308.227 303.921L314.921 314.771L321.384 318.541L314.767 307.692Z" fill="#BFBEED"/>
<path d="M299.378 314.31L292.915 310.54V312.771L299.378 316.542V314.31Z" fill="#98A4E0"/>
<path d="M315.921 304.769L309.458 300.999L292.915 310.54L299.378 314.31L315.921 304.769Z" fill="#EDECF8"/>
<path d="M299.378 314.31V316.541L314.767 307.693L321.384 318.542L331.387 312.771V310.463L322.538 315.541L315.921 304.769L299.378 314.31Z" fill="#98A4E0"/>
<path d="M436.878 381.098V396.641L297.838 477.434L297.915 461.891L436.878 381.098Z" fill="#1F0159"/>
<path d="M297.915 461.891L297.838 477.434L157.875 396.641L157.952 381.098L297.915 461.891Z" fill="#4F389E"/>
<path d="M436.878 381.098L297.915 461.89L157.952 381.098L296.992 300.305L436.878 381.098Z" fill="#F47300"/>
<path d="M403.562 377.174V384.945L297.762 446.424V438.653L403.562 377.174Z" fill="#DDDEFA"/>
<path d="M297.762 438.653V446.424L191.193 384.945L191.27 377.174L297.762 438.653Z" fill="#CCCBF6"/>
<path d="M403.562 377.174L297.762 438.653L191.27 377.174L297.069 315.695L403.562 377.174Z" fill="white"/>
<path d="M146.488 421.187L140.024 417.417L146.565 398.95L153.105 402.72L146.488 421.187Z" fill="#CCCBF6"/>
<path d="M153.105 402.72L146.564 398.95L163.108 389.408L169.571 393.179L153.105 402.72Z" fill="#EDECF8"/>
<path d="M137.716 426.264L131.252 422.494L140.024 417.416L146.488 421.186L137.716 426.264Z" fill="#EDECF8"/>
<path d="M137.716 428.497L131.252 424.727V422.495L137.716 426.265V428.497Z" fill="#BFBEED"/>
<path d="M169.571 393.179L169.648 395.41L154.259 404.259L147.719 422.726L137.716 428.497V426.265L146.488 421.187L153.105 402.72L169.571 393.179Z" fill="#98A4E0"/>
<path d="M170.879 435.114L164.416 431.344L170.956 412.954L177.497 416.724L170.879 435.114Z" fill="#CCCBF6"/>
<path d="M177.496 416.725L170.956 412.955L187.499 403.413L193.963 407.184L177.496 416.725Z" fill="#EDECF8"/>
<path d="M162.107 440.269L155.644 436.498L164.416 431.343L170.879 435.113L162.107 440.269Z" fill="#EDECF8"/>
<path d="M162.107 442.501L155.644 438.731V436.5L162.107 440.27V442.501Z" fill="#BFBEED"/>
<path d="M193.963 407.183L194.04 409.415L178.651 418.263L172.11 436.73L162.107 442.501V440.27L170.879 435.114L177.496 416.725L193.963 407.183Z" fill="#98A4E0"/>
<path d="M195.117 449.271L188.653 445.501L195.194 427.034L201.657 430.804L195.117 449.271Z" fill="#CCCBF6"/>
<path d="M201.657 430.804L195.194 427.034L211.737 417.493L218.2 421.263L201.657 430.804Z" fill="#EDECF8"/>
<path d="M186.345 454.349L179.805 450.579L188.653 445.5L195.117 449.271L186.345 454.349Z" fill="#EDECF8"/>
<path d="M186.345 456.581L179.805 452.811V450.58L186.345 454.35V456.581Z" fill="#BFBEED"/>
<path d="M218.201 421.263V423.494L202.888 432.343L196.271 450.81L186.345 456.581V454.349L195.117 449.271L201.657 430.804L218.201 421.263Z" fill="#98A4E0"/>
<path d="M219.278 463.276L212.814 459.505L219.355 441.038L225.818 444.809L219.278 463.276Z" fill="#CCCBF6"/>
<path d="M225.818 444.809L219.354 441.039L235.898 431.498L242.361 435.268L225.818 444.809Z" fill="#EDECF8"/>
<path d="M210.506 468.353L204.042 464.583L212.814 459.504L219.278 463.275L210.506 468.353Z" fill="#EDECF8"/>
<path d="M210.506 470.586L204.042 466.816V464.584L210.506 468.355V470.586Z" fill="#BFBEED"/>
<path d="M242.361 435.268V437.499L227.049 446.348L220.509 464.815L210.506 470.585V468.354L219.278 463.276L225.818 444.809L242.361 435.268Z" fill="#98A4E0"/>
<path d="M243.823 477.203L237.283 473.433L243.9 454.966L250.363 458.737L243.823 477.203Z" fill="#CCCBF6"/>
<path d="M250.364 458.736L243.9 454.966L260.367 445.425L266.907 449.195L250.364 458.736Z" fill="#EDECF8"/>
<path d="M234.975 482.281L228.511 478.511L237.283 473.432L243.823 477.202L234.975 482.281Z" fill="#EDECF8"/>
<path d="M234.975 484.513L228.511 480.743V478.512L234.975 482.282V484.513Z" fill="#BFBEED"/>
<path d="M266.907 449.195V451.426L251.518 460.275L244.977 478.742L234.975 484.513V482.281L243.823 477.203L250.364 458.736L266.907 449.195Z" fill="#98A4E0"/>
<path d="M267.83 491.208L261.367 487.438L267.907 468.971L274.37 472.741L267.83 491.208Z" fill="#CCCBF6"/>
<path d="M274.371 472.741L267.907 468.971L284.45 459.429L290.914 463.2L274.371 472.741Z" fill="#EDECF8"/>
<path d="M258.981 496.286L252.518 492.515L261.367 487.437L267.83 491.207L258.981 496.286Z" fill="#EDECF8"/>
<path d="M259.058 498.518L252.518 494.748V492.516L258.981 496.287L259.058 498.518Z" fill="#BFBEED"/>
<path d="M290.914 463.2V465.431L275.602 474.28L268.984 492.747L259.058 498.518L258.981 496.286L267.83 491.208L274.371 472.741L290.914 463.2Z" fill="#98A4E0"/>
<path d="M448.805 421.418L455.268 417.648L448.728 399.181L442.265 402.951L448.805 421.418Z" fill="#CCCBF6"/>
<path d="M442.265 402.951L448.728 399.181L432.185 389.64L425.722 393.41L442.265 402.951Z" fill="#EDECF8"/>
<path d="M457.577 426.495L464.117 422.725L455.269 417.647L448.805 421.417L457.577 426.495Z" fill="#EDECF8"/>
<path d="M457.577 428.805L464.118 425.035V422.727L457.577 426.497V428.805Z" fill="#BFBEED"/>
<path d="M425.722 393.41V395.718L441.034 404.567L447.574 423.034L457.577 428.805V426.496L448.805 421.418L442.265 402.951L425.722 393.41Z" fill="#98A4E0"/>
<path d="M424.413 435.422L430.877 431.652L424.336 413.185L417.873 416.956L424.413 435.422Z" fill="#CCCBF6"/>
<path d="M417.873 416.956L424.337 413.185L407.793 403.644L401.33 407.414L417.873 416.956Z" fill="#EDECF8"/>
<path d="M433.185 440.5L439.726 436.73L430.877 431.651L424.414 435.422L433.185 440.5Z" fill="#EDECF8"/>
<path d="M433.186 442.732L439.726 438.962V436.731L433.186 440.501V442.732Z" fill="#BFBEED"/>
<path d="M401.33 407.415V409.646L416.642 418.495L423.183 436.962L433.185 442.732V440.501L424.414 435.423L417.873 416.956L401.33 407.415Z" fill="#98A4E0"/>
<path d="M400.253 449.502L406.716 445.732L400.176 427.265L393.635 431.035L400.253 449.502Z" fill="#CCCBF6"/>
<path d="M393.636 431.035L400.176 427.265L383.633 417.724L377.092 421.494L393.636 431.035Z" fill="#EDECF8"/>
<path d="M409.025 454.58L415.488 450.81L406.716 445.731L400.253 449.502L409.025 454.58Z" fill="#EDECF8"/>
<path d="M409.024 456.813L415.488 453.042V450.811L409.024 454.581V456.813Z" fill="#BFBEED"/>
<path d="M377.092 421.494V423.726L392.481 432.651L399.022 451.041L409.025 456.812V454.581L400.253 449.502L393.636 431.035L377.092 421.494Z" fill="#98A4E0"/>
<path d="M376.014 463.506L382.478 459.736L375.938 441.269L369.474 445.04L376.014 463.506Z" fill="#CCCBF6"/>
<path d="M369.474 445.04L375.938 441.269L359.395 431.728L352.931 435.499L369.474 445.04Z" fill="#EDECF8"/>
<path d="M384.863 468.585L391.327 464.814L382.478 459.736L376.015 463.506L384.863 468.585Z" fill="#EDECF8"/>
<path d="M384.786 470.817L391.326 467.047V464.815L384.863 468.585L384.786 470.817Z" fill="#BFBEED"/>
<path d="M352.931 435.499V437.73L368.243 446.656L374.861 465.046L384.786 470.816L384.863 468.585L376.015 463.507L369.474 445.04L352.931 435.499Z" fill="#98A4E0"/>
<path d="M351.546 477.434L358.01 473.664L351.469 455.197L345.006 458.968L351.546 477.434Z" fill="#CCCBF6"/>
<path d="M345.006 458.968L351.47 455.197L334.926 445.656L328.463 449.426L345.006 458.968Z" fill="#EDECF8"/>
<path d="M360.318 482.512L366.859 478.741L358.01 473.663L351.546 477.433L360.318 482.512Z" fill="#EDECF8"/>
<path d="M360.318 484.745L366.781 480.974L366.858 478.743L360.318 482.513V484.745Z" fill="#BFBEED"/>
<path d="M328.463 449.427V451.658L343.775 460.507L350.315 478.973L360.318 484.744V482.513L351.546 477.435L345.006 458.968L328.463 449.427Z" fill="#98A4E0"/>
<path d="M327.539 491.439L334.003 487.669L327.462 469.202L320.922 472.972L327.539 491.439Z" fill="#CCCBF6"/>
<path d="M320.922 472.972L327.462 469.202L310.919 459.66L304.379 463.431L320.922 472.972Z" fill="#EDECF8"/>
<path d="M336.311 496.516L342.775 492.746L334.003 487.668L327.54 491.438L336.311 496.516Z" fill="#EDECF8"/>
<path d="M336.311 498.749L342.774 494.979V492.747L336.311 496.518V498.749Z" fill="#BFBEED"/>
<path d="M304.379 463.431V465.663L319.768 474.588L326.308 492.978L336.311 498.749V496.518L327.539 491.439L320.922 472.972L304.379 463.431Z" fill="#98A4E0"/>
<path d="M227.973 377.174L233.205 380.174L297.146 417.108V336.931L227.973 377.174Z" fill="#DDDEFA"/>
<path d="M297.146 336.931V417.108L297.608 417.416L361.627 380.174L366.859 377.174L297.146 336.931Z" fill="#CCCBF6"/>
<path d="M361.627 380.175L297.608 417.416L233.205 380.175L297.147 343.01L361.627 380.175Z" fill="#F47300"/>
<path d="M361.626 380.175L297.608 417.416L233.205 380.175L297.146 343.01L361.626 380.175Z" fill="#F47300"/>
<path d="M332.002 374.636V378.56L324.385 382.946V379.099L332.002 374.636Z" fill="#DDDEFA"/>
<path d="M324.385 379.099V382.946L290.452 363.325V359.478L324.385 379.099Z" fill="#CCCBF6"/>
<path d="M332.002 374.635L324.385 379.098L290.452 359.477L298.069 355.014L332.002 374.635Z" fill="#F8F9FC"/>
<path d="M294.222 381.022V384.869C292.221 384.33 290.298 383.792 288.528 383.33C286.681 382.868 284.989 382.407 283.45 382.022C281.911 381.637 280.526 381.253 279.372 381.022C278.217 380.714 277.294 380.483 276.602 380.329V376.482C277.294 376.636 278.217 376.867 279.372 377.174C280.526 377.482 281.911 377.79 283.45 378.175C284.989 378.559 286.681 379.021 288.528 379.483C290.298 380.021 292.221 380.483 294.222 381.022Z" fill="#4F389E"/>
<mask id="mask0_3_8732" style="mask-type:luminance" maskUnits="userSpaceOnUse" x="276" y="376" width="19" height="9">
<path d="M294.222 381.022V384.869C292.221 384.33 290.298 383.792 288.528 383.33C286.681 382.868 284.989 382.407 283.45 382.022C281.911 381.637 280.526 381.253 279.372 381.022C278.217 380.714 277.294 380.483 276.602 380.329V376.482C277.294 376.636 278.217 376.867 279.372 377.174C280.526 377.482 281.911 377.79 283.45 378.175C284.989 378.559 286.681 379.021 288.528 379.483C290.298 380.021 292.221 380.483 294.222 381.022Z" fill="white"/>
</mask>
<g mask="url(#mask0_3_8732)">
<path d="M294.222 381.022V384.869C292.221 384.33 290.298 383.792 288.528 383.33C286.681 382.868 284.989 382.407 283.45 382.022C281.911 381.637 280.526 381.253 279.372 381.022C278.217 380.714 277.294 380.483 276.602 380.329V376.482C277.294 376.636 278.217 376.867 279.372 377.174C280.526 377.482 281.911 377.79 283.45 378.175C284.989 378.559 286.681 379.021 288.528 379.483C290.298 380.021 292.221 380.483 294.222 381.022Z" fill="#CCCBF6"/>
</g>
<path d="M307.072 384.946V388.793C305.379 388.331 303.763 387.87 302.07 387.408V383.561C303.763 384.022 305.456 384.484 307.072 384.946Z" fill="#4F389E"/>
<mask id="mask1_3_8732" style="mask-type:luminance" maskUnits="userSpaceOnUse" x="302" y="383" width="6" height="6">
<path d="M307.072 384.946V388.793C305.379 388.331 303.763 387.87 302.07 387.408V383.561C303.763 384.022 305.456 384.484 307.072 384.946Z" fill="white"/>
</mask>
<g mask="url(#mask1_3_8732)">
<path d="M307.072 384.946V388.793C305.379 388.331 303.763 387.87 302.07 387.408V383.561C303.763 384.022 305.456 384.484 307.072 384.946Z" fill="#CCCBF6"/>
</g>
<path d="M311.92 386.33V390.177C310.381 389.716 308.765 389.254 307.072 388.792V384.945C308.765 385.407 310.381 385.868 311.92 386.33Z" fill="#4F389E"/>
<mask id="mask2_3_8732" style="mask-type:luminance" maskUnits="userSpaceOnUse" x="307" y="384" width="5" height="7">
<path d="M311.92 386.33V390.177C310.381 389.716 308.765 389.254 307.072 388.792V384.945C308.765 385.407 310.381 385.868 311.92 386.33Z" fill="white"/>
</mask>
<g mask="url(#mask2_3_8732)">
<path d="M311.92 386.33V390.177C310.381 389.716 308.765 389.254 307.072 388.792V384.945C308.765 385.407 310.381 385.868 311.92 386.33Z" fill="#CCCBF6"/>
</g>
<path d="M320.076 381.56V385.484L311.919 390.178V386.33L320.076 381.56Z" fill="#DDDEFA"/>
<path d="M302.071 383.484V387.408L288.913 395.025V391.178L302.071 383.484Z" fill="#DDDEFA"/>
<path d="M285.912 401.412V405.259C283.527 402.412 281.372 399.719 279.372 397.334C277.371 394.872 275.601 392.563 273.909 390.332C272.216 388.101 270.754 385.946 269.292 383.945C267.907 381.945 266.599 379.867 265.368 377.867V374.02C266.599 376.02 267.907 378.098 269.292 380.098C270.677 382.176 272.216 384.253 273.909 386.485C275.524 388.716 277.371 391.024 279.372 393.487C281.372 395.949 283.527 398.565 285.912 401.412Z" fill="#4F389E"/>
<mask id="mask3_3_8732" style="mask-type:luminance" maskUnits="userSpaceOnUse" x="265" y="374" width="21" height="32">
<path d="M285.912 401.412V405.259C283.527 402.412 281.372 399.719 279.372 397.334C277.371 394.872 275.601 392.563 273.909 390.332C272.216 388.101 270.754 385.946 269.292 383.945C267.907 381.945 266.599 379.867 265.368 377.867V374.02C266.599 376.02 267.907 378.098 269.292 380.098C270.677 382.176 272.216 384.253 273.909 386.485C275.524 388.716 277.371 391.024 279.372 393.487C281.372 395.949 283.527 398.565 285.912 401.412Z" fill="white"/>
</mask>
<g mask="url(#mask3_3_8732)">
<path d="M285.912 401.412V405.259C283.527 402.412 281.372 399.719 279.372 397.334C277.371 394.872 275.601 392.563 273.909 390.332C272.216 388.101 270.754 385.946 269.292 383.945C267.907 381.945 266.599 379.867 265.368 377.867V374.02C266.599 376.02 267.907 378.098 269.292 380.098C270.677 382.176 272.216 384.253 273.909 386.485C275.524 388.716 277.371 391.024 279.372 393.487C281.372 395.949 283.527 398.565 285.912 401.412Z" fill="#CCCBF6"/>
</g>
<path d="M293.761 396.872V400.719L285.912 405.336V401.412L293.761 396.872Z" fill="#DDDEFA"/>
<path d="M307.072 384.945C305.379 384.484 303.763 384.022 302.07 383.56L288.913 391.255C289.759 392.255 290.528 393.179 291.375 394.179C292.221 395.179 292.991 396.103 293.837 396.949L285.989 401.566C283.603 398.719 281.449 396.026 279.448 393.64C277.448 391.178 275.678 388.87 273.985 386.638C272.292 384.407 270.83 382.252 269.369 380.252C267.984 378.251 266.675 376.174 265.444 374.173L272.677 370.018C276.14 370.711 279.602 371.48 283.142 372.249C286.681 373.019 290.375 373.942 294.222 374.866C298.069 375.789 302.07 376.866 306.379 378.02C310.611 379.175 315.228 380.406 320.152 381.791L311.996 386.484C310.38 385.869 308.765 385.407 307.072 384.945ZM284.604 386.638L294.222 381.021C292.221 380.483 290.298 379.944 288.528 379.482C286.681 379.021 284.988 378.559 283.45 378.174C281.911 377.79 280.526 377.405 279.371 377.174C278.217 376.866 277.294 376.635 276.601 376.481C276.909 376.866 277.371 377.405 277.909 378.097C278.448 378.79 279.064 379.559 279.756 380.406C280.449 381.252 281.218 382.252 282.065 383.33C282.757 384.407 283.603 385.484 284.604 386.638Z" fill="#F8F9FC"/>
<path d="M298.147 538.835L68.1572 406.028L296.685 273.22L526.751 406.028L298.147 538.835ZM74.2359 406.028L298.147 535.296L520.595 406.028L296.685 276.76L74.2359 406.028Z" fill="#4F389E"/>
<path d="M103.783 424.803L86.7777 434.652C86.5469 434.806 86.2391 434.806 86.0083 434.652L68.5417 424.572L11.91 457.274L6.60073 460.352C6.44684 460.429 6.36989 460.429 6.216 460.429C5.90822 460.429 5.67739 460.275 5.5235 460.044C5.29266 459.659 5.44655 459.198 5.83128 458.967L10.2941 456.428L68.157 423.033C68.3878 422.879 68.6956 422.879 68.9264 423.033L86.393 433.113L102.167 423.957L103.783 424.803Z" fill="#4F389E"/>
<path d="M240.976 502.44L238.283 503.979L222.817 512.905C222.586 513.059 222.279 513.059 222.048 512.905L204.581 502.825L182.575 515.521L180.959 516.444L147.488 535.758L142.64 538.528C142.486 538.605 142.409 538.605 142.256 538.605C141.948 538.605 141.717 538.451 141.563 538.22C141.332 537.835 141.486 537.373 141.871 537.143L146.18 534.68L179.343 515.521L180.959 514.598L204.197 501.209C204.427 501.055 204.735 501.055 204.966 501.209L222.433 511.289L236.667 503.056L239.36 501.517L240.976 502.44Z" fill="#4F389E"/>
<path d="M188.038 471.893L185.345 473.432L170.264 482.127C170.033 482.281 169.725 482.281 169.494 482.127L152.028 472.047L129.559 484.974L127.944 485.897L95.7805 504.441L90.0866 507.75C89.9327 507.827 89.8557 507.826 89.7018 507.826C89.3941 507.826 89.1632 507.673 89.0093 507.442C88.7785 507.057 88.9324 506.595 89.3171 506.365L94.5494 503.364L126.405 484.974L128.021 484.05L151.643 470.431C151.874 470.277 152.181 470.277 152.412 470.431L169.879 480.511L183.729 472.509L186.422 470.97L188.038 471.893Z" fill="#4F389E"/>
<path d="M145.795 447.502L143.102 449.041L86.2393 481.896L81.9303 484.359C81.7764 484.436 81.6995 484.436 81.5456 484.436C81.2378 484.436 81.007 484.282 80.8531 484.051C80.6223 483.666 80.7761 483.205 81.1609 482.974L84.7004 480.896L141.486 448.117L144.179 446.579L145.795 447.502Z" fill="#4F389E"/>
<path d="M260.443 513.676L257.75 515.214L201.657 547.608L197.348 550.148C197.194 550.224 197.117 550.225 196.964 550.225C196.656 550.225 196.425 550.071 196.271 549.84C196.04 549.455 196.194 548.993 196.579 548.763L200.118 546.762L256.211 514.368L258.904 512.829L260.443 513.676Z" fill="#4F389E"/>
<path d="M206.12 482.358L203.427 483.897L165.57 505.749L163.954 506.673L146.795 516.599L142.333 519.215C142.179 519.292 142.102 519.292 141.948 519.292C141.64 519.292 141.409 519.138 141.255 518.907C141.025 518.522 141.178 518.061 141.563 517.83L145.257 515.675L162.338 505.826L163.954 504.903L201.811 483.051L204.504 481.512L206.12 482.358Z" fill="#4F389E"/>
<path d="M205.274 528.756L184.037 540.991L178.112 544.453L177.343 543.068L182.652 539.99L202.042 528.756L180.882 516.522L179.343 515.599L163.954 506.75L162.338 505.827L128.021 485.975L126.405 485.051L112.401 476.972L151.643 454.042L154.336 452.427L155.875 453.35L153.259 454.966L115.633 476.972L128.021 484.128L129.637 485.051L163.954 504.826L165.57 505.827L180.882 514.675L182.498 515.599L205.274 528.756Z" fill="#4F389E"/>
<path d="M11.2177 456.812C13.603 458.197 13.603 460.429 11.2177 461.814C8.83238 463.199 4.90817 463.199 2.52286 461.814C0.137561 460.429 0.137561 458.197 2.52286 456.812C4.98511 455.427 8.83238 455.427 11.2177 456.812Z" fill="#4F389E"/>
<path d="M116.787 454.426C116.787 454.734 116.633 454.965 116.402 455.119L67.6957 483.204L63.2329 485.743C63.079 485.897 62.9251 485.897 62.7712 485.897C62.4634 485.897 62.2326 485.743 62.0787 485.512C61.9248 485.128 62.0018 484.666 62.3865 484.435L66.0799 482.281L114.401 454.426L96.4732 444.039C96.2424 443.885 96.0885 443.654 96.0885 443.346C96.0885 443.038 96.2424 442.808 96.4732 442.654L114.248 432.42L116.941 430.881L118.557 431.804L115.863 433.343L98.5508 443.346L116.479 453.734C116.71 453.811 116.787 454.119 116.787 454.426Z" fill="#4F389E"/>
<path d="M66.849 482.665C69.2343 484.05 69.2343 486.282 66.849 487.667C64.4637 489.052 60.5395 489.052 58.1542 487.667C55.7689 486.282 55.7689 484.05 58.1542 482.665C60.5395 481.28 64.4637 481.28 66.849 482.665Z" fill="#4F389E"/>
<path d="M270.908 542.298C270.908 542.606 270.754 542.836 270.523 542.99L223.048 570.383L217.277 573.692C217.123 573.769 217.046 573.768 216.892 573.768C216.584 573.768 216.354 573.615 216.2 573.384C215.969 572.999 216.123 572.537 216.508 572.307L221.509 569.46L268.523 542.298L250.594 531.91C250.363 531.756 250.21 531.526 250.21 531.218C250.21 530.91 250.363 530.679 250.594 530.525L267.368 520.83L270.061 519.291L271.677 520.215L268.984 521.754L252.595 531.218L270.523 541.605C270.754 541.682 270.908 541.99 270.908 542.298Z" fill="#4F389E"/>
<path d="M217.816 575.769C221.215 575.769 223.971 574.184 223.971 572.229C223.971 570.274 221.215 568.69 217.816 568.69C214.416 568.69 211.66 570.274 211.66 572.229C211.66 574.184 214.416 575.769 217.816 575.769Z" fill="#4F389E"/>
<path d="M85.3158 481.281C87.7011 482.666 87.7011 484.897 85.3158 486.282C82.9305 487.667 79.0063 487.667 76.621 486.282C74.2357 484.897 74.2357 482.666 76.621 481.281C79.0063 479.896 82.9305 479.896 85.3158 481.281Z" fill="#4F389E"/>
<path d="M94.5492 503.365C96.9345 504.75 96.9345 506.981 94.5492 508.366C92.1639 509.751 88.2397 509.751 85.8544 508.366C83.4691 506.981 83.4691 504.75 85.8544 503.365C88.2397 501.98 92.1639 501.98 94.5492 503.365Z" fill="#4F389E"/>
<path d="M145.949 516.06C148.334 517.445 148.334 519.677 145.949 521.062C143.564 522.447 139.64 522.447 137.254 521.062C134.869 519.677 134.869 517.445 137.254 516.06C139.717 514.675 143.564 514.675 145.949 516.06Z" fill="#4F389E"/>
<path d="M141.871 540.837C145.271 540.837 148.027 539.252 148.027 537.297C148.027 535.342 145.271 533.758 141.871 533.758C138.471 533.758 135.715 535.342 135.715 537.297C135.715 539.252 138.471 540.837 141.871 540.837Z" fill="#4F389E"/>
<path d="M178.574 546.146C181.973 546.146 184.729 544.561 184.729 542.606C184.729 540.651 181.973 539.067 178.574 539.067C175.174 539.067 172.418 540.651 172.418 542.606C172.418 544.561 175.174 546.146 178.574 546.146Z" fill="#4F389E"/>
<path d="M200.965 547.146C203.35 548.531 203.35 550.763 200.965 552.148C198.579 553.533 194.655 553.533 192.27 552.148C189.885 550.763 189.885 548.531 192.27 547.146C194.655 545.761 198.579 545.761 200.965 547.146Z" fill="#4F389E"/>
<path d="M539.37 480.358C539.217 480.589 538.986 480.743 538.678 480.743C538.524 480.743 538.37 480.743 538.293 480.666L533.369 477.819L485.047 449.888C484.816 449.734 484.662 449.503 484.662 449.195C484.662 448.888 484.816 448.657 485.047 448.503L502.975 438.115L486.894 428.805L484.201 427.266L485.817 426.343L488.51 427.881L504.976 437.423C505.207 437.577 505.361 437.807 505.361 438.115C505.361 438.423 505.207 438.654 504.976 438.808L487.048 449.195L535.138 476.972L539.063 479.204C539.447 479.512 539.601 479.973 539.37 480.358Z" fill="#4F389E"/>
<path d="M372.553 577.002C372.399 577.233 372.168 577.387 371.86 577.387C371.707 577.387 371.553 577.387 371.476 577.31L366.705 574.54L318.23 546.532C317.999 546.378 317.845 546.147 317.845 545.839C317.845 545.532 317.999 545.301 318.23 545.147L336.158 534.759L320.384 525.68L317.691 524.141L319.307 523.218L322 524.756L338.158 534.067C338.389 534.221 338.543 534.452 338.543 534.759C338.543 535.067 338.389 535.298 338.158 535.452L320.23 545.839L368.552 573.771L372.245 575.925C372.63 576.079 372.707 576.541 372.553 577.002Z" fill="#4F389E"/>
<path d="M454.808 525.065C454.654 525.295 454.346 525.449 454.115 525.449C453.961 525.449 453.807 525.449 453.73 525.372L449.267 522.833L412.565 501.673C412.334 501.519 412.18 501.288 412.18 500.981C412.18 500.673 412.334 500.442 412.565 500.288L426.184 492.44L413.95 485.207L412.334 484.284L402.1 478.205L399.484 476.666L401.1 475.743L403.793 477.282L414.027 483.36L415.642 484.284L428.261 491.747C428.492 491.901 428.646 492.132 428.646 492.44C428.646 492.748 428.492 492.978 428.261 493.132L414.642 500.981L451.499 522.218L454.577 523.987C454.884 524.218 455.038 524.68 454.808 525.065Z" fill="#4F389E"/>
<path d="M521.365 522.985C521.211 523.216 520.98 523.37 520.672 523.37C520.518 523.37 520.365 523.37 520.288 523.293L515.517 520.523L448.652 481.897C448.421 481.743 448.267 481.512 448.267 481.204C448.267 480.896 448.421 480.665 448.652 480.512L473.197 466.354L447.728 451.657L445.035 450.118L446.651 449.195L449.344 450.734L475.198 465.661C475.429 465.815 475.582 466.046 475.582 466.354C475.582 466.661 475.429 466.892 475.198 467.046L450.652 481.204L517.364 519.754L521.057 521.908C521.519 522.062 521.596 522.601 521.365 522.985Z" fill="#4F389E"/>
<path d="M449.652 543.147C449.498 543.378 449.267 543.532 448.96 543.532C448.806 543.532 448.652 543.532 448.575 543.455L444.497 541.069L397.175 513.754L371.091 528.835C370.86 528.989 370.552 528.989 370.322 528.835L342.621 512.83L339.928 511.292L341.544 510.368L344.237 511.907L370.783 527.219L396.868 512.138C397.099 511.984 397.406 511.984 397.637 512.138L446.19 540.146L449.421 542.07C449.729 542.224 449.883 542.762 449.652 543.147Z" fill="#4F389E"/>
<path d="M520.672 478.974C520.518 479.205 520.288 479.359 519.98 479.359C519.826 479.359 519.672 479.359 519.595 479.282L514.978 476.589L459.732 444.733L457.039 443.194L458.654 442.271L461.348 443.81L516.748 475.742L520.441 477.897C520.749 478.051 520.903 478.589 520.672 478.974Z" fill="#4F389E"/>
<path d="M563.377 453.967C563.223 454.197 562.916 454.351 562.685 454.351C562.531 454.351 562.377 454.274 562.3 454.274L557.222 451.35L502.591 419.803L499.897 418.264L501.513 417.341L504.206 418.879L558.761 450.35L563.07 452.812C563.454 453.043 563.608 453.582 563.377 453.967Z" fill="#4F389E"/>
<path d="M471.043 507.212C470.889 507.443 470.581 507.597 470.35 507.597C470.196 507.597 470.043 507.597 469.966 507.52L464.964 504.673L422.644 480.204L421.028 479.281L410.641 473.279L407.948 471.74L409.564 470.817L412.257 472.356L422.644 478.358L424.26 479.281L466.426 503.596L470.735 506.135C471.12 506.289 471.274 506.828 471.043 507.212Z" fill="#4F389E"/>
<path d="M390.943 553.918C390.789 554.149 390.558 554.303 390.25 554.303C390.096 554.303 389.942 554.303 389.865 554.226L385.249 551.533L330.464 519.909L327.771 518.37L329.386 517.446L332.079 518.985L387.018 550.687L390.712 552.841C391.02 553.072 391.173 553.534 390.943 553.918Z" fill="#4F389E"/>
<path d="M450.037 464.354L424.26 479.282L422.644 480.205L415.565 484.283L413.949 485.206L381.556 503.904L376.708 506.674L375.938 505.289L380.247 502.75L412.334 484.283L413.949 483.36L421.028 479.282L422.644 478.281L446.805 464.354L436.341 458.275L433.647 456.737L435.263 455.813L437.956 457.352L450.037 464.354Z" fill="#4F389E"/>
<path d="M375.477 574.462C377.862 575.847 377.862 578.079 375.477 579.464C373.092 580.849 369.167 580.849 366.782 579.464C364.397 578.079 364.397 575.847 366.782 574.462C369.167 573.077 373.092 573.077 375.477 574.462Z" fill="#4F389E"/>
<path d="M394.329 551.225C396.714 552.61 396.714 554.841 394.329 556.226C391.943 557.611 388.019 557.611 385.634 556.226C383.248 554.841 383.248 552.61 385.634 551.225C388.096 549.84 391.943 549.84 394.329 551.225Z" fill="#4F389E"/>
<path d="M380.324 502.828C382.709 504.213 382.709 506.444 380.324 507.829C377.939 509.214 374.015 509.214 371.629 507.829C369.244 506.444 369.244 504.213 371.629 502.828C374.015 501.443 377.939 501.443 380.324 502.828Z" fill="#4F389E"/>
<path d="M449.498 546.608C452.898 546.608 455.654 545.023 455.654 543.068C455.654 541.113 452.898 539.529 449.498 539.529C446.099 539.529 443.343 541.113 443.343 543.068C443.343 545.023 446.099 546.608 449.498 546.608Z" fill="#4F389E"/>
<path d="M452.884 529.22C456.283 529.22 459.039 527.635 459.039 525.681C459.039 523.726 456.283 522.141 452.884 522.141C449.484 522.141 446.728 523.726 446.728 525.681C446.728 527.635 449.484 529.22 452.884 529.22Z" fill="#4F389E"/>
<path d="M474.659 503.827C477.044 505.212 477.044 507.444 474.659 508.829C472.274 510.214 468.35 510.214 465.964 508.829C463.579 507.444 463.579 505.212 465.964 503.827C468.427 502.442 472.274 502.442 474.659 503.827Z" fill="#4F389E"/>
<path d="M524.366 520.446C526.751 521.831 526.751 524.063 524.366 525.448C521.98 526.833 518.056 526.833 515.671 525.448C513.286 524.063 513.286 521.831 515.671 520.446C518.133 519.061 521.98 519.061 524.366 520.446Z" fill="#4F389E"/>
<path d="M524.135 476.28C526.52 477.665 526.52 479.896 524.135 481.281C521.75 482.666 517.826 482.666 515.44 481.281C513.055 479.896 513.055 477.665 515.44 476.28C517.826 474.895 521.75 474.895 524.135 476.28Z" fill="#4F389E"/>
<path d="M542.371 477.667C544.757 479.052 544.757 481.283 542.371 482.668C539.986 484.053 536.062 484.053 533.677 482.668C531.291 481.283 531.291 479.052 533.677 477.667C536.062 476.282 539.986 476.282 542.371 477.667Z" fill="#4F389E"/>
<path d="M566.763 450.736C569.148 452.121 569.148 454.352 566.763 455.737C564.377 457.122 560.453 457.122 558.068 455.737C555.682 454.352 555.682 452.121 558.068 450.736C560.453 449.351 564.377 449.351 566.763 450.736Z" fill="#4F389E"/>
<path d="M238.591 256.908C238.591 257.216 238.437 257.447 238.206 257.601L225.433 265.218L223.894 266.219L207.889 275.837L206.274 276.76L191.269 285.763L233.512 310.154L236.205 311.693L234.589 312.617L231.896 311.078L189.346 286.455C189.115 286.301 188.961 286.07 188.961 285.763C188.961 285.455 189.115 285.224 189.346 285.07L204.735 275.837L206.351 274.913L222.355 265.295L223.971 264.372L236.359 256.985L212.66 243.289L208.505 240.981C208.12 240.75 207.966 240.288 208.197 239.903C208.428 239.519 208.89 239.365 209.274 239.596L214.045 242.366L238.206 256.293C238.437 256.37 238.591 256.677 238.591 256.908Z" fill="#4F389E"/>
<path d="M94.3183 392.563L52.8448 368.633L70.7731 358.246C71.0039 358.092 71.1578 357.861 71.1578 357.553C71.1578 357.245 71.0039 357.015 70.7731 356.861L46.4584 342.78L41.9186 340.164C41.5339 339.933 41.0722 340.087 40.8414 340.471C40.6105 340.856 40.7644 341.318 41.1491 341.549L44.6117 343.549L68.8494 357.553L50.9212 367.941C50.6904 368.095 50.5365 368.326 50.5365 368.633C50.5365 368.941 50.6904 369.172 50.9212 369.326L92.7794 393.487L94.3183 392.563Z" fill="#4F389E"/>
<path d="M178.65 345.088L177.035 346.012L174.341 344.473L145.487 327.853C145.256 327.699 145.102 327.468 145.102 327.16C145.102 326.852 145.256 326.621 145.487 326.468L159.106 318.619L125.866 299.075L122.711 297.228C122.326 296.998 122.173 296.536 122.403 296.151C122.634 295.766 123.096 295.612 123.481 295.843L127.482 298.229L161.107 318.004C161.338 318.157 161.492 318.388 161.492 318.696C161.492 319.004 161.338 319.235 161.107 319.389L147.488 327.237L175.88 343.626L178.65 345.088Z" fill="#4F389E"/>
<path d="M214.661 324.16L213.045 325.083L210.429 323.544L165.57 297.69C165.339 297.536 165.185 297.306 165.185 296.998C165.185 296.69 165.339 296.459 165.57 296.305L185.345 284.841L160.183 270.298L154.874 267.22C154.49 266.989 154.336 266.528 154.566 266.143C154.797 265.758 155.259 265.604 155.644 265.835L161.722 269.374L187.345 284.148C187.576 284.302 187.73 284.533 187.73 284.841C187.73 285.148 187.576 285.379 187.345 285.533L167.57 296.998L212.045 322.621L214.661 324.16Z" fill="#4F389E"/>
<path d="M158.337 356.86L156.721 357.783L154.028 356.245L124.789 339.317L103.859 351.397C103.629 351.551 103.321 351.551 103.09 351.397L74.6971 335.085L71.2346 333.084C70.8499 332.853 70.696 332.392 70.9268 332.007C71.1577 331.622 71.6193 331.468 72.0041 331.699L76.1591 334.084L103.398 349.781L124.327 337.701C124.558 337.547 124.865 337.547 125.096 337.701L155.567 355.321L158.337 356.86Z" fill="#4F389E"/>
<path d="M252.979 301.922L251.363 302.845L248.67 301.306L206.197 276.838L204.658 275.837L191.5 268.22L188.114 266.219C187.73 265.988 187.576 265.527 187.807 265.142C188.038 264.757 188.499 264.603 188.884 264.834L193.27 267.373L206.197 274.837L207.812 275.761L250.286 300.306L252.979 301.922Z" fill="#4F389E"/>
<path d="M270.908 291.457L269.292 292.381L266.599 290.842L223.894 266.219L222.279 265.296L172.88 236.749L170.341 235.287C169.956 235.056 169.802 234.595 170.033 234.21C170.264 233.825 170.725 233.671 171.11 233.902L174.88 236.057L223.894 264.296L225.51 265.219L268.292 289.918L270.908 291.457Z" fill="#4F389E"/>
<path d="M205.966 329.238L204.35 330.161L201.657 328.622L145.025 295.921L141.255 293.766C140.87 293.535 140.716 293.074 140.947 292.689C141.178 292.304 141.64 292.15 142.025 292.381L146.795 295.151L203.273 327.776L205.966 329.238Z" fill="#4F389E"/>
<path d="M126.328 375.482L124.712 376.405L122.019 374.866L96.7039 360.247L90.6252 356.784C90.2405 356.553 90.0866 356.091 90.3174 355.707C90.5483 355.322 91.0099 355.168 91.3947 355.399L98.3197 359.4L123.558 373.943L126.328 375.482Z" fill="#4F389E"/>
<path d="M46.3046 337.856C48.6899 339.241 48.6899 341.472 46.3046 342.857C43.9193 344.242 39.9951 344.242 37.6098 342.857C35.2245 341.472 35.2245 339.241 37.6098 337.856C40.072 336.471 43.9193 336.471 46.3046 337.856Z" fill="#4F389E"/>
<path d="M93.5492 360.786C96.9488 360.786 99.7048 359.201 99.7048 357.246C99.7048 355.291 96.9488 353.707 93.5492 353.707C90.1495 353.707 87.3936 355.291 87.3936 357.246C87.3936 359.201 90.1495 360.786 93.5492 360.786Z" fill="#4F389E"/>
<path d="M70.85 335.855C74.2496 335.855 77.0056 334.271 77.0056 332.316C77.0056 330.361 74.2496 328.776 70.85 328.776C67.4503 328.776 64.6943 330.361 64.6943 332.316C64.6943 334.271 67.4503 335.855 70.85 335.855Z" fill="#4F389E"/>
<path d="M127.02 293.458C129.405 294.843 129.405 297.075 127.02 298.46C124.635 299.845 120.71 299.845 118.325 298.46C115.94 297.075 115.94 294.843 118.325 293.458C120.71 292.073 124.558 292.073 127.02 293.458Z" fill="#4F389E"/>
<path d="M84.7773 317.926C87.1626 319.311 87.1626 321.542 84.7773 322.927C82.3919 324.312 78.4677 324.312 76.0824 322.927C73.6971 321.542 73.6971 319.311 76.0824 317.926C78.4677 316.541 82.315 316.541 84.7773 317.926Z" fill="#4F389E"/>
<path d="M168.955 350.705L167.339 351.629L164.646 350.09L97.5501 311.386L85.3927 318.388L80.776 321.004C80.3913 321.235 79.9296 321.081 79.6988 320.697C79.468 320.312 79.6218 319.85 80.0066 319.619L83.7769 317.465L97.1654 309.77C97.3962 309.617 97.704 309.617 97.9348 309.77L166.185 349.166L168.955 350.705Z" fill="#4F389E"/>
<path d="M281.065 285.609L279.449 286.533L276.756 284.994L247.593 268.143C247.363 267.989 247.209 267.758 247.209 267.45C247.209 267.143 247.363 266.912 247.593 266.758L261.213 258.909L227.972 239.365L224.818 237.519C224.433 237.288 224.279 236.826 224.51 236.441C224.741 236.057 225.202 235.903 225.587 236.134L229.588 238.519L263.213 258.294C263.444 258.448 263.598 258.679 263.598 258.986C263.598 259.294 263.444 259.525 263.213 259.679L249.594 267.527L278.372 284.147L281.065 285.609Z" fill="#4F389E"/>
<path d="M224.741 239.828C228.14 239.828 230.896 238.244 230.896 236.289C230.896 234.334 228.14 232.749 224.741 232.749C221.341 232.749 218.585 234.334 218.585 236.289C218.585 238.244 221.341 239.828 224.741 239.828Z" fill="#4F389E"/>
<path d="M142.025 296.305C145.424 296.305 148.18 294.72 148.18 292.765C148.18 290.81 145.424 289.226 142.025 289.226C138.625 289.226 135.869 290.81 135.869 292.765C135.869 294.72 138.625 296.305 142.025 296.305Z" fill="#4F389E"/>
<path d="M160.876 264.912C163.262 266.297 163.262 268.528 160.876 269.913C158.491 271.298 154.567 271.298 152.182 269.913C149.796 268.528 149.796 266.297 152.182 264.912C154.644 263.527 158.491 263.527 160.876 264.912Z" fill="#4F389E"/>
<path d="M170.725 236.98C174.125 236.98 176.881 235.395 176.881 233.44C176.881 231.486 174.125 229.901 170.725 229.901C167.325 229.901 164.569 231.486 164.569 233.44C164.569 235.395 167.325 236.98 170.725 236.98Z" fill="#4F389E"/>
<path d="M213.199 237.904C215.584 239.289 215.584 241.52 213.199 242.905C210.814 244.29 206.89 244.29 204.504 242.905C202.119 241.52 202.119 239.289 204.504 237.904C206.89 236.519 210.814 236.519 213.199 237.904Z" fill="#4F389E"/>
<path d="M193.039 262.603C195.425 263.988 195.425 266.219 193.039 267.604C190.654 268.989 186.73 268.989 184.345 267.604C181.959 266.219 181.959 263.988 184.345 262.603C186.73 261.218 190.577 261.218 193.039 262.603Z" fill="#4F389E"/>
<path d="M509.977 349.32C509.977 349.628 509.824 349.859 509.593 350.013L469.504 373.173L466.811 374.712L465.195 373.789L467.888 372.25L507.592 349.32L471.197 327.545L469.581 326.621L460.579 321.235C460.348 321.081 460.194 320.85 460.194 320.543C460.194 320.235 460.348 320.004 460.579 319.85L484.739 305.923L489.51 303.153C489.895 302.922 490.356 303.076 490.587 303.461C490.818 303.845 490.664 304.307 490.279 304.538L486.278 306.846L462.579 320.543L471.12 325.698L472.736 326.621L509.516 348.705C509.824 348.781 509.977 349.089 509.977 349.32Z" fill="#4F389E"/>
<path d="M471.581 298.538L468.427 300.384L435.186 319.928L448.806 327.777C449.036 327.931 449.19 328.162 449.19 328.469C449.19 328.777 449.036 329.008 448.806 329.162L421.105 345.167L418.412 346.705L416.796 345.782L419.489 344.243L446.805 328.469L433.186 320.621C432.955 320.467 432.801 320.236 432.801 319.928C432.801 319.621 432.955 319.39 433.186 319.236L466.811 299.461L470.812 297.076C471.197 296.845 471.658 296.999 471.889 297.384C472.12 297.845 471.966 298.307 471.581 298.538Z" fill="#4F389E"/>
<path d="M437.187 263.604L432.032 266.605L406.024 281.609L426.261 293.305C426.491 293.459 426.645 293.69 426.645 293.997C426.645 294.305 426.491 294.536 426.261 294.69L379.863 321.467L377.17 323.006L375.554 322.082L378.247 320.544L424.183 293.997L403.947 282.302C403.716 282.148 403.562 281.917 403.562 281.609C403.562 281.301 403.716 281.071 403.947 280.917L430.493 265.605L436.264 262.296C436.648 262.065 437.11 262.219 437.341 262.604C437.726 262.912 437.572 263.373 437.187 263.604Z" fill="#4F389E"/>
<path d="M553.22 365.249L549.758 367.249L526.366 380.715C526.135 380.869 525.828 380.869 525.597 380.715L507.976 370.558L486.509 382.946L483.816 384.485L482.2 383.562L484.893 382.023L507.592 368.942C507.823 368.788 508.13 368.788 508.361 368.942L525.982 379.099L547.988 366.403L552.374 363.864C552.759 363.633 553.22 363.787 553.451 364.172C553.759 364.556 553.605 365.018 553.22 365.249Z" fill="#4F389E"/>
<path d="M404.562 267.989L401.177 269.989L345.93 301.922L343.237 303.461L341.621 302.537L344.314 300.998L399.33 269.22L403.716 266.681C404.101 266.45 404.562 266.604 404.793 266.989C405.101 267.219 404.947 267.758 404.562 267.989Z" fill="#4F389E"/>
<path d="M424.029 236.673L421.49 238.135L328.54 291.766L325.847 293.305L324.231 292.382L326.925 290.843L419.49 237.443L423.26 235.288C423.645 235.058 424.106 235.211 424.337 235.596C424.568 235.981 424.414 236.52 424.029 236.673Z" fill="#4F389E"/>
<path d="M453.038 295.074L449.267 297.228L393.713 329.314L391.02 330.853L389.404 329.93L392.097 328.391L447.498 296.382L452.268 293.612C452.653 293.381 453.115 293.535 453.345 293.919C453.576 294.381 453.422 294.92 453.038 295.074Z" fill="#4F389E"/>
<path d="M392.789 294.382L386.711 297.845L362.858 311.618L360.165 313.157L358.549 312.234L361.242 310.695L385.018 296.999L391.943 292.997C392.328 292.767 392.789 292.92 393.02 293.305C393.328 293.69 393.174 294.152 392.789 294.382Z" fill="#4F389E"/>
<path d="M390.019 298.382C393.419 298.382 396.175 296.798 396.175 294.843C396.175 292.888 393.419 291.303 390.019 291.303C386.62 291.303 383.864 292.888 383.864 294.843C383.864 296.798 386.62 298.382 390.019 298.382Z" fill="#4F389E"/>
<path d="M548.373 361.632C545.988 363.017 545.988 365.249 548.373 366.634C550.758 368.019 554.683 368.019 557.068 366.634C559.453 365.249 559.453 363.017 557.068 361.632C554.683 360.247 550.758 360.247 548.373 361.632Z" fill="#4F389E"/>
<path d="M467.272 294.844C464.887 296.229 464.887 298.461 467.272 299.846C469.658 301.231 473.582 301.231 475.967 299.846C478.352 298.461 478.352 296.229 475.967 294.844C473.582 293.459 469.658 293.459 467.272 294.844Z" fill="#4F389E"/>
<path d="M509.516 319.312C507.13 320.697 507.13 322.929 509.516 324.314C511.901 325.699 515.825 325.699 518.21 324.314C520.596 322.929 520.596 320.697 518.21 319.312C515.825 317.927 511.978 317.927 509.516 319.312Z" fill="#4F389E"/>
<path d="M514.517 322.158C514.286 322.543 513.825 322.697 513.44 322.466L508.823 319.85L496.666 312.848L472.736 326.698L471.12 327.621L430.801 350.936L428.108 352.475L426.492 351.551L429.185 350.012L469.581 326.698L471.197 325.775L496.281 311.309C496.512 311.155 496.82 311.155 497.051 311.309L510.439 319.004L514.209 321.158C514.594 321.235 514.748 321.774 514.517 322.158Z" fill="#4F389E"/>
<path d="M369.552 238.905L366.397 240.752L333.08 260.296L346.699 268.144C346.93 268.298 347.084 268.529 347.084 268.837C347.084 269.144 346.93 269.375 346.699 269.529L318.383 285.918L315.69 287.457L305.61 293.305C305.457 293.382 305.38 293.382 305.226 293.382C304.918 293.382 304.687 293.228 304.533 292.997C304.302 292.613 304.456 292.151 304.841 291.92L314.151 286.534L316.845 284.995L344.776 268.837L331.156 260.988C330.925 260.834 330.772 260.603 330.772 260.296C330.772 259.988 330.925 259.757 331.156 259.603L364.781 239.828L368.783 237.443C369.167 237.212 369.629 237.366 369.86 237.751C370.014 238.135 369.937 238.674 369.552 238.905Z" fill="#4F389E"/>
<path d="M365.243 235.212C362.858 236.597 362.858 238.828 365.243 240.213C367.628 241.598 371.553 241.598 373.938 240.213C376.323 238.828 376.323 236.597 373.938 235.212C371.553 233.827 367.628 233.827 365.243 235.212Z" fill="#4F389E"/>
<path d="M447.882 291.689C445.497 293.074 445.497 295.305 447.882 296.69C450.268 298.075 454.192 298.075 456.577 296.69C458.962 295.305 458.962 293.074 456.577 291.689C454.192 290.304 450.268 290.304 447.882 291.689Z" fill="#4F389E"/>
<path d="M436.11 267.527C439.509 267.527 442.265 265.943 442.265 263.988C442.265 262.033 439.509 260.448 436.11 260.448C432.71 260.448 429.954 262.033 429.954 263.988C429.954 265.943 432.71 267.527 436.11 267.527Z" fill="#4F389E"/>
<path d="M419.259 232.364C416.873 233.749 416.873 235.98 419.259 237.365C421.644 238.75 425.568 238.75 427.954 237.365C430.339 235.98 430.339 233.749 427.954 232.364C425.568 230.979 421.644 230.979 419.259 232.364Z" fill="#4F389E"/>
<path d="M489.972 307.54C493.371 307.54 496.127 305.955 496.127 304.001C496.127 302.046 493.371 300.461 489.972 300.461C486.572 300.461 483.816 302.046 483.816 304.001C483.816 305.955 486.572 307.54 489.972 307.54Z" fill="#4F389E"/>
<path d="M399.638 264.295C397.252 265.68 397.252 267.912 399.638 269.297C402.023 270.682 405.947 270.682 408.332 269.297C410.718 267.912 410.718 265.68 408.332 264.295C405.947 262.91 402.023 262.91 399.638 264.295Z" fill="#4F389E"/>
<path d="M214.969 291.533L201.658 283.762C200.196 282.915 199.118 281.223 198.657 278.606L211.968 286.378C212.43 288.994 213.507 290.687 214.969 291.533Z" fill="#E3E2F2"/>
<mask id="mask4_3_8732" style="mask-type:luminance" maskUnits="userSpaceOnUse" x="198" y="278" width="17" height="14">
<path d="M214.969 291.533L201.658 283.762C200.196 282.915 199.118 281.223 198.657 278.606L211.968 286.378C212.43 288.994 213.507 290.687 214.969 291.533Z" fill="white"/>
</mask>
<g mask="url(#mask4_3_8732)">
<path d="M214.969 291.533L201.657 283.762C200.195 282.915 199.118 281.223 198.733 278.606L212.045 286.378C212.43 288.994 213.507 290.687 214.969 291.533Z" fill="#E3E2F2"/>
<path d="M211.968 286.378L198.657 278.606L211.968 286.378Z" fill="#E3E2F2"/>
</g>
<path d="M226.434 152.34L239.745 160.111C235.821 157.88 230.435 158.11 224.433 161.65L211.122 153.878C217.123 150.339 222.509 150.031 226.434 152.34Z" fill="#E3E2F2"/>
<mask id="mask5_3_8732" style="mask-type:luminance" maskUnits="userSpaceOnUse" x="211" y="150" width="29" height="12">
<path d="M226.434 152.34L239.745 160.111C235.821 157.88 230.435 158.11 224.433 161.65L211.122 153.878C217.123 150.339 222.509 150.031 226.434 152.34Z" fill="white"/>
</mask>
<g mask="url(#mask5_3_8732)">
<path d="M224.433 161.574L211.122 153.802C217.2 150.34 222.586 150.032 226.434 152.263L239.745 160.035C235.898 157.803 230.512 158.111 224.433 161.574Z" fill="#E3E2F2"/>
</g>
<path d="M211.969 286.379L198.657 278.607L185.807 197.199L199.196 204.971L211.969 286.379Z" fill="#E3E2F2"/>
<path d="M220.355 163.881L207.043 156.187L211.122 153.801L224.433 161.573L220.355 163.881Z" fill="#F4F4FB"/>
<path d="M199.195 204.97L185.884 197.199C183.729 183.349 193.809 163.805 207.121 156.11L220.432 163.882C207.044 171.576 196.964 191.12 199.195 204.97Z" fill="#F4F4FB"/>
<mask id="mask6_3_8732" style="mask-type:luminance" maskUnits="userSpaceOnUse" x="185" y="156" width="36" height="49">
<path d="M199.195 204.97L185.884 197.199C183.729 183.349 193.809 163.805 207.121 156.11L220.432 163.882C207.044 171.576 196.964 191.12 199.195 204.97Z" fill="white"/>
</mask>
<g mask="url(#mask6_3_8732)">
<path d="M199.195 204.97L185.884 197.199C185.191 192.967 185.73 188.273 187.038 183.503L200.35 191.274C198.965 196.045 198.503 200.815 199.195 204.97Z" fill="#F4F4FB"/>
<path d="M200.349 191.274L186.961 183.502C188.5 178.116 191.116 172.73 194.502 167.959L207.813 175.731C204.504 180.502 201.811 185.888 200.349 191.274Z" fill="#F4F4FB"/>
<path d="M207.89 175.731L194.579 167.96C197.195 164.343 200.196 161.112 203.504 158.573L216.816 166.344C213.507 168.883 210.429 172.115 207.89 175.731Z" fill="#F4F4FB"/>
<path d="M216.816 166.344L203.504 158.572C204.659 157.649 205.89 156.88 207.121 156.187L220.432 163.958C219.124 164.651 217.97 165.42 216.816 166.344Z" fill="#F4F4FB"/>
</g>
<path d="M224.433 161.574C237.745 153.879 247.902 161.728 245.824 178.04L233.513 273.914C232.513 281.531 227.665 287.841 222.818 290.611C217.97 293.458 213.045 292.765 212.045 286.302L199.195 204.971C197.041 191.121 207.121 171.576 220.432 163.882L224.433 161.574Z" fill="#CCCBF6"/>
<path d="M239.207 162.266L248.517 167.652C244.593 165.344 239.13 165.651 233.051 169.191L223.741 163.805C229.819 160.265 235.283 159.957 239.207 162.266Z" fill="#F47300"/>
<mask id="mask7_3_8732" style="mask-type:luminance" maskUnits="userSpaceOnUse" x="223" y="160" width="26" height="10">
<path d="M239.207 162.266L248.517 167.652C244.593 165.344 239.13 165.651 233.051 169.191L223.741 163.805C229.819 160.265 235.283 159.957 239.207 162.266Z" fill="white"/>
</mask>
<g mask="url(#mask7_3_8732)">
<path d="M233.051 169.191L223.741 163.805C229.742 160.342 235.206 160.035 239.207 162.266L248.517 167.652C244.593 165.344 239.13 165.729 233.051 169.191Z" fill="#F47300"/>
</g>
<path d="M235.205 178.271C243.439 173.5 250.133 177.347 250.133 186.812C250.133 196.276 243.515 207.741 235.282 212.511C227.049 217.282 220.355 213.435 220.355 203.971C220.355 194.506 226.972 182.964 235.205 178.271Z" fill="#F47300"/>
<path d="M217.739 220.59L208.429 215.204C204.504 212.972 202.119 208.125 202.119 201.277C202.042 187.503 211.737 170.729 223.741 163.804L233.051 169.19C221.048 176.115 211.353 192.89 211.429 206.663C211.429 213.511 213.892 218.281 217.739 220.59Z" fill="#F47300"/>
<mask id="mask8_3_8732" style="mask-type:luminance" maskUnits="userSpaceOnUse" x="202" y="163" width="32" height="58">
<path d="M217.739 220.59L208.429 215.204C204.504 212.972 202.119 208.125 202.119 201.277C202.042 187.503 211.737 170.729 223.741 163.804L233.051 169.19C221.048 176.115 211.353 192.89 211.429 206.663C211.429 213.511 213.892 218.281 217.739 220.59Z" fill="white"/>
</mask>
<g mask="url(#mask8_3_8732)">
<path d="M217.739 220.589L208.429 215.203C204.966 213.202 202.658 209.201 202.196 203.507L211.507 208.893C211.968 214.51 214.277 218.588 217.739 220.589Z" fill="#F47300"/>
<path d="M211.506 208.894L202.196 203.508C202.119 202.815 202.119 202.046 202.119 201.276C202.119 189.427 209.275 175.269 218.97 167.189L228.281 172.576C218.585 180.655 211.43 194.813 211.43 206.662C211.43 207.432 211.43 208.124 211.506 208.894Z" fill="#F47300"/>
<path d="M228.281 172.576L218.97 167.19C220.509 165.881 222.125 164.727 223.741 163.804L233.051 169.19C231.435 170.113 229.819 171.268 228.281 172.576Z" fill="#F47300"/>
</g>
<path d="M235.206 178.27L233.051 169.19C245.055 162.265 254.75 167.805 254.827 181.578C254.904 195.351 245.209 212.125 233.205 219.051C221.202 225.976 211.43 220.436 211.43 206.662C211.353 192.889 221.048 176.115 233.051 169.19L235.206 178.27C226.973 183.04 220.355 194.505 220.355 203.969C220.355 213.434 227.05 217.204 235.283 212.51C243.516 207.74 250.133 196.275 250.133 186.81C250.133 177.346 243.439 173.499 235.206 178.27Z" fill="#F47300"/>
<mask id="mask9_3_8732" style="mask-type:luminance" maskUnits="userSpaceOnUse" x="211" y="166" width="44" height="57">
<path d="M235.206 178.27L233.051 169.19C245.055 162.265 254.75 167.805 254.827 181.578C254.904 195.351 245.209 212.125 233.205 219.051C221.202 225.976 211.43 220.436 211.43 206.662C211.353 192.889 221.048 176.115 233.051 169.19L235.206 178.27C226.973 183.04 220.355 194.505 220.355 203.969C220.355 213.434 227.05 217.204 235.283 212.51C243.516 207.74 250.133 196.275 250.133 186.81C250.133 177.346 243.439 173.499 235.206 178.27Z" fill="white"/>
</mask>
<g mask="url(#mask9_3_8732)">
<path d="M235.206 178.27L233.051 169.19C245.055 162.265 254.75 167.805 254.827 181.578C254.904 195.351 245.209 212.125 233.205 219.051C221.202 225.976 211.43 220.436 211.43 206.662C211.353 192.889 221.048 176.115 233.051 169.19L235.206 178.27C226.973 183.04 220.355 194.505 220.355 203.969C220.355 213.434 227.05 217.204 235.283 212.51C243.516 207.74 250.133 196.275 250.133 186.81C250.133 177.346 243.439 173.499 235.206 178.27Z" fill="#4C1F8C"/>
</g>
<path d="M209.896 12.4152L205.334 13.812L229.419 92.4638L233.98 91.0669L209.896 12.4152Z" fill="#1D2233"/>
<path d="M260.367 338.778C238.284 325.159 233.282 306.769 231.205 298.997C232.897 306.538 238.822 314.001 248.825 320.003C273.909 335.084 315.383 335.469 341.467 320.927C352.701 314.694 359.242 306.692 361.088 298.382C359.395 304.845 356.856 314.694 347.007 326.082C343.314 330.391 335.158 338.393 322.077 343.625C302.225 351.551 277.987 349.704 260.367 338.778Z" fill="#98A4E0"/>
<path d="M341.929 159.649C366.32 174.345 365.551 197.736 340.082 211.971C314.613 226.129 274.217 225.744 249.748 211.048C225.357 196.351 226.126 172.96 251.595 158.725C277.064 144.567 317.46 144.952 341.929 159.649Z" fill="#EDECF8"/>
<path d="M231.127 298.767L211.429 212.665C213.738 222.668 221.355 232.44 234.359 240.211C266.907 259.833 320.845 260.371 354.778 241.443C369.321 233.286 377.862 222.899 380.247 212.126L361.011 298.305C359.164 306.615 352.624 314.618 341.39 320.85C315.305 335.393 273.755 335.008 248.748 319.927C238.822 313.925 232.897 306.461 231.127 298.767Z" fill="#BFBEED"/>
<path d="M241.13 157.418C274.371 139.336 321.461 139.875 353.086 158.726C350.239 157.033 346.314 157.187 341.928 159.65C317.537 144.953 277.064 144.568 251.595 158.726C226.126 172.884 225.279 196.352 249.748 211.049C274.14 225.746 314.613 226.13 340.082 211.972C365.551 197.814 366.397 174.346 341.928 159.65C346.391 157.187 350.316 157.033 353.086 158.726C359.703 163.035 369.706 169.499 376.708 183.118C383.171 195.814 381.248 207.202 380.401 212.049C377.939 223.129 369.398 233.517 354.855 241.596C320.922 260.525 266.984 259.986 234.436 240.365C221.432 232.517 213.815 222.822 211.506 212.819C210.66 208.433 209.89 204.278 210.737 197.814C211.737 189.658 214.969 183.58 215.123 183.349C217.431 178.809 223.894 166.729 241.13 157.418Z" fill="#E3E2F2"/>
<path d="M331.233 53.4655C349.931 64.7765 349.315 82.7047 329.771 93.631C310.227 104.557 279.218 104.172 260.521 92.9385C241.823 81.6275 242.439 63.6993 261.983 52.773C281.527 41.8468 312.536 42.1546 331.233 53.4655Z" fill="#F4F4FB"/>
<path d="M235.821 187.888C205.659 169.19 199.041 144.567 198.811 127.101C198.887 141.105 207.813 155.109 225.895 165.958C263.06 188.349 324.693 188.965 363.473 167.343C383.402 156.186 393.482 141.336 393.405 126.562C393.097 135.642 392.559 140.412 388.865 150.569C386.018 158.571 380.863 165.343 378.093 169.036C376.785 170.729 364.858 185.964 341.775 194.967C301.686 210.587 259.674 202.661 235.821 187.888Z" fill="#BFBEED"/>
<path d="M238.591 49.9255C256.289 40.3074 276.064 35.6137 297.531 35.8445C319.538 36.1523 339.313 41.3846 356.241 51.4644C349.854 47.6172 341.006 48.0019 331.233 53.465C312.536 42.1541 281.45 41.8463 261.983 52.7725C242.439 63.6987 241.823 81.627 260.521 92.9379C279.218 104.249 310.304 104.557 329.771 93.6304C349.316 82.7042 349.931 64.776 331.233 53.465C341.006 48.0019 349.931 47.6172 356.241 51.4644C365.166 57.2353 392.405 74.7788 393.251 112.251C393.328 127.102 383.248 141.952 363.32 153.032C324.539 174.654 262.983 174.038 225.741 151.647C207.659 140.798 198.734 126.794 198.657 112.79C198.888 107.327 199.118 101.171 201.504 93.6304C204.351 84.7048 206.736 80.8575 210.737 74.548C213.969 69.5466 223.895 57.9278 238.591 49.9255Z" fill="#EDECF8"/>
<path d="M315.152 167.729C283.681 171.422 249.672 166.036 225.819 151.647C207.89 140.875 198.888 126.948 198.734 113.021C198.734 104.018 202.427 95.631 208.66 88.9368C208.814 101.402 216.816 113.867 232.975 123.562C254.365 136.489 284.836 141.336 313.075 137.951C314.383 148.262 315.152 158.726 315.152 167.729Z" fill="#1F0159"/>
<path d="M198.734 127.102L198.657 112.79C198.734 126.794 207.659 140.798 225.741 151.648C262.906 174.039 324.539 174.654 363.32 153.033C383.248 141.876 393.328 127.025 393.251 112.252L393.328 126.564C393.405 141.414 383.325 156.264 363.397 167.345C324.616 188.966 263.06 188.351 225.818 165.96C207.813 155.11 198.811 141.106 198.734 127.102Z" fill="#E3E2F2"/>
<path d="M214.508 127.564C212.584 132.95 209.352 133.335 207.044 128.41C203.274 120.177 207.121 110.174 212.045 111.636C212.969 111.867 213.43 112.406 213.892 112.944C217.047 117.33 215.354 125.179 214.508 127.564Z" fill="#F47300"/>
<path d="M269.678 151.955C268.216 160.034 258.059 161.419 252.904 154.186C247.518 146.646 253.442 137.951 260.983 138.874C261.291 138.874 261.598 138.951 261.906 139.028C268.524 141.029 270.447 147.8 269.678 151.955Z" fill="#F47300"/>
<path d="M360.55 117.099C360.55 112.328 357.164 110.328 353.009 112.713C348.854 115.098 345.468 120.946 345.468 125.794C345.468 130.564 348.854 132.565 353.009 130.18C357.164 127.717 360.55 121.869 360.55 117.099Z" fill="#4F389E"/>
<path d="M354.009 123.948C353.317 123.948 352.547 123.64 352.085 123.024C351.316 121.947 351.547 120.485 352.547 119.716L407.486 78.4729C408.563 77.7034 410.025 77.9343 410.795 78.9346C411.564 80.0118 411.333 81.4738 410.333 82.2432L355.394 123.486C354.932 123.794 354.471 123.948 354.009 123.948Z" fill="#1D2233"/>
<path d="M422.798 77.3957C422.798 70.3168 417.104 64.6228 410.025 64.6228C402.946 64.6228 397.252 70.3168 397.252 77.3957C397.252 84.4747 402.946 90.1686 410.025 90.1686C417.104 90.1686 422.798 84.4747 422.798 77.3957Z" fill="#4F389E"/>
<path d="M219.201 13.1457C219.201 6.06675 213.507 0.372803 206.428 0.372803C199.349 0.372803 193.655 6.06675 193.655 13.1457C193.655 20.2247 199.349 25.9186 206.428 25.9186C213.507 25.9186 219.201 20.2247 219.201 13.1457Z" fill="#4F389E"/>
<path d="M371.861 208.125L381.171 213.511C377.247 211.203 371.784 211.511 365.705 215.05L356.395 209.664C362.396 206.125 367.859 205.817 371.861 208.125Z" fill="#F47300"/>
<mask id="mask10_3_8732" style="mask-type:luminance" maskUnits="userSpaceOnUse" x="356" y="206" width="26" height="10">
<path d="M371.861 208.125L381.171 213.511C377.247 211.203 371.784 211.511 365.705 215.05L356.395 209.664C362.396 206.125 367.859 205.817 371.861 208.125Z" fill="white"/>
</mask>
<g mask="url(#mask10_3_8732)">
<path d="M365.705 214.973L356.395 209.587C362.396 206.124 367.859 205.817 371.861 208.048L381.171 213.434C377.17 211.203 371.707 211.511 365.705 214.973Z" fill="#F47300"/>
</g>
<path d="M367.859 224.054C376.093 219.283 382.787 223.13 382.787 232.594C382.787 242.059 376.17 253.524 367.936 258.294C359.703 263.065 353.009 259.218 353.009 249.753C352.932 240.366 359.626 228.824 367.859 224.054Z" fill="#F47300"/>
<path d="M350.393 266.372L341.082 260.986C337.158 258.754 334.773 253.907 334.773 247.059C334.696 233.286 344.391 216.511 356.395 209.586L365.705 214.973C353.701 221.898 344.006 238.672 344.083 252.445C344.083 259.293 346.469 264.141 350.393 266.372Z" fill="#F47300"/>
<mask id="mask11_3_8732" style="mask-type:luminance" maskUnits="userSpaceOnUse" x="334" y="209" width="32" height="58">
<path d="M350.393 266.372L341.082 260.986C337.158 258.754 334.773 253.907 334.773 247.059C334.696 233.286 344.391 216.511 356.395 209.586L365.705 214.973C353.701 221.898 344.006 238.672 344.083 252.445C344.083 259.293 346.469 264.141 350.393 266.372Z" fill="white"/>
</mask>
<g mask="url(#mask11_3_8732)">
<path d="M350.393 266.371L341.083 260.985C337.62 258.985 335.312 254.984 334.85 249.29L344.16 254.676C344.622 260.37 346.931 264.371 350.393 266.371Z" fill="#F47300"/>
<path d="M344.16 254.676L334.85 249.29C334.773 248.597 334.773 247.828 334.773 247.058C334.773 235.209 341.929 221.051 351.624 212.972L360.934 218.358C351.239 226.437 344.083 240.595 344.083 252.445C344.006 253.291 344.083 253.984 344.16 254.676Z" fill="#F47300"/>
<path d="M360.858 218.358L351.547 212.972C353.086 211.664 354.702 210.51 356.318 209.586L365.628 214.973C364.012 215.973 362.397 217.127 360.858 218.358Z" fill="#F47300"/>
</g>
<path d="M367.859 224.052L365.705 214.973C377.708 208.047 387.403 213.587 387.48 227.361C387.557 241.134 377.862 257.908 365.858 264.833C353.855 271.758 344.083 266.218 344.083 252.445C344.006 238.672 353.701 221.898 365.705 214.973L367.859 224.052C359.626 228.823 353.009 240.288 353.009 249.752C353.009 259.216 359.703 262.986 367.936 258.293C376.169 253.522 382.786 242.057 382.786 232.593C382.71 223.129 376.015 219.358 367.859 224.052Z" fill="#F47300"/>
<mask id="mask12_3_8732" style="mask-type:luminance" maskUnits="userSpaceOnUse" x="344" y="211" width="44" height="57">
<path d="M367.859 224.052L365.705 214.973C377.708 208.047 387.403 213.587 387.48 227.361C387.557 241.134 377.862 257.908 365.858 264.833C353.855 271.758 344.083 266.218 344.083 252.445C344.006 238.672 353.701 221.898 365.705 214.973L367.859 224.052C359.626 228.823 353.009 240.288 353.009 249.752C353.009 259.216 359.703 262.986 367.936 258.293C376.169 253.522 382.786 242.057 382.786 232.593C382.71 223.129 376.015 219.358 367.859 224.052Z" fill="white"/>
</mask>
<g mask="url(#mask12_3_8732)">
<path d="M367.859 224.052L365.705 214.973C377.708 208.047 387.403 213.587 387.48 227.361C387.557 241.134 377.862 257.908 365.858 264.833C353.855 271.758 344.083 266.218 344.083 252.445C344.006 238.672 353.701 221.898 365.705 214.973L367.859 224.052C359.626 228.823 353.009 240.288 353.009 249.752C353.009 259.216 359.703 262.986 367.936 258.293C376.169 253.522 382.786 242.057 382.786 232.593C382.71 223.129 376.015 219.358 367.859 224.052Z" fill="#4C1F8C"/>
</g>
<path d="M371.937 351.474L358.626 343.702C357.164 342.856 356.087 341.163 355.625 338.547L368.937 346.318C369.398 349.011 370.475 350.627 371.937 351.474Z" fill="#E3E2F2"/>
<mask id="mask13_3_8732" style="mask-type:luminance" maskUnits="userSpaceOnUse" x="355" y="338" width="17" height="14">
<path d="M371.937 351.474L358.626 343.702C357.164 342.856 356.087 341.163 355.625 338.547L368.937 346.318C369.398 349.011 370.475 350.627 371.937 351.474Z" fill="white"/>
</mask>
<g mask="url(#mask13_3_8732)">
<path d="M371.937 351.474L358.626 343.702C357.164 342.856 356.086 341.163 355.702 338.547L369.013 346.318C369.398 349.011 370.475 350.627 371.937 351.474Z" fill="#E3E2F2"/>
<path d="M368.937 346.395L355.625 338.624V338.547L368.937 346.318V346.395Z" fill="#E3E2F2"/>
</g>
<path d="M383.402 212.28L396.713 220.052C392.789 217.82 387.403 218.051 381.401 221.591L368.09 213.819C374.092 210.28 379.555 209.972 383.402 212.28Z" fill="#E3E2F2"/>
<mask id="mask14_3_8732" style="mask-type:luminance" maskUnits="userSpaceOnUse" x="368" y="210" width="29" height="12">
<path d="M383.402 212.28L396.713 220.052C392.789 217.82 387.403 218.051 381.401 221.591L368.09 213.819C374.092 210.28 379.555 209.972 383.402 212.28Z" fill="white"/>
</mask>
<g mask="url(#mask14_3_8732)">
<path d="M381.401 221.514L368.09 213.743C374.169 210.28 379.555 209.972 383.402 212.204L396.713 219.975C392.866 217.744 387.48 218.052 381.401 221.514Z" fill="#E3E2F2"/>
</g>
<path d="M368.936 346.32L355.625 338.548L342.775 257.217L356.163 264.989L368.936 346.32Z" fill="#E3E2F2"/>
<path d="M377.323 223.899L364.012 216.127L368.09 213.819L381.401 221.514L377.323 223.899Z" fill="#F4F4FB"/>
<path d="M356.164 264.988L342.852 257.216C340.698 243.366 350.777 223.822 364.089 216.128L377.4 223.899C364.089 231.594 353.932 251.138 356.164 264.988Z" fill="#F4F4FB"/>
<mask id="mask15_3_8732" style="mask-type:luminance" maskUnits="userSpaceOnUse" x="342" y="216" width="36" height="49">
<path d="M356.164 264.988L342.852 257.216C340.698 243.366 350.777 223.822 364.089 216.128L377.4 223.899C364.089 231.594 353.932 251.138 356.164 264.988Z" fill="white"/>
</mask>
<g mask="url(#mask15_3_8732)">
<path d="M356.164 264.988L342.852 257.217C342.16 252.985 342.698 248.291 344.006 243.521L357.318 251.292C355.933 255.986 355.471 260.756 356.164 264.988Z" fill="#F4F4FB"/>
<path d="M357.318 251.215L343.929 243.52C345.468 238.134 348.084 232.748 351.47 227.978L364.781 235.749C361.473 240.443 358.857 245.906 357.318 251.215Z" fill="#F4F4FB"/>
<path d="M364.858 235.749L351.547 227.978C354.163 224.361 357.164 221.13 360.473 218.59L373.784 226.362C370.475 228.824 367.398 232.056 364.858 235.749Z" fill="#F4F4FB"/>
<path d="M373.784 226.284L360.473 218.513C361.627 217.59 362.858 216.82 364.089 216.128L377.401 223.899C376.093 224.592 374.938 225.438 373.784 226.284Z" fill="#F4F4FB"/>
</g>
<path d="M381.402 221.514C394.713 213.82 404.87 221.668 402.792 237.981L390.481 333.854C389.481 341.472 384.633 347.781 379.786 350.551C374.938 353.398 370.014 352.706 369.013 346.243L356.164 264.911C354.009 251.061 364.089 231.517 377.4 223.823L381.402 221.514Z" fill="#CCCBF6"/>
</svg>
