<svg width="763" height="259" viewBox="0 0 763 259" fill="none" xmlns="http://www.w3.org/2000/svg">
<g opacity="0.1">
<rect x="0.249598" y="0.249598" width="58.5565" height="51.5785" stroke="white" stroke-width="0.499197"/>
<rect x="58.9117" y="0.249598" width="58.5565" height="51.5785" stroke="white" stroke-width="0.499197"/>
<rect x="117.574" y="0.249598" width="58.5565" height="51.5785" stroke="white" stroke-width="0.499197"/>
<rect x="176.25" y="0.249598" width="58.5008" height="51.5008" stroke="white" stroke-width="0.499197"/>
<rect x="234.898" y="0.249598" width="58.5565" height="51.5785" stroke="white" stroke-width="0.499197"/>
<rect x="293.56" y="0.249598" width="58.5565" height="51.5785" stroke="white" stroke-width="0.499197"/>
<rect x="352.221" y="0.249598" width="58.5565" height="51.5785" stroke="white" stroke-width="0.499197"/>
<rect x="410.883" y="0.249598" width="58.5565" height="51.5785" stroke="white" stroke-width="0.499197"/>
<rect x="469.25" y="0.249598" width="58.5008" height="51.5008" stroke="white" stroke-width="0.499197"/>
<rect x="528.208" y="0.249598" width="58.5565" height="51.5785" stroke="white" stroke-width="0.499197"/>
<rect x="586.87" y="0.249598" width="58.5565" height="51.5785" stroke="white" stroke-width="0.499197"/>
<rect x="645.532" y="0.249598" width="58.5565" height="51.5785" stroke="white" stroke-width="0.499197"/>
<rect x="704.194" y="0.249598" width="58.5565" height="51.5785" stroke="white" stroke-width="0.499197"/>
<rect x="0.249598" y="52.2496" width="58.5008" height="51.5008" stroke="white" stroke-width="0.499197"/>
<rect x="58.9117" y="51.9803" width="58.5565" height="51.5785" stroke="white" stroke-width="0.499197"/>
<rect x="117.573" y="51.9803" width="58.5565" height="51.5785" stroke="white" stroke-width="0.499197"/>
<rect x="176.235" y="51.9803" width="58.5565" height="51.5785" stroke="white" stroke-width="0.499197"/>
<rect x="234.897" y="51.9803" width="58.5565" height="51.5785" stroke="white" stroke-width="0.499197"/>
<rect x="293.559" y="51.9803" width="58.5565" height="51.5785" stroke="white" stroke-width="0.499197"/>
<rect x="352.221" y="51.9803" width="58.5565" height="51.5785" stroke="white" stroke-width="0.499197"/>
<rect x="410.883" y="51.9803" width="58.5565" height="51.5785" stroke="white" stroke-width="0.499197"/>
<rect x="469.545" y="51.9803" width="58.5565" height="51.5785" stroke="white" stroke-width="0.499197"/>
<rect x="528.207" y="51.9803" width="58.5565" height="51.5785" stroke="white" stroke-width="0.499197"/>
<rect x="586.869" y="51.9803" width="58.5565" height="51.5785" stroke="white" stroke-width="0.499197"/>
<rect x="645.531" y="51.9803" width="58.5565" height="51.5785" stroke="white" stroke-width="0.499197"/>
<rect x="704.193" y="51.9803" width="58.5565" height="51.5785" stroke="white" stroke-width="0.499197"/>
<rect x="0.249598" y="103.71" width="58.5565" height="51.5785" stroke="white" stroke-width="0.499197"/>
<rect x="58.9117" y="103.71" width="58.5565" height="51.5785" stroke="white" stroke-width="0.499197"/>
<rect x="117.574" y="103.71" width="58.5565" height="51.5785" stroke="white" stroke-width="0.499197"/>
<rect x="176.235" y="103.71" width="58.5565" height="51.5785" stroke="white" stroke-width="0.499197"/>
<rect x="234.898" y="103.71" width="58.5565" height="51.5785" stroke="white" stroke-width="0.499197"/>
<rect x="293.56" y="103.71" width="58.5565" height="51.5785" stroke="white" stroke-width="0.499197"/>
<rect x="352.221" y="103.71" width="58.5565" height="51.5785" stroke="white" stroke-width="0.499197"/>
<rect x="410.883" y="103.71" width="58.5565" height="51.5785" stroke="white" stroke-width="0.499197"/>
<rect x="469.545" y="103.71" width="58.5565" height="51.5785" stroke="white" stroke-width="0.499197"/>
<rect x="528.208" y="103.71" width="58.5565" height="51.5785" stroke="white" stroke-width="0.499197"/>
<rect x="586.87" y="103.71" width="58.5565" height="51.5785" stroke="white" stroke-width="0.499197"/>
<rect x="645.532" y="103.71" width="58.5565" height="51.5785" stroke="white" stroke-width="0.499197"/>
<rect x="704.194" y="103.71" width="58.5565" height="51.5785" stroke="white" stroke-width="0.499197"/>
<rect x="0.249598" y="155.441" width="58.5565" height="51.5785" stroke="white" stroke-width="0.499197"/>
<rect x="58.9117" y="155.441" width="58.5565" height="51.5785" stroke="white" stroke-width="0.499197"/>
<rect x="117.574" y="155.441" width="58.5565" height="51.5785" stroke="white" stroke-width="0.499197"/>
<rect x="176.235" y="155.441" width="58.5565" height="51.5785" stroke="white" stroke-width="0.499197"/>
<rect x="234.898" y="155.441" width="58.5565" height="51.5785" stroke="white" stroke-width="0.499197"/>
<rect x="293.56" y="155.441" width="58.5565" height="51.5785" stroke="white" stroke-width="0.499197"/>
<rect x="352.221" y="155.441" width="58.5565" height="51.5785" stroke="white" stroke-width="0.499197"/>
<rect x="410.883" y="155.441" width="58.5565" height="51.5785" stroke="white" stroke-width="0.499197"/>
<rect x="469.545" y="155.441" width="58.5565" height="51.5785" stroke="white" stroke-width="0.499197"/>
<rect x="528.208" y="155.441" width="58.5565" height="51.5785" stroke="white" stroke-width="0.499197"/>
<rect x="586.87" y="155.441" width="58.5565" height="51.5785" stroke="white" stroke-width="0.499197"/>
<rect x="645.532" y="155.441" width="58.5565" height="51.5785" stroke="white" stroke-width="0.499197"/>
<rect x="704.194" y="155.441" width="58.5565" height="51.5785" stroke="white" stroke-width="0.499197"/>
<rect x="0.249598" y="207.25" width="58.5008" height="51.5008" stroke="white" stroke-width="0.499197"/>
<rect x="58.9117" y="207.172" width="58.5565" height="51.5785" stroke="white" stroke-width="0.499197"/>
<rect x="117.574" y="207.172" width="58.5565" height="51.5785" stroke="white" stroke-width="0.499197"/>
<rect x="176.235" y="207.172" width="58.5565" height="51.5785" stroke="white" stroke-width="0.499197"/>
<rect x="234.898" y="207.172" width="58.5565" height="51.5785" stroke="white" stroke-width="0.499197"/>
<rect x="294.25" y="207.25" width="57.5008" height="51.5008" stroke="white" stroke-width="0.499197"/>
<rect x="352.221" y="207.172" width="58.5565" height="51.5785" stroke="white" stroke-width="0.499197"/>
<rect x="410.883" y="207.172" width="58.5565" height="51.5785" stroke="white" stroke-width="0.499197"/>
<rect x="469.545" y="207.172" width="58.5565" height="51.5785" stroke="white" stroke-width="0.499197"/>
<rect x="528.208" y="207.172" width="58.5565" height="51.5785" stroke="white" stroke-width="0.499197"/>
<rect x="586.87" y="207.172" width="58.5565" height="51.5785" stroke="white" stroke-width="0.499197"/>
<rect x="645.532" y="207.172" width="58.5565" height="51.5785" stroke="white" stroke-width="0.499197"/>
<rect x="704.193" y="207.172" width="58.5565" height="51.5785" stroke="white" stroke-width="0.499197"/>
</g>
</svg>
