<svg width="214" height="77" viewBox="0 0 214 77" fill="none" xmlns="http://www.w3.org/2000/svg">
<rect x="0.0532227" y="76.5946" width="75.7522" height="213.529" rx="20" transform="rotate(-90 0.0532227 76.5946)" fill="url(#paint0_linear_6_94)"/>
<mask id="mask0_6_94" style="mask-type:alpha" maskUnits="userSpaceOnUse" x="26" y="28" width="162" height="21">
<path d="M95.8232 41.7423H106.461L100.836 33.0599L90.5124 48.758H85.8138L98.371 29.9013C98.917 29.1394 99.827 28.6791 100.836 28.6791C101.812 28.6791 102.722 29.1235 103.252 29.8695L115.858 48.758H111.16L108.943 45.2501H98.1725L95.8232 41.7423ZM144.629 45.2501V28.8695H140.642V46.8533C140.642 47.3453 140.841 47.8215 141.221 48.1866C141.602 48.5517 142.114 48.758 142.677 48.758H160.859L163.209 45.2501H144.629ZM78.6667 42.3137C82.5381 42.3137 85.6815 39.3138 85.6815 35.5996C85.6815 31.8854 82.5381 28.8695 78.6667 28.8695H61.2238V48.758H65.2095V32.3774H78.4019C80.255 32.3774 81.7439 33.8218 81.7439 35.5996C81.7439 37.3773 80.255 38.8217 78.4019 38.8217L67.1617 38.8058L79.0637 48.758H84.8543L76.8468 42.3137H78.6667ZM36.6886 48.758C30.9658 48.758 26.3218 44.3137 26.3218 38.8217C26.3218 33.3298 30.9658 28.8695 36.6886 28.8695H48.7378C54.4622 28.8695 59.1029 33.3298 59.1029 38.8217C59.1029 44.3137 54.4622 48.758 48.7378 48.758H36.6886ZM48.4698 45.2501C52.1774 45.2501 55.1802 42.3772 55.1802 38.8217C55.1802 35.2662 52.1774 32.3774 48.4698 32.3774H36.9549C33.249 32.3774 30.2444 35.2662 30.2444 38.8217C30.2444 42.3772 33.249 45.2501 36.9549 45.2501H48.4698ZM124.18 48.758C118.456 48.758 113.807 44.3137 113.807 38.8217C113.807 33.3298 118.456 28.8695 124.18 28.8695H138.491L136.158 32.3774H124.445C120.739 32.3774 117.728 35.2662 117.728 38.8217C117.728 42.3772 120.739 45.2501 124.445 45.2501H138.822L136.473 48.758H124.18ZM172.937 45.2501C169.876 45.2501 167.278 43.2819 166.484 40.5677H183.525L185.874 37.0598H166.484C167.278 34.3615 169.876 32.3774 172.937 32.3774H184.634L186.999 28.8695H172.672C166.948 28.8695 162.299 33.3298 162.299 38.8217C162.299 44.3137 166.948 48.758 172.672 48.758H184.964L187.314 45.2501H172.937Z" fill="#EA1B22"/>
</mask>
<g mask="url(#mask0_6_94)">
<rect x="-18.5078" y="-5.74249" width="250.652" height="88.9221" fill="white"/>
</g>
<defs>
<linearGradient id="paint0_linear_6_94" x1="37.9293" y1="76.5946" x2="37.9293" y2="290.123" gradientUnits="userSpaceOnUse">
<stop stop-color="#E35F01"/>
<stop offset="1" stop-color="#FD7E00"/>
</linearGradient>
</defs>
</svg>
