<svg width="96" height="40" viewBox="0 0 96 40" fill="none" xmlns="http://www.w3.org/2000/svg">
<path d="M90.1581 9.64434L82.0619 26.6825L73.9322 9.63483H68.2749L69.7239 12.4801C67.811 9.48257 64.0284 8.7213 60.5708 8.7213C50.4566 8.7213 49.811 14.526 49.811 15.449H54.8418C54.8418 15.449 55.1048 12.0614 60.2218 12.0614C63.5454 12.0614 66.1182 13.6553 66.1182 16.7194V17.8137H60.2218C53.6798 17.8137 49.7201 19.4838 48.5868 22.8714C48.7015 22.1197 48.7637 21.3394 48.7637 20.5353C48.7637 14.0216 44.5745 8.78791 37.4969 8.78791C30.8688 8.78791 28.8077 12.5372 28.8077 12.5372V0H23.9443V19.0841C23.8725 14.9399 21.3045 8.72606 12.3236 8.72606C5.59513 8.73082 0 11.714 0 20.7303C0 27.8673 3.76834 32.3635 12.4958 32.3635C22.7679 32.3635 23.4278 25.2742 23.4278 25.2742H18.4591C18.4591 25.2742 17.3879 29.09 12.1945 29.09C7.96708 29.09 4.92563 26.0973 4.92563 21.9056H23.9538V27.8339C23.9538 29.4136 23.8439 31.6355 23.8439 31.6355H28.5925C28.5925 31.6355 28.7647 30.0416 28.7647 28.5857C28.7647 28.5857 31.108 32.4301 37.4874 32.4301C42.9295 32.4301 46.956 29.228 48.2903 24.294C48.2663 24.551 48.2472 24.8174 48.2472 25.0934C48.2472 29.8846 52.0729 32.492 57.2472 32.492C64.2961 32.492 66.5677 28.4144 66.5677 28.4144C66.5677 30.0369 66.6872 31.6355 66.6872 31.6355H71.1586C71.1586 31.6355 70.9864 29.6515 70.9864 28.3859V17.4331C70.9864 15.9629 70.7568 14.7401 70.3408 13.7124L79.4126 31.5356L75.1469 40H80.5268L95.2941 9.64434H90.1581ZM5.03562 18.5464C5.03562 14.4356 8.61745 12.0947 12.1467 12.0947C16.1733 12.0947 18.9182 14.6782 18.9182 18.5464H5.03562ZM36.2966 28.9901C31.4284 28.9901 28.803 25.0077 28.803 20.5971C28.803 16.4863 31.1558 12.2469 36.2631 12.2469C40.8253 12.2469 43.7233 15.7916 43.7233 20.5495C43.7233 25.65 40.3758 28.9901 36.2966 28.9901ZM66.1134 22.5479C66.1134 24.451 64.9943 29.1614 58.4141 29.1614C54.8179 29.1614 53.2685 27.2773 53.2685 25.0934C53.2685 21.1205 58.4715 21.0967 66.1134 21.0967V22.5479Z" fill="white"/>
</svg>
