<svg width="85" height="40" viewBox="0 0 85 40" fill="none" xmlns="http://www.w3.org/2000/svg">
<path d="M38.484 28.6683C36.6396 28.6683 35.5658 27.4302 35.5658 24.2131V12.8603L41.697 13.3319L42.0086 10.4095L35.709 10.7211V4.27834H33.8646C32.955 9.33571 30.6685 11.1759 27.5987 11.4875V13.0203H31.258V25.9143C31.258 29.4347 33.7341 31.2664 36.787 31.2664C39.2504 31.2664 41.8486 30.1926 42.7582 28.0535L41.8444 26.9797C41.3896 27.7376 40.1516 28.6683 38.484 28.6683ZM23.7709 25.2869C22.5329 28.1924 20.5411 28.3566 18.5493 28.3566H12.1065C9.96736 28.3566 9.03673 27.5734 9.03673 25.7459V16.2375C9.03673 16.2375 13.6351 16.2375 15.1721 16.4017C16.3975 16.5491 17.0165 16.8607 17.4713 18.3935L17.9261 20.5453H19.7705L19.6063 15.0331L19.9179 9.65154H18.0903L17.4713 12.115C17.1639 13.7951 16.8523 13.9594 15.1721 14.2541C13.0329 14.4141 9.03673 14.4141 9.03673 14.4141V3.0698C9.03673 2.59817 9.03673 2.45078 9.81576 2.45078H19.4631C21.1559 2.45078 22.0739 3.82356 22.6761 6.57753L23.2951 8.73355H24.9752C25.1395 2.59817 25.2869 0 25.2869 0C25.2869 0 21.1559 0.442152 18.7093 0.442152H6.44278L0 0.311611V1.99179L2.13917 2.44236C3.6846 2.75397 4.13938 3.06137 4.13938 4.43415C4.13938 4.43415 4.30361 8.57774 4.30361 15.4627C4.30361 22.3644 4.13938 26.508 4.13938 26.508C4.13938 27.7334 3.6846 28.1882 2.13917 28.4998L0 28.9757V30.6432L6.59016 30.4958H17.6355C20.0821 30.4958 25.9101 30.6432 25.9101 30.6432C26.0532 29.123 26.8196 22.3729 26.9839 21.6065H25.4342L23.7709 25.2869ZM49.2051 14.2457C49.2051 12.2497 51.0453 11.4875 52.8897 11.4875C54.4057 11.4875 55.6395 12.1065 55.9595 12.8561L57.0333 15.9259L58.5535 15.7785C58.5535 14.2457 58.7135 12.2497 59.0209 10.7211C57.6397 10.1021 54.8815 9.7905 53.0371 9.7905C48.8935 9.7905 45.6806 11.6475 45.6806 15.6311C45.6806 22.6803 55.9553 21.1475 55.9553 26.3649C55.9553 28.045 54.8773 29.4347 52.2665 29.4347C49.8199 29.4347 48.7419 28.1966 48.2872 26.9712L47.066 24.053H45.5121C45.6806 26.0575 45.8237 28.045 45.5121 29.8726C45.5121 29.8726 48.7419 31.1106 51.9591 31.1106C56.2627 31.1106 59.7831 28.9757 59.7831 24.9752C59.7831 17.9261 49.2051 18.9915 49.2051 14.2457ZM76.0248 10.2663V11.7991L77.1154 12.1107C78.1766 12.4055 78.6314 12.8603 78.6314 13.6393C78.6314 14.0941 78.4882 14.2457 78.324 14.8647C77.8692 16.0901 74.9468 23.2993 73.4308 26.5165C71.8107 22.4095 70.2761 18.2692 68.8282 14.0983C68.6809 13.7909 68.6809 13.6435 68.6809 13.4835C68.6809 12.8603 69.123 12.2539 70.201 12.1107L71.5864 11.7991V10.2663L65.9185 10.5737L61.3033 10.4095V11.9591L62.0907 12.2497C63.1477 12.5613 63.2993 12.7129 64.0657 14.4057C66.9838 20.8485 70.201 29.2662 71.2917 31.8812C68.8325 36.1722 66.2217 37.3934 64.2299 37.3934C63.0045 37.3934 62.5497 36.7744 62.3981 36.008L61.7833 32.795L60.0989 32.9424C59.7915 34.951 59.4799 37.086 59.0251 38.7662C60.2337 39.5326 61.6191 40.0042 63.4593 40C66.369 40 70.5126 39.2336 74.5046 30.18L81.2464 14.4015C81.857 13.1677 82.0128 13.0161 83.5456 12.3971L84.3162 11.7907V10.2663L80.3368 10.4095L76.0248 10.2663Z" fill="#F4F7FF"/>
</svg>
