<svg width="214" height="77" viewBox="0 0 214 77" fill="none" xmlns="http://www.w3.org/2000/svg">
<rect x="0.00830078" y="76.5946" width="75.7522" height="213.529" rx="20" transform="rotate(-90 0.00830078 76.5946)" fill="url(#paint0_linear_6_84)"/>
<mask id="mask0_6_84" style="mask-type:alpha" maskUnits="userSpaceOnUse" x="21" y="26" width="171" height="26">
<path d="M45.6746 51.4169V44.806H38.1706C36.13 44.806 34.2397 45.8337 33.1945 47.5116L30.7617 51.4169H45.6746Z" fill="#63D2F9"/>
<path d="M21.7915 26.0199V32.6309H41.5564L45.6747 26.0199H21.7915Z" fill="#4E5EE4"/>
<path d="M31.251 36.3522L21.8135 51.4173H29.854L41.1396 33.394H36.6996C34.4663 33.394 32.3973 34.5174 31.251 36.3522Z" fill="#63B0F9"/>
<path d="M62.7814 45.072C58.7383 45.072 55.7632 42.2525 55.7632 38.4688C55.7632 34.7216 58.7574 31.8656 62.8005 31.8656C66.8437 31.8656 69.8379 34.7579 69.8379 38.4688C69.8379 42.2161 66.8246 45.072 62.7814 45.072ZM62.8005 42.7618C65.3561 42.7618 67.1869 40.9428 67.1869 38.4688C67.1869 36.0313 65.3561 34.1758 62.8005 34.1758C60.2259 34.1758 58.395 36.0313 58.395 38.4688C58.395 40.9428 60.2259 42.7618 62.8005 42.7618ZM72.5453 49.0194V35.2673H74.9864V36.486H75.1199C75.3869 36.0859 76.3023 35.0308 78.1332 35.0308C80.9367 35.0308 82.8629 37.0318 82.8629 40.015C82.8629 42.9983 80.9558 45.072 78.2095 45.072C76.4359 45.072 75.4823 44.1261 75.1581 43.5986H75.0246V49.0194H72.5453ZM77.6564 42.9255C79.2584 42.9255 80.3455 41.7432 80.3455 40.0514C80.3455 38.3051 79.2584 37.1773 77.6373 37.1773C75.9972 37.1773 74.9674 38.4325 74.9674 40.0514C74.9674 41.8341 76.1116 42.9255 77.6564 42.9255ZM89.9567 45.072C87.0007 45.072 84.9028 42.9619 84.9028 40.106C84.9028 37.0863 87.0198 35.0308 89.9567 35.0308C93.1798 35.0308 94.9344 37.3046 94.9344 39.9968V40.7427H87.3058C87.3821 42.1979 88.431 43.1802 90.033 43.1802C91.2536 43.1802 92.1881 42.6345 92.5314 41.8523H94.839C94.3432 43.7987 92.5505 45.072 89.9567 45.072ZM87.344 39.0691H92.5695C92.4551 37.7776 91.4062 36.9226 89.9567 36.9226C88.5645 36.9226 87.4965 37.8685 87.344 39.0691ZM97.6037 44.8356V35.2673H99.9685V36.4315H100.102C100.503 35.722 101.494 35.0308 102.925 35.0308C105.175 35.0308 106.548 36.5406 106.548 38.578V44.8356H104.069V39.1965C104.069 38.0323 103.287 37.2501 102.143 37.2501C100.941 37.2501 100.083 38.1596 100.083 39.3602V44.8356H97.6037ZM109.008 44.8356V42.6709L115.95 34.3214V34.194H109.256V32.1021H119.115V34.2486L112.173 42.5981V42.7436H119.154V44.8356H109.008ZM125.866 45.072C122.91 45.072 120.812 42.9619 120.812 40.106C120.812 37.0863 122.929 35.0308 125.866 35.0308C129.089 35.0308 130.844 37.3046 130.844 39.9968V40.7427H123.215C123.291 42.1979 124.34 43.1802 125.942 43.1802C127.163 43.1802 128.097 42.6345 128.441 41.8523H130.748C130.252 43.7987 128.46 45.072 125.866 45.072ZM123.253 39.0691H128.479C128.364 37.7776 127.315 36.9226 125.866 36.9226C124.474 36.9226 123.406 37.8685 123.253 39.0691ZM133.513 49.0194V35.2673H135.954V36.486H136.088C136.355 36.0859 137.27 35.0308 139.101 35.0308C141.904 35.0308 143.831 37.0318 143.831 40.015C143.831 42.9983 141.923 45.072 139.177 45.072C137.404 45.072 136.45 44.1261 136.126 43.5986H135.992V49.0194H133.513ZM138.624 42.9255C140.226 42.9255 141.313 41.7432 141.313 40.0514C141.313 38.3051 140.226 37.1773 138.605 37.1773C136.965 37.1773 135.935 38.4325 135.935 40.0514C135.935 41.8341 137.079 42.9255 138.624 42.9255ZM146.5 49.0194V35.2673H148.941V36.486H149.074C149.341 36.0859 150.257 35.0308 152.088 35.0308C154.891 35.0308 156.817 37.0318 156.817 40.015C156.817 42.9983 154.91 45.072 152.164 45.072C150.39 45.072 149.437 44.1261 149.113 43.5986H148.979V49.0194H146.5ZM151.611 42.9255C153.213 42.9255 154.3 41.7432 154.3 40.0514C154.3 38.3051 153.213 37.1773 151.592 37.1773C149.952 37.1773 148.922 38.4325 148.922 40.0514C148.922 41.8341 150.066 42.9255 151.611 42.9255ZM163.911 45.072C160.955 45.072 158.857 42.9619 158.857 40.106C158.857 37.0863 160.974 35.0308 163.911 35.0308C167.134 35.0308 168.889 37.3046 168.889 39.9968V40.7427H161.26C161.337 42.1979 162.386 43.1802 163.988 43.1802C165.208 43.1802 166.143 42.6345 166.486 41.8523H168.794C168.298 43.7987 166.505 45.072 163.911 45.072ZM161.299 39.0691H166.524C166.41 37.7776 165.361 36.9226 163.911 36.9226C162.519 36.9226 161.451 37.8685 161.299 39.0691ZM173.999 44.8356C172.245 44.8356 171.253 43.8351 171.253 42.1433V31.1926H173.732V41.9251C173.732 42.4708 174.018 42.7618 174.533 42.7618H174.934V44.8356H173.999ZM178.557 33.9939C177.66 33.9939 177.031 33.4664 177.031 32.6114C177.031 31.7929 177.66 31.2471 178.557 31.2471C179.453 31.2471 180.082 31.7929 180.082 32.6114C180.082 33.4664 179.453 33.9939 178.557 33.9939ZM177.317 44.8356V35.2673H179.796V44.8356H177.317ZM182.809 44.8356V35.2673H185.174V36.4315H185.307C185.708 35.722 186.7 35.0308 188.13 35.0308C190.38 35.0308 191.753 36.5406 191.753 38.578V44.8356H189.274V39.1965C189.274 38.0323 188.492 37.2501 187.348 37.2501C186.146 37.2501 185.288 38.1596 185.288 39.3602V44.8356H182.809Z" fill="#282846"/>
</mask>
<g mask="url(#mask0_6_84)">
<rect x="-25.5361" y="-8.21979" width="264.617" height="93.8764" fill="white"/>
</g>
<defs>
<linearGradient id="paint0_linear_6_84" x1="37.8844" y1="76.5946" x2="37.8844" y2="290.123" gradientUnits="userSpaceOnUse">
<stop stop-color="#E35F01"/>
<stop offset="1" stop-color="#FD7E00"/>
</linearGradient>
</defs>
</svg>
