<svg width="91" height="111" viewBox="0 0 91 111" fill="none" xmlns="http://www.w3.org/2000/svg">
<path d="M36.5124 76.6331C35.406 76.9097 34.5762 77.1863 33.7464 77.7395C32.6399 76.0799 31.8102 74.1436 30.7037 72.7606C28.7675 69.9945 26.5546 67.505 24.6183 64.7389C21.5756 60.5898 19.0861 56.4407 17.9797 51.1851C15.4902 38.1845 22.682 25.4605 35.1294 20.4815C51.4493 13.8429 70.2587 24.9073 72.7482 42.3336C73.8546 50.3553 71.3651 56.9939 66.9394 63.3559C65.0031 66.122 62.5137 68.8881 60.5774 71.9308C59.1944 73.867 58.3646 75.8033 56.9816 77.7395C56.4283 78.5694 55.8751 79.3992 55.0453 79.6758C48.6833 82.1653 42.3213 84.3782 35.9593 86.591C35.1294 86.8676 34.5762 86.591 34.2996 86.0378C34.023 85.208 34.023 84.3782 34.8529 84.1015C35.4061 83.8249 35.9592 83.5483 36.5124 83.5483C42.0446 81.6121 47.5768 79.6758 53.109 77.4629C53.6622 77.1863 54.2154 76.6331 54.492 76.0799C56.7049 71.9308 59.471 68.6115 62.2371 64.7389C65.0032 61.143 67.4926 57.8237 68.5991 53.398C71.3652 44.5465 69.4289 36.8014 63.3435 30.1628C56.4283 22.4178 47.5769 19.9283 37.6189 22.971C27.661 26.0137 22.1288 32.9289 20.1925 43.1634C18.8095 50.3553 21.299 56.4407 25.4481 61.9728C27.9376 65.2921 30.4271 68.6115 32.9166 71.9308C34.5762 73.0372 35.406 74.6968 36.5124 76.6331Z" fill="#F47300"/>
<path d="M35.1291 104.017C34.8525 103.741 34.2993 103.464 34.2993 102.911C34.2993 102.358 34.576 101.804 34.8526 101.251C34.8526 100.975 35.4058 100.975 35.6824 100.975C41.7678 98.7617 48.1298 96.5488 54.2152 94.3359C55.5982 93.7827 56.1514 94.0593 56.428 94.8891C56.7046 95.719 56.1514 96.5488 55.045 97.102C48.683 99.3149 42.5976 101.528 36.2356 104.017C35.959 103.741 35.6823 103.741 35.1291 104.017Z" fill="#F47300"/>
<path d="M35.1291 94.8898C34.8525 94.6132 34.2993 94.3366 34.2993 93.7833C34.2993 93.2301 34.576 92.6769 34.8526 92.1237C34.8526 91.8471 35.4058 91.8471 35.6824 91.8471C41.7678 89.6342 48.1298 87.4213 54.2152 85.2085C55.5982 84.6553 56.1514 84.9319 56.428 85.7617C56.7046 86.5915 56.428 87.4213 55.045 87.9746C48.683 90.1874 42.5976 92.6769 36.2356 94.8898C35.959 94.8898 35.6823 94.8898 35.1291 94.8898Z" fill="#F47300"/>
<path d="M55.0447 102.635C53.1085 109.273 42.3207 113.146 35.6821 109.55C42.0441 107.337 48.4061 104.847 55.0447 102.635Z" fill="#F47300"/>
<path d="M46.747 5.82149C46.747 6.92792 46.747 8.03436 46.747 9.14079C46.747 9.97062 46.1938 10.5238 45.364 10.5238C44.5342 10.5238 43.981 9.97062 43.981 9.14079C43.981 6.92792 43.981 4.71505 43.981 2.22557C43.981 1.39575 44.5342 0.842529 45.364 0.842529C46.1938 0.842529 46.747 1.39575 46.747 2.22557C46.747 3.33201 46.747 4.71505 46.747 5.82149Z" fill="#F47300"/>
<path d="M4.97892 44.5469C6.08536 44.5469 7.19183 44.5469 8.29826 44.5469C9.4047 44.5469 9.95793 45.1001 9.95793 45.9299C9.95793 46.7597 9.4047 47.313 8.29826 47.313C6.08539 47.313 3.87254 47.313 1.65967 47.313C0.553234 47.313 0 46.7597 0 45.9299C0 45.1001 0.553234 44.5469 1.65967 44.5469C2.7661 44.5469 3.87249 44.5469 4.97892 44.5469Z" fill="#F47300"/>
<path d="M85.7483 47.5896C84.6418 47.5896 83.5354 47.5896 82.4289 47.5896C81.5991 47.5896 81.0459 47.0364 81.0459 46.2065C81.0459 45.3767 81.5991 44.8235 82.4289 44.8235C84.6418 44.8235 87.1313 44.8235 89.3442 44.8235C90.174 44.8235 90.7272 45.3767 90.7272 46.2065C90.7272 47.0364 90.174 47.5896 89.3442 47.5896C87.9611 47.5896 86.8547 47.5896 85.7483 47.5896Z" fill="#F47300"/>
<path d="M13.8306 13.0132C14.3838 13.2898 14.6604 13.5664 14.937 13.843C16.5967 15.5027 17.9798 16.8857 19.6394 18.5454C20.4692 19.3752 20.4692 19.9284 19.6394 20.7582C19.0862 21.3114 18.2563 21.3114 17.4265 20.7582C15.7669 19.0986 14.1072 17.7155 12.7242 16.0559C12.4476 15.7793 12.171 14.9494 12.4476 14.3962C12.7242 13.5664 13.554 13.2898 13.8306 13.0132Z" fill="#F47300"/>
<path d="M71.6419 70.8252C72.1951 71.1018 72.4717 71.3784 72.7483 71.655C74.408 73.0381 75.791 74.6977 77.4507 76.0808C78.2805 76.9106 78.2805 77.7404 77.7273 78.2936C77.1741 78.8469 76.3442 78.8469 75.5144 78.017C73.8547 76.3574 72.4717 74.9743 70.8121 73.3147C70.5355 73.0381 70.2589 72.2082 70.5355 71.655C70.5355 71.3784 71.0887 71.1018 71.6419 70.8252Z" fill="#F47300"/>
<path d="M78.28 14.6729C78.0034 15.2261 77.7269 15.5027 77.4503 15.7793C75.7906 17.439 74.4075 18.822 72.7479 20.4817C72.1946 21.0349 71.3649 21.3115 70.535 20.4817C69.9818 19.9285 69.9818 19.0987 70.535 18.2688C72.1947 16.6092 73.5777 14.9495 75.2373 13.5665C75.5139 13.2899 76.3438 13.0133 76.897 13.2899C77.4502 13.5665 77.7268 14.3963 78.28 14.6729Z" fill="#F47300"/>
<path d="M13.8299 78.846C13.5533 78.5694 13.0001 78.2928 12.7235 77.7396C12.4469 77.4629 12.7235 76.6331 12.7235 76.3565C14.3832 74.6969 16.0428 72.7606 17.9791 71.1009C18.5323 70.5477 19.3621 70.5477 19.9153 71.1009C20.4685 71.6542 20.4685 72.484 19.9153 73.0372C18.2556 74.6969 16.596 76.3565 14.9364 78.0162C14.6598 78.5694 14.3832 78.846 13.8299 78.846Z" fill="#F47300"/>
</svg>
