<svg width="35" height="36" viewBox="0 0 35 36" fill="none" xmlns="http://www.w3.org/2000/svg">
<path d="M9.64319 8.84536L6.81315 6.01532C6.42229 5.62445 5.78899 5.62445 5.39813 6.01532C5.00726 6.40618 5.00726 7.03947 5.39813 7.43034L8.22817 10.2604C8.61903 10.6512 9.25233 10.6512 9.64319 10.2604C10.0341 9.86951 10.0341 9.23622 9.64319 8.84536Z" fill="#7705FF"/>
<path d="M5.41872 17.0433H1.34931C0.796201 17.0433 0.348633 17.4909 0.348633 18.044C0.348633 18.5971 0.796201 19.0447 1.34931 19.0447H5.41872C5.97182 19.0447 6.41939 18.5971 6.41939 18.044C6.41939 17.4909 5.97182 17.0433 5.41872 17.0433Z" fill="#7705FF"/>
<path d="M33.5042 17.0433H29.4348C28.8817 17.0433 28.4341 17.4909 28.4341 18.044C28.4341 18.5971 28.8817 19.0447 29.4348 19.0447H33.5042C34.0573 19.0447 34.5048 18.5971 34.5048 18.044C34.5048 17.4909 34.0573 17.0433 33.5042 17.0433Z" fill="#7705FF"/>
<path d="M29.4557 6.01532C29.0648 5.62445 28.4315 5.62445 28.0407 6.01532L25.2106 8.84536C24.8198 9.23622 24.8198 9.86951 25.2106 10.2604C25.6015 10.6512 26.2348 10.6512 26.6256 10.2604L29.4557 7.43034C29.8466 7.03947 29.8466 6.40625 29.4557 6.01532Z" fill="#7705FF"/>
<path d="M17.4269 0.96582C16.8738 0.96582 16.4263 1.41339 16.4263 1.96649V6.0359C16.4263 6.58901 16.8738 7.03658 17.4269 7.03658C17.9801 7.03658 18.4276 6.58901 18.4276 6.0359V1.96649C18.4276 1.41339 17.9801 0.96582 17.4269 0.96582Z" fill="#7705FF"/>
<path d="M23.0308 10.9791C20.8494 9.25799 18.0275 8.63764 15.2656 9.29808C12.0635 10.0386 9.48178 12.5802 8.70118 15.7624C7.92066 18.9645 8.82126 22.2067 11.1227 24.4682C11.9434 25.2889 12.4237 26.5763 12.4237 27.8973V28.1174C12.4237 28.6777 12.8639 29.1181 13.4244 29.1181H21.4298C21.9902 29.1181 22.4304 28.6777 22.4304 28.1174V27.8973C22.4304 26.5963 22.9308 25.2688 23.8114 24.4082C25.4926 22.7071 26.4331 20.4456 26.4331 18.044C26.4331 15.2821 25.1923 12.7003 23.0308 10.9791ZM17.4271 15.042C15.9174 15.042 14.8184 16.0434 14.5306 17.2026C14.3996 17.7298 13.8691 18.0663 13.3178 17.9336C12.7823 17.8007 12.4549 17.2573 12.5879 16.7218C13.0837 14.7205 14.9635 13.0406 17.4271 13.0406C17.9802 13.0406 18.4277 13.4882 18.4277 14.0413C18.4277 14.5944 17.9802 15.042 17.4271 15.042Z" fill="#7705FF"/>
<path d="M13.4243 31.1195V32.1202C13.4243 33.7756 14.771 35.1222 16.4263 35.1222H18.4277C20.0831 35.1222 21.4297 33.7756 21.4297 32.1202V31.1195H13.4243Z" fill="#7705FF"/>
</svg>
