<svg width="23" height="36" viewBox="0 0 23 36" fill="none" xmlns="http://www.w3.org/2000/svg">
<path d="M21.9349 20.476L2.64872 1.19662C1.94228 0.635697 0.879883 1.17107 0.879883 2.00998V28.3574C0.879883 28.947 1.35841 29.4256 1.94802 29.4256C2.22574 29.4256 2.492 29.3186 2.64455 29.1648L7.98784 24.5092L12.3459 34.6906C12.42 34.8643 12.5595 35.0012 12.7347 35.0724C12.8203 35.105 12.91 35.1222 12.9997 35.1222C13.0951 35.1222 13.1906 35.1021 13.2803 35.0638L17.866 33.0983C18.2277 32.9447 18.3959 32.5259 18.2407 32.1642L14.0222 22.3046H21.1745C21.7641 22.3046 22.2426 21.826 22.2426 21.2364C22.2426 21.0641 22.1985 20.8048 21.9349 20.476Z" fill="#7705FF"/>
</svg>
