<svg width="79" height="32" viewBox="0 0 79 32" fill="none" xmlns="http://www.w3.org/2000/svg">
<path d="M4.02469 17.358H19.9259V16.3086C19.9259 9.92593 15.8395 7 10.2469 7C3.23457 7 0 10.8025 0 16.5802C0 21.8272 3.12346 25.716 10.1852 25.716C14.0617 25.716 18.5802 24.2716 19.3704 20.0247H15.2839C13.8025 24.4444 4.45679 24.5556 4.02469 17.358ZM15.7531 14.716H4.09877C4.95062 7.72839 15.4691 7.96296 15.7531 14.716Z" fill="#E53238"/>
<mask id="mask0_954_295612" style="mask-type:alpha" maskUnits="userSpaceOnUse" x="0" y="0" width="79" height="32">
<path d="M74.8025 7.61728L68.037 21.1852L61.2593 7.61728H56.6296L57.9753 10.1605C56.5556 7.81482 53.5432 6.95062 50.1605 6.95062C46.2346 6.95062 41.7778 8.02469 41.3333 12.2716H45.4938C45.6667 10.5679 47.4321 9.58025 49.8148 9.58025C53.0247 9.58025 54.8765 10.7654 54.8765 13.6543V14.0741C53.3086 14.0741 51.4198 14.0864 49.7284 14.1235C44.4938 14.2346 41.1358 15.358 40.2593 18.3704C40.3827 17.7284 40.4444 17.0617 40.4444 16.3704C40.4444 9.93827 35.5432 6.96296 31.1358 6.96296C28.5062 6.96296 25.8272 7.64197 23.8889 9.95062V0H19.9259V20.9259C19.9259 22.1975 19.8518 23.7531 19.7901 25.0123H23.679C23.7654 24.2346 23.8148 23.4198 23.8148 22.6049C25.4938 24.6543 28.1852 25.679 31.0617 25.679C35.6173 25.679 39.0741 22.9753 40.1111 18.9877C40.0494 19.3333 40.0247 19.7037 40.0247 20.0988C40.0247 23.0741 42.6296 25.6543 47.5062 25.6543C50.7901 25.6543 53.1605 24.9506 55.1481 22.5062C55.1481 23.321 55.1852 24.1481 55.2839 25H58.963C58.8765 23.9877 58.8395 22.8395 58.8395 21.6914V13.5926C58.8395 12.4444 58.6296 11.4691 58.2469 10.6543L65.8395 24.9877L62.321 31.6667H66.7531L79 7.61728H74.8025ZM30.0741 22.963C26.4198 22.963 23.8765 20.3086 23.8765 16.321C23.8765 12.321 26.4198 9.67901 30.0741 9.67901C33.7531 9.67901 36.2716 12.321 36.2716 16.321C36.2716 20.3086 33.7531 22.963 30.0741 22.963ZM54.8765 17.1235C54.8765 20.8272 52.6667 23.0988 48.5062 23.0988C45.4074 23.0988 44.1852 21.4444 44.1852 19.9136C44.1852 17.5556 46.4198 16.9012 50.0123 16.7901C51.6296 16.7284 53.4198 16.7161 54.8765 16.7161V17.1235ZM4.02469 17.321H19.9259V16.2716C19.9259 9.88889 15.8395 6.96296 10.2469 6.96296C3.23457 6.96296 0 10.7654 0 16.5432C0 21.7901 3.12346 25.679 10.1852 25.679C14.0617 25.679 18.5802 24.2346 19.3704 19.9877H15.2839C13.8025 24.4074 4.45679 24.5185 4.02469 17.321ZM15.7531 14.679H4.09877C4.95062 7.69136 15.4691 7.92593 15.7531 14.679Z" fill="black"/>
</mask>
<g mask="url(#mask0_954_295612)">
<path d="M20 0H40L41 15.5L40 19.5V26H20V0Z" fill="#0064D2"/>
<path d="M56 0H78.8571L80 19.6731L78.8571 24.75V33H56V0Z" fill="#86B817"/>
<path d="M40 0C40 0 54 3.5 58 10.5C61.1969 16.0947 60 26 60 26H40V19.5L41 15.5L40 6.5V0Z" fill="#F5AF02"/>
</g>
</svg>
