<svg width="954" height="385" viewBox="0 0 954 385" fill="none" xmlns="http://www.w3.org/2000/svg">
<path d="M71.3643 381.857C60.6747 384.722 50.6283 384.963 41.2251 382.583C31.8689 380.12 23.7943 375.486 17.001 368.678C10.2549 361.79 5.48418 353.129 2.68893 342.697C-0.365135 331.299 -0.768517 320.779 1.47878 311.135C3.72608 301.492 8.18887 293.29 14.8671 286.532C21.5281 279.708 30.0102 274.917 40.3134 272.156C51.2606 269.223 61.2559 269.305 70.2993 272.403C79.3426 275.502 86.9505 281.228 93.123 289.581C99.2954 297.935 103.525 308.57 105.812 321.484L79.829 328.447L77.2408 318.787C74.3938 308.162 70.6427 300.988 65.9874 297.267C61.3793 293.463 55.2437 292.588 47.5807 294.641C38.6298 297.039 32.7626 301.545 29.9792 308.157C27.2429 314.688 27.2982 323.266 30.1452 333.891C32.7507 343.615 36.8623 350.588 42.4801 354.811C48.1451 358.953 55.0666 359.928 63.2448 357.737C68.3964 356.356 72.5055 354.048 75.5721 350.81C78.6387 347.573 80.5686 343.57 81.3616 338.803L109.654 339.297C108.279 349.88 104.049 358.951 96.9641 366.509C89.9432 374.049 81.4099 379.166 71.3643 381.857ZM23.9985 343.406L18.7704 323.895L87.9306 305.363L93.1588 324.875L23.9985 343.406Z" fill="#F47300" fill-opacity="0.1"/>
<path d="M161.704 357.651C154.234 359.652 147.512 359.935 141.536 358.499C135.608 356.982 130.654 354.203 126.672 350.163C122.738 346.04 119.994 341.081 118.441 335.286C117.147 330.456 116.706 325.847 117.117 321.457C117.529 317.068 118.971 312.92 121.444 309.014C123.964 305.025 127.75 301.25 132.8 297.689C136.284 295.237 140.552 292.747 145.603 290.22C150.655 287.694 156.432 285.041 162.934 282.264C169.42 279.422 176.555 276.302 184.341 272.904L176.273 280.657C174.616 274.475 171.919 270.332 168.18 268.228C164.442 266.124 159.095 266.003 152.14 267.867C148.277 268.902 144.502 270.914 140.817 273.903C137.132 276.892 135.09 280.994 134.693 286.207L108.912 285.04C109.24 275.704 112.318 267.356 118.145 259.997C123.972 252.638 133.165 247.276 145.722 243.912C154.93 241.444 163.488 240.67 171.395 241.588C179.302 242.506 186.023 245.951 191.557 251.922C194.652 255.233 196.911 258.769 198.333 262.529C199.755 266.29 201.104 270.552 202.381 275.317L219.463 339.069L196.474 345.228L190.728 323.785L195.203 327.348C191.996 335.73 187.853 342.293 182.775 347.036C177.743 351.697 170.719 355.235 161.704 357.651ZM161.768 335.479C166.597 334.185 170.43 332.261 173.265 329.706C176.148 327.07 178.262 324.399 179.607 321.692C181.017 318.967 181.877 316.77 182.189 315.099C182.782 311.903 182.675 308.412 181.867 304.625C181.107 300.757 180.39 297.567 179.717 295.056L187.962 294.917C180.515 298.293 174.498 301.078 169.91 303.274C165.305 305.405 161.616 307.222 158.843 308.724C156.071 310.226 153.67 311.698 151.641 313.139C149.341 314.859 147.55 316.547 146.268 318.202C145.033 319.775 144.219 321.373 143.826 322.997C143.497 324.604 143.566 326.276 144.032 328.015C144.67 330.398 145.802 332.303 147.427 333.731C149.099 335.077 151.15 335.908 153.581 336.223C156.012 336.538 158.741 336.29 161.768 335.479Z" fill="#F47300" fill-opacity="0.1"/>
<path d="M280.321 325.867C267.185 329.387 255.766 329.272 246.065 325.522C236.41 321.69 229.256 314.566 224.601 304.149L250.367 292.897C252.773 297.497 256.215 300.682 260.691 302.45C265.233 304.201 270.401 304.3 276.197 302.747C280.962 301.47 284.391 299.585 286.484 297.092C288.559 294.534 289.157 291.613 288.277 288.329C287.725 286.269 286.769 284.765 285.411 283.817C284.036 282.805 281.381 282.171 277.447 281.914C273.578 281.639 267.608 281.513 259.539 281.536C250.452 281.624 243.003 280.997 237.191 279.656C231.379 278.314 226.846 276.078 223.591 272.947C220.32 269.752 217.968 265.481 216.535 260.137C214.741 253.44 214.894 247.187 216.996 241.378C219.08 235.505 222.86 230.421 228.334 226.124C233.856 221.746 240.835 218.426 249.27 216.166C257.449 213.975 265.029 213.289 272.013 214.11C278.997 214.93 285.042 217.141 290.148 220.742C295.318 224.326 299.2 229.153 301.792 235.222L276.233 247.247C274.747 243.504 272.253 240.893 268.752 239.416C265.25 237.939 260.968 237.671 255.906 238.613C250.99 239.585 247.267 241.273 244.736 243.677C242.27 246.063 241.442 248.77 242.253 251.796C242.736 253.599 243.753 254.949 245.305 255.844C246.921 256.723 249.865 257.28 254.138 257.515C258.476 257.733 264.978 257.785 273.643 257.672C282.116 257.61 289.106 258.326 294.613 259.818C300.168 261.228 304.557 263.572 307.782 266.849C310.989 270.062 313.318 274.373 314.767 279.782C317.631 290.471 316.019 299.91 309.931 308.098C303.843 316.286 293.973 322.209 280.321 325.867Z" fill="#F47300" fill-opacity="0.1"/>
<path d="M360.615 350.94L365.902 290.306L370.637 306.43L295.319 206.933L322.558 199.635L374.252 270.469L368.07 272.125L377.229 184.985L403.502 177.945L384.957 344.418L360.615 350.94Z" fill="#F47300" fill-opacity="0.1"/>
<path d="M480.781 272.154C467.644 275.674 456.226 275.559 446.524 271.809C436.87 267.977 429.716 260.853 425.061 250.436L450.827 239.184C453.233 243.784 456.674 246.969 461.151 248.737C465.693 250.488 470.861 250.587 476.656 249.034C481.422 247.757 484.851 245.872 486.943 243.379C489.019 240.821 489.616 237.9 488.737 234.616C488.184 232.556 487.229 231.052 485.871 230.104C484.496 229.092 481.841 228.458 477.907 228.201C474.037 227.926 468.068 227.8 459.999 227.823C450.912 227.911 443.463 227.284 437.651 225.943C431.839 224.601 427.306 222.365 424.051 219.234C420.779 216.039 418.427 211.768 416.995 206.424C415.201 199.727 415.354 193.474 417.456 187.665C419.54 181.792 423.32 176.708 428.794 172.411C434.316 168.033 441.294 164.713 449.73 162.453C457.908 160.262 465.489 159.576 472.473 160.397C479.457 161.217 485.501 163.428 490.607 167.029C495.778 170.613 499.659 175.439 502.252 181.509L476.693 193.533C475.207 189.791 472.713 187.18 469.212 185.703C465.71 184.226 461.428 183.958 456.366 184.9C451.45 185.872 447.727 187.56 445.196 189.964C442.73 192.35 441.902 195.057 442.713 198.083C443.196 199.886 444.213 201.236 445.765 202.131C447.38 203.01 450.325 203.567 454.598 203.802C458.936 204.02 465.437 204.072 474.103 203.959C482.576 203.897 489.566 204.613 495.073 206.105C500.627 207.515 505.017 209.859 508.242 213.136C511.449 216.349 513.778 220.66 515.227 226.069C518.091 236.758 516.479 246.197 510.391 254.385C504.303 262.573 494.433 268.496 480.781 272.154Z" fill="#F47300" fill-opacity="0.1"/>
<path d="M588.361 243.328C577.671 246.193 567.625 246.434 558.222 244.054C548.866 241.591 540.791 236.957 533.998 230.15C527.252 223.261 522.481 214.601 519.686 204.169C516.632 192.771 516.228 182.25 518.475 172.606C520.723 162.963 525.186 154.762 531.864 148.003C538.525 141.18 547.007 136.388 557.31 133.627C568.257 130.694 578.253 130.776 587.296 133.875C596.339 136.973 603.947 142.699 610.12 151.053C616.292 159.406 620.522 170.041 622.809 182.955L596.826 189.918L594.238 180.258C591.391 169.633 587.639 162.46 582.984 158.738C578.376 154.934 572.24 154.059 564.577 156.112C555.626 158.511 549.759 163.016 546.976 169.628C544.24 176.159 544.295 184.737 547.142 195.362C549.747 205.086 553.859 212.059 559.477 216.283C565.142 220.424 572.063 221.399 580.242 219.208C585.393 217.828 589.502 215.519 592.569 212.281C595.635 209.044 597.565 205.042 598.358 200.274L626.65 200.768C625.276 211.351 621.046 220.422 613.961 227.98C606.94 235.52 598.407 240.637 588.361 243.328ZM540.995 204.877L535.767 185.366L604.927 166.834L610.155 186.346L540.995 204.877Z" fill="#F47300" fill-opacity="0.1"/>
<path d="M698.554 213.802C688.057 216.615 678.219 216.732 669.039 214.153C659.858 211.575 651.942 206.76 645.291 199.708C638.686 192.574 633.943 183.63 631.061 172.876C628.145 161.993 627.837 151.827 630.136 142.376C632.418 132.862 636.898 124.725 643.576 117.966C650.254 111.207 658.745 106.448 669.048 103.687C679.545 100.874 689.383 100.757 698.563 103.336C707.808 105.897 715.764 110.736 722.434 117.852C729.085 124.904 733.852 133.807 736.734 144.561C739.632 155.38 739.941 165.546 737.659 175.061C735.424 184.494 730.944 192.631 724.219 199.471C717.541 206.23 708.986 211.007 698.554 213.802ZM691.979 189.268C700.415 187.008 705.935 182.492 708.537 175.721C711.188 168.868 711.313 160.966 708.915 152.015C706.43 142.742 702.321 135.906 696.587 131.507C690.917 127.091 683.929 125.996 675.622 128.221C669.891 129.757 665.535 132.305 662.555 135.864C659.575 139.423 657.795 143.73 657.217 148.786C656.704 153.824 657.258 159.369 658.88 165.422C661.382 174.759 665.468 181.636 671.137 186.053C676.854 190.388 683.801 191.459 691.979 189.268Z" fill="#F47300" fill-opacity="0.1"/>
<path d="M766.632 192.455L759.593 166.182L785.866 159.142L792.906 185.415L766.632 192.455Z" fill="#F47300" fill-opacity="0.1"/>
<path d="M848.221 173.699C840.751 175.701 834.028 175.984 828.053 174.548C822.125 173.03 817.17 170.251 813.189 166.211C809.255 162.089 806.511 157.13 804.958 151.334C803.664 146.505 803.223 141.895 803.634 137.506C804.045 133.117 805.487 128.969 807.961 125.062C810.481 121.074 814.266 117.299 819.316 113.737C822.801 111.285 827.068 108.796 832.12 106.269C837.171 103.742 842.948 101.09 849.451 98.312C855.936 95.47 863.072 92.3502 870.858 88.9526L862.79 96.705C861.133 90.5231 858.436 86.3801 854.697 84.276C850.958 82.1719 845.612 82.0517 838.657 83.9152C834.793 84.9504 831.019 86.9626 827.333 89.9516C823.648 92.9406 821.607 97.042 821.209 102.256L795.429 101.089C795.757 91.7522 798.835 83.4046 804.662 76.0456C810.489 68.6866 819.681 63.3248 832.238 59.9602C841.447 57.4928 850.005 56.7181 857.912 57.6363C865.819 58.5544 872.539 61.999 878.073 67.9702C881.169 71.2817 883.428 74.8176 884.85 78.5778C886.271 82.338 887.62 86.6007 888.897 91.3659L905.979 155.117L882.99 161.277L877.245 139.833L881.719 143.397C878.513 151.779 874.37 158.341 869.291 163.084C864.26 167.745 857.236 171.284 848.221 173.699ZM848.284 151.527C853.114 150.233 856.947 148.309 859.782 145.755C862.665 143.119 864.779 140.447 866.124 137.74C867.534 135.016 868.394 132.818 868.706 131.147C869.299 127.952 869.191 124.461 868.384 120.674C867.623 116.806 866.907 113.616 866.234 111.104L874.479 110.966C867.032 114.341 861.015 117.127 856.427 119.323C851.821 121.454 848.132 123.27 845.36 124.772C842.588 126.275 840.187 127.746 838.157 129.187C835.857 130.908 834.067 132.595 832.785 134.25C831.55 135.823 830.736 137.422 830.343 139.046C830.014 140.652 830.082 142.325 830.548 144.063C831.187 146.446 832.318 148.351 833.943 149.779C835.615 151.126 837.667 151.957 840.098 152.271C842.529 152.586 845.258 152.338 848.284 151.527Z" fill="#F47300" fill-opacity="0.1"/>
<path d="M895.396 30.6137L889.185 7.43148L915.458 0.391602L921.67 23.5738L895.396 30.6137ZM927.231 149.423L899.279 45.1026L925.552 38.0627L953.504 142.383L927.231 149.423Z" fill="#F47300" fill-opacity="0.1"/>
</svg>
