<svg width="68" height="32" viewBox="0 0 68 32" fill="none" xmlns="http://www.w3.org/2000/svg">
<path d="M30.7872 22.9346C29.3117 22.9346 28.4527 21.9442 28.4527 19.3704V10.2882L33.3576 10.6655L33.6069 8.32761L28.5672 8.57689V3.42267H27.0917C26.364 7.46857 24.5348 8.94072 22.0789 9.19001V10.4162H25.0064V20.7314C25.0064 23.5477 26.9872 25.0131 29.4296 25.0131C31.4003 25.0131 33.4789 24.1541 34.2065 22.4428L33.4755 21.5837C33.1117 22.1901 32.1213 22.9346 30.7872 22.9346ZM19.0167 20.2295C18.0263 22.5539 16.4329 22.6853 14.8394 22.6853H9.68522C7.97389 22.6853 7.22939 22.0587 7.22939 20.5967V12.99C7.22939 12.99 10.9081 12.99 12.1377 13.1214C13.118 13.2393 13.6132 13.4886 13.977 14.7148L14.3409 16.4362H15.8164L15.685 12.0265L15.9343 7.72123H14.4722L13.977 9.69196C13.7311 11.0361 13.4818 11.1675 12.1377 11.4033C10.4264 11.5313 7.22939 11.5313 7.22939 11.5313V2.45584C7.22939 2.07853 7.22939 1.96063 7.85261 1.96063H15.5705C16.9247 1.96063 17.6591 3.05885 18.1408 5.26202L18.6361 6.98684H19.9802C20.1116 2.07853 20.2295 0 20.2295 0C20.2295 0 16.9247 0.353721 14.9675 0.353721H5.15422L0 0.249289V1.59343L1.71134 1.95389C2.94768 2.20318 3.3115 2.4491 3.3115 3.54732C3.3115 3.54732 3.44289 6.86219 3.44289 12.3701C3.44289 17.8916 3.3115 21.2064 3.3115 21.2064C3.3115 22.1867 2.94768 22.5506 1.71134 22.7999L0 23.1805V24.5146L5.27213 24.3967H14.1084C16.0657 24.3967 20.7281 24.5146 20.7281 24.5146C20.8426 23.2984 21.4557 17.8983 21.5871 17.2852H20.3474L19.0167 20.2295ZM39.3641 11.3966C39.3641 9.79976 40.8363 9.19001 42.3118 9.19001C43.5246 9.19001 44.5116 9.68522 44.7676 10.2849L45.6267 12.7407L46.8428 12.6228C46.8428 11.3966 46.9708 9.79976 47.2167 8.57689C46.1118 8.08168 43.9052 7.8324 42.4297 7.8324C39.1148 7.8324 36.5445 9.31803 36.5445 12.5049C36.5445 18.1442 44.7643 16.918 44.7643 21.0919C44.7643 22.436 43.9019 23.5477 41.8132 23.5477C39.856 23.5477 38.9936 22.5573 38.6297 21.577L37.6528 19.2424H36.4097C36.5445 20.846 36.659 22.436 36.4097 23.8981C36.4097 23.8981 38.9935 24.8885 41.5673 24.8885C45.0102 24.8885 47.8265 23.1805 47.8265 19.9802C47.8265 14.3409 39.3641 15.1932 39.3641 11.3966ZM60.8198 8.21307V9.4393L61.6923 9.68859C62.5413 9.92441 62.9051 10.2882 62.9051 10.9115C62.9051 11.2753 62.7906 11.3966 62.6592 11.8918C62.2954 12.8721 59.9574 18.6394 58.7447 21.2132C57.4485 17.9276 56.2209 14.6153 55.0626 11.2787C54.9447 11.0327 54.9447 10.9148 54.9447 10.7868C54.9447 10.2882 55.2984 9.80313 56.1608 9.68859L57.2691 9.4393V8.21307L52.7348 8.45899L49.0426 8.32761V9.56732L49.6726 9.79976C50.5181 10.0491 50.6394 10.1703 51.2525 11.5246C53.5871 16.6788 56.1608 23.413 57.0333 25.505C55.066 28.9378 52.9773 29.9147 51.3839 29.9147C50.4036 29.9147 50.0398 29.4195 49.9185 28.8064L49.4266 26.236L48.0791 26.3539C47.8332 27.9608 47.5839 29.6688 47.2201 31.0129C48.1869 31.626 49.2953 32.0033 50.7674 32C53.0952 32 56.4101 31.3869 59.6037 24.144L64.9971 11.5212C65.4856 10.5342 65.6102 10.4129 66.8365 9.91767L67.4529 9.43256V8.21307L64.2695 8.32761L60.8198 8.21307Z" fill="#F47300"/>
</svg>
