<svg width="36" height="36" viewBox="0 0 36 36" fill="none" xmlns="http://www.w3.org/2000/svg">
<path d="M17.8427 19.0428L13.6963 31.0917C14.9349 31.4548 16.2443 31.6552 17.6011 31.6552C19.21 31.6552 20.7541 31.3767 22.1898 30.8715C22.1529 30.8122 22.1192 30.7493 22.0918 30.6809L17.8427 19.0428Z" fill="white"/>
<path d="M3.77979 17.8332C3.77979 23.3043 6.95918 28.0318 11.5695 30.2717L4.97712 12.2089C4.21048 13.9277 3.77979 15.8298 3.77979 17.8332Z" fill="white"/>
<path d="M26.9295 17.136C26.9295 15.4281 26.3166 14.2456 25.7908 13.3241C25.09 12.1857 24.4333 11.222 24.4333 10.0833C24.4333 8.81287 25.3966 7.63036 26.7542 7.63036C26.8156 7.63036 26.8735 7.63796 26.9335 7.64085C24.4752 5.38901 21.1996 4.0134 17.6011 4.0134C12.772 4.0134 8.52397 6.49052 6.05371 10.2431C6.37773 10.2529 6.68258 10.2597 6.94294 10.2597C8.38872 10.2597 10.6268 10.0843 10.6268 10.0843C11.3725 10.0395 11.4593 11.1341 10.7154 11.222C10.7154 11.222 9.96648 11.3099 9.13366 11.354L14.1657 26.3242L17.1899 17.2528L15.0361 11.3536C14.2919 11.3095 13.5871 11.2217 13.5871 11.2217C12.8428 11.1783 12.9296 10.0399 13.6742 10.084C13.6742 10.084 15.9571 10.2594 17.3143 10.2594C18.7597 10.2594 20.9985 10.084 20.9985 10.084C21.7442 10.0399 21.8314 11.1338 21.0864 11.2217C21.0864 11.2217 20.3368 11.3095 19.5047 11.3536L24.4998 26.2102L25.8783 21.6039C26.4753 19.6923 26.9295 18.3189 26.9295 17.136Z" fill="white"/>
<path d="M29.7275 11.2029C29.7868 11.6426 29.8208 12.116 29.8208 12.624C29.8208 14.0264 29.5594 15.6031 28.7703 17.5743L24.5483 29.7795C28.6568 27.3834 31.4214 22.9318 31.4214 17.834C31.4217 15.4306 30.8073 13.1712 29.7275 11.2029Z" fill="white"/>
<path d="M17.6002 0.298767C7.91593 0.298767 0.0654297 8.14963 0.0654297 17.8339C0.0654297 27.5182 7.91593 35.3691 17.6002 35.3691C27.2845 35.3691 35.135 27.5182 35.135 17.8339C35.135 8.14963 27.2845 0.298767 17.6002 0.298767ZM17.6009 33.2055C9.12448 33.2055 2.22939 26.3104 2.22939 17.8332C2.22939 9.35745 9.12411 2.46236 17.6009 2.46236C26.0763 2.46236 32.9711 9.35781 32.9711 17.8332C32.9714 26.3097 26.076 33.2055 17.6009 33.2055Z" fill="white"/>
</svg>
