<svg width="32" height="23" viewBox="0 0 32 23" fill="none" xmlns="http://www.w3.org/2000/svg">
<path d="M20.5155 13.0596L17.9192 15.6647C16.8664 16.7212 15.0139 16.744 13.9382 15.6647L11.3418 13.0596L2.0166 22.4151C2.36372 22.5756 2.74644 22.6714 3.15331 22.6714H28.7041C29.111 22.6714 29.4936 22.5757 29.8406 22.4151L20.5155 13.0596Z" fill="white"/>
<path d="M28.704 0.87468H3.15319C2.74631 0.87468 2.3636 0.970465 2.0166 1.13098L11.9812 11.1287C11.9819 11.1293 11.9827 11.1295 11.9834 11.1301C11.984 11.1308 11.9842 11.1317 11.9842 11.1317L15.2242 14.3825C15.5684 14.7266 16.289 14.7266 16.6331 14.3825L19.8725 11.1322C19.8725 11.1322 19.8733 11.1308 19.874 11.1301C19.874 11.1301 19.8754 11.1293 19.8761 11.1287L29.8405 1.13091C29.4935 0.970344 29.1109 0.87468 28.704 0.87468Z" fill="white"/>
<path d="M0.718489 2.40131C0.538906 2.76447 0.428711 3.16759 0.428711 3.59941V19.9471C0.428711 20.3789 0.538785 20.782 0.718428 21.1452L10.0598 11.7736L0.718489 2.40131Z" fill="white"/>
<path d="M31.1391 2.40131L21.7979 11.7737L31.1391 21.1455C31.3187 20.7823 31.4289 20.3792 31.4289 19.9472V3.59953C31.4289 3.16759 31.3187 2.76447 31.1391 2.40131Z" fill="white"/>
</svg>
