<?xml version="1.0" encoding="UTF-8"?>
<!DOCTYPE svg PUBLIC "-//W3C//DTD SVG 1.1//EN" "http://www.w3.org/Graphics/SVG/1.1/DTD/svg11.dtd">
<svg xmlns="http://www.w3.org/2000/svg" version="1.1" width="225px" height="225px" style="shape-rendering:geometricPrecision; text-rendering:geometricPrecision; image-rendering:optimizeQuality; fill-rule:evenodd; clip-rule:evenodd" xmlns:xlink="http://www.w3.org/1999/xlink">
<g><path style="opacity:0.963" fill="#fefffe" d="M 97.5,-0.5 C 101.5,-0.5 105.5,-0.5 109.5,-0.5C 112.127,0.830822 114.46,2.66415 116.5,5C 129.294,6.78896 137.461,13.9556 141,26.5C 143.42,27.4881 145.753,27.1548 148,25.5C 148.991,26.4296 149.491,27.5962 149.5,29C 146.243,94.1488 143.243,159.316 140.5,224.5C 139.167,224.5 137.833,224.5 136.5,224.5C 95.6939,216.373 54.6939,208.54 13.5,201C 18.4647,155.228 24.2981,109.395 31,63.5C 39.6094,59.6841 48.4428,56.3508 57.5,53.5C 61.7312,34.8616 70.7312,19.0283 84.5,6C 88.6467,3.25995 92.98,1.09328 97.5,-0.5 Z M 100.5,7.5 C 102.604,7.2011 104.604,7.53443 106.5,8.5C 93.9399,17.5969 86.4399,29.9302 84,45.5C 78.6318,48.0518 73.1318,49.3851 67.5,49.5C 71.085,38.33 76.2517,27.9966 83,18.5C 87.8804,13.1522 93.7137,9.48558 100.5,7.5 Z M 121.5,14.5 C 124.643,15.1335 127.143,16.8002 129,19.5C 130.636,22.6061 132.136,25.7728 133.5,29C 130.909,31.1523 127.909,32.6523 124.5,33.5C 123.774,27.1013 122.774,20.768 121.5,14.5 Z M 111.5,15.5 C 112.117,15.6107 112.617,15.944 113,16.5C 114.942,23.0284 115.775,29.6951 115.5,36.5C 108.115,38.4684 100.782,40.3017 93.5,42C 96.5991,31.0896 102.599,22.2563 111.5,15.5 Z M 97.5,76.5 C 102.177,76.8345 106.844,77.3345 111.5,78C 114.008,78.115 116.008,79.115 117.5,81C 114.864,89.2417 112.031,97.4084 109,105.5C 101.927,101.85 94.4275,100.684 86.5,102C 78.3022,105.401 76.4688,110.901 81,118.5C 90.2511,124.416 98.2511,131.749 105,140.5C 111.861,157.549 108.694,172.382 95.5,185C 81.0551,192.456 66.7218,192.123 52.5,184C 49.1542,181.988 46.4875,179.321 44.5,176C 46.006,169.982 48.006,164.148 50.5,158.5C 57.609,165.036 65.9423,167.869 75.5,167C 81.1797,162.432 82.013,156.932 78,150.5C 73,146.167 68,141.833 63,137.5C 51.7277,118.494 54.2277,101.327 70.5,86C 78.7415,80.3104 87.7415,77.1437 97.5,76.5 Z"/></g>
<g><path style="opacity:0.973" fill="#fefffe" d="M 146.5,224.5 C 145.167,224.5 143.833,224.5 142.5,224.5C 145.461,160.512 148.294,96.5125 151,32.5C 151.192,30.4233 151.692,28.4233 152.5,26.5C 157.319,30.8181 161.985,35.3181 166.5,40C 173.133,40.1744 179.633,41.0078 186,42.5C 194.61,97.8267 203.11,153.16 211.5,208.5C 210.286,210.069 208.619,210.902 206.5,211C 186.303,215.219 166.303,219.719 146.5,224.5 Z"/></g>
</svg>
