<svg width="36" height="36" viewBox="0 0 36 36" fill="none" xmlns="http://www.w3.org/2000/svg">
<path d="M26.4455 15.6822C28.3834 15.6822 30.2032 16.1973 31.7755 17.0974V1.22954C31.7755 0.663461 31.3166 0.204529 30.7505 0.204529H9.29357C8.72749 0.204529 8.26855 0.663461 8.26855 1.22954V27.9485C8.26855 28.5146 8.72749 28.9735 9.29357 28.9735H15.9836C14.2939 22.343 19.5864 15.5893 26.4455 15.6822ZM13.3938 3.55297H26.6503C28.0102 3.60716 28.0092 5.54936 26.6503 5.603H13.3938C12.0338 5.54881 12.0349 3.60662 13.3938 3.55297ZM13.3938 7.65303H26.6503C28.0102 7.70722 28.0092 9.64941 26.6503 9.70305H13.3938C12.0338 9.64887 12.0349 7.70667 13.3938 7.65303ZM13.3938 11.7531H26.6503C28.0102 11.8073 28.0092 13.7495 26.6503 13.8031H13.3938C12.0338 13.7489 12.0349 11.8067 13.3938 11.7531ZM12.3688 16.8781C12.3688 16.3121 12.8277 15.8531 13.3938 15.8531H16.6554C18.0153 15.9073 18.0143 17.8495 16.6554 17.9032H13.3938C12.8277 17.9032 12.3688 17.4442 12.3688 16.8781Z" fill="white"/>
<path d="M26.4455 17.7322C21.6414 17.7322 17.7329 21.6407 17.7329 26.4449C18.2115 38.0033 34.6813 38 35.1581 26.4448C35.1581 21.6407 31.2497 17.7322 26.4455 17.7322ZM30.4698 24.6166L26.5773 29.5899C26.3884 29.8312 26.1015 29.9754 25.7951 29.9828C25.4896 29.9905 25.1949 29.8603 24.9947 29.6283L22.9025 27.2077C22.5324 26.7794 22.5794 26.1321 23.0078 25.7619C23.4363 25.3916 24.0833 25.4389 24.4535 25.8672L25.7309 27.3452L28.8554 23.353C29.2043 22.9073 29.8484 22.8286 30.2944 23.1776C30.7401 23.5266 30.8186 24.1708 30.4698 24.6166Z" fill="white"/>
<path d="M0.136719 9.56635H6.2868V22.1398H0.136719V9.56635Z" fill="white"/>
<path d="M3.21176 3.55289C1.51618 3.55289 0.136719 4.93235 0.136719 6.62793V7.51627H6.2868V6.62793C6.2868 4.93235 4.90734 3.55289 3.21176 3.55289Z" fill="white"/>
<path d="M2.26566 28.4792C2.61054 29.315 3.81329 29.3146 4.15797 28.4792L5.94525 24.1899H0.478516L2.26566 28.4792Z" fill="white"/>
</svg>
