<svg width="32" height="33" viewBox="0 0 32 33" fill="none" xmlns="http://www.w3.org/2000/svg">
<path d="M18.9561 16.5522C18.9561 18.0767 17.7201 19.3127 16.1956 19.3127C14.6711 19.3127 13.4351 18.0767 13.4351 16.5522C13.4351 15.0277 14.6711 13.7917 16.1956 13.7917C17.7201 13.7917 18.9561 15.0277 18.9561 16.5522Z" fill="white"/>
<path d="M20.8577 8.20934H11.5332C9.50358 8.20934 7.85254 9.86038 7.85254 11.89V21.2145C7.85254 23.2441 9.50358 24.8952 11.5332 24.8952H20.8577C22.8873 24.8952 24.5384 23.2441 24.5384 21.2145V11.89C24.5384 9.86038 22.8873 8.20934 20.8577 8.20934ZM16.1954 21.1531C13.6585 21.1531 11.5946 19.0892 11.5946 16.5522C11.5946 14.0153 13.6585 11.9514 16.1954 11.9514C18.7324 11.9514 20.7963 14.0153 20.7963 16.5522C20.7963 19.0892 18.7324 21.1531 16.1954 21.1531ZM21.4711 12.1968C20.9629 12.1968 20.5509 11.7848 20.5509 11.2766C20.5509 10.7683 20.9629 10.3564 21.4711 10.3564C21.9794 10.3564 22.3913 10.7683 22.3913 11.2766C22.3913 11.7848 21.9794 12.1968 21.4711 12.1968Z" fill="white"/>
<path d="M23.6182 0.8479H8.77278C4.20641 0.8479 0.491211 4.5631 0.491211 9.12947V23.9749C0.491211 28.5413 4.20641 32.2565 8.77278 32.2565H23.6182C28.1846 32.2565 31.8998 28.5413 31.8998 23.9749V9.12947C31.8998 4.5631 28.1846 0.8479 23.6182 0.8479ZM26.3788 21.2144C26.3788 24.2587 23.902 26.7355 20.8577 26.7355H11.5333C8.48906 26.7355 6.01225 24.2587 6.01225 21.2144V11.89C6.01225 8.84574 8.48906 6.36894 11.5333 6.36894H20.8577C23.902 6.36894 26.3788 8.84574 26.3788 11.89V21.2144Z" fill="white"/>
</svg>
