<svg width="42" height="36" viewBox="0 0 42 36" fill="none" xmlns="http://www.w3.org/2000/svg">
<path d="M40.9363 13.5568C40.6453 12.913 40.3215 12.2845 39.9661 11.6738L35.3877 24.1105C35.2131 24.5752 34.9592 25.006 34.6372 25.3838C35.8662 25.2622 37.0504 24.8583 38.0976 24.2037C39.1448 23.5492 40.0267 22.6616 40.6745 21.6101C41.3222 20.5587 41.7184 19.3719 41.8321 18.1422C41.9458 16.9125 41.7739 15.6731 41.3299 14.5207C41.208 14.1926 41.077 13.8733 40.9363 13.5568Z" fill="white"/>
<path d="M14.6584 2.34851C11.987 3.29945 9.53481 4.77965 7.44879 6.70051C5.36277 8.62136 3.68577 10.9434 2.51818 13.5275C1.35059 16.1117 0.716408 18.9049 0.653608 21.7399C0.590807 24.5749 1.10068 27.3934 2.15269 30.0267C2.18049 30.0832 2.19932 30.1388 2.22712 30.1953C2.78602 31.53 3.69596 32.6884 4.86031 33.5475C6.02466 34.4066 7.39995 34.9344 8.84012 35.0747C10.2803 35.215 11.7316 34.9627 13.0399 34.3445C14.3482 33.7263 15.4646 32.7653 16.2706 31.5636C17.9565 29.0241 20.3766 27.0591 23.2081 25.9307C23.2978 25.8949 23.3875 25.868 23.4771 25.8348C23.7959 25.0993 24.2703 24.4417 24.8677 23.9072C25.465 23.3727 26.1711 22.974 26.9374 22.7386C26.9187 22.0633 27.0571 21.393 27.3417 20.7803L34.4254 5.4411C31.6429 3.33184 28.381 1.94533 24.9314 1.40563C21.4818 0.865931 17.9522 1.18989 14.6584 2.34851ZM9.16191 25.7514C8.45253 25.7514 7.75909 25.5411 7.16927 25.147C6.57945 24.7528 6.11974 24.1927 5.84827 23.5373C5.57681 22.8819 5.50578 22.1608 5.64417 21.465C5.78256 20.7693 6.12416 20.1302 6.62576 19.6286C7.12736 19.127 7.76644 18.7854 8.46218 18.647C9.15793 18.5086 9.87908 18.5797 10.5345 18.8511C11.1898 19.1226 11.75 19.5823 12.1441 20.1721C12.5382 20.7619 12.7486 21.4554 12.7486 22.1648C12.7486 23.116 12.3707 24.0283 11.6981 24.7009C11.0254 25.3735 10.1131 25.7514 9.16191 25.7514ZM13.6452 15.4398C12.9358 15.4398 12.2424 15.2294 11.6526 14.8353C11.0628 14.4412 10.6031 13.8811 10.3316 13.2257C10.0601 12.5703 9.98909 11.8492 10.1275 11.1534C10.2659 10.4577 10.6075 9.81859 11.1091 9.31699C11.6107 8.81538 12.2498 8.47379 12.9455 8.3354C13.6412 8.19701 14.3624 8.26803 15.0178 8.5395C15.6731 8.81096 16.2333 9.27067 16.6274 9.8605C17.0215 10.4503 17.2319 11.1438 17.2319 11.8531C17.2319 12.8044 16.854 13.7167 16.1814 14.3893C15.5087 15.0619 14.5965 15.4398 13.6452 15.4398ZM24.4052 12.3015C23.6958 12.3015 23.0024 12.0911 22.4125 11.697C21.8227 11.3029 21.363 10.7427 21.0915 10.0874C20.8201 9.43199 20.749 8.71083 20.8874 8.01509C21.0258 7.31935 21.3674 6.68027 21.869 6.17867C22.3706 5.67706 23.0097 5.33547 23.7055 5.19708C24.4012 5.05868 25.1224 5.12971 25.7777 5.40118C26.4331 5.67264 26.9933 6.13235 27.3874 6.72218C27.7815 7.312 27.9918 8.00544 27.9918 8.71481C27.9918 9.66605 27.6139 10.5783 26.9413 11.251C26.2687 11.9236 25.3564 12.3015 24.4052 12.3015Z" fill="white"/>
<path d="M40.5255 0.331959C40.1277 0.166716 39.6813 0.162011 39.28 0.318831C38.8788 0.47565 38.5539 0.781802 38.3735 1.17303L28.9729 21.5318C28.7564 22.0001 28.6864 22.5228 28.772 23.0316C28.8576 23.5404 29.0948 24.0115 29.4526 24.3832C28.5788 24.1782 27.6605 24.2902 26.8615 24.6993C26.0626 25.1084 25.4349 25.7879 25.0904 26.6167C23.6387 30.1227 25.935 31.6605 24.4824 35.1664C26.1384 34.9814 27.7159 34.3613 29.0546 33.3691C30.3932 32.3769 31.4454 31.048 32.1041 29.5174C32.4142 28.7638 32.4726 27.9301 32.2706 27.1405C32.0687 26.3509 31.6171 25.6477 30.9832 25.1355C31.5565 25.2093 32.1379 25.0867 32.6325 24.7875C33.1271 24.4884 33.5057 24.0304 33.7064 23.4883L41.4536 2.4427C41.6007 2.03908 41.5863 1.59425 41.4134 1.20099C41.2405 0.807725 40.9224 0.496404 40.5255 0.331959Z" fill="white"/>
</svg>
