<svg width="80" height="24" viewBox="0 0 80 24" fill="none" xmlns="http://www.w3.org/2000/svg">
<path d="M76.68 23.96C77.1155 23.9605 77.5469 23.8751 77.9495 23.7089C78.352 23.5426 78.7179 23.2986 79.0262 22.991C79.3345 22.6833 79.5792 22.3179 79.7463 21.9157C79.9133 21.5135 79.9996 21.0823 80 20.6467C80.0004 20.2112 79.9151 19.7798 79.7488 19.3772C79.5825 18.9747 79.3386 18.6088 79.0309 18.3005C78.7233 17.9922 78.3579 17.7475 77.9556 17.5805C77.5534 17.4134 77.1222 17.3271 76.6867 17.3267C75.807 17.3258 74.9631 17.6744 74.3404 18.2958C73.7178 18.9171 73.3675 19.7604 73.3667 20.64C73.3658 21.5197 73.7144 22.3636 74.3357 22.9863C74.9571 23.6089 75.8004 23.9592 76.68 23.96ZM73.36 11.61H70.5267C68.7067 11.61 67.7267 12.9767 67.7267 15.25V23.47H62.36V11.61H60.08C58.2567 11.61 57.28 12.9767 57.28 15.25V23.47H51.9133V7.22338H57.28V9.69004C58.16 7.77671 59.3667 7.22338 61.1567 7.22338H67.73V9.69004C68.61 7.77671 69.8133 7.22338 71.6033 7.22338H73.36V11.61ZM50.74 16.6134H39.5433C39.8367 18.4334 40.9767 19.4734 42.8967 19.4734C44.33 19.4734 45.3367 18.89 45.6633 17.85L50.4133 19.1834C49.2433 22.01 46.3467 23.73 42.8967 23.73C37.07 23.73 34.4 19.2134 34.4 15.3467C34.4 11.5467 36.7433 6.99671 42.5667 6.99671C48.7533 6.99671 50.8033 11.61 50.8033 15.0234C50.8033 15.77 50.77 16.2567 50.7367 16.6134H50.74ZM45.5333 13.4634C45.4 12.0634 44.3933 10.7634 42.57 10.7634C40.8767 10.7634 39.87 11.5134 39.5433 13.4634H45.5333ZM25.0267 23.4667H29.7467L35.6367 7.22004H30.2367L27.37 16.6767L24.4433 7.22004H19.0667L25.0267 23.4667ZM3.02667 23.4667H8.36667V11.6067H13.4467V23.4667H18.75V7.22004H8.36667V6.21337C8.36667 5.10671 9.15 4.42671 10.3867 4.42671H13.4467V0.0400391H9.5C5.62667 0.0400391 3.02333 2.41337 3.02333 5.89004V7.22338H0V11.61H3.02667V23.47V23.4667Z" fill="#5F8E3E"/>
</svg>
