<svg width="46" height="48" viewBox="0 0 46 48" fill="none" xmlns="http://www.w3.org/2000/svg">
<g clip-path="url(#clip0_954_295571)">
<path d="M39.7868 37.7939C40.006 37.6895 40.254 37.662 40.4908 37.7159L40.4828 37.7139C40.6788 37.7672 40.7768 37.9232 40.7768 38.1819C40.7457 38.5174 40.6044 38.8332 40.3748 39.0799C40.0068 39.4999 39.6228 39.8799 39.2108 40.2319L39.1948 40.2439C38.4408 40.8779 37.6048 41.4779 36.7248 42.0139L36.6348 42.0639C35.5728 42.7399 34.3328 43.4019 33.0428 43.9739L32.8588 44.0459C31.4328 44.6639 29.7468 45.1999 28.0028 45.5679L27.8248 45.5999C25.9948 46.0179 23.8948 46.2559 21.7388 46.2559H21.6748H21.6788C19.4666 46.2544 17.2643 45.9612 15.1288 45.3839L15.3048 45.4239C13.3119 44.9299 11.3795 44.2176 9.54278 43.2999L9.70478 43.3739C8.05696 42.5435 6.47561 41.5874 4.97478 40.5139L5.08478 40.5879C3.83258 39.7196 2.63806 38.771 1.50878 37.7479L1.53878 37.7739C0.751423 37.0516 0.00997841 36.2807 -0.681223 35.4659L-0.711223 35.4299C-0.830745 35.3069 -0.920985 35.1586 -0.975223 34.9959L-0.977223 34.9879C-0.996107 34.9354 -1.00338 34.8794 -0.998549 34.8238C-0.993715 34.7682 -0.976887 34.7144 -0.949223 34.6659C-0.896136 34.5863 -0.823012 34.5242 -0.737223 34.4819L-0.733223 34.4799C-0.655943 34.4425 -0.57109 34.4233 -0.485223 34.4239L-0.421223 34.4279C-0.308126 34.4356 -0.202029 34.4774 -0.113223 34.5479H-0.115223C2.09078 35.9679 4.72278 37.4479 7.43878 38.7819L7.91878 38.9959C12.1068 40.9939 17.0228 42.1619 22.2108 42.1619C24.7288 42.1619 27.1828 41.8859 29.5428 41.3659L29.3188 41.4079C33.0402 40.5985 36.6503 39.3427 40.0708 37.6679L39.7908 37.7919L39.7868 37.7939ZM45.3308 34.7139C45.5549 35.3179 45.5766 35.9784 45.3928 36.5959L45.3988 36.5739C45.2484 37.545 44.9818 38.4945 44.6048 39.4019L44.6348 39.3199C44.1681 40.5964 43.3882 41.7353 42.3668 42.6319L42.3568 42.6399C42.0528 42.8892 41.8208 42.9699 41.6608 42.8819C41.5008 42.7939 41.5008 42.5806 41.6608 42.2419C42.0668 41.3619 42.4728 40.2839 42.8048 39.1719L42.8528 38.9879C43.2714 37.6212 43.3294 36.7419 43.0268 36.3499C42.9206 36.2133 42.7797 36.1076 42.6188 36.0439L42.6128 36.0419C42.3839 35.9516 42.1423 35.8976 41.8968 35.8819H41.8888L41.0988 35.8139C40.779 35.7955 40.4585 35.7955 40.1388 35.8139L40.1608 35.8119C39.7688 35.8306 39.4874 35.8479 39.3168 35.8639L38.4868 35.9439L37.8828 35.9959C37.7761 36.0146 37.6601 36.0279 37.5348 36.0359C37.4094 36.0439 37.3114 36.0532 37.2408 36.0639L37.0128 36.0919C36.9511 36.1003 36.889 36.1043 36.8268 36.1039H36.5588L36.4788 36.0919L36.4268 36.0519L36.3868 35.9719C36.2801 35.6866 36.7001 35.3292 37.6468 34.8999C38.5037 34.497 39.4179 34.2291 40.3568 34.1059L40.4048 34.0999C41.3837 33.9745 42.3741 33.9671 43.3548 34.0779L43.2988 34.0719C44.4041 34.1759 45.0821 34.3886 45.3328 34.7099L45.3308 34.7139Z" fill="#F47300"/>
<path d="M35.772 24.59C35.78 25.21 35.912 25.798 36.144 26.332L36.132 26.302C36.372 26.896 36.66 27.408 37.004 27.876L36.99 27.856C37.3207 28.3027 37.6553 28.7134 37.994 29.088C38.266 29.398 38.556 29.68 38.864 29.936L38.876 29.946L39.224 30.24L33.144 36.24C32.4293 35.58 31.724 34.906 31.028 34.218C30.332 33.53 29.814 33.008 29.474 32.652L28.966 32.116C28.7181 31.8524 28.4977 31.5642 28.308 31.256L28.294 31.232C27.6059 32.2899 26.731 33.2136 25.712 33.958L25.682 33.978C24.6766 34.7249 23.5501 35.2932 22.352 35.658L22.274 35.678C21.0645 36.0374 19.8148 36.2443 18.554 36.294L18.522 36.296C17.2467 36.3565 15.9724 36.1578 14.776 35.712L14.842 35.734C13.6953 35.3186 12.6244 34.718 11.672 33.956L11.694 33.974C10.7285 33.1753 9.97147 32.1541 9.488 30.998L9.47 30.948C8.91597 29.6293 8.63302 28.2125 8.638 26.782L8.64001 26.586V26.468C8.64001 25.03 8.916 23.656 9.418 22.396L9.392 22.47C9.86 21.264 10.512 20.228 11.326 19.344L11.32 19.35C12.1442 18.4931 13.0839 17.7553 14.112 17.158L14.172 17.126C15.1715 16.5274 16.228 16.0296 17.326 15.64L17.454 15.6C18.5344 15.2266 19.6389 14.9273 20.76 14.704L20.936 14.674C21.9482 14.4558 22.9718 14.2942 24.002 14.19L24.136 14.178C25.02 14.098 25.9087 14.04 26.802 14.004V10.608C26.8628 9.69725 26.6615 8.78808 26.222 7.98805L26.234 8.01205C25.8635 7.51014 25.3673 7.11477 24.7953 6.86582C24.2233 6.61686 23.5958 6.52312 22.976 6.59405L22.992 6.59205C22.8853 6.59205 22.738 6.60138 22.55 6.62005C22.1651 6.69077 21.7889 6.80275 21.428 6.95405L21.464 6.94005C20.892 7.15205 20.396 7.42005 19.946 7.74405L19.964 7.73205C19.384 8.18805 18.888 8.71605 18.48 9.30805L18.464 9.33205C17.9152 10.0964 17.4894 10.942 17.202 11.838L17.184 11.902L9.308 11.178C9.312 10.032 9.528 8.93605 9.918 7.92805L9.896 7.99005C10.3206 6.8801 10.9314 5.85069 11.702 4.94605L11.69 4.96005C12.5093 3.98756 13.4668 3.14054 14.532 2.44605L14.582 2.41605C15.8044 1.63889 17.1385 1.05344 18.538 0.680047L18.64 0.656047C20.2564 0.215765 21.9247 -0.00488338 23.6 4.68751e-05H23.75H23.742L23.944 -0.00195312C25.6 -0.00195312 27.198 0.244047 28.706 0.700047L28.59 0.670047C29.912 1.04605 31.066 1.61005 32.094 2.34205L32.06 2.31805C32.9 2.94605 33.618 3.68005 34.21 4.51005L34.23 4.54005C34.72 5.20205 35.128 5.96405 35.416 6.78405L35.434 6.84405C35.636 7.43005 35.758 8.10405 35.768 8.80605V8.81205L35.772 24.59ZM17.772 25.154L17.77 25.302C17.77 26.732 18.512 27.988 19.632 28.708L19.648 28.718C20.1857 29.0997 20.8049 29.3508 21.4565 29.4515C22.1081 29.5522 22.7742 29.4996 23.402 29.298L23.372 29.306C24.1186 29.0717 24.7916 28.6478 25.3255 28.0758C25.8593 27.5037 26.2357 26.803 26.418 26.042L26.424 26.012C26.6757 25.1739 26.8024 24.3032 26.8 23.428V23.3V23.306V18.966C25.7612 18.9959 24.7265 19.1096 23.706 19.306L23.826 19.286C22.8141 19.4852 21.8279 19.7979 20.886 20.218L20.974 20.184C19.9956 20.5864 19.1641 21.2793 18.5919 22.1691C18.0197 23.0589 17.7342 24.1029 17.774 25.16V25.15L17.772 25.154Z" fill="white"/>
</g>
<defs>
<clipPath id="clip0_954_295571">
<rect width="46" height="48" fill="white"/>
</clipPath>
</defs>
</svg>
