<svg width="25" height="25" viewBox="0 0 25 25" fill="none" xmlns="http://www.w3.org/2000/svg">
<circle cx="12.4783" cy="12.4348" r="12.0652" fill="url(#paint0_linear_1111_35981)"/>
<path d="M18.9129 8.75544C18.4692 8.94392 17.9863 9.07956 17.489 9.13239C18.0054 8.83031 18.392 8.35308 18.5765 7.79023C18.0919 8.07407 17.5611 8.2731 17.0076 8.3785C16.7763 8.13494 16.4965 7.94092 16.1856 7.80851C15.8748 7.67611 15.5396 7.60816 15.2009 7.60889C13.8307 7.60889 12.7287 8.70261 12.7287 10.0448C12.7287 10.2333 12.7519 10.4217 12.7896 10.6031C10.7379 10.4974 8.90807 9.53219 7.69154 8.05438C7.46988 8.42721 7.35372 8.85172 7.35515 9.28374C7.35515 10.129 7.79159 10.8744 8.45713 11.3127C8.06491 11.2975 7.68189 11.1913 7.3392 11.0029V11.0328C7.3392 12.2165 8.18888 13.1974 9.32131 13.423C9.10868 13.4774 8.88995 13.5052 8.67027 13.5059C8.50932 13.5059 8.35708 13.4901 8.20338 13.4687C8.51657 14.4339 9.42861 15.135 10.5146 15.1579C9.66495 15.8132 8.60067 16.1988 7.44504 16.1988C7.2377 16.1988 7.0463 16.1916 6.84766 16.1688C7.94384 16.8613 9.24446 17.2611 10.6451 17.2611C15.1922 17.2611 17.6804 13.5515 17.6804 10.3318C17.6804 10.2261 17.6804 10.1205 17.6731 10.0148C18.1545 9.66783 18.5765 9.23805 18.9129 8.75544Z" fill="white"/>
<defs>
<linearGradient id="paint0_linear_1111_35981" x1="0.578122" y1="0.369093" x2="24.5597" y2="0.387727" gradientUnits="userSpaceOnUse">
<stop stop-color="#FFA200"/>
<stop offset="1" stop-color="#F47300"/>
</linearGradient>
</defs>
</svg>
