<svg width="46" height="52" viewBox="0 0 46 52" fill="none" xmlns="http://www.w3.org/2000/svg">
<path d="M37.5876 33.3986C35.5408 36.2097 32.2253 38.0406 28.4897 38.0406H23.2481C21.4374 38.0406 19.8955 36.8911 19.3116 35.2821C18.5832 35.0642 17.8749 34.7843 17.1944 34.4453C15.7338 33.7197 14.4076 32.7365 13.2402 31.5186C5.6676 33.1822 0 39.9298 0 48.0022V49.0573C0 50.5077 1.17586 51.6836 2.6263 51.6836H43.3737C44.8241 51.6836 46 50.5077 46 49.0573V48.0022C45.9999 41.7662 42.6175 36.3207 37.5876 33.3986Z" fill="#4F389E"/>
<path d="M10.4485 26.1053C11.5772 26.1053 12.5597 25.4797 13.0687 24.5565C13.0821 24.5931 13.0957 24.6294 13.1094 24.6657L13.1216 24.6984C14.3156 27.8415 16.639 30.4763 19.7027 31.6276C20.4437 30.4502 21.7539 29.6672 23.2478 29.6672H28.4894C29.0122 29.6672 29.4989 29.5197 29.9255 29.2812C30.6419 28.8806 31.2862 27.8643 31.6189 27.3256C32.1512 26.4636 32.5638 25.5505 32.9295 24.5549C33.1347 24.9273 33.4165 25.252 33.7564 25.5074V26.7927C33.7564 29.6969 31.3937 32.0598 28.4893 32.0598H23.2477C22.2568 32.0598 21.4535 32.8631 21.4535 33.854C21.4535 34.845 22.2568 35.6483 23.2477 35.6483H28.4893C33.3723 35.6483 37.3449 31.6757 37.3449 26.7927V25.5074C38.0713 24.9617 38.5411 24.0933 38.5411 23.115V15.6299C38.5411 14.6315 38.0515 13.7481 37.2996 13.2049C36.7165 5.82602 30.5257 0 22.9996 0C15.4733 0 9.28263 5.82602 8.69953 13.2048C7.94767 13.748 7.45801 14.6315 7.45801 15.6298V23.1147C7.45801 24.771 8.80354 26.1053 10.4485 26.1053ZM22.9996 3.58864C28.571 3.58864 33.1664 7.8464 33.7035 13.279C33.3489 13.5577 33.0616 13.9127 32.8631 14.3177C31.17 9.9005 27.3906 6.82513 22.9995 6.82513C18.5137 6.82513 14.7948 10.0062 13.1425 14.3L13.1358 14.3178C12.9373 13.9128 12.65 13.5578 12.2954 13.2791C12.8328 7.8464 17.4281 3.58864 22.9996 3.58864Z" fill="#4F389E"/>
</svg>
