<svg width="37" height="37" viewBox="0 0 37 37" fill="none" xmlns="http://www.w3.org/2000/svg">
<g clip-path="url(#clip0_954_295764)">
<path d="M29 3.43066H22.73C22.1 1.69066 20.45 0.430664 18.5 0.430664C16.55 0.430664 14.9 1.69066 14.27 3.43066H8C6.35 3.43066 5 4.78066 5 6.43066V30.4307C5 32.0807 6.35 33.4307 8 33.4307H29C30.65 33.4307 32 32.0807 32 30.4307V6.43066C32 4.78066 30.65 3.43066 29 3.43066ZM18.5 3.43066C19.325 3.43066 20 4.10566 20 4.93066C20 5.75566 19.325 6.43066 18.5 6.43066C17.675 6.43066 17 5.75566 17 4.93066C17 4.10566 17.675 3.43066 18.5 3.43066ZM29 30.4307H8V6.43066H11V10.9307H26V6.43066H29V30.4307Z" fill="white"/>
</g>
<defs>
<clipPath id="clip0_954_295764">
<rect width="36" height="36" fill="white" transform="translate(0.5 0.430664)"/>
</clipPath>
</defs>
</svg>
