<svg width="148" height="148" viewBox="0 0 148 148" fill="none" xmlns="http://www.w3.org/2000/svg">
<circle cx="77.7856" cy="21.6929" r="3.5" transform="rotate(4.88935 77.7856 21.6929)" fill="white"/>
<circle cx="126.786" cy="75.7856" r="3.5" transform="rotate(94.8893 126.786 75.7856)" fill="white"/>
<circle cx="75.1889" cy="127.733" r="3.5" transform="rotate(4.88935 75.1889 127.733)" fill="white"/>
<circle cx="21.7856" cy="68.7856" r="3.5" transform="rotate(94.8893 21.7856 68.7856)" fill="white"/>
<circle cx="74.5" cy="74.5" r="60.5" stroke="white" stroke-width="4"/>
<path d="M43.1251 32.4065C33.2789 39.7455 26.317 50.3038 23.4504 62.2449C20.5838 74.186 21.9939 86.7542 27.4354 97.7631C32.8769 108.772 42.0055 117.525 53.2331 122.5C64.4608 127.474 77.0771 128.356 88.8873 124.99C100.698 121.625 110.954 114.226 117.873 104.08C124.793 93.9347 127.936 81.6846 126.758 69.4609C125.579 57.2373 120.152 45.8136 111.422 37.1771C102.692 28.5406 89.8892 23.2377 77.6536 22.191L77.6536 37.6347" stroke="white" stroke-width="3" stroke-linecap="round" stroke-dasharray="1 6"/>
<path fill-rule="evenodd" clip-rule="evenodd" d="M46.3655 42.1161L79.615 68.6345C81.8883 71.0455 81.7766 74.8429 79.3656 77.1161C76.9545 79.3894 73.1572 79.2777 70.884 76.8666L46.3655 42.1161Z" fill="white"/>
</svg>
