<svg width="36" height="37" viewBox="0 0 36 37" fill="none" xmlns="http://www.w3.org/2000/svg">
<path d="M31.7752 6.43066H4.22475C3.54834 6.43066 3 6.979 3 7.65541V29.2059C3 29.8823 3.54834 30.4307 4.22475 30.4307H31.7752C32.4517 30.4307 33 29.8823 33 29.2059V7.65541C33 6.979 32.4517 6.43066 31.7752 6.43066Z" stroke="white" stroke-width="3"/>
<path d="M12 14.6418C10.5 12.4308 7.8735 13.8843 8.06175 16.1568C8.25 18.4308 11.25 18.4308 11.4367 20.7048C11.625 22.9773 9 24.4308 7.5 22.219M19.5 13.9308H16.5V23.6808H19.5M16.5 19.1808H19.5" stroke="white" stroke-width="3" stroke-linecap="round" stroke-linejoin="round"/>
<path d="M28.5 16.1807C28.5 14.938 27.4926 13.9307 26.25 13.9307C25.0074 13.9307 24 14.938 24 16.1807V21.4307C24 22.6733 25.0074 23.6807 26.25 23.6807C27.4926 23.6807 28.5 22.6733 28.5 21.4307V16.1807Z" stroke="white" stroke-width="3" stroke-linecap="round" stroke-linejoin="round"/>
</svg>
