<svg width="148" height="148" viewBox="0 0 148 148" fill="none" xmlns="http://www.w3.org/2000/svg">
<path d="M119 58.125V41.75V36.3388C119 32.3425 119 30.3443 118.423 28.5517C117.913 26.9655 117.078 25.503 115.971 24.2573C114.72 22.8496 112.999 21.8341 109.558 19.8031L95.765 11.6643C94.0842 10.6724 93.2437 10.1765 92.3483 9.82589C91.5533 9.51463 90.7273 9.2891 89.8844 9.15314C88.9351 9 87.9592 9 86.0075 9H63.5H27.2C20.4794 9 17.1191 9 14.5521 10.3079C12.2942 11.4584 10.4584 13.2942 9.30792 15.5521C8 18.1191 8 21.4794 8 28.2V120.8C8 127.521 8 130.881 9.30792 133.448C10.4584 135.706 12.2942 137.542 14.5521 138.692C17.1191 140 20.4794 140 27.2 140H102C106.654 140 108.981 140 110.857 139.363C114.39 138.164 117.164 135.39 118.363 131.857C119 129.981 119 127.654 119 123V123" stroke="white" stroke-width="4"/>
<line x1="19" y1="36" x2="61" y2="36" stroke="white" stroke-width="4" stroke-linecap="round"/>
<line x1="19" y1="49" x2="51" y2="49" stroke="white" stroke-width="4" stroke-linecap="round"/>
<line x1="34" y1="127" x2="61" y2="127" stroke="white" stroke-width="4" stroke-linecap="round"/>
<line x1="19" y1="127" x2="27" y2="127" stroke="white" stroke-width="4" stroke-linecap="round"/>
<line x1="19" y1="62" x2="42" y2="62" stroke="white" stroke-width="4" stroke-linecap="round"/>
<line x1="19" y1="114" x2="42" y2="114" stroke="white" stroke-width="4" stroke-linecap="round"/>
<line x1="19" y1="75" x2="35" y2="75" stroke="white" stroke-width="4" stroke-linecap="round"/>
<line x1="19" y1="88" x2="35" y2="88" stroke="white" stroke-width="4" stroke-linecap="round"/>
<line x1="19" y1="101" x2="35" y2="101" stroke="white" stroke-width="4" stroke-linecap="round"/>
<line x1="34" y1="23" x2="76" y2="23" stroke="white" stroke-width="4" stroke-linecap="round"/>
<path d="M87.5 9.5V23C87.5 29.6274 92.8726 35 99.5 35H118.5" stroke="white" stroke-width="4"/>
<circle cx="85.5" cy="83.5" r="41.5" stroke="white" stroke-width="4" stroke-linecap="round"/>
<circle cx="85.5" cy="83.5" r="32.5" stroke="white" stroke-width="4" stroke-linecap="round"/>
<circle cx="91" cy="77" r="1" fill="white" stroke="white" stroke-width="4" stroke-linecap="round"/>
<path d="M70.2929 90.3724L80.896 79.5769C81.1239 79.3449 81.2211 79.0169 81.1802 78.6942C80.9087 76.552 81.3749 74.3752 82.5107 72.5266C83.7373 70.5304 85.6583 69.0578 87.9046 68.3918C90.151 67.7259 92.5642 67.9135 94.6805 68.9187C96.7969 69.9239 98.4672 71.6757 99.3705 73.8375C100.274 75.9994 100.346 78.4188 99.5741 80.6309C98.802 82.8429 97.2396 84.6917 95.1872 85.8218C93.2542 86.8862 91.0149 87.2425 88.8543 86.8373C88.5972 86.7891 88.3299 86.8296 88.1065 86.9655L85.8955 88.31C85.8273 88.3515 85.7658 88.4028 85.7031 88.452C85.5279 88.5895 85.3108 88.6653 85.0858 88.6653H82.5C81.9477 88.6653 81.5 89.113 81.5 89.6653V92.1653C81.5 92.7176 81.0523 93.1653 80.5 93.1653H78C77.4477 93.1653 77 93.613 77 94.1653V96.6653C77 97.2176 76.5523 97.6653 76 97.6653H71C70.4477 97.6653 70 97.2176 70 96.6653V91.0795C70 90.8143 70.1054 90.5599 70.2929 90.3724Z" stroke="white" stroke-width="4" stroke-linecap="round"/>
<path d="M130.892 134.707L112.707 116.522C112.317 116.131 112.317 115.498 112.707 115.108L120.108 107.707C120.498 107.317 121.131 107.317 121.522 107.707L139.707 125.892C139.895 126.08 140 126.334 140 126.599V134C140 134.552 139.552 135 139 135H131.599C131.334 135 131.08 134.895 130.892 134.707Z" stroke="white" stroke-width="4"/>
</svg>
