<svg width="148" height="148" viewBox="0 0 148 148" fill="none" xmlns="http://www.w3.org/2000/svg">
<circle cx="36" cy="37" r="20" stroke="white" stroke-width="4"/>
<circle cx="85" cy="37" r="20" stroke="white" stroke-width="4"/>
<path d="M93.8 11H29.2C22.4794 11 19.1191 11 16.5521 12.3079C14.2942 13.4584 12.4584 15.2942 11.3079 17.5521C10 20.1191 10 23.4794 10 30.2V116.8C10 123.521 10 126.881 11.3079 129.448C12.4584 131.706 14.2942 133.542 16.5521 134.692C19.1191 136 22.4794 136 29.2 136H61.5H81.8804C83.8787 136 84.8779 136 85.8487 135.84C86.7105 135.697 87.5543 135.461 88.3649 135.136C89.2779 134.769 90.1322 134.251 91.8406 133.214L103.76 125.982C107.13 123.937 108.816 122.914 110.039 121.513C111.122 120.272 111.938 118.823 112.437 117.254C113 115.481 113 113.509 113 109.567V104.75V73.5V30.2C113 23.4794 113 20.1191 111.692 17.5521C110.542 15.2942 108.706 13.4584 106.448 12.3079C103.881 11 100.521 11 93.8 11Z" stroke="white" stroke-width="4"/>
<line x1="36" y1="28" x2="36" y2="46" stroke="white" stroke-width="4" stroke-linecap="round"/>
<line x1="27" y1="37" x2="45" y2="37" stroke="white" stroke-width="4" stroke-linecap="round"/>
<line x1="76" y1="37" x2="94" y2="37" stroke="white" stroke-width="4" stroke-linecap="round"/>
<line x1="18" y1="75" x2="103" y2="75" stroke="white" stroke-width="4" stroke-linecap="round"/>
<line x1="18" y1="87" x2="103" y2="87" stroke="white" stroke-width="4" stroke-linecap="round"/>
<path d="M81 136.5V123C81 116.373 86.3726 111 93 111H112" stroke="white" stroke-width="4"/>
<rect x="17" y="100" width="48" height="28" rx="6" stroke="white" stroke-width="4"/>
<path d="M129.231 34.3529L126.068 26.076C124.85 22.8884 125.047 19.3329 126.609 16.299L128.308 13M128.308 13L136.286 26.281C137.408 28.1474 138 30.2836 138 32.4608V125C138 129.971 133.971 134 129 134V134C124.029 134 120 129.971 120 125V32.0415C120 30.1304 120.456 28.2469 121.331 26.5478L128.308 13Z" stroke="white" stroke-width="4"/>
<line x1="120" y1="111" x2="138" y2="111" stroke="white" stroke-width="4"/>
</svg>
