<svg width="148" height="148" viewBox="0 0 148 148" fill="none" xmlns="http://www.w3.org/2000/svg">
<path d="M123.4 25H24.6C21.2397 25 19.5595 25 18.2761 25.654C17.1471 26.2292 16.2292 27.1471 15.654 28.2761C15 29.5595 15 31.2397 15 34.6V80.5V108.25V126.4C15 129.76 15 131.44 15.654 132.724C16.2292 133.853 17.1471 134.771 18.2761 135.346C19.5595 136 21.2397 136 24.6 136H44.5H74H133V34.6C133 31.2397 133 29.5595 132.346 28.2761C131.771 27.1471 130.853 26.2292 129.724 25.654C128.44 25 126.76 25 123.4 25Z" stroke="white" stroke-width="4"/>
<circle cx="22" cy="33" r="3" fill="white"/>
<circle cx="32" cy="33" r="3" fill="white"/>
<circle cx="42" cy="33" r="3" fill="white"/>
<line x1="16.5" y1="40.5" x2="131.5" y2="40.5" stroke="white" stroke-width="3" stroke-linecap="round" stroke-dasharray="1 6"/>
<path d="M88.3696 86.8049C66.9565 81.7426 67.6473 94.0239 68.1744 97.2488C68.2476 97.6964 68.6413 98 69.0948 98H102.455C102.739 98 103.006 97.8843 103.182 97.6613C104.641 95.8158 110.83 86.861 98.315 81.5584C97.6503 81.2768 96.9439 81.8146 96.9197 82.5361C96.7244 88.3741 92.5862 87.8017 88.3696 86.8049Z" stroke="white" stroke-width="4"/>
<path d="M69 97.9989C69 97.9989 69 92.0356 69 109.249C69 112.2 71.0115 128 86.5059 128C98.9014 128 103 116.135 103 109.249L103 97.9989" stroke="white" stroke-width="4"/>
<path d="M102 114C102 114 102 114 104.556 113.5C105.397 113.336 110 112.849 110 107.836C110 103.826 106.5 102.5 102.5 102.5" stroke="white" stroke-width="4"/>
<path d="M70 113C70 113 61 112.849 61 107.836C61 103.826 64.4447 102.5 66.4437 102.5L69.71 102.5" stroke="white" stroke-width="4"/>
<line x1="79" y1="106" x2="79" y2="105" stroke="white" stroke-width="4" stroke-linecap="round"/>
<line x1="87" y1="108" x2="87" y2="113" stroke="white" stroke-width="4" stroke-linecap="round"/>
<line x1="94" y1="106" x2="94" y2="105" stroke="white" stroke-width="4" stroke-linecap="round"/>
<path d="M92 116.5C92 116.5 90.5 120 86.5 120C82.5 120 81 116.5 81 116.5" stroke="white" stroke-width="4" stroke-linecap="round"/>
<path d="M75.1563 48H38.0001C37.4478 48 37.0001 48.4465 37.0001 48.9988C37 49.9645 37 51.5404 37 53.322V71.5311C37 73.3121 37 74.8863 37 75.8513C37 76.4036 37.4477 76.8501 38 76.8501H63.5938C66.404 76.8501 69.1433 77.1777 71.452 77.7867C71.7477 77.8647 71.9863 78.0805 72.1022 78.3635L73.0745 80.739C73.4136 81.5673 74.5865 81.5673 74.9255 80.739L75.8978 78.3635C76.0137 78.0805 76.2523 77.8647 76.548 77.7867C78.8567 77.1777 81.596 76.8501 84.4062 76.8501L109.979 77.3803C110.54 77.3919 111 76.9422 111 76.3818C111 75.272 111 73.4041 111 71.5311V53.322C111 51.5404 111 49.9646 111 48.9988C111 48.4466 110.552 48 110 48H72.8438" stroke="white" stroke-width="4"/>
<path d="M52.064 55.4878C52.389 54.6239 53.611 54.6239 53.936 55.4878L55.2259 58.9165C55.3726 59.3062 55.7454 59.5643 56.1619 59.5643H59.9865C60.9902 59.5643 61.3682 60.8779 60.518 61.4114L57.6882 63.187C57.2854 63.4397 57.1163 63.9411 57.2837 64.3862L58.4216 67.4106C58.7587 68.3067 57.7651 69.1187 56.9541 68.6098L53.5315 66.4622C53.2065 66.2583 52.7935 66.2583 52.4685 66.4622L49.0459 68.6098C48.2349 69.1187 47.2413 68.3067 47.5784 67.4106L48.7163 64.3862C48.8837 63.9411 48.7146 63.4397 48.3118 63.187L45.482 61.4114C44.6318 60.8779 45.0098 59.5643 46.0135 59.5643H49.8381C50.2546 59.5643 50.6274 59.3062 50.7741 58.9165L52.064 55.4878Z" stroke="white" stroke-width="4"/>
<path d="M73.064 55.4878C73.389 54.6239 74.611 54.6239 74.936 55.4878L76.2259 58.9165C76.3726 59.3062 76.7454 59.5643 77.1619 59.5643H80.9865C81.9902 59.5643 82.3682 60.8779 81.518 61.4114L78.6882 63.187C78.2854 63.4397 78.1163 63.9411 78.2837 64.3862L79.4216 67.4106C79.7587 68.3067 78.7651 69.1187 77.9541 68.6098L74.5315 66.4622C74.2065 66.2583 73.7935 66.2583 73.4685 66.4622L70.0459 68.6098C69.2349 69.1187 68.2413 68.3067 68.5784 67.4106L69.7163 64.3862C69.8837 63.9411 69.7146 63.4397 69.3118 63.187L66.482 61.4114C65.6318 60.8779 66.0098 59.5643 67.0135 59.5643H70.8381C71.2546 59.5643 71.6274 59.3062 71.7741 58.9165L73.064 55.4878Z" stroke="white" stroke-width="4"/>
<path d="M94.064 55.4878C94.389 54.6239 95.611 54.6239 95.936 55.4878L97.2259 58.9165C97.3726 59.3062 97.7454 59.5643 98.1619 59.5643H101.986C102.99 59.5643 103.368 60.8779 102.518 61.4114L99.6882 63.187C99.2854 63.4397 99.1163 63.9411 99.2837 64.3862L100.422 67.4106C100.759 68.3067 99.7651 69.1187 98.9541 68.6098L95.5315 66.4622C95.2065 66.2583 94.7935 66.2583 94.4685 66.4622L91.0459 68.6098C90.2349 69.1187 89.2413 68.3067 89.5784 67.4106L90.7163 64.3862C90.8837 63.9411 90.7146 63.4397 90.3118 63.187L87.482 61.4114C86.6318 60.8779 87.0098 59.5643 88.0135 59.5643H91.8381C92.2546 59.5643 92.6274 59.3062 92.7741 58.9165L94.064 55.4878Z" stroke="white" stroke-width="4"/>
</svg>
