<svg width="148" height="148" viewBox="0 0 148 148" fill="none" xmlns="http://www.w3.org/2000/svg">
<path d="M123 85.5L123 91.4815M123 22.1V22.1C123 21.0786 123 20.5678 122.969 20.1368C122.54 14.19 117.81 9.45997 111.863 9.03109C111.432 9 110.921 9 109.9 9H31.2C24.4794 9 21.1191 9 18.5521 10.3079C16.2942 11.4584 14.4584 13.2942 13.3079 15.5521C12 18.1191 12 21.4794 12 28.2V74.5V107.25V112.661C12 116.658 12 118.656 12.5768 120.448C13.0872 122.034 13.9223 123.497 15.0291 124.743C16.2797 126.15 18.0006 127.166 21.4424 129.197L35.235 137.336C36.9158 138.328 37.7563 138.824 38.6517 139.174C39.4467 139.485 40.2727 139.711 41.1156 139.847C42.0649 140 43.0408 140 44.9925 140H67.5H82.5" stroke="white" stroke-width="4"/>
<line x1="23" y1="77" x2="65" y2="77" stroke="white" stroke-width="4" stroke-linecap="round"/>
<line x1="23" y1="88" x2="65" y2="88" stroke="white" stroke-width="4" stroke-linecap="round"/>
<line x1="23" y1="98" x2="65" y2="98" stroke="white" stroke-width="4" stroke-linecap="round"/>
<line x1="23" y1="108" x2="65" y2="108" stroke="white" stroke-width="4" stroke-linecap="round"/>
<line x1="52" y1="119" x2="65" y2="119" stroke="white" stroke-width="4" stroke-linecap="round"/>
<path d="M44 140V130C44 123.373 38.6274 118 32 118H12" stroke="white" stroke-width="4"/>
<path d="M24 42.5L34 32.5C35.933 30.567 39.067 30.567 41 32.5V32.5C42.933 34.433 46.067 34.433 48 32.5L59.5 21" stroke="white" stroke-width="4"/>
<rect x="28" y="54" width="12" height="22" rx="1" stroke="white" stroke-width="4"/>
<rect x="50" y="41" width="12" height="35" rx="1" stroke="white" stroke-width="4"/>
<path d="M106 90.5L103.2 88.4C101.123 86.8421 98.5964 86 96 86H85C78.3726 86 73 80.6435 73 74.0161V32.9907C73 26.3632 78.3726 21 85 21H106M104 90.5L106.8 88.4C108.877 86.8421 111.404 86 114 86H125C131.627 86 137 80.6435 137 74.0161V32.9907C137 26.3632 131.627 21 125 21H104" stroke="white" stroke-width="4"/>
<path d="M92.6012 62.6333C92.6158 67.2298 92.4968 75.2006 91.4039 70.6348C89.9114 64.3991 88.5132 59.2527 86.3395 53.8763C85.2365 51.1482 86.4052 53.8327 96.1445 44.0894C105.884 34.3461 103.157 33.2426 105.884 34.3461C111.258 36.5207 116.402 37.9194 122.635 39.4126C127.199 40.5059 119.232 40.625 114.637 40.6104C112.788 40.6045 111.022 41.3812 109.799 42.7681C107.598 45.2633 107.716 49.0403 110.068 51.3934L122.099 63.4291C122.713 64.0436 123.27 64.7311 123.543 65.5561C123.982 66.8826 123.783 69.4871 122.635 70.6348C121.488 71.7825 118.863 71.9821 117.537 71.5427C116.712 71.2695 116.025 70.7127 115.411 70.0982L103.38 58.0625C101.028 55.7094 97.2523 55.5915 94.7581 57.7932C93.3717 59.0169 92.5953 60.7837 92.6012 62.6333Z" stroke="white" stroke-width="4"/>
<line x1="87" y1="102" x2="87" y2="135" stroke="white" stroke-width="4" stroke-linecap="round"/>
<ellipse cx="109.382" cy="101" rx="22.3912" ry="5" stroke="white" stroke-width="4"/>
<path d="M131.773 118C131.773 120.761 121.748 123 109.382 123C97.0152 123 86.9903 120.761 86.9903 118" stroke="white" stroke-width="4"/>
<path d="M131.773 135C131.773 137.761 121.748 140 109.382 140C97.0152 140 86.9903 137.761 86.9903 135" stroke="white" stroke-width="4"/>
<line x1="131.782" y1="102" x2="131.782" y2="135" stroke="white" stroke-width="4" stroke-linecap="round"/>
</svg>
