<svg width="148" height="148" viewBox="0 0 148 148" fill="none" xmlns="http://www.w3.org/2000/svg">
<path d="M125 71V71C126.393 71 127.09 71 127.676 70.9422C133.374 70.3811 137.881 65.8735 138.442 60.1762C138.5 59.5895 138.5 58.893 138.5 57.5V41C138.5 36.3459 138.5 34.0188 137.863 32.1427C136.664 28.61 133.89 25.836 130.357 24.6368C128.481 24 126.154 24 121.5 24V24" stroke="white" stroke-width="4"/>
<path d="M23.5 125V125C21.1774 125 20.0161 125 19.0453 124.84C13.973 124.002 9.99771 120.027 9.16028 114.955C9 113.984 9 112.823 9 110.5V96.2C9 89.4794 9 86.1191 10.3079 83.5521C11.4584 81.2942 13.2942 79.4584 15.5521 78.3079C18.1191 77 21.4794 77 28.2 77H66" stroke="white" stroke-width="4"/>
<path d="M99.9644 33.8997L73.1856 38.9251C69.148 39.6829 67.1292 40.0617 65.4856 39.9918C60.2818 39.7704 55.8314 36.775 54.4396 32.5571C54 31.2249 54 27.5805 54 24.1052C54 20.6298 54 16.7751 54.4396 15.4429C55.8314 11.225 60.2818 8.22962 65.4856 8.00821C67.1292 7.93828 69.148 8.31714 73.1856 9.07486L99.9644 14.1003L99.9646 14.1004C100.079 14.1218 100.137 14.1326 100.194 14.1429C100.985 14.2846 101.791 14.3593 102.6 14.3659C102.658 14.3664 102.717 14.3664 102.835 14.3664H106.927C111.938 14.3664 116 19.8958 116 24.1052C116 28.3145 111.938 33.6336 106.927 33.6336H102.835C102.717 33.6336 102.658 33.6336 102.6 33.6341C101.791 33.6407 100.985 33.7154 100.194 33.8571C100.137 33.8673 100.079 33.8781 99.9656 33.8995L99.9644 33.8997Z" stroke="white" stroke-width="4"/>
<line x1="66" y1="7" x2="66" y2="39" stroke="white" stroke-width="4"/>
<line x1="101" y1="13" x2="101" y2="46" stroke="white" stroke-width="4"/>
<line x1="118" y1="91" x2="118" y2="142" stroke="white" stroke-width="4"/>
<line x1="126" y1="91" x2="126" y2="142" stroke="white" stroke-width="4"/>
<line x1="134" y1="91" x2="134" y2="142" stroke="white" stroke-width="4"/>
<path d="M110 31.5L110 46" stroke="white" stroke-width="4"/>
<path d="M51 35H39H23C20.1997 35 18.7996 35 17.73 35.545C16.7892 36.0243 16.0243 36.7892 15.545 37.73C15 38.7996 15 40.1997 15 43V61C15 63.8003 15 65.2004 15.545 66.27C16.0243 67.2108 16.7892 67.9757 17.73 68.455C18.7996 69 20.1997 69 23 69H55C57.8003 69 59.2004 69 60.27 68.455C61.2108 67.9757 61.9757 67.2108 62.455 66.27C63 65.2004 63 63.8003 63 61V52V43.5" stroke="white" stroke-width="4"/>
<path d="M45 51.5L33.75 57.9952L33.75 45.0048L45 51.5Z" stroke="white" stroke-width="4"/>
<rect x="74" y="55" width="42" height="30" rx="5" stroke="white" stroke-width="4"/>
<path d="M116 60L104.195 66.2049C100.861 67.9578 99.1931 68.8343 97.4382 69.1688C95.8847 69.465 94.2879 69.4511 92.7397 69.128C90.9909 68.7631 89.339 67.8578 86.0351 66.0473L75 60" stroke="white" stroke-width="4"/>
<line x1="39" y1="26" x2="47" y2="26" stroke="white" stroke-width="4"/>
<line x1="39.9923" y1="10.2635" x2="46.9923" y2="14.2635" stroke="white" stroke-width="4"/>
<rect x="29" y="93" width="81" height="47" stroke="white" stroke-width="4"/>
<path d="M37 116.775V107.761L40.2752 107.761C42.084 107.761 43.5504 106.449 43.5504 104.831V101H95.4496V104.831C95.4496 106.449 96.916 107.761 98.7248 107.761L102 107.761V116.775V126.239L98.7248 126.239C96.916 126.239 95.4496 127.551 95.4496 129.169V133H43.5504V129.169C43.5504 127.551 42.084 126.239 40.2752 126.239L37 126.239V116.324" stroke="white" stroke-width="4"/>
<circle cx="69" cy="117" r="6" stroke="white" stroke-width="4"/>
<line x1="49" y1="117" x2="57" y2="117" stroke="white" stroke-width="4"/>
<line x1="82" y1="117" x2="90" y2="117" stroke="white" stroke-width="4"/>
</svg>
