<svg width="445" height="541" viewBox="0 0 445 541" fill="none" xmlns="http://www.w3.org/2000/svg">
<path d="M137.824 446.307C137.824 454.664 143.804 458.05 151.08 453.871L253.667 394.653C253.667 394.941 253.595 395.158 253.451 395.302C253.379 395.374 253.307 395.374 253.235 395.446L243.005 401.353L232.775 407.261L222.545 413.168L212.315 419.075L202.085 424.983L191.855 430.89L181.626 436.798L171.396 442.705L161.166 448.612L150.936 454.52C147.118 456.537 142.363 458.194 135.735 454.52C132.998 452.935 131.269 449.549 131.269 444.722C133.574 446.307 136.672 447.027 137.824 446.307Z" fill="#CCCBF6"/>
<path d="M253.234 395.374C254.891 394.366 259.358 391.556 263.176 384.928C264.689 382.263 267.21 377.004 267.282 371.096C267.282 371.385 267.138 371.673 266.85 371.889C266.85 380.246 260.943 390.476 253.738 394.654C253.666 395.014 253.522 395.23 253.234 395.374Z" fill="#CCCBF6"/>
<path d="M266.345 91.7194C266.418 91.5753 266.49 91.4313 266.49 91.2872L266.562 119.239L266.634 147.191L266.706 175.143L266.778 203.095L266.85 231.047L266.922 258.999L266.994 286.952L267.066 314.904L267.138 342.856L267.21 370.808C267.21 370.952 267.138 371.096 267.066 371.24C266.994 371.384 266.85 371.456 266.706 371.6L265.913 91.7915C266.129 91.9355 266.273 91.7915 266.345 91.7194Z" fill="#EDECF8"/>
<path d="M266.489 91.2871C266.417 88.4775 266.201 82.6421 258.924 78.2476C256.115 76.5907 252.297 76.8788 248.046 79.3282C250.64 80.8411 252.801 83.2185 252.801 84.5152C260.077 80.3368 265.984 83.7228 266.057 92.0796C266.345 91.8634 266.489 91.5753 266.489 91.2871Z" fill="#E3E2F2"/>
<path d="M136.023 166.715C136.311 166.715 136.816 166.571 137.032 166.427L137.824 446.235C137.824 446.235 137.68 446.452 136.816 446.524C136.311 446.524 135.735 446.524 135.159 446.379L134.366 166.571C134.943 166.715 135.519 166.787 136.023 166.715Z" fill="#CCCBF6"/>
<path d="M150.215 143.734L252.802 84.444C252.802 84.0117 252.586 83.5795 252.297 83.0752L149.711 142.293C149.999 142.797 150.143 143.302 150.215 143.734Z" fill="#CCCBF6"/>
<path d="M137.03 166.498C137.03 158.141 142.937 147.912 150.214 143.733C184.433 123.994 218.581 104.255 252.801 84.5152C260.077 80.3368 265.984 83.7228 266.056 92.0795L137.03 166.498Z" fill="#CCCBF6"/>
<path d="M265.985 92.0074C266.273 185.085 266.489 278.811 266.777 371.816C266.777 380.173 260.87 390.403 253.666 394.581C219.446 414.32 185.299 434.06 151.079 453.799C143.803 457.978 137.895 454.592 137.823 446.235C137.535 353.157 137.319 259.432 137.031 166.426L265.985 92.0074Z" fill="url(#paint0_linear_3_10404)"/>
<path d="M150.215 143.734C150.215 142.365 148.054 140.06 145.46 138.547C137.031 143.446 130.115 155.332 130.187 165.058C132.781 166.571 135.879 167.291 137.103 166.571C137.031 158.142 142.939 147.912 150.215 143.734Z" fill="#CCCBF6"/>
<path d="M257.125 77.2394C257.341 77.3115 257.557 77.4555 257.773 77.5276L258.926 78.248C259.286 78.4641 259.718 78.7523 260.079 78.9684L260.655 79.4007C260.871 79.5447 261.087 79.7609 261.303 79.9049L261.808 80.4092C262.024 80.5533 262.24 80.8415 262.384 80.9856L262.888 81.4899C263.104 81.706 263.32 81.9941 263.465 82.2103L263.897 82.7866C264.113 83.0748 264.329 83.435 264.473 83.7231L264.833 84.4436C265.049 84.8758 265.266 85.4521 265.482 85.8844L265.77 86.7489C266.274 88.694 266.274 89.1983 266.346 91.2154C266.346 91.3595 266.274 91.5036 266.202 91.6477C265.986 82.8586 260.223 79.3286 252.082 83.0027C251.29 81.778 249.705 80.2652 247.832 79.1845L246.679 78.4641C244.734 77.3115 243.077 76.9513 242.356 77.3835C246.175 75.5104 250.857 73.9976 257.125 77.2394Z" fill="#EDECF8"/>
<path d="M145.029 133.791L150.144 130.838L160.373 124.93L170.603 119.023L180.833 113.116L191.063 107.208L201.293 101.301L211.523 95.3935L221.753 89.4861L231.983 83.5787L242.212 77.6713C242.933 77.239 244.59 77.5992 246.535 78.7519L247.688 79.4723C249.561 80.5529 251.146 82.0658 251.938 83.2905L149.351 142.509C148.559 141.284 146.974 139.771 145.101 138.69L143.948 137.97C142.003 136.817 140.346 136.457 139.625 136.889L145.029 133.791Z" fill="#E3E2F2"/>
<path d="M129.971 147.192C133.861 140.492 138.112 137.826 139.913 136.746C140.633 136.313 142.29 136.674 144.235 137.826L145.388 138.547C147.261 139.627 148.846 141.14 149.638 142.365C141.353 146.327 134.726 155.981 134.293 164.482C134.293 164.914 134.293 166.715 134.293 166.715C134.293 166.715 133.789 166.787 130.115 165.058L128.962 164.338C127.017 163.257 125.937 161.96 125.937 160.952C126.009 158.934 126.153 153.748 129.971 147.192Z" fill="#BFBEED"/>
<path d="M128.962 164.266C128.962 164.266 133.069 166.355 134.365 166.571L135.158 446.38C133.861 446.091 132.348 445.587 130.979 444.723L129.827 444.002C127.882 442.922 126.801 441.625 126.801 440.76L126.729 426.784L126.657 412.808L126.585 398.832L126.513 384.856L126.441 370.88L126.369 356.904L126.297 342.928L126.225 328.952L126.153 314.976L126.08 301L126.008 287.024L125.936 273.048L125.864 259.072L125.792 245.096L125.72 231.12L125.648 217.144L125.576 203.168L125.504 189.192L125.432 175.216L125.36 161.096C125.936 161.816 127.017 163.185 128.962 164.266Z" fill="#98A4E0"/>
<path d="M129.756 444.146L130.909 444.866C132.277 445.659 133.79 446.235 135.087 446.523C135.807 455.672 142.579 459.13 150.792 454.592C150.72 454.664 150.648 454.664 150.576 454.736C149.135 455.528 148.775 455.672 147.406 456.177L146.325 456.465C145.821 456.537 145.173 456.681 144.741 456.753L143.804 456.825C143.444 456.825 143.012 456.825 142.723 456.825L141.931 456.753C141.643 456.753 141.283 456.681 140.994 456.609L140.274 456.465C140.058 456.393 139.698 456.321 139.481 456.249L138.761 456.033C138.545 455.961 138.257 455.817 137.969 455.745L137.32 455.456C136.384 455.024 136.24 454.952 135.447 454.52L134.295 453.799C127.09 449.549 126.802 443.137 126.73 440.76C126.73 441.768 127.811 442.993 129.756 444.146Z" fill="#98A4E0"/>
<path d="M131.844 205.401L132.924 204.753C133.357 204.536 133.573 204.032 133.573 203.312L132.492 203.96C132.492 204.681 132.204 205.185 131.844 205.401Z" fill="#E3E2F2"/>
<mask id="mask0_3_10404" style="mask-type:luminance" maskUnits="userSpaceOnUse" x="131" y="203" width="3" height="3">
<path d="M131.844 205.401L132.924 204.753C133.357 204.536 133.573 204.032 133.573 203.312L132.492 203.96C132.492 204.681 132.204 205.185 131.844 205.401Z" fill="white"/>
</mask>
<g mask="url(#mask0_3_10404)">
<path d="M131.844 205.401L132.924 204.753C133.068 204.681 133.14 204.609 133.212 204.537L132.132 205.185C131.988 205.257 131.916 205.329 131.844 205.401Z" fill="#E3E2F2"/>
<path d="M132.132 205.185L133.213 204.536C133.429 204.248 133.573 203.816 133.573 203.312L132.492 203.96C132.492 204.464 132.348 204.897 132.132 205.185Z" fill="#E3E2F2"/>
</g>
<path d="M127.521 181.916L126.44 182.564C126.872 182.348 127.449 182.348 128.097 182.708L129.178 182.06C128.457 181.7 127.881 181.628 127.521 181.916Z" fill="#EDECF8"/>
<mask id="mask1_3_10404" style="mask-type:luminance" maskUnits="userSpaceOnUse" x="126" y="181" width="4" height="2">
<path d="M127.521 181.916L126.44 182.564C126.872 182.348 127.449 182.348 128.097 182.708L129.178 182.06C128.457 181.7 127.881 181.628 127.521 181.916Z" fill="white"/>
</mask>
<g mask="url(#mask1_3_10404)">
<path d="M128.025 182.708L129.105 182.06C128.457 181.7 127.881 181.628 127.448 181.916L126.368 182.564C126.8 182.276 127.376 182.348 128.025 182.708Z" fill="#EDECF8"/>
</g>
<path d="M132.492 203.96L133.573 203.312V187.319L132.492 187.895V203.96Z" fill="#E3E2F2"/>
<path d="M130.259 183.933L131.339 183.357L129.106 182.06L128.025 182.708L130.259 183.933Z" fill="#EDECF8"/>
<path d="M132.492 187.896L133.573 187.247C133.573 185.806 132.564 184.005 131.267 183.285L130.187 183.933C131.484 184.654 132.492 186.455 132.492 187.896Z" fill="#EDECF8"/>
<mask id="mask2_3_10404" style="mask-type:luminance" maskUnits="userSpaceOnUse" x="130" y="183" width="4" height="5">
<path d="M132.492 187.896L133.573 187.247C133.573 185.806 132.564 184.005 131.267 183.285L130.187 183.933C131.484 184.654 132.492 186.455 132.492 187.896Z" fill="white"/>
</mask>
<g mask="url(#mask2_3_10404)">
<path d="M132.492 187.896L133.573 187.247C133.573 186.311 133.141 185.302 132.564 184.438L131.484 185.086C132.132 185.951 132.492 187.031 132.492 187.896Z" fill="#EDECF8"/>
<path d="M131.484 185.086L132.565 184.438C132.205 183.933 131.772 183.573 131.34 183.285L130.26 183.933C130.692 184.221 131.124 184.654 131.484 185.086Z" fill="#EDECF8"/>
</g>
<path d="M128.027 182.709C126.73 181.988 125.721 182.565 125.721 184.005L125.649 199.999C125.649 201.439 126.658 203.24 127.955 203.961L130.116 205.258C131.413 205.978 132.421 205.402 132.421 203.961L132.493 187.968C132.493 186.527 131.485 184.726 130.188 184.005L128.027 182.709Z" fill="#CCCBF6"/>
<path d="M131.844 223.339L132.924 222.691C133.357 222.475 133.573 221.97 133.573 221.25L132.492 221.898C132.492 222.547 132.204 223.051 131.844 223.339Z" fill="#E3E2F2"/>
<mask id="mask3_3_10404" style="mask-type:luminance" maskUnits="userSpaceOnUse" x="131" y="221" width="3" height="3">
<path d="M131.844 223.339L132.924 222.691C133.357 222.475 133.573 221.97 133.573 221.25L132.492 221.898C132.492 222.547 132.204 223.051 131.844 223.339Z" fill="white"/>
</mask>
<g mask="url(#mask3_3_10404)">
<path d="M131.844 223.34L132.924 222.691C133.068 222.619 133.14 222.547 133.212 222.475L132.132 223.123C131.988 223.195 131.916 223.267 131.844 223.34Z" fill="#E3E2F2"/>
<path d="M132.132 223.051L133.213 222.403C133.429 222.114 133.573 221.682 133.573 221.178L132.492 221.826C132.492 222.403 132.348 222.763 132.132 223.051Z" fill="#E3E2F2"/>
</g>
<path d="M127.521 208.355L126.44 209.003C126.872 208.787 127.449 208.787 128.097 209.147L129.178 208.499C128.457 208.139 127.881 208.139 127.521 208.355Z" fill="#EDECF8"/>
<mask id="mask4_3_10404" style="mask-type:luminance" maskUnits="userSpaceOnUse" x="126" y="208" width="4" height="2">
<path d="M127.521 208.355L126.44 209.003C126.872 208.787 127.449 208.787 128.097 209.147L129.178 208.499C128.457 208.139 127.881 208.139 127.521 208.355Z" fill="white"/>
</mask>
<g mask="url(#mask4_3_10404)">
<path d="M128.025 209.148L129.105 208.5C128.457 208.139 127.881 208.067 127.448 208.355L126.368 209.004C126.8 208.716 127.376 208.788 128.025 209.148Z" fill="#EDECF8"/>
</g>
<path d="M132.492 221.827L133.573 221.179V213.758L132.492 214.407V221.827Z" fill="#E3E2F2"/>
<path d="M130.259 210.445L131.339 209.796L129.106 208.499L128.025 209.148L130.259 210.445Z" fill="#EDECF8"/>
<path d="M132.492 214.406L133.573 213.758C133.573 212.317 132.564 210.516 131.267 209.796L130.187 210.444C131.484 211.165 132.492 212.966 132.492 214.406Z" fill="#EDECF8"/>
<mask id="mask5_3_10404" style="mask-type:luminance" maskUnits="userSpaceOnUse" x="130" y="209" width="4" height="6">
<path d="M132.492 214.406L133.573 213.758C133.573 212.317 132.564 210.516 131.267 209.796L130.187 210.444C131.484 211.165 132.492 212.966 132.492 214.406Z" fill="white"/>
</mask>
<g mask="url(#mask5_3_10404)">
<path d="M132.492 214.407L133.573 213.758C133.573 212.822 133.141 211.813 132.564 210.949L131.484 211.597C132.132 212.389 132.492 213.47 132.492 214.407Z" fill="#EDECF8"/>
<path d="M131.484 211.597L132.565 210.948C132.205 210.444 131.772 210.084 131.34 209.796L130.26 210.444C130.692 210.66 131.124 211.092 131.484 211.597Z" fill="#EDECF8"/>
</g>
<path d="M128.027 209.147C126.73 208.427 125.721 209.003 125.721 210.444L125.649 217.864C125.649 219.305 126.658 221.106 127.955 221.827L130.116 223.123C131.413 223.844 132.421 223.267 132.421 221.827L132.493 214.406C132.493 212.965 131.485 211.164 130.188 210.444L128.027 209.147Z" fill="#CCCBF6"/>
<path d="M181.121 132.784C181.121 135.593 179.176 138.979 176.727 140.348C174.277 141.717 172.332 140.636 172.332 137.826C172.332 135.017 174.277 131.631 176.727 130.262C179.176 128.893 181.121 129.974 181.121 132.784Z" fill="#4F389E"/>
<path d="M168.73 139.772C168.73 141.573 167.505 143.734 165.92 144.598C164.407 145.463 163.111 144.742 163.111 143.013C163.111 141.212 164.335 139.051 165.92 138.187C167.505 137.322 168.73 138.043 168.73 139.772Z" fill="#4F389E"/>
<path d="M197.546 127.597L206.335 122.554C208.064 121.545 209.433 119.096 209.433 117.151C209.433 115.134 207.992 114.341 206.335 115.35L197.546 120.393C195.817 121.401 194.448 123.851 194.448 125.796C194.376 127.741 195.817 128.605 197.546 127.597Z" fill="#4F389E"/>
<path d="M234.43 86.389C234.574 86.6052 234.862 86.8213 235.151 86.9654C236.519 87.7578 238.753 87.7578 240.121 86.9654C240.41 86.8213 240.698 86.6052 240.842 86.389C241.418 85.6686 241.202 84.7321 240.121 84.0837C238.753 83.2913 236.519 83.2913 235.151 84.0837C233.998 84.7321 233.782 85.6686 234.43 86.389Z" fill="#4F389E"/>
<path d="M234.43 86.389C234.574 86.6051 234.862 86.8212 235.151 86.9653C236.519 87.7578 238.753 87.7578 240.121 86.9653C240.41 86.8212 240.698 86.6051 240.842 86.389C240.698 86.1729 240.41 85.9567 240.121 85.8127C238.753 85.0202 236.519 85.0202 235.151 85.8127C234.79 86.0288 234.574 86.1729 234.43 86.389Z" fill="#1F0159"/>
<path d="M147.838 136.097C147.982 136.242 148.126 136.386 148.414 136.53C149.495 137.178 151.224 137.178 152.304 136.53C152.52 136.386 152.736 136.242 152.881 136.097C153.385 135.521 153.169 134.801 152.304 134.296C151.224 133.648 149.495 133.648 148.414 134.296C147.549 134.801 147.333 135.521 147.838 136.097Z" fill="#4F389E"/>
<path d="M147.838 136.097C147.983 136.241 148.127 136.385 148.415 136.529C149.495 137.178 151.224 137.178 152.305 136.529C152.521 136.385 152.737 136.241 152.881 136.097C152.737 135.953 152.593 135.809 152.305 135.665C151.224 135.016 149.495 135.016 148.415 135.665C148.127 135.809 147.91 135.953 147.838 136.097Z" fill="#1F0159"/>
<path d="M218.15 95.61L218.871 96.0423L220.456 96.9068C220.888 97.1229 221.536 97.1229 221.969 96.9068L231.694 91.2876L232.415 90.8553C232.847 90.6392 232.847 90.2069 232.415 89.9908L230.181 88.6941C229.749 88.478 229.029 88.478 228.668 88.6941L218.222 94.7456C217.718 94.9617 217.718 95.3939 218.15 95.61Z" fill="#4F389E"/>
<path d="M218.87 96.0421L220.455 96.9066C220.888 97.1228 221.536 97.1228 221.968 96.9066L231.694 91.2874L230.109 90.3509C229.677 90.1348 228.956 90.1348 228.596 90.3509L218.87 96.0421Z" fill="#1F0159"/>
<path d="M278.305 247.473C277.441 246.969 275.784 247.257 275.64 246.537L268.291 245.6C264.329 245.096 262.528 249.347 264.257 254.75L292.569 342.064C293.794 345.882 296.46 349.196 299.269 350.853C300.134 351.357 302.151 352.005 302.223 352.005C305.681 352.222 307.482 348.62 306.257 343.721L285.293 257.343C284.285 253.165 281.331 249.274 278.305 247.473Z" fill="#98A4E0"/>
<path d="M292.569 341.992L288.823 340.623C291.128 347.683 296.027 353.879 301.214 356.905C302.871 357.841 304.6 358.489 306.257 358.706C313.029 359.57 316.487 353.014 314.254 343.793L306.329 343.721C307.482 348.62 305.681 352.078 302.223 351.79C302.151 351.79 300.206 351.285 299.341 350.781C299.125 350.637 298.909 350.493 298.693 350.421C296.027 348.692 293.65 345.522 292.569 341.992Z" fill="#BFBEED"/>
<mask id="mask6_3_10404" style="mask-type:luminance" maskUnits="userSpaceOnUse" x="310" y="338" width="14" height="20">
<path d="M310.867 357.841L319.44 352.87C322.97 350.853 324.411 345.522 322.754 338.822L314.181 343.793C315.838 350.493 314.397 355.752 310.867 357.841Z" fill="white"/>
</mask>
<g mask="url(#mask6_3_10404)">
<path d="M310.868 357.841L319.441 352.87C322.106 351.358 323.547 347.972 323.403 343.505L314.83 348.476C314.974 352.942 313.534 356.328 310.868 357.841Z" fill="#CCCBF6"/>
<path d="M314.902 348.476L323.475 343.505C323.403 342.064 323.186 340.479 322.826 338.822L314.253 343.793C314.614 345.45 314.83 347.035 314.902 348.476Z" fill="#E3E2F2"/>
</g>
<path d="M264.185 254.678L260.438 253.309L288.823 340.623L292.569 341.992L264.185 254.678Z" fill="#BFBEED"/>
<mask id="mask7_3_10404" style="mask-type:luminance" maskUnits="userSpaceOnUse" x="263" y="231" width="14" height="7">
<path d="M271.749 232.2L263.176 237.171C264.473 236.451 266.057 236.091 267.858 236.307L276.503 231.408C274.63 231.192 273.045 231.48 271.749 232.2Z" fill="white"/>
</mask>
<g mask="url(#mask7_3_10404)">
<path d="M267.93 236.379L276.503 231.408C274.702 231.192 273.117 231.48 271.821 232.273L263.248 237.244C264.473 236.451 266.057 236.163 267.93 236.379Z" fill="#CCCBF6"/>
</g>
<mask id="mask8_3_10404" style="mask-type:luminance" maskUnits="userSpaceOnUse" x="259" y="236" width="10" height="19">
<path d="M268.22 245.528L267.932 236.307C260.583 235.37 257.197 243.15 260.511 253.236L264.257 254.677C262.456 249.274 264.329 245.024 268.22 245.528Z" fill="white"/>
</mask>
<g mask="url(#mask8_3_10404)">
<path d="M268.22 245.528L267.932 236.307C260.583 235.37 257.197 243.15 260.511 253.236L264.257 254.677C262.456 249.274 264.329 245.024 268.22 245.528Z" fill="#CCCBF6"/>
</g>
<path d="M275.279 237.244L283.852 232.273L276.504 231.408L267.931 236.379L275.279 237.244Z" fill="#CCCBF6"/>
<path d="M275.568 246.464L275.28 237.243L267.931 236.379L268.22 245.528L275.568 246.464Z" fill="#98A4E0"/>
<mask id="mask9_3_10404" style="mask-type:luminance" maskUnits="userSpaceOnUse" x="275" y="237" width="6" height="11">
<path d="M278.305 247.401L280.322 239.044C278.665 238.108 276.936 237.459 275.351 237.243L275.639 246.464C275.783 247.185 277.368 246.897 278.305 247.401Z" fill="white"/>
</mask>
<g mask="url(#mask9_3_10404)">
<path d="M278.305 247.401L280.322 239.044C278.665 238.108 276.936 237.459 275.351 237.243L275.639 246.464C275.783 247.185 277.368 246.897 278.305 247.401Z" fill="#CCCBF6"/>
</g>
<mask id="mask10_3_10404" style="mask-type:luminance" maskUnits="userSpaceOnUse" x="275" y="232" width="14" height="8">
<path d="M280.249 239.045L288.822 234.074C287.165 233.137 285.436 232.489 283.851 232.273L275.278 237.243C276.935 237.46 278.592 238.108 280.249 239.045Z" fill="white"/>
</mask>
<g mask="url(#mask10_3_10404)">
<path d="M280.249 239.044L288.822 234.074C288.75 234.074 288.75 234.002 288.678 234.002L280.105 238.972C280.177 239.045 280.249 239.044 280.249 239.044Z" fill="#E3E2F2"/>
<path d="M280.177 238.972L288.75 234.002C287.093 233.065 285.436 232.489 283.851 232.273L275.278 237.243C276.863 237.46 278.52 238.108 280.177 238.972Z" fill="#CCCBF6"/>
</g>
<path d="M314.18 343.793L322.753 338.822L301.789 252.372L293.216 257.343L314.18 343.793Z" fill="#E3E2F2"/>
<path d="M306.257 343.72L314.181 343.793L293.217 257.343H285.293L306.257 343.72Z" fill="#CCCBF6"/>
<mask id="mask11_3_10404" style="mask-type:luminance" maskUnits="userSpaceOnUse" x="278" y="239" width="16" height="19">
<path d="M285.293 257.343L293.218 257.415C291.345 249.706 286.014 242.43 280.25 239.116L278.233 247.473C281.331 249.202 284.285 253.164 285.293 257.343Z" fill="white"/>
</mask>
<g mask="url(#mask11_3_10404)">
<path d="M285.293 257.343L293.218 257.415C291.345 249.706 286.014 242.43 280.25 239.116L278.233 247.473C281.331 249.202 284.285 253.164 285.293 257.343Z" fill="#CCCBF6"/>
</g>
<mask id="mask12_3_10404" style="mask-type:luminance" maskUnits="userSpaceOnUse" x="280" y="234" width="22" height="24">
<path d="M293.217 257.343L301.79 252.372C299.917 244.664 294.586 237.388 288.823 234.074L280.25 239.045C286.013 242.358 291.344 249.635 293.217 257.343Z" fill="white"/>
</mask>
<g mask="url(#mask12_3_10404)">
<path d="M293.217 257.343L301.79 252.372C301.358 250.643 300.781 248.914 300.061 247.257L291.488 252.228C292.209 253.885 292.785 255.614 293.217 257.343Z" fill="#E3E2F2"/>
<path d="M291.416 252.228L299.989 247.257C298.98 244.952 297.683 242.79 296.171 240.845L287.598 245.816C289.111 247.761 290.407 249.994 291.416 252.228Z" fill="#F4F4FB"/>
<path d="M287.67 245.817L296.243 240.846C294.081 237.964 291.488 235.587 288.822 234.074L280.249 239.045C282.915 240.63 285.509 243.007 287.67 245.817Z" fill="#E3E2F2"/>
</g>
<path d="M255.901 374.41C259.575 372.177 267.211 367.422 274.919 355.68C282.268 344.513 283.997 334.427 284.645 330.609C284.501 331.69 283.636 332.626 282.052 333.203C279.962 347.683 269.949 363.172 258.206 369.944C258.206 372.105 257.413 373.546 255.901 374.41Z" fill="#98A4E0"/>
<path d="M258.205 370.016L254.17 372.321C254.17 374.41 253.306 375.923 251.793 376.788L252.225 376.571L252.657 376.355L253.09 376.139L253.522 375.923L253.954 375.707L254.386 375.491L254.819 375.275L255.251 375.059L255.683 374.842L256.115 374.626C257.412 373.546 258.205 372.105 258.205 370.016Z" fill="#98A4E0"/>
<path d="M254.171 372.321L250.137 374.626C250.137 376.715 249.272 378.228 247.759 379.092L248.192 378.876L248.624 378.66L249.056 378.444L249.488 378.228L249.849 377.94L250.281 377.724L250.713 377.508L251.145 377.291L251.578 377.075L252.01 376.859C253.379 375.923 254.243 374.41 254.171 372.321Z" fill="#98A4E0"/>
<path d="M173.054 342.712C173.342 344.152 173.774 346.098 174.206 347.538C174.638 348.979 175.431 350.852 176.007 352.221C176.439 353.158 177.088 354.454 177.664 355.319C178.024 355.967 178.529 356.832 178.961 357.408C179.537 358.273 180.402 359.497 181.05 360.362C183.283 363.243 186.381 366.197 187.174 366.918C189.263 368.719 189.911 369.223 191.712 370.52C194.018 372.177 195.819 373.257 196.683 373.762C191.784 370.88 188.254 365.549 186.885 357.912C178.889 353.302 173.918 347.538 173.054 342.712Z" fill="#98A4E0"/>
<mask id="mask13_3_10404" style="mask-type:luminance" maskUnits="userSpaceOnUse" x="173" y="342" width="24" height="32">
<path d="M173.054 342.712C173.342 344.152 173.774 346.098 174.206 347.538C174.638 348.979 175.431 350.852 176.007 352.221C176.439 353.158 177.088 354.454 177.664 355.319C178.024 355.967 178.529 356.832 178.961 357.408C179.537 358.273 180.402 359.497 181.05 360.362C183.283 363.243 186.381 366.197 187.174 366.918C189.263 368.719 189.911 369.223 191.712 370.52C194.018 372.177 195.819 373.257 196.683 373.762C191.784 370.88 188.254 365.549 186.885 357.912C178.889 353.302 173.918 347.538 173.054 342.712Z" fill="white"/>
</mask>
<g mask="url(#mask13_3_10404)">
<path d="M173.054 342.712C174.062 347.538 177.232 362.307 196.683 373.762C191.784 370.88 188.254 365.549 186.885 357.912C178.889 353.302 173.918 347.538 173.054 342.712Z" fill="#98A4E0"/>
</g>
<path d="M290.12 277.154L282.123 333.274C283.708 332.698 284.573 331.762 284.717 330.537L285.149 327.727L285.581 324.918L285.87 322.108L286.302 319.298L286.734 316.489L287.166 313.679L287.599 310.87L288.031 308.06L288.463 305.25L288.895 302.441L289.328 299.631L289.76 296.821L290.192 294.012L290.624 291.202L291.057 288.393L291.489 285.583L291.921 282.773L292.353 279.964L292.786 277.154L293.218 274.345C292.497 275.641 291.705 276.578 290.12 277.154Z" fill="#BFBEED"/>
<path d="M196.682 373.761L202.301 377.003C197.402 374.122 193.872 368.791 192.503 361.154L186.884 357.912C188.253 365.549 191.783 370.88 196.682 373.761Z" fill="#98A4E0"/>
<mask id="mask14_3_10404" style="mask-type:luminance" maskUnits="userSpaceOnUse" x="186" y="357" width="17" height="21">
<path d="M196.682 373.761L202.301 377.003C197.402 374.122 193.872 368.791 192.503 361.154L186.884 357.912C188.253 365.549 191.783 370.88 196.682 373.761Z" fill="white"/>
</mask>
<g mask="url(#mask14_3_10404)">
<path d="M192.503 361.226L186.884 357.984C188.253 365.621 191.783 370.952 196.682 373.834L202.301 377.075C197.402 374.194 193.872 368.791 192.503 361.226Z" fill="#98A4E0"/>
</g>
<path d="M264.978 231.552C244.806 220.458 231.911 224.852 223.986 229.103C227.661 226.941 235.297 228.454 244.086 233.641C252.371 228.887 259.719 228.454 264.978 231.552Z" fill="#EDECF8"/>
<path d="M202.302 377.076C203.022 377.508 203.959 378.012 204.679 378.373C205.688 378.877 206.984 379.525 208.065 379.958C210.659 381.11 213.468 382.047 213.468 382.047C214.909 382.479 216.926 383.055 218.439 383.416C219.376 383.632 220.6 383.848 221.465 383.992C223.266 384.28 224.923 384.352 227.156 384.496C228.237 384.568 229.677 384.496 230.758 384.424C231.478 384.352 232.487 384.28 233.207 384.208C234.576 384.064 236.449 383.632 237.818 383.271C242.717 381.975 246.391 379.886 247.76 379.165C249.273 378.301 250.137 376.788 250.137 374.699C238.394 381.47 228.309 377.652 226.147 365.549C220.024 370.376 204.895 368.431 192.504 361.227C193.873 368.791 197.403 374.194 202.302 377.076Z" fill="#98A4E0"/>
<mask id="mask15_3_10404" style="mask-type:luminance" maskUnits="userSpaceOnUse" x="192" y="361" width="59" height="24">
<path d="M202.302 377.076C203.022 377.508 203.959 378.012 204.679 378.373C205.688 378.877 206.984 379.525 208.065 379.958C210.659 381.11 213.468 382.047 213.468 382.047C214.909 382.479 216.926 383.055 218.439 383.416C219.376 383.632 220.6 383.848 221.465 383.992C223.266 384.28 224.923 384.352 227.156 384.496C228.237 384.568 229.677 384.496 230.758 384.424C231.478 384.352 232.487 384.28 233.207 384.208C234.576 384.064 236.449 383.632 237.818 383.271C242.717 381.975 246.391 379.886 247.76 379.165C249.273 378.301 250.137 376.788 250.137 374.699C238.394 381.47 228.309 377.652 226.147 365.549C220.024 370.376 204.895 368.431 192.504 361.227C193.873 368.791 197.403 374.194 202.302 377.076Z" fill="white"/>
</mask>
<g mask="url(#mask15_3_10404)">
<path d="M202.302 377.076C211.235 381.975 218.223 384.064 227.156 384.496C231.839 384.712 239.259 383.92 247.76 379.093C249.273 378.228 250.137 376.716 250.137 374.626C238.394 381.398 228.309 377.58 226.147 365.477C220.024 370.304 204.895 368.359 192.504 361.155C193.873 368.791 197.403 374.194 202.302 377.076Z" fill="#98A4E0"/>
</g>
<path d="M270.598 234.794L264.978 231.552C259.719 228.454 252.371 228.886 244.158 233.569L249.778 236.811C257.99 232.128 265.339 231.768 270.598 234.794Z" fill="#EDECF8"/>
<path d="M225.715 244.231L244.157 233.569C235.368 228.454 227.732 226.941 224.058 229.031L207.488 238.612L206.552 239.116L205.615 239.621C209.289 237.603 216.926 239.116 225.715 244.231Z" fill="#E3E2F2"/>
<path d="M292.713 274.416C293.433 267.716 295.378 250.066 270.812 234.866C265.409 231.696 258.061 232.128 249.848 236.811C262.311 244.015 272.397 255.758 272.397 262.89C283.636 256.406 292.136 263.178 290.191 277.082C291.704 276.578 292.497 275.641 292.713 274.416Z" fill="#E3E2F2"/>
<path d="M249.776 236.884L244.157 233.57L225.715 244.232L231.334 247.474L249.776 236.884Z" fill="#E3E2F2"/>
<path d="M186.885 357.913L178.6 311.23C170.531 306.547 165.561 300.856 164.768 296.029L165.2 298.334L165.633 300.64L166.065 302.945L166.497 305.25L166.929 307.556L167.362 309.861L167.794 312.166L168.226 314.472L168.658 316.777L169.091 319.082L169.523 321.388L169.955 323.693L170.387 325.998L170.82 328.304L171.252 330.609L171.684 332.914L172.116 335.22L172.549 337.525L172.981 339.83L173.413 342.136C173.917 347.539 178.888 353.302 186.885 357.913Z" fill="#BFBEED"/>
<path d="M184.219 314.544L178.6 311.23L186.885 357.912L192.504 361.226L184.219 314.544Z" fill="#BFBEED"/>
<path d="M207.344 254.893L225.786 244.231C216.997 239.116 209.361 237.603 205.687 239.693L189.117 249.274L187.244 250.355C190.846 248.265 198.482 249.778 207.344 254.893Z" fill="#E3E2F2"/>
<path d="M253.956 273.624L272.398 262.962C272.398 255.758 262.313 244.087 249.849 236.883L231.407 247.545C243.798 254.75 253.884 266.42 253.956 273.624Z" fill="#E3E2F2"/>
<path d="M231.333 247.474L225.714 244.232L207.344 254.894L212.963 258.136L231.333 247.474Z" fill="#E3E2F2"/>
<path d="M187.173 250.355C184.291 252.156 181.266 254.03 176.799 259C174.206 261.81 171.18 266.277 169.451 269.879C164.84 279.244 163.399 287.529 164.768 296.102C165.633 300.856 170.604 306.62 178.6 311.302C175.286 292.5 189.046 265.484 207.345 254.894C198.484 249.779 190.847 248.266 187.173 250.355Z" fill="#BFBEED"/>
<path d="M178.6 311.23C177.448 304.747 178.312 297.326 180.69 289.906C180.474 289.618 180.257 289.33 180.041 289.042C173.486 278.524 179.177 268.654 191.64 269.086C196.107 263.251 201.438 258.208 207.273 254.894C198.484 249.779 190.848 248.266 187.173 250.355C186.525 250.788 185.589 251.364 184.94 251.724C184.22 252.229 183.283 252.949 182.563 253.453L180.546 255.11C179.969 255.687 179.105 256.407 178.528 256.983L176.727 258.928C176.223 259.505 175.503 260.369 174.998 260.946L173.414 263.035C172.981 263.683 172.333 264.548 171.973 265.196L170.604 267.429C170.244 268.15 169.739 269.014 169.379 269.735L168.227 272.112C167.938 272.832 167.506 273.769 167.218 274.489L166.353 276.939C166.137 277.659 165.777 278.668 165.633 279.46L165.057 281.982C164.913 282.774 164.696 283.855 164.624 284.647L164.336 287.169C164.264 288.033 164.264 289.186 164.264 290.05L164.336 292.572C164.48 293.58 164.624 294.949 164.769 295.958C165.561 300.856 170.532 306.62 178.6 311.23Z" fill="#BFBEED"/>
<path d="M178.6 311.23C178.456 310.294 178.312 309.357 178.24 308.349C178.024 308.205 177.736 307.988 177.448 307.844C150.864 290.626 172.837 255.975 187.966 252.949C195.314 251.436 202.302 255.254 204.607 256.551C205.472 255.975 206.408 255.398 207.345 254.822C198.556 249.707 190.919 248.194 187.245 250.283C186.597 250.716 185.66 251.292 185.012 251.652C184.292 252.156 183.355 252.877 182.635 253.381L180.617 255.038C180.041 255.614 179.177 256.335 178.6 256.911L176.799 258.856C176.295 259.433 175.574 260.297 175.07 260.873L173.485 262.963C173.053 263.611 172.405 264.475 172.044 265.124L170.676 267.357C170.315 268.078 169.811 268.942 169.451 269.662L168.298 272.04C168.01 272.76 167.578 273.697 167.29 274.417L166.425 276.867C166.209 277.587 165.849 278.596 165.705 279.388L165.129 281.909C164.984 282.702 164.768 283.783 164.696 284.575L164.408 287.096C164.336 287.961 164.336 289.114 164.336 289.978L164.408 292.5C164.552 293.508 164.696 294.877 164.84 295.885C165.561 300.856 170.532 306.62 178.6 311.23Z" fill="#CCCBF6"/>
<path d="M226.219 365.549L217.934 318.867C211.81 323.693 196.682 321.748 184.291 314.544L192.575 361.227C204.967 368.431 220.023 370.376 226.219 365.549Z" fill="#BFBEED"/>
<path d="M235.513 284.214L253.956 273.552C253.956 266.348 243.87 254.677 231.407 247.473L212.964 258.135C225.355 265.339 235.513 277.082 235.513 284.214Z" fill="#E3E2F2"/>
<path d="M212.964 258.136L207.345 254.894C206.409 255.398 205.544 255.974 204.608 256.623L210.227 259.865C211.163 259.216 212.028 258.64 212.964 258.136Z" fill="#CCCBF6"/>
<path d="M210.228 259.864L204.608 256.623C199.854 259.864 195.459 264.187 191.713 269.158L197.332 272.4C201.078 267.429 205.473 263.106 210.228 259.864Z" fill="#BFBEED"/>
<path d="M197.332 272.327L191.713 269.086C186.886 275.353 183.068 282.629 180.763 289.906L186.382 293.147C188.687 285.871 192.505 278.595 197.332 272.327Z" fill="#BFBEED"/>
<path d="M186.381 293.22L180.762 289.978C178.745 296.317 177.808 302.657 178.241 308.42L183.86 311.662C183.356 305.899 184.292 299.559 186.381 293.22Z" fill="#BFBEED"/>
<path d="M183.86 311.663L178.24 308.421C178.312 309.429 178.456 310.366 178.601 311.302L184.22 314.544C184.076 313.608 183.932 312.599 183.86 311.663Z" fill="#CCCBF6"/>
<path d="M235.513 284.215C224.274 290.698 215.845 307.268 217.863 318.794C220.6 334.355 223.41 349.916 226.147 365.477C228.309 377.508 238.394 381.398 250.137 374.627C251.506 373.834 252.803 373.114 254.171 372.321C255.54 371.529 256.837 370.808 258.206 370.016C269.948 363.244 279.962 347.755 282.051 333.275C284.717 314.544 287.382 295.885 290.048 277.155C291.993 263.323 283.492 256.551 272.254 262.962C266.13 266.492 260.007 270.022 253.811 273.625C247.76 277.155 241.636 280.685 235.513 284.215Z" fill="#CCCBF6"/>
<path d="M235.513 284.214C235.513 277.01 225.427 265.339 212.964 258.135C194.665 268.725 180.905 295.741 184.219 314.544C196.682 321.748 211.739 323.693 217.863 318.866C215.845 307.267 224.274 290.77 235.513 284.214Z" fill="#BFBEED"/>
<path d="M217.863 318.866C215.845 307.34 224.274 290.77 235.513 284.286C235.513 277.082 225.427 265.411 212.964 258.207C207.2 261.521 201.797 266.564 197.331 272.399C197.547 272.399 197.763 272.399 197.979 272.471C218.583 273.984 218.583 290.698 207.633 300.351C200.212 306.907 189.911 298.19 186.308 293.291C183.931 300.712 183.067 308.132 184.147 314.616C196.682 321.748 211.739 323.693 217.863 318.866Z" fill="#BFBEED"/>
<path d="M217.863 318.866C215.845 307.34 224.274 290.77 235.513 284.286C235.513 277.082 225.427 265.411 212.964 258.207C212.027 258.712 211.163 259.288 210.226 259.936C210.442 260.08 210.803 260.224 211.019 260.369C215.413 263.034 225.499 270.238 223.842 279.748C222.833 285.655 209.722 308.996 209.65 309.213C207.489 312.671 205.327 315.048 201.437 315.912C199.204 316.417 193.08 316.993 183.859 311.662C183.931 312.671 184.075 313.607 184.219 314.544C196.682 321.748 211.739 323.693 217.863 318.866Z" fill="#BFBEED"/>
<path d="M259.358 254.174C276.72 243.44 280.682 230.112 282.195 225.069C280.322 231.913 274.919 238.541 265.986 243.944C242.717 257.92 204.175 258.352 179.897 244.808C169.883 239.189 163.831 232.129 161.886 224.709C162.895 228.095 165.993 238.253 174.565 246.249C181.265 252.517 188.037 257.128 200.933 261.018C219.663 266.637 243.653 263.827 259.358 254.174Z" fill="#EDECF8"/>
<path d="M159.149 199.278C159.869 190.417 162.607 183.717 164.408 179.322C165.993 175.432 170.027 168.588 174.35 163.761C180.473 156.845 184.94 153.964 189.622 150.938C209.434 139.195 232.487 138.763 252.947 149.857C259.863 153.604 265.77 158.935 269.084 162.609C275.352 169.741 278.161 174.928 281.043 181.844C283.492 187.679 284.933 194.667 285.365 202.664C285.798 210.156 284.357 216.208 283.132 221.611C281.259 228.599 275.784 235.298 266.707 240.774C243.077 254.966 203.959 255.398 179.321 241.638C169.163 235.947 163.039 228.743 160.95 221.034C159.509 214.406 158.357 209.075 159.149 199.278Z" fill="#EDECF8"/>
<path d="M190.847 242.863C215.269 251.004 246.967 248.915 267.355 236.668C277.584 230.544 283.276 222.836 284.572 214.911C285.365 207.995 285.437 207.419 285.293 202.808C285.149 200.647 284.933 197.837 284.644 195.676C283.564 188.4 280.538 181.628 275.999 175.793C277.296 184.51 272.397 193.443 261.159 200.215C243.581 210.805 216.277 212.606 195.241 205.546C191.711 218.585 189.982 231.841 190.847 242.863Z" fill="#1F0159"/>
<path d="M282.196 225.068L283.133 221.755C281.26 228.743 275.785 235.442 266.707 240.845C243.078 255.038 203.959 255.47 179.321 241.71C169.163 236.019 163.04 228.815 161.023 221.322L161.887 224.636C163.832 231.984 169.884 239.116 179.898 244.664C204.175 258.207 242.718 257.775 265.987 243.799C274.92 238.54 280.323 231.912 282.196 225.068Z" fill="#EDECF8"/>
<path d="M194.233 171.974V173.919C194.233 175.072 195.025 176.225 196.538 177.161C199.636 178.962 204.607 178.962 207.704 177.161C209.289 176.297 210.01 175.072 210.01 173.919V171.974C210.01 173.127 209.217 174.351 207.704 175.216C204.607 177.017 199.564 177.017 196.538 175.216C194.953 174.351 194.233 173.199 194.233 171.974Z" fill="#BFBEED"/>
<mask id="mask16_3_10404" style="mask-type:luminance" maskUnits="userSpaceOnUse" x="194" y="171" width="17" height="8">
<path d="M194.233 171.974V173.919C194.233 175.072 195.025 176.225 196.538 177.161C199.636 178.962 204.607 178.962 207.704 177.161C209.289 176.297 210.01 175.072 210.01 173.919V171.974C210.01 173.127 209.217 174.351 207.704 175.216C204.607 177.017 199.564 177.017 196.538 175.216C194.953 174.351 194.233 173.199 194.233 171.974Z" fill="white"/>
</mask>
<g mask="url(#mask16_3_10404)">
<path d="M194.232 171.974V173.919C194.232 175.072 195.025 176.225 196.538 177.161C197.69 177.809 199.131 178.242 200.644 178.458V176.513C199.131 176.369 197.69 175.936 196.538 175.216C194.953 174.351 194.232 173.199 194.232 171.974Z" fill="#BFBEED"/>
<path d="M200.645 176.513V178.458C203.094 178.746 205.76 178.314 207.705 177.161C207.993 177.017 208.209 176.801 208.497 176.657V174.712C208.281 174.856 207.993 175.072 207.705 175.216C205.76 176.297 203.094 176.729 200.645 176.513Z" fill="#BFBEED"/>
<path d="M208.425 174.712V176.657C209.505 175.864 210.01 174.856 210.01 173.919V171.974C210.01 172.911 209.505 173.919 208.425 174.712Z" fill="#BFBEED"/>
</g>
<path d="M196.537 168.733C193.439 170.534 193.439 173.415 196.465 175.216C199.563 177.017 204.534 177.017 207.631 175.216C210.729 173.415 210.729 170.534 207.703 168.733C204.606 166.932 199.635 166.932 196.537 168.733Z" fill="#F4F4FB"/>
<path d="M196.249 170.533V171.974C196.249 172.838 196.826 173.703 197.906 174.351C200.14 175.648 203.814 175.648 206.047 174.351C207.2 173.703 207.776 172.838 207.776 171.974V170.533C207.776 171.397 207.2 172.262 206.047 172.91C203.814 174.207 200.14 174.207 197.906 172.91C196.826 172.262 196.249 171.397 196.249 170.533Z" fill="#BFBEED"/>
<mask id="mask17_3_10404" style="mask-type:luminance" maskUnits="userSpaceOnUse" x="196" y="170" width="12" height="6">
<path d="M196.249 170.533V171.974C196.249 172.838 196.826 173.703 197.906 174.351C200.14 175.648 203.814 175.648 206.047 174.351C207.2 173.703 207.776 172.838 207.776 171.974V170.533C207.776 171.397 207.2 172.262 206.047 172.91C203.814 174.207 200.14 174.207 197.906 172.91C196.826 172.262 196.249 171.397 196.249 170.533Z" fill="white"/>
</mask>
<g mask="url(#mask17_3_10404)">
<path d="M196.249 170.533V171.973C196.249 172.838 196.826 173.702 197.906 174.351C198.771 174.855 199.779 175.143 200.932 175.287V173.847C199.852 173.702 198.771 173.414 197.906 172.91C196.826 172.262 196.249 171.397 196.249 170.533Z" fill="#BFBEED"/>
<path d="M200.932 173.847V175.288C202.734 175.504 204.679 175.144 206.119 174.351C206.336 174.207 206.48 174.135 206.696 173.991V172.55C206.552 172.694 206.336 172.838 206.119 172.91C204.679 173.703 202.734 173.991 200.932 173.847Z" fill="#BFBEED"/>
<path d="M206.695 172.55V173.991C207.488 173.414 207.848 172.694 207.848 171.974V170.533C207.776 171.181 207.416 171.902 206.695 172.55Z" fill="#BFBEED"/>
</g>
<path d="M197.979 168.156C195.746 169.452 195.674 171.614 197.979 172.91C200.212 174.207 203.886 174.207 206.12 172.91C208.353 171.614 208.425 169.452 206.12 168.156C203.886 166.859 200.212 166.859 197.979 168.156Z" fill="#F4F4FB"/>
<path d="M232.703 150.577V152.522C232.703 153.675 233.496 154.828 235.009 155.764C238.107 157.565 243.077 157.565 246.175 155.764C247.76 154.828 248.48 153.675 248.48 152.522V150.577C248.48 151.73 247.688 152.955 246.175 153.819C243.077 155.62 238.034 155.62 235.009 153.819C233.496 152.883 232.703 151.73 232.703 150.577Z" fill="#BFBEED"/>
<mask id="mask18_3_10404" style="mask-type:luminance" maskUnits="userSpaceOnUse" x="232" y="150" width="17" height="8">
<path d="M232.703 150.577V152.522C232.703 153.675 233.496 154.828 235.009 155.764C238.107 157.565 243.077 157.565 246.175 155.764C247.76 154.828 248.48 153.675 248.48 152.522V150.577C248.48 151.73 247.688 152.955 246.175 153.819C243.077 155.62 238.034 155.62 235.009 153.819C233.496 152.883 232.703 151.73 232.703 150.577Z" fill="white"/>
</mask>
<g mask="url(#mask18_3_10404)">
<path d="M232.703 150.577V152.522C232.703 153.675 233.496 154.828 235.008 155.764C236.161 156.413 237.602 156.845 239.115 157.061V155.116C237.602 154.972 236.161 154.54 235.008 153.819C233.496 152.883 232.703 151.73 232.703 150.577Z" fill="#BFBEED"/>
<path d="M239.115 155.044V156.989C241.565 157.277 244.23 156.845 246.175 155.692C246.463 155.548 246.68 155.332 246.968 155.188V153.243C246.752 153.387 246.463 153.603 246.175 153.747C244.23 154.9 241.565 155.332 239.115 155.044Z" fill="#BFBEED"/>
<path d="M246.967 153.315V155.26C248.048 154.468 248.552 153.459 248.552 152.522V150.577C248.552 151.514 247.976 152.45 246.967 153.315Z" fill="#BFBEED"/>
</g>
<path d="M235.008 147.336C231.91 149.137 231.91 152.018 234.936 153.819C238.034 155.62 243.004 155.62 246.102 153.819C249.2 152.018 249.2 149.137 246.174 147.336C243.148 145.535 238.106 145.535 235.008 147.336Z" fill="#F4F4FB"/>
<path d="M234.864 148.992V150.433C234.864 151.298 235.441 152.162 236.521 152.811C238.755 154.107 242.429 154.107 244.662 152.811C245.815 152.162 246.391 151.298 246.391 150.433V148.992C246.391 149.857 245.815 150.721 244.662 151.37C242.429 152.667 238.755 152.667 236.521 151.37C235.369 150.721 234.864 149.857 234.864 148.992Z" fill="#BFBEED"/>
<mask id="mask19_3_10404" style="mask-type:luminance" maskUnits="userSpaceOnUse" x="234" y="148" width="13" height="6">
<path d="M234.864 148.992V150.433C234.864 151.298 235.441 152.162 236.521 152.811C238.755 154.107 242.429 154.107 244.662 152.811C245.815 152.162 246.391 151.298 246.391 150.433V148.992C246.391 149.857 245.815 150.721 244.662 151.37C242.429 152.667 238.755 152.667 236.521 151.37C235.369 150.721 234.864 149.857 234.864 148.992Z" fill="white"/>
</mask>
<g mask="url(#mask19_3_10404)">
<path d="M234.865 148.993V150.433C234.865 151.298 235.441 152.162 236.522 152.811C237.387 153.315 238.395 153.603 239.548 153.747V152.306C238.467 152.162 237.387 151.874 236.522 151.37C235.369 150.722 234.865 149.857 234.865 148.993Z" fill="#BFBEED"/>
<path d="M239.548 152.307V153.747C241.349 153.964 243.294 153.603 244.735 152.811C244.951 152.667 245.095 152.595 245.312 152.451V151.01C245.167 151.154 244.951 151.298 244.735 151.37C243.294 152.163 241.349 152.451 239.548 152.307Z" fill="#BFBEED"/>
<path d="M245.238 151.01V152.45C246.031 151.874 246.391 151.154 246.391 150.433V148.992C246.391 149.641 246.031 150.361 245.238 151.01Z" fill="#BFBEED"/>
</g>
<path d="M236.522 146.615C234.289 147.912 234.217 150.073 236.522 151.37C238.755 152.667 242.429 152.667 244.663 151.37C246.896 150.073 246.968 147.912 244.663 146.615C242.429 145.319 238.827 145.319 236.522 146.615Z" fill="#F4F4FB"/>
<path d="M240.916 150.938C242.141 150.938 243.149 149.93 243.149 148.705V120.465C243.149 119.24 242.141 118.232 240.916 118.232C239.691 118.232 238.683 119.24 238.683 120.465V148.777C238.683 149.93 239.691 150.938 240.916 150.938Z" fill="#F47300"/>
<path d="M202.301 172.479C203.526 172.479 204.535 171.47 204.535 170.245V141.933C204.535 140.708 203.526 139.7 202.301 139.7C201.077 139.7 200.068 140.708 200.068 141.933V170.245C200.14 171.47 201.077 172.479 202.301 172.479Z" fill="#F47300"/>
<path d="M233.495 119.744C233.495 115.782 236.737 112.612 240.627 112.612C244.589 112.612 247.759 115.854 247.759 119.744C247.759 123.634 244.589 126.876 240.627 126.876C236.665 126.876 233.495 123.634 233.495 119.744Z" fill="#F47300"/>
<path d="M194.954 139.7C194.954 135.738 198.124 132.568 202.086 132.568C206.048 132.568 209.218 135.81 209.218 139.7C209.218 143.59 205.976 146.832 202.086 146.832C198.124 146.832 194.954 143.662 194.954 139.7Z" fill="#F47300"/>
<path d="M272.687 209.436C274.488 214.983 276.793 216.784 278.45 213.83C282.34 206.914 277.297 192.722 272.975 193.731C272.471 193.875 272.183 194.163 271.894 194.451C269.733 198.053 271.822 206.698 272.687 209.436Z" fill="#F47300"/>
<path d="M234.793 224.853C235.946 233.714 243.006 235.803 247.112 230.544C252.731 223.412 247.905 210.949 241.421 211.165C241.205 211.165 240.917 211.237 240.701 211.237C235.658 212.75 234.217 220.242 234.793 224.853Z" fill="#F47300"/>
<path d="M257.63 232.705C258.207 237.676 263.394 237.604 267.212 232.633C268.941 230.328 269.949 227.446 269.733 225.213C268.725 225.933 267.644 226.654 266.491 227.302C263.754 228.959 260.728 230.4 257.63 231.696C257.63 231.913 257.63 232.201 257.63 232.705Z" fill="#F47300"/>
<path d="M164.768 214.406C164.768 221.394 169.667 229.967 175.79 233.425C181.842 236.955 186.812 234.074 186.812 227.086C186.812 220.098 181.914 211.525 175.79 208.067C169.667 204.609 164.768 207.418 164.768 214.406Z" fill="#F47300"/>
<path d="M164.768 214.406C164.768 221.394 169.667 229.967 175.79 233.425C181.842 236.955 186.812 234.074 186.812 227.086C186.812 220.098 181.914 211.525 175.79 208.067C169.667 204.609 164.768 207.418 164.768 214.406Z" fill="#F47300"/>
<path d="M169.523 217.216C169.523 221.178 172.261 226.005 175.719 227.95C179.177 229.895 181.915 228.31 181.915 224.348C181.915 220.386 179.177 215.559 175.719 213.614C172.333 211.669 169.523 213.254 169.523 217.216Z" fill="#9200FF"/>
<mask id="mask20_3_10404" style="mask-type:luminance" maskUnits="userSpaceOnUse" x="152" y="289" width="11" height="27">
<path d="M156.771 297.182L153.313 289.978C151.439 296.606 155.762 308.204 162.75 315.336L161.813 310.87C158.139 307.052 155.762 300.712 156.771 297.182Z" fill="white"/>
</mask>
<g mask="url(#mask20_3_10404)">
<path d="M156.771 297.182L153.313 289.978C151.439 296.606 155.762 308.204 162.75 315.336L161.813 310.87C158.139 307.052 155.762 300.712 156.771 297.182Z" fill="#BFBEED"/>
</g>
<path d="M158.715 290.482L155.257 283.35L153.384 289.978L156.77 297.182L158.715 290.482Z" fill="#BFBEED"/>
<mask id="mask21_3_10404" style="mask-type:luminance" maskUnits="userSpaceOnUse" x="155" y="278" width="17" height="14">
<path d="M167.36 291.707L171.322 285.583C164.478 277.73 157.202 276.65 155.257 283.35L158.715 290.554C159.724 286.952 163.686 287.528 167.36 291.707Z" fill="white"/>
</mask>
<g mask="url(#mask21_3_10404)">
<path d="M167.36 291.707L171.322 285.583C164.478 277.73 157.202 276.65 155.257 283.35L158.715 290.554C159.724 286.952 163.686 287.528 167.36 291.707Z" fill="#CCCBF6"/>
</g>
<mask id="mask22_3_10404" style="mask-type:luminance" maskUnits="userSpaceOnUse" x="157" y="273" width="24" height="13">
<path d="M167.216 274.417L157.995 279.532C161.237 277.731 166.424 279.892 171.323 285.583L180.544 280.468C175.645 274.705 170.386 272.616 167.216 274.417Z" fill="white"/>
</mask>
<g mask="url(#mask22_3_10404)">
<path d="M171.323 285.584L180.544 280.469C178.887 278.524 177.158 277.011 175.501 275.93L166.28 281.045C167.937 282.126 169.666 283.639 171.323 285.584Z" fill="#E3E2F2"/>
<path d="M166.28 281.045L175.501 275.93C172.26 273.769 169.306 273.265 167.145 274.489L157.923 279.604C160.085 278.38 163.038 278.884 166.28 281.045Z" fill="#CCCBF6"/>
</g>
<path d="M161.885 310.87L162.822 315.337L223.697 376.86L222.76 372.393L161.885 310.87Z" fill="#BFBEED"/>
<path d="M156.77 297.182C155.762 300.712 158.067 307.051 161.885 310.87L222.76 372.393C226.29 375.923 229.748 376.139 230.685 372.825C231.621 369.511 229.748 363.892 226.362 359.93L167.432 291.779C163.758 287.528 159.796 286.952 158.787 290.554L156.77 297.182Z" fill="#98A4E0"/>
<path d="M230.252 353.734L239.473 348.619L180.543 280.468L171.322 285.583L230.252 353.734Z" fill="#E3E2F2"/>
<path d="M226.29 359.93L230.252 353.735L171.322 285.583L167.36 291.707L226.29 359.93Z" fill="#CCCBF6"/>
<mask id="mask23_3_10404" style="mask-type:luminance" maskUnits="userSpaceOnUse" x="230" y="348" width="18" height="34">
<path d="M235.656 381.399L244.877 376.284C246.102 375.563 247.038 374.338 247.543 372.537C249.272 366.414 245.742 355.968 239.474 348.692L230.253 353.807C236.52 361.083 240.05 371.529 238.321 377.652C237.817 379.453 236.881 380.678 235.656 381.399Z" fill="white"/>
</mask>
<g mask="url(#mask23_3_10404)">
<path d="M235.656 381.399L244.877 376.284C246.102 375.563 247.038 374.339 247.543 372.538C247.975 371.097 248.047 369.512 247.903 367.711L238.681 372.826C238.826 374.627 238.681 376.284 238.321 377.653C237.817 379.454 236.88 380.678 235.656 381.399Z" fill="#CCCBF6"/>
<path d="M238.754 372.754L247.976 367.639C247.832 365.117 247.111 362.38 246.03 359.642L236.809 364.757C237.89 367.495 238.538 370.232 238.754 372.754Z" fill="#E3E2F2"/>
<path d="M236.809 364.757L246.03 359.642C244.734 356.256 242.788 352.87 240.483 349.845L231.262 354.96C233.567 357.913 235.512 361.371 236.809 364.757Z" fill="#F4F4FB"/>
<path d="M231.262 354.959L240.483 349.844C240.195 349.412 239.835 349.052 239.474 348.62L230.253 353.735C230.613 354.167 230.901 354.527 231.262 354.959Z" fill="#E3E2F2"/>
</g>
<mask id="mask24_3_10404" style="mask-type:luminance" maskUnits="userSpaceOnUse" x="222" y="353" width="17" height="30">
<path d="M222.76 372.393L223.697 376.86C230.18 383.415 236.592 383.776 238.321 377.58C240.05 371.457 236.52 361.011 230.252 353.734L226.29 359.858C229.676 363.748 231.549 369.439 230.613 372.753C229.676 376.067 226.218 375.923 222.76 372.393Z" fill="white"/>
</mask>
<g mask="url(#mask24_3_10404)">
<path d="M222.76 372.393L223.697 376.86C230.18 383.415 236.592 383.776 238.321 377.58C240.05 371.457 236.52 361.011 230.252 353.734L226.29 359.858C229.676 363.748 231.549 369.439 230.613 372.753C229.676 376.067 226.218 375.923 222.76 372.393Z" fill="#CCCBF6"/>
</g>
<path d="M432.041 1.81236L320.017 66.5055C313.245 70.3958 307.698 79.9772 307.698 87.8298V109.946C306.833 119.816 303.087 130.118 297.036 137.034C304.456 137.754 314.038 129.686 322.61 118.808L432.041 55.6273C438.813 51.737 444.36 42.1555 444.36 34.3751V8.94446C444.36 1.09195 438.813 -2.07788 432.041 1.81236Z" fill="#CCCBF6"/>
<path d="M322.036 102.67V109.586L370.231 81.7783V74.7903L322.036 102.67Z" fill="#F1F1F1"/>
<path d="M322.035 90.3512V97.2672L437.877 30.4128V23.4247L322.035 90.3512Z" fill="#F1F1F1"/>
<path d="M322.035 77.9604V84.9484L437.877 18.094V11.106L322.035 77.9604Z" fill="#F1F1F1"/>
<path d="M57.0658 102.454L169.09 37.8331C175.862 33.9428 181.409 37.1126 181.409 44.9651V67.0818C182.274 76.015 186.02 81.9944 192.071 81.9224C184.651 91.2157 175.07 94.1694 166.497 93.2329L57.0658 156.413C50.2939 160.303 44.7467 157.134 44.7467 149.281V123.85C44.8187 115.926 50.2939 106.344 57.0658 102.454Z" fill="#F47300"/>
<path d="M96.9047 115.206L168.73 73.7098V66.7938L96.9047 108.29V115.206Z" fill="#F1F1F1"/>
<path d="M52.8874 121.329V128.317L168.73 61.391V54.475L52.8874 121.329Z" fill="#F1F1F1"/>
<path d="M396.814 101.302L320.09 145.607C313.318 149.498 307.771 159.079 307.771 166.932V189.048C306.906 198.918 303.16 209.22 297.108 216.136C304.529 216.856 314.11 208.788 322.683 197.909L396.814 155.117C403.586 151.227 409.133 141.645 409.133 133.793V108.362C409.061 100.581 403.514 97.4117 396.814 101.302Z" fill="#F47300"/>
<path d="M381.036 140.06L318.72 176.009V182.997L381.036 147.048V140.06Z" fill="#F1F1F1"/>
<path d="M318.72 163.689V170.677L399.262 124.139V117.223L318.72 163.689Z" fill="#F1F1F1"/>
<path d="M305.392 313.103C305.896 312.455 306.689 311.662 307.409 312.094C308.058 312.455 308.058 313.607 308.13 314.256C308.274 315.264 308.058 316.129 307.697 317.065C307.265 318.002 306.833 318.866 306.833 319.875C306.833 320.163 306.905 320.451 306.977 320.667C305.176 322.036 303.519 323.549 301.862 325.206C301.574 324.63 301.358 323.981 301.358 323.405C301.07 319.659 303.303 316.057 305.392 313.103Z" fill="#FFC7AD"/>
<path d="M358.126 313.103C364.826 314.4 371.382 316.129 377.866 318.29C380.819 319.226 383.773 320.091 386.006 322.54C388.312 324.918 388.384 328.448 387.303 331.545C386.727 333.274 385.862 334.859 384.133 335.292C382.404 335.724 379.739 334.859 378.082 334.427C373.831 333.202 369.653 331.545 365.691 329.456C364.322 328.736 362.953 328.015 361.656 327.223C359.639 326.07 357.622 324.99 355.605 323.837C357.694 320.667 358.703 316.849 358.126 313.103Z" fill="#E3E2F2"/>
<path d="M388.024 519.934C387.808 519.213 387.303 518.781 386.006 518.709C384.422 518.565 382.837 518.493 381.252 518.421C379.091 518.277 377.001 518.133 374.84 517.989C374.984 516.26 374.984 514.531 375.2 512.802C372.967 513.306 371.67 512.658 369.509 511.793C366.988 510.857 364.394 509.992 361.729 509.2C360.576 508.911 359.423 508.551 358.271 508.767C355.389 509.344 353.804 514.098 354.236 516.62C354.524 518.349 355.677 519.862 357.118 521.014C359.207 522.671 362.161 524.04 364.826 524.4C367.636 524.833 370.229 525.697 372.535 527.498C375.488 529.803 377.578 532.253 381.54 532.541C385.502 532.829 388.744 530.452 388.888 526.345C388.96 524.905 388.672 523.464 388.456 522.023C388.24 521.158 388.168 520.438 388.024 519.934Z" fill="#1F0159"/>
<path d="M376.065 525.697C376.065 525.409 376.065 525.048 376.065 524.76C376.281 521.59 375.057 518.853 373.904 515.899C373.472 514.818 372.968 513.666 372.103 512.873C370.014 511.216 366.628 512.657 365.331 515.035C364.683 516.115 364.395 517.34 363.818 518.493C362.738 520.654 360.648 523.175 358.055 523.247C354.597 523.391 350.707 522.239 347.249 522.023C345.88 521.951 344.511 521.879 343.214 522.383C340.261 523.608 339.396 528.362 340.477 531.1C341.125 532.757 342.638 533.981 344.223 534.702C346.6 535.855 349.842 536.503 352.508 536.287C355.389 536.071 358.127 536.359 360.72 537.584C365.187 539.673 370.446 542.771 374.985 538.592C376.209 537.512 376.786 535.855 376.93 534.198C377.074 531.388 376.137 528.578 376.065 525.697Z" fill="#1F0159"/>
<path d="M401.136 405.388C401.713 410.647 401.857 415.69 401.496 420.949C401.064 426.496 399.984 431.323 398.039 440.905C396.165 450.198 395.733 451.639 395.517 456.466C395.949 456.105 398.759 488.812 389.898 518.493C389.321 520.294 388.673 522.311 386.944 523.392C386.08 523.896 385.071 524.112 384.062 524.256C383.054 524.401 382.117 524.473 381.109 524.328C380.1 524.184 378.948 523.752 378.227 522.96C377.435 522.023 376.93 520.798 376.57 519.646C375.994 517.557 375.922 515.395 375.922 513.234C375.85 503.076 376.498 492.918 376.57 482.833C376.57 476.925 376.354 471.09 375.634 465.255C373.761 458.555 372.32 451.711 371.383 444.795C370.519 438.239 370.879 431.539 369.366 425.055C368.213 420.229 367.349 412.448 367.421 405.388H401.136Z" fill="#1F0159"/>
<path d="M370.519 395.518C369.582 395.014 364.827 392.637 364.827 391.34C364.827 390.475 362.522 389.755 361.874 389.755C360.793 389.755 359.64 390.475 358.776 391.124C356.615 392.709 358.272 391.124 357.263 393.717C355.894 397.247 354.237 404.667 354.021 408.486C353.373 419.796 356.615 465.47 357.263 468.208C357.911 470.873 358.416 471.738 360.649 473.107C365.476 476.132 374.121 475.7 377.579 470.297C381.253 464.462 379.74 455.313 380.965 448.685C382.694 439.103 389.033 432.043 391.987 422.966C394.148 416.266 393.86 409.998 392.707 403.155C392.203 399.913 391.194 392.204 387.881 390.331C387.016 389.827 381.109 388.458 376.354 393.213C373.616 396.022 373.977 397.319 370.519 395.518Z" fill="#4F389E"/>
<path d="M357.623 472.674C358.055 477.573 358.415 482.472 358.775 487.443C359.064 491.333 359.28 495.223 359.496 499.113C359.64 502.139 359.784 505.093 359.856 508.119C360.432 524.544 358.703 528.218 366.412 530.379C368.141 530.884 370.014 531.028 371.743 530.595C376.786 529.371 377.65 524.904 378.299 519.429C378.659 516.331 378.803 512.585 378.875 509.487C378.947 506.822 379.019 504.228 379.091 501.563C379.163 497.961 379.163 494.431 379.235 490.829C379.307 486.146 379.307 481.391 379.379 476.709C379.451 470.657 379.956 464.534 379.956 458.482C379.956 457.618 379.379 456.681 378.731 456.249C377.794 455.672 358.487 460.067 356.686 462.156C356.686 462.084 357.118 466.623 357.623 472.674Z" fill="#4F389E"/>
<path d="M351.427 342.063C351.427 341.919 351.427 341.847 351.427 341.703C351.499 339.686 351.499 337.309 352.652 335.508C353.661 333.923 355.678 333.13 357.191 332.194C362.305 328.952 367.781 326.214 373.472 324.197C382.189 321.099 391.05 314.688 400.271 319.947C401.208 320.451 402.144 321.099 402.865 321.892C407.62 326.502 407.115 334.067 406.323 340.046C405.386 347.755 403.081 355.319 401.712 362.955C401.424 364.54 401.208 366.197 400.992 367.782C400.271 373.329 400.776 379.093 400.055 384.568C399.407 389.394 399.911 395.014 400.559 399.84C400.848 401.858 400.487 404.811 400.487 404.811C400.487 404.811 388.529 407.909 379.451 408.413C368.069 408.99 363.962 408.269 362.81 407.549C359.64 405.46 354.237 404.955 354.381 401.858C355.101 388.746 353.949 371.672 352.652 358.705C352.076 353.158 351.283 347.61 351.427 342.063Z" fill="#CCCBF6"/>
<path d="M354.381 401.786C354.237 403.947 354.092 408.63 354.092 408.63C354.092 408.63 367.78 411.655 379.163 411.007C388.24 410.503 401.208 406.036 401.208 406.036C401.208 406.036 400.559 399.048 400.487 398.688C384.71 404.812 367.42 405.1 354.381 401.786Z" fill="#1F0159"/>
<path d="M356.326 402.218C356.326 404.523 356.326 406.756 356.326 409.062C357.407 409.278 358.92 409.494 360.649 409.782C360.865 407.477 361.153 405.172 361.874 403.226C359.928 402.938 358.055 402.65 356.326 402.218Z" fill="#4F389E"/>
<path d="M390.762 401.642C389.537 401.93 388.385 402.146 387.16 402.434C387.16 405.1 387.16 407.477 387.16 409.927C388.529 409.639 389.826 409.35 391.122 408.99C391.194 406.541 390.546 403.947 390.762 401.642Z" fill="#4F389E"/>
<path d="M371.166 316.633C370.806 314.328 369.077 314.904 369.942 312.815C370.662 311.014 371.815 309.429 373.327 308.277C374.84 307.124 376.785 306.403 378.659 306.548C379.307 306.62 379.739 306.98 380.388 306.98C382.189 306.98 383.99 306.62 385.791 306.908C387.592 307.196 389.249 307.268 389.249 309.357C389.249 312.095 389.105 314.688 389.969 317.282C390.401 318.723 391.122 320.091 391.266 321.532C391.482 324.486 386.007 324.918 383.341 326.215C380.099 327.8 370.806 324.558 370.95 323.189C371.31 321.028 371.454 318.65 371.166 316.633Z" fill="#FFC7AD"/>
<path d="M363.458 287.24C362.378 288.537 361.513 290.05 361.225 291.779C360.649 295.669 362.233 299.703 361.369 303.521C360.577 307.267 362.161 315.768 369.582 317.93C373.328 319.01 380.676 317.713 383.053 316.633C386.223 315.12 388.312 312.022 390.258 309.069C405.674 284.574 373.904 274.489 363.458 287.24Z" fill="#FFC7AD"/>
<path d="M394.796 282.413C394.076 281.621 393.14 280.972 391.987 280.468C391.627 280.324 391.266 280.18 391.05 279.892C390.906 279.676 390.762 279.388 390.69 279.171C390.186 278.019 389.105 277.226 388.025 276.65C383.918 274.345 378.875 274.273 374.265 274.921C372.68 275.137 371.095 275.425 369.654 276.074C367.997 276.794 366.484 277.875 365.187 279.099C363.314 280.828 361.513 282.918 360.505 285.295C360.073 286.448 359.928 287.6 359.64 288.753C359.352 289.762 359.712 290.986 360.577 291.635C360.937 291.923 361.369 292.067 361.729 292.355C363.314 293.436 363.603 295.885 364.251 297.47C364.683 298.479 365.548 299.055 365.764 300.208C365.98 301.36 365.98 302.585 366.34 303.738C366.484 304.314 366.844 304.89 367.421 304.89C367.637 304.89 367.853 304.818 368.069 304.674C368.717 304.242 369.078 303.521 369.294 302.729C369.51 302.009 369.654 301.216 370.086 300.568C370.158 300.496 370.23 300.352 370.302 300.352C370.374 300.352 370.519 300.352 370.591 300.352C371.383 300.496 371.887 301.072 372.32 301.792C372.752 302.585 373.04 303.521 373.256 304.386C373.616 305.827 373.688 306.979 373.832 308.42C374.049 309.861 374.409 311.374 375.417 312.455C377.651 314.904 381.973 314.76 384.855 314.112C385.935 313.895 386.944 313.607 387.953 313.175C390.186 312.094 391.771 309.933 393.14 307.916C394.436 306.043 395.805 304.17 396.453 301.936C396.814 300.712 397.03 299.415 397.174 298.118C397.966 292.931 398.543 286.304 394.796 282.413Z" fill="#FF9E48"/>
<path d="M371.816 297.974C374.697 297.326 375.994 300.856 374.409 303.953C373.977 304.89 373.04 305.754 372.32 306.547C367.709 311.806 365.692 307.123 367.133 305.394C370.519 301.288 368.142 298.766 371.816 297.974Z" fill="#FFC7AD"/>
<path d="M371.743 303.665C372.031 303.305 375.057 300.856 372.607 299.847C371.887 299.559 371.311 300.207 371.311 300.928C371.311 301.288 371.455 301.648 371.455 302.008C371.455 302.225 371.383 302.441 371.311 302.585C371.095 303.089 370.158 303.737 370.446 304.386C370.734 304.962 371.599 303.882 371.743 303.665Z" fill="#F3A984"/>
<path d="M372.895 322.108C374.84 321.46 376.93 321.46 378.947 321.676C380.46 321.82 381.9 321.964 383.413 321.964C384.926 321.892 386.439 321.676 387.664 320.955C388.961 320.235 389.969 319.01 390.257 317.569C391.266 318.29 392.058 319.226 392.418 320.379C392.779 321.532 392.707 322.828 392.13 323.909C391.266 325.494 389.897 326.43 388.24 327.151C386.583 327.943 384.71 328.448 382.837 328.664C379.883 329.024 376.858 328.592 374.192 327.439C373.328 327.079 372.535 326.647 371.671 326.358C371.166 326.214 370.662 326.07 370.086 326.07C369.798 326.07 369.077 326.286 368.861 325.998C368.573 325.566 369.365 324.629 369.653 324.341C370.014 323.837 370.518 323.405 371.022 323.044C371.527 322.684 372.175 322.324 372.895 322.108Z" fill="#F1F1F1"/>
<path d="M352.22 314.327C352.148 314.399 352.364 314.399 352.364 314.255C352.653 313.175 352.292 312.022 352.148 310.941C351.788 308.06 352.797 305.106 352.364 302.296C352.22 301.432 351.932 300.639 351.428 299.991C350.924 299.415 350.275 298.982 349.627 298.622C349.411 298.478 346.385 296.749 346.457 296.605C344.44 300.207 344.08 304.746 345.592 308.636L352.22 314.327Z" fill="#FFBF99"/>
<path d="M309.5 335.723L308.347 335.075C307.915 334.787 307.626 334.283 307.626 333.49L308.779 334.138C308.779 334.931 309.067 335.435 309.5 335.723Z" fill="#F4F4FB"/>
<mask id="mask25_3_10404" style="mask-type:luminance" maskUnits="userSpaceOnUse" x="307" y="333" width="3" height="3">
<path d="M309.5 335.723L308.347 335.075C307.915 334.787 307.626 334.283 307.626 333.49L308.779 334.138C308.779 334.931 309.067 335.435 309.5 335.723Z" fill="white"/>
</mask>
<g mask="url(#mask25_3_10404)">
<path d="M309.5 335.723L308.347 335.075C307.915 334.787 307.626 334.283 307.626 333.49L308.779 334.138C308.779 334.931 309.067 335.435 309.5 335.723Z" fill="#F4F4FB"/>
</g>
<path d="M308.778 334.139L307.626 333.49L307.554 310.149L308.706 310.869L308.778 334.139Z" fill="#F4F4FB"/>
<path d="M311.227 306.547L310.075 305.898L343.43 286.663L344.583 287.312L311.227 306.547Z" fill="#F4F4FB"/>
<path d="M308.707 310.87L307.554 310.221C307.554 308.636 308.635 306.763 310.004 305.971L311.156 306.619C309.86 307.339 308.707 309.285 308.707 310.87Z" fill="#F4F4FB"/>
<mask id="mask26_3_10404" style="mask-type:luminance" maskUnits="userSpaceOnUse" x="307" y="305" width="5" height="6">
<path d="M308.707 310.87L307.554 310.221C307.554 308.636 308.635 306.763 310.004 305.971L311.156 306.619C309.86 307.339 308.707 309.285 308.707 310.87Z" fill="white"/>
</mask>
<g mask="url(#mask26_3_10404)">
<path d="M308.707 310.869L307.554 310.221C307.554 309.644 307.698 308.996 307.986 308.348L309.139 308.996C308.923 309.572 308.707 310.221 308.707 310.869Z" fill="#F4F4FB"/>
<path d="M309.14 308.924L307.987 308.276C308.203 307.772 308.492 307.339 308.852 306.907L310.004 307.556C309.644 307.988 309.356 308.492 309.14 308.924Z" fill="#F4F4FB"/>
<path d="M310.004 307.628L308.851 306.979C309.211 306.547 309.644 306.187 310.076 305.899L311.229 306.547C310.796 306.835 310.364 307.195 310.004 307.628Z" fill="#F4F4FB"/>
</g>
<path d="M344.583 287.312C345.952 286.519 347.033 287.168 347.105 288.753L347.177 312.022C347.177 313.607 346.096 315.48 344.727 316.273L311.372 335.508C310.003 336.3 308.923 335.652 308.923 334.067L308.851 310.797C308.851 309.212 309.931 307.339 311.3 306.547L344.583 287.312Z" fill="#E3E2F2"/>
<path d="M345.736 312.022C345.736 313.102 344.872 314.543 343.935 315.119L310.58 334.354C310.364 334.499 310.292 334.499 310.22 334.499C310.22 334.427 310.148 334.282 310.148 334.066V333.85L310.076 310.797C310.076 309.716 310.94 308.276 311.877 307.699L344.944 288.608L345.232 288.392C345.448 288.392 345.592 288.32 345.592 288.32C345.592 288.392 345.664 288.536 345.664 288.68L345.736 312.022Z" fill="#98A4E0"/>
<path d="M345.015 311.734C345.015 312.814 344.151 314.255 343.214 314.832L310.147 333.923L310.075 310.869C310.075 309.789 310.94 308.348 311.876 307.772L344.943 288.681L345.015 311.734Z" fill="#F47300"/>
<path d="M345.159 286.448L346.312 287.096C345.879 286.808 345.231 286.88 344.583 287.24L343.43 286.592C344.078 286.231 344.727 286.231 345.159 286.448Z" fill="#F4F4FB"/>
<path d="M307.049 320.883C307.194 321.099 307.41 321.243 307.698 321.388C308.49 321.82 310.147 322.54 310.507 321.171C310.652 320.739 310.579 320.307 310.507 319.875C310.363 319.01 310.219 318.146 310.075 317.209C310.003 316.705 310.003 316.056 310.507 315.912C310.868 315.84 311.156 316.056 311.372 316.345C312.02 317.065 312.525 317.93 312.957 318.794C313.101 319.154 313.317 319.514 313.461 319.803C314.686 322.54 315.983 325.134 316.631 328.087C317.063 329.816 317.279 331.257 317.135 332.986C316.991 334.355 316.847 335.724 316.415 337.02C316.127 337.885 315.766 339.182 314.902 339.614C313.893 340.118 312.885 339.326 312.236 338.605C311.228 337.525 310.868 336.084 310.075 334.859C309.715 334.283 309.571 333.635 309.211 333.13C308.778 332.482 308.058 332.05 307.41 331.617C305.969 330.609 304.744 329.384 303.736 328.015C303.159 327.223 302.439 326.214 301.935 325.134C303.591 323.477 305.176 321.964 307.049 320.595C306.977 320.739 306.977 320.811 307.049 320.883Z" fill="#FFC7AD"/>
<path d="M353.66 333.707C356.47 331.761 359.856 330.249 363.026 331.689C364.322 332.266 365.331 333.346 366.195 334.499C368.429 337.525 370.086 340.983 369.797 344.801C369.725 345.521 369.653 346.242 369.365 346.962C368.357 349.484 365.979 350.204 363.818 351.357C361.153 352.653 358.631 354.094 356.038 355.607C350.923 358.561 345.88 361.659 340.405 363.892C337.235 365.189 333.489 366.197 330.391 364.828C328.23 363.892 326.645 361.875 326.212 359.569C325.132 354.022 329.31 352.726 329.887 352.293C347.753 338.749 354.092 333.418 353.66 333.707Z" fill="#E3E2F2"/>
<path d="M311.876 330.104C310.867 330.681 308.994 332.05 308.994 333.418C308.994 334.571 310.291 336.156 310.795 337.165C312.38 340.19 313.965 343.144 315.622 346.098C316.342 347.466 317.135 348.763 317.927 350.132C320.233 354.022 322.898 357.624 325.852 360.866C327.005 362.163 328.878 364.324 330.535 364.828C332.192 365.333 333.776 364.468 335.217 363.316C337.739 361.226 339.54 358.201 338.891 354.959C338.243 351.717 336.226 349.412 334.209 347.034C329.67 341.559 324.771 336.444 319.584 331.689C318.648 330.825 317.711 329.96 316.559 329.528C315.19 329.024 313.389 329.24 311.876 330.104Z" fill="#E3E2F2"/>
<path d="M343.07 305.827C343.791 307.844 344.295 310.005 344.439 312.166C344.511 313.103 344.511 313.967 344.727 314.832C345.16 316.489 346.456 317.714 347.825 318.722C348.473 319.154 349.266 319.731 350.13 319.515C349.914 318.938 349.842 318.362 349.914 317.714C349.986 316.921 350.347 316.201 350.851 315.624C351.283 315.192 351.931 314.976 352.22 314.472C352.724 313.391 352.004 312.382 351.643 311.374C351.283 310.293 351.355 309.141 350.923 308.06C350.779 307.772 350.635 307.412 350.419 307.195C350.202 306.979 349.77 306.835 349.482 306.979C348.978 307.195 348.906 307.916 348.834 308.42C348.834 308.492 348.834 308.636 348.762 308.708C348.546 308.852 348.257 308.636 348.113 308.42C347.393 307.34 346.745 306.187 346.024 305.106C345.448 304.242 345.016 303.161 344.151 302.585C344.007 302.513 343.863 302.441 343.719 302.369C343.647 302.369 343.647 302.369 343.647 302.369C343.214 302.441 342.998 302.801 342.926 303.233C342.566 304.17 342.71 305.034 343.07 305.827Z" fill="#FFBF99"/>
<path d="M349.986 315.625C350.851 314.112 352.219 312.959 353.588 312.743C354.813 312.527 356.11 312.743 357.334 312.959C357.622 313.031 357.839 313.031 358.127 313.103C358.703 316.849 357.695 320.668 355.605 323.837C354.669 323.261 353.732 322.757 352.796 322.18C351.859 321.604 349.914 320.956 349.338 319.947C348.617 318.794 349.41 316.633 349.986 315.625Z" fill="#E3E2F2"/>
<g opacity="0.4">
<path d="M0.297897 467.848L49.8624 496.52L66.5039 487.443L49.5742 440.112L0.297897 467.848Z" fill="#CCCBF6"/>
</g>
<path d="M108.142 389.107L99.7132 468.136L66.5022 487.443L66.6462 413.241L108.142 389.107Z" fill="#CCCBF6"/>
<path d="M66.646 413.241L66.5019 487.443L33.0747 468.136L24.862 389.107L66.646 413.241Z" fill="#98A4E0"/>
<path d="M108.142 389.107L66.6462 413.241L24.8623 389.107L66.3581 365.045L108.142 389.107Z" fill="#F4F4FB"/>
<path d="M31.9223 389.107L35.8846 391.413L41.72 394.727L41.864 394.871L46.2586 397.392L52.3821 400.994L54.6874 402.291L54.8315 402.363L55.696 402.867L56.8486 403.516L57.2809 403.804L57.9293 404.164L58.0733 404.236L61.6754 406.325L62.6119 406.83L66.5022 409.135H66.5742L67.6548 408.487L68.015 408.27L71.1849 406.469L74.7869 404.38L77.5245 402.795L77.9568 402.579L81.9911 400.202L89.9156 395.591L95.5349 392.349L101.082 389.107L97.3359 386.946L92.8693 384.353L85.7372 380.246L83.3599 378.878L81.7029 377.941L80.3341 377.149L73.9945 373.474L71.6892 372.178L71.401 372.034L68.2312 370.233L68.015 370.089L67.2946 369.656L66.2861 369.08L65.9979 369.224L61.1711 372.034L59.3701 373.114L57.6411 374.123L57.3529 374.267L55.696 375.276L55.0476 375.636L54.3272 376.068L53.6068 376.5L50.1488 378.517L44.5296 381.759L43.4489 382.408L42.3683 383.056L34.804 387.45L31.9223 389.107Z" fill="#12024B"/>
<path d="M40.1364 292.283C40.5686 298.046 41.4331 303.737 42.3697 309.429C43.3783 315.048 44.3868 320.667 45.1073 326.358C45.3954 328.447 45.6836 330.537 45.8277 332.554C46.6922 341.919 46.404 351.357 45.8997 360.794C45.5395 367.782 45.0352 374.77 44.675 381.758C44.603 383.343 44.5309 385 44.5309 386.585C44.4589 388.746 44.9632 393.357 46.1879 397.463L52.3114 401.065L54.6887 402.434L55.5532 402.938L56.7059 403.587L57.1381 403.875C57.6424 403.37 58.1467 402.578 58.5069 401.569C60.7402 395.806 60.38 383.775 60.5961 379.165C60.5961 378.876 60.5961 378.588 60.6682 378.372C60.8123 376.283 61.0284 374.194 61.1725 372.105C61.8208 363.604 62.109 355.175 62.037 346.674C62.037 339.182 61.6768 331.689 61.0284 324.197C60.4521 316.705 59.5876 309.284 58.4349 301.936C58.0026 299.343 57.5704 296.749 57.1381 294.156C55.9855 287.168 54.6887 280.18 53.8963 273.192C53.8242 272.832 53.7522 272.543 53.7522 272.183C52.7436 263.97 52.3834 255.686 53.32 247.473C54.9049 233.353 60.452 219.881 62.6133 205.761C55.2651 208.282 52.3114 216.855 50.3663 224.348C47.4846 235.154 44.6029 245.96 42.5858 256.91C41.4331 263.034 40.5686 269.157 40.1364 275.353C39.8482 280.972 39.7762 286.591 40.1364 292.283Z" fill="#AC7AD0"/>
<path d="M50.2941 378.444C50.2941 379.093 50.3662 379.669 50.3662 380.245C50.6543 384.063 51.2307 387.954 52.1672 391.7C52.9597 394.798 53.9682 397.751 55.337 400.561C55.4091 400.777 55.5531 400.921 55.6252 401.137C55.9854 401.93 56.4176 402.722 56.8499 403.443L57.2821 403.731L57.9305 404.091L58.0746 404.163L66.5755 409.134L67.6561 408.485L67.2959 406.829L66.1432 401.858C66.9357 397.031 67.512 392.204 67.8002 387.305C67.9442 385.432 68.0163 383.631 68.0883 381.758C68.0883 381.686 68.0883 381.614 68.0883 381.542C68.0883 381.47 68.0883 381.326 68.0883 381.254C68.2324 377.58 68.2324 373.906 68.2324 370.159C68.2324 368.719 68.2324 367.35 68.1604 365.909C68.1604 365.837 68.1604 365.765 68.1604 365.621C68.0883 362.379 67.9442 359.209 67.8002 355.967C67.8002 355.967 67.8002 355.967 67.8002 355.895C67.6561 351.933 67.3679 347.899 67.1518 343.936C66.8636 339.47 66.6475 335.075 66.3593 330.681C65.783 320.883 65.2067 311.014 64.6304 301.144C64.5583 299.991 64.4863 298.766 64.4142 297.542V297.47C64.1981 293.724 63.982 289.977 63.7658 286.303C62.7573 269.085 61.7487 251.868 60.7401 234.65C56.994 246.897 55.1209 259.576 54.0403 272.327C54.0403 272.543 54.0403 272.832 54.0403 273.048C53.536 278.667 53.3199 284.358 53.1758 289.977C53.1037 292.067 53.0317 294.084 53.0317 296.101C53.0317 297.614 53.0317 299.055 52.9596 300.495V300.64C52.7435 316.921 52.8876 333.202 51.7349 349.412C51.3027 355.391 50.7264 361.442 50.4382 367.494C50.15 371.24 50.15 374.842 50.2941 378.444Z" fill="#430075"/>
<path d="M68.0873 408.342L71.185 406.469L77.5247 402.794C80.1182 396.167 82.3514 388.458 83.0719 386.657C84.0084 384.496 84.8729 382.407 85.7374 380.246C88.2589 373.834 90.5642 367.35 92.3652 360.65C101.01 329.6 100.002 296.822 98.993 264.619C98.1285 237.82 97.3361 210.948 92.6534 184.509C88.8352 204.104 86.1696 223.916 84.5127 243.799C83.36 258.424 82.7116 273.048 80.7665 287.528C78.101 307.34 72.7699 326.719 69.9603 346.458C68.8077 354.239 68.0872 362.091 68.0152 369.944C68.0152 370.952 68.0152 371.961 68.0152 373.041C68.1593 379.597 65.926 399.12 68.0873 408.342Z" fill="#430075"/>
<path d="M99.2819 309.645C103.1 294.517 103.244 278.379 98.8497 263.395C97.6249 259.288 96.1121 255.182 95.3917 250.932C94.239 244.232 95.3196 237.244 98.2733 231.12C98.4894 230.688 98.7056 230.328 98.7056 229.824C98.7056 227.59 93.7347 233.137 93.2304 234.002C91.7175 236.595 90.781 239.549 90.2047 242.431C89.7004 244.952 89.4122 247.474 89.2681 250.067C88.9079 256.551 89.7004 263.107 89.9886 269.59C90.4208 279.028 88.6198 287.385 85.0898 296.03C81.4877 304.747 77.5974 313.464 75.6523 322.685C74.7878 326.863 74.2835 331.114 74.8599 335.292C75.2201 337.958 75.6523 347.251 78.9662 347.827C82.2801 348.404 86.1704 339.831 87.6112 337.381C92.7982 328.88 96.8325 319.443 99.2819 309.645Z" fill="#4F389E"/>
<path d="M76.3733 295.957C76.4453 267.284 76.5174 238.396 71.3304 210.228C68.7369 214.55 68.3047 219.737 67.9444 224.78C64.8467 270.238 61.6769 315.768 58.5791 361.226C58.1468 367.926 57.6425 374.626 57.4264 381.398C57.3544 384.712 55.3372 398.616 57.7146 400.921C64.2703 407.189 69.8896 379.453 70.61 376.067C76.2292 349.7 76.3012 322.684 76.3733 295.957Z" fill="#9200FF"/>
<path d="M69.8172 392.204C70.3936 386.009 67.1517 380.173 64.0539 374.77C59.7314 367.206 55.4089 359.569 51.951 351.501C43.306 331.257 40.1362 308.708 42.9458 286.88C38.6233 297.686 34.1568 308.852 34.0127 320.523C33.9406 327.439 35.3094 334.211 36.8223 340.911C39.4158 352.87 42.2974 364.756 47.2683 375.923C49.0693 379.957 51.1585 383.919 54.5445 386.801C57.8584 389.683 62.6851 391.196 66.7915 389.611C67.0797 389.467 67.3678 389.322 67.4399 389.034C67.5119 388.746 67.0076 388.458 66.8635 388.746L69.8172 392.204Z" fill="#9200FF"/>
<path d="M78.2459 398.04C78.5341 398.4 78.8943 398.76 79.2545 399.048C79.9749 399.553 80.8394 399.985 81.992 400.129L89.9166 395.518L95.5358 392.276C96.2562 390.619 96.8326 388.818 97.3369 386.873C99.354 379.165 99.282 370.088 99.0658 365.045C98.6336 355.319 97.1928 345.377 97.4089 335.724C97.4809 331.762 97.8411 327.943 98.6336 324.125C98.9938 322.108 99.5701 320.163 100.219 318.29C102.524 311.878 106.27 306.115 109.368 300.063C123.128 273.192 122.335 239.477 107.423 213.254C104.901 230.183 113.042 247.329 110.953 264.331C109.872 273.048 106.198 281.045 102.092 288.897C101.299 290.41 100.435 291.923 99.6422 293.508C95.4638 301.288 91.2854 309.141 89.1962 317.57C87.5392 324.269 87.251 331.185 87.179 338.101C87.179 342.424 87.179 346.818 87.107 351.141C86.9629 358.057 86.4586 364.901 84.2974 371.456C84.0092 372.465 83.4329 373.69 82.7845 375.203C82.4243 375.995 81.9921 376.932 81.6318 377.868C78.8222 384.784 75.2202 393.861 78.2459 398.04Z" fill="#9200FF"/>
<path d="M30.6989 341.343C31.3472 343.072 32.0676 344.801 32.788 346.53C35.5977 353.23 38.5514 359.857 40.5685 366.773C41.5771 370.159 42.3696 373.545 42.7298 377.075C42.8018 377.652 42.8018 378.444 42.7298 379.237C42.7298 380.317 42.6577 381.542 42.5136 382.911C42.2255 386.441 41.6491 390.763 41.5771 394.726L41.7212 394.87L46.1157 397.391L52.2392 400.993L54.6166 402.362C54.8327 402.146 55.0488 401.858 55.1929 401.569C55.265 401.497 55.337 401.353 55.409 401.209C55.9133 400.417 56.3456 399.552 56.6337 398.688C57.9305 395.158 57.9305 390.835 57.2821 386.585C57.2101 386.008 57.138 385.432 56.9939 384.928C56.4176 382.118 55.6252 379.453 54.6886 377.075C54.5445 376.715 54.4725 376.427 54.3284 376.067C53.9682 375.058 53.536 374.05 53.1037 373.185C52.2392 371.312 51.2306 369.511 50.15 367.71C48.7812 365.405 47.2684 363.099 45.7555 360.794C44.0265 358.129 42.2975 355.463 40.7846 352.725C40.6406 352.437 40.4965 352.149 40.3524 351.933C37.2546 346.098 35.1654 339.758 34.0128 333.202C32.5719 325.062 32.788 316.705 34.5891 308.636C35.2375 305.682 35.1654 301.144 32.0676 300.928C30.1225 300.784 28.7537 302.801 27.9613 304.602C23.2066 316.2 26.1603 329.6 30.6989 341.343Z" fill="#AC7AD0"/>
<path d="M62.8291 399.552C62.8291 401.065 62.541 402.578 62.4689 404.091C62.4689 405.027 62.4689 405.892 62.613 406.828L66.5753 409.134L67.6559 408.485L71.1859 406.468C71.5461 405.532 71.8343 404.667 72.0504 403.659C72.3386 402.722 72.5547 401.641 72.9149 400.705C72.9149 400.633 72.987 400.561 72.987 400.489C73.4192 399.48 73.8514 398.4 74.2116 397.391C76.0127 392.564 77.5976 387.737 78.8943 382.767C79.3986 380.893 79.9029 379.02 80.2631 377.147C82.7125 366.557 83.9372 355.679 84.0093 344.801C84.0093 339.398 83.7932 333.922 82.4964 328.663C79.9029 317.785 73.059 309.573 65.4226 302.008C65.9989 304.53 66.5753 307.051 66.9355 309.573C70.2494 329.312 68.9526 349.411 65.9989 369.223C65.3506 373.545 64.6302 377.868 63.8377 382.118C63.1893 385.504 62.4689 389.394 62.3248 393.213C62.2528 393.068 62.1087 393.285 62.0367 393.429C62.1087 395.518 62.7571 397.535 62.8291 399.552Z" fill="#AC7AD0"/>
<path d="M32.5715 251.723C40.3519 257.991 47.7722 265.051 53.6075 273.264C59.7311 281.909 63.189 291.778 65.5664 302.008C60.9558 297.398 55.9849 293.075 51.5184 288.393C46.6195 283.35 42.9454 277.586 39.8476 271.247C38.2627 268.005 36.8219 264.691 35.5972 261.305C35.0209 259.648 34.4445 257.991 33.9402 256.334C33.6521 255.542 33.2919 252.3 32.5715 251.723Z" fill="#AC7AD0"/>
<path d="M52.3824 400.994L54.7597 402.363L55.6242 402.867L56.7769 403.515L57.2091 403.803L57.8575 404.164C58.4338 403.515 59.0102 402.723 59.5145 401.786C60.451 400.201 61.3875 398.256 62.3241 396.167C62.6843 395.375 63.0445 394.582 63.3327 393.718C65.3498 388.819 67.1508 383.704 68.0153 381.399V381.326C68.0874 381.11 68.1594 380.894 68.2315 380.678C69.096 378.445 70.0325 376.284 70.897 374.05C71.1131 373.474 71.3292 372.898 71.5454 372.249C74.5711 364.253 77.3807 356.112 79.9742 347.899C81.2709 343.937 82.4956 340.047 83.5763 336.085C84.801 331.762 86.0257 327.44 87.1063 323.045C89.7718 312.599 92.0771 302.009 92.0771 291.275C92.0771 286.88 91.717 282.486 91.1406 278.019C88.8353 259.937 83.2881 241.854 88.1869 224.492C87.3224 226.293 86.4579 228.095 85.7375 229.968C82.6397 237.604 80.7667 245.745 80.1903 254.029C79.614 262.242 80.3344 270.455 79.614 278.668C79.1097 284.503 77.7409 290.266 76.156 295.957C75.1474 299.488 74.1389 303.018 73.0582 306.548C72.7701 307.556 72.4099 308.565 72.1217 309.645C70.825 314.04 69.5282 318.434 68.3035 322.901C67.511 325.566 66.7907 328.232 66.0702 330.898C64.5574 336.229 63.1886 341.488 61.8198 346.819C60.8112 350.637 59.8747 354.527 58.9381 358.417C58.9381 358.489 58.9381 358.489 58.9381 358.561C58.722 359.426 58.5059 360.29 58.2898 361.155C58.2898 361.155 58.2898 361.155 58.2898 361.227C57.2091 365.549 56.2006 369.872 55.264 374.194C55.1199 374.771 54.9758 375.347 54.9038 375.923C54.7597 376.356 54.6877 376.86 54.5436 377.292C54.1114 379.237 53.6791 381.11 53.2469 383.128C52.8867 384.568 52.2383 388.17 51.806 392.061C51.8781 394.942 51.806 398.328 52.3824 400.994Z" fill="#7C2FBF"/>
<path d="M77.9585 402.578L81.9928 400.201L89.9173 395.59C91.5022 392.492 92.5829 389.179 92.799 385.649C92.799 385.216 92.871 384.784 92.871 384.352C92.871 381.542 92.4388 378.733 91.9345 375.995C90.4216 367.35 89.269 359.93 93.0151 351.645C95.1764 346.89 97.6258 341.775 96.6892 336.588C92.2227 342.856 87.8281 349.196 84.8744 356.328C82.4971 362.163 80.4079 369.727 81.7766 376.067C82.353 378.588 83.6497 380.462 83.9379 383.127C84.2981 386.513 84.2981 390.043 82.9293 393.213C81.9928 395.302 80.4079 397.031 79.2552 399.048C78.967 399.553 78.7509 400.057 78.4628 400.561C78.3187 401.065 78.1025 401.786 77.9585 402.578Z" fill="#7C2FBF"/>
<path d="M32.0673 357.768C31.9952 366.701 32.9318 375.635 34.5167 384.352C34.6607 385 34.8048 386.081 35.021 387.377C35.165 388.674 35.4532 390.115 35.8854 391.484L41.7208 394.798L41.8649 394.942C43.3778 393.285 44.3143 390.475 44.4584 388.962C44.6025 386.729 44.2423 384.568 43.6659 382.334C43.4498 381.326 43.1616 380.317 42.8014 379.237C42.8014 379.021 42.7294 378.876 42.6573 378.66C41.6488 374.77 40.9283 370.808 40.5681 366.846C40.1359 361.587 39.7036 356.76 40.7122 351.501C41.7928 345.737 43.5939 340.19 44.9627 334.571C47.9164 322.54 48.8529 310.005 47.7002 297.686C44.0982 307.844 39.7757 317.713 36.5338 328.015C33.5081 337.597 32.2113 347.683 32.0673 357.768Z" fill="#4F389E"/>
<path d="M66.5745 409.135L67.7272 408.486L68.0874 408.27L71.1852 406.469L74.7872 404.38C76.228 397.824 76.156 391.124 75.5076 384.496C75.1474 380.822 74.5711 377.148 73.9948 373.474C73.3464 369.224 72.698 364.973 72.1937 360.795C70.897 348.692 71.5454 336.517 73.3464 324.486C72.8421 326.431 72.0496 328.304 71.4013 330.249C67.1508 342.856 67.6551 356.328 67.2949 369.656C67.2229 373.474 67.0788 377.364 66.7186 381.182C65.9261 390.548 63.909 400.129 66.5745 409.135Z" fill="#4F389E"/>
<path d="M248.913 448.037L248.841 461.364C248.841 455.457 252.803 449.622 260.583 445.227C276.072 436.438 300.999 436.582 316.271 445.587C323.836 450.054 327.654 455.889 327.654 461.652V448.253C327.654 442.417 323.908 436.654 316.271 432.188C300.999 423.182 276.072 423.038 260.583 431.827C252.803 436.294 248.913 442.129 248.913 448.037Z" fill="#4F389E"/>
<mask id="mask27_3_10404" style="mask-type:luminance" maskUnits="userSpaceOnUse" x="248" y="425" width="80" height="37">
<path d="M248.913 448.037L248.841 461.364C248.841 455.457 252.803 449.622 260.583 445.227C276.072 436.438 300.999 436.582 316.271 445.587C323.836 450.054 327.654 455.889 327.654 461.652V448.253C327.654 442.417 323.908 436.654 316.271 432.188C300.999 423.182 276.072 423.038 260.583 431.827C252.803 436.294 248.913 442.129 248.913 448.037Z" fill="white"/>
</mask>
<g mask="url(#mask27_3_10404)">
<path d="M248.913 448.037L248.841 461.364C248.841 455.457 252.803 449.622 260.583 445.227C276.072 436.438 300.999 436.582 316.271 445.587C323.836 450.054 327.654 455.889 327.654 461.652V448.253C327.654 442.417 323.908 436.654 316.271 432.188C300.999 423.182 276.072 423.038 260.583 431.827C252.803 436.294 248.913 442.129 248.913 448.037Z" fill="#1F0159"/>
</g>
<path d="M242.141 447.965V458.627C242.141 465.399 246.535 472.243 255.396 477.43C273.262 487.948 302.439 488.164 320.594 477.862C329.743 472.675 334.281 465.831 334.354 458.915V448.253C334.354 455.169 329.743 462.013 320.594 467.2C302.439 477.502 273.262 477.358 255.396 466.768C246.535 461.581 242.141 454.809 242.141 447.965Z" fill="#4F389E"/>
<mask id="mask28_3_10404" style="mask-type:luminance" maskUnits="userSpaceOnUse" x="242" y="447" width="93" height="39">
<path d="M242.141 447.965V458.627C242.141 465.399 246.535 472.243 255.396 477.43C273.262 487.948 302.439 488.164 320.594 477.862C329.743 472.675 334.281 465.831 334.354 458.915V448.253C334.354 455.169 329.743 462.013 320.594 467.2C302.439 477.502 273.262 477.358 255.396 466.768C246.535 461.581 242.141 454.809 242.141 447.965Z" fill="white"/>
</mask>
<g mask="url(#mask28_3_10404)">
<path d="M242.141 447.965V458.627C242.141 465.399 246.535 472.243 255.396 477.43C273.262 487.948 302.439 488.164 320.594 477.862C329.743 472.675 334.281 465.831 334.354 458.915V448.253C334.354 455.169 329.743 462.013 320.594 467.2C302.439 477.502 273.262 477.358 255.396 466.768C246.535 461.581 242.141 454.809 242.141 447.965Z" fill="#1F0159"/>
</g>
<path d="M255.9 429.09C237.746 439.392 237.602 456.322 255.468 466.84C273.334 477.358 302.511 477.574 320.665 467.272C338.82 456.97 338.964 440.04 321.098 429.522C303.231 418.932 274.055 418.716 255.9 429.09ZM315.911 464.462C300.422 473.251 275.495 473.107 260.223 464.102C244.95 455.097 245.094 440.689 260.583 431.828C276.072 423.039 300.998 423.183 316.271 432.188C331.616 441.193 331.4 455.673 315.911 464.462Z" fill="#4F389E"/>
<path opacity="0.4" d="M249.201 451.062C250.281 455.817 253.955 460.428 260.223 464.102C275.496 473.107 300.422 473.251 315.911 464.462C322.323 460.788 326.141 456.177 327.293 451.422C326.213 446.668 322.539 442.057 316.271 438.383C300.998 429.378 276.072 429.234 260.583 438.023C254.171 441.625 250.353 446.235 249.201 451.062Z" fill="#E3E2F2"/>
<path d="M224.563 484.778L253.307 468.208C253.955 467.848 254.964 467.848 255.973 468.496L227.228 485.066C226.22 484.418 225.283 484.346 224.563 484.778Z" fill="#E3E2F2"/>
<mask id="mask29_3_10404" style="mask-type:luminance" maskUnits="userSpaceOnUse" x="224" y="467" width="32" height="19">
<path d="M224.563 484.778L253.307 468.208C253.955 467.848 254.964 467.848 255.973 468.496L227.228 485.066C226.22 484.418 225.283 484.346 224.563 484.778Z" fill="white"/>
</mask>
<g mask="url(#mask29_3_10404)">
<path d="M224.563 484.778L253.307 468.208C253.955 467.848 254.964 467.848 255.973 468.496L227.228 485.066C226.22 484.418 225.283 484.346 224.563 484.778Z" fill="#E3E2F2"/>
</g>
<path d="M258.566 477.358L229.822 493.927C230.47 493.567 230.902 492.702 230.902 491.55C230.902 489.172 229.245 486.291 227.228 485.066L255.973 468.497C258.062 469.721 259.719 472.603 259.647 474.98C259.647 476.133 259.214 476.925 258.566 477.358Z" fill="#E3E2F2"/>
<mask id="mask30_3_10404" style="mask-type:luminance" maskUnits="userSpaceOnUse" x="227" y="468" width="33" height="26">
<path d="M258.566 477.358L229.822 493.927C230.47 493.567 230.902 492.702 230.902 491.55C230.902 489.172 229.245 486.291 227.228 485.066L255.973 468.497C258.062 469.721 259.719 472.603 259.647 474.98C259.647 476.133 259.214 476.925 258.566 477.358Z" fill="white"/>
</mask>
<g mask="url(#mask30_3_10404)">
<path d="M227.228 484.994L255.973 468.424C258.062 469.649 259.719 472.531 259.647 474.908C259.647 476.061 259.214 476.925 258.566 477.286L229.822 493.855C230.47 493.495 230.902 492.63 230.902 491.478C230.974 489.1 229.317 486.219 227.228 484.994Z" fill="#E3E2F2"/>
</g>
<path d="M227.228 484.994C229.317 486.219 230.974 489.101 230.902 491.478C230.902 493.855 229.173 494.792 227.156 493.567C225.067 492.342 223.41 489.461 223.482 487.083C223.482 484.778 225.139 483.842 227.228 484.994Z" fill="#E3E2F2"/>
<path d="M171.757 507.903L234.937 473.828C236.162 473.107 237.891 473.251 239.836 474.332L177.592 508.48C175.359 507.183 173.27 507.039 171.757 507.903Z" fill="#FFA200"/>
<mask id="mask31_3_10404" style="mask-type:luminance" maskUnits="userSpaceOnUse" x="171" y="473" width="69" height="36">
<path d="M171.757 507.903L234.937 473.828C236.162 473.107 237.891 473.251 239.836 474.332L177.592 508.48C175.359 507.183 173.27 507.039 171.757 507.903Z" fill="white"/>
</mask>
<g mask="url(#mask31_3_10404)">
<path d="M171.757 507.903L234.937 473.828C236.162 473.107 237.891 473.251 239.836 474.332L177.592 508.48C175.359 507.183 173.27 507.039 171.757 507.903Z" fill="#F47300"/>
</g>
<path d="M244.59 490.614L183.283 528.003C184.796 527.139 185.66 525.338 185.732 522.744C185.805 517.485 182.13 511.145 177.592 508.48L239.836 474.332C243.582 476.566 246.607 481.825 246.607 486.219C246.607 488.38 245.815 489.893 244.59 490.614Z" fill="#F47300"/>
<mask id="mask32_3_10404" style="mask-type:luminance" maskUnits="userSpaceOnUse" x="177" y="474" width="70" height="55">
<path d="M244.59 490.614L183.283 528.003C184.796 527.139 185.66 525.338 185.732 522.744C185.805 517.485 182.13 511.145 177.592 508.48L239.836 474.332C243.582 476.566 246.607 481.825 246.607 486.219C246.607 488.38 245.815 489.893 244.59 490.614Z" fill="white"/>
</mask>
<g mask="url(#mask32_3_10404)">
<path d="M185.732 522.744C185.805 517.485 182.13 511.145 177.592 508.48L239.836 474.332C243.582 476.566 246.607 481.825 246.607 486.219L185.732 522.744Z" fill="#F47300"/>
<path d="M246.607 486.219C246.607 488.381 245.815 489.893 244.59 490.614L183.283 528.003C184.796 527.139 185.66 525.338 185.732 522.744L246.607 486.219Z" fill="#F47300"/>
</g>
<path d="M177.592 508.48C182.131 511.146 185.733 517.485 185.733 522.744C185.661 527.931 181.987 530.02 177.448 527.427C172.91 524.761 169.307 518.422 169.307 513.163C169.38 507.904 173.126 505.814 177.592 508.48Z" fill="#FFA200"/>
<defs>
<linearGradient id="paint0_linear_3_10404" x1="215.651" y1="459.078" x2="194.972" y2="173.699" gradientUnits="userSpaceOnUse">
<stop offset="0.00017593" stop-color="#4422A1"/>
<stop offset="0.1164" stop-color="#4A239F"/>
<stop offset="0.2667" stop-color="#5A2699"/>
<stop offset="0.4357" stop-color="#742B90"/>
<stop offset="0.6185" stop-color="#9A3283"/>
<stop offset="0.81" stop-color="#C93A72"/>
<stop offset="1" stop-color="#FF445F"/>
</linearGradient>
</defs>
</svg>
