<svg width="431" height="516" viewBox="0 0 431 516" fill="none" xmlns="http://www.w3.org/2000/svg">
<path d="M264.139 501.855L153.127 437.828L230.112 394.929L230.812 396.271L156.221 437.886L264.897 500.571L264.139 501.855Z" fill="#F47300"/>
<path d="M105.153 437.828L104.803 437.594L26.8267 392.594L27.5854 391.252L105.153 436.077L212.196 373.859L212.954 375.143L105.153 437.828Z" fill="#F47300"/>
<path d="M218.295 388.228L85.4941 464.997L86.2537 466.31L219.054 389.541L218.295 388.228Z" fill="#F47300"/>
<path d="M154.062 512.594L153.304 511.252L198.537 484.987L155.171 459.948L245.871 407.361L246.63 408.645L158.206 459.948L201.572 484.987L154.062 512.594Z" fill="#F47300"/>
<path d="M5.81149 434.092L5.05273 432.75L69.6634 396.038L110.928 420.085C131.881 407.711 198.126 368.49 199.76 368.256L199.877 369.015L200.052 369.774C197.659 370.591 135.208 407.478 111.278 421.602L110.87 421.836L69.605 397.789L5.81149 434.092Z" fill="#F47300"/>
<path d="M90.5611 462.983C87.993 461.466 83.7907 461.407 81.1642 462.925C78.5378 464.384 78.5378 466.835 81.1058 468.353C83.6739 469.87 87.8762 469.929 90.5027 468.411C93.1291 466.952 93.1291 464.501 90.5611 462.983Z" fill="#F47300"/>
<path d="M338.012 423.072L205.212 499.841L205.971 501.155L338.772 424.386L338.012 423.072Z" fill="#F47300"/>
<path d="M210.268 497.828C207.7 496.31 203.498 496.252 200.871 497.769C198.245 499.228 198.245 501.68 200.813 503.197C203.381 504.715 207.583 504.773 210.21 503.256C212.836 501.796 212.836 499.345 210.268 497.828Z" fill="#F47300"/>
<path d="M268.049 498.586C265.481 497.069 261.279 497.011 258.652 498.528C256.026 499.987 256.026 502.439 258.594 503.956C261.162 505.474 265.365 505.532 267.991 504.014C270.559 502.497 270.617 500.104 268.049 498.586Z" fill="#F47300"/>
<path d="M31.9615 389.092C29.3934 387.575 25.191 387.517 22.5646 389.034C19.9381 390.493 19.9381 392.945 22.5062 394.462C25.0743 395.98 29.2766 396.038 31.9031 394.52C34.4712 393.061 34.5295 390.61 31.9615 389.092Z" fill="#F47300"/>
<path d="M106.084 401.641L105.676 401.408L27.7578 356.408L28.5166 355.065L106.084 399.89L213.068 337.672L213.827 338.957L106.084 401.641Z" fill="#F47300"/>
<path d="M32.8369 352.906C30.2689 351.388 26.0665 351.33 23.4401 352.847C20.8136 354.306 20.8136 356.758 23.3817 358.275C25.9498 359.793 30.1521 359.851 32.7786 358.334C35.405 356.875 35.405 354.423 32.8369 352.906Z" fill="#F47300"/>
<path d="M12.0586 429.773C9.49054 428.256 5.28822 428.198 2.66177 429.715C0.0353149 431.233 0.0353147 433.626 2.6034 435.143C5.17148 436.661 9.37381 436.719 12.0003 435.201C14.6267 433.742 14.6267 431.291 12.0586 429.773Z" fill="#F47300"/>
<path d="M158.38 509.267C155.812 507.75 151.61 507.691 148.984 509.209C146.357 510.668 146.357 513.119 148.925 514.637C151.493 516.154 155.696 516.213 158.322 514.695C160.948 513.178 160.948 510.785 158.38 509.267Z" fill="#F47300"/>
<path d="M430.832 103.101L420.618 97.2065C419.8 99.8913 418.691 102.284 417.349 104.269L424.236 116.292L409.528 124.755L402.524 112.557C400.014 112.673 397.33 112.382 394.528 111.623L394.47 122.712L373.75 110.689L373.808 99.1909C371.065 96.6228 368.439 93.7629 366.046 90.6695L359.1 94.6384L344.567 69.191L351.921 65.047C350.696 61.5451 349.703 57.9848 349.061 54.4829L338.906 48.5879L339.081 24.7164L349.82 30.9615C350.637 28.5102 351.746 26.3507 353.089 24.5413L345.735 11.5842L360.501 3.29626L368.205 16.8371C370.482 16.7787 372.875 17.1289 375.443 17.7709L375.559 5.45579L396.279 17.5958L396.162 30.2028C398.672 32.5374 401.065 35.1639 403.283 37.907L410.87 33.7047L425.345 59.2105L417.758 63.4128C418.983 66.6813 419.917 70.0081 420.618 73.3349L430.832 79.2299V103.101ZM384.431 92.8874C397.563 100.475 408.302 94.2882 408.302 79.1131C408.361 63.8797 397.738 45.4362 384.548 37.7903C371.415 30.2028 360.676 36.3895 360.676 51.5646C360.618 66.7396 371.299 85.2415 384.431 92.8874Z" fill="#F47300"/>
<path d="M345.21 95.28L338.381 91.3695C337.856 93.1788 337.097 94.7547 336.221 96.0971L340.832 104.093L331.027 109.755L326.358 101.642C324.665 101.7 322.914 101.525 321.046 101L320.988 108.412L307.155 100.416L307.214 92.7119C305.404 90.9609 303.653 89.0932 302.019 87.0504L297.408 89.6769L287.72 72.6925L292.622 69.8909C291.805 67.5563 291.163 65.1633 290.696 62.8287L283.926 58.8598L284.043 42.926L291.221 47.1284C291.805 45.4941 292.506 44.035 293.439 42.8093L288.42 34.1128L298.284 28.5681L303.42 37.6148C304.937 37.6148 306.572 37.7899 308.264 38.2568L308.323 30.0273L322.155 38.1401L322.097 46.5447C323.789 48.1206 325.365 49.8715 326.883 51.6809L331.961 48.8793L341.591 65.8637L336.513 68.6653C337.33 70.8831 337.972 73.101 338.439 75.2606L345.268 79.1711L345.21 95.28ZM314.626 83.7236C321.338 87.6341 326.824 84.424 326.824 76.6613C326.824 68.8987 321.396 59.4435 314.684 55.533C307.972 51.6225 302.486 54.8326 302.486 62.5952C302.428 70.3579 307.856 79.8131 314.626 83.7236Z" fill="#F47300"/>
<path d="M378.887 143.257L374.859 140.922C374.568 141.973 374.101 142.907 373.575 143.724L376.319 148.51L370.482 151.837L367.68 146.992C366.688 147.051 365.638 146.934 364.529 146.642V151.019L356.299 146.233V141.681C355.19 140.63 354.198 139.521 353.206 138.296L350.463 139.872L344.684 129.774L347.603 128.14C347.136 126.739 346.727 125.339 346.435 123.938L342.408 121.603L342.467 112.09L346.727 114.599C347.077 113.607 347.486 112.79 348.011 112.031L345.093 106.895L350.988 103.568L354.081 108.938C354.957 108.938 355.949 109.055 356.941 109.288L357 104.385L365.229 109.23L365.171 114.249C366.163 115.183 367.097 116.234 368.031 117.343L371.066 115.65L376.786 125.747L373.751 127.44C374.217 128.724 374.626 130.066 374.918 131.35L378.945 133.685L378.887 143.257Z" fill="#F47300"/>
<path d="M266.24 151.136C266.24 147.051 264.139 142.557 261.513 141.039L260.345 140.339C259.295 139.755 258.302 139.697 257.544 140.164C254.8 141.798 252.116 144.483 250.131 147.926C248.147 151.253 246.804 155.222 246.921 159.716C246.979 160.592 247.505 161.409 248.439 161.934L249.606 162.634C249.606 162.167 249.548 161.7 249.606 161.175C249.606 161.642 249.606 162.167 249.606 162.634C252.232 164.152 257.193 163.568 260.695 161.35C260.462 157.615 263.03 153.004 266.24 151.136Z" fill="#F4F4FB"/>
<path d="M253.809 227.478C253.633 227.362 253.4 227.245 253.225 227.07C252.933 226.836 252.524 226.544 252.233 226.253C251.416 225.377 251.24 225.202 250.657 224.093C250.482 223.743 250.132 222.926 249.956 222.284C249.723 221.467 249.665 221.116 249.548 219.774C249.606 220.65 250.131 221.467 251.065 222.05C251.182 224.677 252.233 226.544 253.809 227.478Z" fill="#BFBEED"/>
<mask id="mask0_3_9876" style="mask-type:luminance" maskUnits="userSpaceOnUse" x="249" y="219" width="5" height="9">
<path d="M253.809 227.478C253.633 227.362 253.4 227.245 253.225 227.07C252.933 226.836 252.524 226.544 252.233 226.253C251.416 225.377 251.24 225.202 250.657 224.093C250.482 223.743 250.132 222.926 249.956 222.284C249.723 221.467 249.665 221.116 249.548 219.774C249.606 220.65 250.131 221.467 251.065 222.05C251.182 224.677 252.233 226.544 253.809 227.478Z" fill="white"/>
</mask>
<g mask="url(#mask0_3_9876)">
<path d="M253.81 227.478C251.125 225.727 249.783 223.393 249.491 219.774C249.55 220.65 250.075 221.467 251.009 222.05C251.184 224.677 252.234 226.544 253.81 227.478Z" fill="#BFBEED"/>
</g>
<path d="M254.977 228.12L253.81 227.42C252.234 226.486 251.183 224.618 251.066 221.992L252.234 222.692C252.409 225.377 253.401 227.245 254.977 228.12Z" fill="#BFBEED"/>
<mask id="mask1_3_9876" style="mask-type:luminance" maskUnits="userSpaceOnUse" x="251" y="221" width="4" height="8">
<path d="M254.977 228.12L253.81 227.42C252.234 226.486 251.183 224.618 251.066 221.992L252.234 222.692C252.409 225.377 253.401 227.245 254.977 228.12Z" fill="white"/>
</mask>
<g mask="url(#mask1_3_9876)">
<path d="M254.977 228.12L253.81 227.42C252.234 226.486 251.183 224.618 251.066 221.992L252.234 222.692C252.409 225.377 253.401 227.245 254.977 228.12Z" fill="#BFBEED"/>
</g>
<path d="M272.837 214.113C272.02 224.385 262.156 232.148 255.035 228.121C253.459 227.187 252.409 225.319 252.292 222.693C254.918 224.21 259.88 223.568 263.381 221.292C263.498 223.159 264.841 223.801 266.533 222.868C268.226 221.875 269.568 219.658 269.627 217.848C271.611 216.739 272.72 215.338 272.837 214.113Z" fill="#98A4E0"/>
<path d="M269.568 217.79L271.845 154.755C273.887 153.704 274.996 152.362 275.055 151.136L274.938 154.288L274.821 157.44L274.705 160.592L274.588 163.743L274.471 166.895L274.354 170.047L274.238 173.199L274.121 176.35L274.004 179.502L273.887 182.654L273.771 185.805L273.654 188.957L273.537 192.109L273.42 195.261L273.304 198.412L273.187 201.564L273.07 204.716L272.954 207.868L272.837 211.019L272.72 214.171C272.778 215.338 271.67 216.739 269.568 217.79Z" fill="#98A4E0"/>
<path d="M248.438 161.934L251.064 222.05C250.072 221.467 249.547 220.65 249.547 219.716L249.43 216.739L249.313 213.763L249.196 210.786L249.08 207.809L248.963 204.833L248.846 201.856L248.613 198.704L248.496 195.728L248.379 192.751L248.263 189.774L248.146 186.798L248.029 183.821L247.912 180.844L247.796 177.868L247.679 174.891L247.562 171.914L247.446 168.938L247.329 165.961L247.212 162.984L247.095 160.008C246.92 160.533 247.446 161.35 248.438 161.934Z" fill="#E3E2F2"/>
<path d="M260.462 140.339C260.404 140.339 260.287 140.339 260.229 140.339C259.237 139.813 258.303 139.755 257.544 140.222C257.836 140.047 258.186 139.872 258.478 139.697C258.886 139.522 259.353 139.288 259.762 139.113L260.696 138.763C261.104 138.646 261.688 138.529 262.096 138.413L263.03 138.296C263.497 138.296 264.081 138.238 264.548 138.238L265.423 138.296C265.89 138.354 266.474 138.529 266.941 138.646L267.758 138.938C268.05 139.113 268.517 139.288 268.809 139.463C266.707 138.296 263.731 138.413 260.462 140.339Z" fill="#E3E2F2"/>
<path d="M252.233 222.693L251.066 222.051L248.439 161.934L249.607 162.635L252.233 222.693Z" fill="#E3E2F2"/>
<path d="M261.514 141.039L260.229 140.281C263.556 138.413 266.708 138.238 268.868 139.522L270.035 140.222C267.875 138.997 264.899 139.113 261.63 140.981L261.514 141.039Z" fill="#CCCBF6"/>
<path d="M266.242 151.136C269.452 149.269 272.02 150.961 271.845 154.755C271.086 175.883 270.327 196.836 269.568 217.79C269.452 219.599 268.109 221.875 266.475 222.809C264.841 223.743 263.44 223.101 263.323 221.233C262.448 201.331 261.572 181.311 260.697 161.292C260.463 157.615 263.032 153.004 266.242 151.136Z" fill="#BFBEED"/>
<path d="M260.697 161.35L263.323 221.292C259.821 223.568 254.802 224.21 252.234 222.693L249.607 162.576C252.234 164.094 257.195 163.568 260.697 161.35Z" fill="#E3E2F2"/>
<path d="M246.864 159.658C246.864 159.307 246.805 158.899 246.864 158.549C246.864 158.14 246.864 157.615 246.922 157.206C246.981 156.564 247.097 155.689 247.214 154.988C247.272 154.638 247.389 154.113 247.506 153.763C247.681 153.004 248.265 150.961 249.665 148.452C250.716 146.467 252.117 144.774 252.934 143.841C253.693 143.024 255.152 141.506 257.545 140.105C258.303 139.638 259.296 139.697 260.346 140.28C253.401 144.249 247.973 154.171 248.44 161.817C247.447 161.35 246.922 160.592 246.864 159.658Z" fill="#F4F4FB"/>
<path d="M260.696 161.35C257.194 163.568 252.175 164.152 249.607 162.634C249.14 154.93 254.626 145.066 261.513 141.098C264.14 142.615 266.241 147.109 266.241 151.195C263.031 153.004 260.463 157.615 260.696 161.35Z" fill="#F4F4FB"/>
<path d="M275.055 149.327C275.055 148.86 274.997 148.276 274.88 147.809C274.588 146.117 274.238 145.241 273.888 144.483C273.713 144.074 273.362 143.49 273.071 143.082C272.779 142.673 272.312 142.09 271.962 141.739C271.67 141.389 271.144 140.981 270.736 140.689C270.502 140.514 270.211 140.339 270.036 140.222C267.876 138.938 264.841 139.113 261.514 141.039C264.141 142.556 266.242 147.051 266.242 151.136C269.452 149.268 272.02 150.961 271.845 154.755C273.888 153.704 274.997 152.42 275.055 151.136C275.113 150.611 275.113 149.852 275.055 149.327Z" fill="#CCCBF6"/>
<path d="M266.242 151.136C266.242 148.043 265.016 144.658 263.265 142.557C263.265 142.615 263.265 142.673 263.265 142.732C263.207 143.724 262.565 145.008 262.04 145.883C261.806 146.292 261.573 146.701 261.339 147.051C260.639 148.276 259.88 149.444 259.18 150.669C258.304 152.187 257.37 153.646 256.495 155.164C255.794 156.389 255.036 157.615 254.277 158.841C254.102 159.191 253.868 159.541 253.693 159.833C253.11 160.767 251.65 161.175 250.6 161.117C249.666 161.059 248.732 160.592 248.09 159.891C247.798 159.599 247.798 159.074 247.74 158.666C247.623 158.14 247.565 157.615 247.565 157.031C247.565 156.156 247.682 155.28 247.798 154.463C247.973 153.529 248.265 152.596 248.557 151.72C248.907 150.786 249.316 149.852 249.783 148.977C250.25 148.043 250.775 147.168 251.359 146.35C251.942 145.533 252.584 144.775 253.226 144.016C253.868 143.315 254.569 142.673 255.386 142.148C256.086 141.623 256.903 141.156 257.72 140.864C258.479 140.572 259.355 140.339 260.172 140.28C259.18 139.755 258.246 139.697 257.487 140.164C257.137 140.339 256.67 140.631 256.378 140.864L255.503 141.506C255.211 141.74 254.861 142.031 254.569 142.265L253.752 143.024C253.518 143.257 253.168 143.607 252.934 143.841L252.176 144.716C251.942 145.008 251.709 145.358 251.475 145.592L250.833 146.525C250.658 146.817 250.425 147.168 250.25 147.459L249.666 148.452C249.491 148.743 249.316 149.152 249.141 149.444L248.674 150.494C248.557 150.786 248.382 151.253 248.265 151.545L247.915 152.596C247.798 152.946 247.682 153.413 247.565 153.763L247.331 154.872C247.273 155.222 247.156 155.747 247.098 156.097L246.981 157.206C246.923 157.615 246.923 158.14 246.923 158.549C246.923 158.899 246.923 159.308 246.923 159.658C246.981 160.533 247.506 161.35 248.44 161.876L249.608 162.576C252.234 164.094 257.195 163.51 260.697 161.292C260.464 157.615 263.032 153.004 266.242 151.136Z" fill="#E3E2F2"/>
<path d="M141.281 277.789C141.222 277.789 141.164 277.731 141.047 277.731C140.989 277.731 140.989 277.731 140.931 277.731C140.872 277.731 140.814 277.731 140.697 277.731C140.639 277.731 140.639 277.731 140.58 277.731C140.464 277.731 140.405 277.789 140.289 277.848C140.405 277.789 140.522 277.731 140.639 277.673C140.755 277.614 140.931 277.556 141.047 277.439C141.222 277.381 141.339 277.264 141.456 277.206L142.506 276.739C142.857 276.564 143.324 276.389 143.732 276.272L144.899 275.922C145.25 275.805 145.775 275.688 146.125 275.572H146.65C146.884 275.513 147.117 275.455 147.292 275.455L147.468 275.396H147.526C150.619 274.813 154.004 274.754 157.448 275.338L157.74 275.396C158.148 275.455 158.615 275.572 159.024 275.688L160.25 275.98C160.6 276.097 161.125 276.272 161.475 276.389L162.584 276.797C163.46 277.147 163.518 277.206 164.802 277.906L175.425 284.093L186.047 290.28L196.67 296.466L207.292 302.653L217.915 308.84L228.537 315.027L239.16 321.213L249.782 327.4L260.405 333.587L271.027 339.774L281.65 345.96L292.273 352.147L302.895 358.334L313.518 364.521L324.14 370.707L334.763 376.894L345.385 383.081L356.008 389.268L366.63 395.454L377.253 401.641C377.194 401.583 377.078 401.583 377.019 401.524L164.627 277.848C164.277 277.673 163.81 277.731 163.401 277.965C157.506 274.521 147.701 274.521 141.748 277.965C141.631 277.906 141.514 277.848 141.398 277.848C141.398 277.789 141.339 277.789 141.281 277.789Z" fill="#EDECF8"/>
<path d="M164.801 277.906C164.392 277.673 163.925 277.673 163.4 277.964C157.505 274.521 147.7 274.521 141.746 277.964C141.221 277.673 140.754 277.673 140.346 277.906C142.855 276.447 145.19 275.863 146.241 275.63C147.116 275.396 149.509 274.929 152.602 274.929C155.696 274.929 158.089 275.455 158.964 275.63C159.373 275.747 159.898 275.863 160.248 275.98C160.949 276.213 161.883 276.505 162.525 276.797C162.875 276.972 163.4 277.206 163.75 277.381C164.1 277.498 164.509 277.731 164.801 277.906Z" fill="#EDECF8"/>
<path d="M51.5139 330.027L141.747 277.965C141.689 277.906 141.572 277.848 141.514 277.848L136.961 280.416L132.467 283.042L127.973 285.669L123.479 288.295L118.985 290.922L114.49 293.548L109.996 296.175L105.502 298.801L101.008 301.427L96.5138 304.054L92.0196 306.68L87.5255 309.307L83.0313 311.933L78.5372 314.56L74.043 317.186L69.5489 319.813L65.0547 322.439L60.5606 325.066L56.0664 327.692L51.5723 330.318C51.3388 329.968 51.4556 330.027 51.5139 330.027Z" fill="#EDECF8"/>
<path d="M51.2802 329.91L55.7743 327.283L60.2685 324.657L64.7626 322.03L69.2568 319.404L73.7509 316.777L78.2451 314.151L82.7392 311.524L87.2334 308.898L91.7275 306.271L96.2217 303.645L100.716 301.019L105.21 298.392L109.704 295.766L114.198 293.139L118.692 290.513L123.187 287.886L127.681 285.26L132.175 282.633L136.961 280.416L141.455 277.789C141.046 277.614 140.638 277.672 140.288 277.847L131.241 283.042L122.194 288.237L113.148 293.431L104.101 298.626L95.0543 303.82L86.0077 309.015L76.961 314.209L67.9144 319.404L58.8677 324.598L54.3735 327.225L49.8794 329.851C50.4631 329.793 50.8716 329.734 51.2802 329.91Z" fill="#EDECF8"/>
<path d="M43.3413 342.4C43.3413 343.334 43.3997 343.45 43.458 343.976C43.5748 344.851 43.7499 345.493 43.7499 345.552C43.9833 346.369 44.3335 347.478 45.0923 348.703C45.9094 350.046 46.7265 350.863 47.0183 351.096C47.4269 351.563 48.0106 352.089 48.4775 352.439C48.9444 352.789 49.5864 353.198 50.0533 353.489C49.2946 353.081 48.8277 351.855 48.8277 350.104C45.1506 348.003 43.3413 345.201 43.3413 342.4Z" fill="#98A4E0"/>
<mask id="mask2_3_9876" style="mask-type:luminance" maskUnits="userSpaceOnUse" x="43" y="342" width="8" height="12">
<path d="M43.3413 342.4C43.3413 343.334 43.3997 343.45 43.458 343.976C43.5748 344.851 43.7499 345.493 43.7499 345.552C43.9833 346.369 44.3335 347.478 45.0923 348.703C45.9094 350.046 46.7265 350.863 47.0183 351.096C47.4269 351.563 48.0106 352.089 48.4775 352.439C48.9444 352.789 49.5864 353.198 50.0533 353.489C49.2946 353.081 48.8277 351.855 48.8277 350.104C45.1506 348.003 43.3413 345.201 43.3413 342.4Z" fill="white"/>
</mask>
<g mask="url(#mask2_3_9876)">
<path d="M43.3413 342.4C43.5164 348.703 47.0183 351.622 50.1117 353.489C49.353 353.081 48.886 351.855 48.886 350.104C45.1506 348.003 43.3413 345.201 43.3413 342.4Z" fill="#98A4E0"/>
</g>
<path d="M43.3413 341.174V342.399C43.3413 345.201 45.209 348.003 48.8277 350.162V348.936C45.1506 346.777 43.3413 343.975 43.3413 341.174Z" fill="#BFBEED"/>
<path d="M377.6 401.582C306.686 360.376 235.713 319.17 164.799 277.906C164.391 277.672 163.924 277.672 163.398 277.964L376.199 401.641C376.666 401.349 377.191 401.291 377.6 401.582Z" fill="#CBD4ED"/>
<mask id="mask3_3_9876" style="mask-type:luminance" maskUnits="userSpaceOnUse" x="163" y="277" width="215" height="125">
<path d="M377.6 401.582C306.686 360.376 235.713 319.17 164.799 277.906C164.391 277.672 163.924 277.672 163.398 277.964L376.199 401.641C376.666 401.349 377.191 401.291 377.6 401.582Z" fill="white"/>
</mask>
<g mask="url(#mask3_3_9876)">
<path d="M163.398 277.964L376.199 401.641C376.608 401.407 377.016 401.349 377.367 401.466L164.566 277.789C164.216 277.672 163.807 277.731 163.398 277.964Z" fill="#EDECF8"/>
</g>
<path d="M377.542 425.045C379.235 423.995 384.312 420.843 384.371 413.839C384.371 416.699 382.503 419.501 378.768 421.66C378.768 423.411 378.242 424.637 377.542 425.045Z" fill="#98A4E0"/>
<path d="M378.71 420.493V421.719C382.445 419.559 384.313 416.699 384.313 413.898V412.672C384.313 415.473 382.445 418.333 378.71 420.493Z" fill="#BFBEED"/>
<path d="M384.313 412.672C384.138 407.828 382.037 404.267 377.601 401.583C377.193 401.349 376.726 401.349 376.2 401.641C382.095 405.084 382.095 410.746 376.142 414.189C377.601 415.007 378.769 417.867 378.769 420.551C382.446 418.333 384.313 415.474 384.313 412.672Z" fill="#EDECF8"/>
<path d="M377.368 401.466C385.714 406.31 386.414 415.24 378.652 419.209C378.71 419.618 378.768 420.084 378.768 420.493C382.504 418.333 384.372 415.474 384.372 412.672C384.372 412.439 384.372 412.147 384.372 411.972C384.313 411.038 384.313 410.979 384.196 410.396L384.021 409.695C383.963 409.462 383.846 409.112 383.788 408.82L383.554 408.119C383.438 407.828 383.263 407.478 383.146 407.244L382.796 406.544C382.621 406.252 382.387 405.843 382.212 405.61L381.687 404.909C381.395 404.559 380.986 404.092 380.636 403.8L379.877 403.158C378.944 402.4 378.71 402.225 377.66 401.583C377.484 401.524 377.426 401.466 377.368 401.466Z" fill="#BFBEED"/>
<path d="M50.0543 353.489L71.3577 365.863L92.6612 378.236L113.965 390.61L135.21 402.983L156.513 415.357L177.817 427.73L199.12 440.104L220.423 452.477L241.727 464.851L263.03 477.224C262.271 476.816 261.805 475.59 261.805 473.839L48.8286 350.104C48.8286 351.855 49.3539 353.081 50.0543 353.489Z" fill="#98A4E0"/>
<mask id="mask4_3_9876" style="mask-type:luminance" maskUnits="userSpaceOnUse" x="48" y="350" width="216" height="128">
<path d="M50.0543 353.489L71.3577 365.863L92.6612 378.236L113.965 390.61L135.21 402.983L156.513 415.357L177.817 427.73L199.12 440.104L220.423 452.477L241.727 464.851L263.03 477.224C262.271 476.816 261.805 475.59 261.805 473.839L48.8286 350.104C48.8286 351.855 49.3539 353.081 50.0543 353.489Z" fill="white"/>
</mask>
<g mask="url(#mask4_3_9876)">
<path d="M261.629 473.781L48.8286 350.104C48.8286 351.797 49.3539 353.022 50.0543 353.489L71.3577 365.863L92.6612 378.236L113.965 390.61L135.21 402.983L156.513 415.357L177.817 427.73L199.12 440.104L220.423 452.477L241.727 464.851L263.03 477.224C262.096 476.699 261.629 475.473 261.629 473.781Z" fill="#98A4E0"/>
</g>
<path d="M287.308 477.166L296.355 471.971L305.401 466.777L314.448 461.582L323.495 456.388L332.541 451.193L341.588 445.999L350.635 440.804L359.681 435.609L368.728 430.415L377.775 425.22C378.533 424.812 379 423.586 379 421.835L288.767 473.897C288.534 475.532 288.008 476.757 287.308 477.166Z" fill="#98A4E0"/>
<mask id="mask5_3_9876" style="mask-type:luminance" maskUnits="userSpaceOnUse" x="287" y="421" width="93" height="57">
<path d="M287.308 477.166L296.355 471.971L305.401 466.777L314.448 461.582L323.495 456.388L332.541 451.193L341.588 445.999L350.635 440.804L359.681 435.609L368.728 430.415L377.775 425.22C378.533 424.812 379 423.586 379 421.835L288.767 473.897C288.534 475.532 288.008 476.757 287.308 477.166Z" fill="white"/>
</mask>
<g mask="url(#mask5_3_9876)">
<path d="M378.767 421.719L288.534 473.781C288.534 475.473 288.067 476.699 287.308 477.166L296.355 471.971L305.401 466.777L314.448 461.582L323.495 456.388L332.541 451.193L341.588 445.999L350.635 440.804L359.681 435.61L368.728 430.415L377.775 425.221C378.242 424.637 378.767 423.411 378.767 421.719Z" fill="#98A4E0"/>
</g>
<path d="M48.8286 348.937V350.104L261.629 473.781V472.614L48.8286 348.937Z" fill="#BFBEED"/>
<path d="M288.534 472.613V473.781L378.767 421.719L378.709 420.493L288.534 472.613Z" fill="#BFBEED"/>
<path d="M264.312 466.252L51.5114 342.575C51.2779 342.692 51.1028 342.867 50.9277 343.042L263.729 466.719C263.904 466.544 264.137 466.368 264.312 466.252Z" fill="#EDECF8"/>
<path d="M376.082 414.131L285.849 466.193C286.024 466.31 286.258 466.485 286.433 466.66L376.666 414.54C376.491 414.423 376.316 414.248 376.082 414.131Z" fill="#EDECF8"/>
<path d="M376.666 414.598L286.433 466.719C286.9 467.185 287.367 467.886 287.659 468.703L377.892 416.641C377.6 415.765 377.192 415.065 376.666 414.598Z" fill="#EDECF8"/>
<path d="M377.949 416.582L287.716 468.644C288.067 469.462 288.3 470.337 288.417 471.271L378.65 419.209C378.533 418.275 378.241 417.399 377.949 416.582Z" fill="#EDECF8"/>
<path d="M378.651 419.209L288.417 471.271C288.476 471.679 288.534 472.146 288.534 472.555L378.709 420.493C378.709 420.084 378.709 419.617 378.651 419.209Z" fill="#BFBEED"/>
<path d="M262.855 477.166C263.147 477.341 263.555 477.574 263.847 477.691C264.197 477.866 264.723 478.1 265.073 478.275C265.773 478.567 266.649 478.859 267.349 479.092C267.758 479.209 268.224 479.325 268.633 479.442C269.509 479.676 271.902 480.143 274.995 480.143C278.088 480.143 280.481 479.617 281.357 479.442C281.707 479.325 282.232 479.209 282.582 479.092C283.283 478.859 284.217 478.567 284.917 478.275C284.975 478.275 285.968 477.866 287.252 477.166C288.01 476.757 288.477 475.532 288.477 473.781C281.065 478.041 268.925 478.041 261.571 473.781C261.629 475.473 262.096 476.699 262.855 477.166Z" fill="#98A4E0"/>
<mask id="mask6_3_9876" style="mask-type:luminance" maskUnits="userSpaceOnUse" x="261" y="473" width="28" height="8">
<path d="M262.855 477.166C263.147 477.341 263.555 477.574 263.847 477.691C264.197 477.866 264.723 478.1 265.073 478.275C265.773 478.567 266.649 478.859 267.349 479.092C267.758 479.209 268.224 479.325 268.633 479.442C269.509 479.676 271.902 480.143 274.995 480.143C278.088 480.143 280.481 479.617 281.357 479.442C281.707 479.325 282.232 479.209 282.582 479.092C283.283 478.859 284.217 478.567 284.917 478.275C284.975 478.275 285.968 477.866 287.252 477.166C288.01 476.757 288.477 475.532 288.477 473.781C281.065 478.041 268.925 478.041 261.571 473.781C261.629 475.473 262.096 476.699 262.855 477.166Z" fill="white"/>
</mask>
<g mask="url(#mask6_3_9876)">
<path d="M262.854 477.166C271.492 481.835 281.589 480.434 287.309 477.166C288.068 476.757 288.535 475.532 288.535 473.781C281.123 478.041 268.982 478.041 261.628 473.781C261.628 475.473 262.095 476.699 262.854 477.166Z" fill="#98A4E0"/>
</g>
<path d="M261.628 472.613V473.839C268.982 478.1 281.123 478.1 288.535 473.839V472.613C281.064 476.874 268.982 476.874 261.628 472.613Z" fill="#BFBEED"/>
<path d="M261.688 471.329C261.98 469.111 263.03 466.952 264.256 466.251C270.151 469.695 279.956 469.695 285.91 466.251C287.135 466.952 288.128 469.111 288.478 471.329C281.007 475.531 269.042 475.531 261.688 471.329Z" fill="#EDECF8"/>
<path d="M288.418 471.329C288.477 471.738 288.535 472.204 288.535 472.613C281.123 476.874 268.982 476.874 261.628 472.613C261.628 472.204 261.687 471.738 261.687 471.329C269.041 475.531 281.006 475.531 288.418 471.329Z" fill="#BFBEED"/>
<path d="M285.851 466.251C279.898 469.695 270.151 469.695 264.197 466.251C262.972 466.952 261.921 469.053 261.629 471.329L261.571 471.271C261.571 468.586 262.738 465.785 264.197 464.909C270.092 468.353 279.898 468.353 285.851 464.909C287.31 465.726 288.477 468.586 288.477 471.271C288.419 471.271 288.419 471.329 288.361 471.329C288.127 469.053 287.077 466.952 285.851 466.251Z" fill="#EDECF8"/>
<path d="M51.4544 342.575C45.5595 339.132 45.5595 333.47 51.5128 330.026C81.5711 312.692 111.688 295.299 141.746 277.964C147.699 274.521 157.446 274.521 163.4 277.964C164.333 278.49 165.267 279.073 166.201 279.599L54.256 344.209C53.3222 343.684 52.3883 343.1 51.4544 342.575Z" fill="#EDECF8"/>
<path d="M166.201 279.599C236.182 320.279 306.162 360.96 376.142 401.641C382.037 405.084 382.037 410.746 376.084 414.189C346.026 431.524 315.909 448.917 285.851 466.252C279.898 469.695 270.151 469.695 264.197 466.252C194.275 425.571 124.295 384.89 54.2563 344.209L166.201 279.599Z" fill="url(#paint0_linear_3_9876)"/>
<path d="M50.9322 343.042L263.733 466.719C262.799 467.652 261.865 469.403 261.632 471.271L48.8311 348.412C48.9478 346.31 49.8816 344.151 50.9322 343.042Z" fill="#EDECF8"/>
<path d="M261.69 471.329C261.632 471.738 261.574 472.205 261.574 472.613L48.8311 348.937C48.8311 348.762 48.8311 348.586 48.8311 348.411L261.69 471.329Z" fill="#BFBEED"/>
<path d="M50.1134 329.968C48.4208 331.019 43.343 334.17 43.2847 341.174C43.2847 343.976 45.1524 346.777 48.771 348.937C48.8294 346.427 49.9383 343.45 51.3975 342.575C45.5026 339.131 45.5026 333.47 51.4558 330.026C50.9889 329.735 50.522 329.735 50.1134 329.968Z" fill="#EDECF8"/>
<path d="M43.3997 339.89C43.3997 340.124 43.3413 340.416 43.3413 340.708C43.3413 343.509 45.209 346.311 48.8277 348.412C48.8277 348.587 48.8277 348.762 48.8277 348.937C45.1506 346.836 43.3413 344.034 43.3413 341.174C43.3413 340.766 43.3413 340.299 43.3997 339.89Z" fill="#BFBEED"/>
<path d="M214.005 404.968C200.464 404.968 186.865 401.991 176.534 396.038C166.32 390.143 160.717 382.264 160.717 373.801C160.717 365.338 166.32 357.458 176.534 351.563C197.196 339.657 230.756 339.657 251.417 351.563C261.631 357.458 267.234 365.338 267.234 373.801C267.234 382.264 261.631 390.143 251.417 396.038C241.087 401.991 227.546 404.968 214.005 404.968ZM177.585 353.373C168.071 358.859 162.818 366.096 162.818 373.742C162.818 381.388 168.071 388.625 177.585 394.112C197.663 405.668 230.289 405.668 250.308 394.112C259.822 388.625 265.075 381.388 265.075 373.742C265.075 366.096 259.822 358.859 250.308 353.373C230.289 341.816 197.663 341.816 177.585 353.373Z" fill="#F47300"/>
<path d="M214.004 414.19C196.32 414.19 178.693 410.279 165.211 402.517C151.962 394.871 144.666 384.657 144.666 373.742C144.666 362.828 151.962 352.614 165.211 344.968C192.117 329.443 235.891 329.443 262.798 344.968C276.047 352.614 283.343 362.828 283.343 373.742C283.343 384.657 276.047 394.871 262.798 402.517C249.315 410.338 231.631 414.19 214.004 414.19ZM214.004 335.455C196.728 335.455 179.452 339.248 166.32 346.836C153.771 354.073 146.884 363.645 146.884 373.742C146.884 383.84 153.771 393.412 166.32 400.649C192.643 415.824 235.424 415.824 261.747 400.649C274.296 393.412 281.183 383.84 281.183 373.742C281.183 363.645 274.296 354.073 261.747 346.836C248.557 339.248 231.281 335.455 214.004 335.455Z" fill="#F47300"/>
<path d="M214.004 396.913C204.023 396.913 194.043 394.696 186.455 390.318C178.868 385.941 174.724 380.104 174.724 373.801C174.724 367.497 178.868 361.661 186.455 357.283C201.63 348.528 226.377 348.528 241.611 357.283C249.198 361.661 253.342 367.497 253.342 373.801C253.342 380.104 249.198 385.941 241.611 390.318C233.965 394.696 223.984 396.913 214.004 396.913ZM187.506 359.093C180.619 363.061 176.825 368.256 176.825 373.742C176.825 379.229 180.619 384.423 187.506 388.392C202.097 396.797 225.852 396.797 240.502 388.392C247.389 384.423 251.183 379.229 251.183 373.742C251.183 368.256 247.389 363.061 240.502 359.093C225.852 350.688 202.097 350.688 187.506 359.093Z" fill="#F47300"/>
<path d="M144.142 284.91C146.184 286.077 146.184 288.003 144.142 289.17C142.099 290.338 138.83 290.338 136.787 289.17C134.745 288.003 134.745 286.077 136.787 284.91C138.772 283.742 142.099 283.742 144.142 284.91Z" fill="#310055"/>
<path d="M150.738 280.883C152.022 281.641 152.022 282.867 150.738 283.567C149.454 284.326 147.353 284.326 146.069 283.567C144.784 282.809 144.784 281.583 146.069 280.883C147.294 280.124 149.395 280.124 150.738 280.883Z" fill="#310055"/>
<path d="M107.955 309.19L115.309 304.929C116.768 304.112 116.768 302.711 115.309 301.894C113.85 301.077 111.457 301.077 110.056 301.894L102.702 306.155C101.243 306.972 101.243 308.373 102.702 309.19C104.161 310.007 106.554 310.007 107.955 309.19Z" fill="#010958"/>
<path d="M294.665 470.512C294.665 471.505 293.965 472.672 293.148 473.139C292.564 473.489 292.039 473.372 291.747 472.905C291.63 472.73 291.572 472.497 291.572 472.263C291.572 471.271 292.272 470.104 293.089 469.637C293.323 469.52 293.498 469.462 293.673 469.462C294.315 469.403 294.665 469.812 294.665 470.512Z" fill="#E3E2F2"/>
<path d="M293.906 470.104C293.906 471.096 293.205 472.263 292.388 472.73C292.155 472.847 291.98 472.906 291.804 472.906C291.688 472.73 291.629 472.497 291.629 472.263C291.629 471.271 292.33 470.104 293.147 469.637C293.38 469.52 293.555 469.462 293.731 469.462C293.847 469.637 293.906 469.87 293.906 470.104Z" fill="#310055"/>
<path d="M339.198 444.598C339.198 445.532 338.498 446.757 337.681 447.224L333.478 449.676C333.245 449.792 333.012 449.909 332.778 449.909C332.486 449.909 332.253 449.792 332.136 449.559C332.019 449.384 331.961 449.15 331.961 448.8C331.961 447.866 332.661 446.641 333.478 446.174L337.681 443.722C337.856 443.664 337.973 443.547 338.148 443.547C338.206 443.547 338.323 443.547 338.381 443.547C338.848 443.489 339.198 443.898 339.198 444.598Z" fill="#E3E2F2"/>
<path d="M338.323 444.248C338.323 445.182 337.622 446.407 336.805 446.874L332.603 449.326C332.428 449.442 332.311 449.501 332.136 449.501C332.019 449.326 331.961 449.092 331.961 448.742C331.961 447.808 332.661 446.583 333.478 446.116L337.681 443.664C337.856 443.606 337.973 443.489 338.148 443.489C338.264 443.723 338.323 443.956 338.323 444.248Z" fill="#310055"/>
<path d="M278.438 246.273C275.462 244.463 269.275 240.611 263.03 231.097C257.076 222.051 255.676 213.88 255.15 210.786C255.267 211.662 255.968 212.42 257.252 212.887C258.944 224.619 267.057 237.167 276.571 242.654C276.571 244.346 277.271 245.572 278.438 246.273Z" fill="#98A4E0"/>
<path d="M276.57 242.653L279.838 244.521C279.838 246.214 280.539 247.439 281.764 248.14L281.414 247.965L281.064 247.79L280.714 247.615L280.364 247.439L280.013 247.264L279.663 247.089L279.313 246.914L278.963 246.739L278.613 246.564L278.262 246.389C277.27 245.572 276.57 244.346 276.57 242.653Z" fill="#98A4E0"/>
<path d="M279.84 244.58L283.108 246.447C283.108 248.14 283.809 249.366 285.034 250.066L284.684 249.891L284.334 249.716L283.984 249.541L283.634 249.366L283.283 249.191L282.933 249.015L282.583 248.84L282.233 248.665L282.058 248.315L281.708 248.14C280.482 247.44 279.84 246.272 279.84 244.58Z" fill="#98A4E0"/>
<path d="M345.558 220.592C345.325 221.759 344.975 223.335 344.625 224.502C344.274 225.669 343.632 227.187 343.165 228.296C342.815 229.055 342.29 230.105 341.823 230.806C341.531 231.331 341.123 232.031 340.772 232.498C340.306 233.199 339.605 234.191 339.08 234.891C337.271 237.226 334.761 239.619 334.119 240.202C332.426 241.662 331.901 242.07 330.442 243.121C328.574 244.463 327.115 245.339 326.415 245.747C330.383 243.412 333.243 239.093 334.352 232.907C340.831 229.113 344.858 224.502 345.558 220.592Z" fill="#98A4E0"/>
<mask id="mask7_3_9876" style="mask-type:luminance" maskUnits="userSpaceOnUse" x="326" y="220" width="20" height="26">
<path d="M345.558 220.592C345.325 221.759 344.975 223.335 344.625 224.502C344.274 225.669 343.632 227.187 343.165 228.296C342.815 229.055 342.29 230.105 341.823 230.806C341.531 231.331 341.123 232.031 340.772 232.498C340.306 233.199 339.605 234.191 339.08 234.891C337.271 237.226 334.761 239.619 334.119 240.202C332.426 241.662 331.901 242.07 330.442 243.121C328.574 244.463 327.115 245.339 326.415 245.747C330.383 243.412 333.243 239.093 334.352 232.907C340.831 229.113 344.858 224.502 345.558 220.592Z" fill="white"/>
</mask>
<g mask="url(#mask7_3_9876)">
<path d="M345.558 220.592C344.741 224.502 342.173 236.467 326.415 245.747C330.383 243.412 333.243 239.093 334.352 232.907C340.831 229.113 344.858 224.502 345.558 220.592Z" fill="#98A4E0"/>
</g>
<path d="M250.716 167.42L257.194 212.887C255.91 212.42 255.21 211.661 255.093 210.728L254.743 208.451L254.393 206.175L254.043 203.899L253.692 201.622L253.342 199.346L252.992 197.07L252.642 194.794L252.292 192.517L251.941 190.241L251.591 187.965L251.241 185.689L250.891 183.412V181.195L250.541 178.918L250.19 176.642L249.84 174.366L249.49 172.09L249.14 169.813L248.79 167.537L248.439 165.261C248.79 166.195 249.49 166.953 250.716 167.42Z" fill="#BFBEED"/>
<path d="M326.413 245.747L321.861 248.373C325.83 246.039 328.69 241.72 329.799 235.533L334.351 232.907C333.242 239.093 330.382 243.412 326.413 245.747Z" fill="#98A4E0"/>
<mask id="mask8_3_9876" style="mask-type:luminance" maskUnits="userSpaceOnUse" x="321" y="232" width="14" height="17">
<path d="M326.413 245.747L321.861 248.373C325.83 246.039 328.69 241.72 329.799 235.533L334.351 232.907C333.242 239.093 330.382 243.412 326.413 245.747Z" fill="white"/>
</mask>
<g mask="url(#mask8_3_9876)">
<path d="M329.799 235.533L334.351 232.907C333.242 239.093 330.382 243.412 326.413 245.747L321.861 248.373C325.83 246.097 328.69 241.72 329.799 235.533Z" fill="#98A4E0"/>
</g>
<path d="M271.084 130.533C287.426 121.545 297.874 125.105 304.294 128.549C301.317 126.856 295.131 128.024 288.01 132.226C281.298 128.315 275.345 128.024 271.084 130.533Z" fill="#EDECF8"/>
<path d="M321.862 248.374C321.278 248.724 320.52 249.132 319.936 249.424C319.119 249.833 318.068 250.358 317.193 250.708C315.092 251.642 312.815 252.401 312.815 252.401C311.648 252.751 310.014 253.218 308.788 253.51C308.03 253.685 307.037 253.86 306.337 253.977C304.878 254.21 303.535 254.269 301.726 254.385C300.851 254.444 299.683 254.385 298.808 254.327C298.224 254.269 297.407 254.21 296.823 254.152C295.714 254.035 294.197 253.685 293.088 253.393C289.119 252.342 286.142 250.65 285.033 250.066C283.808 249.366 283.107 248.14 283.107 246.448C292.621 251.934 300.792 248.841 302.543 239.035C307.504 242.946 319.761 241.37 329.8 235.533C328.691 241.72 325.831 246.097 321.862 248.374Z" fill="#98A4E0"/>
<mask id="mask9_3_9876" style="mask-type:luminance" maskUnits="userSpaceOnUse" x="283" y="235" width="47" height="20">
<path d="M321.862 248.374C321.278 248.724 320.52 249.132 319.936 249.424C319.119 249.833 318.068 250.358 317.193 250.708C315.092 251.642 312.815 252.401 312.815 252.401C311.648 252.751 310.014 253.218 308.788 253.51C308.03 253.685 307.037 253.86 306.337 253.977C304.878 254.21 303.535 254.269 301.726 254.385C300.851 254.444 299.683 254.385 298.808 254.327C298.224 254.269 297.407 254.21 296.823 254.152C295.714 254.035 294.197 253.685 293.088 253.393C289.119 252.342 286.142 250.65 285.033 250.066C283.808 249.366 283.107 248.14 283.107 246.448C292.621 251.934 300.792 248.841 302.543 239.035C307.504 242.946 319.761 241.37 329.8 235.533C328.691 241.72 325.831 246.097 321.862 248.374Z" fill="white"/>
</mask>
<g mask="url(#mask9_3_9876)">
<path d="M321.862 248.374C314.625 252.342 308.963 254.035 301.726 254.385C297.932 254.56 291.921 253.918 285.033 250.008C283.808 249.308 283.107 248.082 283.107 246.389C292.621 251.876 300.792 248.782 302.543 238.977C307.504 242.887 319.761 241.311 329.8 235.475C328.691 241.72 325.831 246.097 321.862 248.374Z" fill="#98A4E0"/>
</g>
<path d="M266.53 133.16L271.083 130.533C275.343 128.024 281.297 128.374 287.95 132.226L283.398 134.852C276.744 131 270.791 130.65 266.53 133.16Z" fill="#EDECF8"/>
<path d="M302.894 140.806L287.953 132.168C295.073 128.024 301.26 126.798 304.237 128.491L317.661 136.253L318.419 136.662L319.178 137.07C316.202 135.436 310.015 136.662 302.894 140.806Z" fill="#E3E2F2"/>
<path d="M248.613 165.261C248.03 159.833 246.454 145.533 266.356 133.218C270.734 130.65 276.687 131 283.341 134.794C273.243 140.631 265.072 150.144 265.072 155.922C255.967 150.67 249.08 156.156 250.656 167.42C249.43 166.953 248.788 166.195 248.613 165.261Z" fill="#E3E2F2"/>
<path d="M283.399 134.794L287.951 132.167L302.893 140.806L298.341 143.432L283.399 134.794Z" fill="#E3E2F2"/>
<path d="M334.351 232.906L341.063 195.086C347.6 191.292 351.627 186.681 352.269 182.77L351.919 184.638L351.569 186.506L351.219 188.373L350.927 190.358L350.577 192.226L350.227 194.093L349.876 195.961L349.526 197.829L349.176 199.696L348.826 201.564L348.476 203.432L348.125 205.299L347.775 207.167L347.425 209.035L347.075 210.903L346.725 212.77L346.374 214.638L346.258 216.797L345.907 218.665L345.557 220.533C344.857 224.502 340.83 229.113 334.351 232.906Z" fill="#BFBEED"/>
<path d="M336.512 197.712L341.065 195.086L334.353 232.907L329.8 235.533L336.512 197.712Z" fill="#BFBEED"/>
<path d="M317.777 149.386L302.835 140.748C309.956 136.604 316.142 135.378 319.119 137.071L332.543 144.833L334.061 145.709C331.142 144.016 324.956 145.242 317.777 149.386Z" fill="#E3E2F2"/>
<path d="M280.072 164.619L265.13 155.981C265.13 150.144 273.302 140.689 283.399 134.852L298.34 143.491C288.243 149.269 280.072 158.782 280.072 164.619Z" fill="#E3E2F2"/>
<path d="M298.34 143.432L302.893 140.806L317.776 149.385L313.224 152.07L298.34 143.432Z" fill="#E3E2F2"/>
<path d="M334.119 145.767C336.453 147.226 338.905 148.743 342.523 152.77C344.625 155.047 347.076 158.665 348.477 161.584C352.212 169.171 353.379 175.883 352.27 182.829C351.57 186.681 347.543 191.35 341.064 195.144C343.749 179.91 332.601 158.023 317.776 149.444C324.955 145.241 331.142 144.016 334.119 145.767Z" fill="#BFBEED"/>
<path d="M341.063 195.086C341.996 189.833 341.296 183.821 339.37 177.809C339.545 177.576 339.72 177.343 339.895 177.109C345.206 168.588 340.596 160.592 330.498 160.942C326.88 156.214 322.561 152.129 317.833 149.444C324.954 145.3 331.14 144.074 334.117 145.767C334.642 146.117 335.401 146.584 335.926 146.876C336.51 147.284 337.269 147.868 337.852 148.277L339.487 149.619C339.954 150.086 340.654 150.67 341.121 151.136L342.58 152.712C342.989 153.179 343.572 153.88 343.981 154.347L345.265 156.039C345.615 156.564 346.14 157.265 346.432 157.79L347.541 159.599C347.833 160.183 348.241 160.883 348.533 161.467L349.467 163.393C349.701 163.977 350.051 164.736 350.284 165.319L350.926 167.362C351.101 167.946 351.393 168.763 351.51 169.405L351.977 171.448C352.094 172.09 352.269 172.965 352.327 173.607L352.561 175.65C352.619 176.35 352.619 177.284 352.619 177.985L352.561 180.027C352.444 180.845 352.327 181.953 352.21 182.771C351.627 186.623 347.599 191.292 341.063 195.086Z" fill="#BFBEED"/>
<path d="M341.064 195.086C341.181 194.327 341.298 193.568 341.356 192.751C341.531 192.634 341.765 192.459 341.998 192.342C363.535 178.393 345.733 150.319 333.477 147.868C327.523 146.642 321.862 149.736 319.994 150.786C319.294 150.319 318.535 149.852 317.776 149.385C324.897 145.241 331.084 144.016 334.06 145.708C334.586 146.059 335.344 146.525 335.87 146.817C336.453 147.226 337.212 147.809 337.796 148.218L339.43 149.56C339.897 150.027 340.597 150.611 341.064 151.078L342.523 152.654C342.932 153.121 343.516 153.821 343.924 154.288L345.208 155.981C345.558 156.506 346.084 157.206 346.376 157.732L347.484 159.541C347.776 160.125 348.185 160.825 348.477 161.409L349.411 163.335C349.644 163.918 349.994 164.677 350.228 165.261L350.928 167.362C351.103 167.946 351.395 168.763 351.512 169.405L351.979 171.448C352.095 172.09 352.27 172.965 352.329 173.607L352.562 175.65C352.621 176.35 352.621 177.284 352.621 177.984L352.562 180.027C352.446 180.844 352.329 181.953 352.212 182.77C351.628 186.623 347.601 191.292 341.064 195.086Z" fill="#CCCBF6"/>
<path d="M302.484 239.035L309.196 201.214C314.157 205.124 326.414 203.548 336.453 197.712L329.741 235.533C319.702 241.428 307.503 243.003 302.484 239.035Z" fill="#BFBEED"/>
<path d="M294.954 173.199L280.012 164.56C280.012 158.724 288.183 149.269 298.281 143.432L313.222 152.07C303.183 157.907 295.012 167.362 294.954 173.199Z" fill="#E3E2F2"/>
<path d="M313.223 152.07L317.775 149.444C318.534 149.853 319.234 150.319 319.993 150.845L315.441 153.471C314.74 152.946 313.981 152.479 313.223 152.07Z" fill="#CCCBF6"/>
<path d="M315.439 153.413L319.991 150.786C323.844 153.413 327.404 156.915 330.439 160.942L325.886 163.568C322.851 159.541 319.291 156.039 315.439 153.413Z" fill="#BFBEED"/>
<path d="M325.888 163.568L330.44 160.942C334.351 166.02 337.444 171.914 339.312 177.809L334.759 180.436C332.892 174.541 329.798 168.646 325.888 163.568Z" fill="#BFBEED"/>
<path d="M334.819 180.436L339.372 177.809C341.006 182.945 341.765 188.082 341.415 192.751L336.862 195.377C337.212 190.766 336.454 185.572 334.819 180.436Z" fill="#BFBEED"/>
<path d="M336.804 195.436L341.357 192.81C341.298 193.627 341.181 194.385 341.065 195.144L336.512 197.771C336.629 196.954 336.746 196.195 336.804 195.436Z" fill="#CCCBF6"/>
<path d="M294.956 173.199C304.061 178.452 310.89 191.876 309.256 201.214C307.038 213.821 304.761 226.428 302.543 239.035C300.793 248.782 292.621 251.934 283.108 246.447C281.999 245.805 280.948 245.222 279.839 244.58C278.73 243.938 277.68 243.354 276.571 242.712C267.057 237.226 258.944 224.677 257.252 212.946C255.092 197.771 252.933 182.654 250.773 167.479C249.197 156.273 256.085 150.786 265.19 155.981C270.151 158.841 275.112 161.701 280.131 164.619C285.034 167.479 289.995 170.339 294.956 173.199Z" fill="#CCCBF6"/>
<path d="M294.955 173.198C294.955 167.362 303.126 157.907 313.223 152.07C328.048 160.65 339.196 182.537 336.511 197.77C326.414 203.607 314.215 205.183 309.254 201.272C310.888 191.875 304.06 178.451 294.955 173.198Z" fill="#BFBEED"/>
<path d="M309.254 201.214C310.888 191.875 304.06 178.451 294.955 173.198C294.955 167.362 303.126 157.907 313.223 152.07C317.892 154.755 322.27 158.84 325.888 163.568C325.713 163.568 325.538 163.568 325.363 163.568C308.67 164.794 308.67 178.335 317.542 186.156C323.554 191.467 331.9 184.405 334.818 180.436C336.744 186.447 337.445 192.459 336.569 197.712C326.414 203.607 314.215 205.183 309.254 201.214Z" fill="#BFBEED"/>
<path d="M309.254 201.214C310.888 191.875 304.06 178.451 294.955 173.198C294.955 167.362 303.126 157.907 313.223 152.07C313.982 152.479 314.682 152.946 315.441 153.471C315.266 153.588 314.974 153.704 314.799 153.821C311.239 155.981 303.067 161.817 304.41 169.521C305.227 174.307 315.849 193.218 315.908 193.393C317.659 196.194 319.41 198.12 322.561 198.821C324.371 199.229 329.332 199.696 336.803 195.377C336.744 196.194 336.628 196.953 336.511 197.712C326.414 203.607 314.215 205.183 309.254 201.214Z" fill="#CCCBF6"/>
<path d="M348.536 111.565C344.275 104.269 339.372 101.175 337.271 99.8914C334.411 98.2572 328.049 99.6579 320.637 103.977C321.279 104.327 321.921 104.736 322.505 105.144L317.952 107.771C318.01 107.771 318.01 107.829 318.069 107.829C317.427 107.362 316.726 106.954 316.084 106.545C305.987 112.382 297.816 121.428 297.816 126.623C304.645 130.533 310.189 140.164 310.131 147.985C314.684 150.611 326.59 147.985 336.629 142.148L341.182 139.522C348.594 135.203 352.913 130.358 352.971 126.915C352.913 124.522 352.68 118.743 348.536 111.565Z" fill="#BFBEED"/>
<path d="M263.672 145.592C261.571 144.308 256.61 141.214 252.407 133.919C250.365 130.417 247.972 124.814 247.972 118.335C247.972 119.561 248.555 120.553 249.781 121.253C249.781 129.074 255.267 138.705 262.096 142.615C262.038 144.016 262.621 145.008 263.672 145.592Z" fill="#CCCBF6"/>
<path d="M249.723 113.199V121.253C248.498 120.553 247.914 119.561 247.914 118.335V117.518V116.701V115.884V115.067V114.25V113.432V112.615V111.798V110.981V110.164C247.972 111.506 248.556 112.499 249.723 113.199Z" fill="#E3E2F2"/>
<path d="M270.326 81.9735C286.26 73.1603 295.832 76.2537 301.61 79.3471C298.809 77.7128 292.388 79.1136 284.976 83.4326C279.256 80.1058 274.062 79.7556 270.326 81.9735Z" fill="#EDECF8"/>
<path d="M265.774 84.5999L270.327 81.9734C274.062 79.8139 279.257 80.1057 285.035 83.4325L280.483 86.059C274.704 82.7322 269.51 82.4403 265.774 84.5999Z" fill="#EDECF8"/>
<path d="M262.039 142.615L297.7 163.218C297.7 164.619 298.284 165.611 299.276 166.195L295.716 164.152L292.155 162.109L288.595 160.067L285.035 158.024L281.474 155.981L277.914 153.938L274.354 151.895L270.793 149.853L267.233 147.81L263.673 145.767C262.622 145.008 262.039 144.016 262.039 142.615Z" fill="#CCCBF6"/>
<path d="M247.972 110.281C248.088 106.487 248.555 94.9888 265.773 84.5997C269.509 82.4402 274.703 82.732 280.481 86.0589C270.384 91.8954 262.213 100.942 262.213 106.137C255.384 102.168 249.839 105.378 249.781 113.199C248.555 112.498 247.972 111.506 247.972 110.281Z" fill="#EDECF8"/>
<path d="M341.183 147.634V139.58C345.793 136.895 349.237 133.977 351.163 131.409V139.463C349.237 142.09 345.793 144.95 341.183 147.634Z" fill="#E3E2F2"/>
<path d="M351.163 139.463V131.409C352.33 129.833 352.972 128.374 352.972 127.148V127.965V128.782V129.599V130.417V131.234V132.051V132.868V133.685V134.502V135.319C352.972 136.428 352.33 137.887 351.163 139.463Z" fill="#E3E2F2"/>
<path d="M320.639 103.978L284.978 83.3745C292.39 79.0554 298.752 77.6546 301.612 79.2889L305.172 81.3317L308.732 83.3745L312.293 85.4172L315.911 87.5768L319.472 89.6196L323.032 91.6624L326.592 93.7052L330.152 95.748L333.713 97.7907L337.273 99.8335C334.413 98.2577 328.051 99.6585 320.639 103.978Z" fill="#E3E2F2"/>
<path d="M336.631 142.265L341.242 139.58L341.184 147.635L336.631 150.261V142.265Z" fill="#E3E2F2"/>
<path d="M280.424 86.0592L284.976 83.3744L320.638 103.977L316.085 106.604L280.424 86.0592Z" fill="#E3E2F2"/>
<path d="M351.223 131.409C356.068 119.677 345.329 107.362 345.212 107.187C341.301 102.751 336.282 99.191 326.36 103.277C324.667 103.977 323.441 104.677 322.566 105.144C321.924 104.736 321.34 104.327 320.698 103.977C328.111 99.6579 334.473 98.2572 337.332 99.8914C337.741 100.125 338.325 100.475 338.733 100.767C339.142 101.059 339.784 101.467 340.192 101.817L341.418 102.81C341.768 103.16 342.294 103.568 342.644 103.919L343.753 105.086C344.103 105.436 344.511 105.903 344.862 106.312L345.854 107.537C346.146 107.946 346.554 108.471 346.788 108.821L347.663 110.164C347.897 110.572 348.247 111.098 348.48 111.565L349.239 112.965C349.472 113.374 349.764 113.958 349.939 114.424L350.581 115.884C350.757 116.35 350.99 116.934 351.165 117.401L351.69 118.919C351.807 119.385 351.982 120.028 352.099 120.494L352.449 122.07C352.507 122.537 352.624 123.238 352.683 123.705L352.858 125.339C352.858 125.864 352.916 126.623 352.916 127.148C352.974 128.374 352.391 129.833 351.223 131.409Z" fill="#E3E2F2"/>
<path d="M316.086 106.604L320.639 103.977C321.281 104.328 321.923 104.736 322.507 105.145L317.954 107.771C317.37 107.363 316.728 107.012 316.086 106.604Z" fill="#E3E2F2"/>
<path d="M310.133 156.098V148.043C312.409 149.327 316.495 149.386 321.222 148.335V156.389C316.436 157.44 312.409 157.44 310.133 156.098Z" fill="#E3E2F2"/>
<path d="M321.223 156.389V148.335C326.067 147.284 331.553 145.183 336.631 142.207V150.261C331.553 153.238 326.067 155.339 321.223 156.389Z" fill="#E3E2F2"/>
<path d="M297.817 126.74L262.155 106.137C262.155 100.884 270.326 91.8955 280.424 86.059L316.085 106.662C305.988 112.499 297.817 121.487 297.817 126.74Z" fill="#E3E2F2"/>
<path d="M297.818 126.74C304.647 130.65 310.191 140.28 310.133 148.101C310.133 150.786 310.133 153.471 310.133 156.156C310.133 163.977 304.53 167.187 297.701 163.218C285.795 156.331 273.946 149.502 262.04 142.615C255.211 138.704 249.666 129.074 249.725 121.253C249.725 118.568 249.725 115.884 249.725 113.199C249.725 105.378 255.328 102.168 262.156 106.136C274.063 113.024 285.911 119.852 297.818 126.74Z" fill="#9200FF"/>
<path d="M310.131 148.101C310.131 140.28 304.645 130.65 297.816 126.74C297.816 121.487 305.987 112.498 316.084 106.662C316.726 107.012 317.368 107.42 317.952 107.829C317.777 107.946 317.485 108.063 317.31 108.179C313.633 110.397 305.17 116.292 305.754 123.179C306.104 127.44 314.917 142.907 315.034 143.023C316.435 145.416 317.835 147.401 320.754 148.218C320.929 148.276 321.104 148.335 321.279 148.335C316.493 149.385 312.407 149.385 310.131 148.101Z" fill="#E3E2F2"/>
<path d="M341.181 147.635L336.629 150.261C326.531 156.098 314.683 158.724 310.131 156.098C310.131 163.919 304.528 167.129 297.699 163.16C297.699 164.561 298.282 165.553 299.275 166.136C302.952 168.121 312.815 173.374 330.617 163.51L335.169 160.883C343.224 156.156 347.193 150.786 347.951 149.736C351.512 144.6 352.796 140.922 352.971 135.144C352.971 138.529 348.594 143.374 341.181 147.635Z" fill="#CCCBF6"/>
<path d="M270.035 122.187C270.035 125.222 267.875 126.506 265.249 124.93C262.622 123.413 260.463 119.677 260.463 116.642C260.463 113.607 262.622 112.323 265.249 113.899C267.875 115.417 270.035 119.094 270.035 122.187Z" fill="#F47300"/>
<path d="M296.883 137.654C296.883 140.689 294.724 141.973 292.097 140.397C289.471 138.88 287.312 135.144 287.312 132.109C287.312 129.074 289.471 127.79 292.097 129.366C294.724 130.884 296.883 134.619 296.883 137.654Z" fill="#F47300"/>
<path d="M273.886 140.105C273.886 140.163 273.886 140.28 273.886 140.339C273.886 143.374 276.045 147.109 278.672 148.626C281.298 150.144 283.458 148.918 283.458 145.883C283.458 145.825 283.458 145.708 283.458 145.65L273.886 140.105Z" fill="#F47300"/>
<path d="M344.51 131.234L349.588 134.152C347.779 133.102 345.327 133.277 342.584 134.853L337.506 131.934C340.25 130.358 342.701 130.183 344.51 131.234Z" fill="#F4F4FB"/>
<mask id="mask10_3_9876" style="mask-type:luminance" maskUnits="userSpaceOnUse" x="337" y="130" width="13" height="5">
<path d="M344.51 131.234L349.588 134.152C347.779 133.102 345.327 133.277 342.584 134.853L337.506 131.934C340.25 130.358 342.701 130.183 344.51 131.234Z" fill="white"/>
</mask>
<g mask="url(#mask10_3_9876)">
<path d="M342.584 134.853L337.506 131.934C340.25 130.358 342.701 130.183 344.51 131.234L349.588 134.152C347.779 133.16 345.327 133.277 342.584 134.853Z" fill="#F4F4FB"/>
</g>
<path d="M335.638 158.199L330.56 155.281C328.809 154.23 327.7 152.071 327.7 148.977C327.7 142.732 332.078 135.086 337.506 131.934L342.583 134.853C337.155 138.004 332.72 145.592 332.778 151.895C332.778 154.989 333.829 157.148 335.638 158.199Z" fill="#F4F4FB"/>
<mask id="mask11_3_9876" style="mask-type:luminance" maskUnits="userSpaceOnUse" x="327" y="131" width="16" height="28">
<path d="M335.638 158.199L330.56 155.281C328.809 154.23 327.7 152.071 327.7 148.977C327.7 142.732 332.078 135.086 337.506 131.934L342.583 134.853C337.155 138.004 332.72 145.592 332.778 151.895C332.778 154.989 333.829 157.148 335.638 158.199Z" fill="white"/>
</mask>
<g mask="url(#mask11_3_9876)">
<path d="M335.637 158.199L330.56 155.281C328.984 154.347 327.933 152.538 327.7 149.969L332.778 152.888C333.011 155.456 334.062 157.265 335.637 158.199Z" fill="#F4F4FB"/>
<path d="M332.779 152.888L327.701 149.969C327.701 149.619 327.643 149.327 327.643 148.977C327.643 143.608 330.912 137.187 335.289 133.51L340.367 136.429C335.989 140.106 332.721 146.526 332.721 151.896C332.721 152.246 332.779 152.538 332.779 152.888Z" fill="#F4F4FB"/>
<path d="M340.367 136.429L335.289 133.51C335.989 132.927 336.748 132.401 337.449 131.993L342.526 134.911C341.826 135.32 341.067 135.787 340.367 136.429Z" fill="#F4F4FB"/>
</g>
<path d="M342.584 134.853C348.012 131.701 352.448 134.211 352.448 140.514C352.448 146.759 348.07 154.405 342.642 157.557C337.214 160.709 332.778 158.199 332.778 151.895C332.72 145.65 337.156 138.004 342.584 134.853Z" fill="#BFBEED"/>
<path d="M342.583 139.814C345.618 138.063 348.128 139.463 348.128 142.965C348.128 146.467 345.677 150.786 342.583 152.537C339.548 154.288 337.039 152.888 337.039 149.386C337.039 145.884 339.548 141.565 342.583 139.814Z" fill="#F47300"/>
<path d="M306.574 93.9964V96.6228C306.574 97.5567 305.991 98.4321 304.765 99.1325C302.372 100.533 298.462 100.533 296.069 99.1325C294.843 98.4321 294.259 97.4983 294.259 96.5644V93.938C294.259 94.8718 294.843 95.8057 296.069 96.5061C298.462 97.9068 302.372 97.9068 304.765 96.5061C305.991 95.8057 306.574 94.9302 306.574 93.9964Z" fill="#BFBEED"/>
<mask id="mask12_3_9876" style="mask-type:luminance" maskUnits="userSpaceOnUse" x="294" y="93" width="13" height="8">
<path d="M306.574 93.9964V96.6228C306.574 97.5567 305.991 98.4321 304.765 99.1325C302.372 100.533 298.462 100.533 296.069 99.1325C294.843 98.4321 294.259 97.4983 294.259 96.5644V93.938C294.259 94.8718 294.843 95.8057 296.069 96.5061C298.462 97.9068 302.372 97.9068 304.765 96.5061C305.991 95.8057 306.574 94.9302 306.574 93.9964Z" fill="white"/>
</mask>
<g mask="url(#mask12_3_9876)">
<path d="M306.575 93.9963V96.6228C306.575 97.5566 305.991 98.4321 304.765 99.1325C303.831 99.6578 302.722 100.008 301.555 100.125V97.5566C302.722 97.4399 303.89 97.0897 304.765 96.5644C305.991 95.8057 306.575 94.9302 306.575 93.9963Z" fill="#BFBEED"/>
<path d="M301.554 97.4983V100.066C299.628 100.3 297.527 99.9497 296.068 99.0742C295.835 98.9575 295.659 98.8407 295.484 98.6656V96.0392C295.659 96.1559 295.835 96.331 296.068 96.4477C297.527 97.3816 299.628 97.7318 301.554 97.4983Z" fill="#BFBEED"/>
<path d="M295.485 96.0975V98.724C294.668 98.082 294.259 97.3232 294.259 96.5644V93.938C294.259 94.7551 294.668 95.4555 295.485 96.0975Z" fill="#BFBEED"/>
</g>
<path d="M304.764 91.487C307.157 92.8878 307.216 95.164 304.764 96.5648C302.371 97.9656 298.461 97.9656 296.068 96.5648C293.675 95.164 293.616 92.8878 296.068 91.487C298.402 90.0862 302.313 90.0862 304.764 91.487Z" fill="#F4F4FB"/>
<path d="M300.326 95.3972C299.334 95.3972 298.517 94.58 298.517 93.5878V73.7435C298.517 72.7513 299.334 71.9342 300.326 71.9342C301.319 71.9342 302.136 72.7513 302.136 73.7435V93.6462C302.136 94.6384 301.319 95.3972 300.326 95.3972Z" fill="#98A4E0"/>
<path d="M306.341 75.0862C306.341 78.3547 303.714 80.9811 300.446 80.9811C297.177 80.9811 294.551 78.3547 294.551 75.0862C294.551 71.8177 297.177 69.1913 300.446 69.1913C303.714 69.1913 306.341 71.8177 306.341 75.0862Z" fill="#98A4E0"/>
<path d="M214.822 183.062L222.293 178.743C223.868 179.677 225.152 181.895 225.152 183.704C225.152 184.638 225.152 185.63 225.152 186.564C225.152 187.265 225.211 187.965 225.152 188.607C225.094 189.482 224.686 190.124 224.044 190.65C223.46 191.175 222.759 191.525 222.176 191.992C221.942 192.167 221.709 192.401 221.417 192.576C221.184 192.751 220.892 192.809 220.6 192.868C220.075 192.984 219.491 193.101 218.966 192.926C218.44 192.809 217.974 192.459 217.798 191.992C217.623 191.525 217.74 190.942 217.74 190.416C217.74 189.599 217.74 188.782 217.74 187.965C217.74 186.214 216.456 183.996 214.822 183.062Z" fill="#98A4E0"/>
<path d="M214.821 183.062L222.292 178.743L206.65 169.696L199.179 174.015L214.821 183.062Z" fill="#BFBEED"/>
<path d="M210.736 371.291C210.736 370.999 210.736 370.766 210.736 370.474C210.561 367.731 211.611 365.396 212.604 362.828C212.954 361.894 213.362 360.902 214.179 360.26C215.989 358.801 218.907 360.085 220.016 362.128C220.541 363.062 220.833 364.112 221.3 365.104C222.234 366.914 224.043 369.132 226.261 369.248C229.238 369.365 232.565 368.373 235.6 368.198C236.767 368.139 237.993 368.081 239.101 368.548C241.67 369.598 242.428 373.742 241.494 376.019C240.911 377.419 239.627 378.47 238.284 379.112C236.183 380.104 233.44 380.688 231.164 380.513C228.712 380.338 226.319 380.571 224.102 381.622C220.249 383.431 215.697 386.058 211.786 382.497C210.736 381.563 210.211 380.104 210.094 378.703C209.86 376.135 210.736 373.742 210.736 371.291Z" fill="#98A4E0"/>
<path d="M189.433 365.571C189.725 364.637 190.426 364.871 191.126 364.696C192.06 364.404 192.935 363.762 193.636 363.178C194.57 362.361 195.328 361.427 196.145 360.552C198.305 358.276 200.931 356.408 203.791 355.124C204.667 354.715 205.601 354.365 206.534 354.248C208.344 354.073 210.095 354.89 211.787 355.708C213.363 356.466 213.363 357.517 213.48 359.093C213.538 359.851 213.48 360.61 213.305 361.369C212.896 362.828 211.904 364.054 210.854 365.163C209.628 366.447 208.344 367.672 206.768 368.49C205.484 369.132 204.025 369.54 202.857 370.299C202.04 370.824 201.398 371.525 200.815 372.342C200.348 372.925 199.998 373.742 199.356 374.151C198.013 375.027 196.379 375.727 194.745 375.844C191.535 376.077 188.908 374.151 188.791 370.824C188.733 369.657 188.966 368.49 189.142 367.322C189.258 366.622 189.317 366.038 189.433 365.571Z" fill="#98A4E0"/>
<path d="M213.014 284.21C212.314 283.334 211.146 283.101 210.037 282.926C205.251 282.05 200.524 280.182 195.796 279.015C193.695 278.49 191.535 278.14 189.376 278.081L184.707 273.879C184.123 277.965 183.773 282.109 184.24 286.194C185.29 295.124 187.567 315.669 188.209 325.474C188.676 332.945 188.617 340.474 188.676 347.945C188.676 351.155 188.909 354.424 188.5 357.575C188.15 360.494 188.092 364.462 189.493 367.089C190.602 369.19 192.761 370.649 195.096 370.941C197.43 371.233 199.882 370.357 201.574 368.665C202.625 367.614 202.567 365.513 202.742 364.112C202.917 362.828 202.975 361.544 203.034 360.26C203.15 356.583 203.15 352.848 203.325 349.171C203.442 345.26 203.676 341.35 203.909 337.439C204.084 334.871 204.318 332.303 204.493 329.735C204.609 328.334 204.726 326.933 204.901 325.474C205.018 324.249 204.784 321.914 205.368 320.863C207.82 316.369 209.921 311.525 210.271 308.84C210.796 305.046 210.796 301.252 211.146 297.459C211.497 294.015 212.781 290.805 213.364 287.361C213.539 286.311 213.714 285.085 213.014 284.21Z" fill="#9200FF"/>
<path d="M222.527 331.602C222.527 331.777 222.527 331.953 222.527 332.128C222.41 339.89 222.936 347.595 223.111 355.357C223.227 360.493 224.278 374.326 219.609 376.077C217.332 376.952 212.663 377.594 211.379 375.377C206.593 367.089 205.192 338.081 204.842 329.91C204.784 327.867 204.959 328.626 204.842 326.525C204.725 324.89 204.083 322.497 204.55 320.921C205.426 317.886 209.511 319.579 211.496 320.279C214.356 321.272 217.974 321.739 220.426 323.665C222.877 325.649 222.585 328.801 222.527 331.602Z" fill="#9200FF"/>
<path d="M223.05 278.023C220.424 275.688 212.428 278.548 209.393 278.723C206.591 278.898 203.789 278.898 201.046 278.898C199.821 278.898 198.245 279.132 197.019 278.84C195.969 278.606 195.151 277.789 194.042 277.497C193.167 277.322 190.774 275.513 190.132 276.097C189.081 276.972 190.541 280.416 190.832 281.7C193.4 293.315 201.046 303.12 203.381 314.793C204.315 319.696 204.14 324.715 204.665 329.735C204.723 330.377 204.782 330.96 205.074 331.544C205.482 332.536 206.358 333.237 207.291 333.82C209.509 335.279 211.961 336.272 214.587 336.68C215.988 336.914 217.389 337.03 218.789 336.972C219.84 336.914 221.241 336.447 222.175 336.972C222.758 332.828 222.35 328.509 223.225 324.423C224.159 320.104 223.926 315.493 224.101 311.058C224.451 301.369 224.626 291.68 224.334 281.992C224.276 280.766 224.276 279.54 223.634 278.49C223.4 278.315 223.225 278.14 223.05 278.023Z" fill="#9200FF"/>
<path d="M227.662 229.112C227.721 230.221 227.546 232.381 226.495 233.081C225.62 233.665 223.635 233.431 222.643 233.548C219.491 233.84 216.281 234.073 213.129 234.248C211.67 234.365 210.269 234.423 208.81 234.482C204.608 234.599 200.406 234.365 196.262 233.665C194.686 233.373 192.001 233.023 190.775 231.972C189.491 230.922 189.375 229.229 189.608 227.536C189.958 224.501 191.476 221.525 194.336 220.416C197.195 219.248 200.055 219.774 202.915 220.124C209.511 220.941 216.048 222.225 222.468 223.918C223.635 224.21 224.744 224.56 225.736 225.202C226.845 225.96 227.487 227.536 227.662 229.112Z" fill="#F1F1F1"/>
<path d="M226.494 225.494C226.494 225.377 226.494 225.319 226.494 225.202C226.436 223.451 226.436 221.466 225.444 219.949C224.452 218.431 215.522 213.12 207.642 210.26C200.23 207.575 192.701 202.147 184.763 206.642C174.374 212.537 181.144 229.754 183.479 243.295C185.055 252.4 184.063 255.552 184.938 261.739C186.397 272.42 177.176 282.517 191.592 285.844C201.456 288.12 211.961 289.813 221.417 286.369C226.144 284.618 226.028 282.342 225.736 279.657C222.642 248.023 226.67 236.058 226.494 225.494Z" fill="#E3E2F2"/>
<path d="M209.627 203.782C209.918 201.798 211.377 202.265 210.619 200.514C209.977 198.996 209.043 197.595 207.7 196.603C206.416 195.611 204.782 195.027 203.148 195.086C202.564 195.144 202.214 195.436 201.63 195.436C200.113 195.436 198.537 195.144 197.02 195.377C195.502 195.611 194.101 195.728 194.101 197.42C194.101 199.696 194.218 201.914 193.459 204.191C193.051 205.416 192.467 206.584 192.35 207.809C192.117 210.319 193.985 212.654 196.202 213.704C198.946 215.047 202.097 214.93 205.074 214.521C206.533 214.288 208.634 213.996 209.51 212.595C210.152 211.545 209.86 210.144 209.743 208.977C209.568 207.284 209.393 205.533 209.627 203.782Z" fill="#FFC7AD"/>
<path d="M216.222 178.743C217.155 179.852 217.856 181.136 218.089 182.653C218.615 185.98 217.272 189.365 217.973 192.692C218.673 195.902 217.272 203.14 211.027 205.007C207.817 205.941 201.572 204.832 199.529 203.898C196.786 202.614 195.035 199.988 193.401 197.42C180.21 176.466 207.292 167.887 216.222 178.743Z" fill="#FFC7AD"/>
<path d="M189.55 174.657C190.192 174.015 190.95 173.432 191.943 172.965C192.234 172.848 192.526 172.731 192.76 172.439C192.935 172.264 192.993 172.031 193.11 171.797C193.577 170.864 194.452 170.163 195.386 169.638C198.888 167.712 203.149 167.595 207.118 168.179C208.46 168.354 209.802 168.646 211.028 169.171C212.429 169.755 213.713 170.747 214.822 171.797C216.456 173.257 217.974 175.008 218.791 177.05C219.199 177.984 219.258 179.035 219.55 179.969C219.783 180.844 219.491 181.836 218.791 182.42C218.499 182.653 218.09 182.829 217.799 183.004C216.456 183.879 216.223 185.98 215.639 187.381C215.289 188.257 214.53 188.782 214.355 189.716C214.122 190.708 214.18 191.758 213.83 192.751C213.655 193.218 213.363 193.685 212.896 193.743C212.721 193.743 212.487 193.685 212.312 193.568C211.729 193.218 211.437 192.576 211.262 191.934C211.087 191.292 210.97 190.65 210.62 190.066C210.561 190.008 210.503 189.891 210.444 189.891C210.386 189.891 210.269 189.891 210.211 189.891C209.511 190.008 209.102 190.533 208.752 191.116C208.343 191.817 208.168 192.576 207.935 193.334C207.585 194.56 207.585 195.552 207.409 196.778C207.234 198.004 206.884 199.288 206.067 200.221C204.141 202.264 200.464 202.148 198.013 201.622C197.137 201.447 196.203 201.214 195.386 200.805C193.46 199.871 192.176 198.062 190.95 196.311C189.841 194.735 188.674 193.101 188.09 191.233C187.74 190.183 187.624 189.074 187.448 188.023C186.748 183.587 186.34 177.926 189.55 174.657Z" fill="#4F389E"/>
<path d="M187.856 190.591C187.973 191 188.557 192.575 188.732 192.926C195.152 194.093 202.448 193.976 208.751 192.517C211.378 191.933 213.887 191.058 216.339 189.949C217.098 189.599 220.541 187.965 221.125 187.323C221.708 186.739 222 185.863 221.767 185.105C221.358 183.996 220.833 184.054 219.432 184.638C217.856 185.338 212.603 188.081 207.934 189.424C204.958 190.416 195.211 190.883 187.856 190.591Z" fill="#010958"/>
<path d="M222.935 184.871C222.935 186.155 222.001 187.79 220.892 188.432C219.783 189.074 218.849 188.548 218.849 187.264C218.849 185.98 219.783 184.346 220.892 183.704C222.059 183.004 222.935 183.529 222.935 184.871Z" fill="#9200FF"/>
<path d="M219.024 187.498C218.09 187.381 216.865 188.256 217.623 188.782C217.098 188.84 216.631 189.249 216.631 189.716C216.631 190.358 217.332 190.766 217.799 191.175C218.499 191.7 218.966 192.517 219.433 193.276C220.425 194.852 220.658 197.07 220.367 197.011C219.55 196.895 218.732 196.486 218.382 195.727C218.207 195.26 218.207 194.793 217.974 194.385C217.799 194.035 217.448 193.801 217.157 193.568C217.04 193.509 216.923 193.393 216.806 193.393C216.515 193.393 216.339 193.684 216.223 193.918C216.106 194.326 216.164 194.793 216.223 195.26C216.339 196.369 216.515 197.537 217.215 198.354C217.448 198.646 217.74 198.879 217.974 199.112C218.265 199.404 218.499 199.696 218.791 199.988C219.199 200.338 221.709 202.089 222.818 202.556C226.728 206 229.355 204.365 230.055 201.214C230.406 199.696 229.53 196.019 228.888 194.035C228.888 193.976 228.888 193.918 228.83 193.86C228.771 193.743 228.771 193.626 228.713 193.509C227.662 190.825 225.153 185.397 222.876 186.505C222.876 186.681 222.876 186.856 222.876 187.031C219.958 185.922 220.834 187.79 219.024 187.498Z" fill="#F3A984"/>
<path d="M225.678 200.105C226.495 199.404 228.363 198.295 229.589 198.762C230.581 199.113 231.515 200.864 232.157 201.622C235.542 205.533 252.585 230.28 252.118 236.408C251.884 239.56 244.472 240.435 240.153 237.692C235.542 234.716 226.262 212.245 224.394 207.225C223.986 206.116 223.577 205.007 223.577 203.84C223.577 202.556 224.453 201.155 225.678 200.105Z" fill="#E3E2F2"/>
<path d="M223.518 217.79C220.658 216.389 217.389 215.397 214.646 217.148C213.537 217.848 212.72 218.957 212.078 220.124C210.385 223.159 209.335 226.545 210.093 230.047C210.21 230.689 210.444 231.389 210.735 231.973C211.961 234.191 214.296 234.541 216.455 235.241C219.082 236.117 221.591 237.109 224.16 238.159C229.237 240.202 234.257 242.362 239.626 243.704C242.72 244.521 246.28 244.93 248.965 243.237C250.833 242.07 252 240.027 252.117 237.868C252.408 232.615 249.14 230.805 248.556 230.513C230.405 220.475 223.109 217.615 223.518 217.79Z" fill="#EDECF8"/>
<path d="M207.935 186.622C205.075 186.097 203.966 189.541 205.6 192.517C206.067 193.393 207.001 194.21 207.701 194.969C212.312 199.93 214.121 195.377 212.721 193.685C209.277 189.832 211.495 187.323 207.935 186.622Z" fill="#FFC7AD"/>
<path d="M208.167 192.167C207.876 191.817 204.841 189.541 207.234 188.49C207.876 188.198 208.518 188.84 208.518 189.482C208.518 189.832 208.401 190.183 208.401 190.474C208.401 190.65 208.459 190.883 208.576 191.058C208.809 191.583 209.743 192.109 209.452 192.809C209.16 193.393 208.343 192.342 208.167 192.167Z" fill="#F3A984"/>
<path d="M243.479 49.522L247.156 47.3624L246.689 48.413L243.07 50.5142L243.479 49.522Z" fill="#9200FF"/>
<path d="M258.887 59.6189L262.505 57.5177L263.965 57.0508L260.288 59.2103L258.887 59.6189Z" fill="#9200FF"/>
<path d="M260.285 59.2109L258.885 59.6195L235.889 66.9152L243.068 50.5144L243.476 49.5222L260.285 59.2109Z" fill="#F47300"/>
<path d="M243.478 49.522L247.155 47.3624L263.964 57.0511L260.287 59.2106L243.478 49.522Z" fill="#9200FF"/>
<path d="M232.212 2.88773L235.889 0.78657C237.173 0.0278178 238.982 0.144549 240.967 1.25349L237.29 3.35465C235.305 2.18734 233.496 2.12898 232.212 2.88773Z" fill="#9200FF"/>
<mask id="mask13_3_9876" style="mask-type:luminance" maskUnits="userSpaceOnUse" x="232" y="0" width="9" height="4">
<path d="M232.212 2.88773L235.889 0.78657C237.173 0.0278178 238.982 0.144549 240.967 1.25349L237.29 3.35465C235.305 2.18734 233.496 2.12898 232.212 2.88773Z" fill="white"/>
</mask>
<g mask="url(#mask13_3_9876)">
<path d="M232.212 2.88773L235.889 0.78657C237.173 0.0278178 238.982 0.144549 240.967 1.25349L237.29 3.35465C235.305 2.18734 233.496 2.12898 232.212 2.88773Z" fill="#9200FF"/>
</g>
<path d="M293.497 72.9849L289.82 75.0861C291.104 74.3273 291.921 72.7514 291.921 70.4752L295.598 68.374C295.598 70.6503 294.781 72.2262 293.497 72.9849Z" fill="#9200FF"/>
<mask id="mask14_3_9876" style="mask-type:luminance" maskUnits="userSpaceOnUse" x="289" y="68" width="7" height="8">
<path d="M293.497 72.9849L289.82 75.0861C291.104 74.3273 291.921 72.7514 291.921 70.4752L295.598 68.374C295.598 70.6503 294.781 72.2262 293.497 72.9849Z" fill="white"/>
</mask>
<g mask="url(#mask14_3_9876)">
<path d="M291.921 70.4752L295.598 68.374C295.598 70.6503 294.781 72.2262 293.497 72.9849L289.82 75.0861C291.104 74.3273 291.921 72.7514 291.921 70.4752Z" fill="#9200FF"/>
</g>
<path d="M292.036 43.1599L295.655 41.0587L295.596 68.3738L291.919 70.475L292.036 43.1599Z" fill="#9200FF"/>
<path d="M237.29 3.35482L240.967 1.25366L288.535 28.6855L284.858 30.845L237.29 3.35482Z" fill="#9200FF"/>
<path d="M284.858 30.8447C288.827 33.121 292.037 38.6657 291.979 43.2182L291.92 70.5333C291.92 75.0858 288.652 76.8951 284.742 74.6189L258.827 59.6773L260.286 59.2104L243.477 49.5217L243.01 50.5723L237.115 47.1871C233.205 44.9108 229.995 39.3661 229.995 34.8136L230.053 7.4985C230.053 2.94598 233.321 1.13665 237.232 3.41291L284.858 30.8447Z" fill="#F47300"/>
<path d="M284.857 30.8448L288.534 28.7437C292.503 31.0199 295.713 36.5646 295.655 41.1172L291.978 43.2183C292.036 38.6658 288.826 33.1211 284.857 30.8448Z" fill="#9200FF"/>
<mask id="mask15_3_9876" style="mask-type:luminance" maskUnits="userSpaceOnUse" x="284" y="28" width="12" height="16">
<path d="M284.857 30.8448L288.534 28.7437C292.503 31.0199 295.713 36.5646 295.655 41.1172L291.978 43.2183C292.036 38.6658 288.826 33.1211 284.857 30.8448Z" fill="white"/>
</mask>
<g mask="url(#mask15_3_9876)">
<path d="M284.857 30.8448L288.534 28.7437C292.503 31.0199 295.713 36.5646 295.655 41.1172L291.978 43.2183C292.036 38.6658 288.826 33.1211 284.857 30.8448Z" fill="#9200FF"/>
</g>
<path d="M253.341 35.981C253.341 38.6075 251.473 39.7164 249.197 38.374C246.92 37.0316 245.053 33.8215 245.053 31.195C245.053 28.5686 246.92 27.4596 249.197 28.8021C251.473 30.0861 253.341 33.2962 253.341 35.981Z" fill="white"/>
<path d="M264.431 42.3426C264.431 44.969 262.563 46.078 260.287 44.7356C258.01 43.3932 256.143 40.1831 256.143 37.5566C256.143 34.9302 258.01 33.8212 260.287 35.1636C262.563 36.506 264.431 39.7161 264.431 42.3426Z" fill="white"/>
<path d="M275.519 48.7629C275.519 51.3893 273.652 52.4983 271.375 51.1559C269.099 49.8135 267.231 46.6034 267.231 43.9769C267.231 41.3505 269.099 40.2415 271.375 41.5839C273.71 42.9263 275.519 46.1364 275.519 48.7629Z" fill="white"/>
<path d="M205.016 94.405L208.693 92.2455L209.16 93.0626L205.483 95.2221L205.016 94.405Z" fill="#9200FF"/>
<path d="M175.889 41.584L179.566 39.4828C180.733 38.8408 182.309 38.8991 184.06 39.8914L180.383 41.9925C178.632 41.0003 176.998 40.9419 175.889 41.584Z" fill="#9200FF"/>
<mask id="mask16_3_9876" style="mask-type:luminance" maskUnits="userSpaceOnUse" x="175" y="39" width="10" height="3">
<path d="M175.889 41.584L179.566 39.4828C180.733 38.8408 182.309 38.8991 184.06 39.8914L180.383 41.9925C178.632 41.0003 176.998 40.9419 175.889 41.584Z" fill="white"/>
</mask>
<g mask="url(#mask16_3_9876)">
<path d="M175.889 41.584L179.566 39.4828C180.733 38.8408 182.309 38.8991 184.06 39.8914L180.383 41.9925C178.632 41.0003 176.998 40.9419 175.889 41.584Z" fill="#9200FF"/>
</g>
<path d="M219.839 103.51L223.457 101.351L222.991 118.043L219.313 120.203L219.839 103.51Z" fill="#9200FF"/>
<path d="M219.84 102.926V103.51L219.315 120.203L205.483 95.2222L205.016 94.405L219.84 102.926Z" fill="#F47300"/>
<path d="M219.84 102.926L223.517 100.825L223.459 101.35L219.84 103.51V102.926Z" fill="#9200FF"/>
<path d="M205.016 94.405L208.693 92.2455L223.517 100.825L219.84 102.926L205.016 94.405Z" fill="#9200FF"/>
<path d="M230.345 103.159L226.668 105.261C227.777 104.619 228.536 103.218 228.536 101.233L232.213 99.1322C232.155 101.117 231.454 102.517 230.345 103.159Z" fill="#9200FF"/>
<mask id="mask17_3_9876" style="mask-type:luminance" maskUnits="userSpaceOnUse" x="226" y="99" width="7" height="7">
<path d="M230.345 103.159L226.668 105.261C227.777 104.619 228.536 103.218 228.536 101.233L232.213 99.1322C232.155 101.117 231.454 102.517 230.345 103.159Z" fill="white"/>
</mask>
<g mask="url(#mask17_3_9876)">
<path d="M228.536 101.233L232.213 99.1322C232.213 101.117 231.513 102.517 230.345 103.159L226.668 105.261C227.836 104.619 228.536 103.218 228.536 101.233Z" fill="#9200FF"/>
</g>
<path d="M228.594 77.1284L232.271 75.0272L232.154 99.1322L228.536 101.233L228.594 77.1284Z" fill="#9200FF"/>
<path d="M180.383 42.0511L184.002 39.8916L225.967 64.1133L222.29 66.2145L180.383 42.0511Z" fill="#9200FF"/>
<path d="M222.29 66.2143C225.792 68.1988 228.594 73.1015 228.594 77.1287L228.535 101.234C228.535 105.203 225.676 106.837 222.174 104.852L219.839 103.51V102.985L205.014 94.4049L205.481 95.222L180.209 80.6306C176.707 78.6462 173.905 73.7435 173.905 69.7163L173.964 45.6113C173.964 41.6424 176.824 40.0082 180.325 41.9926L222.29 66.2143Z" fill="#F47300"/>
<path d="M222.292 66.2142L225.969 64.113C229.47 66.0975 232.272 71.0002 232.272 75.0274L228.595 77.1286C228.595 73.1597 225.793 68.257 222.292 66.2142Z" fill="#9200FF"/>
<mask id="mask18_3_9876" style="mask-type:luminance" maskUnits="userSpaceOnUse" x="222" y="64" width="11" height="14">
<path d="M222.292 66.2142L225.969 64.113C229.47 66.0975 232.272 71.0002 232.272 75.0274L228.595 77.1286C228.595 73.1597 225.793 68.257 222.292 66.2142Z" fill="white"/>
</mask>
<g mask="url(#mask18_3_9876)">
<path d="M222.292 66.2142L225.969 64.113C229.47 66.0975 232.272 71.0002 232.272 75.0274L228.595 77.1286C228.595 73.1597 225.793 68.257 222.292 66.2142Z" fill="#9200FF"/>
</g>
<path d="M188.905 60.0861L192.465 62.1289V68.2572L195.558 70.0666V63.9382L199.119 65.981V81.4479L195.558 79.4051V73.7436L192.465 71.9343V77.5957L188.905 75.5529V60.0861Z" fill="#EDECF8"/>
<path d="M200.521 66.7982L204.081 68.841V84.3079L200.521 82.2651V66.7982Z" fill="#EDECF8"/>
<path d="M208.925 71.6426L208.517 82.7321L205.832 81.2146L205.54 69.7166L208.925 71.6426ZM205.715 82.3235C205.715 82.0317 205.89 81.8566 206.182 82.0317L208.283 83.2574C208.575 83.4325 208.692 83.7243 208.692 84.0161V86.4675C208.692 86.7593 208.517 86.876 208.283 86.7009L206.182 85.4753C205.949 85.3002 205.715 85.0083 205.715 84.7165V82.3235Z" fill="#EDECF8"/>
<path d="M341.881 193.86C341.881 189.774 339.78 185.28 337.154 183.763L335.986 183.062C334.936 182.479 333.944 182.42 333.185 182.887C330.442 184.521 327.757 187.206 325.772 190.65C323.788 193.977 322.446 197.946 322.562 202.44C322.621 203.315 323.146 204.132 324.08 204.658L325.247 205.358C325.247 204.891 325.189 204.424 325.247 203.899C325.247 204.366 325.247 204.891 325.247 205.358C327.873 206.875 332.835 206.292 336.337 204.074C336.103 200.339 338.73 195.669 341.881 193.86Z" fill="#F4F4FB"/>
<path d="M329.45 270.143C329.275 270.027 329.042 269.91 328.866 269.735C328.575 269.501 328.166 269.21 327.874 268.918C327.057 268.042 326.882 267.867 326.298 266.758C326.123 266.408 325.773 265.591 325.598 264.949C325.365 264.132 325.306 263.782 325.189 262.439C325.248 263.315 325.773 264.132 326.707 264.715C326.882 267.342 327.874 269.21 329.45 270.143Z" fill="#BFBEED"/>
<mask id="mask19_3_9876" style="mask-type:luminance" maskUnits="userSpaceOnUse" x="325" y="262" width="5" height="9">
<path d="M329.45 270.143C329.275 270.027 329.042 269.91 328.866 269.735C328.575 269.501 328.166 269.21 327.874 268.918C327.057 268.042 326.882 267.867 326.298 266.758C326.123 266.408 325.773 265.591 325.598 264.949C325.365 264.132 325.306 263.782 325.189 262.439C325.248 263.315 325.773 264.132 326.707 264.715C326.882 267.342 327.874 269.21 329.45 270.143Z" fill="white"/>
</mask>
<g mask="url(#mask19_3_9876)">
<path d="M329.451 270.143C326.766 268.392 325.424 266.058 325.132 262.439C325.19 263.315 325.715 264.132 326.649 264.715C326.883 267.342 327.875 269.21 329.451 270.143Z" fill="#BFBEED"/>
</g>
<path d="M330.619 270.844L329.451 270.144C327.875 269.21 326.825 267.342 326.708 264.716L327.875 265.416C328.05 268.042 329.043 269.91 330.619 270.844Z" fill="#BFBEED"/>
<mask id="mask20_3_9876" style="mask-type:luminance" maskUnits="userSpaceOnUse" x="326" y="264" width="5" height="7">
<path d="M330.619 270.844L329.451 270.144C327.875 269.21 326.825 267.342 326.708 264.716L327.875 265.416C328.05 268.042 329.043 269.91 330.619 270.844Z" fill="white"/>
</mask>
<g mask="url(#mask20_3_9876)">
<path d="M330.619 270.844L329.451 270.144C327.875 269.21 326.825 267.342 326.708 264.716L327.875 265.416C328.05 268.042 329.043 269.91 330.619 270.844Z" fill="#BFBEED"/>
</g>
<path d="M348.478 256.778C347.661 267.05 337.797 274.813 330.676 270.786C329.1 269.852 328.05 267.984 327.933 265.358C330.56 266.875 335.521 266.233 339.023 263.957C339.139 265.825 340.482 266.467 342.174 265.533C343.867 264.541 345.209 262.323 345.268 260.513C347.31 259.405 348.419 258.062 348.478 256.778Z" fill="#98A4E0"/>
<path d="M345.209 260.513L347.485 197.478C349.528 196.428 350.637 195.085 350.695 193.86L350.579 197.011L350.462 200.163L350.345 203.315L350.228 206.467L350.112 209.618L349.995 212.77L349.878 215.922L349.761 219.074L349.645 222.225L349.528 225.377L349.411 228.529L349.295 231.681L349.178 234.832L349.061 237.984L348.944 241.136L348.828 244.287L348.711 247.439L348.594 250.591L348.477 253.743L348.361 256.894C348.419 258.003 347.31 259.404 345.209 260.513Z" fill="#98A4E0"/>
<path d="M324.081 204.599L326.707 264.715C325.715 264.132 325.19 263.315 325.19 262.381L325.073 259.404L324.956 256.428L324.84 253.451L324.723 250.474L324.606 247.498L324.489 244.521L324.373 241.544L324.081 238.393L323.964 235.416L323.847 232.439L323.731 229.463L323.614 226.486L323.497 223.509L323.38 220.533L323.264 217.556L323.147 214.579L323.03 211.603L322.914 208.626L322.797 205.649L322.68 202.673C322.563 203.257 323.089 204.015 324.081 204.599Z" fill="#E3E2F2"/>
<path d="M336.104 183.004C336.045 183.004 335.929 183.004 335.87 183.004C334.878 182.479 333.944 182.42 333.186 182.887C333.477 182.712 333.828 182.537 334.119 182.362C334.528 182.187 334.995 181.953 335.403 181.778L336.337 181.428C336.746 181.311 337.33 181.195 337.738 181.078L338.672 180.961C339.139 180.961 339.722 180.903 340.189 180.903L341.065 180.961C341.532 181.019 342.115 181.195 342.582 181.311L343.4 181.603C343.691 181.778 344.158 181.953 344.45 182.128C342.407 180.961 339.431 181.136 336.104 183.004Z" fill="#E3E2F2"/>
<path d="M327.875 265.416L326.707 264.716L324.081 204.599L325.248 205.299L327.875 265.416Z" fill="#E3E2F2"/>
<path d="M337.155 183.762L335.871 183.004C339.197 181.136 342.349 180.961 344.509 182.245L345.676 182.945C343.516 181.72 340.54 181.836 337.271 183.704L337.155 183.762Z" fill="#CCCBF6"/>
<path d="M341.883 193.86C345.093 191.992 347.661 193.685 347.486 197.479C346.727 218.607 345.969 239.56 345.21 260.513C345.093 262.323 343.751 264.599 342.116 265.533C340.482 266.467 339.081 265.825 338.965 263.957C338.089 244.054 337.214 224.035 336.338 204.015C336.105 200.338 338.731 195.669 341.883 193.86Z" fill="#BFBEED"/>
<path d="M336.338 204.016L338.965 263.957C335.463 266.233 330.444 266.875 327.875 265.358L325.249 205.241C327.875 206.817 332.837 206.233 336.338 204.016Z" fill="#E3E2F2"/>
<path d="M322.562 202.381C322.562 202.031 322.504 201.622 322.504 201.272C322.504 200.864 322.504 200.338 322.562 199.93C322.621 199.288 322.737 198.412 322.854 197.712C322.912 197.362 323.029 196.836 323.146 196.486C323.321 195.728 323.905 193.685 325.305 191.175C326.356 189.191 327.757 187.498 328.574 186.564C329.333 185.747 330.792 184.23 333.185 182.829C333.944 182.362 334.936 182.42 335.986 183.004C329.041 186.973 323.613 196.895 324.08 204.541C323.088 204.015 322.621 203.257 322.562 202.381Z" fill="#F4F4FB"/>
<path d="M336.337 204.015C332.835 206.233 327.816 206.817 325.248 205.299C324.781 197.595 330.267 187.731 337.155 183.763C339.781 185.28 341.882 189.774 341.882 193.86C338.73 195.669 336.104 200.338 336.337 204.015Z" fill="#F4F4FB"/>
<path d="M350.754 191.992C350.754 191.525 350.695 190.941 350.579 190.475C350.287 188.782 349.937 187.906 349.586 187.148C349.411 186.739 349.061 186.155 348.769 185.747C348.477 185.338 348.011 184.755 347.66 184.404C347.368 184.054 346.843 183.646 346.435 183.354C346.201 183.179 345.909 183.004 345.734 182.887C343.575 181.603 340.54 181.778 337.213 183.704C339.839 185.222 341.94 189.716 341.94 193.801C345.151 191.934 347.719 193.626 347.544 197.42C349.586 196.369 350.695 195.027 350.754 193.801C350.754 193.276 350.754 192.576 350.754 191.992Z" fill="#CCCBF6"/>
<path d="M341.88 193.86C341.88 190.767 340.654 187.381 338.903 185.28C338.903 185.339 338.903 185.397 338.903 185.455C338.845 186.447 338.203 187.732 337.678 188.607C337.444 189.016 337.211 189.366 336.977 189.774C336.277 191 335.518 192.167 334.818 193.393C333.942 194.91 333.008 196.37 332.133 197.887C331.433 199.113 330.674 200.338 329.915 201.564C329.74 201.914 329.507 202.265 329.331 202.556C328.748 203.49 327.289 203.899 326.238 203.84C325.304 203.782 324.37 203.315 323.728 202.615C323.437 202.323 323.437 201.798 323.378 201.389C323.261 200.864 323.203 200.338 323.203 199.755C323.203 198.879 323.32 198.004 323.437 197.187C323.612 196.253 323.903 195.319 324.195 194.444C324.545 193.51 324.954 192.576 325.421 191.7C325.888 190.767 326.413 189.891 326.997 189.074C327.58 188.257 328.223 187.44 328.865 186.739C329.507 186.039 330.207 185.397 331.024 184.872C331.724 184.346 332.542 183.879 333.359 183.588C334.117 183.296 334.993 183.062 335.81 183.004C334.818 182.479 333.884 182.42 333.125 182.887C332.775 183.062 332.308 183.354 332.016 183.588L331.141 184.23C330.849 184.463 330.499 184.755 330.207 184.988L329.39 185.747C329.156 185.981 328.806 186.331 328.573 186.564L327.814 187.44C327.58 187.732 327.347 188.082 327.114 188.315L326.472 189.249C326.296 189.541 326.063 189.891 325.888 190.183L325.304 191.175C325.129 191.467 324.954 191.875 324.779 192.167L324.312 193.218C324.195 193.51 324.02 193.977 323.903 194.268L323.553 195.319C323.437 195.669 323.32 196.136 323.203 196.486L322.97 197.595C322.911 197.945 322.794 198.471 322.736 198.821L322.619 199.93C322.561 200.338 322.561 200.864 322.561 201.272C322.561 201.622 322.561 202.031 322.619 202.381C322.678 203.257 323.203 204.074 324.137 204.599L325.304 205.3C327.931 206.817 332.892 206.233 336.394 204.015C336.102 200.338 338.728 195.669 341.88 193.86Z" fill="#E3E2F2"/>
<path d="M294.081 295.591V301.486L276.396 291.272V285.377L294.081 295.591Z" fill="#98A4E0"/>
<path d="M295.422 297.459V303.295C295.422 302.595 294.955 301.953 294.08 301.427V295.591C294.955 296.116 295.422 296.758 295.422 297.459Z" fill="#98A4E0"/>
<mask id="mask21_3_9876" style="mask-type:luminance" maskUnits="userSpaceOnUse" x="294" y="295" width="2" height="9">
<path d="M295.422 297.459V303.295C295.422 302.595 294.955 301.953 294.08 301.427V295.591C294.955 296.116 295.422 296.758 295.422 297.459Z" fill="white"/>
</mask>
<g mask="url(#mask21_3_9876)">
<path d="M295.422 297.459V303.295C295.422 302.595 294.955 301.953 294.08 301.427V295.591C294.955 296.116 295.422 296.758 295.422 297.459Z" fill="#98A4E0"/>
</g>
<path d="M310.073 300.785V306.622C310.073 308.606 309.431 310.591 308.147 312.459V306.622C309.431 304.754 310.073 302.77 310.073 300.785Z" fill="#98A4E0"/>
<mask id="mask22_3_9876" style="mask-type:luminance" maskUnits="userSpaceOnUse" x="308" y="300" width="3" height="13">
<path d="M310.073 300.785V306.622C310.073 308.606 309.431 310.591 308.147 312.459V306.622C309.431 304.754 310.073 302.77 310.073 300.785Z" fill="white"/>
</mask>
<g mask="url(#mask22_3_9876)">
<path d="M310.073 300.785V306.622C310.073 308.606 309.431 310.591 308.147 312.459V306.622C309.431 304.754 310.073 302.77 310.073 300.785Z" fill="#98A4E0"/>
</g>
<path d="M255.734 306.447V300.611C255.734 304.638 258.419 308.723 263.73 311.817C271.727 316.428 283.4 317.595 293.147 315.26V321.097C283.341 323.373 271.668 322.264 263.73 317.653C258.361 314.56 255.734 310.533 255.734 306.447Z" fill="#98A4E0"/>
<mask id="mask23_3_9876" style="mask-type:luminance" maskUnits="userSpaceOnUse" x="255" y="300" width="39" height="23">
<path d="M255.734 306.447V300.611C255.734 304.638 258.419 308.723 263.73 311.817C271.727 316.428 283.4 317.595 293.147 315.26V321.097C283.341 323.373 271.668 322.264 263.73 317.653C258.361 314.56 255.734 310.533 255.734 306.447Z" fill="white"/>
</mask>
<g mask="url(#mask23_3_9876)">
<path d="M293.208 315.26V321.097C291.749 321.447 290.231 321.681 288.714 321.914V316.078C290.231 315.903 291.749 315.611 293.208 315.26Z" fill="#98A4E0"/>
<path d="M288.653 316.077V321.914C279.957 322.965 270.502 321.564 263.731 317.653C258.362 314.56 255.677 310.474 255.735 306.447V300.611C255.735 304.638 258.42 308.723 263.731 311.817C270.56 315.727 279.957 317.186 288.653 316.077Z" fill="#98A4E0"/>
</g>
<path d="M363.767 356L363.709 361.895L293.145 321.155L293.203 315.26L363.767 356Z" fill="#98A4E0"/>
<path d="M389.098 357.109V362.945C389.098 361.661 388.281 360.377 386.588 359.385C383.203 357.459 377.775 357.459 374.448 359.385C372.814 360.377 371.938 361.603 371.938 362.887V357.05C371.938 355.766 372.756 354.541 374.448 353.548C377.775 351.622 383.203 351.622 386.588 353.548C388.281 354.541 389.098 355.825 389.098 357.109Z" fill="#98A4E0"/>
<mask id="mask24_3_9876" style="mask-type:luminance" maskUnits="userSpaceOnUse" x="371" y="352" width="19" height="11">
<path d="M389.098 357.109V362.945C389.098 361.661 388.281 360.377 386.588 359.385C383.203 357.459 377.775 357.459 374.448 359.385C372.814 360.377 371.938 361.603 371.938 362.887V357.05C371.938 355.766 372.756 354.541 374.448 353.548C377.775 351.622 383.203 351.622 386.588 353.548C388.281 354.541 389.098 355.825 389.098 357.109Z" fill="white"/>
</mask>
<g mask="url(#mask24_3_9876)">
<path d="M389.099 357.108V362.945C389.099 361.661 388.282 360.377 386.589 359.385C384.43 358.159 381.453 357.692 378.71 358.042V352.206C381.453 351.855 384.43 352.322 386.589 353.548C388.282 354.54 389.099 355.824 389.099 357.108Z" fill="#98A4E0"/>
<path d="M378.71 352.206V358.042C377.134 358.218 375.675 358.685 374.449 359.385C373.807 359.793 373.282 360.202 372.873 360.669V354.832C373.282 354.365 373.807 353.957 374.449 353.548C375.675 352.848 377.134 352.381 378.71 352.206Z" fill="#98A4E0"/>
<path d="M372.872 354.832V360.669C372.289 361.369 371.938 362.128 371.938 362.886V357.05C371.938 356.291 372.289 355.532 372.872 354.832Z" fill="#98A4E0"/>
</g>
<path d="M397.388 357.108V362.945C397.388 365.455 395.753 367.906 392.485 369.832C385.89 373.626 375.209 373.626 368.613 369.832C365.287 367.906 363.594 365.396 363.652 362.886V357.05C363.652 359.56 365.287 362.069 368.613 363.995C375.209 367.789 385.89 367.789 392.485 363.995C395.753 362.069 397.388 359.618 397.388 357.108Z" fill="#98A4E0"/>
<mask id="mask25_3_9876" style="mask-type:luminance" maskUnits="userSpaceOnUse" x="363" y="357" width="35" height="16">
<path d="M397.388 357.108V362.945C397.388 365.455 395.753 367.906 392.485 369.832C385.89 373.626 375.209 373.626 368.613 369.832C365.287 367.906 363.594 365.396 363.652 362.886V357.05C363.652 359.56 365.287 362.069 368.613 363.995C375.209 367.789 385.89 367.789 392.485 363.995C395.753 362.069 397.388 359.618 397.388 357.108Z" fill="white"/>
</mask>
<g mask="url(#mask25_3_9876)">
<path d="M397.387 357.108V362.945C397.387 364.462 396.804 365.98 395.578 367.322V361.486C396.804 360.085 397.387 358.626 397.387 357.108Z" fill="#98A4E0"/>
<path d="M395.637 361.486V367.322C394.878 368.198 393.827 369.073 392.543 369.832C390.15 371.233 387.232 372.108 384.139 372.458V366.622C387.232 366.213 390.15 365.338 392.543 363.995C393.769 363.237 394.82 362.361 395.637 361.486Z" fill="#98A4E0"/>
<path d="M384.139 366.622V372.458C378.711 373.1 372.874 372.225 368.613 369.832C365.287 367.906 363.594 365.396 363.652 362.886V357.05C363.652 359.56 365.287 362.069 368.613 363.995C372.874 366.388 378.711 367.264 384.139 366.622Z" fill="#98A4E0"/>
</g>
<path d="M392.426 350.163C399.022 353.957 399.08 360.202 392.485 363.995C385.889 367.789 375.208 367.789 368.613 363.995C364.819 361.836 363.244 358.859 363.71 356.058L293.147 315.318C283.341 317.595 271.668 316.486 263.73 311.875C256.785 307.848 254.333 302.186 256.435 297.05L274.119 307.264C275.228 307.906 276.921 308.198 278.438 307.964L289.178 306.272C290.754 306.038 291.921 305.338 292.329 304.462L295.189 298.217C295.598 297.342 295.131 296.35 294.022 295.708L276.337 285.494C285.209 284.268 295.014 285.61 302.018 289.638C310.014 294.249 311.999 301.019 308.088 306.68L378.652 347.42C383.555 347.011 388.691 347.945 392.426 350.163ZM374.508 360.552C377.893 362.478 383.321 362.478 386.648 360.552C389.975 358.626 389.975 355.474 386.59 353.548C383.205 351.622 377.777 351.622 374.45 353.548C371.123 355.474 371.123 358.626 374.508 360.552Z" fill="#CCCBF6"/>
<path d="M136.961 119.853L172.972 140.631C176.358 142.557 179.101 147.401 179.101 151.312V165.553C179.509 170.514 181.377 175.65 184.412 179.152C180.677 179.502 175.949 175.475 171.63 170.047L136.961 150.028C133.576 148.101 130.833 143.257 130.833 139.347V123.471C130.833 119.561 133.576 117.926 136.961 119.853Z" fill="#FFC088"/>
<path d="M156.864 152.42L172.798 161.584V158.14L156.864 148.918V152.42Z" fill="#F4F4FB"/>
<path d="M134.86 130.008V133.51L172.797 155.397V151.954L134.86 130.008Z" fill="#F4F4FB"/>
<defs>
<linearGradient id="paint0_linear_3_9876" x1="458.727" y1="487.252" x2="130.35" y2="333.115" gradientUnits="userSpaceOnUse">
<stop offset="0.00017593" stop-color="#4422A1"/>
<stop offset="0.1162" stop-color="#4A239F"/>
<stop offset="0.2662" stop-color="#5A2699"/>
<stop offset="0.4347" stop-color="#742B90"/>
<stop offset="0.6157" stop-color="#993283"/>
<stop offset="0.6192" stop-color="#9A3283"/>
<stop offset="0.7293" stop-color="#B3377A"/>
<stop offset="0.9627" stop-color="#F44263"/>
<stop offset="1" stop-color="#FF445F"/>
</linearGradient>
</defs>
</svg>
