<svg width="484" height="453" viewBox="0 0 484 453" fill="none" xmlns="http://www.w3.org/2000/svg">
<path d="M258.8 124.74C261.824 123.146 264.353 124.355 265.067 124.74C264.518 124.41 263.803 124.41 263.088 124.85C262.484 124.52 261.439 124.465 260.834 124.85C260.065 124.41 259.405 124.41 258.8 124.74Z" fill="#BFBEED"/>
<path d="M263.198 124.795C261.989 124.3 261.054 124.685 260.779 124.795C260.065 124.41 259.35 124.355 258.8 124.685C259.24 124.465 259.24 124.465 259.515 124.355L259.845 124.245C259.955 124.19 260.065 124.19 260.175 124.135L260.504 124.08C260.614 124.08 260.724 124.025 260.834 124.025L261.109 123.97C261.219 123.97 261.329 123.97 261.384 123.915H261.659C261.769 123.915 261.879 123.915 261.934 123.915H262.209C262.319 123.915 262.429 123.915 262.484 123.915L262.758 123.97C262.868 123.97 262.978 124.025 263.033 124.025L263.308 124.08C263.418 124.08 263.528 124.135 263.638 124.135L263.968 124.245C264.078 124.3 264.188 124.355 264.298 124.355L264.628 124.52C264.737 124.575 264.902 124.63 265.012 124.74C264.573 124.465 263.913 124.465 263.198 124.795Z" fill="#BFBEED"/>
<path d="M454.835 240.68C454.725 244.089 453.021 245.793 451.646 246.562C452.471 246.068 453.021 244.913 453.021 243.209C454.23 242.549 454.835 241.615 454.835 240.68Z" fill="#98A4E0"/>
<path d="M449.669 233.534L263.087 124.905C263.142 124.905 263.142 124.85 263.197 124.85L449.779 233.534C449.724 233.479 449.724 233.534 449.669 233.534Z" fill="#BFBEED"/>
<path d="M449.779 233.479L263.197 124.795C263.911 124.41 264.571 124.41 265.121 124.74L283.757 135.625L302.393 146.51L321.03 157.395L339.666 168.28L358.302 179.165L376.938 190.049L395.575 200.934L414.211 211.819L432.847 222.704L451.483 233.589C451.153 233.094 450.494 233.094 449.779 233.479Z" fill="#BFBEED"/>
<path d="M454.835 239.361V240.625C454.835 241.56 454.23 242.495 453.021 243.209V241.945C454.23 241.23 454.835 240.296 454.835 239.361Z" fill="#BFBEED"/>
<path d="M451.65 233.424C454.398 235.128 454.838 237.877 454.838 239.416C454.838 240.35 454.233 241.285 453.024 242C453.024 239.141 451.54 235.953 449.726 234.908C450.33 234.578 450.33 233.973 449.726 233.589C450.44 233.094 451.1 233.094 451.65 233.424Z" fill="#BFBEED"/>
<path d="M452.912 240.681C452.912 240.571 453.022 240.461 453.077 240.351C453.242 240.076 453.517 239.306 453.572 238.482C453.627 237.657 453.462 236.832 453.132 236.118C452.528 234.743 452.198 234.578 449.779 233.424C450.493 233.039 451.153 233.039 451.648 233.369C452.143 233.644 452.308 233.809 452.747 234.194L453.022 234.468C453.187 234.633 453.352 234.908 453.517 235.073L453.737 235.458C453.847 235.623 453.957 235.898 454.067 236.063L454.232 236.502C454.287 236.667 454.397 236.942 454.452 237.107L454.562 237.602C454.617 237.822 454.672 238.042 454.672 238.262L454.726 238.756C454.726 238.921 454.726 239.141 454.726 239.361C454.726 240.296 454.122 241.23 452.912 241.945C453.022 241.505 452.967 241.12 452.912 240.681Z" fill="#BFBEED"/>
<path d="M3.88381 284.77C1.13511 283.066 0.695312 280.262 0.695312 278.778C0.695312 279.712 1.30003 280.647 2.56443 281.416C2.50946 283.066 3.0592 284.275 3.88381 284.77Z" fill="#98A4E0"/>
<path d="M260.833 124.849L5.91777 271.74C5.91777 271.74 5.86279 271.74 5.86279 271.685L260.778 124.794C260.778 124.849 260.833 124.849 260.833 124.849Z" fill="#BFBEED"/>
<path d="M260.833 124.85L5.86335 271.686C5.14868 271.301 4.43402 271.246 3.88428 271.576L29.3923 256.898L54.9003 242.219L80.4083 227.541L105.916 212.863L131.424 198.185L156.932 183.507L182.44 168.829L207.948 154.151L233.456 139.473L258.964 124.795C259.349 124.41 260.064 124.41 260.833 124.85Z" fill="#BFBEED"/>
<path d="M2.56443 280.096V281.361C1.30003 280.701 0.695312 279.712 0.695312 278.777V277.513C0.695312 278.447 1.30003 279.382 2.56443 280.096Z" fill="#CCCBF6"/>
<path d="M0.695312 277.513C0.805261 274.16 2.50946 272.456 3.88381 271.631C4.43355 271.301 5.14822 271.301 5.91786 271.741C5.31314 272.071 5.31314 272.676 5.91786 273.06C4.04873 274.105 2.56443 277.293 2.50946 280.152C1.30003 279.382 0.695312 278.448 0.695312 277.513Z" fill="#BFBEED"/>
<path d="M5.86288 271.686C5.47806 271.906 4.21366 273.28 3.93879 273.83C3.60894 274.434 3.44402 275.259 3.49899 276.139C2.94925 277.348 2.61941 278.777 2.61941 280.152C1.30003 279.382 0.695312 278.448 0.695312 277.513C0.695312 276.853 0.695312 276.853 0.750287 276.468L0.860235 275.974C0.915209 275.809 0.970183 275.534 1.02516 275.369L1.19008 274.929C1.24505 274.764 1.355 274.489 1.46495 274.324L1.68485 273.94C1.7948 273.775 1.95972 273.555 2.06967 273.39L2.34454 273.06C2.50946 272.895 2.67438 272.675 2.8393 272.51L3.11417 272.235C3.49899 271.961 3.55397 271.906 3.93879 271.686C4.43355 271.301 5.14822 271.301 5.86288 271.686Z" fill="#BFBEED"/>
<path d="M198.053 390.1L452.968 243.209C452.968 244.913 452.419 246.068 451.594 246.562L438.84 253.929L426.086 261.295L413.332 268.662L400.578 276.029L387.824 283.395L375.07 290.762L362.316 298.128L349.562 305.495L336.808 312.861L324.054 320.228L311.3 327.594L298.546 334.961L285.792 342.327L273.038 349.694L260.284 357.06L247.53 364.427L234.776 371.794L222.022 379.16L209.268 386.527L196.514 393.893C197.559 392.959 198.053 391.749 198.053 390.1Z" fill="#98A4E0"/>
<path d="M2.56481 281.416L189.147 390.045C189.147 391.749 189.642 392.904 190.466 393.399L171.83 382.514L153.194 371.629L134.558 360.744L115.921 349.859L97.2853 338.974L78.649 328.089L60.0128 317.204L41.1567 306.484L22.5204 295.6L3.88419 284.715C3.05958 284.275 2.50984 283.065 2.56481 281.416Z" fill="#98A4E0"/>
<path d="M453.022 241.945L452.967 243.209L198.052 390.1L198.107 388.835L453.022 241.945Z" fill="#CCCBF6"/>
<path d="M189.146 388.781V390.045L2.56348 281.416V280.097L189.146 388.781Z" fill="#CCCBF6"/>
<path d="M196.731 393.454C193.708 395.048 191.179 393.839 190.464 393.454C189.64 392.959 189.145 391.805 189.145 390.1C191.619 391.53 195.632 391.53 198.106 390.155C198.051 391.75 197.556 392.959 196.731 393.454Z" fill="#98A4E0"/>
<path d="M449.67 233.534C450.274 233.864 450.274 234.468 449.67 234.853C364.735 283.78 279.745 332.762 194.755 381.689C194.15 382.019 193.105 382.019 192.501 381.689C130.325 345.461 68.1491 309.233 5.91838 273.06C5.31366 272.73 5.31366 272.126 5.91838 271.741C90.9084 222.759 175.843 173.832 260.833 124.85C261.438 124.52 262.483 124.52 263.087 124.85C325.263 161.078 387.494 197.306 449.67 233.534Z" fill="#F4F4FB"/>
<path d="M438.181 233.479L261.934 130.842L24.3359 268.113L200.583 370.749L438.181 233.479Z" fill="url(#paint0_linear_3_9415)"/>
<path d="M198.106 388.836V390.1C195.632 391.53 191.619 391.475 189.145 390.045V388.781C191.619 390.21 195.632 390.21 198.106 388.836Z" fill="#CCCBF6"/>
<path d="M194.753 381.689L449.668 234.798C451.262 235.733 452.582 238.207 452.911 240.68L197.996 387.571C197.667 385.097 196.347 382.624 194.753 381.689Z" fill="#E3E2F2"/>
<path d="M197.996 387.571L452.911 240.68C452.966 241.12 453.021 241.505 452.966 241.945L198.106 388.835C198.106 388.396 198.051 388.011 197.996 387.571Z" fill="#CCCBF6"/>
<path d="M5.91768 273.06L192.555 381.689C191.565 382.239 190.686 383.393 190.081 384.768L3.44385 276.139C4.10354 274.764 4.98312 273.61 5.91768 273.06Z" fill="#EDECF8"/>
<path d="M3.44306 276.139L190.025 384.823C189.476 386.032 189.146 387.462 189.091 388.836L2.56348 280.097C2.56348 278.778 2.89332 277.348 3.44306 276.139Z" fill="#E3E2F2"/>
<path d="M194.754 381.689C196.623 382.789 198.108 385.977 198.053 388.781C195.579 390.21 191.566 390.155 189.092 388.726C189.092 385.867 190.631 382.734 192.5 381.634C193.105 382.074 194.149 382.074 194.754 381.689Z" fill="#CCCBF6"/>
<path d="M9.59959 283.78C9.59959 284.165 9.54462 284.495 9.37969 284.77C9.04985 285.43 8.28021 285.54 7.40063 285.045C6.19119 284.33 5.20166 282.626 5.20166 281.252C5.20166 280.372 5.58648 279.822 6.13622 279.712C6.46607 279.657 6.90586 279.712 7.34565 279.987C8.61006 280.702 9.59959 282.406 9.59959 283.78Z" fill="#E3E2F2"/>
<path d="M9.59928 283.78C9.59928 284.165 9.54431 284.495 9.37939 284.77C9.04954 284.88 8.60975 284.77 8.11498 284.495C6.90555 283.78 5.91602 282.076 5.91602 280.702C5.91602 280.317 6.02596 279.987 6.13591 279.712C6.46576 279.657 6.90555 279.712 7.34534 279.987C8.60975 280.702 9.59928 282.406 9.59928 283.78Z" fill="#0B1B38"/>
<path d="M15.2627 287.024C15.2627 288.398 16.2522 290.102 17.4617 290.817L23.5088 294.335C23.8387 294.555 24.1685 294.61 24.4983 294.61C24.8832 294.61 25.213 294.445 25.4329 294.115C25.5978 293.84 25.7078 293.51 25.7078 293.071C25.7078 291.696 24.7182 289.992 23.5088 289.277L17.4617 285.759C17.1868 285.649 16.9669 285.539 16.802 285.539C16.692 285.484 16.5821 285.484 16.4721 285.484C15.7575 285.484 15.2627 286.089 15.2627 287.024Z" fill="#E3E2F2"/>
<path d="M16.5269 286.584C16.5269 287.958 17.5164 289.662 18.7258 290.377L24.773 293.896C24.9929 294.005 25.2128 294.115 25.3777 294.17C25.5426 293.895 25.6526 293.566 25.6526 293.126C25.6526 291.751 24.663 290.047 23.4536 289.333L17.4064 285.814C17.1865 285.649 16.9666 285.539 16.8017 285.539C16.6368 285.759 16.5269 286.144 16.5269 286.584Z" fill="#0B1B38"/>
<path d="M344.779 188.839L309.76 168.609C307.836 167.509 307.836 165.75 309.76 164.651L314.983 161.627C316.907 160.528 319.986 160.528 321.855 161.627L356.873 181.858C358.797 182.957 358.797 184.716 356.873 185.816L351.651 188.839C349.782 189.939 346.703 189.939 344.779 188.839Z" fill="#F4F4FB"/>
<path d="M336.696 176.251C334.772 177.35 334.772 179.164 336.696 180.264C338.621 181.363 341.699 181.363 343.623 180.264C345.547 179.164 345.547 177.35 343.623 176.251C341.699 175.151 338.621 175.151 336.696 176.251Z" fill="#010958"/>
<path d="M346.758 182.132C345.549 182.847 345.549 184.002 346.758 184.661C347.968 185.376 349.947 185.376 351.156 184.661C352.366 183.947 352.366 182.792 351.156 182.132C349.947 181.418 347.968 181.418 346.758 182.132Z" fill="#010958"/>
<path d="M322.899 171.798L315.972 167.785C314.598 167.015 314.598 165.696 315.972 164.926C317.347 164.156 319.6 164.156 320.92 164.926L327.847 168.939C329.221 169.709 329.221 171.028 327.847 171.798C326.527 172.622 324.273 172.622 322.899 171.798Z" fill="#010958"/>
<path d="M235.599 299.338C212.62 299.338 189.641 294.281 172.104 284.165C154.952 274.27 145.497 261.021 145.497 246.948C145.497 232.875 154.952 219.626 172.104 209.73C207.123 189.5 264.021 189.5 299.039 209.73C316.191 219.626 325.647 232.875 325.647 246.948C325.647 261.021 316.191 274.27 299.039 284.165C281.558 294.281 258.578 299.338 235.599 299.338ZM235.599 196.592C213.005 196.592 190.355 201.539 173.149 211.49C156.656 221 147.586 233.589 147.586 246.948C147.586 260.307 156.656 272.896 173.149 282.406C207.562 302.307 263.636 302.307 298.05 282.406C314.542 272.896 323.613 260.307 323.613 246.948C323.613 233.589 314.542 221 298.05 211.49C280.843 201.539 258.194 196.592 235.599 196.592Z" fill="#F47300"/>
<path d="M235.599 314.511C205.913 314.511 176.172 307.969 153.578 294.94C131.478 282.186 119.274 265.144 119.274 247.003C119.274 228.861 131.423 211.819 153.578 199.065C198.821 172.953 272.432 172.953 317.621 199.065C339.72 211.819 351.924 228.861 351.924 247.003C351.924 265.144 339.775 282.186 317.621 294.94C295.026 307.969 265.285 314.511 235.599 314.511ZM235.599 181.419C206.243 181.419 176.942 187.851 154.567 200.769C133.127 213.139 121.308 229.576 121.308 246.948C121.308 264.375 133.127 280.757 154.567 293.126C199.261 318.909 271.937 318.909 316.631 293.126C338.071 280.757 349.89 264.32 349.89 246.948C349.89 229.521 338.071 213.139 316.631 200.769C294.257 187.851 264.955 181.419 235.599 181.419Z" fill="#F47300"/>
<path d="M235.598 285.594C218.721 285.594 201.844 281.911 188.98 274.489C176.336 267.178 169.354 257.447 169.354 247.002C169.354 236.557 176.336 226.827 188.98 219.515C214.653 204.672 256.488 204.672 282.216 219.515C294.86 226.827 301.842 236.557 301.842 247.002C301.842 257.447 294.86 267.178 282.216 274.489C269.352 281.856 252.475 285.594 235.598 285.594ZM235.598 210.335C219.106 210.335 202.558 213.963 190.024 221.22C178.04 228.146 171.443 237.272 171.443 246.947C171.443 256.623 178.04 265.749 190.024 272.675C215.147 287.188 256.048 287.188 281.226 272.675C293.211 265.749 299.808 256.623 299.808 246.947C299.808 237.272 293.211 228.146 281.226 221.22C268.637 213.963 252.09 210.335 235.598 210.335Z" fill="#F47300"/>
<path d="M235.6 270.806C225.264 270.806 214.929 268.552 207.068 263.989C199.262 259.481 194.974 253.434 194.974 246.947C194.974 240.46 199.262 234.413 207.068 229.905C222.791 220.835 248.408 220.835 264.131 229.905C271.937 234.413 276.225 240.46 276.225 246.947C276.225 253.434 271.937 259.481 264.131 263.989C256.27 268.552 245.935 270.806 235.6 270.806ZM235.6 225.068C225.649 225.068 215.699 227.267 208.112 231.61C200.966 235.733 197.008 241.175 197.008 246.892C197.008 252.61 200.966 258.052 208.112 262.175C223.285 270.916 247.969 270.916 263.142 262.175C270.288 258.052 274.246 252.61 274.246 246.892C274.246 241.175 270.288 235.733 263.142 231.61C255.5 227.267 245.55 225.068 235.6 225.068Z" fill="#F47300"/>
<path opacity="0.502" d="M162.595 89.9411C150.831 93.5694 139.781 98.2422 129.885 103.959C117.186 111.271 107.511 119.682 100.749 128.643L100.639 90.216C107.401 81.2552 117.131 72.8441 129.775 65.5326C139.671 59.8153 150.721 55.1425 162.485 51.5142L162.595 89.9411Z" fill="#4F389E"/>
<path opacity="0.502" d="M137.747 131.722C145.498 127.873 153.8 124.63 162.485 121.936L162.595 160.363C153.854 163.057 145.498 166.355 137.747 170.204V131.722Z" fill="#4F389E"/>
<path opacity="0.502" d="M365.341 117.044C365.286 96.7033 351.927 76.3629 325.265 60.8602C299.867 46.1271 266.882 38.3208 233.458 37.5511L233.568 76.8027C266.992 77.6273 299.977 85.3786 325.375 100.112C352.037 115.614 365.396 135.955 365.451 156.295L365.341 117.044Z" fill="#4F389E"/>
<path opacity="0.502" d="M298.931 155.36C306.517 157.724 313.664 160.583 320.151 163.991C322.735 165.311 325.154 166.74 327.408 168.169V196.261C325.154 194.832 322.79 193.457 320.206 192.138C313.664 188.73 306.517 185.871 298.876 183.507V155.36H298.931Z" fill="#4F389E"/>
<path opacity="0.502" d="M294.533 102.585C306.627 106.159 317.952 110.776 328.122 116.494V155.69C317.952 149.973 306.572 145.3 294.533 141.782V102.585Z" fill="#4F389E"/>
<path opacity="0.502" d="M294.533 0.828125C306.627 4.40144 317.952 9.01927 328.122 14.7366V53.9331C317.952 48.2158 306.572 43.543 294.533 40.0247V0.828125Z" fill="#4F389E"/>
<path opacity="0.3" d="M256.161 133.096V171.028C247.201 169.709 238.02 168.939 228.784 168.719L228.674 130.787C237.91 130.952 247.146 131.777 256.161 133.096Z" fill="#4F389E"/>
<path d="M405.416 269.707L404.702 269.322V265.034L405.416 265.474V269.707Z" fill="#BFBEED"/>
<path d="M405.416 265.474L404.702 265.034L419.49 256.513L420.204 256.898L405.416 265.474Z" fill="#F4F4FB"/>
<path d="M420.203 256.897L420.258 261.185L405.415 269.706V265.473L420.203 256.897Z" fill="#CCCBF6"/>
<path d="M393.43 276.633L392.66 276.193V271.905L393.375 272.345L393.43 276.633Z" fill="#BFBEED"/>
<path d="M393.375 272.345L392.66 271.905L400.961 267.123L401.676 267.562L393.375 272.345Z" fill="#F4F4FB"/>
<path d="M401.675 267.562L401.73 271.85L393.429 276.633L393.374 272.345L401.675 267.562Z" fill="#CCCBF6"/>
<path d="M298.986 107.093C298.656 107.093 298.381 106.818 298.326 106.488C297.502 99.4518 295.632 92.8549 292.939 87.3575C292.774 87.0276 292.939 86.6428 293.269 86.4779C293.598 86.313 293.983 86.4779 294.148 86.8078C296.897 92.4151 298.766 99.1769 299.646 106.379C299.701 106.763 299.426 107.093 299.041 107.148C299.041 107.038 299.041 107.093 298.986 107.093Z" fill="#010958"/>
<path d="M260.283 35.0223L250.718 40.5746C254.786 38.2108 260.448 38.5406 266.66 42.1139L276.226 36.5615C270.014 32.9882 264.351 32.6584 260.283 35.0223Z" fill="#4F389E"/>
<mask id="mask0_3_9415" style="mask-type:luminance" maskUnits="userSpaceOnUse" x="250" y="33" width="27" height="10">
<path d="M260.283 35.0223L250.718 40.5746C254.786 38.2108 260.448 38.5406 266.66 42.1139L276.226 36.5615C270.014 32.9882 264.351 32.6584 260.283 35.0223Z" fill="white"/>
</mask>
<g mask="url(#mask0_3_9415)">
<path d="M266.66 42.1688L276.226 36.6165C270.014 33.0431 264.351 32.6583 260.283 35.0772L250.718 40.6296C254.786 38.2107 260.448 38.5405 266.66 42.1688Z" fill="#4F389E"/>
</g>
<path d="M282.492 95.2737L292.058 89.7213C296.071 87.3574 298.6 82.4097 298.6 75.318C298.655 61.0797 288.649 43.7079 276.225 36.5613L266.66 42.1137C279.029 49.2603 289.089 66.6321 289.034 80.8704C289.034 87.9621 286.505 92.9647 282.492 95.2737Z" fill="#4F389E"/>
<mask id="mask1_3_9415" style="mask-type:luminance" maskUnits="userSpaceOnUse" x="266" y="36" width="33" height="60">
<path d="M282.492 95.2737L292.058 89.7213C296.071 87.3574 298.6 82.4097 298.6 75.318C298.655 61.0797 288.649 43.7079 276.225 36.5613L266.66 42.1137C279.029 49.2603 289.089 66.6321 289.034 80.8704C289.034 87.9621 286.505 92.9647 282.492 95.2737Z" fill="white"/>
</mask>
<g mask="url(#mask1_3_9415)">
<path d="M282.492 95.2737L292.058 89.7213C296.071 87.3574 298.6 82.4097 298.6 75.318C298.655 61.0797 288.649 43.7079 276.225 36.5613L266.66 42.1137C279.029 49.2603 289.089 66.6321 289.034 80.8704C289.034 87.9621 286.505 92.9647 282.492 95.2737Z" fill="#4F389E"/>
</g>
<path d="M266.659 42.1688C254.235 35.0222 244.175 40.7945 244.12 55.0328C244.065 69.2711 254.07 86.6429 266.494 93.7895C278.864 100.936 288.979 95.1639 289.034 80.9806C289.089 66.6323 279.083 49.3155 266.659 42.1688Z" fill="#1F0159"/>
<path d="M285.462 120.837C284.253 120.177 283.263 119.682 281.284 119.078C280.844 118.968 279.36 118.528 277.601 118.473C275.677 118.418 274.302 118.748 273.753 118.858C272.268 119.243 271.169 119.847 270.509 120.232C273.533 118.418 277.601 118.858 281.779 121.167C283.153 120.342 284.418 120.287 285.462 120.837Z" fill="#8491D5"/>
<mask id="mask2_3_9415" style="mask-type:luminance" maskUnits="userSpaceOnUse" x="270" y="118" width="16" height="4">
<path d="M285.462 120.837C284.253 120.177 283.263 119.682 281.284 119.078C280.844 118.968 279.36 118.528 277.601 118.473C275.677 118.418 274.302 118.748 273.753 118.858C272.268 119.243 271.169 119.847 270.509 120.232C273.533 118.418 277.601 118.858 281.779 121.167C283.153 120.342 284.418 120.287 285.462 120.837Z" fill="white"/>
</mask>
<g mask="url(#mask2_3_9415)">
<path d="M285.463 120.837C279.856 117.868 274.963 117.703 270.455 120.232C273.479 118.418 277.547 118.858 281.725 121.167C283.154 120.342 284.419 120.287 285.463 120.837Z" fill="#8491D5"/>
<path d="M281.669 121.112C281.724 121.112 281.834 121.112 281.944 121.112C283.263 120.342 284.473 120.342 285.517 120.892C285.297 120.782 284.967 120.617 284.748 120.507C284.473 120.397 284.143 120.232 283.868 120.122L283.043 119.792C282.769 119.682 282.384 119.572 282.109 119.463L281.284 119.188C281.009 119.133 280.625 119.023 280.295 118.968L279.47 118.803C279.14 118.748 278.755 118.693 278.426 118.693L277.546 118.638C277.216 118.638 276.776 118.638 276.501 118.638L275.677 118.693C275.347 118.748 274.907 118.803 274.577 118.858L273.753 119.023C273.423 119.133 272.983 119.243 272.653 119.353L271.884 119.682C271.444 119.902 270.894 120.177 270.509 120.397C273.478 118.418 277.546 118.858 281.669 121.112Z" fill="#8491D5"/>
</g>
<path d="M319.765 208.136L270.728 149.258C269.574 150.908 269.189 151.952 269.574 152.392L272.048 155.36L274.522 158.329L276.995 161.298L279.469 164.266L281.943 167.235L284.417 170.203L286.891 173.172L289.365 176.141L291.839 179.109L294.312 182.078L296.786 185.046L298.985 187.74L301.459 190.709L303.933 193.677L306.407 196.646L308.881 199.615L311.354 202.583L313.828 205.552L316.302 208.52L318.776 211.489C318.281 210.884 318.666 209.785 319.765 208.136Z" fill="#8491D5"/>
<path d="M270.51 120.232L268.971 121.167C271.994 119.352 276.062 119.792 280.24 122.101L281.78 121.167C277.602 118.858 273.534 118.418 270.51 120.232Z" fill="#8491D5"/>
<mask id="mask3_3_9415" style="mask-type:luminance" maskUnits="userSpaceOnUse" x="268" y="119" width="14" height="4">
<path d="M270.51 120.232L268.971 121.167C271.994 119.352 276.062 119.792 280.24 122.101L281.78 121.167C277.602 118.858 273.534 118.418 270.51 120.232Z" fill="white"/>
</mask>
<g mask="url(#mask3_3_9415)">
<path d="M280.239 122.101L281.779 121.167C281.724 121.167 281.669 121.112 281.669 121.112L280.129 122.046C280.184 122.046 280.184 122.046 280.239 122.101Z" fill="#8491D5"/>
<path d="M280.13 122.046L281.67 121.111C277.547 118.857 273.479 118.473 270.51 120.287L268.971 121.221C271.939 119.352 276.007 119.792 280.13 122.046Z" fill="#8491D5"/>
</g>
<path d="M270.729 149.258C266.991 144.75 265.782 138.538 268.146 135.845C269.575 134.195 271.884 134.195 274.303 135.57C274.248 131.722 275.622 127.543 277.656 124.685C277.766 124.52 279.855 122.431 280.295 122.101C276.887 119.737 271.994 119.407 269.025 121.166C268.805 121.331 268.53 121.496 268.311 121.661C268.036 121.881 267.651 122.156 267.376 122.431L266.716 123.036L266.167 123.64L265.397 124.575C265.012 125.125 264.572 125.894 264.242 126.444L263.748 127.598C263.528 128.148 263.308 128.973 263.143 129.523L262.868 130.787C262.813 131.337 262.703 132.051 262.648 132.656L262.593 134.03C262.593 134.525 262.593 135.24 262.648 135.735L262.758 137.109C262.813 137.604 262.923 138.208 263.033 138.703L263.363 140.133C263.473 140.572 263.638 141.177 263.803 141.617L264.242 142.991C264.407 143.431 264.627 143.981 264.792 144.421L265.397 145.795C265.617 146.18 265.892 146.729 266.112 147.169L266.881 148.489C267.156 148.873 267.431 149.423 267.706 149.808L268.585 151.072C268.86 151.457 269.245 151.952 269.575 152.337C269.19 151.952 269.575 150.907 270.729 149.258Z" fill="#8491D5"/>
<path d="M294.587 129.248C291.839 125.455 289.09 122.871 285.517 120.837C284.472 120.232 283.153 120.287 281.833 121.167C285.242 123.036 288.76 126.224 291.729 130.402C293.433 129.358 294.423 128.973 294.587 129.248Z" fill="#E3E2F2"/>
<path d="M281.78 121.167C286.508 123.861 291.456 129.798 291.841 130.293C293.435 129.303 294.369 128.973 294.534 129.248C294.424 129.083 294.259 128.863 294.149 128.698C294.04 128.534 293.875 128.314 293.765 128.204L293.38 127.709C293.27 127.544 293.105 127.379 292.995 127.214L292.61 126.719C292.5 126.555 292.335 126.39 292.17 126.225L291.731 125.785C291.621 125.675 291.401 125.455 291.291 125.345L290.851 124.905C290.741 124.795 290.521 124.63 290.411 124.465L289.971 124.026C289.806 123.916 289.642 123.751 289.532 123.641L289.037 123.256C288.872 123.146 288.707 122.981 288.542 122.871L288.047 122.486C287.882 122.376 287.717 122.212 287.553 122.102L287.058 121.772C286.893 121.662 286.673 121.552 286.563 121.442L286.068 121.112C285.903 121.002 285.683 120.892 285.519 120.782C284.639 120.287 283.539 120.232 282.44 120.782C282.165 120.947 282 121.057 281.78 121.167Z" fill="#BFBEED"/>
<path d="M290.135 131.337L291.674 130.402C291.29 129.853 290.905 129.303 290.465 128.808L288.926 129.743C289.366 130.237 289.75 130.787 290.135 131.337Z" fill="#E3E2F2"/>
<path d="M288.925 129.742L290.464 128.808C287.771 125.4 284.747 122.816 281.779 121.167L280.239 122.101C283.208 123.75 286.231 126.334 288.925 129.742Z" fill="#E3E2F2"/>
<path d="M278.977 140.023C281.725 137.274 286.728 133.426 290.136 131.337C287.168 127.104 283.704 123.971 280.241 122.101C276.833 124.19 274.139 130.183 274.249 135.57C275.843 136.45 277.492 137.879 278.977 140.023Z" fill="#BFBEED"/>
<path d="M274.249 135.57C275.843 136.45 277.437 137.934 278.977 140.078C280.791 138.264 283.649 135.9 286.343 133.976C286.343 133.976 286.343 133.976 286.343 133.921C283.814 129.578 283.649 127.324 285.958 127.874C286.343 127.984 287.443 128.368 288.927 129.743C286.233 126.334 283.21 123.751 280.241 122.101C276.833 124.135 274.194 130.183 274.249 135.57Z" fill="#BFBEED"/>
<path d="M274.249 135.57C275.844 136.45 277.438 137.934 278.977 140.078C280.297 138.759 282.166 137.164 284.145 135.625C284.09 135.515 283.98 135.405 283.925 135.295C278.537 126.884 278.098 126.169 277.988 124.245C275.734 126.994 274.194 131.447 274.249 135.57Z" fill="#BFBEED"/>
<path d="M274.248 135.57C271.829 134.25 269.52 134.25 268.091 135.845C265.727 138.538 266.936 144.75 270.674 149.258C287.002 168.829 303.384 188.51 319.766 208.136C320.481 209.015 321.196 209.62 321.965 210.005C323.34 210.774 324.604 210.719 325.429 209.84C326.638 208.411 326.198 205.442 324.439 202.913C309.376 182.078 294.203 161.078 279.031 140.023C277.491 137.879 275.842 136.449 274.248 135.57Z" fill="#98A4E0"/>
<path d="M340.107 192.248C324.934 171.248 309.761 150.248 294.588 129.248C294.423 128.973 293.433 129.357 291.674 130.402L337.248 193.457C338.952 192.413 339.942 192.028 340.107 192.248Z" fill="#CCCBF6"/>
<mask id="mask4_3_9415" style="mask-type:luminance" maskUnits="userSpaceOnUse" x="291" y="129" width="50" height="65">
<path d="M340.107 192.248C324.934 171.248 309.761 150.248 294.588 129.248C294.423 128.973 293.433 129.357 291.674 130.402L337.248 193.457C338.952 192.413 339.942 192.028 340.107 192.248Z" fill="white"/>
</mask>
<g mask="url(#mask4_3_9415)">
<path d="M291.674 130.403L337.248 193.458C337.303 193.403 337.358 193.403 337.468 193.348L291.894 130.293C291.839 130.348 291.729 130.348 291.674 130.403Z" fill="#E3E2F2"/>
<path d="M291.894 130.292L337.468 193.348C338.402 192.798 339.062 192.468 339.502 192.303L293.983 129.303C293.488 129.413 292.774 129.743 291.894 130.292Z" fill="#CCCBF6"/>
<path d="M293.929 129.248L339.448 192.248C339.778 192.138 339.998 192.083 340.052 192.193L337.799 189.06L335.545 185.926L333.291 182.792L331.037 179.659L328.783 176.525L326.529 173.392L324.275 170.258L322.021 167.125L319.767 163.991L317.513 160.858L315.259 157.724L313.005 154.591L310.751 151.457L308.497 148.324L306.243 145.19L303.989 142.057L301.736 138.923L299.482 135.79L297.228 132.656L294.974 129.523C294.479 129.138 294.314 129.138 293.929 129.248Z" fill="#BFBEED"/>
</g>
<path d="M338.787 215.777C339.942 215.063 340.272 214.733 341.261 213.688C341.591 213.303 342.141 212.644 342.746 211.434C343.24 210.555 344.065 208.576 344.23 205.662C344.45 201.264 342.91 196.371 339.997 192.248C339.832 192.028 338.897 192.413 337.138 193.458C342.526 201.099 343.845 210.28 340.162 214.568C339.832 215.063 339.337 215.447 338.787 215.777Z" fill="#8491D5"/>
<mask id="mask5_3_9415" style="mask-type:luminance" maskUnits="userSpaceOnUse" x="337" y="192" width="8" height="24">
<path d="M338.787 215.777C339.942 215.063 340.272 214.733 341.261 213.688C341.591 213.303 342.141 212.644 342.746 211.434C343.24 210.555 344.065 208.576 344.23 205.662C344.45 201.264 342.91 196.371 339.997 192.248C339.832 192.028 338.897 192.413 337.138 193.458C342.526 201.099 343.845 210.28 340.162 214.568C339.832 215.063 339.337 215.447 338.787 215.777Z" fill="white"/>
</mask>
<g mask="url(#mask5_3_9415)">
<path d="M338.786 215.777C345.658 211.269 346.208 201.319 340.051 192.248C339.886 192.028 338.951 192.413 337.192 193.458C342.579 201.099 343.899 210.28 340.215 214.568C339.831 215.063 339.336 215.447 338.786 215.777Z" fill="#8491D5"/>
<path d="M339.5 192.248C344.447 199.45 343.623 204.947 342.358 207.036C342.523 210.06 341.863 212.754 340.324 214.513C339.884 215.008 339.39 215.447 338.84 215.777C339.005 215.667 339.28 215.502 339.445 215.337C339.664 215.172 340.049 214.898 340.269 214.678L340.819 214.183L341.314 213.633L341.918 212.864C342.193 212.424 342.578 211.874 342.798 211.434L343.238 210.5C343.403 210.06 343.623 209.455 343.733 209.015L343.952 208.026C344.007 207.586 344.117 207.036 344.172 206.651L344.282 205.607C344.282 205.222 344.282 204.727 344.282 204.288L344.227 203.243C344.172 202.858 344.117 202.418 344.117 202.034L343.952 200.989C343.897 200.659 343.788 200.22 343.678 199.89L343.403 198.9C343.293 198.57 343.183 198.185 343.073 197.856L342.688 196.866C342.578 196.591 342.413 196.151 342.248 195.877L341.753 194.942C341.589 194.667 341.369 194.282 341.259 194.007L340.709 193.073C340.544 192.798 340.269 192.413 340.104 192.138C340.049 192.138 339.829 192.138 339.5 192.248Z" fill="#8491D5"/>
</g>
<path d="M335.707 194.392L337.247 193.458L291.673 130.403L290.134 131.337L335.707 194.392Z" fill="#E3E2F2"/>
<path d="M337.247 216.712L338.786 215.777C339.336 215.447 339.831 215.063 340.27 214.513C343.954 210.28 342.634 201.044 337.247 193.403L335.708 194.337C341.095 201.979 342.414 211.159 338.731 215.447C338.291 215.997 337.797 216.382 337.247 216.712Z" fill="#8491D5"/>
<mask id="mask6_3_9415" style="mask-type:luminance" maskUnits="userSpaceOnUse" x="335" y="193" width="8" height="24">
<path d="M337.247 216.712L338.786 215.777C339.336 215.447 339.831 215.063 340.27 214.513C343.954 210.28 342.634 201.044 337.247 193.403L335.708 194.337C341.095 201.979 342.414 211.159 338.731 215.447C338.291 215.997 337.797 216.382 337.247 216.712Z" fill="white"/>
</mask>
<g mask="url(#mask6_3_9415)">
<path d="M337.245 216.712L338.784 215.777C339.334 215.447 339.829 215.062 340.269 214.513C341.808 212.753 342.468 210.115 342.303 207.036L340.763 207.971C340.928 210.994 340.269 213.688 338.729 215.447C338.29 215.997 337.795 216.382 337.245 216.712Z" fill="#8491D5"/>
<path d="M340.765 208.026L342.304 207.091C342.194 204.288 341.37 201.154 339.885 198.075L338.346 199.01C339.83 202.089 340.655 205.222 340.765 208.026Z" fill="#BFBEED"/>
<path d="M338.401 199.01L339.941 198.075C339.226 196.481 338.291 194.942 337.247 193.458L335.708 194.392C336.752 195.876 337.632 197.416 338.401 199.01Z" fill="#BFBEED"/>
</g>
<path d="M278.975 140.023L324.384 202.913C325.758 201.649 327.682 200.054 329.661 198.57L284.143 135.57C282.219 137.109 280.349 138.703 278.975 140.023Z" fill="#BFBEED"/>
<path d="M284.143 135.57L329.661 198.57C330.376 198.02 331.145 197.47 331.915 196.921L286.397 133.92C285.627 134.415 284.857 135.02 284.143 135.57Z" fill="#CCCBF6"/>
<path d="M286.341 133.92L331.859 196.921C332.244 196.646 332.574 196.426 332.959 196.151L287.44 133.151C287.11 133.37 286.726 133.645 286.341 133.92Z" fill="#CCCBF6"/>
<path d="M287.441 133.151L332.959 196.151C333.509 195.766 334.114 195.381 334.609 195.052L289.035 131.996C288.595 132.326 287.991 132.711 287.441 133.151Z" fill="#CCCBF6"/>
<path d="M289.089 131.996L334.663 195.052C334.993 194.832 335.378 194.612 335.707 194.392L290.134 131.337C289.804 131.556 289.474 131.776 289.089 131.996Z" fill="#CCCBF6"/>
<path d="M318.667 211.269C324.219 217.866 331.531 220.01 337.303 216.712C337.853 216.382 338.348 215.997 338.787 215.447C342.471 211.214 341.151 201.979 335.764 194.337C332.355 196.426 327.298 200.22 324.494 202.858C326.253 205.387 326.693 208.411 325.484 209.785C324.714 210.665 323.395 210.72 322.02 209.95C321.306 209.565 320.591 208.961 319.821 208.081C318.667 209.785 318.282 210.885 318.667 211.269Z" fill="#8491D5"/>
<path d="M256.162 247.991C273.864 237.051 277.877 222.263 279.581 215.941C278.207 221.824 273.589 227.706 265.728 232.434C246.047 244.253 213.447 244.583 192.942 233.148C184.146 228.256 178.979 221.934 177.549 215.447C179.418 222.538 181.507 229.08 188.874 237.821C191.128 240.46 197.505 247.167 208.005 251.51C226.751 259.261 245.168 254.753 256.162 247.991Z" fill="#BFBEED"/>
<path d="M245.497 113.14C255.117 118.528 255.447 127.378 246.211 132.931C236.976 138.483 221.693 138.648 212.072 133.261C202.452 127.873 202.122 119.022 211.358 113.47C220.593 107.973 235.876 107.808 245.497 113.14ZM226.751 122.046C225.651 122.706 225.706 123.75 226.861 124.41C228.015 125.069 229.829 125.015 230.929 124.355C232.028 123.695 231.973 122.651 230.819 121.991C229.664 121.386 227.85 121.386 226.751 122.046Z" fill="#D6D6D6"/>
<path d="M279.581 215.776L289.861 164.76C288.211 172.017 282.659 179.054 273.204 184.771C249.62 198.954 210.533 199.394 185.96 185.651C175.405 179.768 169.192 172.237 167.488 164.431L177.549 215.502C178.978 221.988 184.145 228.31 192.941 233.203C213.447 244.638 246.046 244.308 265.727 232.489C273.588 227.706 278.206 221.824 279.581 215.776Z" fill="#BFBEED"/>
<path d="M264.023 110.941C241.924 98.9566 212.787 99.3414 191.622 111.931C196.625 108.907 203.552 109.182 211.413 113.525C220.649 107.972 235.931 107.807 245.552 113.195C255.172 118.582 255.502 127.433 246.267 132.986C237.031 138.538 221.748 138.703 212.128 133.315C202.507 127.928 202.177 119.077 211.413 113.525C203.607 109.182 196.625 108.907 191.622 111.931C187.554 114.569 176.834 121.496 171.227 133.59C165.125 146.729 166.004 155.91 167.434 164.156C169.248 172.292 175.405 179.824 185.96 185.706C210.533 199.449 249.62 199.01 273.204 184.826C282.659 179.164 288.212 172.127 289.861 164.816C290.96 158.878 292.995 147.884 286.233 133.755C281.89 124.63 273.589 116.109 264.023 110.941Z" fill="#F4F4FB"/>
<path d="M268.803 155.745C287.219 144.366 291.507 130.182 293.101 124.795C291.122 132.106 285.405 139.088 275.894 144.86C251.156 159.758 210.255 160.143 184.472 145.795C173.807 139.858 167.43 132.326 165.341 124.465C166.441 128.038 169.739 138.868 178.81 147.334C185.957 153.986 193.103 158.934 206.792 163.057C226.637 168.994 252.145 166.025 268.803 155.745Z" fill="#E3E2F2"/>
<path d="M261.932 44.9722C240.217 33.1528 215.699 33.5926 194.699 46.0717C203.44 40.7942 215.644 41.234 229.442 48.8754C215.644 41.179 203.44 40.7942 194.699 46.0717C189.696 49.3152 184.968 52.3388 178.481 59.7053C173.919 64.8729 169.631 72.0745 167.926 76.2525C166.002 80.9253 163.144 88.017 162.374 97.4725C161.549 107.918 162.759 113.58 164.298 120.727C166.497 128.918 172.984 136.559 183.759 142.606C209.927 157.174 251.432 156.79 276.555 141.672C286.176 135.845 292.003 128.753 294.037 121.331C295.356 115.614 296.786 109.127 296.401 101.211C295.961 92.7448 294.367 85.2683 291.783 79.1112C288.65 71.6897 285.736 66.2472 279.029 58.6608C275.566 54.5927 269.244 48.9304 261.932 44.9722Z" fill="#EDECF8"/>
<path d="M207.123 125.345C207.233 126.169 210.036 146.015 233.895 147.829C249.893 147.719 265.945 143.871 277.765 136.449C281.228 134.251 284.142 131.887 286.45 129.413C301.843 109.347 292.772 75.9779 277.545 79.0565C275.84 79.3863 275.84 79.3863 272.487 81.8602C270.728 83.7293 268.584 85.4885 266 87.1377C257.204 92.6901 245.22 95.5487 233.235 95.6587C214.324 97.9126 205.803 114.625 207.123 125.345Z" fill="#1F0159"/>
<path d="M293.102 124.85L294.091 121.331C292.057 128.753 286.285 135.845 276.609 141.617C251.541 156.735 209.981 157.12 183.813 142.551C173.038 136.504 166.551 128.863 164.407 120.947L165.342 124.52C167.431 132.381 173.808 139.913 184.473 145.85C210.256 160.198 251.156 159.813 275.895 144.915C285.35 139.143 291.068 132.161 293.102 124.85Z" fill="#E3E2F2"/>
<path d="M281.724 105.939C284.362 112.536 287.991 114.02 289.86 109.347C293.543 100.386 286.836 85.9832 281.614 87.7973C281.009 88.0172 280.679 88.457 280.349 88.7869C277.876 92.9649 280.239 102.146 281.724 105.939Z" fill="#F47300"/>
<path d="M230.983 121.827C231.808 131.942 241.758 136.23 247.695 129.028C253.962 121.332 248.795 107.149 239.834 107.259C233.072 108.303 230.543 116.549 230.983 121.827Z" fill="#F47300"/>
<path d="M261.328 132.931C262.428 139.253 271.279 138.264 275.896 131.282C277.765 128.478 278.15 125.784 277.93 124.355C277.875 124.3 277.82 124.355 277.765 124.355C272.873 127.434 267.265 129.908 261.218 131.777C261.273 132.052 261.273 132.381 261.328 132.931Z" fill="#F47300"/>
<path d="M173.204 174.547C173.204 169.159 176.007 163.222 179.471 161.188L181.01 160.308C182.384 159.484 183.649 159.484 184.693 160.089C188.376 162.233 191.84 165.806 194.534 170.314C197.172 174.712 198.932 179.989 198.822 185.871C198.767 187.026 198.107 188.07 196.788 188.84L195.248 189.72C195.303 189.115 195.303 188.455 195.248 187.795C195.248 188.455 195.248 189.06 195.248 189.72C191.785 191.699 185.243 190.929 180.57 188.015C180.845 183.123 177.437 176.966 173.204 174.547Z" fill="#F4F4FB"/>
<path d="M189.695 275.479C189.915 275.314 190.3 275.149 190.52 274.984C190.905 274.654 191.454 274.27 191.784 273.94C192.829 272.785 193.049 272.51 193.873 271.081C194.148 270.641 194.588 269.487 194.808 268.662C195.083 267.618 195.193 267.123 195.358 265.364C195.303 266.573 194.643 267.618 193.324 268.387C193.104 271.796 191.784 274.27 189.695 275.479Z" fill="#BFBEED"/>
<mask id="mask7_3_9415" style="mask-type:luminance" maskUnits="userSpaceOnUse" x="189" y="265" width="7" height="11">
<path d="M189.695 275.479C189.915 275.314 190.3 275.149 190.52 274.984C190.905 274.654 191.454 274.27 191.784 273.94C192.829 272.785 193.049 272.51 193.873 271.081C194.148 270.641 194.588 269.487 194.808 268.662C195.083 267.618 195.193 267.123 195.358 265.364C195.303 266.573 194.643 267.618 193.324 268.387C193.104 271.796 191.784 274.27 189.695 275.479Z" fill="white"/>
</mask>
<g mask="url(#mask7_3_9415)">
<path d="M189.695 275.479C193.214 273.225 194.973 270.036 195.413 265.309C195.358 266.518 194.698 267.563 193.379 268.332C193.104 271.796 191.784 274.269 189.695 275.479Z" fill="#BFBEED"/>
</g>
<path d="M188.102 276.359L189.641 275.479C191.73 274.27 193.104 271.796 193.269 268.277L191.73 269.157C191.565 272.675 190.191 275.149 188.102 276.359Z" fill="#BFBEED"/>
<mask id="mask8_3_9415" style="mask-type:luminance" maskUnits="userSpaceOnUse" x="188" y="268" width="6" height="9">
<path d="M188.102 276.359L189.641 275.479C191.73 274.27 193.104 271.796 193.269 268.277L191.73 269.157C191.565 272.675 190.191 275.149 188.102 276.359Z" fill="white"/>
</mask>
<g mask="url(#mask8_3_9415)">
<path d="M188.102 276.359L189.641 275.479C191.73 274.27 193.104 271.796 193.269 268.277L191.73 269.157C191.565 272.675 190.191 275.149 188.102 276.359Z" fill="#BFBEED"/>
</g>
<path d="M164.574 257.832C165.673 271.411 178.647 281.636 188.158 276.359C190.247 275.149 191.566 272.675 191.786 269.157C188.323 271.136 181.781 270.311 177.108 267.288C176.943 269.707 175.129 270.641 172.93 269.377C170.731 268.112 168.917 265.144 168.807 262.725C166.113 261.296 164.629 259.481 164.574 257.832Z" fill="#98A4E0"/>
<path d="M168.806 262.725L165.783 179.329C163.034 177.955 161.55 176.196 161.495 174.546L161.66 178.724L161.824 182.902L161.989 187.08L162.154 191.259L162.319 195.437L162.484 199.615L162.649 203.793L162.814 207.971L162.979 212.149L163.144 216.327L163.309 220.505L163.474 224.683L163.639 228.861L163.804 233.039L163.968 237.217L164.133 241.395L164.298 245.573L164.463 249.751L164.628 253.929L164.793 258.107C164.628 259.426 166.112 261.296 168.806 262.725Z" fill="#98A4E0"/>
<path d="M196.789 188.84L193.325 268.333C194.645 267.563 195.304 266.464 195.359 265.254L195.524 261.296L195.689 257.338L195.854 253.38L196.019 249.422L196.184 245.464L196.349 241.505L196.514 237.547L196.679 233.589L196.844 229.631L197.008 225.673L197.173 221.715L197.338 217.757L197.503 213.799L197.668 209.84L197.833 205.882L197.998 201.924L198.163 197.966L198.328 194.008L198.493 190.05L198.658 186.092C198.768 186.971 198.108 188.071 196.789 188.84Z" fill="#E3E2F2"/>
<path d="M180.9 160.253C180.955 160.253 181.12 160.253 181.175 160.253C182.495 159.539 183.759 159.539 184.749 160.088C184.364 159.869 183.869 159.594 183.484 159.429C182.989 159.209 182.33 158.879 181.78 158.714L180.516 158.274C179.966 158.109 179.196 157.944 178.647 157.835L177.437 157.67C176.832 157.615 176.008 157.615 175.403 157.615L174.249 157.725C173.644 157.835 172.819 157.999 172.215 158.164L171.115 158.549C170.675 158.769 170.126 158.989 169.741 159.264C172.599 157.56 176.558 157.725 180.9 160.253Z" fill="#E3E2F2"/>
<path d="M191.784 269.212L193.323 268.278L196.786 188.84L195.247 189.72L191.784 269.212Z" fill="#E3E2F2"/>
<path d="M179.472 161.188L181.177 160.253C176.834 157.779 172.601 157.559 169.742 159.208L168.203 160.088C171.061 158.439 174.964 158.659 179.362 161.133L179.472 161.188Z" fill="#BFBEED"/>
<path d="M173.205 174.547C168.972 172.073 165.509 174.272 165.784 179.329C166.773 207.256 167.763 234.963 168.807 262.725C168.917 265.144 170.732 268.112 172.93 269.377C175.129 270.641 176.944 269.762 177.109 267.288C178.263 240.955 179.417 214.458 180.572 188.015C180.847 183.122 177.438 176.965 173.205 174.547Z" fill="#BFBEED"/>
<path d="M180.57 188.016L177.106 267.288C181.779 270.312 188.321 271.191 191.785 269.157L195.248 189.665C191.785 191.699 185.243 190.929 180.57 188.016Z" fill="#E3E2F2"/>
<path d="M198.823 185.872C198.823 185.432 198.878 184.882 198.878 184.442C198.878 183.893 198.878 183.178 198.823 182.628C198.713 181.749 198.548 180.594 198.383 179.714C198.273 179.22 198.108 178.56 197.998 178.065C197.723 177.076 196.953 174.382 195.194 171.084C193.765 168.5 191.951 166.191 190.851 165.036C189.807 163.937 187.883 161.903 184.749 160.089C183.705 159.484 182.44 159.539 181.066 160.309C190.192 165.586 197.448 178.67 196.843 188.84C198.108 188.071 198.768 187.026 198.823 185.872Z" fill="#F4F4FB"/>
<path d="M180.57 188.015C185.243 190.929 191.785 191.699 195.248 189.72C195.853 179.549 188.651 166.521 179.471 161.188C176.007 163.167 173.259 169.159 173.204 174.547C177.437 176.966 180.845 183.123 180.57 188.015Z" fill="#F4F4FB"/>
<path d="M161.55 172.183C161.605 171.578 161.66 170.753 161.769 170.204C162.154 167.95 162.649 166.85 163.089 165.806C163.364 165.256 163.749 164.486 164.133 163.991C164.518 163.442 165.123 162.727 165.618 162.177C166.057 161.683 166.717 161.188 167.212 160.803C167.487 160.583 167.872 160.363 168.201 160.198C171.06 158.549 175.073 158.769 179.471 161.298C176.008 163.277 173.259 169.269 173.204 174.656C168.971 172.183 165.508 174.382 165.783 179.439C163.089 178.065 161.605 176.306 161.495 174.711C161.55 173.832 161.55 172.897 161.55 172.183Z" fill="#BFBEED"/>
<path d="M173.204 174.547C173.204 170.424 174.853 166.026 177.162 163.222C177.162 163.277 177.162 163.387 177.162 163.442C177.272 164.761 178.096 166.411 178.756 167.62C179.086 168.115 179.361 168.664 179.691 169.159C180.625 170.753 181.615 172.348 182.549 173.942C183.759 175.921 184.913 177.9 186.123 179.879C187.112 181.473 188.047 183.123 189.036 184.717C189.311 185.157 189.531 185.596 189.806 186.036C190.575 187.246 192.5 187.85 193.874 187.74C195.083 187.631 196.348 187.081 197.172 186.146C197.502 185.761 197.557 185.047 197.667 184.552C197.777 183.837 197.887 183.123 197.887 182.408C197.887 181.254 197.777 180.099 197.557 179C197.337 177.79 196.952 176.581 196.568 175.371C196.128 174.107 195.578 172.897 194.973 171.743C194.369 170.534 193.654 169.379 192.884 168.28C192.115 167.18 191.29 166.136 190.356 165.201C189.476 164.267 188.541 163.442 187.497 162.672C186.562 161.958 185.518 161.408 184.418 160.913C183.374 160.473 182.274 160.198 181.175 160.143C182.494 159.429 183.759 159.429 184.748 159.979C185.188 160.253 185.793 160.638 186.232 160.913L187.442 161.793C187.827 162.068 188.322 162.507 188.706 162.837L189.806 163.827C190.136 164.157 190.575 164.596 190.905 164.926L191.895 166.026C192.17 166.356 192.555 166.85 192.829 167.235L193.709 168.445C193.984 168.829 194.259 169.324 194.534 169.709L195.303 170.973C195.523 171.358 195.798 171.908 196.018 172.293L196.623 173.667C196.788 174.107 197.007 174.657 197.172 175.096L197.667 176.526C197.832 176.966 197.997 177.57 198.107 178.01L198.437 179.439C198.547 179.934 198.657 180.594 198.712 181.089L198.877 182.573C198.932 183.123 198.932 183.837 198.932 184.387C198.932 184.827 198.877 185.377 198.877 185.816C198.822 186.971 198.162 188.015 196.842 188.785L195.303 189.665C191.84 191.644 185.298 190.874 180.625 187.96C180.845 183.123 177.437 176.966 173.204 174.547Z" fill="#E3E2F2"/>
<path d="M166.717 89.1166L157.151 94.669C161.219 92.3051 166.882 92.635 173.094 96.2083L182.659 90.6559C176.447 87.0826 170.785 86.7527 166.717 89.1166Z" fill="#4F389E"/>
<mask id="mask9_3_9415" style="mask-type:luminance" maskUnits="userSpaceOnUse" x="157" y="87" width="26" height="10">
<path d="M166.717 89.1166L157.151 94.669C161.219 92.3051 166.882 92.635 173.094 96.2083L182.659 90.6559C176.447 87.0826 170.785 86.7527 166.717 89.1166Z" fill="white"/>
</mask>
<g mask="url(#mask9_3_9415)">
<path d="M173.147 96.208L182.713 90.6556C176.501 87.0823 170.838 86.6975 166.77 89.1164L157.205 94.6688C161.218 92.3049 166.88 92.6347 173.147 96.208Z" fill="#4F389E"/>
</g>
<path d="M188.926 149.368L198.492 143.816C202.505 141.452 205.034 136.504 205.034 129.412C205.089 115.174 195.083 97.8023 182.659 90.6556L173.094 96.208C185.463 103.355 195.523 120.726 195.468 134.965C195.468 142.056 192.994 147.004 188.926 149.368Z" fill="#4F389E"/>
<mask id="mask10_3_9415" style="mask-type:luminance" maskUnits="userSpaceOnUse" x="173" y="90" width="33" height="60">
<path d="M188.926 149.368L198.492 143.816C202.505 141.452 205.034 136.504 205.034 129.412C205.089 115.174 195.083 97.8023 182.659 90.6556L173.094 96.208C185.463 103.355 195.523 120.726 195.468 134.965C195.468 142.056 192.994 147.004 188.926 149.368Z" fill="white"/>
</mask>
<g mask="url(#mask10_3_9415)">
<path d="M188.926 149.368L198.492 143.816C202.505 141.452 205.034 136.504 205.034 129.412C205.089 115.174 195.083 97.8023 182.659 90.6556L173.094 96.208C185.463 103.355 195.523 120.726 195.468 134.965C195.468 142.056 192.994 147.004 188.926 149.368Z" fill="#4F389E"/>
</g>
<path d="M173.149 96.208C160.78 89.0614 150.665 94.8337 150.61 109.072C150.555 123.31 160.56 140.682 172.985 147.829C185.354 154.975 195.469 149.203 195.524 135.02C195.524 120.726 185.519 103.355 173.149 96.208Z" fill="#1F0159"/>
<path d="M160.287 101.486L157.098 103.355C160.342 101.486 164.795 101.76 169.742 104.564L172.931 102.695C167.983 99.8913 163.475 99.6164 160.287 101.486Z" fill="#E3E2F2"/>
<mask id="mask11_3_9415" style="mask-type:luminance" maskUnits="userSpaceOnUse" x="157" y="100" width="16" height="5">
<path d="M160.287 101.486L157.098 103.355C160.342 101.486 164.795 101.76 169.742 104.564L172.931 102.695C167.983 99.8913 163.475 99.6164 160.287 101.486Z" fill="white"/>
</mask>
<g mask="url(#mask11_3_9415)">
<path d="M169.688 104.564L172.876 102.695C167.929 99.8363 163.476 99.5614 160.232 101.485L157.044 103.355C160.287 101.485 164.795 101.705 169.688 104.564Z" fill="#E3E2F2"/>
</g>
<path d="M182.221 146.619L185.41 144.75C188.598 142.881 190.577 138.978 190.577 133.37C190.632 122.1 182.661 108.357 172.876 102.695L169.687 104.564C179.527 110.226 187.444 123.97 187.389 135.239C187.389 140.847 185.41 144.75 182.221 146.619Z" fill="#E3E2F2"/>
<mask id="mask12_3_9415" style="mask-type:luminance" maskUnits="userSpaceOnUse" x="169" y="102" width="22" height="45">
<path d="M182.221 146.619L185.41 144.75C188.598 142.881 190.577 138.978 190.577 133.37C190.632 122.1 182.661 108.357 172.876 102.695L169.687 104.564C179.527 110.226 187.444 123.97 187.389 135.239C187.389 140.847 185.41 144.75 182.221 146.619Z" fill="white"/>
</mask>
<g mask="url(#mask12_3_9415)">
<path d="M182.221 146.619L185.41 144.75C188.598 142.881 190.577 138.978 190.577 133.37C190.632 122.1 182.661 108.357 172.876 102.695L169.687 104.564C179.527 110.226 187.444 123.97 187.389 135.239C187.389 140.847 185.41 144.75 182.221 146.619Z" fill="#E3E2F2"/>
</g>
<path d="M169.686 104.564C159.901 98.9017 151.929 103.465 151.874 114.734C151.819 126.004 159.791 139.747 169.576 145.41C179.416 151.072 187.388 146.509 187.388 135.24C187.443 123.97 179.526 110.226 169.686 104.564Z" fill="#98A4E0"/>
<path d="M160.287 101.486L157.098 103.355C160.342 101.486 164.795 101.76 169.742 104.564L172.931 102.695C167.983 99.8913 163.475 99.6164 160.287 101.486Z" fill="#E3E2F2"/>
<mask id="mask13_3_9415" style="mask-type:luminance" maskUnits="userSpaceOnUse" x="157" y="100" width="16" height="5">
<path d="M160.287 101.486L157.098 103.355C160.342 101.486 164.795 101.76 169.742 104.564L172.931 102.695C167.983 99.8913 163.475 99.6164 160.287 101.486Z" fill="white"/>
</mask>
<g mask="url(#mask13_3_9415)">
<path d="M169.688 104.564L172.876 102.695C167.929 99.8363 163.476 99.5614 160.232 101.485L157.044 103.355C160.287 101.485 164.795 101.705 169.688 104.564Z" fill="#E3E2F2"/>
</g>
<path d="M182.221 146.619L185.41 144.75C188.598 142.881 190.577 138.978 190.577 133.37C190.632 122.1 182.661 108.357 172.876 102.695L169.687 104.564C179.527 110.226 187.444 123.97 187.389 135.239C187.389 140.847 185.41 144.75 182.221 146.619Z" fill="#E3E2F2"/>
<mask id="mask14_3_9415" style="mask-type:luminance" maskUnits="userSpaceOnUse" x="169" y="102" width="22" height="45">
<path d="M182.221 146.619L185.41 144.75C188.598 142.881 190.577 138.978 190.577 133.37C190.632 122.1 182.661 108.357 172.876 102.695L169.687 104.564C179.527 110.226 187.444 123.97 187.389 135.239C187.389 140.847 185.41 144.75 182.221 146.619Z" fill="white"/>
</mask>
<g mask="url(#mask14_3_9415)">
<path d="M182.221 146.619L185.41 144.75C188.598 142.881 190.577 138.978 190.577 133.37C190.632 122.1 182.661 108.357 172.876 102.695L169.687 104.564C179.527 110.226 187.444 123.97 187.389 135.239C187.389 140.847 185.41 144.75 182.221 146.619Z" fill="#E3E2F2"/>
</g>
<path d="M169.686 104.564C159.901 98.9017 151.929 103.465 151.874 114.734C151.819 126.004 159.791 139.747 169.576 145.41C179.416 151.072 187.388 146.509 187.388 135.24C187.443 123.97 179.526 110.226 169.686 104.564Z" fill="#98A4E0"/>
<path d="M169.686 110.281C162.65 106.213 156.877 109.457 156.877 117.593C156.877 125.674 162.54 135.569 169.631 139.637C176.668 143.705 182.44 140.407 182.44 132.326C182.44 124.245 176.778 114.349 169.686 110.281Z" fill="#F47300"/>
<path d="M244.671 30.8439C241.043 28.48 236.645 27.2156 231.752 27.2156C226.694 27.1606 221.087 28.425 215.095 31.0638C209.597 33.5376 204.265 36.946 199.207 41.124C198.603 41.6188 198.053 42.1136 197.503 42.6083C192.171 47.3361 187.278 52.8335 182.99 58.8257C180.681 62.0692 178.537 65.4776 176.668 68.9959C171.335 78.8913 171.225 80.5405 170.511 90.6008L184.969 99.9464C186.068 93.0746 185.794 88.2369 191.126 78.3415C192.995 74.8232 195.139 71.4148 197.448 68.1713C201.681 62.1791 206.629 56.6267 211.961 51.9539C212.511 51.4592 213.116 50.9644 213.665 50.4696C218.668 46.2916 224.001 42.8282 229.553 40.4094C235.545 37.7156 241.153 36.5062 246.21 36.5062C249.674 36.5612 258.03 39.4748 259.129 40.1345L244.671 30.8439Z" fill="#4F389E"/>
<path d="M184.969 100.001C185.849 93.6794 185.794 88.2919 191.126 78.3966C196.459 68.5012 203.715 59.2656 211.962 52.009C217.459 47.1713 223.396 43.1582 229.553 40.4644C235.545 37.7707 241.153 36.5613 246.21 36.5613C246.21 36.5613 247.365 37.3859 247.695 37.8257C248.135 38.3754 248.574 38.9801 248.959 39.5849C247.695 39.4199 246.375 39.31 245.001 39.31C240.273 39.255 234.941 40.4644 229.333 42.9383C223.561 45.5221 217.954 49.2603 212.786 53.8232C207.619 58.386 203.88 63.1138 199.757 68.996C191.566 80.7605 188.707 87.9071 187.443 98.847L184.969 100.001Z" fill="#1F0159"/>
<path d="M258.908 40.0796C252.586 36.7262 247.144 36.4513 246.154 36.5613C246.594 36.9461 248.463 39.0351 248.958 39.6398C254.895 40.1896 271.058 50.4697 278.204 57.6713C277.599 53.7682 271.113 46.6215 258.908 40.0796Z" fill="#1F0159"/>
<path d="M276.829 154.261C276.609 154.261 276.334 154.151 276.224 153.876C276.059 153.546 276.169 153.162 276.499 152.942C287.054 147.444 295.025 136.614 297.939 123.97C298.984 119.462 299.093 112.92 298.324 106.433C298.269 106.049 298.544 105.719 298.929 105.664C299.313 105.609 299.643 105.884 299.698 106.269C300.523 112.92 300.358 119.627 299.313 124.3C296.345 137.274 288.099 148.434 277.214 154.151C277.049 154.206 276.939 154.261 276.829 154.261Z" fill="#010958"/>
<path d="M266.715 158.604C268.474 161.683 273.697 162.012 278.315 159.374C282.932 156.68 285.241 152.007 283.482 148.929C281.723 145.85 276.5 145.52 271.883 148.159C267.21 150.853 264.901 155.526 266.715 158.604Z" fill="#010958"/>
<path opacity="0.4" d="M114.766 169.874C97.7238 183.782 89.2578 200.109 89.2578 216.437L89.3678 254.864C89.3128 238.536 97.8338 222.209 114.876 208.3L114.766 169.874Z" fill="#4F389E"/>
<path opacity="0.502" d="M365.227 146.07C365.227 142.826 364.897 139.583 364.182 136.394L364.237 157.175C364.897 160.363 365.282 163.607 365.282 166.85C365.282 159.923 365.227 152.997 365.227 146.07Z" fill="#4F389E"/>
<path opacity="0.502" d="M325.868 293.4C348.133 280.261 361.052 263.714 364.57 246.672L364.515 227.486C363.196 233.973 360.502 240.405 356.434 246.562L356.379 227.376C349.782 237.437 339.612 246.837 325.813 254.973L325.868 293.4Z" fill="#4F389E"/>
<path opacity="0.502" d="M356.269 207.366C362.316 198.13 365.339 188.345 365.339 178.614L365.449 217.866C365.449 221.109 365.119 224.298 364.46 227.486L364.405 208.3C363.085 214.787 360.392 221.219 356.324 227.376L356.269 207.366Z" fill="#4F389E"/>
<path opacity="0.7529" d="M356.378 246.617C360.446 240.405 363.14 234.028 364.459 227.541L364.404 208.355C363.085 214.842 360.391 221.274 356.323 227.432L356.378 246.617Z" fill="#4F389E"/>
<path opacity="0.502" d="M351.979 180.538C360.83 169.653 365.283 157.889 365.228 146.069C365.228 149.368 365.228 153.711 365.283 157.009C365.283 159.978 365.283 163.881 365.338 166.85C365.393 178.614 360.94 190.433 352.089 201.318L351.979 180.538Z" fill="#4F389E"/>
<path opacity="0.502" d="M106.136 164.376C97.2852 153.491 92.8323 141.727 92.8873 129.907C92.8873 133.206 92.8873 137.549 92.8323 140.847C92.8323 143.816 92.8323 147.719 92.7774 150.687C92.7224 162.452 97.1753 174.271 106.026 185.156L106.136 164.376Z" fill="#4F389E"/>
<path opacity="0.502" d="M89.2578 216.437C89.2578 217.262 89.2578 218.031 89.3128 218.856L89.4227 257.283C89.3678 256.458 89.3678 255.689 89.3678 254.864L89.2578 216.437Z" fill="#4F389E"/>
<path opacity="0.502" d="M99.5924 230.84C103.551 236.393 108.608 241.725 114.765 246.728L114.71 233.809C118.998 237.272 123.836 240.626 129.223 243.704C146.265 253.6 166.771 260.361 188.541 263.99L188.595 276.909C232.74 284.22 282.161 278.558 318.554 259.922L318.444 220.725C264.13 248.542 180.899 247.442 129.168 217.427C116.03 209.785 106.134 200.989 99.4824 191.644L99.5924 230.84Z" fill="#4F389E"/>
<path opacity="0.7529" d="M114.71 233.809C118.998 237.272 123.836 240.625 129.223 243.704C146.265 253.599 166.77 260.361 188.54 263.989L188.595 276.908L188.65 302.416C166.88 298.788 146.375 292.026 129.333 282.131C123.946 278.997 119.108 275.699 114.82 272.236L114.765 246.728L114.71 233.809Z" fill="#4F389E"/>
<path opacity="0.502" d="M365.227 146.07C365.227 142.826 364.897 139.583 364.182 136.394L364.237 157.175C364.897 160.363 365.282 163.607 365.282 166.85C365.282 159.923 365.227 152.997 365.227 146.07Z" fill="#4F389E"/>
<path opacity="0.502" d="M125.761 181.419C130.049 184.882 134.886 188.235 140.274 191.314C157.316 201.209 177.821 207.971 199.591 211.599L199.536 186.091C177.766 182.463 157.261 175.701 140.219 165.806C134.831 162.672 129.994 159.374 125.706 155.911L125.761 181.419Z" fill="#4F389E"/>
<path opacity="0.502" d="M89.2578 216.437C89.2578 217.262 89.2578 218.031 89.3128 218.856L89.4227 257.283C89.3678 256.458 89.3678 255.689 89.3678 254.864L89.2578 216.437Z" fill="#4F389E"/>
<path opacity="0.502" d="M99.5924 230.84C103.551 236.393 108.608 241.725 114.765 246.728L114.71 233.809C118.998 237.272 123.836 240.626 129.223 243.704C146.265 253.6 166.771 260.361 188.541 263.99L188.595 276.909C232.74 284.22 282.161 278.558 318.554 259.922L318.444 220.725C264.13 248.542 180.899 247.442 129.168 217.427C116.03 209.785 106.134 200.989 99.4824 191.644L99.5924 230.84Z" fill="#4F389E"/>
<path opacity="0.502" d="M247.473 318.469C273.201 316.27 298.05 309.838 318.72 299.283L318.665 278.173C297.995 288.783 273.146 295.16 247.418 297.359L247.473 318.469Z" fill="#4F389E"/>
<path opacity="0.502" d="M247.473 318.469C273.201 316.27 298.05 309.838 318.72 299.283L318.665 278.173C297.995 288.783 273.146 295.16 247.418 297.359L247.473 318.469Z" fill="#4F389E"/>
<path d="M402.885 252.5C402.83 252.555 402.995 252.555 403.05 252.445C403.325 251.511 402.995 250.466 402.885 249.476C402.555 246.948 403.49 244.364 403.05 241.835C402.94 241.065 402.665 240.351 402.17 239.746C401.731 239.251 401.126 238.867 400.576 238.537C400.411 238.427 397.717 236.832 397.827 236.777C396.013 239.966 395.738 243.979 397.058 247.387L402.885 252.5Z" fill="#FFBF99"/>
<path d="M408.109 251.401C413.992 252.555 419.819 254.094 425.591 255.963C428.175 256.788 430.814 257.558 432.793 259.702C434.772 261.846 434.827 264.979 433.947 267.673C433.452 269.212 432.628 270.587 431.144 270.971C429.659 271.356 427.24 270.587 425.756 270.202C422.018 269.102 418.335 267.673 414.761 265.804C413.552 265.199 412.397 264.539 411.188 263.88C409.429 262.89 407.615 261.901 405.855 260.856C407.725 258.107 408.604 254.754 408.109 251.401Z" fill="#BFBEED"/>
<path d="M365.119 271.411L364.074 270.806C363.689 270.586 363.415 270.091 363.415 269.377L364.459 269.981C364.514 270.696 364.734 271.191 365.119 271.411Z" fill="#EFF6FE"/>
<mask id="mask15_3_9415" style="mask-type:luminance" maskUnits="userSpaceOnUse" x="363" y="269" width="3" height="3">
<path d="M365.119 271.411L364.074 270.806C363.689 270.586 363.415 270.091 363.415 269.377L364.459 269.981C364.514 270.696 364.734 271.191 365.119 271.411Z" fill="white"/>
</mask>
<g mask="url(#mask15_3_9415)">
<path d="M365.119 271.411L364.074 270.806C363.689 270.586 363.415 270.091 363.415 269.377L364.459 269.981C364.514 270.696 364.734 271.191 365.119 271.411Z" fill="#EFF6FE"/>
</g>
<path d="M364.459 269.981L363.469 269.432L363.415 248.816L364.404 249.421L364.459 269.981Z" fill="#EFF6FE"/>
<path d="M366.603 245.628L365.613 245.023L395.079 228.036L396.069 228.641L366.603 245.628Z" fill="#EFF6FE"/>
<path d="M364.404 249.421L363.415 248.816C363.415 247.442 364.404 245.737 365.613 245.023L366.603 245.627C365.394 246.342 364.404 248.046 364.404 249.421Z" fill="#EFF6FE"/>
<mask id="mask16_3_9415" style="mask-type:luminance" maskUnits="userSpaceOnUse" x="363" y="245" width="4" height="5">
<path d="M364.404 249.421L363.415 248.816C363.415 247.442 364.404 245.737 365.613 245.023L366.603 245.627C365.394 246.342 364.404 248.046 364.404 249.421Z" fill="white"/>
</mask>
<g mask="url(#mask16_3_9415)">
<path d="M364.404 249.421L363.415 248.816C363.415 248.266 363.579 247.717 363.799 247.167L364.789 247.772C364.569 248.321 364.404 248.871 364.404 249.421Z" fill="#EFF6FE"/>
<path d="M364.788 247.772L363.798 247.167C363.963 246.727 364.238 246.342 364.513 245.958L365.558 246.562C365.228 246.892 365.008 247.332 364.788 247.772Z" fill="#EFF6FE"/>
<path d="M365.56 246.562L364.515 245.957C364.845 245.572 365.175 245.243 365.56 245.023L366.549 245.627C366.219 245.847 365.89 246.177 365.56 246.562Z" fill="#EFF6FE"/>
</g>
<path d="M396.07 228.641C397.28 227.926 398.269 228.476 398.269 229.905L398.324 250.521C398.324 251.895 397.335 253.599 396.125 254.314L366.659 271.356C365.45 272.07 364.46 271.466 364.46 270.091L364.405 249.476C364.405 248.102 365.395 246.398 366.604 245.683L396.07 228.641Z" fill="#E3E2F2"/>
<path d="M397.115 250.466C397.115 251.4 396.346 252.72 395.521 253.214L366.055 270.201C365.89 270.311 365.78 270.311 365.725 270.311C365.725 270.256 365.67 270.146 365.67 269.981V269.817L365.615 249.421C365.615 248.487 366.385 247.167 367.209 246.672L396.401 229.795L396.676 229.63C396.841 229.521 396.95 229.521 397.005 229.521C397.005 229.575 397.06 229.685 397.06 229.85L397.115 250.466Z" fill="#E3E2F2"/>
<path d="M396.456 250.191C396.456 251.125 395.686 252.445 394.861 252.94L365.67 269.817L365.615 249.421C365.615 248.487 366.385 247.167 367.209 246.673L396.401 229.796L396.456 250.191Z" fill="#F47300"/>
<path d="M396.617 227.871L397.662 228.476C397.277 228.256 396.727 228.256 396.123 228.641L395.078 228.036C395.683 227.651 396.233 227.651 396.617 227.871Z" fill="#EFF6FE"/>
<path opacity="0.3" d="M372.816 243.428L365.669 255.028V259.371L378.423 240.185L372.816 243.428Z" fill="#47E0FF"/>
<path opacity="0.3" d="M365.669 264.813V269.816L367.264 268.882L392.607 231.994L384.141 236.887L365.669 264.813Z" fill="#47E0FF"/>
<path d="M432.519 409.616C432.354 409.066 431.969 408.736 430.98 408.681C429.77 408.571 428.561 408.516 427.351 408.461C425.702 408.351 424.108 408.242 422.459 408.132C422.569 406.812 422.569 405.438 422.734 404.173C420.974 404.558 420.04 404.064 418.391 403.404C416.412 402.689 414.433 402.029 412.453 401.425C411.574 401.15 410.694 400.93 409.815 401.095C407.616 401.535 406.406 405.163 406.681 407.087C406.901 408.406 407.781 409.561 408.88 410.441C410.474 411.705 412.728 412.749 414.762 413.024C416.906 413.354 418.94 414.014 420.7 415.388C422.954 417.147 424.548 419.016 427.571 419.236C430.595 419.456 433.069 417.642 433.179 414.509C433.234 413.409 433.014 412.31 432.849 411.21C432.684 410.55 432.629 410.056 432.519 409.616Z" fill="#98A4E0"/>
<path d="M423.338 413.354C423.338 413.134 423.338 412.859 423.338 412.639C423.503 410.22 422.568 408.131 421.688 405.877C421.359 405.053 420.974 404.173 420.259 403.569C418.665 402.304 416.081 403.404 415.037 405.218C414.542 406.042 414.322 406.977 413.882 407.857C413.057 409.506 411.463 411.43 409.484 411.54C406.845 411.65 403.877 410.77 401.183 410.605C400.139 410.55 399.039 410.495 398.104 410.88C395.851 411.815 395.191 415.498 395.961 417.532C396.455 418.796 397.61 419.731 398.819 420.281C400.688 421.16 403.107 421.655 405.141 421.49C407.34 421.325 409.429 421.545 411.408 422.48C414.872 424.129 418.885 426.438 422.348 423.249C423.283 422.425 423.722 421.16 423.832 419.896C424.107 417.697 423.393 415.553 423.338 413.354Z" fill="#BFBEED"/>
<path d="M422.293 362.668L421.083 357.5C421.523 359.15 421.963 360.909 422.293 362.668Z" fill="#6E4CB3"/>
<path d="M442.523 321.218C442.963 325.231 443.128 329.134 442.798 333.147C442.468 337.38 441.644 341.118 440.159 348.43C438.73 355.522 438.4 356.621 438.235 360.359C438.565 360.084 440.764 385.153 433.947 407.857C433.507 409.231 433.013 410.826 431.693 411.595C431.034 411.98 430.264 412.145 429.494 412.255C428.725 412.365 427.955 412.42 427.24 412.31C426.471 412.2 425.591 411.87 425.041 411.265C424.437 410.551 424.052 409.616 423.777 408.736C423.337 407.142 423.282 405.493 423.282 403.844C423.227 396.092 423.777 388.341 423.777 380.59C423.777 376.082 423.612 371.574 423.007 367.121C421.578 361.953 420.479 356.731 419.709 351.453C419.049 346.451 419.324 341.283 418.17 336.336C417.29 332.652 416.63 326.66 416.63 321.273H442.523V321.218Z" fill="#1F0159"/>
<path d="M419.104 313.686C418.39 313.301 414.706 311.487 414.761 310.497C414.761 309.838 413.002 309.288 412.507 309.288C411.683 309.288 410.803 309.838 410.143 310.332C408.494 311.542 407.23 313.356 406.46 315.335C405.416 318.029 405.141 320.997 405.031 323.911C404.536 332.597 404.756 341.338 405.69 349.969C406.13 354.312 406.79 358.655 407.615 362.998C407.999 365.142 408.494 367.286 408.989 369.43C409.484 371.464 409.869 372.123 411.628 373.223C415.311 375.532 421.963 375.257 424.602 371.079C427.46 366.571 426.251 359.589 427.185 354.532C428.505 347.165 433.397 341.778 435.651 334.796C437.301 329.683 437.081 324.846 436.201 319.623C435.816 317.149 435.047 311.267 432.518 309.783C431.858 309.398 427.35 308.353 423.667 311.982C421.468 314.016 421.743 315.005 419.104 313.686Z" fill="#4F389E"/>
<path d="M444.227 293.401C444.392 292.081 444.557 290.817 444.832 289.552C445.931 283.395 447.746 277.403 448.515 271.136C449.12 266.298 449.56 260.306 445.711 256.568C445.107 255.963 444.392 255.468 443.622 255.029C436.201 250.851 429.054 255.963 422.073 258.437C417.51 260.086 413.112 262.23 408.989 264.869C407.559 265.803 406.075 266.408 405.141 267.838C404.096 269.322 403.601 270.971 403.491 272.785C403.381 274.874 403.766 276.908 404.096 278.942C406.075 290.817 407.01 302.966 405.525 314.95C404.921 320.118 404.316 334.191 404.316 334.191C406.02 334.961 407.12 335.621 415.421 335.786C432.573 336.115 442.083 331.772 443.073 330.838C444.062 329.958 443.732 327.869 443.732 326.605C443.842 322.867 443.787 319.128 443.677 315.39C443.513 308.079 443.293 300.712 444.227 293.401Z" fill="#E3E2F2"/>
<path d="M418.499 259.867C419.764 259.317 421.083 258.767 422.073 258.437C426.91 256.678 431.803 253.71 436.861 253.435C439.279 257.118 437.3 261.296 433.727 263.275C429.219 265.529 423.282 265.254 419.049 262.231C418.224 261.626 417.565 260.581 418.499 259.867Z" fill="#E3E2F2"/>
<path d="M409.207 372.728C409.537 376.466 409.812 380.26 410.087 383.998C410.307 386.966 410.471 389.935 410.636 392.959C410.746 395.268 410.856 397.576 410.966 399.83C411.406 412.419 410.087 415.223 416.024 416.872C417.343 417.257 418.773 417.367 420.092 417.037C423.94 416.103 424.6 412.694 425.095 408.461C425.369 406.097 425.479 403.239 425.534 400.875C425.589 398.841 425.644 396.807 425.699 394.828C425.754 392.079 425.754 389.33 425.809 386.637C425.864 383.008 425.864 379.435 425.919 375.807C425.974 371.189 426.359 366.461 426.359 361.843C426.359 361.184 425.919 360.469 425.424 360.139C424.71 359.699 410.856 364.757 409.427 366.351C409.372 366.351 408.822 368.11 409.207 372.728Z" fill="#4F389E"/>
<path d="M402.667 271.521C404.096 268.827 406.075 266.243 409.154 266.078C410.418 266.023 411.683 266.408 412.782 266.958C415.806 268.387 418.5 270.421 419.874 273.5C420.149 274.104 420.369 274.709 420.424 275.369C420.699 277.733 419.104 279.327 417.84 281.086C416.301 283.175 414.871 285.374 413.497 287.628C410.748 292.026 408.054 296.534 404.701 300.547C402.722 302.911 400.303 305.22 397.225 305.385C395.191 305.55 393.047 304.615 391.782 303.021C388.649 299.118 391.397 296.424 391.617 295.819C400.083 277.898 402.832 271.136 402.667 271.521Z" fill="#E3E2F2"/>
<path d="M394.751 245.023C395.41 246.783 395.795 248.707 395.96 250.631C396.015 251.455 396.015 252.225 396.235 252.995C396.62 254.424 397.774 255.578 398.984 256.458C399.533 256.843 400.303 257.338 400.963 257.173C400.798 256.678 400.743 256.183 400.798 255.633C400.853 254.919 401.128 254.259 401.677 253.764C402.007 253.379 402.612 253.214 402.887 252.72C403.326 251.73 402.722 250.851 402.392 250.026C402.062 249.091 402.117 248.047 401.732 247.057C401.622 246.783 401.512 246.508 401.292 246.288C401.073 246.068 400.743 245.958 400.468 246.068C400.028 246.233 399.918 246.892 399.863 247.387C399.863 247.497 399.808 247.552 399.753 247.607C399.588 247.772 399.313 247.552 399.203 247.332C398.599 246.398 397.994 245.408 397.389 244.419C396.895 243.649 396.51 242.714 395.685 242.165C395.575 242.055 395.41 242 395.3 242C395.245 242 395.245 242 395.19 242C394.805 242.055 394.586 242.385 394.531 242.769C394.311 243.484 394.476 244.309 394.751 245.023Z" fill="#FFBF99"/>
<path d="M400.907 253.654C401.677 252.335 402.886 251.345 404.096 251.07C405.195 250.85 406.295 251.07 407.394 251.29C407.614 251.345 407.834 251.4 408.054 251.455C408.549 254.753 407.669 258.162 405.8 260.966C404.975 260.471 404.151 260.031 403.326 259.536C402.502 259.041 400.742 258.437 400.248 257.557C399.643 256.458 400.358 254.534 400.907 253.654Z" fill="#BFBEED"/>
<path d="M420.203 252.39C419.928 250.521 418.554 250.96 419.269 249.311C419.873 247.882 420.753 246.562 422.017 245.628C423.227 244.693 424.766 244.144 426.305 244.199C426.855 244.254 427.185 244.528 427.735 244.528C429.164 244.528 430.648 244.254 432.078 244.473C433.507 244.693 434.826 244.803 434.826 246.398C434.826 248.542 434.716 250.631 435.431 252.775C435.816 253.929 436.366 255.029 436.475 256.183C436.695 258.547 434.936 260.691 432.847 261.735C430.263 263 427.295 262.89 424.546 262.505C423.172 262.285 421.193 262.01 420.368 260.691C419.763 259.701 420.038 258.382 420.148 257.282C420.313 255.688 420.478 254.039 420.203 252.39Z" fill="#FFC7AD"/>
<path d="M414.046 228.806C413.166 229.85 412.507 231.06 412.287 232.489C411.847 235.623 413.056 238.811 412.397 241.945C411.737 244.968 413.056 251.785 418.939 253.544C421.962 254.424 427.845 253.379 429.769 252.5C432.297 251.29 434.002 248.817 435.541 246.398C447.91 226.662 422.457 218.581 414.046 228.806Z" fill="#FFC7AD"/>
<path d="M439.168 224.958C438.564 224.353 437.849 223.803 436.914 223.364C436.64 223.254 436.365 223.144 436.145 222.869C435.98 222.704 435.925 222.484 435.815 222.264C435.375 221.33 434.551 220.725 433.671 220.23C430.373 218.416 426.359 218.306 422.621 218.856C421.357 219.021 420.092 219.296 418.938 219.79C417.619 220.34 416.409 221.275 415.365 222.264C413.386 224.078 411.022 226.937 411.132 229.851C411.132 230.51 411.516 231.005 411.846 231.555C412.066 231.94 412.396 232.269 412.726 232.654C413.66 233.864 414.1 235.623 414.705 236.997C414.98 237.602 415.255 238.262 415.804 238.591C416.849 239.306 418.333 238.591 419.598 238.976C420.312 239.196 420.862 239.746 421.247 240.406C421.632 241.065 421.797 241.78 422.016 242.495C422.346 243.649 422.346 244.584 422.511 245.738C422.676 246.893 422.951 248.102 423.776 248.982C425.59 250.906 429.053 250.796 431.362 250.301C432.187 250.136 433.066 249.916 433.836 249.531C435.65 248.652 436.86 246.948 438.014 245.298C439.058 243.814 440.103 242.275 440.708 240.516C441.038 239.526 441.147 238.482 441.312 237.492C441.752 233.369 442.192 228.036 439.168 224.958Z" fill="#4C1F8C"/>
<path d="M420.808 237.657C423.172 237.437 423.831 240.405 422.237 242.714C421.797 243.374 420.918 243.979 420.313 244.528C416.135 248.212 414.981 244.308 416.3 243.044C419.434 240.13 417.839 237.931 420.808 237.657Z" fill="#FFC7AD"/>
<path d="M420.146 242.165C420.42 241.89 423.114 240.241 421.245 239.196C420.75 238.921 420.146 239.361 420.091 239.911C420.036 240.186 420.146 240.461 420.091 240.735C420.091 240.9 419.981 241.065 419.926 241.23C419.706 241.615 418.881 242 419.046 242.605C419.211 243.099 420.036 242.275 420.146 242.165Z" fill="#F3A984"/>
<path d="M331.86 293.785C331.64 293.235 331.365 292.741 330.925 292.356C330.32 291.806 329.496 291.696 328.726 291.586C328.671 291.531 328.616 291.476 328.561 291.421C328.341 291.146 328.066 290.927 327.846 290.707C325.867 288.838 323.394 286.748 321.195 285.209C320.975 285.044 320.7 284.879 320.48 284.824C320.205 284.769 319.875 284.824 319.71 285.044C319.6 285.209 319.545 285.374 319.545 285.539C319.545 286.144 320.15 286.639 320.59 287.078C321.799 288.343 322.954 289.277 324.163 290.212C323.998 290.267 323.833 290.322 323.668 290.487C323.339 290.762 323.174 291.311 323.394 291.696C322.954 291.586 322.404 291.751 322.129 292.191C321.854 292.576 321.854 293.18 322.129 293.565C321.689 293.51 321.305 294.005 321.25 294.5C321.25 294.995 321.524 295.434 321.799 295.819C323.998 298.953 327.022 300.052 329.716 302.746C330.265 302.416 330.87 302.416 331.09 301.811C331.365 301.042 331.695 300.327 332.189 299.667V299.557C332.244 299.612 332.244 299.667 332.299 299.612C332.629 299.448 333.014 298.623 332.959 298.403C332.904 297.413 332.244 294.665 331.86 293.785Z" fill="#FFC7AD"/>
<path d="M391.34 435.179C391.45 435.949 391.12 436.883 391.01 437.598C390.9 438.093 390.845 438.587 390.845 439.027C390.845 439.467 390.68 439.852 390.405 440.237C390.186 440.566 389.856 440.676 389.471 440.786C388.756 440.951 388.096 440.896 387.382 440.896C386.832 440.896 386.337 440.841 386.172 440.237C386.007 439.577 386.172 438.752 386.172 438.093C386.172 437.653 386.007 436.883 386.172 436.443C386.502 435.674 388.151 435.234 388.866 434.959C389.306 434.794 390.241 434.739 390.515 434.299C390.845 433.64 391.23 434.739 391.34 435.179Z" fill="#010958"/>
<path d="M381.774 425.119C381.719 425.504 381.664 425.834 381.554 426.218C381.225 427.373 380.73 428.527 380.18 429.572C379.96 429.957 379.795 430.342 379.41 430.506C378.971 430.726 378.421 430.781 377.981 430.946C377.706 431.056 377.431 431.276 377.156 431.331C376.937 431.386 376.717 431.386 376.497 431.496C376.332 431.606 376.057 431.606 375.892 431.716C375.507 431.881 375.177 432.156 375.067 432.595C375.012 432.87 375.067 433.2 375.067 433.475C375.067 433.915 375.122 434.025 375.452 434.355C375.947 434.794 376.497 435.399 377.156 435.509C377.431 435.564 377.706 435.509 377.981 435.509C380.015 435.509 381.554 434.739 383.314 433.75C385.018 432.815 386.722 432.046 388.316 430.891C388.811 430.561 389.361 430.342 389.8 430.012C390.02 429.847 390.02 429.847 390.075 429.517C390.075 429.077 389.8 428.637 389.636 428.253C389.251 427.428 389.141 426.988 389.141 426.054C389.141 425.174 389.086 424.184 389.251 423.305C389.471 421.875 389.91 420.446 390.46 419.072C390.735 418.357 391.12 417.697 391.34 416.983C391.67 416.048 392.109 415.114 392.384 414.179C392.659 413.135 392.879 412.09 393.044 411.046C393.319 408.957 393.374 406.813 393.264 404.724C393.044 401.04 392.274 397.412 391.505 393.784C391.285 392.904 391.01 391.915 391.065 390.98C391.12 390.375 391.34 389.826 391.395 389.221C391.56 387.297 390.57 385.428 390.46 383.504C390.405 382.294 390.46 380.92 389.745 379.82C388.536 377.896 385.677 377.621 383.588 378.611C381.994 379.381 380.51 380.645 379.575 382.129C378.641 383.559 378.531 385.648 378.476 387.297C378.366 389.386 378.366 391.42 378.531 393.509C378.861 398.457 379.905 403.294 380.675 408.187C380.95 409.946 381.115 411.65 381.334 413.41C381.554 414.949 381.884 416.543 381.994 418.137C382.104 419.292 382.049 420.446 382.049 421.656C381.939 422.81 381.939 423.965 381.774 425.119Z" fill="#F3A984"/>
<path d="M390.461 429.132C390.626 429.242 390.736 429.352 390.9 429.572C391.505 430.452 391.89 431.716 392.055 432.761C392.275 434.08 392 435.344 391.065 436.279C390.406 436.939 389.526 437.323 388.646 437.378C387.492 437.433 386.338 436.994 385.238 436.719C384.194 436.499 383.149 436.499 382.105 436.774C381.665 436.884 381.225 436.939 380.785 437.103C380.29 437.268 379.796 437.433 379.246 437.488C378.146 437.543 376.992 437.158 376.057 436.719C375.288 436.389 374.683 435.729 374.353 434.959C373.968 434.08 373.639 433.2 373.694 432.211C373.694 431.991 373.748 431.771 373.858 431.606C373.968 431.331 374.078 431.056 374.243 430.836C375.013 429.957 376.332 429.957 377.377 430.122C378.036 430.232 378.806 430.287 379.411 430.562C378.751 430.836 378.036 430.781 377.872 431.551C377.432 433.75 380.51 433.915 381.885 433.695C383.369 433.42 384.798 432.761 386.063 431.991C387.052 431.331 387.767 430.287 388.701 429.517C389.251 428.967 389.856 428.747 390.461 429.132Z" fill="#1F0159"/>
<path d="M365.504 443.425C366.714 441.996 367.813 440.401 368.748 438.807C369.737 437.158 369.188 434.574 368.913 432.76C368.363 428.417 367.648 424.129 366.824 419.841C366.219 416.927 365.724 413.959 365.614 410.99C365.449 406.812 365.779 402.689 365.119 398.511C364.9 397.192 365.174 395.927 365.174 394.608C365.174 393.618 365.119 392.574 365.064 391.584C365.064 391.255 365.174 388.671 364.955 388.561L374.96 394.223C376.114 394.498 376.774 395.817 377.214 396.972C378.368 400.215 378.973 403.679 379.138 407.197C379.303 410.605 379.633 413.849 379.193 417.257C378.753 420.226 378.258 423.195 377.763 426.163C377.324 428.912 376.554 431.88 376.884 434.739C377.049 436.058 377.269 437.323 377.928 438.532C378.148 439.027 378.698 439.357 378.863 439.852C377.873 440.127 377.269 441.006 376.499 441.556C375.729 442.106 374.74 442.326 373.915 442.82C373.256 443.205 372.706 443.7 372.101 444.195C371.606 444.634 371.002 445.019 370.562 445.459C370.067 445.954 369.737 446.559 369.188 446.998C368.638 447.438 368.088 447.823 367.428 448.153C366.549 448.538 365.449 448.757 364.625 448.318C363.745 447.823 363.58 446.833 363.8 445.899C364.02 444.909 364.955 444.085 365.504 443.425Z" fill="#FFC7AD"/>
<path d="M380.291 444.415C380.181 446.394 380.236 448.428 380.071 450.407C380.016 451.177 380.071 451.452 379.247 451.726C378.037 452.166 375.948 452.331 375.124 451.067C374.574 450.132 374.849 448.538 374.794 447.438C374.739 446.779 374.409 445.624 374.629 444.965C374.904 444.25 376.223 444.47 376.993 444.305C377.598 444.14 378.202 443.92 378.807 443.92C379.412 443.81 380.181 444.195 380.291 444.415Z" fill="#010958"/>
<path d="M375.949 440.072C376.169 439.907 376.444 439.742 376.664 439.632C376.884 439.522 377.158 439.412 377.378 439.302C377.598 439.247 377.873 439.137 378.148 439.192C378.588 439.302 379.082 439.632 379.357 440.017C379.907 440.896 380.292 441.831 380.512 442.82C380.787 443.92 380.787 445.184 380.457 446.284C380.182 447.328 379.137 448.043 378.148 448.263C377.323 448.428 376.499 448.318 375.674 448.263C374.575 448.153 373.64 448.208 372.596 448.538C372.376 448.593 372.211 448.703 371.991 448.758C371.386 449.032 370.781 449.307 370.177 449.472C369.627 449.692 369.077 449.912 368.527 450.077C366.933 450.462 365.229 450.132 363.8 449.472C363.195 449.197 362.425 448.867 361.931 448.373C361.381 447.768 360.831 447.108 360.666 446.284C360.446 445.294 360.336 444.195 360.941 443.315C361.436 442.6 362.425 442.271 363.25 442.326C363.69 442.38 364.075 442.49 364.514 442.6C364.954 442.71 365.449 442.765 365.834 442.985C365.504 443.7 364.844 444.25 364.569 445.019C364.349 445.624 364.624 446.119 365.009 446.559C365.339 446.943 366.164 446.888 366.658 446.833C367.098 446.778 369.682 445.624 370.452 444.964C371.331 444.195 372.156 443.48 372.925 442.6C373.86 441.666 374.904 440.841 375.949 440.072Z" fill="#1F0159"/>
<path d="M390.683 290.103C391.342 291.587 391.232 292.686 390.188 294.061C389.143 295.325 387.989 296.15 386.45 296.7C382.656 298.129 378.314 297.854 374.74 296.04C374.355 295.875 373.971 295.655 373.586 295.545C373.201 295.435 372.706 295.545 372.431 295.82C372.376 294.885 373.201 294.171 373.861 293.676C374.63 293.126 375.565 293.236 376.499 293.291C378.478 293.401 380.512 293.401 382.492 293.016C384.196 292.686 385.9 292.027 387.329 290.982C387.934 290.542 388.594 290.158 388.814 289.388C388.814 289.333 389.033 288.453 388.869 288.453C388.814 288.398 390.078 288.728 390.683 290.103Z" fill="#FFF8F5"/>
<path d="M397.719 305.605C399.038 301.757 399.698 297.689 399.753 293.566C399.808 290.432 400.632 285.814 397.004 284.055C395.08 283.121 392.221 283.67 390.462 284.66C389.858 284.99 387.604 286.089 387.054 286.309C383.865 287.629 380.732 289.168 377.598 290.762C375.894 291.642 374.08 292.356 372.321 293.181C369.682 294.39 367.813 296.04 365.944 298.184C364.405 299.998 362.975 301.867 362.261 304.176C361.491 306.65 361.436 308.959 361.601 311.542C361.711 313.466 365.669 326.275 362.92 334.961C362.041 337.82 362.096 339.359 364.679 341.778C366.054 343.043 367.758 342.438 369.352 342.273C371.111 342.108 372.651 342.603 374.465 342.493C379.193 342.218 384.69 341.833 388.868 339.414C390.517 338.48 391.892 337.05 392.002 335.071C392.057 333.587 391.342 332.817 390.572 331.718C389.418 330.014 389.638 327.815 390.022 325.891C390.352 324.076 390.902 322.262 391.452 320.503C392.112 318.469 392.936 316.435 393.816 314.456C394.915 311.927 396.18 309.453 397.169 306.87C397.389 306.54 397.554 306.045 397.719 305.605Z" fill="#E3E2F2"/>
<path d="M391.947 282.351C392.222 282.571 392.002 283.121 391.892 283.561C391.617 284.495 391.727 285.485 391.892 286.474C391.947 286.859 392.112 287.299 392.112 287.684C392.112 288.123 391.892 288.563 391.672 288.948C390.683 290.762 388.209 291.257 386.34 291.752C384.855 292.137 383.261 292.356 381.722 292.247C381.062 292.192 380.292 292.082 379.688 291.752C379.468 291.642 379.303 291.532 379.083 291.367C378.368 290.817 378.533 289.663 378.478 288.893C378.423 288.068 378.313 287.299 377.983 286.529C377.599 285.54 376.554 284.825 376.554 284.825C376.554 284.825 382.766 283.78 385.845 283.231C387.494 282.956 389.143 282.626 390.792 282.351C391.012 282.296 391.287 282.241 391.507 282.241C391.727 282.296 391.837 282.296 391.947 282.351Z" fill="#FFC7AD"/>
<path d="M374.299 262.945C373.419 263.825 372.649 264.869 372.32 266.134C371.715 268.552 372.32 271.026 371.825 273.445C371.385 275.534 372.375 278.283 372.759 280.427C372.979 281.746 373.309 283.23 374.464 284C375.123 284.44 376.003 284.55 376.663 285.045C377.047 285.319 377.817 285.649 378.202 285.979C379.301 286.969 381.005 286.804 382.325 286.749C383.699 286.694 385.184 286.584 386.448 286.144C388.922 285.265 390.681 283.121 392.275 281.086C405.579 264.154 382.93 254.314 374.299 262.945Z" fill="#FFC7AD"/>
<path d="M396.619 262.34C392.166 254.589 381.336 252.06 374.464 258.272C371.331 261.076 370.506 264.924 373.2 268.223C373.915 269.102 374.19 269.707 374.574 270.751C374.849 271.576 374.574 272.346 375.399 272.95C376.773 273.995 377.763 272.236 379.192 273.06C382.106 274.82 379.687 279.987 381.831 282.351C383.975 284.715 388.868 284.44 391.506 283.176C398.598 279.712 400.247 268.607 396.619 262.34Z" fill="#1F0159"/>
<path d="M380.07 271.741C382.269 271.961 382.379 274.71 380.565 276.579C380.015 277.128 379.19 277.513 378.531 277.898C374.133 280.537 373.748 276.854 375.122 275.919C378.421 273.775 377.321 271.466 380.07 271.741Z" fill="#FFC7AD"/>
<path d="M378.753 275.699C379.028 275.534 381.722 274.49 380.237 273.17C379.798 272.841 379.248 273.115 379.083 273.61C379.028 273.885 379.028 274.16 378.973 274.38C378.918 274.545 378.863 274.655 378.753 274.765C378.478 275.095 377.654 275.314 377.709 275.864C377.709 276.414 378.588 275.809 378.753 275.699Z" fill="#F3A984"/>
<path d="M360.886 360.524C359.897 343.537 363.855 330.398 363.855 330.398C363.855 330.398 379.138 336.94 389.858 329.739C391.452 331.883 393.101 335.841 393.486 336.83C395.08 340.844 395.355 344.362 395.63 349.035C396.015 355.961 395.355 363.383 394.86 370.31C394.311 377.456 394.421 398.621 392.277 399.116C390.627 399.501 385.185 399.391 385.185 399.391C385.185 399.391 383.591 389.221 383.151 388.121C382.546 390.815 382.876 393.729 382.656 396.422C382.601 397.302 382.546 398.182 382.326 399.061C382.106 399.996 381.392 400.216 380.457 400.381C379.523 400.545 372.101 401.865 366.494 400.436C365.119 400.106 364.405 399.226 364.13 397.797C363.91 396.257 361.216 366.077 360.886 360.524Z" fill="#F47300"/>
<path d="M363.249 332.707C363.633 331.168 363.853 330.344 363.853 330.344C363.853 330.344 379.136 336.885 389.856 329.684C390.241 330.179 390.571 330.728 390.901 331.333C383.094 337.6 372.539 335.676 363.249 332.707Z" fill="#D56400"/>
<path d="M375.343 301.263C374.958 300.548 374.408 299.888 373.859 299.338C373.144 298.624 372.374 297.964 371.44 297.579C370.011 297.085 368.086 297.085 366.712 297.799C365.283 298.514 363.908 299.943 362.644 300.988C359.895 303.187 357.092 305.386 354.343 307.585C352.804 308.794 351.429 309.454 349.505 308.684C347.966 308.079 346.702 306.98 345.382 305.99C343.073 304.396 340.819 302.747 338.565 301.098C337.356 300.218 336.256 299.174 334.992 298.349C334.167 297.799 333.013 297.03 332.023 297.139C331.364 297.249 330.759 297.634 330.264 298.019C329.605 298.514 328.945 299.064 328.56 299.778C327.296 302.472 330.429 304.891 331.913 306.705C333.233 308.299 334.772 309.729 336.311 311.103C343.183 316.985 346.757 319.734 349.505 320.174C351.429 320.668 353.518 320.009 355.387 319.239C359.016 317.755 362.369 315.666 365.778 313.687C367.482 312.697 369.186 311.708 370.945 310.828C372.979 309.839 374.518 308.794 375.453 306.65C376.223 305.001 376.223 302.912 375.343 301.263Z" fill="#EDECF8"/>
<path d="M404.095 281.692C404.15 287.354 402.721 292.961 402.226 298.624C401.676 304.286 402.171 310.388 405.525 315.006C403.765 316.16 401.347 315.886 399.532 314.841C397.718 313.742 396.454 311.927 395.519 310.058C392.826 304.781 392.331 298.679 392.111 292.796C391.891 286.859 391.836 280.867 390.022 275.26C389.362 273.281 388.483 271.247 388.867 269.213C389.582 265.199 394.255 264.155 397.498 265.859C400.082 267.233 401.951 271.466 402.886 273.995C403.655 276.469 404.04 279.108 404.095 281.692Z" fill="#010958"/>
<path d="M477.817 159.373L443.898 178.944C440.709 180.758 438.126 185.321 438.126 189.004V202.418C437.741 207.091 435.982 211.928 433.123 215.227C436.641 215.557 441.094 211.763 445.162 206.651L477.817 187.74C481.006 185.926 483.589 181.363 483.589 177.68V162.727C483.644 159.043 481.006 157.559 477.817 159.373Z" fill="#FE9F4A"/>
<path d="M459.126 189.994L444.118 198.68V195.381L459.126 186.75V189.994Z" fill="#F4F4FB"/>
<path d="M479.796 168.939V172.237L444.118 192.853V189.554L479.796 168.939Z" fill="#F4F4FB"/>
<path d="M312.398 276.248L344.998 257.392C349.066 255.028 352.364 256.952 352.364 261.625V274.874C352.859 280.207 355.113 283.78 358.741 283.725C354.289 289.277 348.571 291.036 343.459 290.487L312.398 308.463C308.33 310.827 305.032 308.903 305.032 304.23V289.002C305.032 284.33 308.33 278.612 312.398 276.248Z" fill="#F47300"/>
<path d="M336.258 283.89L344.834 278.887V274.764L336.258 279.712V283.89Z" fill="#F4F4FB"/>
<path d="M309.925 287.573V291.696L344.834 271.521V267.343L309.925 287.573Z" fill="#F4F4FB"/>
<path d="M391.122 185.431L415.696 171.138C419.764 168.774 423.062 170.698 423.062 175.371V188.62C423.557 193.952 425.811 197.526 429.439 197.471C424.986 203.023 419.269 204.782 414.157 204.233L391.122 217.646C387.054 220.01 383.756 218.086 383.756 213.413V198.185C383.756 193.513 387.054 187.74 391.122 185.431Z" fill="#EDECF8"/>
<path d="M398.05 189.225C399.974 187.521 401.789 186.146 404.317 184.827C407.726 182.848 409.43 184.607 409.43 187.136V188.455C409.43 191.919 408.385 194.557 404.702 196.536V198.625L401.459 200.494V194.777L403.493 193.568C404.592 192.908 405.142 192.193 405.142 190.819V190.434C405.142 189.28 404.482 189.225 403.218 189.939L398.05 192.908V189.225ZM401.239 202.034C401.239 201.649 401.404 201.264 401.789 201.099L404.317 199.67C404.702 199.45 404.867 199.56 404.867 200V203.023C404.867 203.463 404.647 203.738 404.317 203.958L401.789 205.387C401.459 205.552 401.239 205.442 401.239 205.112V202.034Z" fill="#F47300"/>
<defs>
<linearGradient id="paint0_linear_3_9415" x1="344.087" y1="305.05" x2="140.519" y2="207.211" gradientUnits="userSpaceOnUse">
<stop offset="0.00017593" stop-color="#4422A1"/>
<stop offset="0.1164" stop-color="#4A239F"/>
<stop offset="0.2667" stop-color="#5A2699"/>
<stop offset="0.4357" stop-color="#742B90"/>
<stop offset="0.6185" stop-color="#9A3283"/>
<stop offset="0.81" stop-color="#C93A72"/>
<stop offset="1" stop-color="#FF445F"/>
</linearGradient>
</defs>
</svg>
