<svg width="30" height="31" viewBox="0 0 30 31" fill="none" xmlns="http://www.w3.org/2000/svg">
<path d="M17.6367 15.0695C17.6367 16.5324 16.4562 17.7184 15 17.7184C13.5438 17.7184 12.3633 16.5324 12.3633 15.0695C12.3633 13.6065 13.5438 12.4205 15 12.4205C16.4562 12.4205 17.6367 13.6065 17.6367 15.0695Z" fill="#4F389E"/>
<path d="M19.4531 7.06378H10.5469C8.60824 7.06378 7.03125 8.64807 7.03125 10.5957V19.5432C7.03125 21.4908 8.60824 23.0751 10.5469 23.0751H19.4531C21.3918 23.0751 22.9688 21.4908 22.9688 19.5432V10.5957C22.9688 8.64807 21.3918 7.06378 19.4531 7.06378ZM15 19.4843C12.5769 19.4843 10.6055 17.5038 10.6055 15.0694C10.6055 12.6351 12.5769 10.6545 15 10.6545C17.4231 10.6545 19.3945 12.6351 19.3945 15.0694C19.3945 17.5038 17.4231 19.4843 15 19.4843ZM20.0391 10.89C19.5536 10.89 19.1602 10.4947 19.1602 10.007C19.1602 9.51934 19.5536 9.12406 20.0391 9.12406C20.5245 9.12406 20.918 9.51934 20.918 10.007C20.918 10.4947 20.5245 10.89 20.0391 10.89Z" fill="#4F389E"/>
<path d="M22.0898 0H7.91016C3.54855 0 0 3.56504 0 7.94678V22.1921C0 26.5739 3.54861 30.1389 7.91016 30.1389H22.0898C26.4514 30.1389 30 26.5738 30 22.1921V7.94678C30 3.56498 26.4514 0 22.0898 0ZM24.7266 19.5432C24.7266 22.4644 22.3608 24.841 19.4531 24.841H10.5469C7.63916 24.841 5.27344 22.4644 5.27344 19.5432V10.5957C5.27344 7.67453 7.63916 5.29785 10.5469 5.29785H19.4531C22.3608 5.29785 24.7266 7.67453 24.7266 10.5957V19.5432Z" fill="#4F389E"/>
</svg>
