<svg width="36" height="36" viewBox="0 0 36 36" fill="none" xmlns="http://www.w3.org/2000/svg">
<path d="M25.5289 0.606445H9.9422C4.64905 0.606445 0.342712 4.91299 0.342712 10.2061V25.7928C0.342712 31.0862 4.64905 35.3925 9.9422 35.3925H25.5289C30.8224 35.3925 35.1288 31.086 35.1288 25.7928V10.2061C35.129 4.91299 30.8224 0.606445 25.5289 0.606445ZM32.0426 25.7928C32.0426 29.3843 29.1206 32.3061 25.5291 32.3061H9.9422C6.35088 32.3063 3.4291 29.3843 3.4291 25.7928V10.2061C3.4291 6.61482 6.35088 3.69283 9.9422 3.69283H25.5289C29.1204 3.69283 32.0424 6.61482 32.0424 10.2061V25.7928H32.0426Z" fill="#F47300"/>
<path d="M17.7357 9.03613C12.7932 9.03613 8.77222 13.0571 8.77222 17.9996C8.77222 22.942 12.7932 26.9627 17.7357 26.9627C22.6783 26.9627 26.6992 22.942 26.6992 17.9996C26.6992 13.0571 22.6783 9.03613 17.7357 9.03613ZM17.7357 23.8761C14.4952 23.8761 11.8586 21.2399 11.8586 17.9994C11.8586 14.7587 14.495 12.1223 17.7357 12.1223C20.9764 12.1223 23.6128 14.7587 23.6128 17.9994C23.6128 21.2399 20.9762 23.8761 17.7357 23.8761Z" fill="#F47300"/>
<path d="M27.0752 6.41992C26.4805 6.41992 25.8964 6.66066 25.4764 7.08247C25.0544 7.50222 24.8118 8.08657 24.8118 8.68327C24.8118 9.27812 25.0546 9.86227 25.4764 10.2841C25.8962 10.7038 26.4805 10.9466 27.0752 10.9466C27.6719 10.9466 28.2542 10.7038 28.676 10.2841C29.0978 9.86227 29.3385 9.27792 29.3385 8.68327C29.3385 8.08657 29.0978 7.50222 28.676 7.08247C28.2562 6.66066 27.6719 6.41992 27.0752 6.41992Z" fill="#F47300"/>
</svg>
