<svg width="25" height="25" viewBox="0 0 25 25" fill="none" xmlns="http://www.w3.org/2000/svg">
<circle cx="12.9129" cy="12.4348" r="12.0652" fill="white"/>
<path fill-rule="evenodd" clip-rule="evenodd" d="M10.8278 6.0362C11.4711 6.00658 11.6762 6 13.3148 6C14.9535 6 15.1586 6.00713 15.8014 6.0362C16.4441 6.06526 16.8828 6.16782 17.2667 6.31644C17.6687 6.46835 18.0334 6.70582 18.3351 7.01293C18.6422 7.31401 18.8791 7.67816 19.0305 8.0807C19.1796 8.46459 19.2816 8.90333 19.3112 9.54498C19.3409 10.1894 19.3474 10.3945 19.3474 12.0326C19.3474 13.6713 19.3403 13.8764 19.3112 14.5197C19.2822 15.1613 19.1796 15.6001 19.0305 15.984C18.8791 16.3866 18.6418 16.7513 18.3351 17.0528C18.0334 17.3599 17.6687 17.5969 17.2667 17.7482C16.8828 17.8974 16.4441 17.9994 15.8025 18.029C15.1586 18.0586 14.9535 18.0652 13.3148 18.0652C11.6762 18.0652 11.4711 18.0581 10.8278 18.029C10.1861 18 9.74737 17.8974 9.36348 17.7482C8.96089 17.5968 8.59614 17.3595 8.29461 17.0528C7.9877 16.7516 7.7502 16.387 7.59866 15.9845C7.45004 15.6006 7.34804 15.1619 7.31842 14.5202C7.28881 13.8758 7.28223 13.6707 7.28223 12.0326C7.28223 10.3939 7.28936 10.1888 7.31842 9.54608C7.34749 8.90333 7.45004 8.46459 7.59866 8.0807C7.75042 7.67821 7.98811 7.31364 8.29516 7.01238C8.59626 6.70554 8.96065 6.46804 9.36293 6.31644C9.74682 6.16782 10.1856 6.06581 10.8272 6.0362H10.8278ZM15.7526 7.12207C15.1164 7.093 14.9255 7.08697 13.3148 7.08697C11.7041 7.08697 11.5133 7.093 10.8771 7.12207C10.2887 7.14894 9.96948 7.2471 9.75669 7.32992C9.47535 7.4396 9.27408 7.56958 9.06294 7.78072C8.86279 7.97543 8.70876 8.21248 8.61214 8.47447C8.52933 8.68725 8.43116 9.00643 8.40429 9.59489C8.37523 10.2311 8.36919 10.4219 8.36919 12.0326C8.36919 13.6433 8.37523 13.8342 8.40429 14.4703C8.43116 15.0588 8.52933 15.378 8.61214 15.5908C8.70866 15.8523 8.86277 16.0898 9.06294 16.2845C9.25763 16.4847 9.4951 16.6388 9.75669 16.7353C9.96948 16.8181 10.2887 16.9163 10.8771 16.9432C11.5133 16.9722 11.7036 16.9783 13.3148 16.9783C14.9261 16.9783 15.1164 16.9722 15.7526 16.9432C16.341 16.9163 16.6602 16.8181 16.873 16.7353C17.1543 16.6256 17.3556 16.4956 17.5667 16.2845C17.7669 16.0898 17.921 15.8523 18.0175 15.5908C18.1003 15.378 18.1985 15.0588 18.2254 14.4703C18.2544 13.8342 18.2605 13.6433 18.2605 12.0326C18.2605 10.4219 18.2544 10.2311 18.2254 9.59489C18.1985 9.00643 18.1003 8.68725 18.0175 8.47447C17.9078 8.19313 17.7779 7.99186 17.5667 7.78072C17.372 7.58058 17.135 7.42655 16.873 7.32992C16.6602 7.2471 16.341 7.14894 15.7526 7.12207V7.12207ZM12.5443 13.8923C12.9746 14.0714 13.4538 14.0956 13.9 13.9607C14.3461 13.8258 14.7316 13.5402 14.9906 13.1526C15.2496 12.7651 15.366 12.2996 15.3199 11.8358C15.2738 11.3719 15.0681 10.9385 14.738 10.6095C14.5275 10.3991 14.273 10.2381 13.9929 10.1379C13.7127 10.0377 13.4138 10.0009 13.1177 10.0301C12.8216 10.0593 12.5356 10.1538 12.2804 10.3068C12.0252 10.4598 11.8071 10.6675 11.6418 10.9148C11.4765 11.1622 11.3681 11.4432 11.3244 11.7375C11.2807 12.0319 11.3028 12.3322 11.3891 12.617C11.4754 12.9017 11.6238 13.1638 11.8235 13.3843C12.0233 13.6048 12.2695 13.7783 12.5443 13.8923ZM11.1223 9.84003C11.4102 9.5521 11.752 9.32369 12.1282 9.16787C12.5044 9.01204 12.9076 8.93183 13.3148 8.93183C13.722 8.93183 14.1252 9.01204 14.5015 9.16787C14.8777 9.32369 15.2195 9.5521 15.5074 9.84003C15.7953 10.128 16.0237 10.4698 16.1796 10.846C16.3354 11.2222 16.4156 11.6254 16.4156 12.0326C16.4156 12.4398 16.3354 12.843 16.1796 13.2192C16.0237 13.5954 15.7953 13.9373 15.5074 14.2252C14.9259 14.8067 14.1372 15.1334 13.3148 15.1334C12.4925 15.1334 11.7038 14.8067 11.1223 14.2252C10.5407 13.6437 10.2141 12.855 10.2141 12.0326C10.2141 11.2102 10.5407 10.4215 11.1223 9.84003V9.84003ZM17.1033 9.39362C17.1747 9.32631 17.2318 9.24537 17.2713 9.15559C17.3108 9.06581 17.3319 8.96901 17.3333 8.87093C17.3348 8.77286 17.3165 8.67549 17.2796 8.58459C17.2427 8.4937 17.188 8.41113 17.1186 8.34177C17.0493 8.27241 16.9667 8.21767 16.8758 8.1808C16.7849 8.14392 16.6876 8.12566 16.5895 8.12709C16.4914 8.12852 16.3946 8.14961 16.3048 8.18912C16.215 8.22863 16.1341 8.28575 16.0668 8.3571C15.9359 8.49587 15.8642 8.68019 15.867 8.87093C15.8698 9.06168 15.9468 9.24383 16.0817 9.37872C16.2166 9.51361 16.3987 9.59062 16.5895 9.5934C16.7802 9.59619 16.9645 9.52452 17.1033 9.39362V9.39362Z" fill="url(#paint0_linear_1111_35984)"/>
<defs>
<linearGradient id="paint0_linear_1111_35984" x1="7.36474" y1="5.99973" x2="19.3555" y2="6.00905" gradientUnits="userSpaceOnUse">
<stop stop-color="#FFA200"/>
<stop offset="1" stop-color="#F47300"/>
</linearGradient>
</defs>
</svg>
