<svg width="35" height="36" viewBox="0 0 35 36" fill="none" xmlns="http://www.w3.org/2000/svg">
<path d="M29.8003 0.606445H5.20548C2.39599 0.606445 0.109863 2.89257 0.109863 5.70206V30.2969C0.109863 33.1064 2.39599 35.3925 5.20548 35.3925H29.8003C32.6098 35.3925 34.8959 33.1064 34.8959 30.2969V5.70206C34.8959 2.89257 32.6098 0.606445 29.8003 0.606445ZM12.4073 28.1907H8.33079V13.923H12.4073V28.1907ZM12.4073 11.8847H8.33079V7.80825H12.4073V11.8847ZM26.675 28.1907H22.5985V20.0377C22.5985 18.914 21.684 17.9995 20.5603 17.9995C19.4366 17.9995 18.522 18.914 18.522 20.0377V28.1907H14.4455V13.923H18.522V14.6913C19.59 14.3593 20.2837 13.923 21.5794 13.923C24.344 13.9259 26.675 16.406 26.675 19.3371V28.1907Z" fill="#F47300"/>
</svg>
