<svg width="14" height="18" viewBox="0 0 14 18" fill="none" xmlns="http://www.w3.org/2000/svg">
<path d="M6.86927 0.25C5.10997 0.252076 3.42332 0.951876 2.1793 2.19589C0.935282 3.43991 0.235481 5.12656 0.233405 6.88587C0.231298 8.32358 0.700921 9.72227 1.57023 10.8674C1.57023 10.8674 1.75121 11.1057 1.78077 11.1401L6.86927 17.1413L11.9602 11.137C11.9867 11.1051 12.1683 10.8674 12.1683 10.8674L12.1689 10.8656C13.0378 9.72096 13.5072 8.32292 13.5051 6.88587C13.5031 5.12656 12.8033 3.43991 11.5592 2.19589C10.3152 0.951876 8.62858 0.252076 6.86927 0.25ZM6.86927 9.29891C6.39202 9.29891 5.92548 9.15739 5.52866 8.89224C5.13184 8.62709 4.82255 8.25023 4.63991 7.8093C4.45728 7.36838 4.40949 6.88319 4.5026 6.41511C4.59571 5.94702 4.82552 5.51706 5.16299 5.17959C5.50046 4.84212 5.93043 4.6123 6.39851 4.51919C6.8666 4.42608 7.35178 4.47387 7.79271 4.65651C8.23363 4.83915 8.6105 5.14843 8.87565 5.54525C9.14079 5.94208 9.28232 6.40861 9.28232 6.88587C9.28152 7.5256 9.02703 8.13891 8.57467 8.59127C8.12231 9.04363 7.50901 9.29811 6.86927 9.29891Z" fill="white"/>
</svg>
