<svg width="63" height="47" viewBox="0 0 63 47" fill="none" xmlns="http://www.w3.org/2000/svg">
<g clip-path="url(#clip0_954_300443)">
<path d="M14.8754 46.6755V22.649L7.4241 15.8322L0.74231 12.0493V42.4355C0.74231 44.7815 2.6431 46.6755 4.98234 46.6755H14.8754Z" fill="#4285F4"/>
<path d="M48.7946 46.6755H58.6877C61.034 46.6755 62.9277 44.7745 62.9277 42.4355V12.0496L55.3595 16.3824L48.7946 22.649V46.6755Z" fill="#34A853"/>
<path d="M14.8754 22.649L13.8615 13.2612L14.8754 4.27612L31.8351 16.996L48.7947 4.27612L49.9289 12.7761L48.7947 22.649L31.8351 35.3689L14.8754 22.649Z" fill="#EA4335"/>
<path d="M48.7946 4.27615V22.6491L62.9277 12.0494V6.39605C62.9277 1.15279 56.9424 -1.83625 52.7521 1.30825L48.7946 4.27615Z" fill="#FBBC04"/>
<path d="M0.742249 12.0493L7.24234 16.9246L14.8754 22.6491V4.27614L10.9178 1.30824C6.72032 -1.8365 0.742249 1.15278 0.742249 6.3958V12.0491V12.0493Z" fill="#C5221F"/>
</g>
<defs>
<clipPath id="clip0_954_300443">
<rect width="62.1856" height="46.8821" fill="white" transform="translate(0.742249 0.0241699)"/>
</clipPath>
</defs>
</svg>
