<svg width="63" height="63" viewBox="0 0 63 63" fill="none" xmlns="http://www.w3.org/2000/svg">
<g clip-path="url(#clip0_954_300440)">
<path d="M62.7423 31.4652C62.7423 14.2933 48.8214 0.372437 31.6495 0.372437C14.4775 0.372437 0.556702 14.293 0.556702 31.4652C0.556702 46.9844 11.9269 59.8478 26.7912 62.1803V40.453H18.8966V31.4652H26.7912V24.6151C26.7912 16.8225 31.4333 12.5181 38.5353 12.5181C41.9373 12.5181 45.4955 13.1253 45.4955 13.1253V20.7771H41.5749C37.7121 20.7771 36.5077 23.1739 36.5077 25.6329V31.4652H45.1311L43.7526 40.453H36.5077V62.1803C51.372 59.8478 62.7423 46.9846 62.7423 31.4652Z" fill="#1877F2"/>
<path d="M43.7526 40.453L45.1311 31.4652H36.5078V25.6329C36.5078 23.1737 37.7124 20.7771 41.5749 20.7771H45.4955V13.1253C45.4955 13.1253 41.9373 12.5181 38.5353 12.5181C31.4333 12.5181 26.7913 16.8225 26.7913 24.6151V31.4652H18.8966V40.453H26.7913V62.1803C28.3984 62.4322 30.0227 62.5584 31.6495 62.558C33.2763 62.5585 34.9006 62.4322 36.5078 62.1803V40.453H43.7526Z" fill="white"/>
</g>
<defs>
<clipPath id="clip0_954_300440">
<rect width="62.1856" height="62.1856" fill="white" transform="translate(0.556702 0.372437)"/>
</clipPath>
</defs>
</svg>
