<svg width="195" height="40" viewBox="0 0 195 40" fill="none" xmlns="http://www.w3.org/2000/svg">
<path d="M11.84 30.1137C9.62667 30.1137 7.67333 29.6403 5.98 28.6937C4.3 27.7337 2.98 26.4203 2.02 24.7537C1.07333 23.0737 0.6 21.1537 0.6 18.9937C0.6 16.6337 1.06667 14.5803 2 12.8337C2.93333 11.087 4.22 9.73367 5.86 8.77367C7.5 7.80034 9.38667 7.31367 11.52 7.31367C13.7867 7.31367 15.7133 7.847 17.3 8.91367C18.8867 9.98034 20.06 11.4803 20.82 13.4137C21.58 15.347 21.8467 17.6203 21.62 20.2337H16.24V18.2337C16.24 16.0337 15.8867 14.4537 15.18 13.4937C14.4867 12.5203 13.3467 12.0337 11.76 12.0337C9.90667 12.0337 8.54 12.6003 7.66 13.7337C6.79333 14.8537 6.36 16.5137 6.36 18.7137C6.36 20.727 6.79333 22.287 7.66 23.3937C8.54 24.487 9.82667 25.0337 11.52 25.0337C12.5867 25.0337 13.5 24.8003 14.26 24.3337C15.02 23.867 15.6 23.1937 16 22.3137L21.44 23.8737C20.6267 25.847 19.34 27.3803 17.58 28.4737C15.8333 29.567 13.92 30.1137 11.84 30.1137ZM4.68 20.2337V16.1937H19V20.2337H4.68ZM30.5453 30.1137C28.9986 30.1137 27.6853 29.8203 26.6053 29.2337C25.5386 28.6337 24.7253 27.8403 24.1653 26.8537C23.6186 25.8537 23.3453 24.7537 23.3453 23.5537C23.3453 22.5537 23.4986 21.6403 23.8053 20.8137C24.112 19.987 24.6053 19.2603 25.2853 18.6337C25.9786 17.9937 26.9053 17.4603 28.0653 17.0337C28.8653 16.7403 29.8186 16.4803 30.9253 16.2537C32.032 16.027 33.2853 15.8137 34.6853 15.6137C36.0853 15.4003 37.6253 15.167 39.3053 14.9137L37.3453 15.9937C37.3453 14.7137 37.0386 13.7737 36.4253 13.1737C35.812 12.5737 34.7853 12.2737 33.3453 12.2737C32.5453 12.2737 31.712 12.467 30.8453 12.8537C29.9786 13.2403 29.372 13.927 29.0253 14.9137L24.1053 13.3537C24.652 11.567 25.6786 10.1137 27.1853 8.99367C28.692 7.87367 30.7453 7.31367 33.3453 7.31367C35.252 7.31367 36.9453 7.607 38.4253 8.19367C39.9053 8.78034 41.0253 9.79367 41.7853 11.2337C42.212 12.0337 42.4653 12.8337 42.5453 13.6337C42.6253 14.4337 42.6653 15.327 42.6653 16.3137V29.5137H37.9053V25.0737L38.5853 25.9937C37.532 27.447 36.392 28.5003 35.1653 29.1537C33.952 29.7937 32.412 30.1137 30.5453 30.1137ZM31.7053 25.8337C32.7053 25.8337 33.5453 25.6603 34.2253 25.3137C34.9186 24.9537 35.4653 24.547 35.8653 24.0937C36.2786 23.6403 36.5586 23.2603 36.7053 22.9537C36.9853 22.367 37.1453 21.687 37.1853 20.9137C37.2386 20.127 37.2653 19.4737 37.2653 18.9537L38.8653 19.3537C37.252 19.6203 35.9453 19.847 34.9453 20.0337C33.9453 20.207 33.1386 20.367 32.5253 20.5137C31.912 20.6603 31.372 20.8203 30.9053 20.9937C30.372 21.207 29.9386 21.4403 29.6053 21.6937C29.2853 21.9337 29.0453 22.2003 28.8853 22.4937C28.7386 22.787 28.6653 23.1137 28.6653 23.4737C28.6653 23.967 28.7853 24.3937 29.0253 24.7537C29.2786 25.1003 29.632 25.367 30.0853 25.5537C30.5386 25.7403 31.0786 25.8337 31.7053 25.8337ZM55.1056 30.1137C52.3856 30.1137 50.1856 29.5003 48.5056 28.2737C46.839 27.0337 45.8256 25.287 45.4656 23.0337L51.0256 22.1937C51.2523 23.207 51.7523 24.0003 52.5256 24.5737C53.3123 25.147 54.3056 25.4337 55.5056 25.4337C56.4923 25.4337 57.2523 25.247 57.7856 24.8737C58.319 24.487 58.5856 23.9537 58.5856 23.2737C58.5856 22.847 58.479 22.507 58.2656 22.2537C58.0523 21.987 57.5723 21.727 56.8256 21.4737C56.0923 21.2203 54.9456 20.887 53.3856 20.4737C51.6256 20.0203 50.219 19.5137 49.1656 18.9537C48.1123 18.3937 47.3523 17.727 46.8856 16.9537C46.419 16.167 46.1856 15.2203 46.1856 14.1137C46.1856 12.727 46.539 11.527 47.2456 10.5137C47.9523 9.487 48.9456 8.70034 50.2256 8.15367C51.519 7.59367 53.039 7.31367 54.7856 7.31367C56.479 7.31367 57.979 7.57367 59.2856 8.09367C60.5923 8.61367 61.6456 9.35367 62.4456 10.3137C63.259 11.2737 63.759 12.407 63.9456 13.7137L58.3856 14.7137C58.2923 13.9137 57.9456 13.2803 57.3456 12.8137C56.7456 12.347 55.9323 12.0737 54.9056 11.9937C53.9056 11.927 53.099 12.0603 52.4856 12.3937C51.8856 12.727 51.5856 13.207 51.5856 13.8337C51.5856 14.207 51.7123 14.5203 51.9656 14.7737C52.2323 15.027 52.7723 15.287 53.5856 15.5537C54.4123 15.8203 55.6656 16.167 57.3456 16.5937C58.9856 17.0203 60.299 17.5203 61.2856 18.0937C62.2856 18.6537 63.0123 19.3337 63.4656 20.1337C63.919 20.9203 64.1456 21.8737 64.1456 22.9937C64.1456 25.207 63.3456 26.947 61.7456 28.2137C60.1456 29.4803 57.9323 30.1137 55.1056 30.1137ZM69.3194 39.1137L73.4794 27.6737L73.5594 31.0337L64.1594 7.91367H69.7994L76.1194 24.2737H74.8394L81.1194 7.91367H86.5594L74.3594 39.1137H69.3194ZM96.6119 30.1137C93.8919 30.1137 91.6919 29.5003 90.0119 28.2737C88.3452 27.0337 87.3319 25.287 86.9719 23.0337L92.5319 22.1937C92.7585 23.207 93.2585 24.0003 94.0319 24.5737C94.8185 25.147 95.8119 25.4337 97.0119 25.4337C97.9985 25.4337 98.7585 25.247 99.2919 24.8737C99.8252 24.487 100.092 23.9537 100.092 23.2737C100.092 22.847 99.9852 22.507 99.7719 22.2537C99.5585 21.987 99.0785 21.727 98.3319 21.4737C97.5985 21.2203 96.4519 20.887 94.8919 20.4737C93.1319 20.0203 91.7252 19.5137 90.6719 18.9537C89.6185 18.3937 88.8585 17.727 88.3919 16.9537C87.9252 16.167 87.6919 15.2203 87.6919 14.1137C87.6919 12.727 88.0452 11.527 88.7519 10.5137C89.4585 9.487 90.4519 8.70034 91.7319 8.15367C93.0252 7.59367 94.5452 7.31367 96.2919 7.31367C97.9852 7.31367 99.4852 7.57367 100.792 8.09367C102.099 8.61367 103.152 9.35367 103.952 10.3137C104.765 11.2737 105.265 12.407 105.452 13.7137L99.8919 14.7137C99.7985 13.9137 99.4519 13.2803 98.8519 12.8137C98.2519 12.347 97.4385 12.0737 96.4119 11.9937C95.4119 11.927 94.6052 12.0603 93.9919 12.3937C93.3919 12.727 93.0919 13.207 93.0919 13.8337C93.0919 14.207 93.2185 14.5203 93.4719 14.7737C93.7385 15.027 94.2785 15.287 95.0919 15.5537C95.9185 15.8203 97.1719 16.167 98.8519 16.5937C100.492 17.0203 101.805 17.5203 102.792 18.0937C103.792 18.6537 104.519 19.3337 104.972 20.1337C105.425 20.9203 105.652 21.8737 105.652 22.9937C105.652 25.207 104.852 26.947 103.252 28.2137C101.652 29.4803 99.4385 30.1137 96.6119 30.1137ZM118.887 30.1137C116.674 30.1137 114.72 29.6403 113.027 28.6937C111.347 27.7337 110.027 26.4203 109.067 24.7537C108.12 23.0737 107.647 21.1537 107.647 18.9937C107.647 16.6337 108.114 14.5803 109.047 12.8337C109.98 11.087 111.267 9.73367 112.907 8.77367C114.547 7.80034 116.434 7.31367 118.567 7.31367C120.834 7.31367 122.76 7.847 124.347 8.91367C125.934 9.98034 127.107 11.4803 127.867 13.4137C128.627 15.347 128.894 17.6203 128.667 20.2337H123.287V18.2337C123.287 16.0337 122.934 14.4537 122.227 13.4937C121.534 12.5203 120.394 12.0337 118.807 12.0337C116.954 12.0337 115.587 12.6003 114.707 13.7337C113.84 14.8537 113.407 16.5137 113.407 18.7137C113.407 20.727 113.84 22.287 114.707 23.3937C115.587 24.487 116.874 25.0337 118.567 25.0337C119.634 25.0337 120.547 24.8003 121.307 24.3337C122.067 23.867 122.647 23.1937 123.047 22.3137L128.487 23.8737C127.674 25.847 126.387 27.3803 124.627 28.4737C122.88 29.567 120.967 30.1137 118.887 30.1137ZM111.727 20.2337V16.1937H126.047V20.2337H111.727ZM141.703 30.1137C139.529 30.1137 137.623 29.627 135.983 28.6537C134.343 27.6803 133.063 26.3403 132.143 24.6337C131.236 22.9137 130.783 20.9403 130.783 18.7137C130.783 16.4603 131.249 14.4803 132.183 12.7737C133.116 11.0537 134.403 9.71367 136.043 8.75367C137.683 7.79367 139.569 7.31367 141.703 7.31367C143.876 7.31367 145.783 7.80034 147.423 8.77367C149.076 9.747 150.363 11.0937 151.283 12.8137C152.203 14.5203 152.663 16.487 152.663 18.7137C152.663 20.9537 152.196 22.9337 151.263 24.6537C150.343 26.3603 149.056 27.7003 147.403 28.6737C145.763 29.6337 143.863 30.1137 141.703 30.1137ZM141.703 25.0337C143.449 25.0337 144.749 24.447 145.603 23.2737C146.469 22.087 146.903 20.567 146.903 18.7137C146.903 16.7937 146.463 15.2603 145.583 14.1137C144.716 12.967 143.423 12.3937 141.703 12.3937C140.516 12.3937 139.543 12.6603 138.783 13.1937C138.023 13.727 137.456 14.467 137.083 15.4137C136.723 16.3603 136.543 17.4603 136.543 18.7137C136.543 20.647 136.976 22.187 137.843 23.3337C138.723 24.467 140.009 25.0337 141.703 25.0337ZM155.96 29.5137V24.0737H161.4V29.5137H155.96Z" fill="white"/>
<path d="M172.692 30.1137C171.146 30.1137 169.832 29.8203 168.752 29.2337C167.686 28.6337 166.872 27.8403 166.312 26.8537C165.766 25.8537 165.492 24.7537 165.492 23.5537C165.492 22.5537 165.646 21.6403 165.952 20.8137C166.259 19.987 166.752 19.2603 167.432 18.6337C168.126 17.9937 169.052 17.4603 170.212 17.0337C171.012 16.7403 171.966 16.4803 173.072 16.2537C174.179 16.027 175.432 15.8137 176.832 15.6137C178.232 15.4003 179.772 15.167 181.452 14.9137L179.492 15.9937C179.492 14.7137 179.186 13.7737 178.572 13.1737C177.959 12.5737 176.932 12.2737 175.492 12.2737C174.692 12.2737 173.859 12.467 172.992 12.8537C172.126 13.2403 171.519 13.927 171.172 14.9137L166.252 13.3537C166.799 11.567 167.826 10.1137 169.332 8.99367C170.839 7.87367 172.892 7.31367 175.492 7.31367C177.399 7.31367 179.092 7.607 180.572 8.19367C182.052 8.78034 183.172 9.79367 183.932 11.2337C184.359 12.0337 184.612 12.8337 184.692 13.6337C184.772 14.4337 184.812 15.327 184.812 16.3137V29.5137H180.052V25.0737L180.732 25.9937C179.679 27.447 178.539 28.5003 177.312 29.1537C176.099 29.7937 174.559 30.1137 172.692 30.1137ZM173.852 25.8337C174.852 25.8337 175.692 25.6603 176.372 25.3137C177.066 24.9537 177.612 24.547 178.012 24.0937C178.426 23.6403 178.706 23.2603 178.852 22.9537C179.132 22.367 179.292 21.687 179.332 20.9137C179.386 20.127 179.412 19.4737 179.412 18.9537L181.012 19.3537C179.399 19.6203 178.092 19.847 177.092 20.0337C176.092 20.207 175.286 20.367 174.672 20.5137C174.059 20.6603 173.519 20.8203 173.052 20.9937C172.519 21.207 172.086 21.4403 171.752 21.6937C171.432 21.9337 171.192 22.2003 171.032 22.4937C170.886 22.787 170.812 23.1137 170.812 23.4737C170.812 23.967 170.932 24.3937 171.172 24.7537C171.426 25.1003 171.779 25.367 172.232 25.5537C172.686 25.7403 173.226 25.8337 173.852 25.8337ZM189.212 4.91367V0.113671H194.652V4.91367H189.212ZM189.212 29.5137V7.91367H194.652V29.5137H189.212Z" fill="#F47300"/>
</svg>
