<svg width="63" height="71" viewBox="0 0 63 71" fill="none" xmlns="http://www.w3.org/2000/svg">
<g clip-path="url(#clip0_954_300436)">
<path d="M54.7286 13.9286C54.6798 13.5739 54.3691 13.3777 54.1123 13.356C52.2191 13.2138 50.3258 13.0726 48.4323 12.9326C48.4323 12.9326 44.6655 9.193 44.252 8.77908C43.8384 8.3654 43.0304 8.49122 42.7168 8.58353C42.6707 8.59713 41.8939 8.83689 40.6088 9.23454C39.3506 5.61369 37.1299 2.28627 33.2231 2.28627C33.1152 2.28627 33.0042 2.29064 32.8932 2.29696C31.7821 0.827583 30.4058 0.189209 29.217 0.189209C20.1163 0.189209 15.7684 11.566 14.4052 17.3473C10.8688 18.4431 8.35664 19.2221 8.03575 19.3229C6.06185 19.9421 5.99942 20.0043 5.74023 21.8643C5.54517 23.2724 0.380371 63.2143 0.380371 63.2143L40.6256 70.7548L62.4319 66.0374C62.4319 66.0374 54.7767 14.2832 54.7286 13.9286ZM38.3845 9.92246L34.9791 10.9765C34.9803 10.7365 34.9815 10.5004 34.9815 10.2421C34.9815 7.9918 34.6692 6.17991 34.168 4.74357C36.181 4.9962 37.5217 7.28662 38.3845 9.92246ZM31.6709 5.1898C32.2306 6.59214 32.5944 8.60466 32.5944 11.3204C32.5944 11.4594 32.5932 11.5864 32.592 11.7149C30.3774 12.4009 27.9708 13.1457 25.559 13.8929C26.9132 8.66636 29.4516 6.14202 31.6709 5.1898ZM28.967 2.63024C29.3598 2.63024 29.7555 2.76359 30.1342 3.02424C27.2176 4.39669 24.0913 7.85334 22.7711 14.7562L17.2118 16.4779C18.7582 11.2128 22.4303 2.63024 28.967 2.63024Z" fill="#95BF46"/>
<path d="M54.1123 13.3561C52.219 13.2139 50.3257 13.0727 48.4323 12.9327C48.4323 12.9327 44.6654 9.19309 44.252 8.77917C44.0973 8.62516 43.8886 8.54621 43.6705 8.51221L40.6275 70.7544L62.4318 66.0375C62.4318 66.0375 54.7767 14.2833 54.7286 13.9287C54.6797 13.574 54.3691 13.3777 54.1123 13.3561Z" fill="#5E8E3E"/>
<path d="M33.223 25.4049L30.5342 33.4031C30.5342 33.4031 28.1784 32.1458 25.2907 32.1458C21.0572 32.1458 20.8442 34.8025 20.8442 35.472C20.8442 39.1249 30.3664 40.5245 30.3664 49.0809C30.3664 55.8127 26.0967 60.1475 20.3397 60.1475C13.4312 60.1475 9.89832 55.8479 9.89832 55.8479L11.7481 49.7363C11.7481 49.7363 15.3796 52.854 18.444 52.854C20.4463 52.854 21.2608 51.2775 21.2608 50.1257C21.2608 45.3607 13.4487 45.1481 13.4487 37.3183C13.4487 30.7284 18.1787 24.3512 27.7266 24.3512C31.4055 24.3512 33.223 25.4049 33.223 25.4049Z" fill="white"/>
</g>
<defs>
<clipPath id="clip0_954_300436">
<rect width="62.1856" height="70.9304" fill="white" transform="translate(0.371094)"/>
</clipPath>
</defs>
</svg>
