<svg width="63" height="45" viewBox="0 0 63 45" fill="none" xmlns="http://www.w3.org/2000/svg">
<g clip-path="url(#clip0_954_300429)">
<path d="M25.8832 5.37678C27.8868 3.28919 30.6761 1.99447 33.7609 1.99447C37.862 1.99447 41.4398 4.28124 43.345 7.67594C45.0493 6.91468 46.8953 6.52231 48.7619 6.52454C56.1584 6.52454 62.1547 12.5731 62.1547 20.0341C62.1547 27.4961 56.1584 33.5449 48.7619 33.5449C47.876 33.5454 46.9923 33.4573 46.1239 33.2818C44.4459 36.2747 41.2486 38.2967 37.5787 38.2967C36.0946 38.2986 34.6297 37.9615 33.2957 37.311C31.5948 41.3118 27.632 44.1172 23.0132 44.1172C18.2036 44.1172 14.1046 41.0737 12.5311 36.8055C11.8436 36.9517 11.1312 37.0278 10.4002 37.0278C4.67382 37.0278 0.0312766 32.3376 0.0312766 26.551C0.0271514 24.7171 0.503704 22.9142 1.41344 21.3219C2.32318 19.7296 3.63434 18.4035 5.21624 17.4758C4.5594 15.9637 4.22136 14.3324 4.22322 12.6838C4.22322 6.029 9.62583 0.634399 16.2899 0.634399C20.2022 0.634399 23.679 2.49462 25.8832 5.37678Z" fill="#00A1E0"/>
<path d="M9.02909 23.1832C8.99023 23.285 9.04318 23.3061 9.05581 23.3241C9.17241 23.4089 9.29095 23.4699 9.41047 23.5379C10.0442 23.8743 10.6423 23.9727 11.268 23.9727C12.5423 23.9727 13.3335 23.295 13.3335 22.2036V22.1824C13.3335 21.1736 12.4406 20.8071 11.6025 20.5428L11.4937 20.5071C10.8619 20.3018 10.3168 20.125 10.3168 19.7088V19.687C10.3168 19.3311 10.6352 19.069 11.1291 19.069C11.6778 19.069 12.3291 19.2512 12.7486 19.4832C12.7486 19.4832 12.8715 19.5629 12.9167 19.4433C12.9414 19.3797 13.1537 18.8081 13.1761 18.7462C13.1999 18.6789 13.1574 18.6293 13.1142 18.6029C12.6354 18.3114 11.9734 18.1124 11.2884 18.1124L11.1609 18.1134C9.99467 18.1134 9.18043 18.8178 9.18043 19.8276V19.8488C9.18043 20.9134 10.0787 21.2584 10.9202 21.4991L11.0557 21.5409C11.6688 21.7291 12.1974 21.8912 12.1974 22.3231V22.3442C12.1974 22.7389 11.8539 23.0329 11.2998 23.0329C11.0849 23.0329 10.3991 23.0285 9.65824 22.5602C9.56884 22.5079 9.51662 22.47 9.44763 22.4285C9.41119 22.4054 9.32035 22.3653 9.28051 22.4858L9.02909 23.1832ZM27.6848 23.1832C27.6459 23.285 27.6989 23.3061 27.7115 23.3241C27.8281 23.4089 27.9466 23.4699 28.0661 23.5379C28.6996 23.8743 29.2979 23.9727 29.9237 23.9727C31.198 23.9727 31.9892 23.295 31.9892 22.2036V22.1824C31.9892 21.1736 31.0962 20.8071 30.2582 20.5428L30.1494 20.5071C29.5175 20.3018 28.9722 20.125 28.9722 19.7088V19.687C28.9722 19.3311 29.2909 19.069 29.7847 19.069C30.3335 19.069 30.9847 19.2512 31.4042 19.4832C31.4042 19.4832 31.5271 19.5629 31.5723 19.4433C31.5971 19.3797 31.8094 18.8081 31.8315 18.7462C31.8556 18.6789 31.8131 18.6293 31.7696 18.6029C31.291 18.3114 30.6289 18.1124 29.9441 18.1124L29.8166 18.1134C28.6501 18.1134 27.8361 18.8178 27.8361 19.8276V19.8488C27.8361 20.9134 28.7341 21.2584 29.5758 21.4991L29.7111 21.5409C30.3245 21.7291 30.8538 21.8912 30.8538 22.3231V22.3442C30.8538 22.7389 30.5093 23.0329 29.9555 23.0329C29.3742 23.037 28.804 22.8728 28.3139 22.5602C28.2245 22.5079 28.1713 22.4717 28.1043 22.4285C28.0812 22.4134 27.9731 22.3717 27.9359 22.4858L27.6848 23.1832ZM40.4204 21.0458C40.4204 21.6628 40.3053 22.1487 40.0789 22.4919C39.8549 22.832 39.5161 22.9972 39.0433 22.9972C38.5699 22.9972 38.2327 22.8327 38.0124 22.4919C37.7894 22.1494 37.6762 21.6628 37.6762 21.0458C37.6762 20.4301 37.7894 19.945 38.0124 19.6054C38.2327 19.2689 38.5699 19.1052 39.0433 19.1052C39.5161 19.1052 39.8547 19.2689 40.0796 19.6051C40.3055 19.9452 40.4204 20.4301 40.4204 21.0458ZM41.4841 19.9024C41.3797 19.5495 41.2169 19.2381 41 18.9787C40.7831 18.7185 40.5088 18.5098 40.1831 18.3575C39.8583 18.2062 39.4743 18.1292 39.0433 18.1292C38.6114 18.1292 38.2274 18.2062 37.9026 18.3575C37.5771 18.5096 37.3026 18.7185 37.085 18.9787C36.869 19.2388 36.706 19.5505 36.6009 19.9024C36.4974 20.2539 36.4454 20.638 36.4454 21.0458C36.4454 21.4539 36.4974 21.8389 36.6009 22.1892C36.7063 22.5414 36.8681 22.8529 37.086 23.1133C37.3081 23.3776 37.5873 23.5882 37.9026 23.729C38.2281 23.877 38.6114 23.952 39.0433 23.952C39.4743 23.952 39.8576 23.8767 40.1831 23.729C40.4985 23.5882 40.7778 23.3777 41 23.1133C41.2169 22.8538 41.3797 22.5424 41.4841 22.1892C41.5886 21.838 41.6408 21.4532 41.6408 21.0458C41.6408 20.639 41.5886 20.2539 41.4841 19.9024ZM50.219 22.8327C50.1838 22.7292 50.0837 22.7681 50.0837 22.7681C49.929 22.8274 49.7643 22.8823 49.5891 22.9097C49.3961 22.9383 49.2011 22.9522 49.0059 22.9512C48.4909 22.9512 48.0819 22.7982 47.7889 22.4955C47.4952 22.1929 47.3305 21.7036 47.3322 21.0415C47.3342 20.439 47.4795 19.9858 47.7403 19.6406C47.9998 19.2974 48.3943 19.1212 48.9209 19.1212C49.3598 19.1212 49.6943 19.1715 50.0448 19.2823C50.0448 19.2823 50.1289 19.3187 50.1687 19.2087C50.2615 18.9505 50.3308 18.7654 50.4299 18.4814C50.458 18.4008 50.3891 18.3663 50.3643 18.3566C50.2263 18.3026 49.9006 18.2149 49.6545 18.1778C49.4244 18.1425 49.1555 18.1238 48.8563 18.1238C48.4093 18.1238 48.0112 18.1999 47.6704 18.3522C47.3305 18.5035 47.0422 18.7124 46.8139 18.9726C46.5855 19.2325 46.4121 19.5442 46.2962 19.8964C46.1811 20.2476 46.1228 20.6336 46.1228 21.0415C46.1228 21.9237 46.3608 22.6372 46.8306 23.1592C47.3014 23.6831 48.0088 23.9494 48.9306 23.9494C49.4757 23.9494 50.0351 23.8388 50.4367 23.6805C50.4367 23.6805 50.5139 23.6433 50.4804 23.5539L50.219 22.8327ZM52.0805 20.4551C52.1307 20.1126 52.2255 19.8276 52.3715 19.6056C52.5918 19.2684 52.928 19.0833 53.4007 19.0833C53.8731 19.0833 54.1855 19.2692 54.4095 19.6056C54.5582 19.8276 54.6228 20.125 54.6483 20.4551H52.0805ZM55.6617 19.702C55.5713 19.3612 55.3474 19.017 55.2007 18.8596C54.9687 18.6099 54.7423 18.4355 54.5174 18.3383C54.191 18.1999 53.84 18.1289 53.4855 18.1294C53.0361 18.1294 52.628 18.2047 52.2971 18.3602C51.9653 18.5161 51.6865 18.7285 51.4678 18.9932C51.2492 19.2568 51.0848 19.5711 50.9803 19.9277C50.8749 20.2824 50.8219 20.6693 50.8219 21.0772C50.8219 21.4923 50.8768 21.8788 50.9856 22.2266C51.0952 22.5772 51.2706 22.8861 51.5079 23.1417C51.744 23.3992 52.0484 23.601 52.413 23.7417C52.7749 23.8816 53.2146 23.9542 53.7199 23.9533C54.7598 23.9496 55.3078 23.7179 55.5332 23.593C55.573 23.5712 55.6112 23.532 55.5633 23.4205L55.3279 22.7613C55.2927 22.6629 55.1926 22.6993 55.1926 22.6993C54.9352 22.7948 54.5688 22.9665 53.7148 22.9648C53.1563 22.9639 52.7421 22.7992 52.483 22.5417C52.2165 22.2781 52.0865 21.8907 52.0634 21.3436L55.6644 21.347C55.6644 21.347 55.7591 21.3453 55.7688 21.2533C55.7722 21.2144 55.8927 20.5134 55.6617 19.702ZM23.2426 20.4551C23.2939 20.1126 23.3876 19.8276 23.5339 19.6056C23.7542 19.2684 24.0904 19.0833 24.5629 19.0833C25.0356 19.0833 25.3479 19.2692 25.5726 19.6056C25.7206 19.8276 25.7852 20.125 25.8107 20.4551H23.2426ZM26.8232 19.702C26.7328 19.3612 26.5098 19.017 26.3628 18.8596C26.1311 18.6099 25.9045 18.4355 25.6798 18.3383C25.3534 18.1999 25.0024 18.1289 24.6479 18.1294C24.1992 18.1294 23.7904 18.2047 23.4595 18.3602C23.1275 18.5161 22.8489 18.7285 22.6302 18.9932C22.4116 19.2568 22.2472 19.5711 22.1427 19.9277C22.0383 20.2824 21.9843 20.6693 21.9843 21.0772C21.9843 21.4923 22.039 21.8788 22.1481 22.2266C22.2576 22.5772 22.433 22.8861 22.6701 23.1417C22.9064 23.3992 23.2108 23.601 23.5754 23.7417C23.9374 23.8816 24.377 23.9542 24.8823 23.9533C25.9222 23.9496 26.47 23.7179 26.6956 23.593C26.7355 23.5712 26.7734 23.532 26.7257 23.4205L26.4913 22.7613C26.4549 22.6629 26.3551 22.6993 26.3551 22.6993C26.0976 22.7948 25.732 22.9665 24.8762 22.9648C24.3187 22.9639 23.9046 22.7992 23.6454 22.5417C23.3789 22.2781 23.2487 21.8907 23.2259 21.3436L26.8266 21.347C26.8266 21.347 26.9213 21.3453 26.931 21.2533C26.9346 21.2144 27.0549 20.5134 26.8232 19.702ZM15.4595 22.8128C15.3186 22.7006 15.2991 22.6721 15.2515 22.5995C15.1806 22.489 15.1444 22.3313 15.1444 22.1314C15.1444 21.8147 15.2489 21.5873 15.4655 21.4343C15.4631 21.435 15.7753 21.1641 16.5101 21.1739C17.0258 21.1811 17.4868 21.2572 17.4868 21.2572V22.8944H17.4878C17.4878 22.8944 17.0301 22.9925 16.5152 23.0234C15.7823 23.0676 15.4568 22.8121 15.4595 22.8128ZM16.8922 20.2828C16.7462 20.2722 16.5569 20.2658 16.3303 20.2658C16.0213 20.2658 15.723 20.3047 15.4437 20.38C15.1739 20.45 14.9191 20.5682 14.6914 20.7288C14.474 20.8839 14.2952 21.0871 14.1691 21.3225C14.0418 21.5598 13.9772 21.8394 13.9772 22.1525C13.9772 22.4712 14.0319 22.7482 14.1417 22.9748C14.2487 23.1988 14.4103 23.3924 14.6117 23.5376C14.8116 23.6836 15.0587 23.7907 15.3453 23.8554C15.6276 23.92 15.9477 23.9525 16.2982 23.9525C16.6675 23.9525 17.0355 23.9226 17.3921 23.8614C17.6956 23.8092 17.998 23.7508 18.2991 23.6863C18.4186 23.6579 18.5515 23.6217 18.5515 23.6217C18.6409 23.5996 18.6336 23.5039 18.6336 23.5039L18.6319 20.2112C18.6319 19.489 18.439 18.9536 18.0594 18.6218C17.6816 18.2907 17.1249 18.1236 16.4054 18.1236C16.1357 18.1236 15.7009 18.1608 15.441 18.213C15.441 18.213 14.654 18.3651 14.3302 18.6182C14.3302 18.6182 14.2595 18.6624 14.2983 18.7615L14.5534 19.4465C14.585 19.5349 14.671 19.5048 14.671 19.5048C14.671 19.5048 14.6984 19.4944 14.7302 19.4757C15.423 19.0987 16.2992 19.1103 16.2992 19.1103C16.6886 19.1103 16.9876 19.188 17.1895 19.343C17.386 19.4934 17.4858 19.7207 17.4858 20.2005V20.3526C17.1761 20.3084 16.8922 20.2828 16.8922 20.2828ZM45.9348 18.4272C45.94 18.4152 45.9427 18.4023 45.9428 18.3892C45.9428 18.3761 45.9403 18.3632 45.9352 18.3511C45.9301 18.339 45.9227 18.3281 45.9133 18.319C45.9039 18.3099 45.8928 18.3027 45.8806 18.298C45.8196 18.2742 45.5133 18.2096 45.277 18.1945C44.8249 18.1671 44.5735 18.2431 44.3488 18.3442C44.1258 18.445 43.878 18.6077 43.7398 18.7928V18.3546C43.7398 18.2936 43.6966 18.2451 43.6363 18.2451H42.7133C42.6533 18.2451 42.6098 18.2936 42.6098 18.3546V23.7254C42.6098 23.7856 42.6593 23.8352 42.7196 23.8352H43.6655C43.6798 23.8351 43.694 23.8322 43.7073 23.8267C43.7205 23.8211 43.7325 23.813 43.7426 23.8028C43.7527 23.7926 43.7607 23.7806 43.7662 23.7673C43.7716 23.754 43.7744 23.7398 43.7743 23.7254V21.0422C43.7743 20.6822 43.8141 20.3227 43.8938 20.0973C43.9716 19.874 44.0779 19.6955 44.2089 19.567C44.334 19.4438 44.4866 19.3522 44.6541 19.2998C44.8213 19.2485 45.0064 19.2318 45.1373 19.2318C45.3258 19.2318 45.5328 19.2803 45.5328 19.2803C45.6017 19.2884 45.6408 19.2459 45.6639 19.1832C45.7256 19.0185 45.901 18.5254 45.9345 18.4272" fill="white"/>
<path d="M37.0549 15.9382C36.938 15.9028 36.8192 15.8745 36.699 15.8532C36.5373 15.8267 36.3736 15.8143 36.2098 15.8162C35.5583 15.8162 35.045 16.0001 34.685 16.363C34.3265 16.724 34.0831 17.2737 33.9612 17.9966L33.9167 18.24H33.0991C33.0991 18.24 32.9999 18.2364 32.9788 18.3445L32.8452 19.0941C32.8355 19.1648 32.8663 19.21 32.9618 19.21H33.7576L32.9504 23.716C32.8877 24.0789 32.8151 24.3772 32.7344 24.6036C32.6557 24.8266 32.579 24.994 32.4833 25.1161C32.391 25.2327 32.3045 25.3197 32.1539 25.37C32.03 25.4118 31.8867 25.4312 31.73 25.4312C31.6433 25.4312 31.5274 25.4169 31.4417 25.3994C31.3744 25.3862 31.309 25.365 31.2468 25.3362C31.2468 25.3362 31.1541 25.301 31.1169 25.394C31.0877 25.471 30.8752 26.054 30.8497 26.1259C30.8249 26.1976 30.8601 26.2532 30.9053 26.27C31.0115 26.3071 31.0902 26.3319 31.2345 26.3664C31.4346 26.4135 31.6037 26.416 31.7621 26.416C32.0929 26.416 32.3956 26.3691 32.646 26.279C32.8974 26.1879 33.1168 26.0292 33.3116 25.815C33.5212 25.5833 33.6531 25.3408 33.7787 25.009C33.9036 24.6816 34.0107 24.2744 34.0955 23.8003L34.9071 19.21H36.0929C36.0929 19.21 36.1928 19.2134 36.2132 19.1045L36.3478 18.3559C36.3565 18.2842 36.3266 18.24 36.2299 18.24H35.0785C35.0849 18.2143 35.1371 17.8091 35.269 17.4277C35.3256 17.2657 35.4317 17.1338 35.5211 17.0437C35.6054 16.958 35.7089 16.8936 35.8231 16.8559C35.9372 16.8187 36.0672 16.801 36.2098 16.801C36.3176 16.801 36.4248 16.8134 36.5052 16.8302C36.6169 16.8542 36.6602 16.8666 36.6893 16.8753C36.8071 16.9108 36.8229 16.8763 36.846 16.8195L37.1212 16.064C37.1496 15.9826 37.0797 15.9479 37.0549 15.9382ZM20.9687 23.726C20.9687 23.7859 20.9253 23.8348 20.8653 23.8348H19.9104C19.8501 23.8348 19.8076 23.7862 19.8076 23.726V16.0409C19.8076 15.9809 19.8501 15.9321 19.9104 15.9321H20.865C20.9253 15.9321 20.9687 15.9807 20.9687 16.0409V23.726Z" fill="white"/>
</g>
<defs>
<clipPath id="clip0_954_300429">
<rect width="62.1856" height="43.7242" fill="white" transform="translate(0 0.603149)"/>
</clipPath>
</defs>
</svg>
