<svg width="63" height="45" viewBox="0 0 63 45" fill="none" xmlns="http://www.w3.org/2000/svg">
<g clip-path="url(#clip0_954_300464)">
<path d="M61.2967 7.42291C60.94 6.10476 60.2443 4.90305 59.2787 3.93743C58.3131 2.97182 57.1114 2.27599 55.7933 1.91925C50.9676 0.603149 31.5458 0.603149 31.5458 0.603149C31.5458 0.603149 12.123 0.642987 7.2973 1.95909C5.97913 2.31585 4.77743 3.01171 3.81185 3.97737C2.84628 4.94303 2.15052 6.1448 1.79387 7.46299C0.334212 16.0373 -0.232017 29.1026 1.83395 37.3339C2.19064 38.6521 2.88641 39.8538 3.85198 40.8194C4.81756 41.785 6.01924 42.4809 7.33738 42.8376C12.1631 44.1537 31.5854 44.1537 31.5854 44.1537C31.5854 44.1537 51.0074 44.1537 55.8329 42.8376C57.1511 42.4809 58.3528 41.7851 59.3184 40.8195C60.284 39.8538 60.9798 38.6521 61.3366 37.3339C62.8761 28.7475 63.3505 15.6902 61.2967 7.42291Z" fill="#FF0000"/>
<path d="M25.3638 31.7104L41.4757 22.3782L25.3638 13.046V31.7104Z" fill="white"/>
</g>
<defs>
<clipPath id="clip0_954_300464">
<rect width="62.1856" height="43.7242" fill="white" transform="translate(0.484497 0.603149)"/>
</clipPath>
</defs>
</svg>
