<svg width="63" height="67" viewBox="0 0 63 67" fill="none" xmlns="http://www.w3.org/2000/svg">
<g clip-path="url(#clip0_954_300433)">
<path d="M4.09449 3.71762L40.045 1.06259C44.4609 0.683649 45.5956 0.939192 48.3721 2.95755L59.848 11.0422C61.741 12.4323 62.3711 12.8115 62.3711 14.3254V58.6634C62.3711 61.4421 61.3618 63.0856 57.8296 63.3371L16.0817 65.8643C13.4308 65.9899 12.1684 65.611 10.7802 63.8416L2.32949 52.853C0.813718 50.8302 0.185547 49.3162 0.185547 47.5468V8.13571C0.185547 5.864 1.19485 3.96904 4.09449 3.71762Z" fill="white"/>
<path d="M40.045 1.06259L4.09449 3.71762C1.19485 3.96904 0.185547 5.864 0.185547 8.13571V47.547C0.185547 49.3164 0.813475 50.8302 2.32949 52.853L10.7802 63.8416C12.1684 65.611 13.4308 65.9899 16.0817 65.8643L57.8296 63.3371C61.3596 63.0856 62.3711 61.4421 62.3711 58.6634V14.3254C62.3711 12.8895 61.8037 12.4758 60.1339 11.2501L59.846 11.0422L48.3721 2.95755C45.5956 0.939192 44.4612 0.683649 40.045 1.06259ZM17.0259 13.5998C13.6171 13.8293 12.844 13.8813 10.9079 12.3068L5.98532 8.39126C5.48492 7.88454 5.73609 7.252 6.99657 7.12641L41.5567 4.60134C44.4588 4.34798 45.9704 5.35923 47.1053 6.24294L53.0326 10.5376C53.2859 10.6652 53.9163 11.4211 53.1582 11.4211L17.4678 13.5694L17.0259 13.5998ZM13.0519 58.2845V20.6447C13.0519 19.0009 13.5564 18.2431 15.0681 18.1153L56.0602 15.7156C57.4507 15.59 58.0789 16.4734 58.0789 18.1153V55.5036C58.0789 57.1474 57.8252 58.5376 55.5557 58.6634L16.3285 60.9373C14.059 61.0629 13.0519 60.3072 13.0519 58.2845ZM51.7745 22.6628C52.0257 23.7999 51.7745 24.937 50.6375 25.0669L48.7469 25.4415V53.2317C47.1053 54.1151 45.5936 54.6199 44.3307 54.6199C42.3126 54.6199 41.8078 53.9874 40.2962 52.0946L27.9325 32.6424V51.4623L31.8433 52.3479C31.8433 52.3479 31.8433 54.6221 28.6882 54.6221L19.9885 55.1266C19.7351 54.6199 19.9885 53.3573 20.8703 53.1061L23.1417 52.4757V27.5923L19.9887 27.3367C19.7351 26.1999 20.3652 24.558 22.1327 24.4303L31.4668 23.8023L44.331 43.5057V26.0743L41.0522 25.6973C40.7988 24.3047 41.8078 23.2934 43.0683 23.17L51.7743 22.6631L51.7745 22.6628Z" fill="black"/>
</g>
<defs>
<clipPath id="clip0_954_300433">
<rect width="62.1856" height="65.1005" fill="white" transform="translate(0.185547 0.914917)"/>
</clipPath>
</defs>
</svg>
