<svg width="63" height="57" viewBox="0 0 63 57" fill="none" xmlns="http://www.w3.org/2000/svg">
<g clip-path="url(#clip0_954_300457)">
<path d="M5.00024 48.2709L7.74272 53.0077C8.31259 54.0051 9.13169 54.7887 10.0934 55.3586C12.848 51.8621 14.7651 49.1789 15.8455 47.3092C16.9418 45.4118 18.2892 42.4437 19.8878 38.4052C15.5796 37.838 12.3148 37.5546 10.0936 37.5546C7.96158 37.5546 4.69684 37.838 0.298912 38.4052C0.298912 39.5093 0.583848 40.6133 1.15372 41.6107L5.00024 48.2709Z" fill="#0066DA"/>
<path d="M52.6905 55.3586C53.6524 54.7887 54.4715 54.0051 55.0411 53.0079L56.1809 51.0491L61.6304 41.6107C62.1897 40.635 62.4843 39.5299 62.4849 38.4052C58.0615 37.838 54.8028 37.5546 52.7084 37.5546C50.4576 37.5546 47.1987 37.838 42.9317 38.4052C44.5114 42.4658 45.8411 45.4339 46.9208 47.3092C48.0098 49.2012 49.9329 51.8842 52.6905 55.3586Z" fill="#EA4335"/>
<path d="M31.392 18.4599C34.579 14.6109 36.7754 11.6428 37.981 9.55593C38.9519 7.87546 40.0205 5.19225 41.1864 1.50654C40.2248 0.93667 39.1207 0.651733 37.981 0.651733H24.803C23.6632 0.651733 22.5594 0.972378 21.5975 1.50654C23.0807 5.7337 24.3395 8.74217 25.3733 10.5317C26.516 12.5095 28.5222 15.1521 31.392 18.4599Z" fill="#00832D"/>
<path d="M42.8958 38.4053H19.8877L10.0934 55.3586C11.0549 55.9285 12.1589 56.2134 13.2987 56.2134H49.4848C50.6246 56.2134 51.7289 55.8928 52.6903 55.3584L42.8961 38.4053H42.8958Z" fill="#2684FC"/>
<path d="M31.3919 18.4599L21.5977 1.50684C20.6358 2.07671 19.8167 2.8601 19.2468 3.8575L1.15372 35.1998C0.594324 36.1755 0.299651 37.2805 0.298912 38.4052H19.8878L31.3919 18.4599Z" fill="#00AC47"/>
<path d="M52.5837 19.5285L43.5369 3.85725C42.9673 2.85986 42.148 2.07646 41.1863 1.50659L31.392 18.4599L42.8959 38.4052H62.4494C62.4494 37.3009 62.1644 36.1972 61.5946 35.1998L52.5837 19.5285Z" fill="#FFBA00"/>
</g>
<defs>
<clipPath id="clip0_954_300457">
<rect width="62.1856" height="55.6269" fill="white" transform="translate(0.298889 0.651733)"/>
</clipPath>
</defs>
</svg>
