<svg width="200" height="241" viewBox="0 0 200 241" fill="none" xmlns="http://www.w3.org/2000/svg">
<path d="M108.913 29.4476C115.514 42.2832 106.061 51.1434 97.9742 51.1434C89.8875 51.1434 80.7761 42.9192 84.9613 30.7174M101.41 96.6104C101.446 98.3348 102.993 101.791 108.889 101.82M104.306 100.683C103.744 102.15 104.166 105.344 109.856 105.843M86.857 81.6553C87.256 86.1673 84.5127 89.1673 87.5785 89.5965C93.3629 90.4063 95.0943 92.394 95.6053 92.1232C97.2888 92.2135 101.576 91.1486 105.255 86.1673C105.286 85.7462 105.688 85.1566 107.059 86.1673M114.99 83.1823C111.717 82.7069 105.16 79.5646 101.678 78.1739C99.3976 75.1947 100.332 67.5572 100.332 67.5572C100.332 67.5572 103.603 72.3848 109.494 74.2229M80.276 107.284C77.8522 109.433 74.6667 114.771 74.6667 120.039C74.6667 128.415 82.7689 139.788 80.276 144.569C77.7831 149.351 75.7055 153.508 71.1347 156.419C67.4781 158.747 79.4451 168.892 85.8857 173.673C90.3179 171.109 100.096 162.655 103.753 149.351C108.324 132.72 103.753 127.939 103.753 127.939C103.753 127.939 101.052 123.781 103.753 121.286M103.404 127.151C111.106 127.416 127.077 134.972 129.343 163.079C133.949 163.683 144.838 164.031 151.543 160.586C151.846 147.161 148.149 118.576 122.451 106.405M131.792 163.427L131.849 187.418C134.786 188.812 144.931 190.764 162.011 187.418M162.011 187.418C162.435 184.115 160.901 176.518 151.598 172.518V160.7M162.011 187.418L180.535 187.62V220.261H140.668V189.141C140.668 189.141 145.974 189.512 150.505 189.029M162.011 187.418C162.011 187.418 156.766 188.518 150.505 189.029M71.1265 159.583L52.1613 174.275C52.8581 177.452 57.5266 186.674 70.6263 198.139C73.4959 196.452 78.6016 190.627 76.0672 180.818L85.4061 173.584M132.037 167.819C135.326 168.519 143.877 169.09 151.77 165.776M67.8057 162.465C69.2661 165.496 74.0495 172.611 81.5001 176.827M132.037 173.947C135.326 174.646 143.877 175.218 151.77 171.904M62.9637 166.216C64.424 169.247 69.2074 176.362 76.6581 180.578M132.037 183.535C135.326 184.235 153.403 185.998 161.296 182.684M55.3861 172.086C56.8465 175.117 66.5203 190.498 73.9709 194.715M78.8665 119.422C80.9631 119.664 85.3015 118.599 85.882 112.403M107.007 97.2473C101.716 98.8158 97.9934 93.7182 99.463 91.9536C100.933 90.189 107.007 92.9339 107.007 90.2871V85.1893C107.136 84.5815 114.348 87.6597 114.348 87.6597C114.348 87.6597 119.73 88.118 119.992 87.6597M119.01 86.7594C121.328 88.1235 125.993 94.7179 126.32 105.391M38.3791 198.989V219.61M93.0388 190.434V220.431M150.505 189.029C150.505 201.225 150.505 220.43 150.505 220.43M84.2738 34.0249C85.1908 33.6808 88.0337 33.4054 92.0688 35.0571M97.521 35.3181C98.2577 34.974 101.948 34.7988 103.073 35.6292M107.678 35.6292C108.415 35.2851 109.987 34.7987 111.112 35.6291M84.3068 40.3282C80.2979 42.1574 78.1541 39.0872 78.1541 36.7346C78.1541 34.382 79.7206 31.8243 83.8899 33.6531M110.438 41.3633C114.122 42.0882 115.777 39.8194 115.777 37.4668C115.777 35.1142 114.056 32.8739 110.438 34.2556M92.0289 57.2008C94.7734 59.2471 100.65 61.6271 102.2 54.7777M88.6384 58.1701C90.1454 63.9318 96.6302 71.9014 98.6483 58.8971M98.6484 58.6653C102.954 61.6238 110.88 63.7448 103.588 54.6399M105.697 65.282L103.999 66.7924C103.489 67.2452 103.489 68.0391 103.988 68.5028C108.123 72.3433 114.705 79.5972 115.415 84.9532M115.415 85.3223L118.883 81.9267M127.433 80.9306L125.773 83.3942L115.656 85.1618M111.214 76.1103L113.569 73.6464H122.776M120.956 70.8077H111.321L108.965 73.2715M94.7034 92.755C94.1323 97.8084 93.8918 109.016 97.1385 110.533M87.5783 89.8671C85.7747 93.0858 82.9249 101.563 85.9552 109.72M126.243 82.9221C129.34 84.011 135.831 89.497 135.63 98.4434M99.398 80.9329C99.398 80.9329 101.129 82.6982 102.754 83.3814L106.915 85.1308M119.469 86.951V84.5018M107.695 73.5352C108.697 75.6515 110.687 80.2582 110.633 81.7551C110.58 83.252 109.543 85.0074 109.031 85.6979M113.639 80.3517V83.3264C113.639 83.4801 113.609 83.6321 113.545 83.7724C113.172 84.6025 112.459 85.9877 111.969 86.2326M101.34 82.4663C100.193 81.8104 96.2532 81.8214 93.6114 81.8316C92.9141 81.8344 92.3834 81.2043 92.3298 80.5087C92.118 77.7593 90.2123 74.5587 89.0301 72.9747C88.9291 72.8393 88.8286 72.6648 88.9272 72.5277C89.2304 72.1063 90.7825 71.8618 95.4486 73.2098M88.8271 72.6741C88.6809 72.9176 88.6322 74.7689 87.9019 76.2792C87.2324 77.6635 89.9173 80.7259 90.1449 83.8533C90.1816 84.3582 90.4649 84.8342 90.9473 84.9868C93.3595 85.75 97.4538 86.4821 100.77 85.9522C101.044 85.9083 101.305 85.7634 101.427 85.5139C101.655 85.0475 101.409 84.8626 102.168 83.3432M92.6249 81.5893C92.4625 82.0927 91.8749 83.2748 90.8233 83.9764M101.145 85.7303L104.651 86.8022M87.2448 89.5724C87.0532 88.825 87.6673 86.0844 91.0751 83.7591M95.4054 92.0829C96.4354 89.6518 101.305 88.1562 101.559 85.9787M89.0408 85.7408C92.5796 87.0357 98.6856 89.8376 99.3405 90.6831M139.089 77.1311C141.727 92.8278 135.853 109.93 110.088 106.457C88.7832 118.437 70.0235 104.892 67.3857 89.1948C64.7479 73.4981 78.661 58.0729 98.4615 54.7416C118.262 51.4103 132.448 61.5327 139.089 77.1311ZM83.2037 31.4532C86.1111 30.0702 93.3376 27.0791 100.608 28.3832C100.675 28.3953 100.742 28.4078 100.81 28.4205C101.045 27.9096 101.375 26.4025 100.81 24.4607C100.104 22.0334 103.5 27.105 103.177 28.4205C106.077 28.8595 107.809 28.7873 110.695 30.3757C110.695 28.6801 105.572 19.6866 97.0313 20.4801C85.7063 21.5324 83.9252 28.7819 83.2037 31.4532ZM28.5428 197.817H71.2439V220.431H28.5428V197.817ZM83.2026 190.434H125.904V220.431H83.2026V190.434ZM97.5418 36.5026C96.9808 38.5975 95.2756 39.9604 93.7332 39.5469C92.1907 39.1333 91.3951 37.0999 91.956 35.0051C92.517 32.9102 94.2222 31.5473 95.7646 31.9608C97.3071 32.3744 98.1027 34.4078 97.5418 36.5026ZM108.354 35.0052C108.914 37.1 108.119 39.1334 106.576 39.547C105.034 39.9605 103.329 38.5976 102.768 36.5028C102.207 34.4079 103.002 32.3745 104.545 31.961C106.087 31.5474 107.793 32.9104 108.354 35.0052ZM151.849 53.0131L143.647 61.2201C143.647 61.2201 147.47 67.0113 150.41 70.3218C154.504 74.9303 162.522 74.9303 162.522 74.9303L167.128 65.6278C167.128 65.6278 161.131 63.7038 158.087 61.2201C154.968 58.6754 151.849 53.0131 151.849 53.0131ZM112.016 72.5545C114.525 74.6023 117.217 79.8455 118.172 81.8152C118.391 82.2676 118.875 82.5309 119.372 82.4615L126.761 81.4311C127.575 81.3177 128 80.4077 127.556 79.7165C126.043 77.3627 123.015 72.7763 120.887 70.3814C117.503 66.5717 114.6 64.4395 113.696 63.8148C113.506 63.6839 113.281 63.6238 113.051 63.6327L106.27 63.8932C105.333 63.9291 104.848 65.0147 105.459 65.7267C107.168 67.7212 110.012 70.9194 112.016 72.5545ZM31.4779 70.4209L28.4757 81.6318C28.4757 81.6318 34.6799 84.7348 38.8811 86.1304C44.7295 88.0733 51.6729 84.0622 51.6729 84.0622L51.0132 73.7017C51.0132 73.7017 44.8579 75.0358 40.9808 74.4077C37.0084 73.7642 31.4779 70.4209 31.4779 70.4209ZM28.2022 142.536L20 150.743C20 150.743 23.8225 156.534 26.7634 159.845C30.8574 164.453 38.8749 164.453 38.8749 164.453L43.4808 155.151C43.4808 155.151 37.4835 153.227 34.4397 150.743C31.3211 148.199 28.2022 142.536 28.2022 142.536ZM97.5913 37.6589C98.3925 37.6589 101.135 37.6925 102.73 37.6589C102.428 39.1209 100.724 41.8959 99.3135 40.4843C98.8172 39.9878 97.8287 38.7035 97.5913 37.6589ZM95.9744 29.833C96.0911 30.2687 95.4548 30.8179 94.5532 31.0596C93.6516 31.3013 92.8262 31.1441 92.7095 30.7084C92.5928 30.2727 93.2291 29.7236 94.1307 29.4818C95.0323 29.2401 95.8578 29.3974 95.9744 29.833ZM108.393 31.5397C108.276 31.9754 107.451 32.1326 106.549 31.8909C105.648 31.6492 105.012 31.1 105.128 30.6643C105.245 30.2286 106.07 30.0714 106.972 30.3131C107.874 30.5548 108.51 31.104 108.393 31.5397ZM104.917 36.5632C104.466 36.5632 104.101 35.9262 104.101 35.1404C104.101 34.3546 104.466 33.7175 104.917 33.7175C105.368 33.7175 105.733 34.3546 105.733 35.1404C105.733 35.9262 105.368 36.5632 104.917 36.5632ZM95.3695 36.5632C94.9187 36.5632 94.5532 35.9262 94.5532 35.1404C94.5532 34.3546 94.9187 33.7175 95.3695 33.7175C95.8202 33.7175 96.1857 34.3546 96.1857 35.1404C96.1857 35.9262 95.8202 36.5632 95.3695 36.5632ZM43.7612 79.9509C43.7612 81.3683 42.2629 82.5173 40.4147 82.5173C38.5665 82.5173 37.0682 81.3683 37.0682 79.9509C37.0682 78.5336 38.5665 77.3846 40.4147 77.3846C42.2629 77.3846 43.7612 78.5336 43.7612 79.9509ZM56.5564 110.733C57.2647 111.96 56.5413 113.705 54.9407 114.629C53.3401 115.554 51.4684 115.309 50.7601 114.081C50.0519 112.854 50.7753 111.109 52.3759 110.184C53.9765 109.26 55.8482 109.505 56.5564 110.733ZM34.0775 156.935C33.3692 158.162 31.4975 158.408 29.8969 157.483C28.2963 156.558 27.5729 154.814 28.2812 153.586C28.9895 152.359 30.8612 152.113 32.4618 153.038C34.0624 153.963 34.7858 155.707 34.0775 156.935ZM157.621 67.5047C156.913 68.7322 155.041 68.9777 153.441 68.053C151.84 67.1284 151.117 65.3837 151.825 64.1563C152.533 62.9288 154.405 62.6833 156.006 63.608C157.606 64.5326 158.33 66.2773 157.621 67.5047ZM96.7363 70.455L95.559 72.8929C95.4018 73.2183 95.4088 73.5991 95.5779 73.9185L99.1332 80.6355C99.5904 81.4993 100.852 81.4199 101.198 80.5054L101.769 78.9941C101.905 78.6325 101.849 78.2263 101.619 77.9159L100.732 76.7206C100.636 76.5914 100.569 76.4433 100.535 76.2861L99.9422 73.5681L98.822 70.5533C98.4735 69.6156 97.1713 69.5543 96.7363 70.455ZM40.5833 113.616C41.0432 112.279 42.3346 110.388 44.9413 109.736C48.5855 108.825 52.6541 109.923 56.6148 104.178C56.9701 103.662 57.6659 103.486 58.2011 103.81L65.589 108.294C66.1258 108.619 66.2966 109.324 65.9484 109.847C62.0586 115.686 58.7031 115.538 55.0591 116.45C53.0189 116.96 51.3103 118.428 50.3322 119.729C49.813 120.42 48.631 120.769 47.9535 120.232L40.9403 114.68C40.6161 114.423 40.4489 114.008 40.5833 113.616Z" stroke="white"/>
</svg>
