<svg width="200" height="241" viewBox="0 0 200 241" fill="none" xmlns="http://www.w3.org/2000/svg">
<path d="M88.1874 35.8243C84.4198 53.2088 98.5045 60.7384 108.136 58.1577C117.767 55.577 125.996 42.8801 117.119 29.6919M120.867 37.1475C126.225 38.0453 127.799 33.7068 127.049 30.9064C126.298 28.1061 123.617 25.5616 119.235 29.0689M91.2361 52.0446C87.0802 54.0829 84.3852 51.9106 83.6349 49.1103C82.8846 46.31 84.2198 43.0942 88.9692 43.5843M27.4923 53.8147H46.8164M27.4923 60.9341H46.8164M27.4923 67.0364H46.8164M105.877 62.713C107.046 63.9213 110.297 65.8936 113.946 64.1161C117.595 62.3386 117.571 58.7757 117.104 57.2164M102.831 99.0388C101.133 99.6756 97.33 101 95.6996 101.204C93.6616 101.459 88.6945 98.1473 85.0011 92.9255C81.3076 87.7037 80.5434 81.7178 80.6707 80.1895C80.7981 78.6611 80.5434 76.6234 85.0011 73.8214C89.4587 71.0195 109.709 60.5759 112.384 59.3023C115.058 58.0286 141.677 44.0189 151.993 47.585C153.012 48.052 155.152 49.3171 155.559 50.6417M97.0777 91.4347C99.4239 96.2228 107.736 105.971 122.215 106.661C140.314 107.523 152.093 85.9762 149.22 78.7941M143.187 80.6615C146.73 79.4644 154.506 76.8117 157.264 75.7775C158.667 75.2513 159.577 74.034 159.018 73.0634M159.018 73.0634C161.937 73.793 163.292 75.9816 163.813 82.7561C164.334 89.5305 157.038 94.3249 154.12 95.5756C151.202 96.8262 145.678 95.784 144.636 98.2853C143.594 100.787 148.075 101.099 149.638 103.184C150.839 104.785 149.254 105.745 148.203 106.065C148.118 106.091 148.032 106.102 147.943 106.103C145.375 106.135 140.712 107.126 141.613 110.896C142.531 114.731 148.735 112.842 151.723 111.417M159.018 73.0634C158.715 72.9874 158.457 72.9195 158.239 72.8589C157.596 72.68 157.119 73.0483 156.884 73.6732C156.771 73.9731 156.596 74.2061 156.323 74.2061C151.992 74.2061 150.847 51.2287 151.483 49.6398C151.993 48.3687 152.799 50.1695 153.139 51.2287M156.621 114.231C154.119 115.621 148.596 117.379 146.511 113.293M153.243 51.09C163.808 50.4121 185.345 55.1581 186.972 79.5657C189.006 110.075 152.189 122.01 152.189 115.992M36.1371 79.2412C33.4249 78.7326 27.8989 78.1224 27.4921 79.7497C27.0498 81.5187 28.5306 84.826 32.9378 86.3271M32.9378 86.3271C33.356 86.4695 33.8005 86.5957 34.2723 86.7027C34.7571 86.8127 35.1162 87.2336 35.1703 87.7278C35.3743 89.5928 36.2489 92.438 38.6799 93.4799M32.9378 86.3271V86.3271C33.0244 86.347 33.0861 86.4239 33.0861 86.5127L33.0861 103.142C33.0861 103.704 32.6308 104.159 32.069 104.159H23.9326M32.9378 86.3271C30.8853 85.854 27.2176 84.6699 25.2216 82.926M25.2216 82.926C24.177 82.0133 23.5903 80.9473 23.9325 79.7498C24.9497 76.1901 29.0177 75.6815 33.5946 75.6815C38.1716 75.6815 42.4849 79.926 54.9529 84.3264C63.5979 87.3776 76.8196 83.9874 80.3793 80.2582M25.2216 82.926C25.3027 82.8808 25.3817 82.839 25.458 82.8009M25.2216 82.926C23.8618 83.6841 21.9345 85.398 22.9153 86.8691C23.342 87.509 23.8357 88.0595 24.3918 88.5158M24.3918 88.5158C26.4874 90.2351 29.4688 90.6174 33.0857 89.4118M24.3918 88.5158C24.408 88.4747 24.4244 88.4343 24.4409 88.3947M24.3918 88.5158C23.5769 90.5857 23.2138 94.4971 28.0006 94.4971C29.2714 94.4971 31.2481 94.1442 32.4607 93.7323C32.8481 93.6007 33.2877 93.6533 33.5996 93.9182C34.9488 95.0639 37.2556 96.9887 38.6796 98.0568C40.7138 99.5823 50.3758 107.21 62.5805 107.21C74.7852 107.21 83.9388 105.685 92.0753 100.599M80.8879 196.203C85.2952 171.794 96.754 118.805 107.331 102.125M80.8879 196.203C74.0974 196.793 69.9316 201.348 67.7685 205.357M80.8879 196.203C83.6001 198.068 91.6687 202 102.246 202.814M124.621 117.381C125.808 117.889 127.978 121.246 127.164 130.603C126.35 139.96 127.672 182.473 127.164 201.797M127.164 201.797C123.361 203.205 116.747 207.26 115.789 213.493M127.164 201.797C130.125 202.779 138.566 204.297 148.641 202.508M115.789 213.493C115.613 214.634 115.627 215.849 115.883 217.133C115.937 217.407 116.111 217.641 116.358 217.772C121.016 220.251 133.31 223.394 148.781 217.839C149.224 217.68 149.498 217.232 149.444 216.764C149.336 215.822 149.224 214.716 149.12 213.493M115.789 213.493C116.36 214.51 120.655 217.358 131.232 216.544C141.81 215.731 147.395 213.832 149.12 213.493M149.12 213.493C148.852 210.343 148.632 206.418 148.641 202.508M148.641 202.508C148.651 198.602 148.89 194.712 149.539 191.626M127.673 194.677C127.164 195.355 130.724 196.712 149.031 196.712M127.673 190.101C134.032 191.405 147.074 192.553 152.041 190.827C152.388 190.707 152.609 190.395 152.64 190.029C154.695 165.937 158.992 118.487 158.184 116.872M144.454 95.0056C144.454 95.0056 145.434 95.2025 145.98 95.5141C146.711 95.9321 146.997 96.5312 146.997 96.5312M126.147 125.517C120.892 138.909 111.763 170.557 109.874 187.558C109.366 192.135 110.179 193.762 105.297 192.135C99.195 190.101 88.5158 186.541 83.4305 183.49M67.7685 205.357C67.1122 206.573 66.6403 207.739 66.3353 208.729C66.2079 209.143 66.383 209.585 66.7495 209.815C77.9754 216.866 92.2826 217.662 98.8832 217.13C99.3644 217.091 99.7354 216.708 99.7886 216.228C99.8872 215.338 100.01 214.423 100.152 213.493M67.7685 205.357C71.4236 208.408 83.0175 214.307 100.152 213.493M105.297 192.643C103.976 196.607 101.358 205.604 100.152 213.493M81.905 189.084C84.7866 191.118 93.296 195.491 104.28 196.712M76.8199 197.22C76.6503 198.237 77.4301 200.475 81.9052 201.288M73.2598 199.254C73.0902 200.271 73.9717 202.61 78.8536 203.831M123.096 203.831C123.604 204.848 125.435 206.679 128.69 205.865M119.536 206.374C120.214 207.56 122.486 209.832 126.147 209.425M33.0861 72.6303V78.2241M119.448 30.0066C115.544 29.2882 105.983 28.0341 97.7407 31.9064C97.6641 31.9423 97.5877 31.9786 97.5115 32.0153C97.0683 31.4824 96.1953 29.7935 96.2486 27.302C96.3151 24.1875 93.8878 31.3081 94.6926 32.7707C91.3781 34.2189 89.2925 34.6856 86.3616 37.4973C85.8208 35.479 89.054 23.1392 99.4793 21.3581C113.303 18.9964 117.736 27.0571 119.448 30.0066ZM104.291 41.9849C103.336 42.2406 100.081 43.1558 98.17 43.6249C98.9963 45.2687 101.911 48.028 103.141 45.8976C103.573 45.1481 104.341 43.3039 104.291 41.9849ZM103.721 32.1538C103.721 32.7096 104.654 33.1602 105.805 33.1602C106.956 33.1602 107.889 32.7096 107.889 32.1538C107.889 31.598 106.956 31.1474 105.805 31.1474C104.654 31.1474 103.721 31.598 103.721 32.1538ZM107.896 41.255C108.289 41.6481 109.268 41.307 110.082 40.4932C110.895 39.6794 111.237 38.701 110.843 38.308C110.45 37.915 109.472 38.2561 108.658 39.0699C107.845 39.8837 107.503 40.862 107.896 41.255ZM93.415 46.5943C93.5589 47.1312 94.5767 47.3249 95.6883 47.0271C96.8 46.7292 97.5846 46.0525 97.4407 45.5156C97.2968 44.9787 96.279 44.7849 95.1674 45.0828C94.0557 45.3807 93.2711 46.0574 93.415 46.5943ZM89.475 38.148C89.7529 38.6293 90.7862 38.5531 91.7828 37.9776C92.7795 37.4022 93.3622 36.5455 93.0843 36.0641C92.8064 35.5827 91.7731 35.659 90.7764 36.2344C89.7797 36.8099 89.197 37.6666 89.475 38.148ZM95.2172 43.0184C95.7541 42.8745 95.9861 41.9996 95.7355 41.0643C95.4849 40.129 94.8465 39.4873 94.3096 39.6312C93.7727 39.7751 93.5406 40.6499 93.7912 41.5853C94.0419 42.5206 94.6803 43.1622 95.2172 43.0184ZM105.601 39.1103C106.138 38.9664 106.37 38.0916 106.119 37.1562C105.869 36.2209 105.23 35.5793 104.693 35.7231C104.156 35.867 103.924 36.7419 104.175 37.6772C104.425 38.6125 105.064 39.2541 105.601 39.1103ZM13.0171 72.3115H53.4228C53.9845 72.3115 54.4399 71.8561 54.4399 71.2944V49.812C54.4399 49.2503 53.9845 48.7949 53.4228 48.7949H13.0171C12.4554 48.7949 12 49.2503 12 49.812V71.2944C12 71.8561 12.4554 72.3115 13.0171 72.3115ZM21.8985 53.8147C21.8985 54.6572 21.2154 55.3403 20.3729 55.3403C19.5303 55.3403 18.8473 54.6572 18.8473 53.8147C18.8473 52.9721 19.5303 52.2891 20.3729 52.2891C21.2154 52.2891 21.8985 52.9721 21.8985 53.8147ZM21.8985 60.9341C21.8985 61.7767 21.2154 62.4597 20.3729 62.4597C19.5303 62.4597 18.8473 61.7767 18.8473 60.9341C18.8473 60.0915 19.5303 59.4085 20.3729 59.4085C21.2154 59.4085 21.8985 60.0915 21.8985 60.9341ZM21.8985 68.0535C21.8985 68.8961 21.2154 69.5791 20.3729 69.5791C19.5303 69.5791 18.8473 68.8961 18.8473 68.0535C18.8473 67.2109 19.5303 66.5279 20.3729 66.5279C21.2154 66.5279 21.8985 67.2109 21.8985 68.0535ZM23.9326 104.668C23.9326 106.072 22.7942 107.21 21.3899 107.21C19.9857 107.21 18.8473 106.072 18.8473 104.668C18.8473 103.263 19.9857 102.125 21.3899 102.125C22.7942 102.125 23.9326 103.263 23.9326 104.668Z" stroke="white"/>
</svg>
