<svg width="200" height="241" viewBox="0 0 200 241" fill="none" xmlns="http://www.w3.org/2000/svg">
<path d="M67.9396 193.093C68.0753 198.926 68.0323 211.242 66.8747 216.431C66.7654 216.92 67.0545 217.423 67.544 217.532C76.318 219.499 93.1897 222.18 98.3246 218.866C98.5478 218.722 98.6656 218.47 98.6567 218.205C98.5228 214.243 96.4999 206.443 89.2585 203.273C88.9321 203.13 88.711 202.811 88.711 202.455V192.227M67.9396 193.093C65.1701 193.093 64.4777 191.073 64.4777 190.064C64.7662 183.573 65.4297 168.6 65.7759 160.638C66.2086 150.685 63.6122 122.557 62.314 119.96C61.2754 117.883 61.8813 114.479 62.314 113.036M67.9396 193.093C71.4015 193.093 87.8455 192.227 88.711 192.227M88.711 192.227C89.4025 192.227 93.0291 162.444 91.7451 122.277C91.7418 122.177 91.7194 122.077 91.69 121.98C91.4411 121.166 91.4116 119.316 93.0384 117.364M67.5069 197.42C73.5652 197.997 85.6818 199.151 88.711 197.42M95.1103 181.409C99.7035 185.401 108.175 193.172 111.646 193.526M67.5069 203.046C73.5652 203.623 85.6818 204.777 88.711 203.046M91.839 185.986C96.4322 189.978 104.713 197.5 108.184 197.853M67.0741 213.431C79.1908 215.595 87.8455 217.759 97.7985 214.297M82.0357 56.3847C83.5181 61.9734 90.8747 63.7044 93.4711 57.2133M100.214 29.886C107.139 43.3456 97.2204 52.6367 88.7355 52.6367C80.2507 52.6367 70.6906 44.0127 75.0818 31.2175M74.3953 41.2956C70.1889 43.2137 67.9396 39.9942 67.9396 37.5272C67.9396 35.0602 69.5832 32.3781 73.9578 34.2958M101.814 42.3812C105.679 43.1413 107.415 40.7622 107.415 38.2952C107.415 35.8282 105.61 33.479 101.814 34.9279M73.1324 41.6348L71.1783 49.0604C71.0609 49.5065 71.3169 49.9679 71.7587 50.1007C87.1772 54.7352 101.44 51.6598 104.536 50.8856C104.91 50.7921 105.151 50.4581 105.125 50.0737C105.049 48.9873 104.783 46.5153 103.857 42.5003M51.0627 68.4645C50.788 68.7309 50.4982 69.0193 50.1964 69.3278M50.1964 69.3278C45.268 74.3648 37.1019 84.7622 38.0806 92.265C39.3788 102.218 46.3027 111.738 60.1503 112.604C71.2284 113.296 77.4597 112.604 86.98 111.305C89.3599 110.981 93.0256 109.523 92.6056 107.844C92.1727 106.113 90.0092 106.113 85.6818 106.978C88.2782 106.113 92.6055 102.651 92.1727 100.541C91.8859 99.1427 90.586 99.3583 90.0091 99.5026M50.1964 69.3278L50.1972 69.33M50.1964 69.3278C49.7637 68.1733 49.1593 66.0416 50.1972 66.7335C51.4954 67.599 64.4776 83.6103 64.4776 84.9085M90.0091 99.5026C90.4631 99.0425 90.893 98.512 91.3072 97.8906C92.1727 96.5924 91.74 93.5632 89.5763 94.4287C87.4126 95.2942 82.6525 95.7269 80.9215 96.1597C79.5781 96.4955 80.9216 93.996 80.4888 91.3996C80.3221 90.3994 78.7783 88.3296 77.4597 90.9668C76.0749 93.7363 72.2668 95.0057 70.5358 95.2942C66.497 95.5827 58.5923 95.1211 59.2847 90.9668C59.9771 86.8125 65.0545 84.62 67.5067 84.043M90.0091 99.5026C88.6952 100.834 87.1785 101.575 85.2489 102.218M66.2086 79.2829C66.6414 82.6006 68.9782 90.1014 74.8634 93.5633M68.3725 39.9038C67.6513 40.9136 66.9906 43.1622 68.3721 43.7985C69.6098 44.3685 71.4017 43.2215 71.4018 42.0675M107.319 39.9038C107.97 40.7679 109.135 43.1249 107.889 43.6693C106.772 44.1571 105.155 43.1756 105.155 42.1881M147.563 52.4533C148.554 50.1011 150.713 46.304 152.399 47.2443M152.399 47.2443C152.678 47.3996 152.944 47.6842 153.189 48.1259C155.353 52.0205 152.323 52.4532 152.323 54.1841C152.323 55.9151 153.189 55.0496 153.189 56.7805C153.189 58.1653 152.323 60.2424 151.891 61.1079M152.399 47.2443C152.741 47.1124 153.528 46.1295 154.487 42.9331C155.487 39.6017 153.895 39.2089 152.873 39.4411C152.795 39.459 152.716 39.4696 152.636 39.4767C151.696 39.559 149.551 40.5881 147.563 44.2313C144.967 48.9914 144.101 57.2134 139.774 62.4062C135.447 67.5991 131.552 68.4645 128.523 68.4645C126.135 68.4645 122.709 67.3436 121.23 66.7589M152.399 47.2443C152.371 47.2553 152.346 47.2604 152.323 47.2604M154.054 45.0967C155.353 45.0967 157.862 46.1353 157.516 50.2896C157.412 51.5366 157.098 52.3729 156.674 52.9132M156.674 52.9132C155.684 54.1728 154.097 53.8235 153.189 53.3187M156.674 52.9132C158.128 54.642 161.411 57.0096 161.411 51.1551C161.411 45.2698 158.526 45.818 157.084 46.8277M156.674 52.9132C156.666 52.9041 156.658 52.8951 156.651 52.886M121.166 66.7336L121.23 66.7589M121.23 66.7589C121.376 65.3973 120.893 64.7888 120.444 64.6123C120.352 64.5761 120.257 64.5433 120.171 64.4925C109.393 58.0754 98.1674 57.6427 82.2199 56.7806C66.2086 55.9152 49.7647 64.1372 48.4665 65.8681C47.4279 67.2529 48.3222 69.0415 48.8992 69.7628M121.23 66.7589C121.15 67.5118 120.877 68.495 120.301 69.7628C118.636 73.4257 113.634 81.119 111.073 84.9095C110.949 85.0929 110.899 85.3143 110.943 85.5181C110.983 85.7027 111.162 85.8081 111.344 85.8585C120.502 88.3962 130.346 89.638 139.341 86.6395C151.19 82.6901 159.968 62.262 160.113 55.0497M81.3544 95.7269L86.8139 74.309C86.9116 73.9257 87.2569 73.6573 87.6526 73.6573H111.853C112.411 73.6573 112.823 74.1769 112.696 74.7198L105.311 106.31C105.22 106.701 104.871 106.978 104.469 106.978H91.7401M80.0562 90.1014L84.2138 74.3026C84.3139 73.9223 84.6576 73.6573 85.0508 73.6573H87.4128M143.236 55.9151C141.649 55.0496 138.649 53.838 139.341 55.9151C140.206 58.5115 155.785 73.2246 157.949 70.1954C158.567 69.33 157.805 66.8778 156.651 66.7336M141.505 60.2425C140.207 59.54 138.263 58.3274 138.406 60.5123C138.584 63.2433 149.922 81.4267 152.783 79.0454C153.601 78.365 153.485 75.7996 152.405 75.3674M91.7401 122.557C98.087 125.297 109.17 134.455 107.751 147.223C106.02 162.801 99.2409 169.437 97.3657 173.187C96.933 173.908 96.4137 175.61 97.7985 176.649C99.1271 177.645 108.795 185.096 114.036 189.138C114.397 189.416 114.91 189.366 115.207 189.02C120.693 182.637 130.799 168.567 132.85 153.714C133.926 145.924 133.194 130.305 126.359 117.797C121.197 108.35 114.675 102.651 107.751 97.4579M86.98 207.166C87.9897 207.505 90.615 207.674 93.0384 205.642M104.393 200.038C105.098 200.836 107.287 202.296 110.402 201.748M88.711 209.763C89.7207 210.101 92.346 210.271 94.7693 208.239M104.594 203.152C105.299 203.95 107.488 205.41 110.602 204.862M97.7985 177.082L89.5765 188.333M114.242 189.631L108.548 197.359C108.33 197.655 108.325 198.055 108.514 198.37C110.192 201.167 111.886 206.662 109.201 212.133M96.933 210.835C100.419 214.004 104.171 215.481 105.998 215.929C106.281 215.999 106.576 215.901 106.771 215.685C107.82 214.521 108.615 213.328 109.201 212.133M109.201 212.133C106.987 212.278 99.7891 209.623 88.711 197.853M73.2381 31.9892C76.2887 30.5389 77.4598 30.1259 80.0562 29.5181C80.3031 28.9825 81.7043 26.6548 82.6527 24.758C83.0854 23.8926 82.2199 27.3545 82.9724 28.9104C86.1146 27.7872 99.0551 29.1936 102.083 30.8593C102.083 29.0812 96.7081 19.6504 87.7466 20.4825C75.8639 21.5859 73.9952 29.1879 73.2381 31.9892ZM86.1146 37.7402C87.194 37.7402 90.8888 37.7866 93.0384 37.7402C92.6311 39.7593 91.7401 43.2894 88.4347 41.6423C87.0788 40.9666 86.4343 39.1827 86.1146 37.7402ZM85.3178 31.2458C85.4775 31.8415 84.5067 32.6192 83.1495 32.9829C81.7924 33.3465 80.5628 33.1584 80.4032 32.5627C80.2435 31.967 81.2143 31.1893 82.5715 30.8256C83.9286 30.462 85.1582 30.6501 85.3178 31.2458ZM83.7156 39.9789C83.391 40.5411 82.4403 40.5999 81.5921 40.1102C80.744 39.6205 80.3196 38.7678 80.6442 38.2056C80.9688 37.6434 81.9194 37.5846 82.7676 38.0743C83.6157 38.5639 84.0402 39.4167 83.7156 39.9789ZM97.5632 38.7582C97.2386 38.196 96.2879 38.1371 95.4397 38.6268C94.5916 39.1165 94.1672 39.9692 94.4918 40.5314C94.8163 41.0937 95.767 41.1525 96.6152 40.6628C97.4633 40.1731 97.8878 39.3204 97.5632 38.7582ZM98.8837 32.3337C98.7165 32.9575 97.534 33.1826 96.2424 32.8365C94.9508 32.4904 94.0392 31.7042 94.2063 31.0804C94.3735 30.4566 95.556 30.2314 96.8477 30.5775C98.1393 30.9236 99.0508 31.7099 98.8837 32.3337ZM93.9682 37.413C93.4546 37.1598 93.3338 36.3553 93.6983 35.6163C94.0628 34.8773 94.7746 34.4836 95.2881 34.7369C95.8017 34.9902 95.9225 35.7946 95.558 36.5336C95.1935 37.2726 94.4817 37.6663 93.9682 37.413ZM85.0509 37.1265C84.4562 37.3015 83.7855 36.8027 83.5528 36.0122C83.3201 35.2217 83.6135 34.439 84.2082 34.2639C84.8029 34.0889 85.4736 34.5877 85.7063 35.3782C85.939 36.1687 85.6456 36.9514 85.0509 37.1265ZM91.3074 76.2538C91.3074 76.9708 90.7262 77.552 90.0092 77.552C89.2922 77.552 88.711 76.9708 88.711 76.2538C88.711 75.5368 89.2922 74.9556 90.0092 74.9556C90.7262 74.9556 91.3074 75.5368 91.3074 76.2538Z" stroke="white"/>
</svg>
