<svg width="240" height="241" viewBox="0 0 240 241" fill="none" xmlns="http://www.w3.org/2000/svg">
<g clip-path="url(#clip0_954_301242)">
<path d="M92.1519 109.659C58.5007 104.58 12.0624 114.739 10.1584 148.39C8.03887 185.85 48.254 187.12 60.9524 185.85C42.5397 190.294 0 186.883 0 182.675C5.07937 180.136 10.1587 180.136 25.3968 178.866M74.9112 109.088C78.1777 113.222 85.9686 119.101 91.001 109.539M69.4833 109.177C69.4297 118.341 75.8991 132.768 84.0786 114.246M83.898 115.923C90.5269 120.475 102.729 123.738 91.5019 109.73M106.802 78.0655C111.506 99.7708 93.9202 109.172 81.8952 105.95C69.8703 102.728 59.5964 86.875 70.6786 70.409M68.3392 75.0503C69.8399 74.9043 74.1769 75.6278 79.5194 79.6902M87.523 82.2507C88.7556 82.0328 94.3129 83.2427 95.6545 84.925M102.503 86.7601C103.736 86.5422 106.267 86.4459 107.609 88.1281M65.8787 84.4311C59.189 85.5521 57.2238 80.1352 58.1606 76.6389C59.0974 73.1426 62.4453 69.9657 67.9168 74.3447M57.778 145.849C42.5398 145.849 34.7974 154.316 43.1746 156.643C50.7938 158.76 56.5081 157.913 62.8573 157.913M48.2541 157.278C46.9843 161.088 42.5395 175.056 46.349 185.85M63.9377 160.084C63.0666 158.404 58.9183 160.358 58.3092 170.908C57.719 181.128 58.2646 185.334 60.245 185.664C61.6455 185.898 61.9104 183.735 62.1128 183.097C66.5316 184.218 74.9206 181.406 81.2983 183.708C85.6318 185.272 86.743 180.815 80.8679 176.259M80.8679 176.259C80.0742 175.643 79.1531 175.026 78.0952 174.422C79.0453 175.097 79.9785 175.716 80.8679 176.259ZM80.8679 176.259C86.6694 179.801 90.6067 180.11 85.2437 171.66M85.2437 171.66C99.0475 176.961 95.8731 157.913 60.952 161.723M85.2437 171.66C84.9774 170.887 83.0478 169.215 77.4605 168.707M83.8095 180.771C85.7143 182.464 90.7937 185.342 95.873 183.31C102.222 180.771 97.7778 175.056 92.0635 172.517M95.873 175.056C103.28 163.204 111.238 134.929 83.8095 116.644M99.0476 178.866C103.492 178.019 113.27 173.279 116.825 161.088M92.0635 109.659C97.5661 109.448 109.968 110.675 115.556 117.279M120.635 86.8025C119.153 89.7655 115.683 95.1835 113.651 93.1517C111.111 90.612 113.016 84.8977 116.825 82.993C120.635 81.0882 123.175 81.7231 125.079 84.2628C126.603 86.2946 131.217 91.0353 133.333 93.1517M111.746 88.0722C110.476 88.4955 108.445 87.8183 110.476 81.723C113.016 74.104 118.095 77.2786 119.365 77.9135C120.381 78.4215 121.058 80.6648 121.27 81.723M108.571 76.6437C109.841 74.3156 113.016 70.1675 115.556 72.1992C118.095 74.231 117.884 76.0088 117.46 76.6437M102.857 99.5008C103.492 101.617 105.143 105.342 106.667 103.31C108.176 101.298 114.375 99.9504 117.373 99.5134C117.433 99.5047 117.491 99.502 117.55 99.4974C118.584 99.4184 119.645 97.9458 116.19 92.5167M118.73 98.8659C119.788 99.0775 121.143 97.723 120.635 95.6913C120.127 93.6595 118.942 92.305 118.095 91.2468M111.111 101.406L119.365 109.025M115.555 105.215C113.651 107.755 113.016 109.406 115.555 110.929M116.826 107.12C116.402 108.813 116.445 111.564 120 109.025C124.445 105.85 135.238 94.4213 134.603 92.5166C134.095 90.9928 132.275 91.4584 131.429 91.8817M130.794 90.612C131.429 89.9771 132.952 88.8342 133.968 89.3422C135.238 89.9771 145.397 103.31 150.476 110.294M144.127 101.406C143.915 102.464 142.222 105.723 137.143 110.294M200 159.818V112.834C200 112.133 199.431 111.564 198.73 111.564H120C119.299 111.564 118.73 112.133 118.73 112.834V159.818C118.73 160.52 119.299 161.088 120 161.088H146.032M200 159.818C200 160.52 199.431 161.088 198.73 161.088M200 159.818V111.564C200 110.863 199.431 110.294 198.73 110.294H116.19C115.489 110.294 114.921 110.863 114.921 111.564V159.818C114.921 160.52 115.489 161.088 116.19 161.088H145.397M198.73 161.088H169.524M198.73 161.088H170.159M149.206 180.136V152.199M149.206 180.136C149.206 180.837 149.775 181.406 150.476 181.406H168.254C168.955 181.406 169.524 180.837 169.524 180.136V152.199C169.524 151.498 168.955 150.929 168.254 150.929H150.476C149.775 150.929 149.206 151.498 149.206 152.199M149.206 180.136C149.206 180.837 148.638 181.406 147.937 181.406H146.667C145.965 181.406 145.397 180.837 145.397 180.136V152.199C145.397 151.498 145.965 150.929 146.667 150.929H147.937C148.638 150.929 149.206 151.498 149.206 152.199M182.222 185.215H137.778C137.076 185.215 136.508 184.647 136.508 183.945V182.675C136.508 181.974 137.076 181.406 137.778 181.406H182.222M182.222 185.215C182.924 185.215 183.492 184.647 183.492 183.945V182.675C183.492 181.974 182.924 181.406 182.222 181.406M182.222 185.215H117.46C116.759 185.215 116.19 184.647 116.19 183.945V182.675C116.19 181.974 116.759 181.406 117.46 181.406H182.222M67.7722 70.8025C72.6463 69.9056 84.5833 68.3397 94.8745 73.1745C94.97 73.2193 95.0654 73.2647 95.1606 73.3105C95.7139 72.6451 96.8039 70.5365 96.7374 67.4257C96.6543 63.5371 99.6849 72.4274 98.6801 74.2536C102.818 76.0617 105.422 76.6444 109.082 80.155C109.757 77.635 105.72 62.2282 92.7037 60.0045C75.4442 57.0558 69.9089 67.12 67.7722 70.8025ZM87.0829 84.0196C85.4146 86.9093 82.3362 88.2554 80.2072 87.0262C78.0783 85.797 77.7048 82.4581 79.3732 79.5684C81.0416 76.6787 84.1199 75.3326 86.2489 76.5618C88.3779 77.7909 88.7513 81.1299 87.0829 84.0196ZM103.756 86.102C103.756 89.4387 101.763 92.1437 99.3049 92.1437C96.8466 92.1437 94.8537 89.4387 94.8537 86.102C94.8537 82.7653 96.8466 80.0604 99.3049 80.0604C101.763 80.0604 103.756 82.7653 103.756 86.102ZM86.6958 85.7576C87.8872 86.0768 91.9518 87.2195 94.3378 87.8053C93.3061 89.8576 89.6673 93.3026 88.1316 90.6427C87.5914 89.707 86.6328 87.4045 86.6958 85.7576ZM87.4079 73.483C87.4079 74.177 86.243 74.7396 84.8061 74.7396C83.3692 74.7396 82.2043 74.177 82.2043 73.483C82.2043 72.7891 83.3692 72.2265 84.8061 72.2265C86.243 72.2265 87.4079 72.7891 87.4079 73.483ZM105.195 80.9673C104.848 81.5683 103.558 81.4731 102.314 80.7547C101.069 80.0362 100.342 78.9665 100.689 78.3655C101.036 77.7645 102.326 77.8598 103.57 78.5782C104.815 79.2967 105.542 80.3663 105.195 80.9673ZM98.4084 86.6344C97.738 86.4547 97.4483 85.3624 97.7612 84.1946C98.0741 83.0268 98.8712 82.2257 99.5415 82.4054C100.212 82.585 100.502 83.6773 100.189 84.8451C99.8758 86.0129 99.0787 86.814 98.4084 86.6344ZM84.2113 82.8301C83.5409 82.6505 83.2512 81.5582 83.5641 80.3904C83.877 79.2226 84.6741 78.4215 85.3444 78.6011C86.0148 78.7807 86.3045 79.873 85.9916 81.0408C85.6787 82.2086 84.8816 83.0097 84.2113 82.8301ZM55.2381 62.1846C55.2381 57.6261 48.3971 53.9307 36.8254 53.9307C25.2537 53.9307 15.873 57.6261 15.873 62.1846C15.873 65.2799 20.2611 72.2539 34.643 71.861C34.8228 71.8561 35.0075 71.8869 35.1718 71.96C38.4822 73.4348 40.6621 76.6842 43.3727 77.7279C44.1779 78.038 44.804 77.2135 44.5179 76.3995C42.9546 71.9526 42.1647 70.9294 44.4444 70.9294C49.5238 70.9294 55.2381 66.4888 55.2381 62.1846ZM28.5714 62.0405C28.5714 62.7418 28.0029 63.3103 27.3016 63.3103C26.6003 63.3103 26.0317 62.7418 26.0317 62.0405C26.0317 61.3392 26.6003 60.7706 27.3016 60.7706C28.0029 60.7706 28.5714 61.3392 28.5714 62.0405ZM36.1905 62.0405C36.1905 62.7418 35.622 63.3103 34.9206 63.3103C34.2193 63.3103 33.6508 62.7418 33.6508 62.0405C33.6508 61.3392 34.2193 60.7706 34.9206 60.7706C35.622 60.7706 36.1905 61.3392 36.1905 62.0405ZM43.8095 62.0405C43.8095 62.7418 43.241 63.3103 42.5397 63.3103C41.8384 63.3103 41.2698 62.7418 41.2698 62.0405C41.2698 61.3392 41.8384 60.7706 42.5397 60.7706C43.241 60.7706 43.8095 61.3392 43.8095 62.0405ZM164.444 135.056C164.444 138.212 161.886 140.771 158.73 140.771C155.574 140.771 153.016 138.212 153.016 135.056C153.016 131.9 155.574 129.342 158.73 129.342C161.886 129.342 164.444 131.9 164.444 135.056Z" stroke="white"/>
</g>
<defs>
<clipPath id="clip0_954_301242">
<rect width="240" height="240" fill="white" transform="translate(0 0.930664)"/>
</clipPath>
</defs>
</svg>
