<svg width="240" height="241" viewBox="0 0 240 241" fill="none" xmlns="http://www.w3.org/2000/svg">
<path d="M92.074 128.683C59.633 123.786 25.3634 138.477 20.4598 165.408C15.0537 195.099 58.4093 214.987 93.2972 188.667C93.7055 188.055 94.2774 186.097 93.298 183.159M75.4531 128.132C78.602 132.118 86.1128 137.785 90.9641 128.567M70.2206 128.218C70.169 137.052 76.4057 150.961 84.291 133.105M84.1169 134.722C90.5074 139.11 102.27 142.256 91.4474 128.751M96.1245 88.2094C110.514 104.063 100.364 120.388 88.7714 123.495C77.1789 126.601 60.9602 118.318 62.2757 99.229M62.5598 104.232C63.7423 103.386 67.7119 101.9 74.1304 102.716M82.0469 100.996C82.9709 100.22 88.1938 98.5512 90.1248 99.309M96.727 97.5399C97.651 96.7638 99.7182 95.4631 101.649 96.2208M65.0271 113.25C59.9823 117.41 55.7305 113.835 54.8274 110.464C53.9243 107.094 55.188 102.828 61.8669 103.846M102.885 104.695C108.444 104.319 109.945 100.432 109.042 97.0618C108.139 93.6912 104.812 91.1428 100.156 94.5119M49.84 162.348C48.4118 165.612 47.6365 171.896 55.9609 170.917C66.3663 169.693 72.4863 166.631 76.7718 163.572C77.6288 162.96 78.6081 161.736 80.4443 163.572M63.9182 169.693C62.694 173.365 63.6734 184.016 77.3841 197.237M98.1944 155.003C98.1944 145.822 95.746 145.209 94.5218 145.209C90.8731 145.209 91.4614 148.27 89.6252 153.167C88.1561 157.084 82.2802 162.756 79.2197 165.408C77.5875 164.592 75.4622 168.469 80.9707 177.038C86.3076 185.34 89.1181 188.309 90.8493 187.443C92.0736 186.831 91.0535 184.995 90.8494 184.383C94.93 182.751 103.703 178.384 106.152 173.977C108.6 169.57 107.172 168.469 106.152 168.469C107.903 166.02 107.291 161.736 102.394 162.348C106.152 157.451 101.255 151.33 93.9098 157.451M91.4619 128.683C93.0941 128.071 99.1742 128.928 110.437 137.253C124.515 147.658 130.023 157.451 139.205 155.615C148.386 153.779 155.119 140.925 157.567 129.907C157.771 129.499 158.791 128.806 161.24 129.295M85.341 194.176C93.0941 193.972 109.457 187.321 112.885 162.348M108.6 177.65C113.701 182.343 128.922 190.626 148.998 186.219C174.094 180.71 182.051 155.003 186.335 139.701C187.021 137.252 185.638 135.416 183.189 134.804M161.241 131.131C162.465 126.235 163.391 119.54 162.464 115.829C161.241 110.933 165.767 111.174 167.362 112.769C171.645 117.054 175.074 119.747 174.095 125.623M170.421 115.829C173.073 113.789 179.725 109.831 185.111 110.321C190.497 110.81 191.028 112.973 190.62 113.993M180.826 115.83C184.091 114.401 191.476 112.525 194.904 116.442C196.129 117.841 196.129 118.89 195.517 120.114M161.126 130.519C160.173 130.519 158.955 131.008 161.697 132.963C165.125 135.406 176.383 138.888 180.552 139.071C184.948 139.263 183.234 137.863 182.663 137.252C182.663 134.192 187.408 126.77 194.292 125.623C197.965 125.011 199.801 123.174 198.577 121.95C194.843 118.216 188.172 119.298 185.111 120.726M178.99 114.605C181.031 116.033 185.478 119.869 186.947 123.786M151.973 143.985C154.625 147.658 165.402 156.717 182.051 156.227M68.2026 200.297C85.9531 204.582 123.902 198.845 123.902 194.788C123.902 190.732 114.721 189.28 100.031 188.056M90.2377 80.9404V49.724C90.2377 44.3153 94.6224 39.9307 100.031 39.9307H210.207C215.615 39.9307 220 44.3153 220 49.724V146.434C220 151.842 215.615 156.227 210.207 156.227H180.741M90.2377 55.2328L220 55.2328M119.006 90.7338H147.162M119.006 100.527H147.162M119.006 109.096H147.162M119.006 117.666H147.162M180.214 70.535H185.723C187.751 70.535 189.396 72.1792 189.396 74.2075V101.139C189.396 103.168 187.751 104.812 185.723 104.812H180.214M171.645 77.2679H183.887M171.645 96.8547H183.887M175.318 72.3712H180.214M180.826 69.9229L180.425 65.1045C180.34 64.0836 181.472 63.416 182.324 63.9842L186.993 67.0971C187.345 67.3318 187.794 67.3681 188.179 67.193L192.036 65.4399C192.959 65.0202 193.963 65.8413 193.735 66.8297L192.624 71.6437C192.521 72.0905 192.676 72.5574 193.026 72.8535L197.862 76.9455C198.733 77.6821 198.212 79.1042 197.071 79.1042H190.008M60.0387 100.958C63.6757 97.8602 72.8869 90.799 83.8092 89.8749C83.9106 89.8663 84.0121 89.8582 84.1136 89.8506C84.2548 89.0283 84.1485 86.7425 82.5935 84.1774C80.6498 80.971 87.4652 86.9325 87.5066 88.9415C91.8331 88.4563 94.2879 87.6877 99.0352 88.8547C98.3843 86.4254 87.5877 75.5084 75.6486 79.9259C59.8177 85.7836 60.0476 96.854 60.0387 100.958ZM82.5315 102.685C82.5315 105.902 80.6103 108.509 78.2404 108.509C75.8705 108.509 73.9493 105.902 73.9493 102.685C73.9493 99.4683 75.8705 96.8607 78.2404 96.8607C80.6103 96.8607 82.5315 99.4683 82.5315 102.685ZM97.4556 96.3867C99.0639 99.1725 98.7039 102.391 96.6515 103.576C94.5991 104.761 91.6315 103.464 90.0231 100.678C88.4148 97.8921 88.7748 94.6732 90.8272 93.4882C92.8796 92.3033 95.8472 93.601 97.4556 96.3867ZM83.0463 104.323C84.1948 104.015 88.1391 103.01 90.4134 102.349C90.5413 104.559 89.1639 109.189 86.5997 107.709C85.6976 107.188 83.7875 105.728 83.0463 104.323ZM77.7242 93.7317C78.0587 94.3111 77.3574 95.3423 76.1577 96.0349C74.958 96.7275 73.7143 96.8193 73.3798 96.24C73.0453 95.6606 73.7467 94.6294 74.9463 93.9368C76.146 93.2441 77.3897 93.1523 77.7242 93.7317ZM96.1819 91.4063C96.1819 92.0754 95.0589 92.6177 93.6736 92.6177C92.2884 92.6177 91.1654 92.0754 91.1654 91.4063C91.1654 90.7373 92.2884 90.195 93.6736 90.195C95.0589 90.195 96.1819 90.7373 96.1819 91.4063ZM93.2474 99.4089C92.6011 99.582 91.8327 98.8097 91.5311 97.6839C91.2294 96.5581 91.5087 95.5051 92.155 95.3319C92.8012 95.1588 93.5696 95.9311 93.8713 97.0569C94.1729 98.1827 93.8936 99.2357 93.2474 99.4089ZM79.5609 103.076C78.9147 103.249 78.1463 102.477 77.8446 101.351C77.5429 100.225 77.8223 99.1722 78.4685 98.9991C79.1147 98.8259 79.8831 99.5982 80.1848 100.724C80.4865 101.85 80.2071 102.903 79.5609 103.076ZM101.255 48.4999C101.255 49.8521 100.159 50.9482 98.8069 50.9482C97.4548 50.9482 96.3586 49.8521 96.3586 48.4999C96.3586 47.1477 97.4548 46.0515 98.8069 46.0515C100.159 46.0515 101.255 47.1477 101.255 48.4999ZM109.824 48.4999C109.824 49.8521 108.728 50.9482 107.376 50.9482C106.024 50.9482 104.928 49.8521 104.928 48.4999C104.928 47.1477 106.024 46.0515 107.376 46.0515C108.728 46.0515 109.824 47.1477 109.824 48.4999ZM118.394 48.4999C118.394 49.8521 117.298 50.9482 115.945 50.9482C114.593 50.9482 113.497 49.8521 113.497 48.4999C113.497 47.1477 114.593 46.0515 115.945 46.0515C117.298 46.0515 118.394 47.1477 118.394 48.4999ZM119.023 75.9886H116.905C116.312 75.9886 116.065 76.7473 116.545 77.0958L118.259 78.3411C118.473 78.497 118.563 78.7732 118.481 79.0254L117.826 81.0403C117.643 81.6042 118.289 82.0731 118.768 81.7246L120.482 80.4794C120.697 80.3235 120.987 80.3235 121.202 80.4794L122.916 81.7246C123.395 82.0731 124.041 81.6042 123.858 81.0403L123.203 79.0254C123.121 78.7732 123.211 78.497 123.425 78.3411L125.139 77.0958C125.619 76.7473 125.372 75.9886 124.78 75.9886H122.661C122.396 75.9886 122.161 75.8178 122.079 75.5656L121.424 73.5508C121.241 72.9868 120.443 72.9868 120.26 73.5508L119.605 75.5656C119.523 75.8178 119.288 75.9886 119.023 75.9886ZM131.265 75.9886H129.146C128.553 75.9886 128.307 76.7473 128.787 77.0958L130.5 78.3411C130.715 78.497 130.805 78.7732 130.723 79.0254L130.068 81.0403C129.885 81.6042 130.53 82.0731 131.01 81.7246L132.724 80.4794C132.939 80.3235 133.229 80.3235 133.444 80.4794L135.157 81.7246C135.637 82.0731 136.283 81.6042 136.099 81.0403L135.445 79.0254C135.363 78.7732 135.453 78.497 135.667 78.3411L137.381 77.0958C137.861 76.7473 137.614 75.9886 137.021 75.9886H134.903C134.638 75.9886 134.403 75.8178 134.321 75.5656L133.666 73.5508C133.483 72.9868 132.685 72.9868 132.502 73.5508L131.847 75.5656C131.765 75.8178 131.53 75.9886 131.265 75.9886ZM143.507 75.9886H141.388C140.795 75.9886 140.549 76.7473 141.028 77.0958L142.742 78.3411C142.957 78.497 143.046 78.7732 142.965 79.0254L142.31 81.0403C142.127 81.6042 142.772 82.0731 143.252 81.7246L144.966 80.4794C145.18 80.3235 145.471 80.3235 145.685 80.4794L147.399 81.7246C147.879 82.0731 148.524 81.6042 148.341 81.0403L147.686 79.0254C147.604 78.7732 147.694 78.497 147.909 78.3411L149.623 77.0958C150.102 76.7473 149.856 75.9886 149.263 75.9886H147.144C146.879 75.9886 146.644 75.8178 146.562 75.5656L145.908 73.5508C145.724 72.9868 144.927 72.9868 144.743 73.5508L144.089 75.5656C144.007 75.8178 143.772 75.9886 143.507 75.9886ZM172.257 104.812H183.275C185.303 104.812 186.947 103.168 186.947 101.139V74.2075C186.947 72.1792 185.303 70.535 183.275 70.535H172.257C170.229 70.535 168.585 72.1792 168.585 74.2075V101.139C168.585 103.168 170.229 104.812 172.257 104.812ZM171.033 80.3284H184.499V93.7943H171.033V80.3284Z" stroke="white"/>
</svg>
