<svg width="49" height="40" viewBox="0 0 49 40" fill="none" xmlns="http://www.w3.org/2000/svg">
<path d="M45.5559 5.55554H42.2225V36.6667C42.2225 37.5507 42.5737 38.3986 43.1989 39.0237C43.824 39.6488 44.6718 40 45.5559 40C46.4399 40 47.2878 39.6488 47.9129 39.0237C48.538 38.3986 48.8892 37.5507 48.8892 36.6667V8.88888C48.8892 8.00482 48.538 7.15697 47.9129 6.53185C47.2878 5.90673 46.4399 5.55554 45.5559 5.55554ZM6.66699 9.99999H16.667V18.8889H6.66699V9.99999Z" fill="#7705FF"/>
<path d="M40 36.6667V4.44444C40 3.2657 39.5317 2.13524 38.6982 1.30175C37.8648 0.468252 36.7343 0 35.5556 0H4.44444C3.2657 0 2.13524 0.468252 1.30175 1.30175C0.468253 2.13524 0 3.2657 0 4.44444V36.6667C0 37.5507 0.35119 38.3986 0.976311 39.0237C1.60143 39.6488 2.44928 40 3.33333 40H41.14C40.4047 39.044 40.0041 37.8727 40 36.6667ZM4.44444 10C4.44444 9.41063 4.67857 8.8454 5.09532 8.42865C5.51207 8.0119 6.0773 7.77778 6.66667 7.77778H16.6667C17.256 7.77778 17.8213 8.0119 18.238 8.42865C18.6548 8.8454 18.8889 9.41063 18.8889 10V18.8889C18.8889 19.4783 18.6548 20.0435 18.238 20.4602C17.8213 20.877 17.256 21.1111 16.6667 21.1111H6.66667C6.0773 21.1111 5.51207 20.877 5.09532 20.4602C4.67857 20.0435 4.44444 19.4783 4.44444 18.8889V10ZM34.4444 32.2222H5.55556C5.26087 32.2222 4.97825 32.1052 4.76988 31.8968C4.56151 31.6884 4.44444 31.4058 4.44444 31.1111C4.44444 30.8164 4.56151 30.5338 4.76988 30.3254C4.97825 30.1171 5.26087 30 5.55556 30H34.4444C34.7391 30 35.0217 30.1171 35.2301 30.3254C35.4385 30.5338 35.5556 30.8164 35.5556 31.1111C35.5556 31.4058 35.4385 31.6884 35.2301 31.8968C35.0217 32.1052 34.7391 32.2222 34.4444 32.2222ZM34.4444 26.6667H5.55556C5.26087 26.6667 4.97825 26.5496 4.76988 26.3412C4.56151 26.1329 4.44444 25.8502 4.44444 25.5556C4.44444 25.2609 4.56151 24.9783 4.76988 24.7699C4.97825 24.5615 5.26087 24.4444 5.55556 24.4444H34.4444C34.7391 24.4444 35.0217 24.5615 35.2301 24.7699C35.4385 24.9783 35.5556 25.2609 35.5556 25.5556C35.5556 25.8502 35.4385 26.1329 35.2301 26.3412C35.0217 26.5496 34.7391 26.6667 34.4444 26.6667ZM34.4444 21.1111H23.3333C23.0386 21.1111 22.756 20.994 22.5477 20.7857C22.3393 20.5773 22.2222 20.2947 22.2222 20C22.2222 19.7053 22.3393 19.4227 22.5477 19.2143C22.756 19.006 23.0386 18.8889 23.3333 18.8889H34.4444C34.7391 18.8889 35.0217 19.006 35.2301 19.2143C35.4385 19.4227 35.5556 19.7053 35.5556 20C35.5556 20.2947 35.4385 20.5773 35.2301 20.7857C35.0217 20.994 34.7391 21.1111 34.4444 21.1111ZM34.4444 15.5556H23.3333C23.0386 15.5556 22.756 15.4385 22.5477 15.2301C22.3393 15.0217 22.2222 14.7391 22.2222 14.4444C22.2222 14.1498 22.3393 13.8671 22.5477 13.6588C22.756 13.4504 23.0386 13.3333 23.3333 13.3333H34.4444C34.7391 13.3333 35.0217 13.4504 35.2301 13.6588C35.4385 13.8671 35.5556 14.1498 35.5556 14.4444C35.5556 14.7391 35.4385 15.0217 35.2301 15.2301C35.0217 15.4385 34.7391 15.5556 34.4444 15.5556ZM34.4444 10H23.3333C23.0386 10 22.756 9.88294 22.5477 9.67456C22.3393 9.46619 22.2222 9.18357 22.2222 8.88889C22.2222 8.5942 22.3393 8.31159 22.5477 8.10321C22.756 7.89484 23.0386 7.77778 23.3333 7.77778H34.4444C34.7391 7.77778 35.0217 7.89484 35.2301 8.10321C35.4385 8.31159 35.5556 8.5942 35.5556 8.88889C35.5556 9.18357 35.4385 9.46619 35.2301 9.67456C35.0217 9.88294 34.7391 10 34.4444 10Z" fill="#7705FF"/>
</svg>
