<svg width="36" height="37" viewBox="0 0 36 37" fill="none" xmlns="http://www.w3.org/2000/svg">
<g clip-path="url(#clip0_954_295771)">
<path d="M32.0625 5.65567C31.6757 5.40543 31.2333 5.25404 30.7743 5.21481C30.3153 5.17557 29.8537 5.2497 29.43 5.43067L15.5475 10.8982C15.2188 11.0319 14.8673 11.1007 14.5125 11.1007H5.625C4.87908 11.1007 4.16371 11.397 3.63626 11.9244C3.10882 12.4519 2.8125 13.1672 2.8125 13.9132V14.1382H0V20.8882H2.8125V21.1807C2.83012 21.9148 3.1342 22.613 3.65975 23.1259C4.1853 23.6389 4.89063 23.9259 5.625 23.9257L9 31.0807C9.22853 31.5625 9.58833 31.9701 10.0381 32.2566C10.4878 32.5432 11.0092 32.6971 11.5425 32.7007H12.96C13.702 32.6947 14.4116 32.3958 14.9342 31.869C15.4568 31.3422 15.75 30.6302 15.75 29.8882V24.1957L29.43 29.6632C29.7665 29.7971 30.1254 29.8658 30.4875 29.8657C31.0493 29.8566 31.5965 29.6847 32.0625 29.3707C32.4326 29.1208 32.7378 28.7864 32.953 28.3951C33.1682 28.0039 33.2872 27.567 33.3 27.1207V7.97317C33.2979 7.51533 33.1841 7.06492 32.9685 6.66105C32.7528 6.25718 32.4418 5.91206 32.0625 5.65567ZM12.9375 13.9132V21.1807H5.625V13.9132H12.9375ZM12.9375 29.8882H11.52L8.7525 23.9257H12.9375V29.8882ZM16.5825 21.5182C16.3154 21.3816 16.0368 21.2687 15.75 21.1807V13.7557C16.034 13.6971 16.3126 13.6143 16.5825 13.5082L30.4875 7.97317V27.0532L16.5825 21.5182ZM33.3675 14.7007V20.3257C34.1134 20.3257 34.8288 20.0294 35.3562 19.5019C35.8837 18.9745 36.18 18.2591 36.18 17.5132C36.18 16.7672 35.8837 16.0519 35.3562 15.5244C34.8288 14.997 34.1134 14.7007 33.3675 14.7007Z" fill="white"/>
</g>
<defs>
<clipPath id="clip0_954_295771">
<rect width="36" height="36" fill="white" transform="translate(0 0.930664)"/>
</clipPath>
</defs>
</svg>
