<svg width="15" height="15" viewBox="0 0 15 15" fill="none" xmlns="http://www.w3.org/2000/svg">
<path d="M8.67359 4.4347C10.3651 4.4347 11.0866 5.1562 11.0866 6.84774H12.6953C12.6953 4.25372 11.2676 2.826 8.67359 2.826V4.4347ZM11.4261 8.81276C11.2715 8.67229 11.0684 8.59737 10.8596 8.60382C10.6509 8.61027 10.4528 8.6976 10.3072 8.84735L8.38241 10.8269C7.91911 10.7384 6.98767 10.448 6.02889 9.49163C5.07011 8.53205 4.77974 7.5982 4.69368 7.13811L6.67157 5.2125C6.82151 5.06702 6.90896 4.8689 6.91541 4.66008C6.92187 4.45126 6.84682 4.24812 6.70615 4.09366L3.73409 0.82559C3.59336 0.670638 3.39777 0.576648 3.18886 0.563582C2.97995 0.550515 2.77418 0.619402 2.61524 0.755612L0.869805 2.2525C0.730743 2.39207 0.647741 2.57782 0.636544 2.77452C0.624479 2.97561 0.394436 7.73896 4.088 11.4341C7.31022 14.6555 11.3464 14.8912 12.458 14.8912C12.6205 14.8912 12.7203 14.8864 12.7468 14.8848C12.9435 14.8738 13.1291 14.7904 13.268 14.6507L14.7641 12.9045C14.9004 12.7456 14.9694 12.5399 14.9565 12.331C14.9436 12.1221 14.8498 11.9265 14.6949 11.7856L11.4261 8.81276V8.81276Z" fill="white"/>
</svg>
