<svg width="20" height="20" viewBox="0 0 20 20" fill="none" xmlns="http://www.w3.org/2000/svg">
<path fill-rule="evenodd" clip-rule="evenodd" d="M10.0095 18.7469C14.6855 18.7469 18.4762 14.9563 18.4762 10.2803C18.4762 5.60432 14.6855 1.81369 10.0095 1.81369C5.33357 1.81369 1.54294 5.60432 1.54294 10.2803C1.54294 14.9563 5.33357 18.7469 10.0095 18.7469ZM10.0095 19.8758C15.309 19.8758 19.605 15.5797 19.605 10.2803C19.605 4.98086 15.309 0.684814 10.0095 0.684814C4.71011 0.684814 0.414062 4.98086 0.414062 10.2803C0.414062 15.5797 4.71011 19.8758 10.0095 19.8758Z" fill="url(#paint0_linear_1885_29197)"/>
<path d="M7.5293 6.52101C7.66928 6.39006 7.82281 6.26588 7.98988 6.14848C8.16147 6.03107 8.34661 5.92722 8.54529 5.83691C8.74849 5.7466 8.96523 5.6766 9.19552 5.62693C9.43033 5.57275 9.6832 5.54565 9.95413 5.54565C10.3109 5.54565 10.6405 5.59758 10.943 5.70144C11.2501 5.8053 11.5142 5.95205 11.7355 6.1417C11.9568 6.33136 12.1306 6.56165 12.257 6.83258C12.3835 7.10351 12.4467 7.40831 12.4467 7.74697C12.4467 8.09015 12.3948 8.38592 12.2909 8.63427C12.1916 8.88263 12.0629 9.10163 11.9048 9.29128C11.7513 9.47642 11.582 9.63898 11.3968 9.77896C11.2162 9.91442 11.0446 10.0431 10.8821 10.165C10.7195 10.287 10.5795 10.4089 10.4621 10.5308C10.3492 10.6527 10.2838 10.7882 10.2657 10.9372L10.1438 11.9735H9.31744L9.23616 10.8491C9.2181 10.6459 9.25648 10.4698 9.35131 10.3208C9.44614 10.1673 9.57031 10.0251 9.72384 9.8941C9.87737 9.75864 10.0467 9.62769 10.2318 9.50125C10.417 9.3703 10.5886 9.22581 10.7466 9.06776C10.9092 8.90972 11.0446 8.73136 11.153 8.53267C11.2614 8.32947 11.3156 8.08789 11.3156 7.80793C11.3156 7.61376 11.2772 7.43766 11.2004 7.27962C11.1237 7.12157 11.0198 6.98836 10.8888 6.87999C10.7579 6.7671 10.6021 6.68131 10.4215 6.62261C10.2454 6.5639 10.0557 6.53455 9.85253 6.53455C9.57709 6.53455 9.34002 6.56842 9.14134 6.63615C8.94717 6.70389 8.78235 6.77839 8.64689 6.85967C8.51142 6.94095 8.40079 7.01546 8.315 7.08319C8.23372 7.15092 8.16599 7.18479 8.1118 7.18479C7.99891 7.18479 7.91086 7.13286 7.84764 7.029L7.5293 6.52101ZM8.85009 14.6151C8.85009 14.4977 8.87041 14.387 8.91105 14.2832C8.9562 14.1793 9.0149 14.089 9.08715 14.0123C9.16392 13.9355 9.25423 13.8745 9.35808 13.8294C9.46194 13.7842 9.57257 13.7616 9.68997 13.7616C9.80738 13.7616 9.91801 13.7842 10.0219 13.8294C10.1257 13.8745 10.216 13.9355 10.2928 14.0123C10.3696 14.089 10.4305 14.1793 10.4757 14.2832C10.5208 14.387 10.5434 14.4977 10.5434 14.6151C10.5434 14.737 10.5208 14.8499 10.4757 14.9537C10.4305 15.0531 10.3696 15.1411 10.2928 15.2179C10.216 15.2947 10.1257 15.3534 10.0219 15.394C9.91801 15.4392 9.80738 15.4617 9.68997 15.4617C9.57257 15.4617 9.46194 15.4392 9.35808 15.394C9.25423 15.3534 9.16392 15.2947 9.08715 15.2179C9.0149 15.1411 8.9562 15.0531 8.91105 14.9537C8.87041 14.8499 8.85009 14.737 8.85009 14.6151Z" fill="url(#paint1_linear_1885_29197)"/>
<defs>
<linearGradient id="paint0_linear_1885_29197" x1="0.545316" y1="0.684388" x2="19.6179" y2="0.699208" gradientUnits="userSpaceOnUse">
<stop stop-color="#9200FF"/>
<stop offset="1" stop-color="#1519FF"/>
</linearGradient>
<linearGradient id="paint1_linear_1885_29197" x1="7.56293" y1="5.54543" x2="12.45" y2="5.54732" gradientUnits="userSpaceOnUse">
<stop stop-color="#9200FF"/>
<stop offset="1" stop-color="#1519FF"/>
</linearGradient>
</defs>
</svg>
