<svg width="21" height="20" viewBox="0 0 21 20" fill="none" xmlns="http://www.w3.org/2000/svg">
<path fill-rule="evenodd" clip-rule="evenodd" d="M10.5818 18.3021C15.2578 18.3021 19.0484 14.5115 19.0484 9.83547C19.0484 5.1595 15.2578 1.36887 10.5818 1.36887C5.90584 1.36887 2.11521 5.1595 2.11521 9.83547C2.11521 14.5115 5.90584 18.3021 10.5818 18.3021ZM10.5818 19.431C15.8813 19.431 20.1773 15.1349 20.1773 9.83547C20.1773 4.53604 15.8813 0.23999 10.5818 0.23999C5.28237 0.23999 0.986328 4.53604 0.986328 9.83547C0.986328 15.1349 5.28237 19.431 10.5818 19.431Z" fill="#FFA200"/>
<path d="M8.10156 6.07618C8.24154 5.94523 8.39507 5.82106 8.56215 5.70365C8.73374 5.58625 8.91887 5.48239 9.11756 5.39208C9.32075 5.30177 9.5375 5.23178 9.76779 5.18211C10.0026 5.12792 10.2555 5.10083 10.5264 5.10083C10.8831 5.10083 11.2128 5.15276 11.5153 5.25662C11.8224 5.36047 12.0865 5.50723 12.3078 5.69688C12.529 5.88653 12.7029 6.11682 12.8293 6.38775C12.9557 6.65869 13.019 6.96348 13.019 7.30215C13.019 7.64533 12.967 7.94109 12.8632 8.18945C12.7638 8.4378 12.6351 8.6568 12.4771 8.84646C12.3236 9.03159 12.1542 9.19415 11.9691 9.33413C11.7885 9.4696 11.6169 9.59829 11.4543 9.72021C11.2918 9.84213 11.1518 9.96405 11.0344 10.086C10.9215 10.2079 10.856 10.3434 10.838 10.4924L10.716 11.5287H9.88971L9.80843 10.4043C9.79037 10.2011 9.82875 10.025 9.92358 9.876C10.0184 9.72247 10.1426 9.58023 10.2961 9.44928C10.4496 9.31381 10.619 9.18286 10.8041 9.05643C10.9892 8.92548 11.1608 8.78098 11.3189 8.62294C11.4814 8.46489 11.6169 8.28653 11.7253 8.08785C11.8336 7.88465 11.8878 7.64307 11.8878 7.36311C11.8878 7.16894 11.8494 6.99283 11.7727 6.83479C11.6959 6.67675 11.5921 6.54354 11.4611 6.43517C11.3302 6.32228 11.1744 6.23648 10.9938 6.17778C10.8176 6.11908 10.628 6.08973 10.4248 6.08973C10.1494 6.08973 9.91229 6.1236 9.7136 6.19133C9.51944 6.25906 9.35462 6.33357 9.21915 6.41485C9.08369 6.49613 8.97306 6.57063 8.88726 6.63837C8.80598 6.7061 8.73825 6.73997 8.68406 6.73997C8.57118 6.73997 8.48312 6.68804 8.41991 6.58418L8.10156 6.07618ZM9.42235 14.1703C9.42235 14.0529 9.44267 13.9422 9.48331 13.8384C9.52847 13.7345 9.58717 13.6442 9.65942 13.5674C9.73618 13.4907 9.82649 13.4297 9.93035 13.3846C10.0342 13.3394 10.1448 13.3168 10.2622 13.3168C10.3796 13.3168 10.4903 13.3394 10.5941 13.3846C10.698 13.4297 10.7883 13.4907 10.8651 13.5674C10.9418 13.6442 11.0028 13.7345 11.0479 13.8384C11.0931 13.9422 11.1157 14.0529 11.1157 14.1703C11.1157 14.2922 11.0931 14.4051 11.0479 14.5089C11.0028 14.6083 10.9418 14.6963 10.8651 14.7731C10.7883 14.8498 10.698 14.9085 10.5941 14.9492C10.4903 14.9943 10.3796 15.0169 10.2622 15.0169C10.1448 15.0169 10.0342 14.9943 9.93035 14.9492C9.82649 14.9085 9.73618 14.8498 9.65942 14.7731C9.58717 14.6963 9.52847 14.6083 9.48331 14.5089C9.44267 14.4051 9.42235 14.2922 9.42235 14.1703Z" fill="#FFA200"/>
</svg>
