<svg width="238" height="352" viewBox="0 0 238 352" fill="none" xmlns="http://www.w3.org/2000/svg">
<path d="M29.3762 291.16L16.0647 283.389C14.6028 282.543 13.5255 280.85 13.0638 278.234L26.3754 286.005C26.8371 288.621 27.9143 290.314 29.3762 291.16Z" fill="#E3E2F2"/>
<mask id="mask0_332_533" style="mask-type:luminance" maskUnits="userSpaceOnUse" x="13" y="278" width="17" height="14">
<path d="M29.3762 291.16L16.0647 283.389C14.6028 282.543 13.5255 280.85 13.0638 278.234L26.3754 286.005C26.8371 288.621 27.9143 290.314 29.3762 291.16Z" fill="white"/>
</mask>
<g mask="url(#mask0_332_533)">
<path d="M29.3761 291.16L16.0646 283.389C14.6026 282.543 13.5254 280.85 13.1406 278.234L26.4522 286.005C26.8369 288.621 27.9141 290.314 29.3761 291.16Z" fill="#E3E2F2"/>
<path d="M26.3754 286.005L13.0638 278.234L26.3754 286.005Z" fill="#E3E2F2"/>
</g>
<path d="M40.8412 151.967L54.1527 159.738C50.2285 157.507 44.8423 157.738 38.8406 161.277L25.5291 153.506C31.5308 149.966 36.917 149.658 40.8412 151.967Z" fill="#E3E2F2"/>
<mask id="mask1_332_533" style="mask-type:luminance" maskUnits="userSpaceOnUse" x="25" y="150" width="30" height="12">
<path d="M40.8412 151.967L54.1527 159.738C50.2285 157.507 44.8423 157.738 38.8406 161.277L25.5291 153.506C31.5308 149.966 36.917 149.658 40.8412 151.967Z" fill="white"/>
</mask>
<g mask="url(#mask1_332_533)">
<path d="M38.8406 161.201L25.5291 153.429C31.6077 149.967 36.9939 149.659 40.8412 151.891L54.1527 159.662C50.3054 157.431 44.9193 157.738 38.8406 161.201Z" fill="#E3E2F2"/>
</g>
<path d="M26.3755 286.006L13.064 278.235L0.214111 196.826L13.6026 204.598L26.3755 286.006Z" fill="#E3E2F2"/>
<path d="M34.7625 163.508L21.4509 155.814L25.529 153.428L38.8406 161.2L34.7625 163.508Z" fill="#F4F4FB"/>
<path d="M13.6026 204.598L0.291017 196.826C-1.86345 182.976 8.21638 163.432 21.5279 155.737L34.8394 163.509C21.451 171.203 11.3711 190.747 13.6026 204.598Z" fill="#F4F4FB"/>
<mask id="mask2_332_533" style="mask-type:luminance" maskUnits="userSpaceOnUse" x="0" y="155" width="35" height="50">
<path d="M13.6026 204.598L0.291017 196.826C-1.86345 182.976 8.21638 163.432 21.5279 155.737L34.8394 163.509C21.451 171.203 11.3711 190.747 13.6026 204.598Z" fill="white"/>
</mask>
<g mask="url(#mask2_332_533)">
<path d="M13.6027 204.598L0.291126 196.826C-0.401381 192.594 0.137233 187.9 1.4453 183.13L14.7568 190.901C13.3718 195.672 12.9102 200.443 13.6027 204.598Z" fill="#F4F4FB"/>
<path d="M14.7568 190.901L1.36829 183.13C2.90719 177.743 5.52333 172.357 8.90892 167.587L22.2204 175.358C18.9118 180.129 16.2187 185.515 14.7568 190.901Z" fill="#F4F4FB"/>
<path d="M22.2976 175.359L8.98608 167.587C11.6022 163.971 14.6031 160.739 17.9117 158.2L31.2233 165.971C27.9146 168.51 24.8368 171.742 22.2976 175.359Z" fill="#F4F4FB"/>
<path d="M31.2233 165.971L17.9117 158.2C19.0659 157.276 20.297 156.507 21.5282 155.814L34.8397 163.586C33.5316 164.278 32.3775 165.048 31.2233 165.971Z" fill="#F4F4FB"/>
</g>
<path d="M38.8407 161.201C52.1522 153.506 62.309 161.355 60.2315 177.667L47.9202 273.541C46.92 281.158 42.0724 287.468 37.2249 290.238C32.3773 293.085 27.4528 292.392 26.4525 285.929L13.6027 204.598C11.4482 190.748 21.528 171.204 34.8395 163.509L38.8407 161.201Z" fill="#CCCBF6"/>
<path d="M53.6141 161.893L62.9245 167.279C59.0002 164.971 53.5371 165.279 47.4585 168.818L38.1481 163.432C44.2267 159.893 49.6899 159.585 53.6141 161.893Z" fill="#F47300"/>
<mask id="mask3_332_533" style="mask-type:luminance" maskUnits="userSpaceOnUse" x="38" y="160" width="25" height="9">
<path d="M53.6141 161.893L62.9245 167.279C59.0002 164.971 53.5371 165.279 47.4585 168.818L38.1481 163.432C44.2267 159.893 49.6899 159.585 53.6141 161.893Z" fill="white"/>
</mask>
<g mask="url(#mask3_332_533)">
<path d="M47.4585 168.819L38.1481 163.432C44.1498 159.97 49.6129 159.662 53.6141 161.893L62.9245 167.28C59.0002 164.971 53.5371 165.356 47.4585 168.819Z" fill="#F47300"/>
</g>
<path d="M49.6129 177.898C57.846 173.128 64.5403 176.975 64.5403 186.439C64.5403 195.903 57.923 207.368 49.6898 212.139C41.4567 216.91 34.7625 213.062 34.7625 203.598C34.7625 194.134 41.3797 182.592 49.6129 177.898Z" fill="#F47300"/>
<path d="M32.1464 220.217L22.836 214.831C18.9118 212.6 16.5265 207.752 16.5265 200.904C16.4495 187.131 26.1446 170.357 38.1481 163.432L47.4585 168.818C35.455 175.743 25.7599 192.517 25.8368 206.29C25.8368 213.138 28.2991 217.909 32.1464 220.217Z" fill="#F47300"/>
<mask id="mask4_332_533" style="mask-type:luminance" maskUnits="userSpaceOnUse" x="16" y="163" width="32" height="58">
<path d="M32.1464 220.217L22.836 214.831C18.9118 212.6 16.5265 207.752 16.5265 200.904C16.4495 187.131 26.1446 170.357 38.1481 163.432L47.4585 168.818C35.455 175.743 25.7599 192.517 25.8368 206.29C25.8368 213.138 28.2991 217.909 32.1464 220.217Z" fill="white"/>
</mask>
<g mask="url(#mask4_332_533)">
<path d="M32.1463 220.216L22.836 214.83C19.3734 212.83 17.0651 208.828 16.6034 203.135L25.9138 208.521C26.3754 214.138 28.6838 218.216 32.1463 220.216Z" fill="#F47300"/>
<path d="M25.9137 208.521L16.6033 203.135C16.5264 202.443 16.5264 201.673 16.5264 200.904C16.5264 189.054 23.6823 174.896 33.3774 166.817L42.6878 172.203C32.9927 180.282 25.8367 194.44 25.8367 206.29C25.8367 207.059 25.8367 207.752 25.9137 208.521Z" fill="#F47300"/>
<path d="M42.6878 172.203L33.3774 166.817C34.9163 165.509 36.5322 164.355 38.148 163.431L47.4584 168.818C45.8426 169.741 44.2267 170.895 42.6878 172.203Z" fill="#F47300"/>
</g>
<path d="M49.6128 177.897L47.4584 168.817C59.4619 161.892 69.157 167.432 69.2339 181.206C69.3108 194.979 59.6157 211.753 47.6123 218.678C35.6088 225.603 25.8368 220.063 25.8368 206.29C25.7598 192.517 35.4549 175.743 47.4584 168.817L49.6128 177.897C41.3797 182.668 34.7624 194.132 34.7624 203.597C34.7624 213.061 41.4567 216.831 49.6898 212.138C57.9229 207.367 64.5402 195.902 64.5402 186.438C64.5402 176.974 57.846 173.126 49.6128 177.897Z" fill="#F47300"/>
<mask id="mask5_332_533" style="mask-type:luminance" maskUnits="userSpaceOnUse" x="25" y="165" width="45" height="57">
<path d="M49.6128 177.897L47.4584 168.817C59.4619 161.892 69.157 167.432 69.2339 181.206C69.3108 194.979 59.6157 211.753 47.6123 218.678C35.6088 225.603 25.8368 220.063 25.8368 206.29C25.7598 192.517 35.4549 175.743 47.4584 168.817L49.6128 177.897C41.3797 182.668 34.7624 194.132 34.7624 203.597C34.7624 213.061 41.4567 216.831 49.6898 212.138C57.9229 207.367 64.5402 195.902 64.5402 186.438C64.5402 176.974 57.846 173.126 49.6128 177.897Z" fill="white"/>
</mask>
<g mask="url(#mask5_332_533)">
<path d="M49.6128 177.897L47.4584 168.817C59.4619 161.892 69.157 167.432 69.2339 181.206C69.3108 194.979 59.6157 211.753 47.6123 218.678C35.6088 225.603 25.8368 220.063 25.8368 206.29C25.7598 192.517 35.4549 175.743 47.4584 168.817L49.6128 177.897C41.3797 182.668 34.7624 194.132 34.7624 203.597C34.7624 213.061 41.4567 216.831 49.6898 212.138C57.9229 207.367 64.5402 195.902 64.5402 186.438C64.5402 176.974 57.846 173.126 49.6128 177.897Z" fill="#4C1F8C"/>
</g>
<path d="M24.3032 12.0424L19.7416 13.4392L43.8257 92.091L48.3874 90.6941L24.3032 12.0424Z" fill="#1D2233"/>
<path d="M74.7741 338.405C52.6908 324.786 47.6893 306.396 45.6118 298.624C47.3046 306.165 53.2294 313.629 63.2323 319.63C88.3164 334.712 129.79 335.096 155.874 320.554C167.108 314.321 173.649 306.319 175.495 298.009C173.803 304.472 171.263 314.321 161.414 325.709C157.721 330.018 149.565 338.02 136.484 343.253C116.632 351.178 92.3945 349.331 74.7741 338.405Z" fill="#98A4E0"/>
<path d="M156.336 159.276C180.728 173.972 179.958 197.364 154.489 211.598C129.02 225.756 88.6242 225.372 64.1556 210.675C39.764 195.979 40.5334 172.587 66.0023 158.352C91.4712 144.194 131.867 144.579 156.336 159.276Z" fill="#EDECF8"/>
<path d="M45.5349 298.394L25.8369 212.293C28.1453 222.295 35.7629 232.067 48.7666 239.839C81.3145 259.46 135.253 259.999 169.186 241.07C183.729 232.914 192.27 222.526 194.655 211.754L175.419 297.933C173.572 306.243 167.031 314.245 155.797 320.478C129.713 335.02 88.1626 334.635 63.1554 319.554C53.2294 313.552 47.3047 306.089 45.5349 298.394Z" fill="#BFBEED"/>
<path d="M55.5377 157.045C88.778 138.963 135.869 139.502 167.493 158.353C164.646 156.661 160.722 156.815 156.336 159.277C131.944 144.58 91.4711 144.195 66.0022 158.353C40.5333 172.511 39.6869 195.98 64.1555 210.676C88.5472 225.373 129.02 225.757 154.489 211.6C179.958 197.442 180.805 173.973 156.336 159.277C160.799 156.815 164.723 156.661 167.493 158.353C174.11 162.662 184.113 169.126 191.115 182.745C197.579 195.441 195.655 206.829 194.809 211.676C192.346 222.757 183.805 233.144 169.263 241.223C135.33 260.152 81.3913 259.613 48.8434 239.992C35.8397 232.144 28.2221 222.449 25.9137 212.446C25.0673 208.06 24.2979 203.905 25.1443 197.442C26.1446 189.285 29.3763 183.207 29.5302 182.976C31.8385 178.436 38.3019 166.356 55.5377 157.045Z" fill="#E3E2F2"/>
<path d="M145.64 53.0927C164.338 64.4037 163.723 82.3319 144.179 93.2582C124.634 104.184 93.6255 103.8 74.9278 92.5657C56.2301 81.2547 56.8456 63.3265 76.3897 52.4002C95.9338 41.474 126.943 41.7818 145.64 53.0927Z" fill="#F4F4FB"/>
<path d="M50.2283 187.515C20.0658 168.817 13.4485 144.195 13.2177 126.728C13.2946 140.732 22.2203 154.736 40.3024 165.585C77.467 187.977 139.1 188.592 177.881 166.97C197.809 155.813 207.889 140.963 207.812 126.189C207.504 135.269 206.966 140.04 203.272 150.196C200.425 158.199 195.27 164.97 192.5 168.663C191.192 170.356 179.266 185.591 156.182 194.594C116.093 210.214 74.0814 202.288 50.2283 187.515Z" fill="#BFBEED"/>
<path d="M52.9984 49.5527C70.6959 39.9346 90.4708 35.2409 111.939 35.4717C133.945 35.7795 153.72 41.0118 170.648 51.0916C164.261 47.2444 155.413 47.6291 145.641 53.0922C126.943 41.7813 95.857 41.4735 76.3898 52.3997C56.8457 63.3259 56.2301 81.2542 74.9278 92.5651C93.6255 103.876 124.711 104.184 144.179 93.2576C163.723 82.3314 164.338 64.4032 145.641 53.0922C155.413 47.6291 164.338 47.2444 170.648 51.0916C179.573 56.8625 206.812 74.406 207.658 111.878C207.735 126.729 197.656 141.579 177.727 152.659C138.946 174.281 77.3901 173.665 40.1486 151.274C22.0664 140.425 13.1408 126.421 13.0638 112.417C13.2947 106.954 13.5255 100.798 15.9108 93.2576C18.7578 84.332 21.1431 80.4847 25.1443 74.1752C28.376 69.1738 38.3019 57.555 52.9984 49.5527Z" fill="#EDECF8"/>
<path d="M129.559 167.356C98.0885 171.049 64.0786 165.663 40.2256 151.274C22.2974 140.502 13.2948 126.575 13.1409 112.648C13.1409 103.645 16.8342 95.2582 23.0668 88.564C23.2207 101.029 31.223 113.494 47.3815 123.189C68.7723 136.116 99.2426 140.964 127.482 137.578C128.79 147.889 129.559 158.353 129.559 167.356Z" fill="#1F0159"/>
<path d="M13.1409 126.729L13.064 112.418C13.1409 126.422 22.0666 140.426 40.1487 151.275C77.3133 173.666 138.946 174.282 177.727 152.66C197.656 141.503 207.735 126.652 207.659 111.879L207.736 126.191C207.812 141.041 197.733 155.892 177.804 166.972C139.023 188.593 77.4672 187.978 40.2257 165.587C22.2205 154.737 13.2179 140.733 13.1409 126.729Z" fill="#E3E2F2"/>
<path d="M28.9146 127.191C26.991 132.577 23.7593 132.962 21.4509 128.037C17.6806 119.804 21.5279 109.801 26.4524 111.263C27.3757 111.494 27.8374 112.033 28.299 112.571C31.4538 116.957 29.761 124.806 28.9146 127.191Z" fill="#F47300"/>
<path d="M84.0845 151.582C82.6225 159.662 72.4657 161.047 67.3104 153.814C61.9242 146.273 67.849 137.578 75.3897 138.502C75.6974 138.502 76.0052 138.579 76.313 138.655C82.9303 140.656 84.8539 147.427 84.0845 151.582Z" fill="#F47300"/>
<path d="M174.957 116.726C174.957 111.955 171.571 109.955 167.416 112.34C163.261 114.725 159.875 120.573 159.875 125.421C159.875 130.191 163.261 132.192 167.416 129.807C171.571 127.345 174.957 121.497 174.957 116.726Z" fill="#4F389E"/>
<path d="M168.416 123.575C167.724 123.575 166.954 123.267 166.493 122.651C165.723 121.574 165.954 120.112 166.954 119.343L221.893 78.1001C222.971 77.3306 224.433 77.5615 225.202 78.5618C225.971 79.639 225.741 81.101 224.74 81.8704L169.801 123.113C169.34 123.421 168.878 123.575 168.416 123.575Z" fill="#1D2233"/>
<path d="M237.205 77.0229C237.205 69.9439 231.511 64.25 224.432 64.25C217.353 64.25 211.66 69.9439 211.66 77.0229C211.66 84.1019 217.353 89.7958 224.432 89.7958C231.511 89.7958 237.205 84.1019 237.205 77.0229Z" fill="#4F389E"/>
<path d="M33.6083 12.7729C33.6083 5.69395 27.9144 0 20.8354 0C13.7564 0 8.0625 5.69395 8.0625 12.7729C8.0625 19.8519 13.7564 25.5458 20.8354 25.5458C27.9144 25.5458 33.6083 19.8519 33.6083 12.7729Z" fill="#4F389E"/>
<path d="M186.268 207.752L195.578 213.139C191.654 210.83 186.191 211.138 180.112 214.677L170.802 209.291C176.803 205.752 182.266 205.444 186.268 207.752Z" fill="#F47300"/>
<mask id="mask6_332_533" style="mask-type:luminance" maskUnits="userSpaceOnUse" x="170" y="206" width="26" height="9">
<path d="M186.268 207.752L195.578 213.139C191.654 210.83 186.191 211.138 180.112 214.677L170.802 209.291C176.803 205.752 182.266 205.444 186.268 207.752Z" fill="white"/>
</mask>
<g mask="url(#mask6_332_533)">
<path d="M180.112 214.6L170.802 209.214C176.803 205.752 182.266 205.444 186.268 207.675L195.578 213.061C191.577 210.83 186.114 211.138 180.112 214.6Z" fill="#F47300"/>
</g>
<path d="M182.266 223.681C190.5 218.91 197.194 222.757 197.194 232.222C197.194 241.686 190.576 253.151 182.343 257.921C174.11 262.692 167.416 258.845 167.416 249.38C167.339 239.993 174.033 228.451 182.266 223.681Z" fill="#F47300"/>
<path d="M164.8 265.999L155.49 260.613C151.565 258.382 149.18 253.534 149.18 246.686C149.103 232.913 158.798 216.139 170.802 209.214L180.112 214.6C168.109 221.525 158.413 238.299 158.49 252.072C158.49 258.92 160.876 263.768 164.8 265.999Z" fill="#F47300"/>
<mask id="mask7_332_533" style="mask-type:luminance" maskUnits="userSpaceOnUse" x="149" y="209" width="32" height="57">
<path d="M164.8 265.999L155.49 260.613C151.565 258.382 149.18 253.534 149.18 246.686C149.103 232.913 158.798 216.139 170.802 209.214L180.112 214.6C168.109 221.525 158.413 238.299 158.49 252.072C158.49 258.92 160.876 263.768 164.8 265.999Z" fill="white"/>
</mask>
<g mask="url(#mask7_332_533)">
<path d="M164.8 265.999L155.49 260.612C152.027 258.612 149.719 254.611 149.257 248.917L158.567 254.303C159.029 259.997 161.337 263.998 164.8 265.999Z" fill="#F47300"/>
<path d="M158.567 254.303L149.257 248.917C149.18 248.225 149.18 247.455 149.18 246.686C149.18 234.836 156.336 220.678 166.031 212.599L175.341 217.985C165.646 226.064 158.49 240.222 158.49 252.072C158.413 252.918 158.49 253.611 158.567 254.303Z" fill="#F47300"/>
<path d="M175.264 217.985L165.954 212.599C167.493 211.291 169.109 210.137 170.725 209.214L180.035 214.6C178.419 215.6 176.803 216.754 175.264 217.985Z" fill="#F47300"/>
</g>
<path d="M182.266 223.679L180.112 214.6C192.115 207.675 201.811 213.215 201.887 226.988C201.964 240.761 192.269 257.535 180.266 264.46C168.262 271.385 158.49 265.845 158.49 252.072C158.413 238.299 168.108 221.525 180.112 214.6L182.266 223.679C174.033 228.45 167.416 239.915 167.416 249.379C167.416 258.843 174.11 262.614 182.343 257.92C190.577 253.149 197.194 241.684 197.194 232.22C197.117 222.756 190.423 218.986 182.266 223.679Z" fill="#F47300"/>
<mask id="mask8_332_533" style="mask-type:luminance" maskUnits="userSpaceOnUse" x="158" y="211" width="44" height="57">
<path d="M182.266 223.679L180.112 214.6C192.115 207.675 201.811 213.215 201.887 226.988C201.964 240.761 192.269 257.535 180.266 264.46C168.262 271.385 158.49 265.845 158.49 252.072C158.413 238.299 168.108 221.525 180.112 214.6L182.266 223.679C174.033 228.45 167.416 239.915 167.416 249.379C167.416 258.843 174.11 262.614 182.343 257.92C190.577 253.149 197.194 241.684 197.194 232.22C197.117 222.756 190.423 218.986 182.266 223.679Z" fill="white"/>
</mask>
<g mask="url(#mask8_332_533)">
<path d="M182.266 223.679L180.112 214.6C192.115 207.675 201.811 213.215 201.887 226.988C201.964 240.761 192.269 257.535 180.266 264.46C168.262 271.385 158.49 265.845 158.49 252.072C158.413 238.299 168.108 221.525 180.112 214.6L182.266 223.679C174.033 228.45 167.416 239.915 167.416 249.379C167.416 258.843 174.11 262.614 182.343 257.92C190.577 253.149 197.194 241.684 197.194 232.22C197.117 222.756 190.423 218.986 182.266 223.679Z" fill="#4C1F8C"/>
</g>
<path d="M186.345 351.101L173.033 343.329C171.571 342.483 170.494 340.79 170.032 338.174L183.344 345.946C183.805 348.639 184.883 350.254 186.345 351.101Z" fill="#E3E2F2"/>
<mask id="mask9_332_533" style="mask-type:luminance" maskUnits="userSpaceOnUse" x="170" y="338" width="17" height="14">
<path d="M186.345 351.101L173.033 343.329C171.571 342.483 170.494 340.79 170.032 338.174L183.344 345.946C183.805 348.639 184.883 350.254 186.345 351.101Z" fill="white"/>
</mask>
<g mask="url(#mask9_332_533)">
<path d="M186.344 351.101L173.033 343.329C171.571 342.483 170.494 340.79 170.109 338.174L183.42 345.946C183.805 348.639 184.882 350.254 186.344 351.101Z" fill="#E3E2F2"/>
<path d="M183.344 346.022L170.032 338.251V338.174L183.344 345.946V346.022Z" fill="#E3E2F2"/>
</g>
<path d="M197.809 211.907L211.121 219.679C207.197 217.447 201.81 217.678 195.809 221.218L182.497 213.446C188.499 209.907 193.962 209.599 197.809 211.907Z" fill="#E3E2F2"/>
<mask id="mask10_332_533" style="mask-type:luminance" maskUnits="userSpaceOnUse" x="182" y="210" width="30" height="12">
<path d="M197.809 211.907L211.121 219.679C207.197 217.447 201.81 217.678 195.809 221.218L182.497 213.446C188.499 209.907 193.962 209.599 197.809 211.907Z" fill="white"/>
</mask>
<g mask="url(#mask10_332_533)">
<path d="M195.809 221.141L182.497 213.37C188.576 209.907 193.962 209.6 197.809 211.831L211.121 219.602C207.274 217.371 201.887 217.679 195.809 221.141Z" fill="#E3E2F2"/>
</g>
<path d="M183.344 345.947L170.032 338.176L157.182 256.844L170.571 264.616L183.344 345.947Z" fill="#E3E2F2"/>
<path d="M191.731 223.526L178.419 215.755L182.497 213.446L195.809 221.141L191.731 223.526Z" fill="#F4F4FB"/>
<path d="M170.571 264.615L157.259 256.844C155.105 242.994 165.185 223.449 178.496 215.755L191.808 223.526C178.496 231.221 168.339 250.765 170.571 264.615Z" fill="#F4F4FB"/>
<mask id="mask11_332_533" style="mask-type:luminance" maskUnits="userSpaceOnUse" x="156" y="215" width="36" height="50">
<path d="M170.571 264.615L157.259 256.844C155.105 242.994 165.185 223.449 178.496 215.755L191.808 223.526C178.496 231.221 168.339 250.765 170.571 264.615Z" fill="white"/>
</mask>
<g mask="url(#mask11_332_533)">
<path d="M170.571 264.615L157.259 256.844C156.567 252.612 157.105 247.918 158.413 243.148L171.725 250.919C170.34 255.613 169.878 260.383 170.571 264.615Z" fill="#F4F4FB"/>
<path d="M171.725 250.842L158.336 243.148C159.875 237.762 162.491 232.375 165.877 227.605L179.189 235.376C175.88 240.07 173.264 245.533 171.725 250.842Z" fill="#F4F4FB"/>
<path d="M179.266 235.376L165.954 227.605C168.57 223.988 171.571 220.757 174.88 218.218L188.191 225.989C184.883 228.451 181.805 231.683 179.266 235.376Z" fill="#F4F4FB"/>
<path d="M188.191 225.912L174.88 218.14C176.034 217.217 177.265 216.447 178.496 215.755L191.807 223.526C190.499 224.219 189.345 225.065 188.191 225.912Z" fill="#F4F4FB"/>
</g>
<path d="M195.809 221.141C209.12 213.447 219.277 221.295 217.2 237.608L204.888 333.482C203.888 341.099 199.041 347.409 194.193 350.179C189.345 353.026 184.421 352.333 183.421 345.87L170.571 264.539C168.416 250.688 178.496 231.144 191.808 223.45L195.809 221.141Z" fill="#CCCBF6"/>
</svg>
