<svg width="111" height="111" viewBox="0 0 111 111" fill="none" xmlns="http://www.w3.org/2000/svg">
<path d="M107.315 3.15121C105.655 3.15121 103.719 3.15121 102.059 3.15121C90.7182 3.70443 79.9305 6.19391 69.696 11.1729C57.2486 16.9817 46.7374 25.2799 38.4392 36.3443C32.6304 43.8127 28.4813 52.111 25.4386 60.9624C25.162 61.5157 25.4386 61.7923 25.7152 62.0689C28.2046 64.5584 30.6941 67.0478 33.1836 69.5373C33.4602 69.8139 33.7368 70.3671 33.7368 70.9204C33.7368 71.4736 33.4602 72.0268 32.907 72.3034C32.3538 72.58 31.524 72.58 31.2473 72.0268C29.8643 70.6438 28.7579 69.5373 27.3748 68.1543C25.7152 66.4946 24.3321 64.835 22.6725 63.4519C22.1193 62.8987 21.8426 62.0689 22.1193 61.2391C25.7152 50.4513 30.9707 40.4934 38.4392 31.6419C45.9076 22.5138 55.0357 15.322 65.2702 10.0664C74.6749 5.08747 84.9095 2.04478 95.4206 0.661732C99.8463 0.108515 104.272 -0.168094 108.698 0.108515C110.081 0.108515 110.357 0.661732 110.634 2.04478C111.187 20.0243 106.762 36.6209 97.0802 52.111C87.3989 67.3244 74.1217 78.6654 57.5252 85.8572C55.0357 86.9637 52.2696 87.7935 49.5035 88.8999C48.6737 89.1765 48.1205 89.1765 47.5673 88.3467C44.8012 85.5806 41.7585 82.5379 38.9924 79.7718C38.4392 79.2186 38.1626 78.3888 38.7158 77.559C39.269 76.7291 40.3754 76.7291 41.2053 77.559C43.6947 80.0485 46.1842 82.5379 48.6737 85.0274C49.2269 85.5806 49.5035 85.5806 50.0567 85.304C62.2275 81.1549 73.0153 74.5163 82.1434 65.6648C92.9311 55.1537 100.123 42.7063 104.272 28.5992C106.485 20.8542 107.591 12.8325 107.591 4.53426C107.591 3.98104 107.315 3.70443 107.315 3.15121Z" fill="#F47300"/>
<path d="M92.1012 35.5142C92.1012 44.9189 84.6328 52.3874 75.2281 52.3874C65.8234 52.3874 58.355 44.9189 58.355 35.5142C58.355 26.3862 65.8234 18.6411 74.9515 18.6411C84.6328 18.6411 92.1012 26.1096 92.1012 35.5142ZM88.7819 35.7909C88.7819 28.0458 82.6966 21.9604 74.9515 21.9604C67.2065 21.9604 61.1211 28.0458 61.1211 35.7909C61.1211 43.5359 67.2065 49.6213 74.9515 49.6213C82.6966 49.3447 88.7819 43.2593 88.7819 35.7909Z" fill="#F47300"/>
<path d="M49.78 106.326C51.7162 105.22 53.6525 103.836 55.3121 102.453C60.8443 97.4745 63.887 91.3891 65.2701 84.1973C65.5467 83.0908 66.0999 82.5376 66.9297 82.5376C68.0362 82.5376 68.5894 83.3674 68.5894 84.4739C68.3128 85.8569 68.0361 87.5166 67.4829 88.8996C64.4402 98.3043 58.9081 105.22 50.3332 109.922C48.3969 111.028 47.5671 110.475 47.2905 108.539C46.1841 102.73 45.0776 96.6446 43.9712 90.8359C43.9712 90.2826 43.9712 89.7294 43.9712 89.4528C44.2478 88.8996 44.801 88.623 45.6308 88.623C46.1841 88.623 46.7373 89.1762 47.0139 89.7294C47.2905 91.3891 47.5671 93.0487 48.1203 94.985C48.3969 98.8575 49.2268 102.453 49.78 106.326Z" fill="#F47300"/>
<path d="M4.13966 60.6858C5.79931 60.9624 7.45896 61.239 8.84201 61.5156C12.7145 62.3454 16.5871 62.8987 20.183 63.7285C20.4596 63.7285 20.4596 63.7285 20.7362 63.7285C21.566 64.0051 22.1192 64.8349 21.8426 65.6648C21.566 66.4946 21.0128 67.0478 19.9064 66.7712C17.6935 66.218 15.204 65.9414 12.9911 65.3881C9.39522 64.5583 5.79931 64.0051 1.92679 63.1753C1.65018 63.1753 1.65018 63.1753 1.37357 63.1753C-0.00947509 62.8987 -0.286084 62.0688 0.267134 60.6858C1.92679 57.6431 3.86305 54.6004 6.35253 52.1109C11.6081 46.5787 17.9701 43.536 25.1619 41.8764C25.4385 41.8764 25.7151 41.8764 25.7151 41.5998C26.545 41.3232 27.3748 41.8764 27.6514 42.7062C27.928 43.536 27.3748 44.3659 26.2684 44.6425C24.6087 45.1957 22.6724 45.4723 21.0128 46.0255C13.821 48.515 8.28879 52.9407 4.13966 59.3027C4.41627 60.1326 4.41627 60.4092 4.13966 60.6858Z" fill="#F47300"/>
<path d="M23.7788 85.3041C24.0554 85.0274 24.332 84.4742 24.6086 84.1976C29.8642 78.9421 34.8432 73.9631 40.0987 68.7075C42.035 66.7713 43.6946 65.1116 45.6309 63.1754C46.4607 62.3455 47.2906 62.3455 48.1204 62.8987C48.6736 63.452 48.6736 64.5584 47.8438 65.3882C41.7584 71.4736 35.673 77.8356 29.311 83.921C28.4812 84.7508 27.6513 85.8573 26.5449 86.6871C25.9917 87.2403 25.4385 87.2403 24.8852 86.9637C24.0554 86.6871 23.7788 86.1339 23.7788 85.3041Z" fill="#F47300"/>
<path d="M16.5871 92.4956C17.1403 92.7722 17.6935 93.0488 17.9701 93.602C18.2467 94.1553 17.9701 94.7085 17.6935 95.2617C17.4169 95.5383 16.8637 96.0915 16.5871 96.6447C13.2678 99.964 9.94848 103.56 6.35256 106.879C5.79935 107.156 5.52274 107.432 4.96952 107.432C4.4163 107.432 3.86309 107.156 3.58648 106.603C3.30987 105.773 3.30987 105.22 3.86309 104.666C6.07596 102.454 8.28883 100.241 10.5017 98.0278C12.1613 96.3681 13.5444 94.9851 15.204 93.3254C15.7573 93.0488 16.0339 92.7722 16.5871 92.4956Z" fill="#F47300"/>
<path d="M14.0974 81.1548C15.4805 81.1548 16.3103 82.5378 15.7571 83.3677C15.4805 83.6443 15.4805 83.9209 15.2039 84.1975C11.6079 87.7934 8.01202 91.3893 4.41611 94.9852L4.1395 95.2618C3.30968 95.815 2.47985 96.0917 1.92663 95.2618C1.37341 94.7086 1.37341 93.6022 1.92663 93.049C4.69272 90.2829 7.45881 87.5168 10.2249 84.7507C11.3313 83.6443 12.1612 82.8144 13.2676 81.9846C13.5442 81.4314 14.0974 81.1548 14.0974 81.1548Z" fill="#F47300"/>
<path d="M29.5876 96.6451C29.5876 96.9217 29.311 97.1983 29.0344 97.7516C25.1618 101.624 21.5659 105.22 17.6934 109.093C16.8636 109.922 16.0337 109.922 15.2039 109.093C14.6507 108.539 14.6507 107.433 15.4805 106.88C19.353 103.007 22.949 99.4112 26.8215 95.5387C27.3747 94.9855 27.9279 94.7089 28.7577 94.9855C29.311 95.2621 29.5876 95.5387 29.5876 96.6451Z" fill="#F47300"/>
</svg>
