<svg width="41" height="42" viewBox="0 0 41 42" fill="none" xmlns="http://www.w3.org/2000/svg">
<path d="M26.5409 18.7026L26.5108 4.09598C26.5067 2.11317 24.8902 0.5 22.9073 0.5H3.60351C1.61654 0.5 0 2.11654 0 4.10343V18.6772C0 20.6641 1.61654 22.2807 3.60351 22.2807H6.08593V24.6829C6.08593 25.6705 7.21687 26.237 8.0078 25.6439L12.4906 22.2819L22.9265 22.3134C24.9528 22.3134 26.545 20.681 26.5409 18.7026ZM13.2129 17.3961C12.5495 17.3961 12.0117 16.8583 12.0117 16.1949C12.0117 15.5315 12.5495 14.9937 13.2129 14.9937C13.8762 14.9937 14.414 15.5315 14.414 16.1949C14.414 16.8583 13.8762 17.3961 13.2129 17.3961ZM14.4941 12.3854V12.5114C14.4941 13.1748 13.9563 13.7126 13.293 13.7126C12.6296 13.7126 12.0918 13.1748 12.0918 12.5114V11.7619C12.0918 10.9686 12.6814 10.2874 13.4633 10.1773C14.051 10.0946 14.4941 9.58333 14.4941 8.98795C14.4941 8.11262 13.5295 7.36205 12.4259 8.06826C11.8669 8.42572 11.1242 8.26245 10.7667 7.70374C10.4093 7.14496 10.5725 6.40215 11.1312 6.0446C12.3701 5.25215 13.8243 5.17039 15.0216 5.82567C15.5891 6.13608 16.0626 6.59347 16.3925 7.14987C16.7224 7.70628 16.8964 8.34119 16.8965 8.98803C16.8965 10.5303 15.9029 11.8847 14.4941 12.3854Z" fill="#4F389E"/>
<path d="M37.3965 17.396H28.9405L28.9433 18.6976C28.9493 21.6634 26.8254 24.0701 24.1038 24.6029H34.914C35.5774 24.6029 36.1152 25.1407 36.1152 25.8041C36.1152 26.4674 35.5774 27.0052 34.914 27.0052H20.5C19.8366 27.0052 19.2988 26.4674 19.2988 25.8041C19.2988 25.3144 19.5923 24.8939 20.0126 24.7069L14.4941 24.6902V35.4932C14.4941 37.4801 16.1107 39.0966 18.0977 39.0966H26.2223L30.7734 41.3721C31.5697 41.7703 32.5117 41.1903 32.5117 40.2978V39.0966H37.3965C39.3834 39.0966 41 37.4802 41 35.4932V20.9995C41 19.0125 39.3834 17.396 37.3965 17.396ZM34.914 31.8097H20.5C19.8366 31.8097 19.2988 31.2719 19.2988 30.6085C19.2988 29.9451 19.8366 29.4073 20.5 29.4073H34.914C35.5774 29.4073 36.1152 29.9451 36.1152 30.6085C36.1152 31.2719 35.5774 31.8097 34.914 31.8097Z" fill="#4F389E"/>
</svg>
