<svg width="560" height="347" viewBox="0 0 560 347" fill="none" xmlns="http://www.w3.org/2000/svg">
<path opacity="0.3" d="M293.014 244.578H328.756L466.11 165.15L345.527 93.9985L259.397 141.382L293.014 244.578Z" fill="#D9CDC1"/>
<path d="M161.808 134.698L168.182 130.978L176.833 135.989L170.459 139.71L161.808 134.698Z" fill="#EDECF8"/>
<path d="M178.199 131.963L184.574 128.243L178.047 138.95L171.597 142.67L178.199 131.963Z" fill="#BFBEED"/>
<path d="M193.3 138.495L199.674 134.774V136.977L193.3 140.697V138.495Z" fill="#98A4E0"/>
<path d="M176.985 129.003L183.359 125.282L199.674 134.774L193.3 138.495L176.985 129.003Z" fill="#EDECF8"/>
<path d="M193.3 138.495V140.697L178.199 131.964L171.597 142.671L161.732 136.976L161.808 134.698L170.459 139.71L176.985 129.003L193.3 138.495Z" fill="#98A4E0"/>
<path d="M185.56 121.182L191.935 117.461L200.586 122.473L194.211 126.194L185.56 121.182Z" fill="#EDECF8"/>
<path d="M201.952 118.372L208.326 114.651L201.8 125.358L195.35 129.079L201.952 118.372Z" fill="#BFBEED"/>
<path d="M217.052 124.903L223.427 121.183V123.385L217.052 127.106V124.903Z" fill="#98A4E0"/>
<path d="M200.737 115.487L207.187 111.767L223.427 121.183L217.053 124.903L200.737 115.487Z" fill="#EDECF8"/>
<path d="M217.053 124.903V127.105L201.952 118.373L195.35 129.08L185.56 123.385V121.182L194.211 126.194L200.737 115.487L217.053 124.903Z" fill="#98A4E0"/>
<path d="M208.326 107.589L214.7 103.869L223.351 108.88L216.977 112.601L208.326 107.589Z" fill="#EDECF8"/>
<path d="M224.717 104.855L231.091 101.134L224.565 111.841L218.115 115.561L224.717 104.855Z" fill="#BFBEED"/>
<path d="M239.818 111.386L246.192 107.666V109.868L239.818 113.588V111.386Z" fill="#98A4E0"/>
<path d="M223.503 101.894L229.953 98.1733L246.193 107.665L239.819 111.386L223.503 101.894Z" fill="#EDECF8"/>
<path d="M239.818 111.385V113.588L224.717 104.855L218.115 115.562L208.326 109.867V107.589L216.977 112.6L223.503 101.894L239.818 111.385Z" fill="#98A4E0"/>
<path d="M138.283 149.429L144.658 145.708L153.384 150.72L146.934 154.441L138.283 149.429Z" fill="#EDECF8"/>
<path d="M154.675 146.695L161.049 142.975L154.523 153.682L148.149 157.402L154.675 146.695Z" fill="#BFBEED"/>
<path d="M169.775 153.227L176.226 149.506V151.708L169.775 155.429V153.227Z" fill="#98A4E0"/>
<path d="M153.537 143.735L159.911 140.014L176.226 149.506L169.776 153.226L153.537 143.735Z" fill="#EDECF8"/>
<path d="M169.776 153.226V155.428L154.675 146.696L148.148 157.403L138.283 151.708V149.43L146.934 154.441L153.536 143.734L169.776 153.226Z" fill="#98A4E0"/>
<path d="M233.596 93.3136L239.97 89.5928L248.697 94.6045L242.247 98.3254L233.596 93.3136Z" fill="#EDECF8"/>
<path d="M249.987 90.503L256.362 86.7822L249.836 97.4891L243.461 101.21L249.987 90.503Z" fill="#BFBEED"/>
<path d="M265.164 97.0348L271.538 93.314V95.5161L265.088 99.2369L265.164 97.0348Z" fill="#98A4E0"/>
<path d="M248.849 87.6183L255.223 83.8975L271.538 93.3135L265.164 97.0343L248.849 87.6183Z" fill="#EDECF8"/>
<path d="M265.164 97.0341L265.088 99.2363L249.987 90.5037L243.461 101.211L233.596 95.5154V93.3133L242.247 98.3251L248.849 87.6182L265.164 97.0341Z" fill="#98A4E0"/>
<path d="M257.879 79.4938L264.33 75.7729L272.981 80.7847L266.606 84.5055L257.879 79.4938Z" fill="#EDECF8"/>
<path d="M274.27 76.6827L280.721 72.9619L274.195 83.6688L267.744 87.3896L274.27 76.6827Z" fill="#BFBEED"/>
<path d="M289.448 83.215L295.822 79.4941V81.6963L289.448 85.4171V83.215Z" fill="#98A4E0"/>
<path d="M273.132 73.7985L279.507 70.0776L295.822 79.4936L289.448 83.2145L273.132 73.7985Z" fill="#EDECF8"/>
<path d="M289.448 83.2139V85.416L274.271 76.6834L267.745 87.3903L257.879 81.6951V79.493L266.606 84.5047L273.133 73.7979L289.448 83.2139Z" fill="#98A4E0"/>
<path d="M422.248 135.078L415.797 131.357L407.146 136.369L413.521 140.09L422.248 135.078Z" fill="#EDECF8"/>
<path d="M405.857 132.268L399.407 128.547L406.009 139.254L412.383 142.975L405.857 132.268Z" fill="#BFBEED"/>
<path d="M390.68 138.799L384.305 135.078V137.28L390.68 141.001V138.799Z" fill="#98A4E0"/>
<path d="M406.995 129.383L400.621 125.663L384.305 135.079L390.68 138.799L406.995 129.383Z" fill="#EDECF8"/>
<path d="M390.68 138.799V141.001L405.857 132.269L412.383 142.976L422.248 137.281V135.078L413.521 140.09L406.995 129.383L390.68 138.799Z" fill="#98A4E0"/>
<path d="M398.42 121.486L392.046 117.766L383.395 122.777L389.769 126.498L398.42 121.486Z" fill="#EDECF8"/>
<path d="M382.029 118.752L375.654 115.031L382.18 125.738L388.631 129.459L382.029 118.752Z" fill="#BFBEED"/>
<path d="M366.927 125.283L360.553 121.562V123.765L366.927 127.485V125.283Z" fill="#98A4E0"/>
<path d="M383.243 115.792L376.868 112.071L360.553 121.563L366.927 125.284L383.243 115.792Z" fill="#EDECF8"/>
<path d="M366.927 125.283V127.486L382.029 118.753L388.631 129.46L398.496 123.765L398.42 121.487L389.769 126.498L383.243 115.792L366.927 125.283Z" fill="#98A4E0"/>
<path d="M375.731 107.969L369.281 104.248L360.63 109.26L367.004 112.981L375.731 107.969Z" fill="#EDECF8"/>
<path d="M359.339 105.158L352.889 101.438L359.491 112.144L365.865 115.865L359.339 105.158Z" fill="#BFBEED"/>
<path d="M344.162 111.69L337.788 107.969V110.171L344.162 113.892V111.69Z" fill="#98A4E0"/>
<path d="M360.477 102.274L354.103 98.5527L337.787 107.969L344.162 111.69L360.477 102.274Z" fill="#EDECF8"/>
<path d="M344.162 111.689V113.892L359.339 105.159L365.865 115.866L375.731 110.171V107.969L367.004 112.98L360.478 102.273L344.162 111.689Z" fill="#98A4E0"/>
<path d="M445.697 149.81L439.322 146.089L430.671 151.101L437.046 154.821L445.697 149.81Z" fill="#EDECF8"/>
<path d="M429.306 147L422.932 143.279L429.458 153.986L435.832 157.707L429.306 147Z" fill="#BFBEED"/>
<path d="M414.204 153.53L407.754 149.81L407.83 152.012L414.204 155.733V153.53Z" fill="#98A4E0"/>
<path d="M430.52 144.115L424.069 140.394L407.754 149.81L414.204 153.531L430.52 144.115Z" fill="#EDECF8"/>
<path d="M414.205 153.53V155.732L429.306 147L435.832 157.707L445.697 152.012V149.809L437.046 154.821L430.52 144.114L414.205 153.53Z" fill="#98A4E0"/>
<path d="M350.385 93.6193L344.01 89.8984L335.359 94.9102L341.734 98.631L350.385 93.6193Z" fill="#EDECF8"/>
<path d="M333.993 90.8839L327.619 87.1631L334.145 97.87L340.52 101.591L333.993 90.8839Z" fill="#BFBEED"/>
<path d="M318.892 97.3395L312.441 93.6187V95.8967L318.892 99.6176V97.3395Z" fill="#98A4E0"/>
<path d="M335.207 87.9239L328.757 84.2031L312.441 93.6191L318.892 97.3399L335.207 87.9239Z" fill="#EDECF8"/>
<path d="M318.892 97.3398V99.6179L333.993 90.8853L340.52 101.592L350.385 95.897V93.619L341.734 98.6307L335.208 87.9238L318.892 97.3398Z" fill="#98A4E0"/>
<path d="M326.101 79.797L319.651 76.0762L311 81.0879L317.374 84.8087L326.101 79.797Z" fill="#EDECF8"/>
<path d="M309.71 77.0626L303.259 73.3418L309.861 84.0487L316.236 87.7695L309.71 77.0626Z" fill="#BFBEED"/>
<path d="M294.532 83.5939L288.158 79.873V82.0752L294.532 85.796V83.5939Z" fill="#98A4E0"/>
<path d="M310.848 74.1779L304.473 70.457L288.158 79.873L294.532 83.5939L310.848 74.1779Z" fill="#EDECF8"/>
<path d="M294.532 83.5937V85.7958L309.71 77.0633L316.236 87.7702L326.101 82.075V79.7969L317.374 84.8087L310.848 74.1777L294.532 83.5937Z" fill="#98A4E0"/>
<path d="M430.14 149.506V164.845L293.014 244.577L293.09 229.239L430.14 149.506Z" fill="#1F0159"/>
<path d="M293.09 229.239L293.014 244.577L154.978 164.845L155.054 149.506L293.09 229.239Z" fill="#4F389E"/>
<path d="M430.14 149.506L293.09 229.238L155.054 149.506L292.18 69.7734L430.14 149.506Z" fill="#F47300"/>
<path d="M397.282 145.633V153.302L292.939 213.975V206.305L397.282 145.633Z" fill="#DDDEFA"/>
<path d="M292.939 206.305V213.975L187.837 153.302L187.913 145.633L292.939 206.305Z" fill="#CCCBF6"/>
<path d="M397.282 145.633L292.938 206.306L187.912 145.633L292.255 84.9609L397.282 145.633Z" fill="white"/>
<path d="M143.747 189.068L137.373 185.348L143.823 167.123L150.273 170.844L143.747 189.068Z" fill="#CCCBF6"/>
<path d="M150.273 170.844L143.823 167.123L160.138 157.707L166.513 161.428L150.273 170.844Z" fill="#EDECF8"/>
<path d="M135.096 194.079L128.721 190.358L137.372 185.347L143.747 189.067L135.096 194.079Z" fill="#EDECF8"/>
<path d="M135.096 196.282L128.721 192.562V190.359L135.096 194.08V196.282Z" fill="#BFBEED"/>
<path d="M166.513 161.428L166.589 163.63L151.411 172.362L144.961 190.587L135.096 196.282V194.08L143.747 189.068L150.273 170.844L166.513 161.428Z" fill="#98A4E0"/>
<path d="M167.803 202.814L161.428 199.093L167.879 180.945L174.329 184.666L167.803 202.814Z" fill="#CCCBF6"/>
<path d="M174.328 184.666L167.878 180.945L184.194 171.529L190.568 175.25L174.328 184.666Z" fill="#EDECF8"/>
<path d="M159.151 207.9L152.777 204.179L161.428 199.092L167.802 202.813L159.151 207.9Z" fill="#EDECF8"/>
<path d="M159.151 210.104L152.777 206.383V204.181L159.151 207.902V210.104Z" fill="#BFBEED"/>
<path d="M190.568 175.249L190.644 177.451L175.467 186.184L169.017 204.408L159.151 210.103V207.901L167.802 202.814L174.329 184.665L190.568 175.249Z" fill="#98A4E0"/>
<path d="M191.706 216.784L185.332 213.063L191.782 194.839L198.157 198.56L191.706 216.784Z" fill="#CCCBF6"/>
<path d="M198.157 198.56L191.782 194.839L208.098 185.423L214.472 189.144L198.157 198.56Z" fill="#EDECF8"/>
<path d="M183.055 221.795L176.605 218.074L185.332 213.062L191.706 216.783L183.055 221.795Z" fill="#EDECF8"/>
<path d="M183.055 223.998L176.605 220.277V218.075L183.055 221.796V223.998Z" fill="#BFBEED"/>
<path d="M214.472 189.144V191.346L199.371 200.078L192.845 218.303L183.056 223.998V221.796L191.707 216.784L198.157 198.56L214.472 189.144Z" fill="#98A4E0"/>
<path d="M215.535 230.606L209.161 226.885L215.611 208.661L221.986 212.381L215.535 230.606Z" fill="#CCCBF6"/>
<path d="M221.985 212.382L215.611 208.661L231.926 199.245L238.301 202.966L221.985 212.382Z" fill="#EDECF8"/>
<path d="M206.884 235.617L200.51 231.896L209.161 226.884L215.535 230.605L206.884 235.617Z" fill="#EDECF8"/>
<path d="M206.884 237.82L200.51 234.1V231.897L206.884 235.618V237.82Z" fill="#BFBEED"/>
<path d="M238.301 202.965V205.167L223.199 213.9L216.749 232.125L206.884 237.82V235.618L215.535 230.606L221.985 212.381L238.301 202.965Z" fill="#98A4E0"/>
<path d="M239.742 244.35L233.292 240.629L239.818 222.405L246.193 226.126L239.742 244.35Z" fill="#CCCBF6"/>
<path d="M246.193 226.126L239.818 222.405L256.058 212.989L262.508 216.71L246.193 226.126Z" fill="#EDECF8"/>
<path d="M231.016 249.361L224.641 245.64L233.292 240.628L239.742 244.349L231.016 249.361Z" fill="#EDECF8"/>
<path d="M231.016 251.564L224.641 247.843V245.641L231.016 249.362V251.564Z" fill="#BFBEED"/>
<path d="M262.508 216.709V218.911L247.331 227.644L240.881 245.868L231.016 251.563V249.361L239.742 244.349L246.193 226.125L262.508 216.709Z" fill="#98A4E0"/>
<path d="M263.419 258.171L257.044 254.45L263.495 236.226L269.869 239.946L263.419 258.171Z" fill="#CCCBF6"/>
<path d="M269.869 239.946L263.495 236.226L279.81 226.81L286.185 230.53L269.869 239.946Z" fill="#EDECF8"/>
<path d="M254.692 263.182L248.318 259.461L257.044 254.45L263.419 258.171L254.692 263.182Z" fill="#EDECF8"/>
<path d="M254.768 265.385L248.318 261.664V259.462L254.692 263.183L254.768 265.385Z" fill="#BFBEED"/>
<path d="M286.184 230.53V232.732L271.083 241.465L264.557 259.689L254.768 265.385L254.692 263.182L263.419 258.171L269.869 239.946L286.184 230.53Z" fill="#98A4E0"/>
<path d="M441.902 189.296L448.277 185.576L441.826 167.351L435.452 171.072L441.902 189.296Z" fill="#CCCBF6"/>
<path d="M435.452 171.072L441.827 167.352L425.511 157.936L419.137 161.656L435.452 171.072Z" fill="#EDECF8"/>
<path d="M450.553 194.308L457.003 190.587L448.277 185.575L441.902 189.296L450.553 194.308Z" fill="#EDECF8"/>
<path d="M450.553 196.587L457.004 192.866V190.588L450.553 194.309V196.587Z" fill="#BFBEED"/>
<path d="M419.136 161.656V163.934L434.238 172.667L440.688 190.891L450.553 196.587V194.308L441.902 189.297L435.452 171.072L419.136 161.656Z" fill="#98A4E0"/>
<path d="M417.846 203.118L424.221 199.397L417.77 181.173L411.396 184.894L417.846 203.118Z" fill="#CCCBF6"/>
<path d="M411.397 184.894L417.771 181.173L401.455 171.757L395.081 175.478L411.397 184.894Z" fill="#EDECF8"/>
<path d="M426.498 208.129L432.948 204.408L424.221 199.396L417.847 203.117L426.498 208.129Z" fill="#EDECF8"/>
<path d="M426.498 210.332L432.948 206.611V204.409L426.498 208.13V210.332Z" fill="#BFBEED"/>
<path d="M395.081 175.478V177.68L410.182 186.412L416.633 204.637L426.498 210.332V208.13L417.847 203.118L411.397 184.894L395.081 175.478Z" fill="#98A4E0"/>
<path d="M394.018 217.012L400.392 213.291L393.942 195.067L387.492 198.788L394.018 217.012Z" fill="#CCCBF6"/>
<path d="M387.492 198.787L393.943 195.066L377.627 185.65L371.177 189.371L387.492 198.787Z" fill="#EDECF8"/>
<path d="M402.669 222.024L409.043 218.303L400.392 213.291L394.018 217.012L402.669 222.024Z" fill="#EDECF8"/>
<path d="M402.669 224.226L409.043 220.505V218.303L402.669 222.024V224.226Z" fill="#BFBEED"/>
<path d="M371.177 189.372V191.574L386.354 200.382L392.804 218.531L402.669 224.226V222.024L394.018 217.012L387.492 198.788L371.177 189.372Z" fill="#98A4E0"/>
<path d="M370.114 230.834L376.488 227.113L370.038 208.888L363.664 212.609L370.114 230.834Z" fill="#CCCBF6"/>
<path d="M363.664 212.609L370.038 208.889L353.723 199.473L347.348 203.193L363.664 212.609Z" fill="#EDECF8"/>
<path d="M378.841 235.845L385.216 232.124L376.489 227.112L370.114 230.833L378.841 235.845Z" fill="#EDECF8"/>
<path d="M378.765 238.048L385.215 234.327V232.125L378.841 235.846L378.765 238.048Z" fill="#BFBEED"/>
<path d="M347.348 203.193V205.395L362.449 214.204L368.976 232.353L378.765 238.048L378.841 235.846L370.114 230.834L363.664 212.609L347.348 203.193Z" fill="#98A4E0"/>
<path d="M345.983 244.578L352.357 240.857L345.907 222.633L339.532 226.354L345.983 244.578Z" fill="#CCCBF6"/>
<path d="M339.533 226.354L345.907 222.633L329.591 213.217L323.217 216.938L339.533 226.354Z" fill="#EDECF8"/>
<path d="M354.634 249.589L361.084 245.868L352.357 240.856L345.983 244.577L354.634 249.589Z" fill="#EDECF8"/>
<path d="M354.634 251.792L361.008 248.071L361.084 245.869L354.634 249.59V251.792Z" fill="#BFBEED"/>
<path d="M323.217 216.938V219.14L338.319 227.873L344.769 246.097L354.634 251.792V249.59L345.983 244.578L339.533 226.354L323.217 216.938Z" fill="#98A4E0"/>
<path d="M322.306 258.399L328.68 254.679L322.23 236.454L315.78 240.175L322.306 258.399Z" fill="#CCCBF6"/>
<path d="M315.78 240.175L322.23 236.454L305.915 227.038L299.464 230.759L315.78 240.175Z" fill="#EDECF8"/>
<path d="M330.957 263.41L337.332 259.689L328.681 254.678L322.306 258.399L330.957 263.41Z" fill="#EDECF8"/>
<path d="M330.957 265.613L337.332 261.893V259.69L330.957 263.411V265.613Z" fill="#BFBEED"/>
<path d="M299.464 230.759V232.961L314.642 241.769L321.092 259.918L330.957 265.613V263.411L322.306 258.399L315.78 240.175L299.464 230.759Z" fill="#98A4E0"/>
<path d="M224.11 145.632L229.27 148.594L292.332 185.043V105.918L224.11 145.632Z" fill="#DDDEFA"/>
<path d="M292.332 105.918V185.043L292.787 185.346L355.924 148.594L361.085 145.632L292.332 105.918Z" fill="#CCCBF6"/>
<path d="M355.924 148.594L292.787 185.347L229.271 148.594L292.332 111.917L355.924 148.594Z" fill="#F47300"/>
<path d="M355.924 148.595L292.787 185.348L229.27 148.595L292.331 111.918L355.924 148.595Z" fill="#F47300"/>
<path d="M326.708 143.129V147.002L319.195 151.33V147.534L326.708 143.129Z" fill="#DDDEFA"/>
<path d="M319.195 147.533V151.33L285.729 131.967V128.17L319.195 147.533Z" fill="#CCCBF6"/>
<path d="M326.708 143.129L319.195 147.533L285.729 128.17L293.242 123.766L326.708 143.129Z" fill="#F8F9FC"/>
<path d="M289.447 149.43V153.227C287.474 152.696 285.577 152.164 283.832 151.708C282.011 151.253 280.341 150.797 278.823 150.418C277.306 150.038 275.94 149.658 274.801 149.43C273.663 149.127 272.753 148.899 272.07 148.747V144.95C272.753 145.102 273.663 145.33 274.801 145.634C275.94 145.937 277.306 146.241 278.823 146.621C280.341 147 282.011 147.456 283.832 147.912C285.577 148.443 287.474 148.899 289.447 149.43Z" fill="#4F389E"/>
<mask id="mask0_954_300508" style="mask-type:luminance" maskUnits="userSpaceOnUse" x="272" y="144" width="18" height="10">
<path d="M289.447 149.43V153.227C287.474 152.696 285.577 152.164 283.832 151.708C282.011 151.253 280.341 150.797 278.823 150.418C277.306 150.038 275.94 149.658 274.801 149.43C273.663 149.127 272.753 148.899 272.07 148.747V144.95C272.753 145.102 273.663 145.33 274.801 145.634C275.94 145.937 277.306 146.241 278.823 146.621C280.341 147 282.011 147.456 283.832 147.912C285.577 148.443 287.474 148.899 289.447 149.43Z" fill="white"/>
</mask>
<g mask="url(#mask0_954_300508)">
<path d="M289.447 149.43V153.227C287.474 152.696 285.577 152.164 283.832 151.708C282.011 151.253 280.341 150.797 278.823 150.418C277.306 150.038 275.94 149.658 274.801 149.43C273.663 149.127 272.753 148.899 272.07 148.747V144.95C272.753 145.102 273.663 145.33 274.801 145.634C275.94 145.937 277.306 146.241 278.823 146.621C280.341 147 282.011 147.456 283.832 147.912C285.577 148.443 287.474 148.899 289.447 149.43Z" fill="#CCCBF6"/>
</g>
<path d="M302.121 153.303V157.1C300.451 156.645 298.857 156.189 297.188 155.733V151.937C298.857 152.392 300.527 152.848 302.121 153.303Z" fill="#4F389E"/>
<mask id="mask1_954_300508" style="mask-type:luminance" maskUnits="userSpaceOnUse" x="297" y="151" width="6" height="7">
<path d="M302.121 153.303V157.1C300.451 156.645 298.857 156.189 297.188 155.733V151.937C298.857 152.392 300.527 152.848 302.121 153.303Z" fill="white"/>
</mask>
<g mask="url(#mask1_954_300508)">
<path d="M302.121 153.303V157.1C300.451 156.645 298.857 156.189 297.188 155.733V151.937C298.857 152.392 300.527 152.848 302.121 153.303Z" fill="#CCCBF6"/>
</g>
<path d="M306.902 154.67V158.466C305.384 158.011 303.79 157.555 302.121 157.1V153.303C303.79 153.758 305.384 154.214 306.902 154.67Z" fill="#4F389E"/>
<mask id="mask2_954_300508" style="mask-type:luminance" maskUnits="userSpaceOnUse" x="302" y="153" width="5" height="6">
<path d="M306.902 154.67V158.466C305.384 158.011 303.79 157.555 302.121 157.1V153.303C303.79 153.758 305.384 154.214 306.902 154.67Z" fill="white"/>
</mask>
<g mask="url(#mask2_954_300508)">
<path d="M306.902 154.67V158.466C305.384 158.011 303.79 157.555 302.121 157.1V153.303C303.79 153.758 305.384 154.214 306.902 154.67Z" fill="#CCCBF6"/>
</g>
<path d="M314.945 149.962V153.835L306.901 158.467V154.67L314.945 149.962Z" fill="#DDDEFA"/>
<path d="M297.188 151.86V155.733L284.212 163.251V159.454L297.188 151.86Z" fill="#DDDEFA"/>
<path d="M281.252 169.553V173.35C278.9 170.54 276.775 167.882 274.802 165.528C272.829 163.099 271.084 160.82 269.414 158.618C267.745 156.416 266.303 154.29 264.861 152.316C263.495 150.341 262.205 148.291 260.991 146.317V142.52C262.205 144.494 263.495 146.545 264.861 148.519C266.227 150.569 267.745 152.619 269.414 154.822C271.008 157.024 272.829 159.302 274.802 161.732C276.775 164.162 278.9 166.743 281.252 169.553Z" fill="#4F389E"/>
<mask id="mask3_954_300508" style="mask-type:luminance" maskUnits="userSpaceOnUse" x="260" y="142" width="22" height="32">
<path d="M281.252 169.553V173.349C278.9 170.54 276.775 167.882 274.802 165.528C272.829 163.098 271.084 160.82 269.414 158.618C267.745 156.416 266.303 154.289 264.861 152.315C263.495 150.341 262.205 148.291 260.991 146.316V142.52C262.205 144.494 263.495 146.544 264.861 148.518C266.227 150.569 267.745 152.619 269.414 154.821C271.008 157.023 272.829 159.301 274.802 161.731C276.775 164.161 278.9 166.743 281.252 169.553Z" fill="white"/>
</mask>
<g mask="url(#mask3_954_300508)">
<path d="M281.252 169.553V173.349C278.9 170.54 276.775 167.882 274.802 165.528C272.829 163.098 271.084 160.82 269.414 158.618C267.745 156.416 266.303 154.289 264.861 152.315C263.495 150.341 262.205 148.291 260.991 146.316V142.52C262.205 144.494 263.495 146.544 264.861 148.518C266.227 150.569 267.745 152.619 269.414 154.821C271.008 157.023 272.829 159.301 274.802 161.731C276.775 164.161 278.9 166.743 281.252 169.553Z" fill="#CCCBF6"/>
</g>
<path d="M288.992 165.073V168.87L281.252 173.426V169.553L288.992 165.073Z" fill="#DDDEFA"/>
<path d="M302.12 153.303C300.451 152.847 298.857 152.392 297.188 151.936L284.211 159.529C285.046 160.517 285.805 161.428 286.64 162.415C287.474 163.402 288.233 164.313 289.068 165.149L281.328 169.705C278.975 166.895 276.85 164.237 274.877 161.883C272.904 159.454 271.159 157.175 269.49 154.973C267.82 152.771 266.378 150.645 264.936 148.671C263.57 146.696 262.28 144.646 261.066 142.672L268.199 138.571C271.614 139.255 275.029 140.014 278.52 140.773C282.011 141.533 285.653 142.444 289.448 143.355C293.242 144.266 297.188 145.33 301.438 146.469C305.611 147.608 310.164 148.823 315.021 150.189L306.977 154.821C305.384 154.214 303.79 153.758 302.12 153.303ZM279.962 154.973L289.448 149.43C287.474 148.899 285.577 148.367 283.832 147.911C282.011 147.456 280.341 147 278.824 146.62C277.306 146.241 275.94 145.861 274.802 145.633C273.663 145.33 272.753 145.102 272.07 144.95C272.373 145.33 272.829 145.861 273.36 146.545C273.891 147.228 274.498 147.987 275.181 148.823C275.864 149.658 276.623 150.645 277.458 151.708C278.141 152.771 278.975 153.834 279.962 154.973Z" fill="#F8F9FC"/>
<g filter="url(#filter0_dd_954_300508)">
<path d="M293.318 305.174L66.4949 174.109L291.876 43.0449L518.775 174.109L293.318 305.174ZM72.4899 174.109L293.318 301.681L512.704 174.109L291.876 46.5379L72.4899 174.109Z" fill="#4F389E"/>
</g>
<path d="M101.63 192.638L84.8592 202.357C84.6316 202.509 84.328 202.509 84.1004 202.357L66.8743 192.41L11.0223 224.683L5.78613 227.72C5.63436 227.796 5.55847 227.796 5.4067 227.796C5.10315 227.796 4.8755 227.644 4.72372 227.416C4.49607 227.037 4.64784 226.581 5.02727 226.353L9.42865 223.847L66.4948 190.891C66.7225 190.739 67.026 190.739 67.2537 190.891L84.4798 200.839L100.036 191.802L101.63 192.638Z" fill="#4F389E"/>
<path d="M236.935 269.256L234.279 270.775L219.026 279.583C218.798 279.735 218.494 279.735 218.267 279.583L201.041 269.636L179.337 282.165L177.744 283.076L144.733 302.136L139.953 304.87C139.801 304.946 139.725 304.946 139.573 304.946C139.27 304.946 139.042 304.794 138.89 304.566C138.663 304.186 138.814 303.731 139.194 303.503L143.443 301.073L176.15 282.165L177.744 281.254L200.661 268.041C200.889 267.889 201.192 267.889 201.42 268.041L218.646 277.989L232.685 269.864L235.341 268.345L236.935 269.256Z" fill="#4F389E"/>
<path d="M184.725 239.11L182.069 240.629L167.196 249.209C166.968 249.361 166.664 249.361 166.437 249.209L149.211 239.262L127.052 252.019L125.458 252.93L93.738 271.231L88.1225 274.496C87.9707 274.572 87.8948 274.572 87.7431 274.572C87.4395 274.572 87.2119 274.42 87.0601 274.192C86.8324 273.812 86.9842 273.357 87.3636 273.129L92.5239 270.168L123.941 252.019L125.534 251.108L148.831 237.667C149.059 237.515 149.362 237.515 149.59 237.667L166.816 247.615L180.476 239.717L183.132 238.199L184.725 239.11Z" fill="#4F389E"/>
<path d="M143.064 215.039L140.408 216.557L84.3279 248.982L80.0783 251.412C79.9265 251.488 79.8506 251.488 79.6989 251.488C79.3953 251.488 79.1677 251.336 79.0159 251.108C78.7882 250.728 78.94 250.273 79.3194 250.045L82.8102 247.995L138.814 215.646L141.47 214.127L143.064 215.039Z" fill="#4F389E"/>
<path d="M256.134 280.344L253.478 281.863L198.157 313.832L193.907 316.337C193.756 316.413 193.68 316.413 193.528 316.413C193.224 316.413 192.997 316.262 192.845 316.034C192.617 315.654 192.769 315.198 193.149 314.971L196.639 312.996L251.96 281.028L254.616 279.509L256.134 280.344Z" fill="#4F389E"/>
<path d="M202.559 249.437L199.903 250.956L162.567 272.521L160.973 273.432L144.05 283.228L139.649 285.81C139.497 285.886 139.421 285.886 139.27 285.886C138.966 285.886 138.738 285.734 138.587 285.506C138.359 285.127 138.511 284.671 138.89 284.443L142.533 282.317L159.379 272.597L160.973 271.686L198.309 250.12L200.965 248.602L202.559 249.437Z" fill="#4F389E"/>
<path d="M201.724 295.227L180.779 307.301L174.936 310.718L174.177 309.351L179.413 306.313L198.536 295.227L177.668 283.153L176.15 282.242L160.973 273.509L159.379 272.598L125.534 253.007L123.941 252.096L110.129 244.122L148.831 221.494L151.487 219.899L153.005 220.81L150.425 222.405L113.317 244.122L125.534 251.184L127.128 252.096L160.973 271.611L162.567 272.598L177.668 281.331L179.261 282.242L201.724 295.227Z" fill="#4F389E"/>
<path d="M10.3395 224.227C12.6919 225.594 12.6919 227.796 10.3395 229.163C7.98699 230.529 4.11681 230.529 1.76435 229.163C-0.588116 227.796 -0.588116 225.594 1.76435 224.227C4.1927 222.86 7.98699 222.86 10.3395 224.227Z" fill="#4F389E"/>
<path d="M114.455 221.872C114.455 222.176 114.304 222.404 114.076 222.555L66.0402 250.272L61.6388 252.778C61.487 252.93 61.3353 252.93 61.1835 252.93C60.88 252.93 60.6523 252.778 60.5005 252.55C60.3488 252.17 60.4246 251.715 60.8041 251.487L64.4466 249.361L112.103 221.872L94.4215 211.621C94.1939 211.469 94.0421 211.241 94.0421 210.937C94.0421 210.634 94.1939 210.406 94.4215 210.254L111.951 200.154L114.607 198.636L116.201 199.547L113.545 201.066L96.4704 210.937L114.152 221.189C114.38 221.264 114.455 221.568 114.455 221.872Z" fill="#4F389E"/>
<path d="M65.2049 249.741C67.5574 251.108 67.5574 253.31 65.2049 254.677C62.8525 256.044 58.9823 256.044 56.6298 254.677C54.2774 253.31 54.2774 251.108 56.6298 249.741C58.9823 248.374 62.8525 248.374 65.2049 249.741Z" fill="#4F389E"/>
<path d="M266.454 308.59C266.454 308.894 266.303 309.122 266.075 309.274L219.253 336.307L213.562 339.572C213.41 339.648 213.334 339.648 213.183 339.648C212.879 339.648 212.651 339.496 212.5 339.268C212.272 338.889 212.424 338.433 212.803 338.205L217.736 335.396L264.102 308.59L246.421 298.339C246.193 298.187 246.041 297.959 246.041 297.656C246.041 297.352 246.193 297.124 246.421 296.972L262.964 287.404L265.62 285.886L267.213 286.797L264.557 288.316L248.394 297.656L266.075 307.907C266.303 307.983 266.454 308.287 266.454 308.59Z" fill="#4F389E"/>
<path d="M214.093 341.622C217.446 341.622 220.164 340.058 220.164 338.129C220.164 336.2 217.446 334.636 214.093 334.636C210.74 334.636 208.022 336.2 208.022 338.129C208.022 340.058 210.74 341.622 214.093 341.622Z" fill="#4F389E"/>
<path d="M83.4176 248.374C85.77 249.741 85.77 251.943 83.4176 253.31C81.0651 254.677 77.1949 254.677 74.8425 253.31C72.49 251.943 72.49 249.741 74.8425 248.374C77.1949 247.007 81.0651 247.007 83.4176 248.374Z" fill="#4F389E"/>
<path d="M92.5238 270.168C94.8762 271.535 94.8762 273.737 92.5238 275.103C90.1713 276.47 86.3011 276.47 83.9487 275.103C81.5962 273.737 81.5962 271.535 83.9487 270.168C86.3011 268.801 90.1713 268.801 92.5238 270.168Z" fill="#4F389E"/>
<path d="M143.216 282.697C145.568 284.064 145.568 286.266 143.216 287.633C140.863 289 136.993 289 134.641 287.633C132.288 286.266 132.288 284.064 134.641 282.697C137.069 281.331 140.863 281.331 143.216 282.697Z" fill="#4F389E"/>
<path d="M139.194 307.148C142.547 307.148 145.265 305.584 145.265 303.655C145.265 301.726 142.547 300.162 139.194 300.162C135.841 300.162 133.123 301.726 133.123 303.655C133.123 305.584 135.841 307.148 139.194 307.148Z" fill="#4F389E"/>
<path d="M175.391 312.387C178.744 312.387 181.462 310.824 181.462 308.894C181.462 306.965 178.744 305.401 175.391 305.401C172.038 305.401 169.32 306.965 169.32 308.894C169.32 310.824 172.038 312.387 175.391 312.387Z" fill="#4F389E"/>
<path d="M197.474 313.375C199.827 314.742 199.827 316.944 197.474 318.311C195.122 319.678 191.252 319.678 188.899 318.311C186.547 316.944 186.547 314.742 188.899 313.375C191.252 312.008 195.122 312.008 197.474 313.375Z" fill="#4F389E"/>
<path d="M531.221 247.464C531.069 247.692 530.841 247.844 530.538 247.844C530.386 247.844 530.234 247.844 530.158 247.768L525.302 244.958L477.645 217.393C477.418 217.242 477.266 217.014 477.266 216.71C477.266 216.406 477.418 216.179 477.645 216.027L495.327 205.775L479.467 196.587L476.811 195.068L478.404 194.157L481.06 195.676L497.3 205.092C497.527 205.244 497.679 205.472 497.679 205.775C497.679 206.079 497.527 206.307 497.3 206.459L479.618 216.71L527.047 244.123L530.917 246.325C531.297 246.629 531.448 247.084 531.221 247.464Z" fill="#4F389E"/>
<path d="M366.7 342.84C366.549 343.067 366.321 343.219 366.017 343.219C365.866 343.219 365.714 343.219 365.638 343.143L360.933 340.41L313.125 312.769C312.897 312.617 312.746 312.39 312.746 312.086C312.746 311.782 312.897 311.554 313.125 311.402L330.806 301.151L315.25 292.191L312.594 290.672L314.187 289.761L316.843 291.279L332.779 300.468C333.007 300.62 333.159 300.847 333.159 301.151C333.159 301.455 333.007 301.683 332.779 301.835L315.098 312.086L362.754 339.65L366.397 341.777C366.776 341.928 366.852 342.384 366.7 342.84Z" fill="#4F389E"/>
<path d="M447.823 291.584C447.671 291.812 447.367 291.963 447.14 291.963C446.988 291.963 446.836 291.963 446.76 291.888L442.359 289.382L406.161 268.499C405.934 268.348 405.782 268.12 405.782 267.816C405.782 267.512 405.934 267.284 406.161 267.133L419.593 259.387L407.527 252.249L405.934 251.338L395.841 245.339L393.261 243.82L394.854 242.909L397.51 244.428L407.603 250.427L409.197 251.338L421.642 258.704C421.87 258.856 422.022 259.083 422.022 259.387C422.022 259.691 421.87 259.919 421.642 260.071L408.21 267.816L444.56 288.774L447.595 290.521C447.899 290.749 448.05 291.204 447.823 291.584Z" fill="#4F389E"/>
<path d="M513.463 289.532C513.312 289.759 513.084 289.911 512.78 289.911C512.629 289.911 512.477 289.911 512.401 289.835L507.696 287.102L441.751 248.982C441.524 248.83 441.372 248.602 441.372 248.299C441.372 247.995 441.524 247.767 441.751 247.615L465.959 233.643L440.841 219.139L438.185 217.621L439.778 216.709L442.434 218.228L467.932 232.96C468.159 233.112 468.311 233.339 468.311 233.643C468.311 233.947 468.159 234.175 467.932 234.326L443.724 248.299L509.517 286.342L513.16 288.468C513.615 288.62 513.691 289.152 513.463 289.532Z" fill="#4F389E"/>
<path d="M442.738 309.429C442.587 309.656 442.359 309.808 442.055 309.808C441.904 309.808 441.752 309.808 441.676 309.732L437.654 307.378L390.984 280.421L365.259 295.305C365.031 295.456 364.728 295.456 364.5 295.305L337.181 279.51L334.525 277.991L336.119 277.08L338.775 278.599L364.955 293.71L390.681 278.827C390.908 278.675 391.212 278.675 391.44 278.827L439.324 306.467L442.511 308.365C442.814 308.517 442.966 309.049 442.738 309.429Z" fill="#4F389E"/>
<path d="M512.78 246.098C512.628 246.325 512.401 246.477 512.097 246.477C511.945 246.477 511.794 246.477 511.718 246.401L507.165 243.744L452.678 212.306L450.022 210.788L451.616 209.876L454.272 211.395L508.91 242.908L512.552 245.035C512.856 245.186 513.008 245.718 512.78 246.098Z" fill="#4F389E"/>
<path d="M554.897 221.419C554.745 221.647 554.442 221.798 554.214 221.798C554.062 221.798 553.91 221.722 553.834 221.722L548.826 218.837L494.947 187.703L492.291 186.185L493.885 185.273L496.541 186.792L550.344 217.85L554.593 220.28C554.973 220.507 555.125 221.039 554.897 221.419Z" fill="#4F389E"/>
<path d="M463.834 273.965C463.683 274.193 463.379 274.345 463.151 274.345C463 274.345 462.848 274.345 462.772 274.269L457.839 271.459L416.102 247.312L414.509 246.401L404.264 240.478L401.608 238.959L403.202 238.048L405.858 239.567L416.102 245.49L417.696 246.401L459.281 270.396L463.531 272.902C463.91 273.054 464.062 273.586 463.834 273.965Z" fill="#4F389E"/>
<path d="M384.837 320.059C384.685 320.287 384.458 320.438 384.154 320.438C384.002 320.438 383.85 320.439 383.775 320.363L379.221 317.705L325.191 286.495L322.535 284.977L324.128 284.065L326.784 285.584L380.967 316.87L384.609 318.996C384.913 319.224 385.065 319.679 384.837 320.059Z" fill="#4F389E"/>
<path d="M443.117 231.67L417.695 246.402L416.102 247.313L409.12 251.337L407.527 252.249L375.579 270.701L370.798 273.435L370.039 272.068L374.289 269.562L405.933 251.337L407.527 250.426L414.508 246.402L416.102 245.414L439.93 231.67L429.61 225.671L426.953 224.152L428.547 223.241L431.203 224.76L443.117 231.67Z" fill="#4F389E"/>
<path d="M369.584 340.333C371.936 341.7 371.936 343.902 369.584 345.269C367.231 346.635 363.361 346.635 361.009 345.269C358.656 343.902 358.656 341.7 361.009 340.333C363.361 338.966 367.231 338.966 369.584 340.333Z" fill="#4F389E"/>
<path d="M388.176 317.4C390.528 318.767 390.528 320.969 388.176 322.336C385.823 323.703 381.953 323.703 379.601 322.336C377.248 320.969 377.248 318.767 379.601 317.4C382.029 316.033 385.823 316.033 388.176 317.4Z" fill="#4F389E"/>
<path d="M374.364 269.638C376.717 271.005 376.717 273.207 374.364 274.574C372.012 275.941 368.142 275.941 365.789 274.574C363.437 273.207 363.437 271.005 365.789 269.638C368.142 268.272 372.012 268.272 374.364 269.638Z" fill="#4F389E"/>
<path d="M442.586 312.844C445.939 312.844 448.657 311.28 448.657 309.351C448.657 307.422 445.939 305.858 442.586 305.858C439.234 305.858 436.516 307.422 436.516 309.351C436.516 311.28 439.234 312.844 442.586 312.844Z" fill="#4F389E"/>
<path d="M445.925 295.684C449.278 295.684 451.996 294.12 451.996 292.191C451.996 290.262 449.278 288.698 445.925 288.698C442.572 288.698 439.854 290.262 439.854 292.191C439.854 294.12 442.572 295.684 445.925 295.684Z" fill="#4F389E"/>
<path d="M467.4 270.625C469.753 271.992 469.753 274.194 467.4 275.561C465.048 276.927 461.178 276.927 458.825 275.561C456.473 274.194 456.473 271.992 458.825 270.625C461.254 269.258 465.048 269.258 467.4 270.625Z" fill="#4F389E"/>
<path d="M516.423 287.026C518.775 288.392 518.775 290.595 516.423 291.961C514.071 293.328 510.2 293.328 507.848 291.961C505.495 290.595 505.495 288.392 507.848 287.026C510.276 285.659 514.071 285.659 516.423 287.026Z" fill="#4F389E"/>
<path d="M516.195 243.439C518.548 244.806 518.548 247.008 516.195 248.375C513.843 249.742 509.973 249.742 507.62 248.375C505.268 247.008 505.268 244.806 507.62 243.439C509.973 242.072 513.843 242.072 516.195 243.439Z" fill="#4F389E"/>
<path d="M534.181 244.807C536.533 246.174 536.533 248.376 534.181 249.743C531.828 251.11 527.958 251.11 525.606 249.743C523.253 248.376 523.253 246.174 525.606 244.807C527.958 243.441 531.828 243.441 534.181 244.807Z" fill="#4F389E"/>
<path d="M558.236 218.23C560.588 219.597 560.588 221.799 558.236 223.166C555.883 224.533 552.013 224.533 549.661 223.166C547.308 221.799 547.308 219.597 549.661 218.23C552.013 216.863 555.883 216.863 558.236 218.23Z" fill="#4F389E"/>
<path d="M234.582 26.9464C234.582 27.2502 234.43 27.478 234.202 27.6298L221.605 35.1474L220.087 36.1346L204.303 45.6265L202.71 46.5377L187.912 55.4222L229.573 79.4937L232.229 81.0124L230.636 81.9237L227.98 80.405L186.015 56.1056C185.787 55.9537 185.635 55.7259 185.635 55.4222C185.635 55.1185 185.787 54.8906 186.015 54.7388L201.192 45.6265L202.785 44.7153L218.57 35.2234L220.163 34.3122L232.381 27.0223L209.008 13.5058L204.91 11.2278C204.531 11 204.379 10.5444 204.607 10.1647C204.834 9.785 205.29 9.63314 205.669 9.86094L210.374 12.5946L234.202 26.3389C234.43 26.4148 234.582 26.7186 234.582 26.9464Z" fill="#4F389E"/>
<path d="M92.2961 160.822L51.3937 137.206L69.0751 126.954C69.3027 126.802 69.4545 126.575 69.4545 126.271C69.4545 125.967 69.3027 125.739 69.0751 125.587L45.0951 111.691L40.6179 109.109C40.2384 108.882 39.7831 109.034 39.5555 109.413C39.3278 109.793 39.4796 110.249 39.859 110.476L43.2739 112.451L67.1779 126.271L49.4965 136.522C49.2688 136.674 49.1171 136.902 49.1171 137.206C49.1171 137.509 49.2688 137.737 49.4965 137.889L90.7784 161.733L92.2961 160.822Z" fill="#4F389E"/>
<path d="M175.467 113.969L173.874 114.881L171.218 113.362L142.76 96.9598C142.533 96.808 142.381 96.5802 142.381 96.2764C142.381 95.9727 142.533 95.7449 142.76 95.593L156.192 87.8476L123.41 68.56L120.298 66.7376C119.919 66.5097 119.767 66.0541 119.995 65.6744C120.222 65.2948 120.678 65.1429 121.057 65.3707L125.003 67.7247L158.165 87.2401C158.393 87.392 158.545 87.6198 158.545 87.9235C158.545 88.2272 158.393 88.4551 158.165 88.6069L144.733 96.3523L172.735 112.527L175.467 113.969Z" fill="#4F389E"/>
<path d="M210.982 93.315L209.388 94.2262L206.808 92.7075L162.566 67.1932C162.339 67.0413 162.187 66.8135 162.187 66.5098C162.187 66.2061 162.339 65.9782 162.566 65.8264L182.069 54.512L157.254 40.1602L152.018 37.1228C151.639 36.895 151.487 36.4394 151.715 36.0597C151.942 35.68 152.398 35.5282 152.777 35.756L158.772 39.249L184.042 53.8286C184.27 53.9805 184.421 54.2083 184.421 54.512C184.421 54.8158 184.27 55.0436 184.042 55.1954L164.539 66.5098L208.401 91.7963L210.982 93.315Z" fill="#4F389E"/>
<path d="M155.433 125.586L153.839 126.498L151.183 124.979L122.347 108.273L101.706 120.195C101.478 120.347 101.175 120.347 100.947 120.195L72.945 104.097L69.5301 102.122C69.1507 101.895 68.9989 101.439 69.2266 101.059C69.4543 100.68 69.9096 100.528 70.289 100.755L74.3868 103.109L101.25 118.6L121.891 106.678C122.119 106.527 122.423 106.527 122.65 106.678L152.701 124.068L155.433 125.586Z" fill="#4F389E"/>
<path d="M248.772 71.3695L247.179 72.2808L244.523 70.7621L202.634 46.6146L201.116 45.6274L188.14 38.1098L184.801 36.1355C184.421 35.9077 184.269 35.4521 184.497 35.0724C184.725 34.6927 185.18 34.5408 185.56 34.7687L189.885 37.2745L202.634 44.6403L204.227 45.5515L246.116 69.7749L248.772 71.3695Z" fill="#4F389E"/>
<path d="M266.454 61.042L264.861 61.9532L262.205 60.4345L220.088 36.1352L218.495 35.2239L169.776 7.05189L167.272 5.60913C166.892 5.38132 166.74 4.9257 166.968 4.54602C167.196 4.16635 167.651 4.01448 168.03 4.24229L171.749 6.36847L220.088 34.2368L221.682 35.148L263.874 59.5233L266.454 61.042Z" fill="#4F389E"/>
<path d="M202.407 98.3268L200.813 99.238L198.157 97.7193L142.305 65.4467L138.587 63.3206C138.208 63.0927 138.056 62.6371 138.283 62.2575C138.511 61.8778 138.966 61.7259 139.346 61.9537L144.051 64.6874L199.751 96.884L202.407 98.3268Z" fill="#4F389E"/>
<path d="M123.865 143.964L122.271 144.875L119.615 143.356L94.6489 128.929L88.6539 125.511C88.2745 125.284 88.1227 124.828 88.3504 124.448C88.578 124.069 89.0333 123.917 89.4128 124.145L96.2425 128.093L121.133 142.445L123.865 143.964Z" fill="#4F389E"/>
<path d="M44.9432 106.832C47.2957 108.199 47.2957 110.401 44.9432 111.768C42.5908 113.134 38.7206 113.134 36.3681 111.768C34.0156 110.401 34.0156 108.199 36.3681 106.832C38.7965 105.465 42.5908 105.465 44.9432 106.832Z" fill="#4F389E"/>
<path d="M91.5377 129.461C94.8905 129.461 97.6085 127.897 97.6085 125.968C97.6085 124.039 94.8905 122.475 91.5377 122.475C88.1848 122.475 85.4668 124.039 85.4668 125.968C85.4668 127.897 88.1848 129.461 91.5377 129.461Z" fill="#4F389E"/>
<path d="M69.1507 104.857C72.5035 104.857 75.2216 103.293 75.2216 101.364C75.2216 99.435 72.5035 97.8711 69.1507 97.8711C65.7978 97.8711 63.0798 99.435 63.0798 101.364C63.0798 103.293 65.7978 104.857 69.1507 104.857Z" fill="#4F389E"/>
<path d="M124.547 63.0168C126.9 64.3837 126.9 66.5858 124.547 67.9526C122.195 69.3195 118.325 69.3195 115.972 67.9526C113.62 66.5858 113.62 64.3837 115.972 63.0168C118.325 61.65 122.119 61.65 124.547 63.0168Z" fill="#4F389E"/>
<path d="M82.8866 87.1633C85.239 88.5301 85.239 90.7323 82.8866 92.0991C80.5341 93.4659 76.6639 93.4659 74.3115 92.0991C71.959 90.7323 71.959 88.5301 74.3115 87.1633C76.6639 85.7965 80.4582 85.7965 82.8866 87.1633Z" fill="#4F389E"/>
<path d="M165.906 119.513L164.312 120.424L161.656 118.905L95.4835 80.7095L83.4935 87.6197L78.9404 90.2014C78.5609 90.4293 78.1056 90.2774 77.878 89.8977C77.6503 89.518 77.8021 89.0624 78.1815 88.8346L81.8999 86.7084L95.1041 79.1149C95.3317 78.963 95.6353 78.963 95.8629 79.1149L163.174 117.994L165.906 119.513Z" fill="#4F389E"/>
<path d="M276.471 55.2709L274.877 56.1821L272.221 54.6634L243.461 38.0336C243.233 37.8817 243.081 37.6539 243.081 37.3501C243.081 37.0464 243.233 36.8186 243.461 36.6667L256.892 28.9213L224.11 9.63372L220.998 7.81127C220.619 7.58347 220.467 7.12786 220.695 6.74818C220.923 6.36851 221.378 6.21663 221.757 6.44443L225.703 8.79844L258.865 28.3138C259.093 28.4657 259.245 28.6935 259.245 28.9973C259.245 29.301 259.093 29.5288 258.865 29.6807L245.434 37.4261L273.815 53.8281L276.471 55.2709Z" fill="#4F389E"/>
<path d="M220.922 10.0906C224.275 10.0906 226.993 8.52666 226.993 6.59751C226.993 4.66837 224.275 3.10449 220.922 3.10449C217.569 3.10449 214.851 4.66837 214.851 6.59751C214.851 8.52666 217.569 10.0906 220.922 10.0906Z" fill="#4F389E"/>
<path d="M139.346 65.8259C142.699 65.8259 145.417 64.262 145.417 62.3329C145.417 60.4037 142.699 58.8398 139.346 58.8398C135.993 58.8398 133.275 60.4037 133.275 62.3329C133.275 64.262 135.993 65.8259 139.346 65.8259Z" fill="#4F389E"/>
<path d="M157.938 34.8445C160.29 36.2113 160.29 38.4134 157.938 39.7802C155.585 41.1471 151.715 41.1471 149.363 39.7802C147.01 38.4134 147.01 36.2113 149.363 34.8445C151.791 33.4776 155.585 33.4776 157.938 34.8445Z" fill="#4F389E"/>
<path d="M167.651 7.28C171.004 7.28 173.722 5.71613 173.722 3.78698C173.722 1.85784 171.004 0.293945 167.651 0.293945C164.298 0.293945 161.58 1.85784 161.58 3.78698C161.58 5.71613 164.298 7.28 167.651 7.28Z" fill="#4F389E"/>
<path d="M209.54 8.19163C211.892 9.55847 211.892 11.7606 209.54 13.1274C207.187 14.4943 203.317 14.4943 200.965 13.1274C198.612 11.7606 198.612 9.55847 200.965 8.19163C203.317 6.82479 207.187 6.82479 209.54 8.19163Z" fill="#4F389E"/>
<path d="M189.658 32.5661C192.01 33.933 192.01 36.1351 189.658 37.5019C187.305 38.8688 183.435 38.8688 181.083 37.5019C178.73 36.1351 178.73 33.933 181.083 32.5661C183.435 31.1993 187.229 31.1993 189.658 32.5661Z" fill="#4F389E"/>
<path d="M502.232 118.146C502.232 118.45 502.081 118.677 501.853 118.829L462.316 141.686L459.66 143.205L458.067 142.293L460.723 140.775L499.88 118.146L463.986 96.6561L462.392 95.7449L453.514 90.4294C453.286 90.2775 453.134 90.0497 453.134 89.746C453.134 89.4422 453.286 89.2144 453.514 89.0626L477.342 75.3183L482.047 72.5846C482.426 72.3568 482.882 72.5086 483.109 72.8883C483.337 73.268 483.185 73.7236 482.806 73.9514L478.86 76.2295L455.487 89.746L463.91 94.8337L465.504 95.7449L501.777 117.538C502.081 117.614 502.232 117.918 502.232 118.146Z" fill="#4F389E"/>
<path d="M464.365 68.0298L461.254 69.8522L428.471 89.1398L441.903 96.8852C442.131 97.0371 442.282 97.2649 442.282 97.5687C442.282 97.8724 442.131 98.1002 441.903 98.2521L414.584 114.047L411.928 115.565L410.334 114.654L412.99 113.135L439.93 97.5687L426.498 89.8232C426.271 89.6714 426.119 89.4436 426.119 89.1398C426.119 88.8361 426.271 88.6083 426.498 88.4564L459.66 68.941L463.606 66.587C463.986 66.3592 464.441 66.5111 464.669 66.8907C464.896 67.3464 464.745 67.802 464.365 68.0298Z" fill="#4F389E"/>
<path d="M430.444 33.5547L425.359 36.5161L399.71 51.3235L419.668 62.8657C419.896 63.0176 420.047 63.2454 420.047 63.5492C420.047 63.8529 419.896 64.0807 419.668 64.2326L373.909 90.6581L371.253 92.1768L369.659 91.2656L372.315 89.7469L417.619 63.5492L397.661 52.007C397.433 51.8551 397.282 51.6273 397.282 51.3235C397.282 51.0198 397.433 50.792 397.661 50.6401L423.842 35.529L429.533 32.2638C429.913 32.036 430.368 32.1878 430.596 32.5675C430.975 32.8713 430.823 33.3269 430.444 33.5547Z" fill="#4F389E"/>
<path d="M544.88 133.865L541.465 135.84L518.395 149.128C518.168 149.28 517.864 149.28 517.637 149.128L500.259 139.105L479.087 151.331L476.431 152.849L474.837 151.938L477.493 150.419L499.879 137.51C500.107 137.359 500.41 137.359 500.638 137.51L518.016 147.534L539.719 135.004L544.045 132.499C544.424 132.271 544.88 132.423 545.107 132.802C545.411 133.182 545.259 133.638 544.88 133.865Z" fill="#4F389E"/>
<path d="M398.268 37.8818L394.929 39.8561L340.443 71.3693L337.787 72.888L336.194 71.9768L338.85 70.4581L393.108 39.0968L397.434 36.5909C397.813 36.3631 398.268 36.515 398.496 36.8947C398.799 37.1225 398.648 37.654 398.268 37.8818Z" fill="#4F389E"/>
<path d="M417.468 6.97728L414.963 8.42006L323.293 61.347L320.637 62.8658L319.044 61.9545L321.7 60.4358L412.99 7.73664L416.709 5.61045C417.088 5.38265 417.544 5.53451 417.771 5.91419C417.999 6.29387 417.847 6.82541 417.468 6.97728Z" fill="#4F389E"/>
<path d="M446.076 64.6113L442.358 66.7375L387.568 98.4026L384.912 99.9213L383.319 99.0101L385.975 97.4914L440.613 65.9022L445.318 63.1686C445.697 62.9407 446.152 63.0926 446.38 63.4723C446.608 63.9279 446.456 64.4594 446.076 64.6113Z" fill="#4F389E"/>
<path d="M386.658 63.929L380.663 67.346L357.138 80.9385L354.482 82.4572L352.889 81.546L355.545 80.0273L378.993 66.5108L385.823 62.5621C386.203 62.3343 386.658 62.4862 386.886 62.8659C387.189 63.2455 387.037 63.7011 386.658 63.929Z" fill="#4F389E"/>
<path d="M383.926 67.8767C387.279 67.8767 389.997 66.3128 389.997 64.3836C389.997 62.4545 387.279 60.8906 383.926 60.8906C380.573 60.8906 377.855 62.4545 377.855 64.3836C377.855 66.3128 380.573 67.8767 383.926 67.8767Z" fill="#4F389E"/>
<path d="M540.099 130.297C537.747 131.663 537.747 133.866 540.099 135.232C542.452 136.599 546.322 136.599 548.674 135.232C551.027 133.866 551.027 131.663 548.674 130.297C546.322 128.93 542.452 128.93 540.099 130.297Z" fill="#4F389E"/>
<path d="M460.115 64.3845C457.763 65.7513 457.763 67.9535 460.115 69.3203C462.468 70.6871 466.338 70.6871 468.691 69.3203C471.043 67.9535 471.043 65.7513 468.691 64.3845C466.338 63.0177 462.468 63.0177 460.115 64.3845Z" fill="#4F389E"/>
<path d="M501.777 88.532C499.424 89.8988 499.424 92.1009 501.777 93.4677C504.129 94.8346 507.999 94.8346 510.352 93.4677C512.704 92.1009 512.704 89.8988 510.352 88.532C507.999 87.1651 504.205 87.1651 501.777 88.532Z" fill="#4F389E"/>
<path d="M506.709 91.3403C506.482 91.72 506.026 91.8719 505.647 91.6441L501.094 89.0623L489.104 82.1521L465.503 95.8205L463.91 96.7317L424.146 119.74L421.49 121.259L419.896 120.348L422.552 118.829L462.392 95.8205L463.986 94.9093L488.725 80.6334C488.952 80.4816 489.256 80.4816 489.483 80.6334L502.687 88.227L506.406 90.3532C506.785 90.4291 506.937 90.9606 506.709 91.3403Z" fill="#4F389E"/>
<path d="M363.74 9.17969L360.629 11.0021L327.77 30.2897L341.202 38.0351C341.43 38.187 341.582 38.4148 341.582 38.7186C341.582 39.0223 341.43 39.2501 341.202 39.402L313.276 55.5762L310.62 57.095L300.679 62.866C300.527 62.942 300.451 62.942 300.3 62.942C299.996 62.942 299.768 62.7901 299.617 62.5623C299.389 62.1826 299.541 61.727 299.92 61.4992L309.102 56.1837L311.758 54.665L339.305 38.7186L325.873 30.9731C325.646 30.8213 325.494 30.5935 325.494 30.2897C325.494 29.986 325.646 29.7582 325.873 29.6063L359.035 10.0909L362.981 7.73692C363.361 7.50911 363.816 7.66099 364.044 8.04066C364.196 8.42034 364.12 8.95189 363.74 9.17969Z" fill="#4F389E"/>
<path d="M359.49 5.53441C357.138 6.90124 357.138 9.10337 359.49 10.4702C361.843 11.837 365.713 11.837 368.066 10.4702C370.418 9.10337 370.418 6.90124 368.066 5.53441C365.713 4.16757 361.843 4.16757 359.49 5.53441Z" fill="#4F389E"/>
<path d="M440.992 61.2702C438.64 62.6371 438.64 64.8392 440.992 66.206C443.345 67.5729 447.215 67.5729 449.567 66.206C451.92 64.8392 451.92 62.6371 449.567 61.2702C447.215 59.9034 443.345 59.9034 440.992 61.2702Z" fill="#4F389E"/>
<path d="M429.382 37.4265C432.735 37.4265 435.453 35.8626 435.453 33.9335C435.453 32.0043 432.735 30.4404 429.382 30.4404C426.029 30.4404 423.311 32.0043 423.311 33.9335C423.311 35.8626 426.029 37.4265 429.382 37.4265Z" fill="#4F389E"/>
<path d="M412.763 2.72435C410.41 4.09118 410.41 6.29331 412.763 7.66015C415.115 9.02698 418.985 9.02698 421.338 7.66015C423.69 6.29331 423.69 4.09118 421.338 2.72435C418.985 1.35751 415.115 1.35751 412.763 2.72435Z" fill="#4F389E"/>
<path d="M482.502 76.9138C485.855 76.9138 488.573 75.3499 488.573 73.4208C488.573 71.4916 485.855 69.9277 482.502 69.9277C479.149 69.9277 476.431 71.4916 476.431 73.4208C476.431 75.3499 479.149 76.9138 482.502 76.9138Z" fill="#4F389E"/>
<path d="M393.411 34.237C391.059 35.6039 391.059 37.806 393.411 39.1729C395.764 40.5397 399.634 40.5397 401.986 39.1729C404.339 37.806 404.339 35.6039 401.986 34.237C399.634 32.8702 395.764 32.8702 393.411 34.237Z" fill="#4F389E"/>
<defs>
<filter id="filter0_dd_954_300508" x="40.4949" y="17.0449" width="504.28" height="314.129" filterUnits="userSpaceOnUse" color-interpolation-filters="sRGB">
<feFlood flood-opacity="0" result="BackgroundImageFix"/>
<feColorMatrix in="SourceAlpha" type="matrix" values="0 0 0 0 0 0 0 0 0 0 0 0 0 0 0 0 0 0 127 0" result="hardAlpha"/>
<feOffset dx="2" dy="2"/>
<feGaussianBlur stdDeviation="12"/>
<feComposite in2="hardAlpha" operator="out"/>
<feColorMatrix type="matrix" values="0 0 0 0 0.572549 0 0 0 0 0 0 0 0 0 1 0 0 0 0.5 0"/>
<feBlend mode="normal" in2="BackgroundImageFix" result="effect1_dropShadow_954_300508"/>
<feColorMatrix in="SourceAlpha" type="matrix" values="0 0 0 0 0 0 0 0 0 0 0 0 0 0 0 0 0 0 127 0" result="hardAlpha"/>
<feOffset dx="-2" dy="-2"/>
<feGaussianBlur stdDeviation="12"/>
<feComposite in2="hardAlpha" operator="out"/>
<feColorMatrix type="matrix" values="0 0 0 0 0.34902 0 0 0 0 0.0431373 0 0 0 0 1 0 0 0 0.5 0"/>
<feBlend mode="normal" in2="effect1_dropShadow_954_300508" result="effect2_dropShadow_954_300508"/>
<feBlend mode="normal" in="SourceGraphic" in2="effect2_dropShadow_954_300508" result="shape"/>
</filter>
</defs>
</svg>
