<svg width="63" height="63" viewBox="0 0 63 63" fill="none" xmlns="http://www.w3.org/2000/svg">
<g clip-path="url(#clip0_954_300451)">
<path d="M47.7242 0.372437H14.6881C6.63868 0.372437 0.113342 6.89777 0.113342 14.9472V47.9833C0.113342 56.0327 6.63868 62.558 14.6881 62.558H47.7242C55.7736 62.558 62.2989 56.0327 62.2989 47.9833V14.9472C62.2989 6.89777 55.7736 0.372437 47.7242 0.372437Z" fill="#0073AA"/>
<path d="M10.3676 31.4637C10.3676 39.7118 15.1609 46.8398 22.1116 50.2178L12.1717 22.9834C10.9801 25.6517 10.3653 28.5415 10.3676 31.4637ZM45.2726 30.4122C45.2726 27.8371 44.3476 26.0536 43.5542 24.6653C42.4978 22.9489 41.5077 21.4953 41.5077 19.7789C41.5077 17.8633 42.9606 16.0803 45.0069 16.0803C45.0994 16.0803 45.1869 16.0918 45.277 16.0969C41.5697 12.7005 36.6305 10.6267 31.2053 10.6267C23.9257 10.6267 17.5208 14.3617 13.7951 20.0192C14.2838 20.0337 14.7446 20.0442 15.1359 20.0442C17.3156 20.0442 20.6894 19.7794 20.6894 19.7794C21.8126 19.7133 21.9452 21.3632 20.823 21.4961C20.823 21.4961 19.6942 21.6289 18.4381 21.6948L26.0262 44.2657L30.5864 30.589L27.3398 21.694C26.2178 21.6282 25.1548 21.4953 25.1548 21.4953C24.0319 21.4295 24.1635 19.7126 25.2865 19.7789C25.2865 19.7789 28.7276 20.0432 30.7751 20.0432C32.9545 20.0432 36.3286 19.7789 36.3286 19.7789C37.4528 19.7126 37.5847 21.3625 36.4622 21.4953C36.4622 21.4953 35.3309 21.6282 34.0773 21.694L41.6078 44.094L43.6861 37.1486C44.5871 34.2662 45.2726 32.1961 45.2726 30.4122Z" fill="white"/>
<path d="M31.5713 33.2865L25.3192 51.454C27.2307 52.017 29.213 52.3029 31.2057 52.3029C33.5625 52.3038 35.9023 51.9044 38.1253 51.1217C38.0674 51.0305 38.0179 50.9345 37.9771 50.8345L31.5713 33.2865ZM49.4899 21.4664C49.5847 22.1766 49.6316 22.8924 49.6303 23.6089C49.6303 25.7235 49.2354 28.1006 48.0458 31.0729L41.6808 49.4757C47.8758 45.8631 52.0427 39.1517 52.0427 31.4642C52.0429 27.8412 51.1177 24.4343 49.4899 21.4664Z" fill="white"/>
<path d="M31.2056 7.17395C17.8119 7.17395 6.91483 18.0703 6.91483 31.4637C6.91483 44.8589 17.8119 55.7547 31.2056 55.7547C44.5986 55.7547 55.4973 44.8589 55.4973 31.4637C55.4968 18.0703 44.5986 7.17395 31.2056 7.17395ZM31.2056 54.6415C18.426 54.6415 8.02859 44.2438 8.02859 31.4637C8.02859 18.6844 18.4257 8.2877 31.2056 8.2877C43.9845 8.2877 54.3811 18.6844 54.3811 31.4637C54.3811 44.2438 43.9845 54.6415 31.2056 54.6415Z" fill="white"/>
</g>
<defs>
<clipPath id="clip0_954_300451">
<rect width="62.1856" height="62.1856" fill="white" transform="translate(0.113342 0.372437)"/>
</clipPath>
</defs>
</svg>
