<svg width="31" height="35" viewBox="0 0 31 35" fill="none" xmlns="http://www.w3.org/2000/svg">
<path d="M25.8486 6.03625H23.8473C23.2943 6.03625 22.8467 6.48379 22.8467 7.03692C22.8467 7.58998 23.2942 8.03758 23.8473 8.03758H25.8486C26.4017 8.03758 26.8493 7.59005 26.8493 7.03692C26.8492 6.48379 26.4017 6.03625 25.8486 6.03625Z" fill="#7705FF"/>
<path d="M15.7366 2.58682L14.736 0.585556C14.4869 0.0910834 13.8878 -0.107252 13.3933 0.138021C12.8988 0.385224 12.6985 0.986221 12.9458 1.48069L13.9464 3.48195C14.1933 3.97443 14.7913 4.17676 15.2891 3.92949C15.7835 3.68229 15.9838 3.08129 15.7366 2.58682Z" fill="#7705FF"/>
<path d="M22.2935 0.138009C21.8009 -0.107264 21.1981 0.091138 20.9508 0.585544L19.9501 2.5868C19.7029 3.08128 19.9033 3.68221 20.3977 3.92948C20.8969 4.17741 21.4942 3.97275 21.7403 3.48194L22.741 1.48068C22.9882 0.986209 22.7879 0.385212 22.2935 0.138009Z" fill="#7705FF"/>
<path d="M11.8398 6.03625H9.83855C9.28549 6.03625 8.83789 6.48379 8.83789 7.03692C8.83789 7.58998 9.28543 8.03758 9.83855 8.03758H11.8398C12.3929 8.03758 12.8405 7.59005 12.8405 7.03692C12.8405 6.48379 12.3929 6.03625 11.8398 6.03625Z" fill="#7705FF"/>
<path d="M5.83577 16.1093H1.83318C1.28059 16.1093 0.83252 16.5573 0.83252 17.11V33.1201C0.83252 33.6726 1.28052 34.1207 1.83318 34.1207H5.8357C6.3883 34.1207 6.83637 33.6727 6.83637 33.1201V17.1099C6.83637 16.5573 6.38843 16.1093 5.83577 16.1093Z" fill="#7705FF"/>
<path d="M30.8319 18.7618C30.6554 17.2095 29.2054 16.1093 27.6432 16.1093H19.8419C20.5049 14.9222 20.8608 11.5645 20.845 10.1928C20.8188 7.9224 18.9386 6.10297 16.6681 6.10297H15.8424C15.2893 6.10297 14.8417 6.5505 14.8417 7.10363C14.8417 9.41754 13.9407 13.5941 12.2415 15.2934C11.0977 16.4372 10.12 16.8516 8.83789 17.4923V32.5068C10.8008 33.1611 13.2931 34.1208 17.0918 34.1208H23.6375C25.7942 34.1208 27.474 32.1233 26.6382 30.0128C27.9115 29.6659 28.8506 28.4981 28.8506 27.1164C28.8506 26.7264 28.7753 26.3532 28.6395 26.0102C30.7852 25.4256 31.575 22.7761 30.0858 21.1125C30.6329 20.5013 30.9346 19.6652 30.8319 18.7618Z" fill="#7705FF"/>
</svg>
