<svg width="25" height="25" viewBox="0 0 25 25" fill="none" xmlns="http://www.w3.org/2000/svg">
<circle cx="12.3474" cy="12.4348" r="12.0652" fill="url(#paint0_linear_1111_35987)"/>
<path d="M16.9308 9.08032C16.1484 8.7663 15.3229 8.54218 14.4748 8.41354C14.4671 8.41241 14.4592 8.41339 14.4522 8.41634C14.4452 8.41929 14.4394 8.42408 14.4356 8.43003C14.3292 8.59491 14.2116 8.81057 14.1294 8.97941C13.2152 8.85806 12.2853 8.85806 11.371 8.97941C11.2793 8.79133 11.1756 8.60791 11.0604 8.43003C11.0565 8.42414 11.0507 8.41942 11.0437 8.41647C11.0367 8.41353 11.0288 8.41251 11.0211 8.41354C10.1728 8.54149 9.34711 8.76573 8.56515 9.08032C8.55845 9.08255 8.55286 9.08675 8.54931 9.09219C6.98537 11.136 6.55631 13.1298 6.76669 15.0984C6.76745 15.1076 6.77423 15.1169 6.78253 15.1228C7.69323 15.7128 8.71188 16.1633 9.79503 16.455C9.80268 16.4571 9.8109 16.4571 9.81849 16.4548C9.82608 16.4526 9.83266 16.4482 9.83726 16.4425C10.0695 16.1655 10.2761 15.8733 10.4541 15.566C10.4578 15.5597 10.4591 15.5525 10.4577 15.5455C10.4563 15.5384 10.4524 15.532 10.4465 15.5271C10.4426 15.5239 10.438 15.5214 10.433 15.5198C10.1081 15.4106 9.79344 15.2794 9.49189 15.1274C9.48347 15.1233 9.47721 15.1164 9.4744 15.1083C9.47159 15.1002 9.47246 15.0915 9.47681 15.0839C9.47938 15.079 9.48326 15.0747 9.48812 15.0714C9.55147 15.0298 9.61481 14.9863 9.67513 14.9428C9.68046 14.939 9.68686 14.9366 9.69363 14.9358C9.70041 14.935 9.7073 14.9358 9.71359 14.9381C11.6885 15.7269 13.8263 15.7269 15.7771 14.9381C15.7836 14.9357 15.7907 14.9348 15.7978 14.9356C15.8048 14.9364 15.8115 14.9389 15.817 14.9428C15.8773 14.9863 15.9407 15.0298 16.004 15.0714C16.0092 15.0746 16.0133 15.079 16.016 15.084C16.0188 15.089 16.0201 15.0946 16.0198 15.1001C16.0195 15.1057 16.0176 15.1111 16.0143 15.1158C16.011 15.1206 16.0065 15.1246 16.001 15.1274C15.7002 15.2808 15.3851 15.4119 15.0592 15.5192C15.054 15.5208 15.0493 15.5235 15.0454 15.5269C15.0414 15.5303 15.0384 15.5344 15.0366 15.539C15.0348 15.5434 15.0341 15.548 15.0345 15.5527C15.0349 15.5573 15.0364 15.5619 15.0388 15.566C15.2198 15.8727 15.4272 16.1655 15.6549 16.4425C15.6595 16.4482 15.6661 16.4526 15.6737 16.4548C15.6813 16.4571 15.6895 16.4571 15.6971 16.455C16.7821 16.1642 17.8024 15.7137 18.7141 15.1228C18.7187 15.12 18.7225 15.1164 18.7253 15.1122C18.728 15.108 18.7296 15.1033 18.73 15.0984C18.9818 12.8224 18.3085 10.8452 16.9459 9.09285C16.9445 9.08995 16.9424 9.08734 16.9398 9.08518C16.9372 9.08303 16.9342 9.08137 16.9308 9.08032ZM10.7489 13.8994C10.154 13.8994 9.66458 13.4219 9.66458 12.8363C9.66458 12.25 10.1449 11.7725 10.7489 11.7725C11.3575 11.7725 11.8423 12.2539 11.8333 12.8363C11.8333 13.4219 11.3529 13.8994 10.7489 13.8994ZM14.7576 13.8994C14.1633 13.8994 13.6732 13.4219 13.6732 12.8363C13.6732 12.25 14.1535 11.7725 14.7576 11.7725C15.3661 11.7725 15.8517 12.2539 15.8419 12.8363C15.8419 13.4219 15.3661 13.8994 14.7576 13.8994Z" fill="white"/>
<defs>
<linearGradient id="paint0_linear_1111_35987" x1="0.447263" y1="0.369093" x2="24.4289" y2="0.387727" gradientUnits="userSpaceOnUse">
<stop stop-color="#FFA200"/>
<stop offset="1" stop-color="#F47300"/>
</linearGradient>
</defs>
</svg>
