<svg width="38" height="31" viewBox="0 0 38 31" fill="none" xmlns="http://www.w3.org/2000/svg">
<path d="M37.094 3.56798C35.7146 4.17308 34.2447 4.57416 32.7123 4.7689C34.2888 3.82764 35.492 2.34851 36.0577 0.565684C34.5879 1.44203 32.965 2.06104 31.2355 2.40647C29.8398 0.920396 27.8507 0 25.6807 0C21.4705 0 18.081 3.41729 18.081 7.60659C18.081 8.20937 18.132 8.78896 18.2572 9.34074C11.935 9.03239 6.34076 6.00228 2.58267 1.38639C1.92657 2.52471 1.54172 3.82764 1.54172 5.23026C1.54172 7.86393 2.89797 10.1985 4.91959 11.5501C3.69781 11.527 2.49921 11.1723 1.48376 10.6135V10.697C1.48376 14.3925 4.11975 17.462 7.57645 18.1691C6.95745 18.3384 6.2828 18.4195 5.58265 18.4195C5.09579 18.4195 4.60429 18.3917 4.14294 18.2897C5.12825 21.3012 7.92421 23.5153 11.2488 23.5872C8.66145 25.6111 5.37631 26.8306 1.81993 26.8306C1.19628 26.8306 0.598141 26.8027 0 26.7262C3.3686 28.8986 7.36084 30.1389 11.6661 30.1389C25.6598 30.1389 33.3104 18.547 33.3104 8.49917C33.3104 8.163 33.2988 7.83843 33.2826 7.51618C34.7919 6.44509 36.06 5.10738 37.094 3.56798Z" fill="#4F389E"/>
</svg>
