<svg width="64" height="51" viewBox="0 0 64 51" fill="none" xmlns="http://www.w3.org/2000/svg">
<path d="M63.1134 6.26296C60.7847 7.29455 58.3148 7.97169 55.7857 8.27185C58.4201 6.69292 60.4428 4.19262 61.3952 1.21354C58.8909 2.69965 56.151 3.7467 53.2939 4.30946C50.9665 1.83006 47.651 0.280518 43.9813 0.280518C36.9354 0.280518 31.2229 5.99285 31.2229 13.0383C31.2229 14.0383 31.3358 15.0119 31.5532 15.9459C20.9501 15.4137 11.5494 10.3347 5.25674 2.61588C4.15877 4.50015 3.52963 6.69195 3.52963 9.02974C3.52963 13.4561 5.78216 17.3609 9.20528 19.6489C7.17927 19.5854 5.19783 19.0382 3.42639 18.053C3.42566 18.1064 3.42566 18.1598 3.42566 18.2135C3.42566 24.3949 7.82335 29.5515 13.6596 30.7235C11.7808 31.2345 9.8102 31.3092 7.89817 30.9421C9.52155 36.0107 14.2333 39.6991 19.8159 39.8024C15.4496 43.224 9.94835 45.2638 3.97124 45.2638C2.9413 45.2638 1.92592 45.2033 0.927795 45.0855C6.57381 48.7053 13.2799 50.8175 20.4847 50.8175C43.9517 50.8175 56.784 31.3769 56.784 14.5179C56.784 13.9645 56.7719 13.4143 56.7471 12.8673C59.2448 11.0617 61.4006 8.82524 63.1134 6.26296Z" fill="#55ACEE"/>
</svg>
