<svg width="44" height="36" viewBox="0 0 44 36" fill="none" xmlns="http://www.w3.org/2000/svg">
<path d="M43.5261 4.72458C41.934 5.42298 40.2375 5.8859 38.4688 6.11067C40.2884 5.02428 41.6771 3.31708 42.33 1.25935C40.6336 2.27082 38.7605 2.98528 36.7643 3.38398C35.1534 1.66876 32.8575 0.606445 30.3529 0.606445C25.4936 0.606445 21.5815 4.55065 21.5815 9.38591C21.5815 10.0816 21.6404 10.7506 21.7849 11.3875C14.4878 11.0316 8.03098 7.53422 3.69342 2.2066C2.93616 3.52045 2.49197 5.02428 2.49197 6.64317C2.49197 9.68293 4.05734 12.3775 6.39068 13.9375C4.98051 13.9108 3.59709 13.5014 2.42507 12.8565C2.42507 12.8833 2.42507 12.918 2.42507 12.9528C2.42507 17.2181 5.46751 20.761 9.45721 21.5771C8.74275 21.7724 7.96408 21.8661 7.15597 21.8661C6.59405 21.8661 6.02677 21.834 5.49427 21.7162C6.63151 25.1922 9.85859 27.7476 13.6958 27.8306C10.7095 30.1666 6.91782 31.5741 2.81307 31.5741C2.09326 31.5741 1.40289 31.542 0.712524 31.4537C4.60054 33.9609 9.20835 35.3925 14.1774 35.3925C30.3288 35.3925 39.1592 22.0133 39.1592 10.4161C39.1592 10.0281 39.1458 9.6535 39.127 9.28156C40.869 8.04531 42.3327 6.50135 43.5261 4.72458Z" fill="#F47300"/>
</svg>
