<svg width="28" height="32" viewBox="0 0 28 32" fill="none" xmlns="http://www.w3.org/2000/svg">
<path d="M18.5187 31.972L28.14 29.8907C28.14 29.8907 24.668 6.4 24.64 6.25067C24.6307 6.18174 24.5973 6.11831 24.5459 6.0715C24.4945 6.02468 24.4282 5.99748 24.3587 5.99467C24.2253 5.99467 21.7867 5.81333 21.7867 5.81333C21.7867 5.81333 20.0867 4.11467 19.868 3.932C19.822 3.8901 19.7687 3.8571 19.7107 3.83467L19.7067 3.83333L18.488 31.9667H18.5187V31.972ZM13.6827 15.0733C12.9467 14.7148 12.1412 14.5218 11.3227 14.508H11.3173C9.388 14.508 9.31733 15.716 9.31733 16.0293C9.31733 17.672 13.6373 18.316 13.6373 22.2013C13.6373 25.268 11.7173 27.2147 9.096 27.2147L8.91867 27.2173C8.06875 27.2183 7.22761 27.0455 6.44689 26.7096C5.66617 26.3737 4.96236 25.8818 4.37867 25.264L4.376 25.2613L5.23733 22.48C6.064 23.2053 7.1 23.7107 8.24267 23.8973L8.27733 23.9013L8.31867 23.9027C8.64963 23.9023 8.96717 23.7718 9.20269 23.5393C9.43821 23.3068 9.57278 22.9909 9.57733 22.66V22.6587C9.57733 20.5 6.03867 20.4 6.03867 16.8467C5.988 13.8667 8.128 10.9587 12.4693 10.9587C13.3413 10.9123 14.2113 11.0827 15.0013 11.4547L14.9693 11.4413L13.7093 15.068L13.6827 15.0813V15.0733ZM12.9627 1.10667C13.1563 1.10744 13.3444 1.17107 13.4987 1.288L13.496 1.28667C12.1907 1.90667 10.7507 3.46667 10.1587 6.60933C9.3232 6.87941 8.48354 7.13633 7.64 7.38C8.336 5 10.004 1.12 12.9627 1.12V1.10667ZM14.6027 5.03867V5.21867C13.5973 5.528 12.492 5.864 11.4107 6.2C11.5452 5.37674 11.8636 4.5944 12.3421 3.91112C12.8206 3.22784 13.447 2.6612 14.1747 2.25333L14.2027 2.23867C14.5136 3.14269 14.6534 4.09677 14.6147 5.052V5.03867H14.6027ZM15.3213 2.06C16.2467 2.15867 16.8427 3.216 17.2267 4.4C16.7613 4.552 16.2467 4.708 15.6827 4.888V4.552L15.6853 4.376C15.6853 3.548 15.552 2.74933 15.3067 2.004L15.3213 2.05733V2.06ZM19.3107 3.77867C19.284 3.77867 19.2307 3.80667 19.2067 3.80667C19.1827 3.80667 18.8213 3.90667 18.2547 4.08667C17.6907 2.44267 16.6867 0.926667 14.9107 0.926667H14.7573C14.5675 0.657363 14.3194 0.434238 14.0316 0.273825C13.7438 0.113412 13.4236 0.0198256 13.0947 0L13.0893 0C8.948 0 6.96933 5.16933 6.34933 7.79467C4.75733 8.28133 3.59867 8.64267 3.46933 8.69333C2.56933 8.97733 2.544 9.00267 2.44 9.85333C2.34 10.4693 0 28.604 0 28.604L18.0813 32L19.3173 3.77867H19.3107Z" fill="white"/>
</svg>
