<svg width="81" height="48" viewBox="0 0 81 48" fill="none" xmlns="http://www.w3.org/2000/svg">
<path fill-rule="evenodd" clip-rule="evenodd" d="M73.1217 0H7.48406C3.33026 0 -0.0322753 3.39561 0.000483873 7.51633V32.5714C0.000483873 36.7252 3.36333 40.088 7.51713 40.088H38.6049L52.8142 48L49.583 40.088H73.1217C77.2755 40.088 80.638 36.7252 80.638 32.5714V7.51633C80.638 3.36254 77.2755 0 73.1217 0ZM6.09967 5.80215C5.17674 5.86829 4.48439 6.19778 4.02261 6.82429C3.56115 7.41742 3.39641 8.17561 3.49532 9.03302C5.44039 21.3958 7.25348 29.7362 8.93491 34.055C9.59418 35.6372 10.3524 36.3957 11.2425 36.3299C12.6272 36.2307 14.2756 34.3187 16.2207 30.5936C17.2425 28.4834 18.825 25.3187 20.9676 21.0988C22.7479 27.3296 25.1875 32.011 28.2533 35.143C29.1108 36.0328 30.0009 36.4285 30.8577 36.3626C31.6162 36.2965 32.2096 35.9012 32.6053 35.1757C32.9348 34.5495 33.0667 33.8241 33.0009 33.0001C32.8031 30.0001 33.0998 25.8133 33.9238 20.4395C34.7809 14.901 35.8358 10.9119 37.1216 8.53848C37.3853 8.04394 37.4842 7.5494 37.4514 6.95596C37.3853 6.19778 37.0558 5.57157 36.4293 5.07704C35.8031 4.5825 35.1107 4.35161 34.3525 4.41744C33.3965 4.48359 32.6711 4.94505 32.1766 5.86798C30.1326 9.59339 28.682 15.6264 27.825 23.9998C26.5722 20.8351 25.5176 17.1103 24.693 12.7257C24.3308 10.7806 23.4403 9.85735 21.9897 9.95626C21.0007 10.0224 20.1766 10.6817 19.5171 11.9344L12.2974 25.6813C11.1106 20.901 9.98981 15.0661 8.96798 8.17592C8.73709 6.46142 7.78109 5.67016 6.09967 5.80215ZM69.6272 8.17592C71.9679 8.67046 73.7151 9.92318 74.902 11.9999C75.9569 13.7803 76.4842 15.9231 76.4842 18.4947C76.4842 21.8903 75.6275 24.9892 73.913 27.8242C71.9348 31.1212 69.3635 32.7695 66.1657 32.7695C65.6051 32.7695 65.0119 32.7034 64.3854 32.5714C62.045 32.0769 60.2974 30.8245 59.1106 28.7474C58.0557 26.9343 57.5284 24.7583 57.5284 22.2198C57.5284 18.8242 58.3854 15.7253 60.0996 12.9232C62.1109 9.62646 64.6821 7.97811 67.8472 7.97811C68.4075 7.97811 69.001 8.04426 69.6272 8.17592ZM68.2428 26.0107C69.4624 24.9231 70.2865 23.3078 70.7482 21.1318C70.8799 20.3737 70.9788 19.5496 70.9788 18.6925C70.9788 17.7362 70.781 16.7144 70.3854 15.6923C69.8908 14.4068 69.2316 13.7141 68.4403 13.5497C67.2537 13.3188 66.0999 13.9781 65.0119 15.5937C64.1218 16.8464 63.5611 18.1649 63.2647 19.5166C63.0996 20.2748 63.0338 21.0991 63.0338 21.9231C63.0338 22.8791 63.2316 23.9013 63.6272 24.9231C64.1218 26.2089 64.781 26.9012 65.5723 27.066C66.3963 27.2307 67.2865 26.8682 68.2428 26.0107ZM54.2317 11.9999C53.0448 9.92318 51.2644 8.67046 48.9568 8.17592C48.3303 8.04394 47.7372 7.97811 47.1765 7.97811C44.0117 7.97811 41.4405 9.62646 39.4293 12.9235C37.7148 15.7253 36.858 18.8242 36.858 22.2198C36.858 24.7587 37.3853 26.9343 38.4402 28.7474C39.6271 30.8245 41.3743 32.0769 43.715 32.5714C44.3412 32.7034 44.9347 32.7692 45.4954 32.7692C48.6932 32.7692 51.2644 31.1212 53.2426 27.8242C54.9568 24.9892 55.8139 21.89 55.8139 18.4947C55.8139 15.9231 55.2862 13.7799 54.2317 11.9999ZM50.0775 21.1322C49.6161 23.3081 48.7917 24.9234 47.5721 26.0114C46.6161 26.8685 45.7262 27.231 44.9019 27.0666C44.1107 26.9015 43.4511 26.2092 42.9568 24.9234C42.5612 23.9016 42.3634 22.8794 42.3634 21.9234C42.3634 21.0994 42.4292 20.2751 42.5943 19.5169C42.8907 18.1653 43.4511 16.8467 44.3412 15.594C45.4295 13.9784 46.5833 13.3191 47.7699 13.5497C48.5612 13.7147 49.2204 14.4071 49.715 15.6926C50.1106 16.7147 50.3084 17.7369 50.3084 18.6929C50.3084 19.5496 50.2423 20.374 50.0775 21.1322Z" fill="#6701B8"/>
</svg>
